<svg width="156" height="156" viewBox="0 0 156 156" fill="none" xmlns="http://www.w3.org/2000/svg">
<path d="M116.95 129.07V41.73L105.23 24.94C104.38 23.72 102.99 23 101.5 23H53.6C52.12 23 50.72 23.73 49.87 24.94L38.15 41.73V129.07H23V132.1H132.1V129.07H116.95ZM83.61 129.07H71.49V104.83H83.61V129.07ZM113.92 129.07H86.64V101.79H68.46V129.07H41.18V42.68L52.36 26.68C52.64 26.27 53.11 26.03 53.6 26.03H101.5C101.99 26.03 102.46 26.27 102.74 26.68L113.91 42.69V129.08L113.92 129.07Z" fill="#002341"/>
<path d="M50.28 116.95H62.4V101.8H50.28V116.95ZM53.31 104.83H59.37V113.92H53.31V104.83Z" fill="#002341"/>
<path d="M104.82 101.79H92.7V116.94H104.82V101.79Z" fill="#002341"/>
<path d="M104.82 71.49H92.7V86.64H104.82V71.49Z" fill="#002341"/>
<path d="M71.49 86.64H83.61V71.49H71.49V86.64ZM74.52 74.52H80.58V83.61H74.52V74.52Z" fill="#002341"/>
<path d="M50.28 86.64H62.4V71.49H50.28V86.64ZM53.31 74.52H59.37V83.61H53.31V74.52Z" fill="#002341"/>
<path d="M92.7 59.37H104.82V44.22H92.7V59.37ZM95.73 47.25H101.79V56.34H95.73V47.25Z" fill="#002341"/>
<path d="M71.49 59.37H83.61V44.22H71.49V59.37ZM74.52 47.25H80.58V56.34H74.52V47.25Z" fill="#002341"/>
<path d="M50.28 59.37H62.4V44.22H50.28V59.37ZM53.31 47.25H59.37V56.34H53.31V47.25Z" fill="#002341"/>
</svg>
