<svg width="156" height="156" viewBox="0 0 156 156" fill="none" xmlns="http://www.w3.org/2000/svg">
<path d="M127.1 70.8083H85.06V55.4983C85.06 54.9183 84.73 54.3983 84.21 54.1483C83.69 53.8983 83.07 53.9683 82.62 54.3283L64.04 69.1883V55.4983C64.04 54.9183 63.71 54.3983 63.19 54.1483C62.67 53.8983 62.05 53.9683 61.6 54.3283L40.99 70.8083H28V130.868H19V133.868H136.11V130.868H127.1V70.8083ZM82.06 70.8083H66.82L82.06 58.6283V70.8083ZM61.04 58.6283V70.8083H45.8L61.04 58.6283ZM103.08 130.868V112.848H115.09V130.868H103.08ZM118.09 130.868V109.848H100.07V130.868H31.01V73.8083H124.1V130.858H118.09V130.868Z" fill="#002341"/>
<path d="M40.02 124.858H52.03V109.848H40.02V124.858ZM43.02 112.848H49.03V121.858H43.02V112.848Z" fill="#002341"/>
<path d="M61.04 124.858H73.05V109.848H61.04V124.858ZM64.04 112.848H70.05V121.858H64.04V112.848Z" fill="#002341"/>
<path d="M82.06 124.858H94.07V109.848H82.06V124.858ZM85.06 112.848H91.07V121.858H85.06V112.848Z" fill="#002341"/>
<path d="M52.03 85.8183H40.02V100.828H52.03V85.8183Z" fill="#002341"/>
<path d="M73.05 85.8183H61.04V100.828H73.05V85.8183Z" fill="#002341"/>
<path d="M94.07 85.8183H82.06V100.828H94.07V85.8183Z" fill="#002341"/>
<path d="M115.09 85.8183H103.08V100.828H115.09V85.8183Z" fill="#002341"/>
</svg>
