<svg width="156" height="156" viewBox="0 0 156 156" fill="none" xmlns="http://www.w3.org/2000/svg">
<path d="M117.09 129.1V42.56L105.48 25.92C104.64 24.71 103.26 24 101.79 24H54.32C52.85 24 51.47 24.72 50.63 25.93L39.02 42.56V129.1H24V132.1H132.1V129.1H117.09ZM72.05 129.1V105.08H84.06V129.1H72.05ZM87.06 129.1V102.08H69.04V129.1H42.02V43.5L53.09 27.64C53.37 27.24 53.83 27 54.32 27H101.78C102.27 27 102.73 27.24 103.01 27.64L114.08 43.5V129.09H87.06V129.1Z" fill="#002341"/>
<path d="M93.06 117.09H105.07V102.08H93.06V117.09ZM96.06 105.08H102.07V114.09H96.06V105.08Z" fill="#002341"/>
<path d="M51.02 117.09H63.03V102.08H51.02V117.09ZM54.02 105.08H60.03V114.09H54.02V105.08Z" fill="#002341"/>
<path d="M93.06 87.06H105.07V72.05H93.06V87.06ZM96.06 75.05H102.07V84.06H96.06V75.05Z" fill="#002341"/>
<path d="M72.04 87.06H84.05V72.05H72.04V87.06ZM75.04 75.05H81.05V84.06H75.04V75.05Z" fill="#002341"/>
<path d="M51.02 87.06H63.03V72.05H51.02V87.06ZM54.02 75.05H60.03V84.06H54.02V75.05Z" fill="#002341"/>
<path d="M105.07 45.02H93.06V60.03H105.07V45.02Z" fill="#002341"/>
<path d="M84.05 45.02H72.04V60.03H84.05V45.02Z" fill="#002341"/>
<path d="M63.03 45.02H51.02V60.03H63.03V45.02Z" fill="#002341"/>
</svg>
