<svg width="156" height="156" viewBox="0 0 156 156" fill="none" xmlns="http://www.w3.org/2000/svg">
<path d="M124.69 129.1V118.88H127.92C128.75 118.88 129.42 118.21 129.42 117.38C129.42 116.55 128.75 115.88 127.92 115.88H115V108.45H118.78C119.24 108.45 119.67 108.24 119.96 107.88C120.25 107.52 120.35 107.05 120.25 106.6L114.97 84.15C114.81 83.47 114.21 82.99 113.51 82.99C112.81 82.99 112.21 83.47 112.05 84.15L106.77 106.6C106.67 107.05 106.77 107.52 107.06 107.88C107.34 108.24 107.78 108.45 108.24 108.45H112.02V115.88H96.48V42.64L87.36 26.31C86.56 24.88 85.06 24 83.43 24H46.45C44.82 24 43.31 24.88 42.52 26.31L33.4 42.64V129.1H21V132.1H135.11V129.1H124.69ZM113.5 91.05L116.89 105.45H110.12L113.51 91.05H113.5ZM121.68 118.88V129.1H115V118.88H121.68ZM112 129.1H105.32V118.88H112V129.1ZM48.29 129.05V106.53H60.3V129.05H48.29ZM63.3 129.1V103.52H45.28V129.1H36.39V43.42L45.14 27.77C45.41 27.29 45.91 27 46.45 27H83.4C83.94 27 84.45 27.29 84.71 27.77L93.45 43.42V129.09H63.3V129.1ZM96.45 118.88H102.31V129.1H96.45V118.88Z" fill="#002341"/>
<path d="M49.04 58.04H59.55V44.53H49.04V58.04ZM52.04 47.53H56.54V55.04H52.04V47.53Z" fill="#002341"/>
<path d="M70.3 58.04H80.81V44.53H70.3V58.04ZM73.3 47.53H77.8V55.04H73.3V47.53Z" fill="#002341"/>
<path d="M49.04 86.79H59.55V73.28H49.04V86.79ZM52.04 76.28H56.54V83.79H52.04V76.28Z" fill="#002341"/>
<path d="M70.3 86.79H80.81V73.28H70.3V86.79ZM73.3 76.28H77.8V83.79H73.3V76.28Z" fill="#002341"/>
<path d="M80.18 103.46H69.67V116.97H80.18V103.46Z" fill="#002341"/>
</svg>
