<svg width="156" height="156" viewBox="0 0 156 156" fill="none" xmlns="http://www.w3.org/2000/svg">
<path d="M121.52 129.71V66.27L112.79 66.34V42.72L102.77 26.19C101.95 24.84 100.46 24 98.89 24H58.14C56.56 24 55.08 24.84 54.26 26.19L44.24 42.72V66.34L35.47 66.27V129.71H21V132.74H136V129.71H121.52ZM56.85 27.76C57.12 27.31 57.62 27.03 58.14 27.03H98.89C99.42 27.03 99.91 27.31 100.18 27.76L109.76 43.57V66.35H47.27V43.57L56.85 27.76ZM72.41 129.65V106.95H84.52V129.65H72.41ZM87.54 129.71V103.93H69.38V129.71H38.5V69.32L45.65 69.36L109.83 69.37L118.49 69.32V129.71H87.54Z" fill="#002341"/>
<path d="M93.33 117.48H103.92V103.86H93.33V117.48ZM96.36 106.89H100.9V114.46H96.36V106.89Z" fill="#002341"/>
<path d="M53.08 117.48H63.67V103.86H53.08V117.48ZM56.11 106.89H60.65V114.46H56.11V106.89Z" fill="#002341"/>
<path d="M53.08 92.32H63.67V78.7H53.08V92.32ZM56.11 81.73H60.65V89.3H56.11V81.73Z" fill="#002341"/>
<path d="M73.14 92.32H83.73V78.7H73.14V92.32ZM76.17 81.73H80.71V89.3H76.17V81.73Z" fill="#002341"/>
<path d="M93.33 92.32H103.92V78.7H93.33V92.32ZM96.36 81.73H100.9V89.3H96.36V81.73Z" fill="#002341"/>
<path d="M63.67 47.48H53.08V61.1H63.67V47.48Z" fill="#002341"/>
<path d="M83.73 47.48H73.14V61.1H83.73V47.48Z" fill="#002341"/>
<path d="M103.92 47.48H93.33V61.1H103.92V47.48Z" fill="#002341"/>
</svg>
