<svg width="156" height="156" viewBox="0 0 156 156" fill="none" xmlns="http://www.w3.org/2000/svg">
<path d="M117.09 131.1V44.56L105.48 27.92C104.64 26.71 103.26 26 101.79 26H54.32C52.85 26 51.47 26.72 50.63 27.93L39.02 44.56V131.1H24V134.1H132.1V131.1H117.09ZM42.02 131.1V45.5L53.09 29.64C53.37 29.24 53.83 29 54.32 29H101.78C102.27 29 102.73 29.24 103.01 29.64L114.08 45.5V131.09H42.02V131.1Z" fill="#002341"/>
<path d="M87.06 89.06H69.04V113.08H87.06V89.06ZM84.06 110.08H72.05V92.06H84.06V110.08Z" fill="#002341"/>
<path d="M93.06 104.07H105.07V89.06H93.06V104.07ZM96.06 92.06H102.07V101.07H96.06V92.06Z" fill="#002341"/>
<path d="M63.04 89.06H51.03V104.07H63.04V89.06ZM60.04 101.07H54.03V92.06H60.04V101.07Z" fill="#002341"/>
<path d="M105.07 65.04H93.06V80.05H105.07V65.04Z" fill="#002341"/>
<path d="M84.05 65.04H72.04V80.05H84.05V65.04Z" fill="#002341"/>
<path d="M63.03 65.04H51.02V80.05H63.03V65.04Z" fill="#002341"/>
<path d="M93.06 59.03H105.07V44.02H93.06V59.03ZM96.06 47.02H102.07V56.03H96.06V47.02Z" fill="#002341"/>
<path d="M84.06 44.02H72.05V59.03H84.06V44.02ZM81.06 56.03H75.05V47.02H81.06V56.03Z" fill="#002341"/>
<path d="M63.04 44.02H51.03V59.03H63.04V44.02ZM60.04 56.03H54.03V47.02H60.04V56.03Z" fill="#002341"/>
<path d="M90.06 116.08H66.04V119.08H90.06V116.08Z" fill="#002341"/>
<path d="M96.06 124.4H60.03V127.4H96.06V124.4Z" fill="#002341"/>
</svg>
