<svg width="156" height="156" viewBox="0 0 156 156" fill="none" xmlns="http://www.w3.org/2000/svg">
<path d="M132.1 112.08H117.09V43.05L105.47 26.87C104.63 25.7 103.26 25 101.81 25H54.29C52.85 25 51.48 25.7 50.63 26.87L39.01 43.04V112.07H24V115.07H39.01V130.08H117.08V115.07H132.09V112.07L132.1 112.08ZM42.02 44.01L53.07 28.63C53.35 28.24 53.81 28.01 54.29 28.01H101.81C102.29 28.01 102.75 28.24 103.03 28.63L114.09 44.02V112.09H87.07V91.07H69.05V112.09H42.03V44.01H42.02ZM84.06 112.08H72.05V94.06H84.06V112.08ZM114.09 127.09H42.02V115.08H114.09V127.09Z" fill="#002341"/>
<path d="M51.02 58.03H63.03V43.02H51.02V58.03ZM54.02 46.02H60.03V55.03H54.02V46.02Z" fill="#002341"/>
<path d="M84.06 43.02H72.05V58.03H84.06V43.02ZM81.06 55.03H75.05V46.02H81.06V55.03Z" fill="#002341"/>
<path d="M105.07 43.02H93.06V58.03H105.07V43.02ZM102.07 55.03H96.06V46.02H102.07V55.03Z" fill="#002341"/>
<path d="M51.02 82.05H63.03V67.04H51.02V82.05ZM54.02 70.04H60.03V79.05H54.02V70.04Z" fill="#002341"/>
<path d="M84.06 67.04H72.05V82.05H84.06V67.04ZM81.06 79.05H75.05V70.04H81.06V79.05Z" fill="#002341"/>
<path d="M105.07 67.04H93.06V82.05H105.07V67.04ZM102.07 79.05H96.06V70.04H102.07V79.05Z" fill="#002341"/>
<path d="M51.02 106.07H63.03V91.06H51.02V106.07ZM54.02 94.06H60.03V103.07H54.02V94.06Z" fill="#002341"/>
<path d="M105.07 91.06H93.06V106.07H105.07V91.06ZM102.07 103.07H96.06V94.06H102.07V103.07Z" fill="#002341"/>
</svg>
