<svg width="156" height="156" viewBox="0 0 156 156" fill="none" xmlns="http://www.w3.org/2000/svg">
<path d="M103.28 73.81H92.77V60.3H103.28V73.81ZM95.77 70.81H100.27V63.3H95.77V70.81Z" fill="#002341"/>
<path d="M63.34 73.81H52.83V60.3H63.34V73.81ZM55.83 70.81H60.33V63.3H55.83V70.81Z" fill="#002341"/>
<path d="M63.34 48.85H52.83V35.34H63.34V48.85ZM55.83 45.85H60.33V38.34H55.83V45.85Z" fill="#002341"/>
<path d="M83.24 48.85H72.73V35.34H83.24V48.85ZM75.73 45.85H80.23V38.34H75.73V45.85Z" fill="#002341"/>
<path d="M83.24 73.81H72.73V60.3H83.24V73.81ZM75.73 70.81H80.23V63.3H75.73V70.81Z" fill="#002341"/>
<path d="M103.28 48.85H92.77V35.34H103.28V48.85ZM95.77 45.85H100.27V38.34H95.77V45.85Z" fill="#002341"/>
<path d="M84.02 129.3H72.01V129.36H84.02V129.3Z" fill="#002341"/>
<path d="M120.74 129.36V96.78C123.31 95.41 125.06 92.71 125.06 89.6V81.4H120.74V23L110.64 23.07H45.47L35.36 23V81.4H31.04V89.67C31.04 92.76 32.81 95.42 35.36 96.77V129.36H21V132.36H135.11V129.36H120.74ZM122.06 89.6C122.06 92.43 119.76 94.74 116.92 94.74H115.02C112.19 94.74 109.88 92.44 109.88 89.6V84.41H122.05V89.6H122.06ZM38.37 26.02L45.46 26.07H110.64V25.85V26.06L117.73 26.01V81.39H38.37V26.02ZM94.73 89.59V84.4H106.9V89.67C106.9 92.46 104.63 94.73 101.84 94.73H99.8C97.01 94.73 94.74 92.46 94.74 89.67V89.6L94.73 89.59ZM79.56 84.4H91.73V89.59C91.73 92.42 89.43 94.73 86.6 94.73H84.7C81.87 94.73 79.56 92.43 79.56 89.59V84.4ZM76.56 89.59C76.56 92.42 74.26 94.73 71.43 94.73H69.53C66.7 94.73 64.39 92.43 64.39 89.59V84.4H76.56V89.59ZM61.39 89.59V89.66C61.39 92.45 59.12 94.72 56.33 94.72H54.29C51.5 94.72 49.23 92.45 49.23 89.66V84.39H61.4V89.58L61.39 89.59ZM34.05 84.4H46.22V89.67C46.22 92.46 43.95 94.73 41.16 94.73H39.12C36.33 94.73 34.06 92.46 34.06 89.67V84.4H34.05ZM69.01 129.29H57V106.77H69.01V129.29ZM84.02 129.35H72.01V106.77H84.02V129.35ZM99.03 129.29H87.02V106.77H99.03V129.29ZM102.03 129.35V103.77H53.99V129.35H38.36V97.65C38.61 97.67 38.85 97.72 39.1 97.72H41.14C43.85 97.72 46.24 96.37 47.7 94.31C49.16 96.37 51.55 97.72 54.26 97.72H56.3C59.02 97.72 61.42 96.36 62.88 94.29C64.36 96.36 66.77 97.72 69.5 97.72H71.4C74.14 97.72 76.56 96.36 78.04 94.28C79.52 96.36 81.94 97.72 84.68 97.72H86.58C89.31 97.72 91.73 96.36 93.2 94.29C94.66 96.36 97.06 97.72 99.78 97.72H101.82C104.54 97.72 106.94 96.36 108.4 94.29C109.88 96.36 112.29 97.72 115.02 97.72H116.92C117.19 97.72 117.46 97.71 117.73 97.68V129.34H102.03V129.35Z" fill="#002341"/>
</svg>
