<svg width="156" height="156" viewBox="0 0 156 156" fill="none" xmlns="http://www.w3.org/2000/svg">
<path d="M33.9765 83H42C42.5523 83 43 83.4477 43 84V99.0495C43 99.5745 43.4255 100 43.9505 100H69.0495C69.5745 100 70 100.426 70 100.95V112.05C70 112.574 70.4255 113 70.9505 113H96.0495C96.5745 113 97 113.426 97 113.95V125.05C97 125.574 97.4255 126 97.9505 126H109C111.209 126 113 124.209 113 122V102V83.8534C113 83.2964 113.455 82.8467 114.012 82.8535L121.227 82.9417C123.001 82.9633 123.923 80.8364 122.694 79.5568L80.8725 35.9922C79.3032 34.3575 76.6907 34.3516 75.114 35.9791L57.3094 54.358C53.5581 58.2304 47 55.5747 47 50.1832V49C47 48.4477 46.5523 48 46 48H44C43.4477 48 43 48.4477 43 49V69.1528C43 69.4253 42.8888 69.6861 42.692 69.8747L32.5925 79.5562C31.2914 80.8034 32.1742 83 33.9765 83Z" fill="#C2DDFF"/>
<path fill-rule="evenodd" clip-rule="evenodd" d="M73.8886 24.8403C76.2303 22.4061 80.1189 22.3838 82.4884 24.7909L139.255 82.4585C141.744 84.9874 139.953 89.2646 136.404 89.2646H121.18V107.265C121.18 108.369 120.284 109.265 119.18 109.265C118.075 109.265 117.18 108.369 117.18 107.265V88.2646C117.18 86.6078 118.523 85.2646 120.18 85.2646H136.404L79.6378 27.597C78.848 26.7946 77.5518 26.802 76.7712 27.6134L56.3416 48.8499C54.4692 50.7963 51.1796 49.4709 51.1796 46.7701V42.2646H39.1796V64.8504C39.1796 65.646 38.8635 66.4091 38.3009 66.9717L20.008 85.2646H36.1796C37.8364 85.2646 39.1796 86.6078 39.1796 88.2646V102.265H63.2291C64.8586 102.265 66.1796 103.586 66.1796 105.215V115.265H90.2291C91.8586 115.265 93.1796 116.586 93.1796 118.215V128.265H115.18C116.284 128.265 117.18 127.369 117.18 126.265V115.265C117.18 114.16 118.075 113.265 119.18 113.265C120.284 113.265 121.18 114.16 121.18 115.265V126.265C121.18 129.578 118.493 132.265 115.18 132.265H92.1301C90.5006 132.265 89.1796 130.944 89.1796 129.314V119.265H65.1301C63.5006 119.265 62.1796 117.944 62.1796 116.314V106.265H38.1301C36.5006 106.265 35.1796 104.944 35.1796 103.314V89.2646H20.008C16.4444 89.2646 14.6597 84.956 17.1796 82.4362L35.1796 64.4362V41.2646C35.1796 39.6078 36.5227 38.2646 38.1796 38.2646H52.1796C53.8364 38.2646 55.1796 39.6078 55.1796 41.2646V44.2882L73.8886 24.8403Z" fill="#002240"/>
</svg>
