<svg width="156" height="156" viewBox="0 0 156 156" fill="none" xmlns="http://www.w3.org/2000/svg">
<path d="M89.55 88.05H44.51V37H89.55V88.05ZM47.51 85.05H86.55V40H47.52V85.04L47.51 85.05Z" fill="#002341"/>
<path d="M68.53 40H65.53V85.04H68.53V40Z" fill="#002341"/>
<path d="M74.54 76.04H67.03C66.2 76.04 65.53 75.37 65.53 74.54C65.53 73.71 66.2 73.04 67.03 73.04H74.54C75.37 73.04 76.04 73.71 76.04 74.54C76.04 75.37 75.37 76.04 74.54 76.04Z" fill="#002341"/>
<path d="M124.09 121.08H37.01V124.08H124.09V121.08Z" fill="#002341"/>
<path d="M38.5 85.04H35.5V124.08H38.5V85.04Z" fill="#002341"/>
<path d="M37.01 110.56C38.6669 110.56 40.01 109.217 40.01 107.56C40.01 105.903 38.6669 104.56 37.01 104.56C35.3531 104.56 34.01 105.903 34.01 107.56C34.01 109.217 35.3531 110.56 37.01 110.56Z" fill="#002341"/>
<path d="M37.01 112.07C34.53 112.07 32.51 110.05 32.51 107.57C32.51 105.09 34.53 103.07 37.01 103.07C39.49 103.07 41.51 105.09 41.51 107.57C41.51 110.05 39.49 112.07 37.01 112.07ZM37.01 106.06C36.18 106.06 35.51 106.73 35.51 107.56C35.51 108.39 36.18 109.06 37.01 109.06C37.84 109.06 38.51 108.39 38.51 107.56C38.51 106.73 37.84 106.06 37.01 106.06Z" fill="#002341"/>
<path d="M56.52 85.04H53.52V121.07H56.52V85.04Z" fill="#002341"/>
<path d="M55.02 110.56C56.6769 110.56 58.02 109.217 58.02 107.56C58.02 105.903 56.6769 104.56 55.02 104.56C53.3631 104.56 52.02 105.903 52.02 107.56C52.02 109.217 53.3631 110.56 55.02 110.56Z" fill="#002341"/>
<path d="M55.02 112.07C52.54 112.07 50.52 110.05 50.52 107.57C50.52 105.09 52.54 103.07 55.02 103.07C57.5 103.07 59.52 105.09 59.52 107.57C59.52 110.05 57.5 112.07 55.02 112.07ZM55.02 106.06C54.19 106.06 53.52 106.73 53.52 107.56C53.52 108.39 54.19 109.06 55.02 109.06C55.85 109.06 56.52 108.39 56.52 107.56C56.52 106.73 55.85 106.06 55.02 106.06Z" fill="#002341"/>
<path d="M71.53 85.04H68.53V121.07H71.53V85.04Z" fill="#002341"/>
<path d="M70.04 110.56C71.6969 110.56 73.04 109.217 73.04 107.56C73.04 105.903 71.6969 104.56 70.04 104.56C68.3831 104.56 67.04 105.903 67.04 107.56C67.04 109.217 68.3831 110.56 70.04 110.56Z" fill="#002341"/>
<path d="M70.04 112.07C67.56 112.07 65.54 110.05 65.54 107.57C65.54 105.09 67.56 103.07 70.04 103.07C72.52 103.07 74.54 105.09 74.54 107.57C74.54 110.05 72.52 112.07 70.04 112.07ZM70.04 106.06C69.21 106.06 68.54 106.73 68.54 107.56C68.54 108.39 69.21 109.06 70.04 109.06C70.87 109.06 71.54 108.39 71.54 107.56C71.54 106.73 70.87 106.06 70.04 106.06Z" fill="#002341"/>
<path d="M89.55 85.04H86.55V121.07H89.55V85.04Z" fill="#002341"/>
<path d="M88.05 110.56C89.7069 110.56 91.05 109.217 91.05 107.56C91.05 105.903 89.7069 104.56 88.05 104.56C86.3931 104.56 85.05 105.903 85.05 107.56C85.05 109.217 86.3931 110.56 88.05 110.56Z" fill="#002341"/>
<path d="M88.05 112.07C85.57 112.07 83.55 110.05 83.55 107.57C83.55 105.09 85.57 103.07 88.05 103.07C90.53 103.07 92.55 105.09 92.55 107.57C92.55 110.05 90.53 112.07 88.05 112.07ZM88.05 106.06C87.22 106.06 86.55 106.73 86.55 107.56C86.55 108.39 87.22 109.06 88.05 109.06C88.88 109.06 89.55 108.39 89.55 107.56C89.55 106.73 88.88 106.06 88.05 106.06Z" fill="#002341"/>
<path d="M107.57 85.04H104.57V121.07H107.57V85.04Z" fill="#002341"/>
<path d="M106.07 110.56C107.727 110.56 109.07 109.217 109.07 107.56C109.07 105.903 107.727 104.56 106.07 104.56C104.413 104.56 103.07 105.903 103.07 107.56C103.07 109.217 104.413 110.56 106.07 110.56Z" fill="#002341"/>
<path d="M106.07 112.07C103.59 112.07 101.57 110.05 101.57 107.57C101.57 105.09 103.59 103.07 106.07 103.07C108.55 103.07 110.57 105.09 110.57 107.57C110.57 110.05 108.55 112.07 106.07 112.07ZM106.07 106.06C105.24 106.06 104.57 106.73 104.57 107.56C104.57 108.39 105.24 109.06 106.07 109.06C106.9 109.06 107.57 108.39 107.57 107.56C107.57 106.73 106.9 106.06 106.07 106.06Z" fill="#002341"/>
<path d="M125.58 85.04H122.58V124.08H125.58V85.04Z" fill="#002341"/>
<path d="M124.09 110.56C125.747 110.56 127.09 109.217 127.09 107.56C127.09 105.903 125.747 104.56 124.09 104.56C122.433 104.56 121.09 105.903 121.09 107.56C121.09 109.217 122.433 110.56 124.09 110.56Z" fill="#002341"/>
<path d="M124.09 112.07C121.61 112.07 119.59 110.05 119.59 107.57C119.59 105.09 121.61 103.07 124.09 103.07C126.57 103.07 128.59 105.09 128.59 107.57C128.59 110.05 126.57 112.07 124.09 112.07ZM124.09 106.06C123.26 106.06 122.59 106.73 122.59 107.56C122.59 108.39 123.26 109.06 124.09 109.06C124.92 109.06 125.59 108.39 125.59 107.56C125.59 106.73 124.92 106.06 124.09 106.06Z" fill="#002341"/>
<path d="M130.09 85.04H31V88.04H130.09V85.04Z" fill="#002341"/>
</svg>
