<svg width="156" height="156" viewBox="0 0 156 156" fill="none" xmlns="http://www.w3.org/2000/svg">
<path d="M117.09 43H114.09V70.02H42.02V43H39.02V70.02H21V73.02H39.02V127.07H117.09V73.03H135.11V70.03H117.09V43ZM114.09 124.07H78.06V115.06H90.07V106.05H102.08V94.04H114.09V124.07ZM114.09 91.04H99.08V103.05H87.07V112.06H75.06V124.07H42.02V73.03H114.09V91.05V91.04Z" fill="#002341"/>
<path d="M66.06 112.06L66.03 109.06L59.19 109.13L83.62 84.6L81.49 82.48L57 107.08L56.93 100.04L53.93 100.07L54.04 112.19L66.06 112.06Z" fill="#002341"/>
</svg>
