<svg width="156" height="156" viewBox="0 0 156 156" fill="none" xmlns="http://www.w3.org/2000/svg">
<path d="M81.61 34C79.13 34 77.11 36.02 77.11 38.5V122.4H129.54V38.5C129.54 36.02 127.52 34 125.04 34H81.61ZM126.53 119.4H118.44V49.05C118.44 46.86 116.71 45.07 114.58 45.07H100.23C98.1 45.07 96.37 46.85 96.37 49.05V56.05H87.47V59.05H108.68V56.05H99.37V49.05C99.37 48.51 99.75 48.07 100.23 48.07H114.58C115.05 48.07 115.44 48.51 115.44 49.05V119.4H80.11V38.5C80.11 37.67 80.78 37 81.61 37H125.03C125.86 37 126.53 37.67 126.53 38.5V119.4Z" fill="#002341"/>
<path d="M90.83 67.12C91.5921 67.12 92.21 66.5022 92.21 65.74C92.21 64.9778 91.5921 64.36 90.83 64.36C90.0678 64.36 89.45 64.9778 89.45 65.74C89.45 66.5022 90.0678 67.12 90.83 67.12Z" fill="#002341"/>
<path d="M97.88 67.12C98.6421 67.12 99.26 66.5022 99.26 65.74C99.26 64.9778 98.6421 64.36 97.88 64.36C97.1178 64.36 96.5 64.9778 96.5 65.74C96.5 66.5022 97.1178 67.12 97.88 67.12Z" fill="#002341"/>
<path d="M104.92 67.12C105.68 67.12 106.3 66.5 106.3 65.74C106.3 64.98 105.68 64.36 104.92 64.36C104.16 64.36 103.54 64.98 103.54 65.74C103.54 66.5 104.16 67.12 104.92 67.12Z" fill="#002341"/>
<path d="M90.83 73.79C91.59 73.79 92.21 73.17 92.21 72.41C92.21 71.65 91.59 71.03 90.83 71.03C90.07 71.03 89.45 71.65 89.45 72.41C89.45 73.17 90.07 73.79 90.83 73.79Z" fill="#002341"/>
<path d="M97.88 73.79C98.64 73.79 99.26 73.17 99.26 72.41C99.26 71.65 98.64 71.03 97.88 71.03C97.12 71.03 96.5 71.65 96.5 72.41C96.5 73.17 97.12 73.79 97.88 73.79Z" fill="#002341"/>
<path d="M104.92 73.79C105.68 73.79 106.3 73.17 106.3 72.41C106.3 71.65 105.68 71.03 104.92 71.03C104.16 71.03 103.54 71.65 103.54 72.41C103.54 73.17 104.16 73.79 104.92 73.79Z" fill="#002341"/>
<path d="M90.83 80.45C91.59 80.45 92.21 79.83 92.21 79.07C92.21 78.31 91.59 77.69 90.83 77.69C90.07 77.69 89.45 78.31 89.45 79.07C89.45 79.83 90.07 80.45 90.83 80.45Z" fill="#002341"/>
<path d="M97.88 80.45C98.64 80.45 99.26 79.83 99.26 79.07C99.26 78.31 98.64 77.69 97.88 77.69C97.12 77.69 96.5 78.31 96.5 79.07C96.5 79.83 97.12 80.45 97.88 80.45Z" fill="#002341"/>
<path d="M104.92 80.45C105.68 80.45 106.3 79.83 106.3 79.07C106.3 78.31 105.68 77.69 104.92 77.69C104.16 77.69 103.54 78.31 103.54 79.07C103.54 79.83 104.16 80.45 104.92 80.45Z" fill="#002341"/>
<path d="M90.83 87.11C91.5921 87.11 92.21 86.4922 92.21 85.73C92.21 84.9678 91.5921 84.35 90.83 84.35C90.0678 84.35 89.45 84.9678 89.45 85.73C89.45 86.4922 90.0678 87.11 90.83 87.11Z" fill="#002341"/>
<path d="M97.88 87.11C98.6421 87.11 99.26 86.4922 99.26 85.73C99.26 84.9678 98.6421 84.35 97.88 84.35C97.1178 84.35 96.5 84.9678 96.5 85.73C96.5 86.4922 97.1178 87.11 97.88 87.11Z" fill="#002341"/>
<path d="M104.92 87.11C105.68 87.11 106.3 86.49 106.3 85.73C106.3 84.97 105.68 84.35 104.92 84.35C104.16 84.35 103.54 84.97 103.54 85.73C103.54 86.49 104.16 87.11 104.92 87.11Z" fill="#002341"/>
<path d="M63.9 79.33C61.77 79.33 60.04 81.06 60.04 83.19V89.39H33.17C31.04 89.39 29.4 90.01 28.31 91.22C26.83 92.86 27 94.9 27.02 95.13H27.06V95.78C27.06 96.04 27.1 102.24 32.01 107.16C35.59 110.75 40.74 112.69 47.35 112.94V122.4H63.06V108.26H71.31V83.19C71.31 81.06 69.58 79.33 67.45 79.33H63.9ZM33.17 92.39H60.05V94.36L30.05 94.29C30.11 93.96 30.24 93.55 30.56 93.21C31.07 92.66 31.95 92.39 33.18 92.39H33.17ZM60.05 119.4H50.35V109.97H48.85C33.78 109.97 30.8 100.95 30.21 97.29L60.05 97.36V119.4ZM63.05 105.26V83.19C63.05 82.72 63.43 82.34 63.91 82.34H67.45C67.92 82.34 68.31 82.72 68.31 83.19V105.26H63.05Z" fill="#002341"/>
</svg>
