<svg width="156" height="156" viewBox="0 0 156 156" fill="none" xmlns="http://www.w3.org/2000/svg">
<path d="M117.2 112.9C117.08 109.65 114.75 106.51 112.28 103.18C109.79 99.83 107.21 96.35 107.21 93.03C107.21 92.22 107.23 91.25 107.24 90.17C107.37 82.23 107.61 67.45 102.37 58.16C97.8301 50.1 90.5701 47.42 87.8001 46.66C87.1901 42.89 84.6401 37.26 78.1201 37.26C71.6001 37.26 68.8701 42.9 68.1501 46.65C65.4101 47.4 58.1101 50.07 53.5501 58.16C48.3101 67.45 48.5601 82.22 48.6901 90.16C48.7101 91.24 48.7201 92.21 48.7201 93.02C48.7201 96.35 46.1401 99.82 43.6501 103.17C41.1801 106.49 38.8501 109.63 38.7301 112.89L38.6701 114.45H64.9801C66.3501 116.05 71.3801 121.37 77.9601 121.37C84.5401 121.37 90.0601 115.97 91.4701 114.45H117.24L117.18 112.9H117.2ZM77.9701 118.37C74.3601 118.37 71.2101 116.22 69.2201 114.45H87.0801C84.9201 116.23 81.5801 118.37 77.9701 118.37ZM42.0501 111.45C42.7201 109.49 44.3501 107.28 46.0701 104.97C48.8501 101.22 51.7301 97.35 51.7301 93.03C51.7301 92.2 51.7101 91.22 51.7001 90.12C51.5801 82.46 51.3401 68.22 56.1801 59.64C61.0401 51.01 69.6701 49.38 69.7601 49.36L70.8701 49.16L70.9901 48.04C71.0301 47.72 71.9001 40.27 78.1401 40.27C84.3801 40.27 84.9301 47.67 84.9501 47.98L85.0301 49.16L86.1901 49.36C86.2801 49.37 94.8701 50.96 99.7701 59.64C104.61 68.22 104.37 82.47 104.25 90.12C104.23 91.22 104.22 92.2 104.22 93.03C104.22 97.35 107.1 101.22 109.88 104.97C111.59 107.28 113.23 109.49 113.9 111.45H42.0501Z" fill="#002341"/>
<path d="M41.7001 72.59C37.8901 57.62 48.9401 48.08 49.4101 47.68L47.4801 45.38C46.9501 45.83 34.5101 56.49 38.7901 73.32L41.7001 72.58V72.59Z" fill="#002341"/>
<path d="M109.44 45.39L107.51 47.69C107.98 48.09 119.03 57.63 115.22 72.6L118.13 73.34C122.41 56.51 109.98 45.84 109.44 45.4V45.39Z" fill="#002341"/>
<path d="M43.1201 37.41L41.3301 35C41.1101 35.17 19.0801 51.95 28.2301 79.23L31.0801 78.28C22.6301 53.09 42.2801 38.04 43.1201 37.41Z" fill="#002341"/>
<path d="M115.46 35L113.67 37.41C113.88 37.56 134.18 53.04 125.72 78.28L128.57 79.23C137.71 51.95 115.68 35.17 115.46 35Z" fill="#002341"/>
</svg>
