<svg width="156" height="156" viewBox="0 0 156 156" fill="none" xmlns="http://www.w3.org/2000/svg">
<path fill-rule="evenodd" clip-rule="evenodd" d="M45 116L45.0004 29C45.0004 27.8954 45.8959 27 47.0004 27H109C110.105 27 111 27.8954 111 29L111 116C111 117.105 110.105 118 109 118H108C103.582 118 100 121.582 100 126L100 127C100 128.105 99.105 129 98.0004 129H57.9999C56.8954 129 56 128.105 55.9999 127L55.9999 126C55.9997 121.582 52.418 118 47.9999 118H47C45.8954 118 45 117.105 45 116ZM105 88C105 102.359 93.3594 114 79 114C64.6406 114 53 102.359 53 88C53 73.6406 64.6406 62 79 62C93.3594 62 105 73.6406 105 88ZM78 49C82.4183 49 86 45.4183 86 41C86 36.5817 82.4183 33 78 33C73.5817 33 70 36.5817 70 41C70 45.4183 73.5817 49 78 49Z" fill="#C2DDFF"/>
<path fill-rule="evenodd" clip-rule="evenodd" d="M68.5 104.5C63.0002 98.9998 64.5001 94 65.5 91.5C66.5 89 69.4383 86.0616 71.4999 84.0001L71.5 84C74 81.5 74.24 80.0596 74.5 78.5C74.5873 77.976 74.6746 77.5131 74.754 77.0925C75.1289 75.1049 75.3254 74.0634 74.5 72C74.5 72 75.7252 72.2252 77 73.5L77 73.5001C79 75.5001 80.5 77.0001 81.5 79.5C82.5 82 82.0001 87.5 82.0001 87.5C82.0001 87.5 84.5 87 85.5 86C87.2677 84.2322 87.8333 81.8333 88 81C90 82.5 92.1615 85.2921 93 92C93.5 96 92.5 99 91.5 101C89.8721 104.256 87.0001 106 84.5001 107.5C83.9261 107.844 83.4838 108.11 83.0947 108.314C83.8667 107.023 84.3814 105.05 83.6405 102.784C82.9414 100.645 80.2041 96.9775 78.8057 95.5617C78.532 95.2846 78.1908 95.4955 78.1817 95.885C78.1401 97.682 77.1633 99.0097 76.4307 99.7568C75.5825 100.622 74.7344 101.486 73.8862 102.784C73.0382 104.081 72.6145 105.81 73.4618 107.972C71.7174 107.2 70.0167 106.017 68.5 104.5Z" fill="#C2DDFF"/>
<path fill-rule="evenodd" clip-rule="evenodd" d="M37 26C37 22.134 40.134 19 44 19H112C115.866 19 119 22.134 119 26V117.5C119 121.366 115.866 124.5 112 124.5H111C109.343 124.5 108 125.843 108 127.5V130C108 133.866 104.866 137 101 137H55C51.134 137 48 133.866 48 130V127.5C48 125.843 46.6569 124.5 45 124.5H44C40.134 124.5 37 121.366 37 117.5V49C37 47.8954 37.8954 47 39 47C40.1046 47 41 47.8954 41 49V117.5C41 119.157 42.3431 120.5 44 120.5H45C48.866 120.5 52 123.634 52 127.5V130C52 131.657 53.3431 133 55 133H101C102.657 133 104 131.657 104 130V127.5C104 123.634 107.134 120.5 111 120.5H112C113.657 120.5 115 119.157 115 117.5V26C115 24.3431 113.657 23 112 23H44C42.3431 23 41 24.3431 41 26V41C41 42.1046 40.1046 43 39 43C37.8954 43 37 42.1046 37 41V26Z" fill="#1C3553"/>
<path fill-rule="evenodd" clip-rule="evenodd" d="M79 63C65.1929 63 54 74.1929 54 88C54 101.807 65.1929 113 79 113C92.8071 113 104 101.807 104 88C104 74.1929 92.8071 63 79 63ZM50 88C50 71.9837 62.9837 59 79 59C95.0163 59 108 71.9837 108 88C108 104.016 95.0163 117 79 117C62.9837 117 50 104.016 50 88Z" fill="#1C3553"/>
<path fill-rule="evenodd" clip-rule="evenodd" d="M78 35C74.6863 35 72 37.6863 72 41C72 44.3137 74.6863 47 78 47C81.3137 47 84 44.3137 84 41C84 37.6863 81.3137 35 78 35ZM68 41C68 35.4772 72.4772 31 78 31C83.5228 31 88 35.4772 88 41C88 46.5228 83.5228 51 78 51C72.4772 51 68 46.5228 68 41Z" fill="#1C3553"/>
<path fill-rule="evenodd" clip-rule="evenodd" d="M81.4142 37.5858C82.1953 38.3668 82.1953 39.6332 81.4142 40.4142L79.4142 42.4142C78.6332 43.1953 77.3668 43.1953 76.5858 42.4142C75.8047 41.6332 75.8047 40.3668 76.5858 39.5858L78.5858 37.5858C79.3668 36.8047 80.6332 36.8047 81.4142 37.5858Z" fill="#1C3553"/>
<path fill-rule="evenodd" clip-rule="evenodd" d="M75.5697 70.3101L74.5 72C75.5697 70.3101 75.5696 70.3101 75.5697 70.3101L75.5809 70.3172L75.6074 70.3341L75.7035 70.3958C75.7857 70.4488 75.9029 70.525 76.0469 70.62C76.3343 70.8095 76.7316 71.0763 77.1717 71.3855C78.0183 71.9803 79.1437 72.8153 79.9142 73.5858C80.9659 74.6375 81.7027 75.504 82.2498 76.3638C82.8111 77.2458 83.1223 78.0425 83.3973 78.8676C83.9335 80.4763 84.0507 82.7667 84.0692 84.4358C84.0698 84.4909 84.0703 84.5457 84.0707 84.6001C84.076 84.5952 84.081 84.5905 84.0857 84.5858C85.4119 83.2595 85.887 81.3666 86.0388 80.6078C86.1735 79.9342 86.6444 79.3769 87.2861 79.1317C87.9278 78.8866 88.6504 78.9879 89.1999 79.4C91.7366 81.3026 94.0965 84.6479 94.9845 91.7519C95.5451 96.2367 94.4182 99.6356 93.2888 101.894C91.385 105.702 88.0471 107.704 85.5977 109.174L85.5291 109.215C85.474 109.248 85.4196 109.281 85.3659 109.313C84.0293 110.116 83.0977 110.676 81.6105 110.88C80.7309 111 79.8771 110.527 79.5138 109.717C79.1505 108.907 79.3648 107.954 80.0399 107.377C80.108 107.319 80.1752 107.257 80.2418 107.189C80.6827 106.743 81.323 105.52 80.8061 103.95C80.625 103.399 80.1008 102.466 79.3728 101.416C79.3037 101.316 79.234 101.217 79.1642 101.119C78.8475 101.6 78.511 101.986 78.2299 102.27C77.5384 102.97 76.9705 103.551 76.3955 104.424C76.1904 104.736 76.0595 105.062 76.0162 105.414C75.9736 105.759 76.0044 106.213 76.2383 106.806C76.3412 107.067 76.4417 107.255 76.5334 107.393C77.0028 108.098 76.9777 109.022 76.4706 109.7C75.9635 110.378 75.0844 110.663 74.2758 110.412C71.6942 109.61 69.2031 108.032 67.0857 105.914C64.0313 102.86 62.7997 99.803 62.5695 97.041C62.3437 94.3315 63.1011 92.1121 63.643 90.7573C64.2689 89.1926 65.4308 87.63 66.5827 86.2848C67.7503 84.9212 69.0453 83.6262 70.0651 82.6064L70.081 82.5905L70.0856 82.5859C71.2243 81.4472 71.7488 80.6487 72.0277 80.0513C72.305 79.4574 72.3968 78.9532 72.5271 78.1712C72.7433 76.874 72.7492 75.4107 72.6899 74.2249C72.6608 73.6421 72.6171 73.1472 72.581 72.8009C72.563 72.6282 72.547 72.4934 72.5359 72.4043C72.5303 72.3598 72.526 72.3267 72.5232 72.3062L72.5203 72.2848L72.5201 72.2828C72.4099 71.5106 72.7587 70.7444 73.4137 70.3207C74.0688 69.897 74.9105 69.8928 75.5697 70.3101ZM80.0042 87.3713L80.0043 87.3702L80.0048 87.3615L80.0072 87.3217C80.0093 87.2854 80.0124 87.2302 80.0162 87.158C80.0236 87.0134 80.0335 86.8014 80.0429 86.538C80.0618 86.0097 80.0783 85.2815 80.0694 84.4801C80.0507 82.7878 79.9177 81.0781 79.6025 80.1324C79.3776 79.4575 79.1888 79.0042 78.8751 78.5113C78.5472 77.996 78.0341 77.3625 77.0857 76.4142C76.9779 76.3064 76.8532 76.1912 76.7156 76.0711C76.6954 76.9557 76.6267 77.9046 76.4727 78.8288C76.4699 78.8457 76.4671 78.8626 76.4643 78.8796C76.3361 79.6496 76.1734 80.6269 75.6522 81.7434C75.1214 82.8805 74.2764 84.0515 72.9166 85.4118C72.9158 85.4126 72.9149 85.4134 72.9141 85.4142C71.8755 86.4529 70.68 87.6497 69.621 88.8865C68.5383 90.1509 67.7311 91.3075 67.357 92.2428C66.8989 93.3879 66.4065 94.9184 66.5557 96.7088C66.7005 98.4468 67.4688 100.64 69.9142 103.086C70.5985 103.77 71.3168 104.371 72.0515 104.883C72.1823 103.883 72.5519 102.988 73.0546 102.225C73.8574 101.005 74.6671 100.185 75.3578 99.4859L75.3838 99.4595C75.796 99.0422 76.1924 98.4519 76.2364 97.7571C76.281 97.0544 76.6358 96.1805 77.5157 95.7118C78.5526 95.1594 79.657 95.51 80.3072 96.1886C80.9847 96.8956 81.8726 98.0005 82.6604 99.1371C83.4221 100.236 84.233 101.567 84.6056 102.699C84.8505 103.443 84.9717 104.163 84.9966 104.847C86.9353 103.604 88.6488 102.23 89.7111 100.106C90.5816 98.3644 91.4548 95.7633 91.0154 92.2481C90.5581 88.5897 89.7063 86.2997 88.786 84.807C88.3389 85.6802 87.7333 86.595 86.9142 87.4142C86.0538 88.2746 84.7741 88.7668 84.0075 89.0224C83.572 89.1676 83.1771 89.2751 82.8914 89.3465C82.7475 89.3825 82.6288 89.41 82.5433 89.4289C82.5005 89.4385 82.4659 89.4459 82.4404 89.4512L82.4092 89.4577L82.3989 89.4598L82.3951 89.4606L82.3936 89.4609C82.3933 89.461 82.3923 89.4612 82.0001 87.5L82.3923 89.4612C81.7826 89.5831 81.1509 89.4145 80.683 89.0051C80.2151 88.5956 79.9642 87.9917 80.0042 87.3713C80.0042 87.3712 80.0042 87.3713 80.0042 87.3713Z" fill="#1C3553"/>
</svg>
