<svg width="156" height="156" viewBox="0 0 156 156" fill="none" xmlns="http://www.w3.org/2000/svg">
<path d="M39 117.5V26C39 23.2386 41.2386 21 44 21H112C114.761 21 117 23.2386 117 26V117.5C117 120.261 114.761 122.5 112 122.5H111C108.239 122.5 106 124.739 106 127.5V130C106 132.761 103.761 135 101 135H55C52.2386 135 50 132.761 50 130V127.5C50 124.739 47.7614 122.5 45 122.5H44C41.2386 122.5 39 120.261 39 117.5Z" stroke="#1C3553" stroke-width="4"/>
<path d="M25 101H46" stroke="black"/>
<path fill-rule="evenodd" clip-rule="evenodd" d="M45 116L45.0004 29C45.0004 27.8954 45.8959 27 47.0004 27H109C110.105 27 111 27.8954 111 29L111 116C111 117.105 110.105 118 109 118H108C103.582 118 100 121.582 100 126L100 127C100 128.105 99.105 129 98.0004 129H57.9999C56.8954 129 56 128.105 55.9999 127L55.9999 126C55.9997 121.582 52.418 118 47.9999 118H47C45.8954 118 45 117.105 45 116ZM105 88C105 102.359 93.3594 114 79 114C64.6406 114 53 102.359 53 88C53 73.6406 64.6406 62 79 62C93.3594 62 105 73.6406 105 88ZM78 49C82.4183 49 86 45.4183 86 41C86 36.5817 82.4183 33 78 33C73.5817 33 70 36.5817 70 41C70 45.4183 73.5817 49 78 49Z" fill="#C2DDFF"/>
<circle cx="79" cy="88" r="27" stroke="#1C3553" stroke-width="4"/>
<circle cx="78" cy="41" r="8" stroke="#1C3553" stroke-width="4"/>
<path d="M78 41L80 39" stroke="#1C3553" stroke-width="4" stroke-linecap="round"/>
<path fill-rule="evenodd" clip-rule="evenodd" d="M68.5 104.5C63.0002 98.9998 64.5001 94 65.5 91.5C66.5 89 69.4383 86.0616 71.4999 84.0001L71.5 84C74 81.5 74.24 80.0596 74.5 78.5C74.5873 77.976 74.6746 77.5131 74.754 77.0925C75.1289 75.1049 75.3254 74.0634 74.5 72C74.5 72 75.7252 72.2252 77 73.5L77 73.5001C79 75.5001 80.5 77.0001 81.5 79.5C82.5 82 82.0001 87.5 82.0001 87.5C82.0001 87.5 84.5 87 85.5 86C87.2677 84.2322 87.8333 81.8333 88 81C90 82.5 92.1615 85.2921 93 92C93.5 96 92.5 99 91.5 101C89.8721 104.256 87.0001 106 84.5001 107.5C83.9261 107.844 83.4838 108.11 83.0947 108.314C83.8667 107.023 84.3814 105.05 83.6405 102.784C82.9414 100.645 80.2041 96.9775 78.8057 95.5617C78.532 95.2846 78.1908 95.4955 78.1817 95.885C78.1401 97.682 77.1633 99.0097 76.4307 99.7568C75.5825 100.622 74.7344 101.486 73.8862 102.784C73.0382 104.081 72.6145 105.81 73.4618 107.972C71.7174 107.2 70.0167 106.017 68.5 104.5Z" fill="#C2DDFF"/>
<path d="M65.5 91.5L67.357 92.2428L65.5 91.5ZM68.5 104.5L69.9143 103.086L68.5 104.5ZM71.4999 84.0001L72.9141 85.4143L72.9187 85.4097L71.4999 84.0001ZM71.5 84L70.0857 82.5858L70.0812 82.5904L71.5 84ZM74.5 78.5L72.5272 78.1712V78.1712L74.5 78.5ZM74.5 72L75.5698 70.3101C74.9106 69.8928 74.0688 69.897 73.4137 70.3207C72.7586 70.7444 72.4098 71.5105 72.5201 72.2828L74.5 72ZM78.5 75L79.9142 73.5858V73.5858L78.5 75ZM81.5 79.5L79.6026 80.1324L81.5 79.5ZM82.0001 87.5L80.0043 87.3713C79.9642 87.9918 80.2151 88.5956 80.683 89.0051C81.1509 89.4145 81.7826 89.5831 82.3924 89.4612L82.0001 87.5ZM85.5 86L84.0857 84.5858L85.5 86ZM88 81L89.2 79.4C88.6504 78.9879 87.9278 78.8866 87.2862 79.1317C86.6445 79.3769 86.1735 79.9342 86.0388 80.6078L88 81ZM93 92L94.9845 91.7519L93 92ZM84.5001 107.5L85.5291 109.215H85.5291L84.5001 107.5ZM81.3388 108.898L80.0399 107.377C79.3648 107.954 79.1506 108.907 79.5139 109.717C79.8771 110.527 80.731 111 81.6105 110.88L81.3388 108.898ZM81.6647 108.595L80.2419 107.189L80.2418 107.189L81.6647 108.595ZM82.7059 103.324L84.6056 102.699L82.7059 103.324ZM78.8632 97.5723L77.4191 98.956L77.4191 98.956L78.8632 97.5723ZM78.2325 97.8837L80.2285 98.0103V98.0102L78.2325 97.8837ZM76.8069 100.865L75.3839 99.4595L75.3839 99.4595L76.8069 100.865ZM74.7251 103.324L73.0546 102.225L73.0546 102.225L74.7251 103.324ZM74.3781 107.541L72.5179 108.275L72.5179 108.275L74.3781 107.541ZM74.869 108.502L74.2759 110.412C75.0845 110.663 75.9636 110.378 76.4707 109.7C76.9777 109.022 77.0028 108.098 76.5334 107.393L74.869 108.502ZM63.6431 90.7573C63.1012 92.1121 62.3437 94.3315 62.5695 97.041C62.7997 99.803 64.0314 102.86 67.0857 105.914L69.9143 103.086C67.4689 100.64 66.7006 98.4468 66.5557 96.7088C66.4065 94.9184 66.899 93.3879 67.357 92.2428L63.6431 90.7573ZM70.0857 82.5859C69.0628 83.6088 67.7582 84.912 66.5827 86.2848C65.4308 87.63 64.2689 89.1926 63.6431 90.7573L67.357 92.2428C67.7311 91.3075 68.5383 90.1509 69.621 88.8865C70.68 87.6497 71.8755 86.4529 72.9141 85.4143L70.0857 82.5859ZM70.0812 82.5904L70.0811 82.5905L72.9187 85.4097L72.9188 85.4096L70.0812 82.5904ZM72.5272 78.1712C72.3969 78.9532 72.305 79.4574 72.0277 80.0513C71.7489 80.6487 71.2245 81.4471 70.0858 82.5858L72.9142 85.4142C74.2755 84.0529 75.1211 82.8812 75.6522 81.7434C76.185 80.6022 76.3432 79.6065 76.4728 78.8288L72.5272 78.1712ZM74.5 72C72.5201 72.2828 72.5201 72.2826 72.52 72.2824C72.52 72.2823 72.52 72.2821 72.52 72.282C72.5199 72.2817 72.5199 72.2816 72.5199 72.2814C72.5199 72.2812 72.5199 72.2811 72.5199 72.2813C72.5199 72.2816 72.5201 72.2828 72.5204 72.2848C72.5209 72.2887 72.5219 72.2959 72.5233 72.3062C72.526 72.3267 72.5304 72.3598 72.5359 72.4043C72.5471 72.4934 72.5631 72.6282 72.5811 72.8009C72.6171 73.1472 72.6608 73.6421 72.69 74.2249C72.7493 75.4107 72.7434 76.874 72.5272 78.1712L76.4728 78.8288C76.7566 77.126 76.7507 75.3393 76.685 74.0251C76.6516 73.3579 76.6016 72.7903 76.5595 72.3866C76.5385 72.1843 76.5193 72.0222 76.5051 71.9082C76.4979 71.8512 76.492 71.8061 76.4877 71.7739C76.4856 71.7578 76.4838 71.745 76.4825 71.7355C76.4818 71.7308 76.4813 71.7268 76.4808 71.7238C76.4806 71.7223 76.4804 71.7209 76.4803 71.7198C76.4802 71.7193 76.4801 71.7188 76.4801 71.7183C76.48 71.7181 76.48 71.7178 76.48 71.7177C76.4799 71.7174 76.4799 71.7172 74.5 72ZM79.9142 73.5858C79.1438 72.8153 78.0183 71.9803 77.1718 71.3855C76.7317 71.0763 76.3344 70.8095 76.047 70.62C75.9029 70.525 75.7857 70.4488 75.7036 70.3958C75.6625 70.3693 75.6301 70.3486 75.6075 70.3341C75.5961 70.3269 75.5873 70.3213 75.5809 70.3172C75.5778 70.3152 75.5752 70.3136 75.5734 70.3124C75.5725 70.3118 75.5717 70.3114 75.5711 70.311C75.5708 70.3108 75.5705 70.3106 75.5703 70.3105C75.5702 70.3104 75.5701 70.3103 75.57 70.3103C75.5699 70.3102 75.5698 70.3101 74.5 72C73.4302 73.6899 73.4301 73.6898 73.4301 73.6897C73.43 73.6897 73.43 73.6897 73.43 73.6897C73.4299 73.6896 73.4299 73.6896 73.4299 73.6897C73.43 73.6897 73.4302 73.6898 73.4306 73.6901C73.4313 73.6906 73.4327 73.6914 73.4348 73.6927C73.4388 73.6953 73.4454 73.6995 73.4544 73.7052C73.4723 73.7167 73.4997 73.7342 73.5356 73.7574C73.6075 73.8037 73.7131 73.8724 73.8445 73.959C74.1079 74.1327 74.4716 74.377 74.8722 74.6584C75.7069 75.2449 76.5815 75.9099 77.0858 76.4142L79.9142 73.5858ZM83.3973 78.8676C83.1223 78.0425 82.8111 77.2458 82.2498 76.3638C81.7027 75.504 80.9659 74.6375 79.9142 73.5858L77.0858 76.4142C78.0341 77.3625 78.5473 77.996 78.8752 78.5113C79.1889 79.0042 79.3776 79.4575 79.6026 80.1324L83.3973 78.8676ZM82.0001 87.5C83.996 87.6287 83.996 87.6285 83.996 87.6283C83.996 87.6282 83.996 87.628 83.996 87.6278C83.9961 87.6274 83.9961 87.6269 83.9961 87.6263C83.9962 87.6251 83.9963 87.6237 83.9964 87.6219C83.9966 87.6182 83.9969 87.6133 83.9973 87.6071C83.9981 87.5947 83.9992 87.5772 84.0005 87.5548C84.0031 87.51 84.0067 87.4458 84.0109 87.3641C84.0193 87.2008 84.0302 86.9675 84.0404 86.6805C84.0608 86.1079 84.0789 85.3151 84.0692 84.4358C84.0507 82.7667 83.9335 80.4763 83.3973 78.8676L79.6026 80.1324C79.9178 81.0781 80.0507 82.7878 80.0694 84.4801C80.0783 85.2815 80.0618 86.0097 80.043 86.538C80.0336 86.8014 80.0237 87.0134 80.0162 87.158C80.0125 87.2302 80.0094 87.2854 80.0073 87.3217C80.0062 87.3398 80.0054 87.3532 80.0049 87.3615C80.0046 87.3657 80.0044 87.3686 80.0043 87.3702C80.0043 87.3711 80.0042 87.3716 80.0042 87.3717C80.0042 87.3718 80.0042 87.3718 80.0042 87.3717C80.0042 87.3717 80.0042 87.3716 80.0042 87.3716C80.0043 87.3714 80.0043 87.3713 82.0001 87.5ZM84.0857 84.5858C83.9461 84.7254 83.4759 84.9832 82.7426 85.2277C82.4281 85.3325 82.1356 85.4124 81.9213 85.466C81.8151 85.4925 81.7308 85.5119 81.6756 85.5242C81.6481 85.5303 81.6281 85.5346 81.6164 85.5371C81.6106 85.5383 81.6069 85.539 81.6054 85.5393C81.6047 85.5395 81.6045 85.5395 81.6049 85.5394C81.6051 85.5394 81.6055 85.5393 81.606 85.5392C81.6062 85.5392 81.6065 85.5391 81.6068 85.5391C81.607 85.539 81.6072 85.539 81.6073 85.539C81.6076 85.5389 81.6079 85.5388 82.0001 87.5C82.3924 89.4612 82.3927 89.4611 82.393 89.461C82.3931 89.461 82.3934 89.461 82.3937 89.4609C82.3941 89.4608 82.3946 89.4607 82.3952 89.4606C82.3963 89.4604 82.3975 89.4601 82.3989 89.4598C82.4018 89.4593 82.4052 89.4586 82.4092 89.4577C82.4173 89.4561 82.4277 89.4539 82.4405 89.4512C82.4659 89.4459 82.5006 89.4385 82.5434 89.4289C82.6288 89.41 82.7476 89.3825 82.8914 89.3465C83.1771 89.2751 83.572 89.1676 84.0075 89.0224C84.7741 88.7668 86.0539 88.2746 86.9142 87.4142L84.0857 84.5858ZM86.0388 80.6078C85.887 81.3666 85.4119 83.2595 84.0857 84.5858L86.9142 87.4142C89.1234 85.2048 89.7796 82.3001 89.9611 81.3922L86.0388 80.6078ZM94.9845 91.7519C94.0965 84.6479 91.7367 81.3026 89.2 79.4L86.8 82.6C88.2632 83.6975 90.2264 85.9364 91.0154 92.2481L94.9845 91.7519ZM93.2888 101.894C94.4182 99.6356 95.5451 96.2367 94.9845 91.7519L91.0154 92.2481C91.4548 95.7633 90.5817 98.3644 89.7111 100.106L93.2888 101.894ZM85.5291 109.215C87.9844 107.742 91.3672 105.738 93.2888 101.894L89.7111 100.106C88.377 102.774 86.0158 104.258 83.4711 105.785L85.5291 109.215ZM81.6105 110.88C83.1575 110.668 84.1033 110.07 85.5291 109.215L83.4711 105.785C81.9359 106.706 81.6741 106.834 81.067 106.917L81.6105 110.88ZM80.2418 107.189C80.1752 107.257 80.108 107.319 80.0399 107.377L82.6376 110.419C82.7973 110.283 82.9471 110.142 83.0876 110L80.2418 107.189ZM80.8061 103.95C81.323 105.52 80.6828 106.743 80.2419 107.189L83.0876 110C84.4215 108.65 85.6596 105.901 84.6056 102.699L80.8061 103.95ZM77.4191 98.956C77.9142 99.4727 78.6708 100.403 79.3728 101.416C80.1009 102.466 80.625 103.399 80.8061 103.95L84.6056 102.699C84.233 101.567 83.4221 100.236 82.6604 99.1371C81.8727 98.0005 80.9847 96.8956 80.3072 96.1886L77.4191 98.956ZM80.2285 98.0102C80.2085 98.3245 80.0344 98.9022 79.3964 99.2421C79.0637 99.4193 78.6586 99.4903 78.2525 99.4069C77.8559 99.3256 77.5799 99.1238 77.4191 98.956L80.3072 96.1886C79.657 95.51 78.5526 95.1594 77.5158 95.7118C76.6359 96.1805 76.281 97.0544 76.2365 97.7571L80.2285 98.0102ZM78.23 102.27C78.9711 101.52 80.0979 100.069 80.2285 98.0103L76.2365 97.7571C76.1924 98.4519 75.796 99.0422 75.3839 99.4595L78.23 102.27ZM76.3956 104.424C76.9705 103.551 77.5385 102.97 78.23 102.27L75.3839 99.4595C74.6875 100.165 73.8676 100.99 73.0546 102.225L76.3956 104.424ZM76.2384 106.806C76.0044 106.213 75.9736 105.759 76.0162 105.414C76.0596 105.062 76.1904 104.736 76.3956 104.424L73.0546 102.225C72.0356 103.772 71.5638 105.858 72.5179 108.275L76.2384 106.806ZM76.5334 107.393C76.4417 107.255 76.3412 107.067 76.2384 106.806L72.5179 108.275C72.7031 108.744 72.927 109.194 73.2045 109.611L76.5334 107.393ZM67.0857 105.914C69.2032 108.032 71.6942 109.61 74.2759 110.412L75.4621 106.592C73.5873 106.01 71.6419 104.814 69.9143 103.086L67.0857 105.914Z" fill="#1C3553"/>
</svg>
