<svg width="156" height="156" viewBox="0 0 156 156" fill="none" xmlns="http://www.w3.org/2000/svg">
<path d="M27 46C27 44.8954 27.8954 44 29 44H127C128.105 44 129 44.8954 129 46V52C129 53.1046 128.105 54 127 54H29C27.8954 54 27 53.1046 27 52V46Z" fill="#C2DDFF"/>
<path d="M34 75.2C34 72.2833 34 69.6836 34 67.9981C34 66.8935 34.8954 66 36 66H120C121.105 66 122 66.8935 122 67.9981C122 69.6836 122 72.2833 122 75.2V102.8C122 105.717 122 108.316 122 110.002C122 111.106 121.105 112 120 112H36C34.8955 112 34.0001 111.106 34.0001 110.002C34 108.316 34 105.717 34 102.8V75.2Z" fill="#C2DDFF"/>
<path fill-rule="evenodd" clip-rule="evenodd" d="M20 58C21.1046 58 22 58.8954 22 60V121C22 122.657 23.3431 124 25 124H131C132.657 124 134 122.657 134 121V60C134 58.8954 134.895 58 136 58C137.105 58 138 58.8954 138 60V121C138 124.866 134.866 128 131 128H25C21.134 128 18 124.866 18 121V60C18 58.8954 18.8954 58 20 58ZM26 62C26 59.7909 27.7909 58 30 58H126C128.209 58 130 59.7909 130 62V116C130 118.209 128.209 120 126 120H108C106.895 120 106 119.105 106 118C106 116.895 106.895 116 108 116H126V62H30V116H100C101.105 116 102 116.895 102 118C102 119.105 101.105 120 100 120H30C27.7909 120 26 118.209 26 116V62Z" fill="#1C3553"/>
<path fill-rule="evenodd" clip-rule="evenodd" d="M25 40C23.3431 40 22 41.3431 22 43V60C22 61.1046 21.1046 62 20 62C18.8954 62 18 61.1046 18 60V43C18 39.134 21.134 36 25 36H30C31.1046 36 32 36.8954 32 38C32 39.1046 31.1046 40 30 40H25ZM44 38C44 36.8954 44.8954 36 46 36H110C111.105 36 112 36.8954 112 38C112 39.1046 111.105 40 110 40H46C44.8954 40 44 39.1046 44 38ZM124 38C124 36.8954 124.895 36 126 36H131C134.866 36 138 39.134 138 43V60C138 61.1046 137.105 62 136 62C134.895 62 134 61.1046 134 60V43C134 41.3431 132.657 40 131 40H126C124.895 40 124 39.1046 124 38Z" fill="#1C3553"/>
<path fill-rule="evenodd" clip-rule="evenodd" d="M38 26C39.1046 26 40 26.8954 40 28L40 38C40 39.1046 39.1046 40 38 40C36.8954 40 36 39.1046 36 38L36 28C36 26.8954 36.8954 26 38 26Z" fill="#1C3553"/>
<path fill-rule="evenodd" clip-rule="evenodd" d="M118 26C119.105 26 120 26.8954 120 28L120 38C120 39.1046 119.105 40 118 40C116.895 40 116 39.1046 116 38L116 28C116 26.8954 116.895 26 118 26Z" fill="#1C3553"/>
<path d="M59.0879 95.672V91.8L64.7199 89.944L69.0399 88.44V88.312L64.7199 86.808L59.0879 84.952V81.08L73.8079 86.744V90.008L59.0879 95.672Z" fill="#1C3553"/>
<path d="M90.1124 89.624C89.5791 89.624 89.0351 89.784 88.4804 90.104C87.9471 90.4027 87.4671 90.9147 87.0404 91.64C87.2537 93.24 87.6591 94.3494 88.2564 94.968C88.8537 95.5654 89.5044 95.864 90.2084 95.864C90.9124 95.864 91.5097 95.608 92.0004 95.096C92.5124 94.5627 92.7684 93.72 92.7684 92.568C92.7684 91.5014 92.5124 90.744 92.0004 90.296C91.5097 89.848 90.8804 89.624 90.1124 89.624ZM90.3044 99.384C89.0031 99.384 87.7657 99.0427 86.5924 98.36C85.4191 97.656 84.4591 96.568 83.7124 95.096C82.9871 93.6027 82.6244 91.672 82.6244 89.304C82.6244 86.7654 83.0084 84.6854 83.7764 83.064C84.5657 81.4427 85.5791 80.248 86.8164 79.48C88.0751 78.6907 89.4191 78.296 90.8484 78.296C92.1924 78.296 93.3551 78.5414 94.3364 79.032C95.3177 79.5014 96.1284 80.0667 96.7684 80.728L94.3044 83.544C93.9631 83.16 93.4937 82.8294 92.8964 82.552C92.3204 82.2534 91.7337 82.104 91.1364 82.104C90.3897 82.104 89.7071 82.3067 89.0884 82.712C88.4697 83.096 87.9684 83.7574 87.5844 84.696C87.2217 85.6134 87.0084 86.8614 86.9444 88.44C87.4777 87.7574 88.1284 87.2347 88.8964 86.872C89.6857 86.488 90.3897 86.296 91.0084 86.296C92.7577 86.296 94.1977 86.808 95.3284 87.832C96.4804 88.8347 97.0564 90.4134 97.0564 92.568C97.0564 93.976 96.7471 95.192 96.1284 96.216C95.5097 97.2187 94.6884 97.9974 93.6644 98.552C92.6617 99.1067 91.5417 99.384 90.3044 99.384Z" fill="#1C3553"/>
</svg>
