<svg width="156" height="156" viewBox="0 0 156 156" fill="none" xmlns="http://www.w3.org/2000/svg">
<path d="M27 46C27 44.8954 27.8954 44 29 44H127C128.105 44 129 44.8954 129 46V52C129 53.1046 128.105 54 127 54H29C27.8954 54 27 53.1046 27 52V46Z" fill="#C2DDFF"/>
<path d="M34 75.2C34 72.2833 34 69.6836 34 67.9981C34 66.8935 34.8954 66 36 66H120C121.105 66 122 66.8935 122 67.9981C122 69.6836 122 72.2833 122 75.2V102.8C122 105.717 122 108.316 122 110.002C122 111.106 121.105 112 120 112H36C34.8955 112 34.0001 111.106 34.0001 110.002C34 108.316 34 105.717 34 102.8V75.2Z" fill="#C2DDFF"/>
<path fill-rule="evenodd" clip-rule="evenodd" d="M20 58C21.1046 58 22 58.8954 22 60V121C22 122.657 23.3431 124 25 124H131C132.657 124 134 122.657 134 121V60C134 58.8954 134.895 58 136 58C137.105 58 138 58.8954 138 60V121C138 124.866 134.866 128 131 128H25C21.134 128 18 124.866 18 121V60C18 58.8954 18.8954 58 20 58ZM26 62C26 59.7909 27.7909 58 30 58H126C128.209 58 130 59.7909 130 62V116C130 118.209 128.209 120 126 120H108C106.895 120 106 119.105 106 118C106 116.895 106.895 116 108 116H126V62H30V116H100C101.105 116 102 116.895 102 118C102 119.105 101.105 120 100 120H30C27.7909 120 26 118.209 26 116V62Z" fill="#1C3553"/>
<path fill-rule="evenodd" clip-rule="evenodd" d="M25 40C23.3431 40 22 41.3431 22 43V60C22 61.1046 21.1046 62 20 62C18.8954 62 18 61.1046 18 60V43C18 39.134 21.134 36 25 36H30C31.1046 36 32 36.8954 32 38C32 39.1046 31.1046 40 30 40H25ZM44 38C44 36.8954 44.8954 36 46 36H110C111.105 36 112 36.8954 112 38C112 39.1046 111.105 40 110 40H46C44.8954 40 44 39.1046 44 38ZM124 38C124 36.8954 124.895 36 126 36H131C134.866 36 138 39.134 138 43V60C138 61.1046 137.105 62 136 62C134.895 62 134 61.1046 134 60V43C134 41.3431 132.657 40 131 40H126C124.895 40 124 39.1046 124 38Z" fill="#1C3553"/>
<path fill-rule="evenodd" clip-rule="evenodd" d="M38 26C39.1046 26 40 26.8954 40 28L40 38C40 39.1046 39.1046 40 38 40C36.8954 40 36 39.1046 36 38L36 28C36 26.8954 36.8954 26 38 26Z" fill="#1C3553"/>
<path fill-rule="evenodd" clip-rule="evenodd" d="M118 26C119.105 26 120 26.8954 120 28L120 38C120 39.1046 119.105 40 118 40C116.895 40 116 39.1046 116 38L116 28C116 26.8954 116.895 26 118 26Z" fill="#1C3553"/>
<path d="M58.24 99V95.192H62.656V83.448H58.848V80.536C59.9573 80.3227 60.896 80.0667 61.664 79.768C62.432 79.4694 63.1787 79.1067 63.904 78.68H67.36V95.192H71.168V99H58.24Z" fill="#1C3553"/>
<path d="M74.2822 92.568V89.24H82.1542V92.568H74.2822Z" fill="#1C3553"/>
<path d="M91.3072 99.384C89.6646 99.384 88.2566 99.1174 87.0832 98.584C85.9312 98.0507 84.9819 97.3574 84.2352 96.504L86.4112 93.528C87.0299 94.1254 87.7126 94.616 88.4592 95C89.2059 95.384 90.0059 95.576 90.8592 95.576C91.8619 95.576 92.6619 95.3734 93.2592 94.968C93.8566 94.5414 94.1552 93.944 94.1552 93.176C94.1552 92.5787 94.0059 92.0667 93.7072 91.64C93.4086 91.192 92.8646 90.8507 92.0752 90.616C91.2859 90.3814 90.1552 90.264 88.6832 90.264V86.936C90.5179 86.936 91.7766 86.6907 92.4592 86.2C93.1419 85.688 93.4832 85.0267 93.4832 84.216C93.4832 83.512 93.2699 82.968 92.8432 82.584C92.4166 82.1787 91.7979 81.976 90.9872 81.976C90.2619 81.976 89.6006 82.136 89.0032 82.456C88.4272 82.776 87.8192 83.2134 87.1792 83.768L84.8112 80.888C85.7499 80.0774 86.7419 79.448 87.7872 79C88.8326 78.5307 89.9739 78.296 91.2112 78.296C93.3019 78.296 94.9872 78.7867 96.2672 79.768C97.5686 80.728 98.2192 82.0934 98.2192 83.864C98.2192 84.9094 97.9206 85.8054 97.3232 86.552C96.7472 87.2987 95.9152 87.9067 94.8272 88.376V88.504C96.0006 88.8454 96.9606 89.432 97.7072 90.264C98.4752 91.0747 98.8592 92.1414 98.8592 93.464C98.8592 94.7227 98.5072 95.8 97.8032 96.696C97.1206 97.5707 96.2032 98.2427 95.0512 98.712C93.9206 99.16 92.6726 99.384 91.3072 99.384Z" fill="#1C3553"/>
</svg>
