<svg width="156" height="156" viewBox="0 0 156 156" fill="none" xmlns="http://www.w3.org/2000/svg">
<path d="M118.16 43H114.08V40H111.08V43H48.02V40H45.02V43H37.93C33.56 43 30 46.56 30 50.93V107.14C30 111.51 33.56 115.07 37.93 115.07H118.16C122.53 115.07 126.09 111.51 126.09 107.14V50.93C126.09 46.56 122.53 43 118.16 43ZM45.02 46.01V55.02H48.02V46.01H111.08V55.02H114.08V46.01H118.16C120.88 46.01 123.08 48.22 123.08 50.93V57.12H33V50.93C33 48.21 35.21 46.01 37.92 46.01H45.02ZM118.16 112.07H37.93C35.21 112.07 33.01 109.86 33.01 107.15V60.12H123.09V107.14C123.09 109.86 120.88 112.06 118.17 112.06L118.16 112.07Z" fill="#002341"/>
<path d="M55.99 98.34C55.76 99.02 55.56 99.78 55.32 100.5H55.25C55.02 99.78 54.8 99.02 54.57 98.34L52.68 93.12H49.78V104.86H52.16V100.56C52.16 99.41 51.94 97.7 51.82 96.56H51.89L52.83 99.35L54.51 103.83H55.97L57.65 99.35L58.6 96.56H58.67C58.54 97.69 58.33 99.41 58.33 100.56V104.86H60.74V93.12H57.86L56.01 98.34H55.99Z" fill="#002341"/>
<path d="M67.68 95.71C65.41 95.71 63.32 97.42 63.32 100.39C63.32 103.36 65.41 105.07 67.68 105.07C69.95 105.07 72.02 103.36 72.02 100.39C72.02 97.42 69.93 95.71 67.68 95.71ZM67.68 102.93C66.58 102.93 66.04 101.94 66.04 100.39C66.04 98.84 66.58 97.85 67.68 97.85C68.78 97.85 69.32 98.84 69.32 100.39C69.32 101.94 68.76 102.93 67.68 102.93Z" fill="#002341"/>
<path d="M79.68 95.71C78.47 95.71 77.57 96.34 76.82 97.06H76.75L76.57 95.93H74.41V104.86H77.06V98.83C77.64 98.27 78.05 97.96 78.72 97.96C79.48 97.96 79.82 98.36 79.82 99.65V104.85H82.47V99.3C82.47 97.07 81.64 95.7 79.7 95.7L79.68 95.71Z" fill="#002341"/>
<path d="M88.98 95.71C87.58 95.71 86.3 96.2 85.16 96.88L86.11 98.63C86.97 98.13 87.71 97.82 88.47 97.82C89.44 97.82 89.82 98.32 89.87 99.12C86.34 99.48 84.85 100.51 84.85 102.38C84.85 103.89 85.88 105.08 87.51 105.08C88.52 105.08 89.35 104.61 90.1 103.95H90.17L90.35 104.87H92.51V99.76C92.51 97.02 91.25 95.73 88.96 95.73L88.98 95.71ZM89.88 102.26C89.41 102.73 89.02 103.02 88.42 103.02C87.79 103.02 87.39 102.75 87.39 102.17C87.39 101.49 88 100.95 89.88 100.69V102.26Z" fill="#002341"/>
<path d="M99.16 103C98.46 103 98.01 102.59 98.01 101.58V98H100.15V95.93H98.01V93.55H95.81L95.5 95.93L94.13 96.04V98H95.35V101.62C95.35 103.69 96.21 105.08 98.43 105.08C99.29 105.08 99.94 104.9 100.41 104.76L100 102.83C99.77 102.92 99.44 103.01 99.15 103.01L99.16 103Z" fill="#002341"/>
<path d="M105.82 95.71C103.68 95.71 101.61 97.49 101.61 100.39C101.61 103.29 103.57 105.07 106.13 105.07C107.19 105.07 108.38 104.69 109.3 104.06L108.42 102.46C107.77 102.86 107.16 103.05 106.49 103.05C105.3 103.05 104.4 102.46 104.17 101.16H109.52C109.57 100.94 109.63 100.46 109.63 99.99C109.63 97.56 108.37 95.7 105.83 95.7L105.82 95.71ZM104.15 99.42C104.33 98.29 105.05 97.73 105.88 97.73C106.94 97.73 107.37 98.43 107.37 99.42H104.15Z" fill="#002341"/>
<path d="M78.22 75.23L63.02 69.38V73.38L68.84 75.3L73.3 76.85V76.98L68.84 78.53L63.02 80.45V84.45L78.22 78.6V75.23Z" fill="#002341"/>
<path d="M89.35 74.77C88.06 74.77 86.24 75.6 85.15 76.98C85.31 72.09 87.17 70.44 89.48 70.44C90.7 70.44 92.02 71.13 92.75 71.93L95.29 69.02C93.97 67.67 91.95 66.51 89.18 66.51C84.75 66.51 80.69 70.05 80.69 77.87C80.69 85.24 84.55 88.28 88.62 88.28C92.42 88.28 95.59 85.6 95.59 81.24C95.59 76.88 92.95 74.77 89.35 74.77ZM88.52 84.65C87.07 84.65 85.68 83.59 85.25 80.29C86.11 78.8 87.33 78.21 88.42 78.21C90.01 78.21 91.16 79.04 91.16 81.25C91.16 83.63 89.97 84.65 88.52 84.65Z" fill="#002341"/>
</svg>
