<svg width="156" height="156" viewBox="0 0 156 156" fill="none" xmlns="http://www.w3.org/2000/svg">
<path d="M27 46C27 44.8954 27.8954 44 29 44H127C128.105 44 129 44.8954 129 46V52C129 53.1046 128.105 54 127 54H29C27.8954 54 27 53.1046 27 52V46Z" fill="#C2DDFF"/>
<path d="M34 75.2C34 72.2833 34 69.6836 34 67.9981C34 66.8935 34.8954 66 36 66H120C121.105 66 122 66.8935 122 67.9981C122 69.6836 122 72.2833 122 75.2V102.8C122 105.717 122 108.316 122 110.002C122 111.106 121.105 112 120 112H36C34.8955 112 34.0001 111.106 34.0001 110.002C34 108.316 34 105.717 34 102.8V75.2Z" fill="#C2DDFF"/>
<path fill-rule="evenodd" clip-rule="evenodd" d="M20 58C21.1046 58 22 58.8954 22 60V121C22 122.657 23.3431 124 25 124H131C132.657 124 134 122.657 134 121V60C134 58.8954 134.895 58 136 58C137.105 58 138 58.8954 138 60V121C138 124.866 134.866 128 131 128H25C21.134 128 18 124.866 18 121V60C18 58.8954 18.8954 58 20 58ZM26 62C26 59.7909 27.7909 58 30 58H126C128.209 58 130 59.7909 130 62V116C130 118.209 128.209 120 126 120H108C106.895 120 106 119.105 106 118C106 116.895 106.895 116 108 116H126V62H30V116H100C101.105 116 102 116.895 102 118C102 119.105 101.105 120 100 120H30C27.7909 120 26 118.209 26 116V62Z" fill="#1C3553"/>
<path fill-rule="evenodd" clip-rule="evenodd" d="M25 40C23.3431 40 22 41.3431 22 43V60C22 61.1046 21.1046 62 20 62C18.8954 62 18 61.1046 18 60V43C18 39.134 21.134 36 25 36H30C31.1046 36 32 36.8954 32 38C32 39.1046 31.1046 40 30 40H25ZM44 38C44 36.8954 44.8954 36 46 36H110C111.105 36 112 36.8954 112 38C112 39.1046 111.105 40 110 40H46C44.8954 40 44 39.1046 44 38ZM124 38C124 36.8954 124.895 36 126 36H131C134.866 36 138 39.134 138 43V60C138 61.1046 137.105 62 136 62C134.895 62 134 61.1046 134 60V43C134 41.3431 132.657 40 131 40H126C124.895 40 124 39.1046 124 38Z" fill="#1C3553"/>
<path fill-rule="evenodd" clip-rule="evenodd" d="M38 26C39.1046 26 40 26.8954 40 28L40 38C40 39.1046 39.1046 40 38 40C36.8954 40 36 39.1046 36 38L36 28C36 26.8954 36.8954 26 38 26Z" fill="#1C3553"/>
<path fill-rule="evenodd" clip-rule="evenodd" d="M118 26C119.105 26 120 26.8954 120 28L120 38C120 39.1046 119.105 40 118 40C116.895 40 116 39.1046 116 38L116 28C116 26.8954 116.895 26 118 26Z" fill="#1C3553"/>
<path d="M61.1199 90.552H65.4079V87.256C65.4079 86.5947 65.4292 85.8374 65.4719 84.984C65.5359 84.1094 65.5786 83.352 65.5999 82.712H65.4719C65.2159 83.2667 64.9492 83.832 64.6719 84.408C64.3946 84.984 64.1066 85.56 63.8079 86.136L61.1199 90.552ZM65.4079 99V94.136H56.6079V90.904L64.0319 78.68H69.7919V90.552H72.1279V94.136H69.7919V99H65.4079Z" fill="#1C3553"/>
<path d="M74.2822 92.568V89.24H82.1542V92.568H74.2822Z" fill="#1C3553"/>
<path d="M92.3312 89.624C91.7978 89.624 91.2538 89.784 90.6992 90.104C90.1658 90.4027 89.6858 90.9147 89.2592 91.64C89.4725 93.24 89.8778 94.3494 90.4752 94.968C91.0725 95.5654 91.7232 95.864 92.4272 95.864C93.1312 95.864 93.7285 95.608 94.2192 95.096C94.7312 94.5627 94.9872 93.72 94.9872 92.568C94.9872 91.5014 94.7312 90.744 94.2192 90.296C93.7285 89.848 93.0992 89.624 92.3312 89.624ZM92.5232 99.384C91.2218 99.384 89.9845 99.0427 88.8112 98.36C87.6378 97.656 86.6778 96.568 85.9312 95.096C85.2058 93.6027 84.8432 91.672 84.8432 89.304C84.8432 86.7654 85.2272 84.6854 85.9952 83.064C86.7845 81.4427 87.7978 80.248 89.0352 79.48C90.2938 78.6907 91.6378 78.296 93.0672 78.296C94.4112 78.296 95.5738 78.5414 96.5552 79.032C97.5365 79.5014 98.3472 80.0667 98.9872 80.728L96.5232 83.544C96.1818 83.16 95.7125 82.8294 95.1152 82.552C94.5392 82.2534 93.9525 82.104 93.3552 82.104C92.6085 82.104 91.9258 82.3067 91.3072 82.712C90.6885 83.096 90.1872 83.7574 89.8032 84.696C89.4405 85.6134 89.2272 86.8614 89.1632 88.44C89.6965 87.7574 90.3472 87.2347 91.1152 86.872C91.9045 86.488 92.6085 86.296 93.2272 86.296C94.9765 86.296 96.4165 86.808 97.5472 87.832C98.6992 88.8347 99.2752 90.4134 99.2752 92.568C99.2752 93.976 98.9658 95.192 98.3472 96.216C97.7285 97.2187 96.9072 97.9974 95.8832 98.552C94.8805 99.1067 93.7605 99.384 92.5232 99.384Z" fill="#1C3553"/>
</svg>
