<svg width="156" height="156" viewBox="0 0 156 156" fill="none" xmlns="http://www.w3.org/2000/svg">
<path d="M118.16 43H114.08V40H111.08V43H48.02V40H45.02V43H37.93C33.56 43 30 46.56 30 50.93V107.14C30 111.51 33.56 115.07 37.93 115.07H118.16C122.53 115.07 126.09 111.51 126.09 107.14V50.93C126.09 46.56 122.53 43 118.16 43ZM45.02 46.01V55.02H48.02V46.01H111.08V55.02H114.08V46.01H118.16C120.88 46.01 123.08 48.22 123.08 50.93V57.12H33V50.93C33 48.21 35.21 46.01 37.92 46.01H45.02ZM118.16 112.07H37.93C35.21 112.07 33.01 109.86 33.01 107.15V60.12H123.09V107.14C123.09 109.86 120.88 112.06 118.17 112.06L118.16 112.07Z" fill="#002341"/>
<path d="M55.99 98.34C55.76 99.02 55.56 99.78 55.32 100.5H55.25C55.02 99.78 54.8 99.02 54.57 98.34L52.68 93.12H49.78V104.86H52.16V100.56C52.16 99.41 51.94 97.7 51.82 96.56H51.89L52.83 99.35L54.51 103.83H55.97L57.65 99.35L58.6 96.56H58.67C58.54 97.69 58.33 99.41 58.33 100.56V104.86H60.74V93.12H57.86L56.01 98.34H55.99Z" fill="#002341"/>
<path d="M67.68 95.71C65.41 95.71 63.32 97.42 63.32 100.39C63.32 103.36 65.41 105.07 67.68 105.07C69.95 105.07 72.02 103.36 72.02 100.39C72.02 97.42 69.93 95.71 67.68 95.71ZM67.68 102.93C66.58 102.93 66.04 101.94 66.04 100.39C66.04 98.84 66.58 97.85 67.68 97.85C68.78 97.85 69.32 98.84 69.32 100.39C69.32 101.94 68.76 102.93 67.68 102.93Z" fill="#002341"/>
<path d="M79.68 95.71C78.47 95.71 77.57 96.34 76.82 97.06H76.75L76.57 95.93H74.41V104.86H77.06V98.83C77.64 98.27 78.05 97.96 78.72 97.96C79.48 97.96 79.82 98.36 79.82 99.65V104.85H82.47V99.3C82.47 97.07 81.64 95.7 79.7 95.7L79.68 95.71Z" fill="#002341"/>
<path d="M88.98 95.71C87.58 95.71 86.3 96.2 85.16 96.88L86.11 98.63C86.97 98.13 87.71 97.82 88.47 97.82C89.44 97.82 89.82 98.32 89.87 99.12C86.34 99.48 84.85 100.51 84.85 102.38C84.85 103.89 85.88 105.08 87.51 105.08C88.52 105.08 89.35 104.61 90.1 103.95H90.17L90.35 104.87H92.51V99.76C92.51 97.02 91.25 95.73 88.96 95.73L88.98 95.71ZM89.88 102.26C89.41 102.73 89.02 103.02 88.42 103.02C87.79 103.02 87.39 102.75 87.39 102.17C87.39 101.49 88 100.95 89.88 100.69V102.26Z" fill="#002341"/>
<path d="M99.16 103C98.46 103 98.01 102.59 98.01 101.58V98H100.15V95.93H98.01V93.55H95.81L95.5 95.93L94.13 96.04V98H95.35V101.62C95.35 103.69 96.21 105.08 98.43 105.08C99.29 105.08 99.94 104.9 100.41 104.76L100 102.83C99.77 102.92 99.44 103.01 99.15 103.01L99.16 103Z" fill="#002341"/>
<path d="M105.82 95.71C103.68 95.71 101.61 97.49 101.61 100.39C101.61 103.29 103.57 105.07 106.13 105.07C107.19 105.07 108.38 104.69 109.3 104.06L108.42 102.46C107.77 102.86 107.16 103.05 106.49 103.05C105.3 103.05 104.4 102.46 104.17 101.16H109.52C109.57 100.94 109.63 100.46 109.63 99.99C109.63 97.56 108.37 95.7 105.83 95.7L105.82 95.71ZM104.15 99.42C104.33 98.29 105.05 97.73 105.88 97.73C106.94 97.73 107.37 98.43 107.37 99.42H104.15Z" fill="#002341"/>
<path d="M63.69 87.88H68.22V82.86H70.63V79.16H68.22V66.9H62.27L54.61 79.52V82.86H63.69V87.88ZM59.26 79.16L62.03 74.6C62.62 73.41 63.22 72.22 63.75 71.07H63.88C63.81 72.39 63.68 74.41 63.68 75.76V79.16H59.25H59.26Z" fill="#002341"/>
<path d="M85.85 77.97H72.83V81.08H85.85V77.97Z" fill="#002341"/>
<path d="M97.28 74.77C95.99 74.77 94.17 75.6 93.08 76.98C93.24 72.09 95.1 70.44 97.41 70.44C98.63 70.44 99.95 71.13 100.68 71.93L103.22 69.02C101.9 67.67 99.88 66.51 97.11 66.51C92.68 66.51 88.62 70.05 88.62 77.87C88.62 85.24 92.48 88.28 96.55 88.28C100.35 88.28 103.52 85.6 103.52 81.24C103.52 76.88 100.88 74.77 97.28 74.77ZM96.45 84.65C95 84.65 93.61 83.59 93.18 80.29C94.04 78.8 95.26 78.21 96.35 78.21C97.94 78.21 99.09 79.04 99.09 81.25C99.09 83.63 97.9 84.65 96.45 84.65Z" fill="#002341"/>
</svg>
