<svg width="156" height="156" viewBox="0 0 156 156" fill="none" xmlns="http://www.w3.org/2000/svg">
<path d="M46.51 55.01V40M112.57 55.01V40M31.2 58.62H124.89M42.91 71.53H48.92V77.54H42.91V71.53ZM42.91 83.54H48.92V89.55H42.91V83.54ZM42.91 95.55H48.92V101.56H42.91V95.55ZM75.9399 71.53H81.95V77.54H75.9399V71.53ZM75.9399 83.54H81.95V89.55H75.9399V83.54ZM75.9399 95.55H81.95V101.56H75.9399V95.55ZM92.4599 71.53H98.47V77.54H92.4599V71.53ZM92.4599 83.54H98.47V89.55H92.4599V83.54ZM92.4599 95.55H98.47V101.56H92.4599V95.55ZM108.97 71.53H114.98V77.54H108.97V71.53ZM108.97 83.54H114.98V89.55H108.97V83.54ZM108.97 95.55H114.98V101.56H108.97V95.55ZM59.43 71.53H65.4399V77.54H59.43V71.53ZM59.43 83.54H65.4399V89.55H59.43V83.54ZM59.43 95.55H65.4399V101.56H59.43V95.55ZM37.93 44.5H118.16C121.711 44.5 124.59 47.3788 124.59 50.93V107.13C124.59 110.681 121.711 113.56 118.16 113.56H37.93C34.3788 113.56 31.5 110.681 31.5 107.13V50.93C31.5 47.3788 34.3788 44.5 37.93 44.5Z" stroke="#002341" stroke-width="3" stroke-miterlimit="10"/>
</svg>
