<svg width="156" height="156" viewBox="0 0 156 156" fill="none" xmlns="http://www.w3.org/2000/svg">
<path d="M112.822 78.4804H44.7425C43.0113 78.4804 41.6079 79.8838 41.6079 81.615V114.625C41.6079 116.356 43.0113 117.759 44.7425 117.759H112.822C114.553 117.759 115.957 116.356 115.957 114.625V81.615C115.957 79.8838 114.553 78.4804 112.822 78.4804Z" fill="#C2DDFF"/>
<rect x="61.8608" y="40.6108" width="33.1787" height="15.2221" rx="1.5673" fill="#C2DDFF"/>
<path fill-rule="evenodd" clip-rule="evenodd" d="M32.8477 75.4132C32.8477 72.5775 35.1465 70.2786 37.9823 70.2786H119.58C122.416 70.2786 124.715 72.5775 124.715 75.4132V120.827C124.715 123.662 122.416 125.961 119.58 125.961H112.576C111.471 125.961 110.576 125.066 110.576 123.961C110.576 122.857 111.471 121.961 112.576 121.961H119.58C120.207 121.961 120.715 121.453 120.715 120.827V75.4132C120.715 74.7866 120.207 74.2786 119.58 74.2786H37.9823C37.3556 74.2786 36.8477 74.7866 36.8477 75.4132V120.827C36.8477 121.453 37.3556 121.961 37.9823 121.961H103.564C104.669 121.961 105.564 122.857 105.564 123.961C105.564 125.066 104.669 125.961 103.564 125.961H37.9823C35.1465 125.961 32.8477 123.662 32.8477 120.827V75.4132Z" fill="#1C3553"/>
<path d="M93.4257 98.12C93.4257 105.541 86.8691 111.557 78.7812 111.557C70.6933 111.557 64.1367 105.541 64.1367 98.12C64.1367 90.6987 70.6933 84.6825 78.7812 84.6825C86.8691 84.6825 93.4257 90.6987 93.4257 98.12Z" fill="#F5F5F5"/>
<path fill-rule="evenodd" clip-rule="evenodd" d="M78.7812 86.6825C71.6324 86.6825 66.1367 91.9617 66.1367 98.12C66.1367 104.278 71.6324 109.557 78.7812 109.557C85.93 109.557 91.4257 104.278 91.4257 98.12C91.4257 91.9617 85.93 86.6825 78.7812 86.6825ZM62.1367 98.12C62.1367 89.4356 69.7541 82.6825 78.7812 82.6825C87.8083 82.6825 95.4257 89.4356 95.4257 98.12C95.4257 106.804 87.8083 113.557 78.7812 113.557C69.7541 113.557 62.1367 106.804 62.1367 98.12Z" fill="#1C3553"/>
<path fill-rule="evenodd" clip-rule="evenodd" d="M119.228 31.7638C119.911 32.6321 119.76 33.8895 118.892 34.5723L110.982 40.7924C110.113 41.4751 108.856 41.3247 108.173 40.4565C107.491 39.5882 107.641 38.3308 108.509 37.648L116.42 31.4279C117.288 30.7452 118.545 30.8956 119.228 31.7638Z" fill="#1C3553"/>
<path fill-rule="evenodd" clip-rule="evenodd" d="M111.582 44.8386C111.582 43.734 112.477 42.8386 113.582 42.8386H124C125.104 42.8386 126 43.734 126 44.8386C126 45.9431 125.104 46.8386 124 46.8386H113.582C112.477 46.8386 111.582 45.9431 111.582 44.8386Z" fill="#1C3553"/>
<path fill-rule="evenodd" clip-rule="evenodd" d="M108.165 49.2201C108.846 48.3509 110.103 48.1988 110.973 48.8803L118.893 55.091C119.763 55.7725 119.915 57.0297 119.233 57.8989C118.552 58.7681 117.295 58.9203 116.425 58.2387L108.505 52.0281C107.635 51.3465 107.483 50.0894 108.165 49.2201Z" fill="#1C3553"/>
<path fill-rule="evenodd" clip-rule="evenodd" d="M47.8259 49.2083C48.5086 50.0766 48.3582 51.334 47.49 52.0167L39.5796 58.2368C38.7113 58.9196 37.4539 58.7692 36.7712 57.9009C36.0884 57.0326 36.2388 55.7753 37.1071 55.0925L45.0175 48.8724C45.8858 48.1896 47.1431 48.34 47.8259 49.2083Z" fill="#1C3553"/>
<path fill-rule="evenodd" clip-rule="evenodd" d="M30 44.8262C30 43.7216 30.8954 42.8262 32 42.8262H42.4218C43.5264 42.8262 44.4218 43.7216 44.4218 44.8262C44.4218 45.9308 43.5264 46.8262 42.4218 46.8262H32C30.8954 46.8262 30 45.9308 30 44.8262Z" fill="#1C3553"/>
<path fill-rule="evenodd" clip-rule="evenodd" d="M36.7658 31.766C37.4474 30.8968 38.7045 30.7447 39.5738 31.4262L47.4945 37.6368C48.3637 38.3184 48.5158 39.5756 47.8343 40.4448C47.1527 41.314 45.8956 41.4661 45.0263 40.7846L37.1056 34.574C36.2364 33.8924 36.0843 32.6352 36.7658 31.766Z" fill="#1C3553"/>
<path fill-rule="evenodd" clip-rule="evenodd" d="M53.7556 38.2015C53.7556 35.3658 56.0545 33.0669 58.8902 33.0669H97.6809C100.517 33.0669 102.816 35.3658 102.816 38.2015V58.4362C102.816 61.272 100.517 63.5708 97.6809 63.5708H58.8902C56.0545 63.5708 53.7556 61.272 53.7556 58.4362V38.2015ZM58.8902 37.0669C58.2636 37.0669 57.7556 37.5749 57.7556 38.2015V58.4362C57.7556 59.0628 58.2636 59.5708 58.8902 59.5708H97.6809C98.3076 59.5708 98.8155 59.0628 98.8155 58.4362V38.2015C98.8155 37.5749 98.3076 37.0669 97.6809 37.0669H58.8902Z" fill="#1C3553"/>
<path fill-rule="evenodd" clip-rule="evenodd" d="M68.5723 72.3495L68.5723 61.9932L72.5723 61.9932L72.5723 72.3495L68.5723 72.3495Z" fill="#1C3553"/>
<path fill-rule="evenodd" clip-rule="evenodd" d="M84.375 72.3495L84.375 61.9932L88.375 61.9932L88.375 72.3495L84.375 72.3495Z" fill="#1C3553"/>
</svg>
