<svg width="156" height="156" viewBox="0 0 156 156" fill="none" xmlns="http://www.w3.org/2000/svg">
<path d="M95.74 28.87V27.49C95.74 25.01 93.73 23 91.25 23H64.33C61.85 23 59.84 25.02 59.84 27.49V28.87H39V132.91H116.59V28.87H95.74ZM62.84 27.49C62.84 26.67 63.51 26 64.33 26H91.25C92.07 26 92.74 26.67 92.74 27.49V33.25C92.74 34.07 92.07 34.74 91.25 34.74H64.33C63.51 34.74 62.84 34.07 62.84 33.25V27.49ZM113.58 129.91H42V31.87H59.84V33.25C59.84 35.73 61.85 37.74 64.33 37.74H91.25C93.73 37.74 95.74 35.73 95.74 33.25V31.87H113.58V129.91Z" fill="#002341"/>
<path d="M52.8 58.98H64.15V47.63H52.8V58.98ZM55.8 50.63H61.15V55.98H55.8V50.63Z" fill="#002341"/>
<path d="M52.8 78.54H64.15V67.19H52.8V78.54ZM55.8 70.19H61.15V75.54H55.8V70.19Z" fill="#002341"/>
<path d="M52.8 98.11H64.15V86.76H52.8V98.11ZM55.8 89.76H61.15V95.11H55.8V89.76Z" fill="#002341"/>
<path d="M101.09 51.8H71.18V54.8H101.09V51.8Z" fill="#002341"/>
<path d="M101.29 71.37H71.38V74.37H101.29V71.37Z" fill="#002341"/>
<path d="M101.29 90.94H71.38V93.94H101.29V90.94Z" fill="#002341"/>
<path d="M101.29 110.5H71.38V113.5H101.29V110.5Z" fill="#002341"/>
<path d="M52.8 117.68H64.15V106.33H52.8V117.68ZM55.8 109.33H61.15V114.68H55.8V109.33Z" fill="#002341"/>
</svg>
