<svg width="156" height="156" viewBox="0 0 156 156" fill="none" xmlns="http://www.w3.org/2000/svg">
<path d="M133.1 43.01V34H22V43.01H31.01V118.08H22V121.08H133.1V118.08H124.09V43.01H133.1ZM25 40.01V37.01H130.1V40.01H25ZM80.78 99C81.01 99.38 81.39 99.64 81.83 99.71C83.3 99.94 85.36 99.62 86.84 98.22L87.81 100.73C88.54 102.81 88.64 105.08 88.12 107.31C87.61 109.5 86.59 111.91 84.61 113.67C84.79 111.67 83.96 109.49 82.26 107.76C77.88 103.29 78.33 100.02 78.36 99.84C78.48 99.23 78.2 98.61 77.67 98.28C77.13 97.95 76.44 97.99 75.95 98.39C69.16 103.85 68.62 110.16 68.61 110.34C68.6 110.45 68.39 112.18 68.96 114.1C68.38 113.69 67.85 113.23 67.41 112.7C64.64 109.39 65.43 104.7 65.44 104.65C65.79 102.71 66.54 100.89 67.74 99.06C68.57 97.79 69.64 96.35 70.78 94.83C73.07 91.75 75.42 88.59 76.58 85.85C79.01 88.9 81.99 93.89 80.66 97.74C80.51 98.16 80.56 98.62 80.79 99H80.78ZM72.65 114.81C71.28 113.25 71.57 110.78 71.58 110.67C71.6 110.49 71.97 106.69 75.69 102.71C76.2 104.6 77.4 107.11 80.11 109.87C81.42 111.21 81.96 112.93 81.44 114.15C80.91 115.42 79.28 116.13 76.86 116.19C76.56 116.19 76.26 116.17 75.97 116.16C74.49 116.06 73.36 115.62 72.64 114.8L72.65 114.81ZM83.13 118.09C87.1 116.42 89.89 112.95 91.04 108.01C91.69 105.22 91.56 102.37 90.63 99.71L88.48 94.12C88.24 93.49 87.6 93.1 86.94 93.16C86.27 93.22 85.72 93.72 85.6 94.38C85.35 95.71 84.65 96.32 83.95 96.6C84.61 89.45 77.22 82.01 76.87 81.67C76.44 81.24 75.79 81.12 75.22 81.35C74.66 81.59 74.3 82.15 74.31 82.76C74.35 85.01 71.03 89.47 68.37 93.05C67.21 94.61 66.12 96.08 65.23 97.43C63.81 99.6 62.91 101.79 62.49 104.12C62.44 104.37 61.42 110.2 65.09 114.61C66.38 116.16 68.08 117.32 70.15 118.09H46.02V71.53C48.31 69.84 55.54 63.83 56.3 55.04H98.83C99.7 63.67 106.85 69.8 109.08 71.52V118.1H83.13V118.09ZM121.09 118.09H112.08V69.96L111.43 69.51C111.33 69.44 101.87 62.78 101.74 53.5L101.72 52.02H53.36V53.52C53.36 62.98 43.79 69.42 43.69 69.49L43.02 69.94V118.09H34.01V43.01H121.09V118.09Z" fill="#002341"/>
</svg>
