<svg width="156" height="156" viewBox="0 0 156 156" fill="none" xmlns="http://www.w3.org/2000/svg">
<path d="M38 58C38 55.7909 39.7909 54 42 54H114C116.209 54 118 55.7909 118 58V113C118 114.657 116.657 116 115 116C113.343 116 112 114.657 112 113V64C112 61.7909 110.209 60 108 60H48C45.7909 60 44 61.7909 44 64V113C44 114.657 42.6569 116 41 116C39.3431 116 38 114.657 38 113V58Z" fill="#C2DDFF"/>
<path d="M80.8485 83.0009C52.8104 95.8342 64.093 118.14 71.1824 121.501H83.7481C92.4486 121.501 97.2801 104.084 88.5796 102.251C81.6191 100.784 79.878 91.2509 80.8485 83.0009Z" fill="#C2DDFF"/>
<path d="M126.75 34L29.25 34C28.1454 34 27.25 34.8954 27.25 36L27.25 43.9998C27.25 46.2089 29.0409 47.9998 31.25 47.9998L124.75 47.9998C126.959 47.9998 128.75 46.2089 128.75 43.9998V36C128.75 34.8954 127.855 34 126.75 34Z" fill="#C2DDFF"/>
<path fill-rule="evenodd" clip-rule="evenodd" d="M30 51.9999C30 48.6862 32.6863 45.9999 36 45.9999H120C123.314 45.9999 126 48.6862 126 51.9999V122C126 123.104 125.105 124 124 124H32C30.8954 124 30 123.104 30 122V102C30 100.895 30.8954 99.9999 32 99.9999C33.1046 99.9999 34 100.895 34 102V120H122V51.9999C122 50.8953 121.105 49.9999 120 49.9999H36C34.8954 49.9999 34 50.8953 34 51.9999V92.9999C34 94.1044 33.1046 94.9999 32 94.9999C30.8954 94.9999 30 94.1044 30 92.9999V51.9999Z" fill="#1C3553"/>
<path fill-rule="evenodd" clip-rule="evenodd" d="M24 35.9999C24 33.7907 25.7909 31.9999 28 31.9999L128 31.9999C130.209 31.9999 132 33.7907 132 35.9999V43.9999C132 47.3136 129.314 49.9999 126 49.9999L30 49.9999C26.6863 49.9999 24 47.3136 24 43.9999L24 35.9999ZM128 35.9999L28 35.9999L28 43.9999C28 45.1044 28.8954 45.9999 30 45.9999L126 45.9999C127.105 45.9999 128 45.1044 128 43.9999V35.9999Z" fill="#1C3553"/>
<path fill-rule="evenodd" clip-rule="evenodd" d="M20 123C20 121.895 20.8954 121 22 121H134C135.105 121 136 121.895 136 123C136 124.104 135.105 125 134 125H22C20.8954 125 20 124.104 20 123Z" fill="#1C3553"/>
<path fill-rule="evenodd" clip-rule="evenodd" d="M52 67.9999V122C52 123.104 51.1046 124 50 124C48.8954 124 48 123.104 48 122V66.9999C48 65.343 49.3431 63.9999 51 63.9999H105C106.657 63.9999 108 65.343 108 66.9999V122C108 123.104 107.105 124 106 124C104.895 124 104 123.104 104 122V67.9999H52Z" fill="#1C3553"/>
<path fill-rule="evenodd" clip-rule="evenodd" d="M81.7719 81.3608C82.371 81.7789 82.6944 82.4905 82.6155 83.2168C82.1861 87.1709 82.3733 91.3278 83.3637 94.5883C84.3646 97.883 86.0141 99.8001 88.2087 100.301C91.067 100.954 92.7493 103.035 93.4947 105.44C94.2181 107.775 94.1152 110.509 93.5004 113.036C92.8824 115.577 91.6988 118.11 90.0376 120.051C88.3797 121.988 86.0861 123.501 83.3037 123.501H71.7046C71.3868 123.501 71.0736 123.425 70.7909 123.28C68.6549 122.183 66.5305 119.771 64.9385 116.822C63.3141 113.813 62.1088 110.002 62.007 105.852C61.7989 97.374 66.1955 87.9245 79.7388 81.209C80.3933 80.8845 81.1727 80.9427 81.7719 81.3608ZM72.2413 119.501C71.1391 118.781 69.7033 117.228 68.4584 114.922C67.0983 112.402 66.0905 109.204 66.0058 105.754C65.8556 99.6344 68.6063 92.3581 78.4047 86.4873C78.3485 89.6817 78.6773 92.9227 79.5364 95.7509C80.7215 99.652 83.0881 103.235 87.3185 104.201C88.4758 104.465 89.2477 105.248 89.6739 106.624C90.1222 108.071 90.114 110.034 89.6138 112.091C89.1168 114.133 88.1816 116.068 86.9987 117.45C85.8126 118.836 84.537 119.501 83.3037 119.501H72.2413Z" fill="#1C3553"/>
</svg>
