<svg width="156" height="156" viewBox="0 0 156 156" fill="none" xmlns="http://www.w3.org/2000/svg">
<path d="M104.734 60H43.2654C42.0624 60 41.1317 61.0544 41.2809 62.2481L46.9049 107.24C47.5304 112.245 51.7845 116 56.8277 116H73.9999H91.172C96.2153 116 100.469 112.245 101.095 107.24L106.719 62.2481C106.868 61.0544 105.937 60 104.734 60Z" fill="#C2DDFF"/>
<path fill-rule="evenodd" clip-rule="evenodd" d="M37 131C37 129.895 37.8954 129 39 129H109C110.105 129 111 129.895 111 131C111 132.105 110.105 133 109 133H39C37.8954 133 37 132.105 37 131Z" fill="#1C3553"/>
<path fill-rule="evenodd" clip-rule="evenodd" d="M72.6656 12.6482C73.4122 11.8341 74.6774 11.7794 75.4914 12.526L74.1396 14C75.4914 12.526 75.4924 12.527 75.4934 12.5279L75.4956 12.5299L75.5004 12.5343L75.5117 12.5449L75.5414 12.573C75.5643 12.5949 75.5931 12.623 75.6273 12.6573C75.6956 12.7257 75.7855 12.8191 75.8919 12.9369C76.1044 13.1722 76.3844 13.5072 76.6896 13.9385C77.2984 14.7989 78.0202 16.0611 78.4936 17.6928C79.4654 21.0431 79.3016 25.6511 75.6404 31.1135C72.6055 35.6415 72.7252 39.0221 73.3788 41.1671C73.7193 42.2849 74.2308 43.149 74.653 43.7286C74.8632 44.0171 75.0476 44.23 75.1709 44.363C75.2324 44.4293 75.2781 44.4752 75.3034 44.5C75.3144 44.5107 75.3215 44.5174 75.3244 44.5201C76.1366 45.2583 76.2025 46.5148 75.4692 47.334C74.7324 48.1569 73.468 48.2269 72.6451 47.4901L73.9562 46.0255C72.645 47.4901 72.6441 47.4893 72.6431 47.4883L72.6409 47.4864L72.6361 47.4821L72.6247 47.4717L72.5946 47.4439C72.5714 47.4222 72.5421 47.3944 72.5074 47.3604C72.4378 47.2924 72.346 47.1996 72.2373 47.0823C72.0203 46.8481 71.7334 46.5142 71.42 46.0839C70.7949 45.226 70.0497 43.9651 69.5524 42.3329C68.5303 38.9779 68.6501 34.3585 72.3177 28.8865C75.359 24.3489 75.2755 20.9569 74.6519 18.8072C74.3276 17.6889 73.8328 16.8261 73.4244 16.249C73.221 15.9615 73.0424 15.7497 72.9232 15.6178C72.8638 15.552 72.8198 15.5067 72.7955 15.4824C72.7854 15.4722 72.7788 15.4658 72.776 15.4631C71.9732 14.7152 71.9226 13.4583 72.6656 12.6482Z" fill="#1C3553"/>
<path fill-rule="evenodd" clip-rule="evenodd" d="M60.9793 18.3782C61.8749 17.7318 63.125 17.9339 63.7714 18.8296C65.3915 21.0745 65.1504 23.7539 64.5134 25.8353C63.8637 27.958 62.6762 29.9163 61.702 31.2056L61.7007 31.2074C59.9791 33.481 59.2658 35.4102 59.0644 36.9742C58.8636 38.5332 59.1553 39.8532 59.6365 40.9406C60.1247 42.044 60.8134 42.9159 61.3939 43.5181C61.6813 43.8161 61.9334 44.0389 62.1061 44.1819C62.1922 44.2531 62.2576 44.3037 62.2966 44.3331C62.3161 44.3478 62.3289 44.3571 62.3344 44.3611C62.3351 44.3616 62.3358 44.3621 62.3362 44.3624C63.2368 44.9937 63.459 46.2347 62.8317 47.1395C62.2023 48.0473 60.9562 48.273 60.0485 47.6436L61.188 46C60.0485 47.6436 60.0475 47.6429 60.0465 47.6422L60.0443 47.6407L60.0392 47.6371L60.0268 47.6284L59.9926 47.6039C59.9657 47.5845 59.9308 47.5589 59.8888 47.5272C59.8048 47.4639 59.6917 47.3758 59.5559 47.2634C59.2849 47.0392 58.92 46.7152 58.5144 46.2944C57.709 45.4591 56.7073 44.206 55.9786 42.5594C55.2429 40.8967 54.7908 38.8418 55.0971 36.4633C55.4028 34.09 56.4472 31.5195 58.5113 28.7934C59.2999 27.7494 60.2161 26.2082 60.6885 24.6647C61.1737 23.0794 61.0728 21.9255 60.5279 21.1704C59.8815 20.2747 60.0836 19.0246 60.9793 18.3782Z" fill="#1C3553"/>
<path fill-rule="evenodd" clip-rule="evenodd" d="M88.9793 18.3782C89.8749 17.7318 91.125 17.9339 91.7714 18.8296C93.3915 21.0745 93.1504 23.7539 92.5134 25.8353C91.8637 27.958 90.6762 29.9163 89.702 31.2056L89.7007 31.2074C87.9791 33.481 87.2658 35.4102 87.0644 36.9742C86.8636 38.5332 87.1553 39.8532 87.6365 40.9406C88.1247 42.044 88.8134 42.9159 89.3939 43.5181C89.6813 43.8161 89.9334 44.0389 90.1061 44.1819C90.1922 44.2531 90.2576 44.3037 90.2966 44.3331C90.3161 44.3478 90.3289 44.3571 90.3344 44.3611C90.3351 44.3616 90.3358 44.3621 90.3362 44.3624C91.2368 44.9937 91.459 46.2347 90.8317 47.1395C90.2023 48.0473 88.9562 48.273 88.0485 47.6436L89.188 46C88.0485 47.6436 88.0475 47.6429 88.0465 47.6422L88.0443 47.6407L88.0392 47.6371L88.0268 47.6284L87.9926 47.6039C87.9657 47.5845 87.9308 47.5589 87.8888 47.5272C87.8048 47.4639 87.6917 47.3758 87.5559 47.2634C87.2849 47.0392 86.92 46.7152 86.5144 46.2944C85.709 45.4591 84.7073 44.206 83.9786 42.5594C83.2429 40.8967 82.7908 38.8418 83.0971 36.4633C83.4028 34.09 84.4472 31.5195 86.5113 28.7934C87.2999 27.7494 88.2161 26.2082 88.6885 24.6647C89.1737 23.0794 89.0728 21.9255 88.5279 21.1704C87.8815 20.2747 88.0836 19.0246 88.9793 18.3782Z" fill="#1C3553"/>
<path fill-rule="evenodd" clip-rule="evenodd" d="M32.6163 58.7873C32.1405 55.1922 34.938 52 38.5645 52H109.436C113.062 52 115.86 55.1922 115.384 58.7873L108.593 110.099C107.54 118.055 100.756 124 92.731 124H55.2693C47.2442 124 40.4606 118.055 39.4076 110.099L32.6163 58.7873ZM38.5645 56C37.3557 56 36.4231 57.0641 36.5817 58.2624L43.3731 109.575C44.1628 115.541 49.2505 120 55.2693 120H92.731C98.7498 120 103.838 115.541 104.627 109.575L111.419 58.2624C111.577 57.0641 110.645 56 109.436 56H38.5645Z" fill="#1C3553"/>
<path fill-rule="evenodd" clip-rule="evenodd" d="M51.1215 97.5171C52.2166 97.3729 53.2213 98.1438 53.3654 99.2389L54.061 104.522C54.323 106.512 56.0194 108 58.0268 108H62.0002C63.1048 108 64.0002 108.895 64.0002 110C64.0002 111.105 63.1048 112 62.0002 112H58.0268C54.0121 112 50.6192 109.025 50.0952 105.044L49.3997 99.7611C49.2555 98.6659 50.0264 97.6613 51.1215 97.5171Z" fill="#1C3553"/>
<path fill-rule="evenodd" clip-rule="evenodd" d="M111 69C111 67.8954 111.895 67 113 67H121.768C128.979 67 133.82 74.4013 130.929 81.0082L123.929 97.0082C122.337 100.648 118.741 103 114.768 103H108.5C107.395 103 106.5 102.105 106.5 101C106.5 99.8954 107.395 99 108.5 99H114.768C117.152 99 119.309 97.5888 120.265 95.4049L127.265 79.4049C128.999 75.4408 126.095 71 121.768 71H113C111.895 71 111 70.1046 111 69Z" fill="#1C3553"/>
</svg>
