<svg width="156" height="156" viewBox="0 0 156 156" fill="none" xmlns="http://www.w3.org/2000/svg">
<path d="M104.734 60H43.2654C42.0624 60 41.1317 61.0544 41.2809 62.2481L46.9049 107.24C47.5304 112.245 51.7845 116 56.8277 116H73.9999H91.172C96.2153 116 100.469 112.245 101.095 107.24L106.719 62.2481C106.868 61.0544 105.937 60 104.734 60Z" fill="#C2DDFF"/>
<path fill-rule="evenodd" clip-rule="evenodd" d="M37 131C37 129.895 37.8954 129 39 129H109C110.105 129 111 129.895 111 131C111 132.105 110.105 133 109 133H39C37.8954 133 37 132.105 37 131Z" fill="#1C3553"/>
<path fill-rule="evenodd" clip-rule="evenodd" d="M72.6654 12.6482C73.412 11.8341 74.6771 11.7794 75.4912 12.526L74.1393 14C75.4912 12.526 75.4922 12.527 75.4932 12.5279L75.4953 12.5299L75.5001 12.5343L75.5115 12.5449L75.5412 12.573C75.564 12.5949 75.5928 12.623 75.627 12.6573C75.6953 12.7257 75.7853 12.8191 75.8917 12.9369C76.1041 13.1722 76.3842 13.5072 76.6894 13.9385C77.2982 14.7989 78.02 16.0611 78.4933 17.6928C79.4651 21.0431 79.3013 25.6511 75.6401 31.1135C72.6052 35.6415 72.725 39.0221 73.3785 41.1671C73.7191 42.2849 74.2305 43.149 74.6527 43.7286C74.8629 44.0171 75.0474 44.23 75.1706 44.363C75.2321 44.4293 75.2778 44.4752 75.3032 44.5C75.3141 44.5107 75.3212 44.5174 75.3241 44.5201C76.1364 45.2583 76.2022 46.5148 75.4689 47.334C74.7322 48.1569 73.4678 48.2269 72.6448 47.4901L73.956 46.0255C72.6448 47.4901 72.6438 47.4893 72.6428 47.4883L72.6406 47.4864L72.6358 47.4821L72.6244 47.4717L72.5943 47.4439C72.5712 47.4222 72.5419 47.3944 72.5071 47.3604C72.4376 47.2924 72.3458 47.1996 72.2371 47.0823C72.02 46.8481 71.7332 46.5142 71.4197 46.0839C70.7947 45.226 70.0494 43.9651 69.5521 42.3329C68.53 38.9779 68.6498 34.3585 72.3174 28.8865C75.3588 24.3489 75.2752 20.9569 74.6517 18.8072C74.3273 17.6889 73.8325 16.8261 73.4242 16.249C73.2208 15.9615 73.0421 15.7497 72.923 15.6178C72.8636 15.552 72.8195 15.5067 72.7953 15.4824C72.7852 15.4722 72.7786 15.4658 72.7758 15.4631C71.9729 14.7152 71.9224 13.4583 72.6654 12.6482Z" fill="#1C3553"/>
<path fill-rule="evenodd" clip-rule="evenodd" d="M60.979 18.3782C61.8747 17.7318 63.1248 17.9339 63.7712 18.8296C65.3913 21.0745 65.1502 23.7539 64.5131 25.8353C63.8635 27.958 62.6759 29.9163 61.7018 31.2056L61.7005 31.2074C59.9788 33.481 59.2655 35.4102 59.0641 36.9742C58.8633 38.5332 59.155 39.8532 59.6362 40.9406C60.1245 42.044 60.8131 42.9159 61.3937 43.5181C61.681 43.8161 61.9332 44.0389 62.1059 44.1819C62.1919 44.2531 62.2573 44.3037 62.2964 44.3331C62.3159 44.3478 62.3287 44.3571 62.3341 44.3611C62.3349 44.3616 62.3355 44.3621 62.336 44.3624C63.2365 44.9937 63.4588 46.2347 62.8314 47.1395C62.2021 48.0473 60.956 48.273 60.0483 47.6436L61.1878 46C60.0483 47.6436 60.0473 47.6429 60.0463 47.6422L60.044 47.6407L60.039 47.6371L60.0265 47.6284L59.9923 47.6039C59.9655 47.5845 59.9306 47.5589 59.8886 47.5272C59.8045 47.4639 59.6914 47.3758 59.5556 47.2634C59.2846 47.0392 58.9198 46.7152 58.5142 46.2944C57.7087 45.4591 56.7071 44.206 55.9784 42.5594C55.2426 40.8967 54.7906 38.8418 55.0969 36.4633C55.4025 34.09 56.4469 31.5195 58.511 28.7934C59.2996 27.7494 60.2158 26.2082 60.6883 24.6647C61.1734 23.0794 61.0725 21.9255 60.5276 21.1704C59.8812 20.2747 60.0833 19.0246 60.979 18.3782Z" fill="#1C3553"/>
<path fill-rule="evenodd" clip-rule="evenodd" d="M88.979 18.3782C89.8747 17.7318 91.1248 17.9339 91.7712 18.8296C93.3913 21.0745 93.1502 23.7539 92.5131 25.8353C91.8635 27.958 90.6759 29.9163 89.7018 31.2056L89.7005 31.2074C87.9788 33.481 87.2655 35.4102 87.0641 36.9742C86.8633 38.5332 87.155 39.8532 87.6362 40.9406C88.1245 42.044 88.8131 42.9159 89.3937 43.5181C89.681 43.8161 89.9332 44.0389 90.1059 44.1819C90.1919 44.2531 90.2573 44.3037 90.2964 44.3331C90.3159 44.3478 90.3287 44.3571 90.3341 44.3611C90.3349 44.3616 90.3355 44.3621 90.336 44.3624C91.2365 44.9937 91.4588 46.2347 90.8314 47.1395C90.2021 48.0473 88.956 48.273 88.0483 47.6436L89.1878 46C88.0483 47.6436 88.0473 47.6429 88.0463 47.6422L88.044 47.6407L88.039 47.6371L88.0265 47.6284L87.9923 47.6039C87.9655 47.5845 87.9306 47.5589 87.8886 47.5272C87.8045 47.4639 87.6914 47.3758 87.5556 47.2634C87.2846 47.0392 86.9198 46.7152 86.5142 46.2944C85.7087 45.4591 84.7071 44.206 83.9784 42.5594C83.2426 40.8967 82.7906 38.8418 83.0969 36.4633C83.4025 34.09 84.4469 31.5195 86.511 28.7934C87.2996 27.7494 88.2158 26.2082 88.6883 24.6647C89.1734 23.0794 89.0725 21.9255 88.5276 21.1704C87.8812 20.2747 88.0833 19.0246 88.979 18.3782Z" fill="#1C3553"/>
<path fill-rule="evenodd" clip-rule="evenodd" d="M32.6161 58.7873C32.1403 55.1922 34.9378 52 38.5642 52H109.436C113.062 52 115.86 55.1922 115.384 58.7873L108.592 110.099C107.539 118.055 100.756 124 92.7308 124H55.2691C47.244 124 40.4604 118.055 39.4074 110.099L32.6161 58.7873ZM38.5642 56C37.3554 56 36.4229 57.0641 36.5815 58.2624L43.3728 109.575C44.1625 115.541 49.2502 120 55.2691 120H92.7308C98.7496 120 103.837 115.541 104.627 109.575L111.418 58.2624C111.577 57.0641 110.644 56 109.436 56H38.5642Z" fill="#1C3553"/>
<path fill-rule="evenodd" clip-rule="evenodd" d="M51.1213 97.5171C52.2164 97.3729 53.221 98.1438 53.3652 99.2389L54.0607 104.522C54.3227 106.512 56.0192 108 58.0265 108H62C63.1045 108 64 108.895 64 110C64 111.105 63.1045 112 62 112H58.0265C54.0119 112 50.619 109.025 50.095 105.044L49.3994 99.7611C49.2552 98.6659 50.0261 97.6613 51.1213 97.5171Z" fill="#1C3553"/>
<path fill-rule="evenodd" clip-rule="evenodd" d="M111 69C111 67.8954 111.895 67 113 67H121.768C128.979 67 133.82 74.4013 130.929 81.0082L123.929 97.0082C122.337 100.648 118.741 103 114.768 103H108.5C107.395 103 106.5 102.105 106.5 101C106.5 99.8954 107.395 99 108.5 99H114.768C117.152 99 119.309 97.5888 120.265 95.4049L127.265 79.4049C128.999 75.4408 126.095 71 121.768 71H113C111.895 71 111 70.1046 111 69Z" fill="#1C3553"/>
</svg>
