<svg width="156" height="156" viewBox="0 0 156 156" fill="none" xmlns="http://www.w3.org/2000/svg">
<path d="M56.13 54.03C56.96 54.03 57.63 53.36 57.63 52.53V33.19C57.63 32.36 56.96 31.69 56.13 31.69C55.3 31.69 54.63 32.36 54.63 33.19V52.53C54.63 53.36 55.3 54.03 56.13 54.03Z" fill="#002341"/>
<path d="M91.3 54.03C92.13 54.03 92.8 53.36 92.8 52.53V33.19C92.8 32.36 92.13 31.69 91.3 31.69C90.47 31.69 89.8 32.36 89.8 33.19V52.53C89.8 53.36 90.47 54.03 91.3 54.03Z" fill="#002341"/>
<path d="M73.66 54.03C74.49 54.03 75.16 53.36 75.16 52.53V26.5C75.16 25.67 74.49 25 73.66 25C72.83 25 72.16 25.67 72.16 26.5V52.53C72.16 53.36 72.83 54.03 73.66 54.03Z" fill="#002341"/>
<path d="M110.79 67.46L110.77 65.98H101.91L102.39 60.18H45L50.6 131.23H96.5L98.64 105.39C110.97 92.55 110.8 68.49 110.79 67.46ZM107.76 68.98C107.61 73.84 106.51 89.59 99.08 100.12L101.66 68.98H107.77H107.76ZM53.38 128.22L48.25 63.18H99.13L93.74 128.22H53.38Z" fill="#002341"/>
</svg>
