<svg width="156" height="156" viewBox="0 0 156 156" fill="none" xmlns="http://www.w3.org/2000/svg">
<path d="M126.938 72.5356C127.557 72.8429 127.973 73.448 128.039 74.1359C128.275 76.5931 128.334 79.0989 128.208 81.6362L128.208 81.6369C126.802 109.713 103.032 131.35 75.0878 129.934L75.0872 129.934C47.1535 128.511 25.6596 104.59 27.0652 76.5224L126.938 72.5356ZM126.938 72.5356C126.319 72.2284 125.585 72.2624 124.997 72.6257M126.938 72.5356L124.997 72.6257M124.997 72.6257C121.875 74.5551 119.412 74.908 117.406 74.3632C115.352 73.8054 113.338 72.1897 111.394 69.2714C110.897 68.5255 109.964 68.2013 109.112 68.4781M124.997 72.6257L109.112 68.4781M109.112 68.4781C101.444 70.9676 95.121 69.4143 91.3429 65.6196C87.5662 61.8263 85.8751 55.3313 88.4592 46.9823C88.668 46.3077 88.5056 45.5731 88.032 45.0494M109.112 68.4781L88.032 45.0494M88.032 45.0494L88.0315 45.0488L88.0313 45.0487M88.032 45.0494L88.0313 45.0487M88.0313 45.0487L88.0204 45.0364C88.0093 45.0239 87.991 45.0032 87.9661 44.9746C87.9161 44.9174 87.8397 44.8285 87.7411 44.7106C87.5437 44.4745 87.2588 44.1232 86.9215 43.6765C86.2443 42.7796 85.3697 41.5164 84.5699 40.0448C82.9132 36.9965 81.8355 33.5307 82.7668 30.5994C82.9546 30.0085 82.8576 29.3638 82.5043 28.8542C82.151 28.3446 81.5813 28.0277 80.9619 27.9964C53.0531 26.5823 28.4644 48.418 27.0652 76.5218L88.0313 45.0487Z" stroke="#1C3553" stroke-width="4" stroke-linejoin="round"/>
<path fill-rule="evenodd" clip-rule="evenodd" d="M109.729 70.449C113.904 76.7148 119.187 78.6353 126.049 74.3956C126.275 76.7555 126.332 79.1642 126.21 81.6055C124.859 108.59 102.018 129.365 75.189 128.006C48.3676 126.639 27.7115 103.666 29.0627 76.6904C30.4058 49.7064 54.0393 28.7034 80.8607 30.0624C80.8607 38 82.5 41 86.5487 46.4595C81.063 64.1831 93.3127 75.779 109.729 70.449Z" fill="#C2DDFF"/>
<path d="M31.0602 76.7905L31.0602 76.7899C32.3166 51.5479 53.9473 31.7294 78.9084 32.0028C79.0842 35.4552 79.7378 38.0577 80.7236 40.3542C81.5831 42.3563 82.71 44.1297 83.837 45.9033C84.0172 46.1868 84.1973 46.4703 84.3763 46.7547C81.847 55.7565 83.5883 63.5689 88.5083 68.5105C93.3117 73.3349 100.736 75.0097 108.927 72.7753C110.986 75.5024 113.43 77.497 116.357 78.292C118.881 78.9773 121.523 78.7074 124.248 77.5748C124.29 78.8728 124.279 80.1841 124.213 81.5062C122.916 107.397 101.005 127.31 75.2908 126.008C49.5819 124.698 29.7637 102.674 31.0602 76.7905Z" stroke="white" stroke-width="4" stroke-linejoin="round"/>
<path d="M106.398 48.7979C108.576 48.7979 110.364 50.5797 110.364 52.7979C110.364 55.016 108.576 56.7979 106.398 56.7979C104.221 56.7979 102.433 55.016 102.433 52.7979C102.433 50.5798 104.221 48.7979 106.398 48.7979Z" fill="#C2DDFF" stroke="#1C3553" stroke-width="4" stroke-linejoin="round"/>
<path d="M112.5 30C116.086 30 119 32.9139 119 36.5C119 40.0861 116.086 43 112.5 43C108.915 43 106.002 40.0877 106 36.503C106.013 32.9081 108.92 30 112.5 30Z" fill="#C2DDFF" stroke="#1C3553" stroke-width="4" stroke-linejoin="round"/>
<path d="M54.5 68C58.0861 68 61 70.9139 61 74.5C61 78.0861 58.0861 81 54.5 81C50.9149 81 48.0016 78.0877 48 74.503C48.0125 70.9081 50.9204 68 54.5 68Z" fill="#C2DDFF" stroke="#1C3553" stroke-width="4" stroke-linejoin="round"/>
<path d="M76 79C78.7583 79 81 81.2417 81 84C81 86.7583 78.7583 89 76 89C73.2427 89 71.0016 86.7599 71 84.003C71.01 81.2359 73.2482 79 76 79Z" fill="#C2DDFF" stroke="#1C3553" stroke-width="4" stroke-linejoin="round"/>
<path d="M69 54C71.7583 54 74 56.2417 74 59C74 61.7583 71.7583 64 69 64C66.2427 64 64.0016 61.7599 64 59.003C64.01 56.2359 66.2482 54 69 54Z" fill="#C2DDFF" stroke="#1C3553" stroke-width="4" stroke-linejoin="round"/>
<path d="M58 93C60.7583 93 63 95.2417 63 98C63 100.758 60.7583 103 58 103C55.2427 103 53.0016 100.76 53 98.003C53.01 95.2359 55.2482 93 58 93Z" fill="#C2DDFF" stroke="#1C3553" stroke-width="4" stroke-linejoin="round"/>
<path d="M91 97C93.7583 97 96 99.2417 96 102C96 104.758 93.7583 107 91 107C88.2427 107 86.0016 104.76 86 102.003C86.01 99.2359 88.2482 97 91 97Z" fill="#C2DDFF" stroke="#1C3553" stroke-width="4" stroke-linejoin="round"/>
</svg>
