<svg width="156" height="156" viewBox="0 0 156 156" fill="none" xmlns="http://www.w3.org/2000/svg">
<path d="M75.189 128.006C48.3676 126.639 27.7115 103.666 29.0627 76.6904C30.4058 49.7064 54.0393 28.7034 80.8607 30.0624C80.8607 37.483 82.9021 40.6978 85.4681 44.7387L85.4683 44.739C85.8199 45.2927 86.1813 45.8619 86.5487 46.4595C81.063 64.1831 93.3127 75.779 109.729 70.449C113.083 75.4826 117.152 77.7119 122.18 76.196C123.411 75.8249 124.699 75.2294 126.049 74.3956C126.189 75.8619 126.264 77.3471 126.272 78.8472C126.277 79.7614 126.256 80.6811 126.21 81.6055C124.859 108.59 102.018 129.365 75.189 128.006Z" fill="#1C3553"/>
<path fill-rule="evenodd" clip-rule="evenodd" d="M75.1891 128.006C48.3677 126.639 27.7116 103.666 29.0627 76.6904C30.4058 49.7064 54.0394 28.7034 80.8608 30.0624C80.8608 37.483 82.9022 40.6978 85.4681 44.7387L85.4683 44.739C85.8199 45.2927 86.1813 45.8619 86.5487 46.4595C81.0631 64.183 93.3127 75.779 109.729 70.4489C113.083 75.4826 117.152 77.7119 122.18 76.196C123.411 75.8249 124.699 75.2294 126.049 74.3956C126.189 75.8619 126.265 77.3471 126.272 78.8472C126.272 78.8475 126.272 78.8478 126.272 78.8481C126.277 79.7619 126.256 80.6814 126.21 81.6055C124.859 108.59 102.019 129.365 75.1891 128.006ZM88.8451 42.5948L88.8508 42.6039C89.1988 43.1518 89.5735 43.7419 89.9564 44.3648C90.5599 45.3467 90.7107 46.5412 90.3699 47.6422C87.9444 55.4785 89.6355 61.1386 92.7603 64.2771C95.8878 67.4183 101.367 68.9583 108.494 66.6444C110.199 66.0909 112.064 66.7392 113.058 68.231C114.498 70.392 115.863 71.5953 117.066 72.1764C118.162 72.7054 119.397 72.8574 121.026 72.3663C121.865 72.1131 122.836 71.6785 123.946 70.9929C125.122 70.2663 126.589 70.1982 127.827 70.8128C129.065 71.4274 129.898 72.6376 130.03 74.0134C130.183 75.6006 130.264 77.2065 130.272 78.8268C130.277 79.8143 130.255 80.807 130.205 81.8041L130.205 81.8055C128.745 110.975 104.046 133.472 74.9867 132.001L74.9854 132C45.9395 130.52 23.6078 105.652 25.0677 76.4916M88.8451 42.5948L88.8449 42.5945C87.5346 40.5311 86.614 39.0569 85.9517 37.2746C85.3134 35.5569 84.8608 33.3815 84.8608 30.0624C84.8608 27.9319 83.1909 26.1753 81.0632 26.0675C52.067 24.5983 26.523 47.2668 25.0678 76.4903" fill="#1C3553"/>
<path fill-rule="evenodd" clip-rule="evenodd" d="M109.729 70.449C113.904 76.7148 119.187 78.6353 126.049 74.3956C126.275 76.7555 126.332 79.1642 126.21 81.6055C124.859 108.59 102.018 129.365 75.189 128.006C48.3676 126.639 27.7115 103.666 29.0627 76.6904C30.4058 49.7064 54.0393 28.7034 80.8607 30.0624C80.8607 38 82.5 41 86.5487 46.4595C81.063 64.1831 93.3127 75.779 109.729 70.449Z" fill="#C2DDFF"/>
<path fill-rule="evenodd" clip-rule="evenodd" d="M29.0627 76.6904C27.7115 103.666 48.3676 126.639 75.189 128.006C102.018 129.365 124.859 108.59 126.21 81.6055C126.256 80.6811 126.277 79.7614 126.272 78.8472C126.264 77.3471 126.189 75.8619 126.049 74.3956C124.699 75.2294 123.411 75.8249 122.18 76.196C117.152 77.7119 113.083 75.4826 109.729 70.449C93.3127 75.779 81.063 64.1831 86.5487 46.4595C86.1812 45.8618 85.8197 45.2925 85.4681 44.7387C82.9021 40.6978 80.8607 37.483 80.8607 30.0624C54.0393 28.7034 30.4058 49.7064 29.0627 76.6904ZM77.0625 34.0201C53.9348 34.7144 34.2291 53.3564 33.0577 76.8893L33.0577 76.8905C31.816 101.681 50.7955 122.756 75.3914 124.011C99.9915 125.257 120.974 106.204 122.215 81.4055C122.234 81.0394 122.247 80.6743 122.257 80.3101C120.112 80.7973 117.96 80.7997 115.833 80.222C112.766 79.3892 110.247 77.4806 108.167 75.0264C99.9191 76.9057 92.2426 75.0958 87.091 69.9216C81.71 64.517 79.89 56.2562 82.2177 47.0862C82.213 47.0788 82.2083 47.0714 82.2036 47.064C81.0626 45.2699 79.8157 43.3092 78.8858 41.1432C77.9939 39.0655 77.364 36.787 77.0625 34.0201Z" fill="white"/>
<path d="M112.364 52.7979C112.364 49.486 109.691 46.7979 106.398 46.7979C103.105 46.7979 100.433 49.486 100.433 52.7979C100.433 56.1097 103.105 58.7979 106.398 58.7979C109.691 58.7979 112.364 56.1097 112.364 52.7979Z" fill="#C2DDFF"/>
<path fill-rule="evenodd" clip-rule="evenodd" d="M108.364 52.7979C108.364 51.6735 107.46 50.7979 106.398 50.7979C105.336 50.7979 104.433 51.6735 104.433 52.7979C104.433 53.9222 105.336 54.7979 106.398 54.7979C107.46 54.7979 108.364 53.9222 108.364 52.7979ZM106.398 46.7979C109.691 46.7979 112.364 49.486 112.364 52.7979C112.364 56.1097 109.691 58.7979 106.398 58.7979C103.105 58.7979 100.433 56.1097 100.433 52.7979C100.433 49.486 103.105 46.7979 106.398 46.7979Z" fill="#1C3553"/>
<path d="M121 36.5C121 31.8094 117.191 28 112.5 28C107.809 28 104.014 31.8094 104 36.5C104 41.1906 107.809 45 112.5 45C117.191 45 121 41.1906 121 36.5Z" fill="#C2DDFF"/>
<path fill-rule="evenodd" clip-rule="evenodd" d="M117 36.5C117 34.0185 114.981 32 112.5 32C110.032 32 108.011 34.0069 108 36.506C108.003 38.9848 110.021 41 112.5 41C114.981 41 117 38.9815 117 36.5ZM104 36.5C104.014 31.8094 107.809 28 112.5 28C117.191 28 121 31.8094 121 36.5C121 41.1906 117.191 45 112.5 45C107.809 45 104 41.1906 104 36.5Z" fill="#1C3553"/>
<path d="M63 74.5C63 69.8094 59.1906 66 54.5 66C49.8094 66 46.0142 69.8094 46 74.5C46 79.1906 49.8094 83 54.5 83C59.1906 83 63 79.1906 63 74.5Z" fill="#C2DDFF"/>
<path fill-rule="evenodd" clip-rule="evenodd" d="M59 74.5C59 72.0185 56.9815 70 54.5 70C52.0315 70 50.0108 72.0069 50 74.506C50.0033 76.9848 52.0205 79 54.5 79C56.9815 79 59 76.9815 59 74.5ZM46 74.5C46.0142 69.8094 49.8094 66 54.5 66C59.1906 66 63 69.8094 63 74.5C63 79.1906 59.1906 83 54.5 83C49.8094 83 46 79.1906 46 74.5Z" fill="#1C3553"/>
<path d="M83 84C83 80.1371 79.8629 77 76 77C72.1371 77 69.0117 80.1371 69 84C69 87.8629 72.1371 91 76 91C79.8629 91 83 87.8629 83 84Z" fill="#C2DDFF"/>
<path fill-rule="evenodd" clip-rule="evenodd" d="M79 84C79 82.3463 77.6537 81 76 81C74.3593 81 73.0083 82.3346 73 84.006C73.0033 85.657 74.3483 87 76 87C77.6537 87 79 85.6537 79 84ZM69 84C69.0117 80.1371 72.1371 77 76 77C79.8629 77 83 80.1371 83 84C83 87.8629 79.8629 91 76 91C72.1371 91 69 87.8629 69 84Z" fill="#1C3553"/>
<path d="M76 59C76 55.1371 72.8629 52 69 52C65.1371 52 62.0117 55.1371 62 59C62 62.8629 65.1371 66 69 66C72.8629 66 76 62.8629 76 59Z" fill="#C2DDFF"/>
<path fill-rule="evenodd" clip-rule="evenodd" d="M72 59C72 57.3463 70.6537 56 69 56C67.3593 56 66.0083 57.3346 66 59.006C66.0033 60.657 67.3483 62 69 62C70.6537 62 72 60.6537 72 59ZM62 59C62.0117 55.1371 65.1371 52 69 52C72.8629 52 76 55.1371 76 59C76 62.8629 72.8629 66 69 66C65.1371 66 62 62.8629 62 59Z" fill="#1C3553"/>
<path d="M65 98C65 94.1371 61.8629 91 58 91C54.1371 91 51.0117 94.1371 51 98C51 101.863 54.1371 105 58 105C61.8629 105 65 101.863 65 98Z" fill="#C2DDFF"/>
<path fill-rule="evenodd" clip-rule="evenodd" d="M61 98C61 96.3463 59.6537 95 58 95C56.3593 95 55.0083 96.3346 55 98.006C55.0033 99.657 56.3483 101 58 101C59.6537 101 61 99.6537 61 98ZM51 98C51.0117 94.1371 54.1371 91 58 91C61.8629 91 65 94.1371 65 98C65 101.863 61.8629 105 58 105C54.1371 105 51 101.863 51 98Z" fill="#1C3553"/>
<path d="M98 102C98 98.1371 94.8629 95 91 95C87.1371 95 84.0117 98.1371 84 102C84 105.863 87.1371 109 91 109C94.8629 109 98 105.863 98 102Z" fill="#C2DDFF"/>
<path fill-rule="evenodd" clip-rule="evenodd" d="M94 102C94 100.346 92.6537 99 91 99C89.3593 99 88.0083 100.335 88 102.006C88.0033 103.657 89.3483 105 91 105C92.6537 105 94 103.654 94 102ZM84 102C84.0117 98.1371 87.1371 95 91 95C94.8629 95 98 98.1371 98 102C98 105.863 94.8629 109 91 109C87.1371 109 84 105.863 84 102Z" fill="#1C3553"/>
</svg>
