<svg width="156" height="156" viewBox="0 0 156 156" fill="none" xmlns="http://www.w3.org/2000/svg">
<path d="M112.31 39.66C116.22 39.66 119.39 36.4902 119.39 32.58C119.39 28.6698 116.22 25.5 112.31 25.5C108.4 25.5 105.23 28.6698 105.23 32.58C105.23 36.4902 108.4 39.66 112.31 39.66Z" stroke="#002341" stroke-width="3" stroke-miterlimit="10"/>
<path d="M105.23 55.07C107.638 55.07 109.59 53.118 109.59 50.71C109.59 48.302 107.638 46.35 105.23 46.35C102.822 46.35 100.87 48.302 100.87 50.71C100.87 53.118 102.822 55.07 105.23 55.07Z" stroke="#002341" stroke-width="3" stroke-miterlimit="10"/>
<path d="M68.94 59.44C71.348 59.44 73.3 57.488 73.3 55.08C73.3 52.672 71.348 50.72 68.94 50.72C66.532 50.72 64.58 52.672 64.58 55.08C64.58 57.488 66.532 59.44 68.94 59.44Z" stroke="#002341" stroke-width="3" stroke-miterlimit="10"/>
<path d="M75.94 84.44C78.348 84.44 80.3 82.488 80.3 80.08C80.3 77.672 78.348 75.72 75.94 75.72C73.532 75.72 71.58 77.672 71.58 80.08C71.58 82.488 73.532 84.44 75.94 84.44Z" stroke="#002341" stroke-width="3" stroke-miterlimit="10"/>
<path d="M90.94 102.44C93.348 102.44 95.3 100.488 95.3 98.08C95.3 95.672 93.348 93.72 90.94 93.72C88.532 93.72 86.58 95.672 86.58 98.08C86.58 100.488 88.532 102.44 90.94 102.44Z" stroke="#002341" stroke-width="3" stroke-miterlimit="10"/>
<path d="M57.94 98.44C60.348 98.44 62.3 96.488 62.3 94.08C62.3 91.672 60.348 89.72 57.94 89.72C55.532 89.72 53.58 91.672 53.58 94.08C53.58 96.488 55.532 98.44 57.94 98.44Z" stroke="#002341" stroke-width="3" stroke-miterlimit="10"/>
<path d="M54.44 77.66C58.3502 77.66 61.52 74.4902 61.52 70.58C61.52 66.6698 58.3502 63.5 54.44 63.5C50.5298 63.5 47.36 66.6698 47.36 70.58C47.36 74.4902 50.5298 77.66 54.44 77.66Z" stroke="#002341" stroke-width="3" stroke-miterlimit="10"/>
<path d="M129.13 69.64C129.13 69.64 129.13 69.64 129.14 69.64L128.65 66.51C126.74 67.79 124.14 69.52 120.23 69.52C116.32 69.52 112.47 67.21 110.73 63.78L109.99 62.31L108.63 63.24C106.79 64.49 104.65 65.23 102.45 65.38C99.14 65.6 95.93 64.51 93.42 62.32C90.92 60.13 89.42 57.09 89.2 53.77C89.03 51.23 89.64 48.73 90.95 46.54L91.63 45.4L90.55 44.62C86.57 41.74 84.1 37.27 83.78 32.37C83.7 31.17 83.76 29.99 83.94 28.82C83.95 28.82 83.96 28.82 83.97 28.82C84.12 27.85 84.32 26.9 84.61 25.98C82.32 25.67 79.98 25.5 77.61 25.5C48.88 25.5 25.5 48.88 25.5 77.63C25.5 106.38 48.88 129.76 77.63 129.76C106.38 129.76 129.76 106.38 129.76 77.63C129.76 74.91 129.54 72.25 129.13 69.64Z" stroke="#002341" stroke-width="3" stroke-miterlimit="10"/>
</svg>
