<svg width="156" height="156" viewBox="0 0 156 156" fill="none" xmlns="http://www.w3.org/2000/svg">
<path d="M102 47V31L119 47H102Z" fill="#C2DDFF"/>
<path d="M43 37.0005C43 35.8959 43.8954 35.0005 45 35.0005H93C94.1046 35.0005 95 35.8959 95 37.0005V47.0001C95 50.3138 97.6863 53.0001 101 53.0001H111C112.105 53.0001 113 53.8955 113 55.0001V119C113 120.105 112.105 121 111 121H45C43.8954 121 43 120.105 43 119V37.0005Z" fill="#C2DDFF"/>
<path fill-rule="evenodd" clip-rule="evenodd" d="M35 31C35 28.7909 36.7909 27 39 27H101C101.53 27 102.039 27.2107 102.414 27.5858L120.414 45.5858C120.789 45.9609 121 46.4696 121 47V125C121 127.209 119.209 129 117 129H39C36.7909 129 35 127.209 35 125V31ZM99 31L39 31V125H117V49H103C100.791 49 99 47.2091 99 45V31ZM103 33.8284L114.172 45H103V33.8284Z" fill="#1C3553"/>
<path fill-rule="evenodd" clip-rule="evenodd" d="M47 45C47 43.8954 47.8954 43 49 43H65C66.1046 43 67 43.8954 67 45C67 46.1046 66.1046 47 65 47H49C47.8954 47 47 46.1046 47 45Z" fill="#1C3553"/>
<path fill-rule="evenodd" clip-rule="evenodd" d="M47 75C47 73.8954 47.8954 73 49 73H101C102.105 73 103 73.8954 103 75C103 76.1046 102.105 77 101 77H49C47.8954 77 47 76.1046 47 75Z" fill="#1C3553"/>
<path fill-rule="evenodd" clip-rule="evenodd" d="M47 99C47 97.8954 47.8954 97 49 97H75C76.1046 97 77 97.8954 77 99C77 100.105 76.1046 101 75 101H49C47.8954 101 47 100.105 47 99Z" fill="#1C3553"/>
<path fill-rule="evenodd" clip-rule="evenodd" d="M47 87C47 85.8954 47.8954 85 49 85H101C102.105 85 103 85.8954 103 87C103 88.1046 102.105 89 101 89H49C47.8954 89 47 88.1046 47 87Z" fill="#1C3553"/>
<path fill-rule="evenodd" clip-rule="evenodd" d="M47 111C47 109.895 47.8954 109 49 109H101C102.105 109 103 109.895 103 111C103 112.105 102.105 113 101 113H49C47.8954 113 47 112.105 47 111Z" fill="#1C3553"/>
</svg>
