<svg width="156" height="156" viewBox="0 0 156 156" fill="none" xmlns="http://www.w3.org/2000/svg">
<path d="M116.59 130.04H39V26H116.59V130.04ZM113.59 127.04V29H42V127.04H113.59Z" fill="#002341"/>
<path d="M57.07 85.78V82.83C57.69 83.31 58.53 83.79 59.95 83.79C61.46 83.79 62.47 82.85 62.47 80.84V69.43H65.57V81.19C65.57 84.94 63.48 86.71 60.48 86.71C59.04 86.71 57.74 86.28 57.07 85.77V85.78Z" fill="#002341"/>
<path d="M76.09 69.43C79.57 69.43 81.73 71.57 81.73 74.93C81.73 78.29 79.57 80.4 75.73 80.4H72.78V86.23H69.66V69.42H76.09V69.43ZM75.25 77.95C77.41 77.95 78.54 76.87 78.54 74.92C78.54 72.97 77.41 72.09 75.56 72.09H72.77V77.95H75.25Z" fill="#002341"/>
<path d="M89.98 76.72H100.04V78.21C100.04 83.71 97.04 86.71 92.19 86.71C86.96 86.71 83.45 82.89 83.45 77.87C83.45 72.85 86.69 68.94 92.6 68.94C95.27 68.94 97.24 69.76 98.56 70.77V73.87C97.41 72.91 95.49 71.88 92.84 71.88C88.66 71.88 86.72 74.52 86.72 77.91C86.72 81.3 88.91 83.84 92.27 83.84C95.22 83.84 96.88 82.16 97.07 79.3H89.44L89.99 76.73L89.98 76.72Z" fill="#002341"/>
</svg>
