<svg width="156" height="156" viewBox="0 0 156 156" fill="none" xmlns="http://www.w3.org/2000/svg">
<path d="M39 39C39 37.8954 39.8954 37 41 37H87C88.1046 37 89 37.8954 89 39V47.9999C89 51.3136 91.6863 53.9999 95 53.9999H105C106.105 53.9999 107 54.8953 107 55.9999V59C107 60.1046 106.105 61 105 61H47.5C46.3954 61 45.5 61.8954 45.5 63V102.5C45.5 103.605 46.3954 104.5 47.5 104.5H105C106.105 104.5 107 105.395 107 106.5V117C107 118.105 106.105 119 105 119H41C39.8954 119 39 118.105 39 117V39Z" fill="#C2DDFF"/>
<path d="M95 48V32L112 48H95Z" fill="#C2DDFF"/>
<path fill-rule="evenodd" clip-rule="evenodd" d="M31 33C31 30.7909 32.7909 29 35 29H95C95.5107 29 96.002 29.1953 96.3732 29.546L114.373 46.546C114.773 46.9238 115 47.4497 115 48V53C115 54.1046 114.105 55 113 55C111.895 55 111 54.1046 111 53V50H97C94.7909 50 93 48.2091 93 46V33L35 33V123H111V113C111 111.895 111.895 111 113 111C114.105 111 115 111.895 115 113V123C115 125.209 113.209 127 111 127H35C32.7909 127 31 125.209 31 123V33ZM97 35.6399L107.97 46H97V35.6399Z" fill="#1C3553"/>
<path fill-rule="evenodd" clip-rule="evenodd" d="M43 65C43 61.6863 45.6863 59 49 59H126C129.314 59 132 61.6863 132 65V101C132 104.314 129.314 107 126 107H49C45.6863 107 43 104.314 43 101V65ZM49 63C47.8954 63 47 63.8954 47 65V101C47 102.105 47.8954 103 49 103H126C127.105 103 128 102.105 128 101V65C128 63.8954 127.105 63 126 63H49Z" fill="#1C3553"/>
<path fill-rule="evenodd" clip-rule="evenodd" d="M55 73C55 71.8954 55.8954 71 57 71H71C72.1046 71 73 71.8954 73 73C73 74.1046 72.1046 75 71 75H66V93C66 94.1046 65.1046 95 64 95C62.8954 95 62 94.1046 62 93V75H57C55.8954 75 55 74.1046 55 73Z" fill="#1C3553"/>
<path fill-rule="evenodd" clip-rule="evenodd" d="M78 71C79.1046 71 80 71.8954 80 73V93C80 94.1046 79.1046 95 78 95C76.8954 95 76 94.1046 76 93V73C76 71.8954 76.8954 71 78 71Z" fill="#1C3553"/>
<path fill-rule="evenodd" clip-rule="evenodd" d="M85 73C85 71.8954 85.8954 71 87 71H99C100.105 71 101 71.8954 101 73C101 74.1046 100.105 75 99 75H89V81H95.5714C96.676 81 97.5714 81.8954 97.5714 83C97.5714 84.1046 96.676 85 95.5714 85H89V93C89 94.1046 88.1046 95 87 95C85.8954 95 85 94.1046 85 93V73Z" fill="#1C3553"/>
<path fill-rule="evenodd" clip-rule="evenodd" d="M104 73C104 71.8954 104.895 71 106 71H118C119.105 71 120 71.8954 120 73C120 74.1046 119.105 75 118 75H108V81H114.571C115.676 81 116.571 81.8954 116.571 83C116.571 84.1046 115.676 85 114.571 85H108V93C108 94.1046 107.105 95 106 95C104.895 95 104 94.1046 104 93V73Z" fill="#1C3553"/>
</svg>
