<svg width="156" height="156" viewBox="0 0 156 156" fill="none" xmlns="http://www.w3.org/2000/svg">
<path d="M130.1 33.01H121.09V27H67.04V67.91L61.54 70.97C58.94 72.54 55.63 76.04 54.16 78.33C53.34 79.61 52.39 81.18 51.37 82.85C48.7 87.24 44.66 93.87 43.06 94.89C40.84 96.3 38.29 96.86 37.01 97.07V93.05H25V96.05H34.01V126.08H25V129.08H37.01V123.07H51.7C55.73 123.07 59.56 121.72 62.68 119.24C63.97 120.39 66.49 122.28 69.14 122.28C69.59 122.28 70.04 122.23 70.49 122.1C72.43 121.58 73.87 119.98 74.8 117.33C76.09 117.72 77.91 117.93 79.67 116.96C82.49 115.4 83.96 111.38 84.09 105.06H130.09V33.01H130.1ZM70.04 30.01H118.08V33.01H76.04V89.26L70.03 94.24V30L70.04 30.01ZM37.01 100.12C38.35 99.94 41.69 99.33 44.67 97.43C46.71 96.13 49.79 91.22 53.94 84.42C54.94 82.77 55.89 81.22 56.7 79.96C58.09 77.79 61.14 74.73 63.05 73.58L67.04 71.36V96.74L64.8 98.6C64.17 99.13 64.08 100.08 64.61 100.71C65.14 101.34 66.09 101.43 66.73 100.9L84.13 86.46C88.68 82.66 90.89 83.9 91.24 84.15C91.81 84.87 91.86 86.06 87.32 90.69L78.88 99.58L61.87 115.99C59.13 118.64 55.51 120.1 51.7 120.1H37.01V100.12ZM78.24 114.35C76.65 115.25 74.64 114.05 74.63 114.04C74.22 113.78 73.71 113.74 73.26 113.93C72.81 114.11 72.48 114.5 72.37 114.98C71.97 116.71 71.18 118.84 69.72 119.24C68.23 119.64 66.18 118.3 64.92 117.23L77.51 105.09H81.11C80.97 111.79 79.27 113.78 78.24 114.36V114.35ZM127.1 102.08H80.62L81.02 101.7L89.49 92.78C93.2 89 96.3 85.33 93.35 82C93.19 81.84 89.31 78.24 82.21 84.16L79.06 86.77V36.01H127.1V102.08Z" fill="#002341"/>
<path d="M118.09 51.02H97.07V54.02H118.09V51.02Z" fill="#002341"/>
<path d="M118.09 59.84H85.06V62.84H118.09V59.84Z" fill="#002341"/>
<path d="M118.09 93.06H97.07V96.06H118.09V93.06Z" fill="#002341"/>
<path d="M118.09 69.04H85.06V72.04H118.09V69.04Z" fill="#002341"/>
<path d="M118.09 81.05H97.07V84.05H118.09V81.05Z" fill="#002341"/>
<path d="M94.06 45.02H85.05V54.03H94.06V45.02ZM91.06 51.03H88.06V48.03H91.06V51.03Z" fill="#002341"/>
</svg>
