<svg width="156" height="156" viewBox="0 0 156 156" fill="none" xmlns="http://www.w3.org/2000/svg">
<path d="M39 26V130.04H116.59V26H39ZM113.58 127.04H42V29H113.58V127.04Z" fill="#002341"/>
<path d="M56.17 96.1H99.41C101.89 96.1 103.91 94.08 103.91 91.6V64.46C103.91 61.98 101.89 59.96 99.41 59.96H56.17C53.69 59.96 51.67 61.98 51.67 64.46V91.6C51.67 94.08 53.69 96.1 56.17 96.1ZM99.41 93.1H56.17C55.53 93.1 54.99 92.69 54.77 92.12L67.8 78.38L77.9 87.92L90.21 73.65L100.91 86.3V91.59C100.91 92.42 100.24 93.09 99.41 93.09V93.1ZM56.17 62.95H99.41C100.24 62.95 100.91 63.62 100.91 64.45V81.66L90.23 69.04L77.68 83.59L67.69 74.14L54.67 87.87V64.45C54.67 63.62 55.34 62.95 56.17 62.95Z" fill="#002341"/>
<path d="M77.79 74.69C80.69 74.69 83.05 72.33 83.05 69.43C83.05 66.53 80.69 64.17 77.79 64.17C74.89 64.17 72.53 66.53 72.53 69.43C72.53 72.33 74.89 74.69 77.79 74.69ZM77.79 67.17C79.03 67.17 80.05 68.18 80.05 69.43C80.05 70.68 79.04 71.69 77.79 71.69C76.54 71.69 75.53 70.68 75.53 69.43C75.53 68.18 76.54 67.17 77.79 67.17Z" fill="#002341"/>
</svg>
