<svg width="156" height="156" viewBox="0 0 156 156" fill="none" xmlns="http://www.w3.org/2000/svg">
<path d="M102 47V31L119 47H102Z" fill="#C2DDFF"/>
<path d="M43 37.0005C43 35.8959 43.8954 35.0005 45 35.0005H93C94.1046 35.0005 95 35.8959 95 37.0005V47.0001C95 50.3138 97.6863 53.0001 101 53.0001H111C112.105 53.0001 113 53.8955 113 55.0001V119C113 120.105 112.105 121 111 121H45C43.8954 121 43 120.105 43 119V37.0005Z" fill="#C2DDFF"/>
<path fill-rule="evenodd" clip-rule="evenodd" d="M35 31C35 28.7909 36.7909 27 39 27H101C101.53 27 102.039 27.2107 102.414 27.5858L120.414 45.5858C120.789 45.9609 121 46.4696 121 47V125C121 127.209 119.209 129 117 129H39C36.7909 129 35 127.209 35 125V31ZM99 31L39 31V125H117V49H103C100.791 49 99 47.2091 99 45V31ZM103 33.8284L114.172 45H103V33.8284Z" fill="#1C3553"/>
</svg>
