<svg width="156" height="156" viewBox="0 0 156 156" fill="none" xmlns="http://www.w3.org/2000/svg">
<path d="M116.59 130.04H39V26H116.59V130.04ZM113.59 127.04V29H42V127.04H113.59Z" fill="#002341"/>
<path d="M60.21 69.41C63.7 69.41 65.86 71.55 65.86 74.91C65.86 78.27 63.7 80.39 59.85 80.39H56.89V86.23H53.77V69.41H60.21ZM59.37 77.94C61.53 77.94 62.66 76.86 62.66 74.91C62.66 72.96 61.53 72.07 59.68 72.07H56.89V77.93H59.36L59.37 77.94Z" fill="#002341"/>
<path d="M80.13 69.41H83.04V86.23H79.1L71.55 72.75V86.23H68.62V69.41H72.92L80.13 82.44V69.41Z" fill="#002341"/>
<path d="M92.76 76.72H102.83V78.21C102.83 83.71 99.83 86.72 94.97 86.72C89.73 86.72 86.22 82.9 86.22 77.88C86.22 72.86 89.46 68.94 95.38 68.94C98.05 68.94 100.02 69.76 101.34 70.77V73.87C100.19 72.91 98.26 71.88 95.62 71.88C91.44 71.88 89.49 74.52 89.49 77.91C89.49 81.3 91.68 83.85 95.04 83.85C98 83.85 99.65 82.17 99.85 79.31H92.21L92.76 76.74V76.72Z" fill="#002341"/>
</svg>
