<svg width="156" height="156" viewBox="0 0 156 156" fill="none" xmlns="http://www.w3.org/2000/svg">
<path d="M39 26V130.04H116.59V26H39ZM113.58 127.04H42V29H113.58V127.04Z" fill="#002341"/>
<path d="M101.9 114.45H53.68V117.45H101.9V114.45Z" fill="#002341"/>
<path d="M101.9 101.3H53.68V104.3H101.9V101.3Z" fill="#002341"/>
<path d="M88.17 62.71C91.34 62.71 93.92 60.13 93.92 56.96C93.92 53.79 91.34 51.21 88.17 51.21C85 51.21 82.42 53.79 82.42 56.96C82.42 60.13 85 62.71 88.17 62.71ZM88.17 54.2C89.69 54.2 90.92 55.43 90.92 56.95C90.92 58.47 89.69 59.7 88.17 59.7C86.65 59.7 85.42 58.47 85.42 56.95C85.42 55.43 86.65 54.2 88.17 54.2Z" fill="#002341"/>
<path d="M74.81 79.82L80.69 72.77C82.55 73.58 84.6 74.04 86.75 74.04C95.11 74.04 101.91 67.24 101.91 58.88C101.91 50.52 95.11 43.72 86.75 43.72C78.39 43.72 71.59 50.52 71.59 58.88C71.59 60.37 71.81 61.8 72.21 63.16L54.89 80.16L54.87 90.08H66.23L68.07 79.82H74.81ZM86.75 46.73C93.45 46.73 98.9 52.18 98.9 58.88C98.9 65.58 93.45 71.03 86.75 71.03C80.05 71.03 74.6 65.58 74.6 58.88C74.6 52.18 80.05 46.73 86.75 46.73ZM63.73 87.08H57.89V81.43L73.46 66.16C74.58 68.19 76.15 69.94 78.04 71.27L73.41 76.83H65.58L63.74 87.09L63.73 87.08Z" fill="#002341"/>
</svg>
