<svg width="156" height="156" viewBox="0 0 156 156" fill="none" xmlns="http://www.w3.org/2000/svg">
<path d="M116.59 130.04H39V26H116.59V130.04ZM113.59 127.04V29H42V127.04H113.59Z" fill="#002341"/>
<path d="M62.5 69.43C65.98 69.43 68.14 71.57 68.14 74.93C68.14 78.29 65.98 80.4 62.14 80.4H59.19V86.23H56.07V69.42H62.51L62.5 69.43ZM61.66 77.95C63.82 77.95 64.95 76.87 64.95 74.92C64.95 72.97 63.82 72.09 61.97 72.09H59.19V77.95H61.66Z" fill="#002341"/>
<path d="M70.91 86.23V69.42H77.08C82.43 69.42 85.27 72.83 85.27 77.75C85.27 82.67 82.29 86.22 76.68 86.22H70.92L70.91 86.23ZM74.03 83.42H76.65C80.25 83.42 82.03 81.19 82.03 77.8C82.03 74.41 80.42 72.23 76.84 72.23H74.03V83.42Z" fill="#002341"/>
<path d="M99.32 72.14H91.61V76.25H98.81V78.82H91.61V86.24H88.49V69.43H99.32V72.14Z" fill="#002341"/>
</svg>
