<svg width="156" height="156" viewBox="0 0 156 156" fill="none" xmlns="http://www.w3.org/2000/svg">
<path d="M95 48V32L112 48H95Z" fill="#C2DDFF"/>
<path d="M39 39C39 37.8954 39.8954 37 41 37H87C88.1046 37 89 37.8954 89 39V47.9999C89 51.3136 91.6863 53.9999 95 53.9999H105C106.105 53.9999 107 54.8953 107 55.9999V59C107 60.1046 106.105 61 105 61H47.5C46.3954 61 45.5 61.8954 45.5 63V102.5C45.5 103.605 46.3954 104.5 47.5 104.5H105C106.105 104.5 107 105.395 107 106.5V117C107 118.105 106.105 119 105 119H41C39.8954 119 39 118.105 39 117V39Z" fill="#C2DDFF"/>
<path fill-rule="evenodd" clip-rule="evenodd" d="M31 33C31 30.7909 32.7909 29 35 29H95C95.5107 29 96.002 29.1953 96.3732 29.546L114.373 46.546C114.773 46.9238 115 47.4497 115 48V53C115 54.1046 114.105 55 113 55C111.895 55 111 54.1046 111 53V50H97C94.7909 50 93 48.2091 93 46V33L35 33V123H111V113C111 111.895 111.895 111 113 111C114.105 111 115 111.895 115 113V123C115 125.209 113.209 127 111 127H35C32.7909 127 31 125.209 31 123V33ZM97 35.6399L107.97 46H97V35.6399Z" fill="#1C3553"/>
<path fill-rule="evenodd" clip-rule="evenodd" d="M43 65C43 61.6863 45.6863 59 49 59H119C122.314 59 125 61.6863 125 65V101C125 104.314 122.314 107 119 107H49C45.6863 107 43 104.314 43 101V65ZM49 63C47.8954 63 47 63.8954 47 65V101C47 102.105 47.8954 103 49 103H119C120.105 103 121 102.105 121 101V65C121 63.8954 120.105 63 119 63H49Z" fill="#1C3553"/>
<path fill-rule="evenodd" clip-rule="evenodd" d="M59 75.0132V82.6603C59.9596 82.6505 60.8662 82.6265 61.717 82.5675C63.1476 82.4684 64.2817 82.2773 65.1337 81.9596C65.9579 81.6522 66.3972 81.2737 66.6445 80.8485C66.9002 80.409 67.112 79.6415 66.9348 78.2533C66.8331 77.4571 66.5359 76.9562 66.1394 76.5845C65.7061 76.1783 65.046 75.8293 64.1008 75.5661C62.6545 75.1634 60.8882 75.0466 59 75.0132ZM59 86.6606C60.0224 86.6505 61.0331 86.6245 61.9936 86.558C63.5692 86.4487 65.1487 86.2231 66.5314 85.7074C67.942 85.1814 69.2586 84.3098 70.102 82.8599C70.9371 81.4244 71.151 79.6918 70.9026 77.7467C70.6874 76.062 69.9749 74.6975 68.8753 73.6665C67.8126 72.6701 66.4904 72.0793 65.1737 71.7127C62.6139 70.9999 59.5227 71 57.0473 71L57 71C55.8954 71 55 71.8954 55 73V93C55 94.1046 55.8954 95 57 95C58.1046 95 59 94.1046 59 93V86.6606Z" fill="#1C3553"/>
<path fill-rule="evenodd" clip-rule="evenodd" d="M75 73C75 71.8954 75.8954 71 77 71C79.2794 71 82.6859 71.0724 85.6486 72.3378C87.168 72.9867 88.6264 73.9703 89.758 75.4563C90.8947 76.9491 91.6156 78.8362 91.8278 81.1509C92.282 86.1055 91.9886 90.0409 89.1878 92.4366C87.8305 93.5977 86.0861 94.2105 84.12 94.5536C82.1527 94.8969 79.7765 95 77 95C75.8954 95 75 94.1046 75 93V73ZM79 75.0407V90.9774C80.781 90.9334 82.2379 90.8216 83.4324 90.6132C85.0478 90.3313 85.9968 89.9025 86.5877 89.397C87.6837 88.4595 88.3071 86.5617 87.8445 81.5161C87.6912 79.8445 87.1978 78.6968 86.5756 77.8796C85.9482 77.0557 85.1027 76.4542 84.0775 76.0163C82.5471 75.3627 80.7477 75.1235 79 75.0407Z" fill="#1C3553"/>
<path fill-rule="evenodd" clip-rule="evenodd" d="M97 73C97 71.8954 97.8954 71 99 71H111C112.105 71 113 71.8954 113 73C113 74.1046 112.105 75 111 75H101V81H107.571C108.676 81 109.571 81.8954 109.571 83C109.571 84.1046 108.676 85 107.571 85H101V93C101 94.1046 100.105 95 99 95C97.8954 95 97 94.1046 97 93V73Z" fill="#1C3553"/>
</svg>
