<svg width="156" height="156" viewBox="0 0 156 156" fill="none" xmlns="http://www.w3.org/2000/svg">
<path d="M116.59 130.04H39V26H116.59V130.04ZM113.59 127.04V29H42V127.04H113.59Z" fill="#002341"/>
<path d="M64.12 83.47H73.06V86.23H60.54V83.44L68.95 72.12H60.71V69.4H72.77V72L64.12 83.46V83.47Z" fill="#002341"/>
<path d="M76.11 86.23V69.41H79.23V86.23H76.11Z" fill="#002341"/>
<path d="M89.9 69.41C93.39 69.41 95.55 71.55 95.55 74.91C95.55 78.27 93.39 80.39 89.54 80.39H86.58V86.23H83.46V69.41H89.9ZM89.06 77.94C91.22 77.94 92.35 76.86 92.35 74.91C92.35 72.96 91.22 72.07 89.37 72.07H86.58V77.93H89.05L89.06 77.94Z" fill="#002341"/>
</svg>
