<svg width="156" height="156" viewBox="0 0 156 156" fill="none" xmlns="http://www.w3.org/2000/svg">
<path d="M39 39C39 37.8954 39.8954 37 41 37H87C88.1046 37 89 37.8954 89 39V47.9999C89 51.3136 91.6863 53.9999 95 53.9999H105C106.105 53.9999 107 54.8953 107 55.9999V59C107 60.1046 106.105 61 105 61H47.5C46.3954 61 45.5 61.8954 45.5 63V102.5C45.5 103.605 46.3954 104.5 47.5 104.5H105C106.105 104.5 107 105.395 107 106.5V117C107 118.105 106.105 119 105 119H41C39.8954 119 39 118.105 39 117V39Z" fill="#C2DDFF"/>
<path d="M95 48V32L112 48H95Z" fill="#C2DDFF"/>
<path fill-rule="evenodd" clip-rule="evenodd" d="M31 33C31 30.7909 32.7909 29 35 29H95C95.5107 29 96.002 29.1953 96.3732 29.546L114.373 46.546C114.773 46.9238 115 47.4497 115 48V53C115 54.1046 114.105 55 113 55C111.895 55 111 54.1046 111 53V50H97C94.7909 50 93 48.2091 93 46V33L35 33V123H111V113C111 111.895 111.895 111 113 111C114.105 111 115 111.895 115 113V123C115 125.209 113.209 127 111 127H35C32.7909 127 31 125.209 31 123V33ZM97 35.6399L107.97 46H97V35.6399Z" fill="#1C3553"/>
<path fill-rule="evenodd" clip-rule="evenodd" d="M43 65C43 61.6863 45.6863 59 49 59H117C120.314 59 123 61.6863 123 65V101C123 104.314 120.314 107 117 107H49C45.6863 107 43 104.314 43 101V65ZM49 63C47.8954 63 47 63.8954 47 65V101C47 102.105 47.8954 103 49 103H117C118.105 103 119 102.105 119 101V65C119 63.8954 118.105 63 117 63H49Z" fill="#1C3553"/>
<path fill-rule="evenodd" clip-rule="evenodd" d="M60 73C60 71.8954 60.8954 71 62 71H73C73.6932 71 74.3369 71.3589 74.7013 71.9485C75.0657 72.5382 75.0988 73.2745 74.7888 73.8944L66.236 90.9997L74.0001 91C75.1046 91 76 91.8955 76 93.0001C76 94.1046 75.1045 95 73.9999 95L62.9999 94.9996C62.3068 94.9996 61.6631 94.6407 61.2987 94.051C60.9343 93.4614 60.9012 92.7251 61.2112 92.1052L69.7639 75H62C60.8954 75 60 74.1046 60 73Z" fill="#1C3553"/>
<path fill-rule="evenodd" clip-rule="evenodd" d="M81 71C82.1046 71 83 71.8954 83 73V93C83 94.1046 82.1046 95 81 95C79.8954 95 79 94.1046 79 93V73C79 71.8954 79.8954 71 81 71Z" fill="#1C3553"/>
<path fill-rule="evenodd" clip-rule="evenodd" d="M93 75.0132V82.6603C93.9596 82.6505 94.8662 82.6265 95.717 82.5675C97.1476 82.4684 98.2817 82.2773 99.1337 81.9596C99.9579 81.6522 100.397 81.2737 100.645 80.8485C100.9 80.409 101.112 79.6415 100.935 78.2533C100.833 77.4571 100.536 76.9562 100.139 76.5845C99.7061 76.1783 99.046 75.8293 98.1008 75.5661C96.6545 75.1634 94.8882 75.0466 93 75.0132ZM93 86.6606C94.0224 86.6505 95.0331 86.6245 95.9936 86.558C97.5692 86.4487 99.1487 86.2231 100.531 85.7074C101.942 85.1814 103.259 84.3098 104.102 82.8599C104.937 81.4244 105.151 79.6918 104.903 77.7467C104.687 76.062 103.975 74.6975 102.875 73.6665C101.813 72.6701 100.49 72.0793 99.1737 71.7127C96.6139 70.9999 93.5227 71 91.0473 71L91 71C89.8954 71 89 71.8954 89 73V93C89 94.1046 89.8954 95 91 95C92.1046 95 93 94.1046 93 93V86.6606Z" fill="#1C3553"/>
</svg>
