<svg width="156" height="156" viewBox="0 0 156 156" fill="none" xmlns="http://www.w3.org/2000/svg">
<path d="M116.59 130.04H39V26H116.59V130.04ZM113.59 127.04V29H42V127.04H113.59Z" fill="#002341"/>
<path d="M68.13 86.23L64.4 79.57L60.65 86.23H57.05L62.36 77.36L57.31 69.41H60.89L64.4 75.35L68.03 69.41H71.64L66.5 77.36L71.84 86.23H68.13Z" fill="#002341"/>
<path d="M77.31 83.35H84.74V86.23H74.19V69.41H77.31V83.35Z" fill="#002341"/>
<path d="M86.34 84.86V81.81C87.81 83.04 89.68 83.9 91.72 83.9C93.64 83.9 94.58 83.11 94.58 81.71C94.58 80.6 94.03 80.08 92.06 79.24L90.31 78.57C87.64 77.56 86.39 76.07 86.39 73.84C86.39 70.88 88.55 68.94 92.21 68.94C94.44 68.94 96.15 69.68 97.23 70.5V73.55C95.86 72.42 94.32 71.72 92.45 71.72C90.58 71.72 89.64 72.42 89.64 73.67C89.64 74.82 90.46 75.4 92.02 76.05L93.73 76.72C96.73 77.87 97.98 79.32 97.98 81.6C97.98 84.7 95.7 86.72 92.02 86.72C90.05 86.72 88.05 86.14 86.35 84.87L86.34 84.86Z" fill="#002341"/>
</svg>
