<svg width="156" height="156" viewBox="0 0 156 156" fill="none" xmlns="http://www.w3.org/2000/svg">
<path d="M39 39C39 37.8954 39.8954 37 41 37H87C88.1046 37 89 37.8954 89 39V47.9999C89 51.3136 91.6863 53.9999 95 53.9999H105C106.105 53.9999 107 54.8953 107 55.9999V59C107 60.1046 106.105 61 105 61H47.5C46.3954 61 45.5 61.8954 45.5 63V102.5C45.5 103.605 46.3954 104.5 47.5 104.5H105C106.105 104.5 107 105.395 107 106.5V117C107 118.105 106.105 119 105 119H41C39.8954 119 39 118.105 39 117V39Z" fill="#C2DDFF"/>
<path d="M95 48V32L112 48H95Z" fill="#C2DDFF"/>
<path fill-rule="evenodd" clip-rule="evenodd" d="M31 33C31 30.7909 32.7909 29 35 29H95C95.5107 29 96.002 29.1953 96.3732 29.546L114.373 46.546C114.773 46.9238 115 47.4497 115 48V53C115 54.1046 114.105 55 113 55C111.895 55 111 54.1046 111 53V50H97C94.7909 50 93 48.2091 93 46V33L35 33V123H111V113C111 111.895 111.895 111 113 111C114.105 111 115 111.895 115 113V123C115 125.209 113.209 127 111 127H35C32.7909 127 31 125.209 31 123V33ZM97 35.6399L107.97 46H97V35.6399Z" fill="#1C3553"/>
<path fill-rule="evenodd" clip-rule="evenodd" d="M43 65C43 61.6863 45.6863 59 49 59H117C120.314 59 123 61.6863 123 65V101C123 104.314 120.314 107 117 107H49C45.6863 107 43 104.314 43 101V65ZM49 63C47.8954 63 47 63.8954 47 65V101C47 102.105 47.8954 103 49 103H117C118.105 103 119 102.105 119 101V65C119 63.8954 118.105 63 117 63H49Z" fill="#1C3553"/>
<path fill-rule="evenodd" clip-rule="evenodd" d="M74.9103 71.3231C75.8364 70.7211 77.0751 70.9839 77.6771 71.91L82.5002 79.3302L87.3233 71.91C87.9253 70.9839 89.1641 70.7211 90.0902 71.3231C91.0163 71.9251 91.2791 73.1638 90.6771 74.09L84.8856 83L90.6771 91.91C91.2791 92.8361 91.0163 94.0749 90.0902 94.6769C89.1641 95.2789 87.9253 95.0161 87.3233 94.09L82.5002 86.6698L77.6771 94.09C77.0751 95.0161 75.8364 95.2789 74.9103 94.6769C73.9841 94.0749 73.7214 92.8361 74.3233 91.91L80.1149 83L74.3233 74.09C73.7214 73.1638 73.9841 71.9251 74.9103 71.3231Z" fill="#1C3553"/>
<path fill-rule="evenodd" clip-rule="evenodd" d="M53 73C53 71.8954 53.8954 71 55 71H69C70.1046 71 71 71.8954 71 73C71 74.1046 70.1046 75 69 75H64V93C64 94.1046 63.1046 95 62 95C60.8954 95 60 94.1046 60 93V75H55C53.8954 75 53 74.1046 53 73Z" fill="#1C3553"/>
<path fill-rule="evenodd" clip-rule="evenodd" d="M95 73C95 71.8954 95.8954 71 97 71H111C112.105 71 113 71.8954 113 73C113 74.1046 112.105 75 111 75H106V93C106 94.1046 105.105 95 104 95C102.895 95 102 94.1046 102 93V75H97C95.8954 75 95 74.1046 95 73Z" fill="#1C3553"/>
</svg>
