<svg width="156" height="156" viewBox="0 0 156 156" fill="none" xmlns="http://www.w3.org/2000/svg">
<path d="M116.59 130.04H39V26H116.59V130.04ZM113.59 127.04V29H42V127.04H113.59Z" fill="#002341"/>
<path d="M60.12 83.52H67.93V86.24H57V69.42H67.84V72.14H60.12V76.18H67.33V78.73H60.12V83.54V83.52Z" fill="#002341"/>
<path d="M80.52 86.23L76.79 79.57L73.04 86.23H69.44L74.75 77.36L69.7 69.41H73.28L76.79 75.35L80.42 69.41H84.03L78.89 77.36L84.23 86.23H80.52Z" fill="#002341"/>
<path d="M89.69 83.52H97.5V86.24H86.57V69.42H97.41V72.14H89.69V76.18H96.9V78.73H89.69V83.54V83.52Z" fill="#002341"/>
</svg>
