<svg width="156" height="156" viewBox="0 0 156 156" fill="none" xmlns="http://www.w3.org/2000/svg">
<path d="M39 39C39 37.8954 39.8954 37 41 37H87C88.1046 37 89 37.8954 89 39V47.9999C89 51.3136 91.6863 53.9999 95 53.9999H105C106.105 53.9999 107 54.8953 107 55.9999V59C107 60.1046 106.105 61 105 61H47.5C46.3954 61 45.5 61.8954 45.5 63V102.5C45.5 103.605 46.3954 104.5 47.5 104.5H105C106.105 104.5 107 105.395 107 106.5V117C107 118.105 106.105 119 105 119H41C39.8954 119 39 118.105 39 117V39Z" fill="#C2DDFF"/>
<path d="M95 48V32L112 48H95Z" fill="#C2DDFF"/>
<path fill-rule="evenodd" clip-rule="evenodd" d="M31 33C31 30.7909 32.7909 29 35 29H95C95.5107 29 96.002 29.1953 96.3732 29.546L114.373 46.546C114.773 46.9238 115 47.4497 115 48V53C115 54.1046 114.105 55 113 55C111.895 55 111 54.1046 111 53V50H97C94.7909 50 93 48.2091 93 46V33L35 33V123H111V113C111 111.895 111.895 111 113 111C114.105 111 115 111.895 115 113V123C115 125.209 113.209 127 111 127H35C32.7909 127 31 125.209 31 123V33ZM97 35.6399L107.97 46H97V35.6399Z" fill="#1C3553"/>
<path fill-rule="evenodd" clip-rule="evenodd" d="M43 65C43 61.6863 45.6863 59 49 59H133C136.314 59 139 61.6863 139 65V101C139 104.314 136.314 107 133 107H49C45.6863 107 43 104.314 43 101V65ZM49 63C47.8954 63 47 63.8954 47 65V101C47 102.105 47.8954 103 49 103H133C134.105 103 135 102.105 135 101V65C135 63.8954 134.105 63 133 63H49Z" fill="#1C3553"/>
<path fill-rule="evenodd" clip-rule="evenodd" d="M55.91 71.3231C56.8361 70.7211 58.0749 70.9839 58.6769 71.91L63.5 79.3302L68.3231 71.91C68.9251 70.9839 70.1638 70.7211 71.09 71.3231C72.0161 71.9251 72.2789 73.1638 71.6769 74.09L65.8854 83L71.6769 91.91C72.2789 92.8361 72.0161 94.0749 71.09 94.6769C70.1638 95.2789 68.9251 95.0161 68.3231 94.09L63.5 86.6698L58.6769 94.09C58.0749 95.0161 56.8361 95.2789 55.91 94.6769C54.9839 94.0749 54.7211 92.8361 55.3231 91.91L61.1146 83L55.3231 74.09C54.7211 73.1638 54.9839 71.9251 55.91 71.3231Z" fill="#1C3553"/>
<path fill-rule="evenodd" clip-rule="evenodd" d="M110.91 71.3231C111.836 70.7211 113.075 70.9839 113.677 71.91L118.5 79.3302L123.323 71.91C123.925 70.9839 125.164 70.7211 126.09 71.3231C127.016 71.9251 127.279 73.1638 126.677 74.09L120.885 83L126.677 91.91C127.279 92.8361 127.016 94.0749 126.09 94.6769C125.164 95.2789 123.925 95.0161 123.323 94.09L118.5 86.6698L113.677 94.09C113.075 95.0161 111.836 95.2789 110.91 94.6769C109.984 94.0749 109.721 92.8361 110.323 91.91L116.115 83L110.323 74.09C109.721 73.1638 109.984 71.9251 110.91 71.3231Z" fill="#1C3553"/>
<path fill-rule="evenodd" clip-rule="evenodd" d="M78 71C79.1046 71 80 71.8954 80 73V91H88C89.1046 91 90 91.8954 90 93C90 94.1046 89.1046 95 88 95H78C76.8954 95 76 94.1046 76 93V73C76 71.8954 76.8954 71 78 71Z" fill="#1C3553"/>
<path fill-rule="evenodd" clip-rule="evenodd" d="M93.9824 72.9616C95.3837 71.6612 97.3121 71 99.4988 71C102.324 71 105.641 71.7807 106.986 75.1049C107.401 76.1288 106.906 77.2948 105.882 77.7091C104.859 78.1235 103.693 77.6293 103.278 76.6054C102.89 75.6469 101.872 75 99.4988 75C98.1126 75 97.2249 75.4095 96.7033 75.8936C96.1903 76.3697 95.8666 77.0674 95.8666 77.9966C95.8666 78.3264 95.944 78.4596 95.9999 78.5358C96.0811 78.6464 96.2601 78.8159 96.6709 79.0253C97.0871 79.2376 97.6204 79.4317 98.3181 79.656C98.5104 79.7178 98.7204 79.7835 98.9415 79.8526C99.4621 80.0154 100.044 80.1973 100.599 80.3933C102.873 81.1954 104.74 82.0177 106.017 83.189C107.46 84.5115 108 86.1192 108 87.9897C108 89.3409 107.273 90.9708 106.041 92.2672C104.736 93.6404 102.766 94.7597 100.098 94.9795C98.3514 95.1234 96.4199 94.4947 94.8696 93.5775C93.3244 92.6633 91.7574 91.224 91.1105 89.3589C90.7485 88.3154 91.3011 87.1759 92.3446 86.814C93.3882 86.452 94.5276 87.0045 94.8896 88.0481C95.1093 88.6813 95.804 89.4827 96.9064 90.1349C98.0038 90.7842 99.106 91.0477 99.7697 90.993C101.434 90.8559 102.496 90.1908 103.142 89.5118C103.474 89.1618 103.701 88.8019 103.84 88.496C103.98 88.1881 103.998 88.0081 104 87.991C104 87.9898 104 87.9894 104 87.9897C104 87.0051 103.772 86.557 103.315 86.1378C102.692 85.5674 101.526 84.9621 99.2685 84.1654C98.7821 83.9938 98.32 83.8494 97.8343 83.6977C97.595 83.6229 97.3501 83.5464 97.0936 83.464C96.3692 83.231 95.5753 82.9567 94.854 82.5889C94.1272 82.2184 93.3583 81.6965 92.776 80.9036C92.1684 80.0764 91.8666 79.0944 91.8666 77.9966C91.8666 76.0706 92.5725 74.27 93.9824 72.9616Z" fill="#1C3553"/>
</svg>
