<svg width="156" height="156" viewBox="0 0 156 156" fill="none" xmlns="http://www.w3.org/2000/svg">
<path d="M39 39C39 37.8954 39.8954 37 41 37H87C88.1046 37 89 37.8954 89 39V47.9999C89 51.3136 91.6863 53.9999 95 53.9999H105C106.105 53.9999 107 54.8953 107 55.9999V59C107 60.1046 106.105 61 105 61H47.5C46.3954 61 45.5 61.8954 45.5 63V102.5C45.5 103.605 46.3954 104.5 47.5 104.5H105C106.105 104.5 107 105.395 107 106.5V117C107 118.105 106.105 119 105 119H41C39.8954 119 39 118.105 39 117V39Z" fill="#C2DDFF"/>
<path d="M95 48V32L112 48H95Z" fill="#C2DDFF"/>
<path fill-rule="evenodd" clip-rule="evenodd" d="M31 33C31 30.7909 32.7909 29 35 29H95C95.5107 29 96.002 29.1953 96.3732 29.546L114.373 46.546C114.773 46.9238 115 47.4497 115 48V53C115 54.1046 114.105 55 113 55C111.895 55 111 54.1046 111 53V50H97C94.7909 50 93 48.2091 93 46V33L35 33V123H111V113C111 111.895 111.895 111 113 111C114.105 111 115 111.895 115 113V123C115 125.209 113.209 127 111 127H35C32.7909 127 31 125.209 31 123V33ZM97 35.6399L107.97 46H97V35.6399Z" fill="#1C3553"/>
<path fill-rule="evenodd" clip-rule="evenodd" d="M43 65C43 61.6863 45.6863 59 49 59H119C122.314 59 125 61.6863 125 65V101C125 104.314 122.314 107 119 107H49C45.6863 107 43 104.314 43 101V65ZM49 63C47.8954 63 47 63.8954 47 65V101C47 102.105 47.8954 103 49 103H119C120.105 103 121 102.105 121 101V65C121 63.8954 120.105 63 119 63H49Z" fill="#1C3553"/>
<path fill-rule="evenodd" clip-rule="evenodd" d="M100.12 72.2582C103.749 70.4804 108.237 70.8806 112.071 73.3111C113.004 73.9025 113.281 75.1383 112.689 76.0711C112.098 77.004 110.862 77.2808 109.929 76.6893C107.096 74.8931 104.084 74.7702 101.88 75.8503C99.7467 76.8955 98 79.2507 98 83.2515C98 86.8287 99.5422 89.0536 101.618 90.1456C103.515 91.1431 106.136 91.3383 109 90.3499V87.0001H106C104.895 87.0001 104 86.1046 104 85.0001C104 83.8955 104.895 83.0001 106 83.0001H111C112.105 83.0001 113 83.8955 113 85.0001V91.7045C113 92.4911 112.539 93.2046 111.822 93.5279C107.639 95.4134 103.228 95.5114 99.7565 93.6858C96.2078 91.8194 94 88.1273 94 83.2515C94 77.9548 96.42 74.071 100.12 72.2582Z" fill="#1C3553"/>
<path fill-rule="evenodd" clip-rule="evenodd" d="M78 75.0132V82.6603C78.9596 82.6505 79.8662 82.6265 80.717 82.5675C82.1476 82.4684 83.2817 82.2773 84.1337 81.9596C84.9579 81.6522 85.3972 81.2737 85.6445 80.8485C85.9002 80.409 86.112 79.6415 85.9348 78.2533C85.8331 77.4571 85.5359 76.9562 85.1394 76.5845C84.7061 76.1783 84.046 75.8293 83.1008 75.5661C81.6545 75.1634 79.8882 75.0466 78 75.0132ZM78 86.6606C79.0224 86.6505 80.0331 86.6245 80.9936 86.558C82.5692 86.4487 84.1487 86.2231 85.5314 85.7074C86.942 85.1814 88.2586 84.3098 89.102 82.8599C89.9371 81.4244 90.151 79.6918 89.9026 77.7467C89.6874 76.062 88.9749 74.6975 87.8753 73.6665C86.8126 72.6701 85.4904 72.0793 84.1737 71.7127C81.6139 70.9999 78.5227 71 76.0473 71L76 71C74.8954 71 74 71.8954 74 73V93C74 94.1046 74.8954 95 76 95C77.1046 95 78 94.1046 78 93V86.6606Z" fill="#1C3553"/>
<path fill-rule="evenodd" clip-rule="evenodd" d="M65.9999 71C67.1045 71 67.9999 71.8954 67.9999 73H65.9999H63.9999C63.9999 71.8954 64.8953 71 65.9999 71ZM65.9999 73C63.9999 73 63.9999 72.9999 63.9999 73V88.3846C63.9999 89.2234 63.7319 89.8369 63.3341 90.2356C62.9455 90.625 62.2427 91 60.9999 91C59.6557 91 59.0905 90.6972 58.8034 90.47C58.4452 90.1866 58.2025 89.7902 57.7585 88.9705C57.2324 87.9993 56.0186 87.6384 55.0473 88.1645C54.0761 88.6906 53.7152 89.9044 54.2413 90.8756C54.2569 90.9044 54.2728 90.9338 54.289 90.9639C54.6787 91.6853 55.2653 92.7712 56.3214 93.6069C57.4926 94.5336 59.0108 95 60.9999 95C63.0905 95 64.8876 94.3418 66.1657 93.0608C67.4346 91.789 67.9999 90.0949 67.9999 88.3846V73C67.9999 72.9999 67.9999 73 65.9999 73Z" fill="#1C3553"/>
</svg>
