<svg width="156" height="156" viewBox="0 0 156 156" fill="none" xmlns="http://www.w3.org/2000/svg">
<path d="M116.59 130.04H39V26H116.59V130.04ZM113.59 127.04V29H42V127.04H113.59Z" fill="#002341"/>
<path d="M101.9 39.78H71.99V42.78H101.9V39.78Z" fill="#002341"/>
<path d="M101.9 53.83H71.99V56.83H101.9V53.83Z" fill="#002341"/>
<path d="M101.9 68.95H53.68V71.95H101.9V68.95Z" fill="#002341"/>
<path d="M64.77 46.96H53.42V35.61H64.77V46.96ZM56.42 43.96H61.77V38.61H56.42V43.96Z" fill="#002341"/>
<path d="M64.77 61.01H53.42V49.66H64.77V61.01ZM56.42 58.01H61.77V52.66H56.42V58.01Z" fill="#002341"/>
<path d="M98.27 114.77H57.01C54.18 114.77 51.87 112.46 51.87 109.63V86.88C51.87 84.05 54.17 81.74 57.01 81.74H98.27C101.1 81.74 103.41 84.05 103.41 86.88V109.63C103.41 112.46 101.1 114.77 98.27 114.77ZM57.01 84.75C55.83 84.75 54.87 85.71 54.87 86.89V109.64C54.87 110.82 55.83 111.78 57.01 111.78H98.27C99.45 111.78 100.41 110.82 100.41 109.64V86.89C100.41 85.71 99.45 84.75 98.27 84.75H57.01Z" fill="#002341"/>
<path d="M73.83 108.3L67.48 94.56L61.58 107.09L58.86 105.81L67.51 87.46L74.73 103.09L80.47 97.24L86.23 102.25L94.28 93.87L96.45 95.94L86.42 106.39L80.64 101.36L73.83 108.3Z" fill="#002341"/>
</svg>
