<svg width="156" height="156" viewBox="0 0 156 156" fill="none" xmlns="http://www.w3.org/2000/svg">
<path d="M39 26V130.04H116.59V26H39ZM113.58 127.04H42V29H113.58V127.04Z" fill="#002341"/>
<path d="M101.94 113.89H53.72V116.89H101.94V113.89Z" fill="#002341"/>
<path d="M101.94 100.75H53.72V103.75H101.94V100.75Z" fill="#002341"/>
<path d="M102.59 63.62C102.59 49.97 91.49 38.87 77.84 38.87C64.19 38.87 53.09 49.97 53.09 63.62V88.37H77.84C91.49 88.37 102.59 77.27 102.59 63.62ZM56.09 63.62C56.09 51.63 65.85 41.87 77.84 41.87C89.83 41.87 99.59 51.63 99.59 63.62C99.59 75.61 89.83 85.37 77.84 85.37H56.09V63.62Z" fill="#002341"/>
<path d="M90.51 57.97H65.15V60.97H90.51V57.97Z" fill="#002341"/>
<path d="M90.51 66.26H65.15V69.26H90.51V66.26Z" fill="#002341"/>
</svg>
