<svg width="156" height="156" viewBox="0 0 156 156" fill="none" xmlns="http://www.w3.org/2000/svg">
<path d="M116.59 130.04H39V26H116.59V130.04ZM113.59 127.04V29H42V127.04H113.59Z" fill="#002341"/>
<path d="M60.45 86.23L56.72 79.57L52.97 86.23H49.37L54.68 77.36L49.63 69.41H53.21L56.72 75.35L60.35 69.41H63.96L58.82 77.36L64.16 86.23H60.45Z" fill="#002341"/>
<path d="M69.62 83.35H77.05V86.23H66.5V69.41H69.62V83.35Z" fill="#002341"/>
<path d="M78.65 84.86V81.81C80.12 83.04 81.99 83.9 84.03 83.9C85.95 83.9 86.89 83.11 86.89 81.71C86.89 80.6 86.34 80.08 84.37 79.24L82.62 78.57C79.95 77.56 78.7 76.07 78.7 73.84C78.7 70.88 80.86 68.94 84.52 68.94C86.75 68.94 88.46 69.68 89.54 70.5V73.55C88.17 72.42 86.63 71.72 84.76 71.72C82.89 71.72 81.95 72.42 81.95 73.67C81.95 74.82 82.77 75.4 84.33 76.05L86.04 76.72C89.04 77.87 90.29 79.32 90.29 81.6C90.29 84.7 88.01 86.72 84.33 86.72C82.36 86.72 80.36 86.14 78.66 84.87L78.65 84.86Z" fill="#002341"/>
<path d="M102.39 86.23L98.66 79.57L94.91 86.23H91.31L96.62 77.36L91.57 69.41H95.15L98.66 75.35L102.29 69.41H105.9L100.76 77.36L106.1 86.23H102.39Z" fill="#002341"/>
</svg>
