<svg width="156" height="156" viewBox="0 0 156 156" fill="none" xmlns="http://www.w3.org/2000/svg">
<path d="M39 26V130.04H116.59V26H39ZM113.58 127.04H42V29H113.58V127.04Z" fill="#002341"/>
<path d="M101.9 114.45H53.68V117.45H101.9V114.45Z" fill="#002341"/>
<path d="M101.9 101.3H53.68V104.3H101.9V101.3Z" fill="#002341"/>
<path d="M63.82 89.03H91.77C94.25 89.03 96.27 87.01 96.27 84.53V59.88C96.27 57.4 94.25 55.38 91.77 55.38H70.55C70.67 53.19 71.21 49.02 73.52 46.62C74.7 45.39 76.19 44.8 78.06 44.8C84.83 44.8 85.07 51.96 85.07 52.78H88.07C88.07 48.98 85.98 41.8 78.06 41.8C75.36 41.8 73.1 42.73 71.35 44.55C68.3 47.73 67.66 52.83 67.54 55.39H63.82C61.34 55.39 59.32 57.41 59.32 59.89V84.54C59.32 87.02 61.34 89.04 63.82 89.04V89.03ZM62.32 59.87C62.32 59.04 62.99 58.37 63.82 58.37H91.77C92.6 58.37 93.27 59.04 93.27 59.87V84.52C93.27 85.35 92.6 86.02 91.77 86.02H63.82C62.99 86.02 62.32 85.35 62.32 84.52V59.87Z" fill="#002341"/>
<path d="M79.29 67.23H76.29V77.18H79.29V67.23Z" fill="#002341"/>
</svg>
