<svg width="156" height="156" viewBox="0 0 156 156" fill="none" xmlns="http://www.w3.org/2000/svg">
<path d="M102 47V31L119 47H102Z" fill="#C2DDFF"/>
<path fill-rule="evenodd" clip-rule="evenodd" d="M43 37.0002C43 35.8956 43.8954 35.0002 45 35.0002H93C94.1046 35.0002 95 35.8956 95 37.0002V46.9998C95 50.3135 97.6863 52.9998 101 52.9998H111C112.105 52.9998 113 53.8952 113 54.9998V119C113 120.105 112.105 121 111 121H45C43.8954 121 43 120.105 43 119V37.0002ZM103.839 99.9998H51.9203C50.2871 99.9998 49.3425 98.1481 50.3011 96.8259L63 79.3102L70 88.9998L84 69.9998L105.4 96.7504C106.448 98.06 105.516 99.9998 103.839 99.9998ZM59 67.9998C62.3137 67.9998 65 65.3135 65 61.9998C65 58.6861 62.3137 55.9998 59 55.9998C55.6863 55.9998 53 58.6861 53 61.9998C53 65.3135 55.6863 67.9998 59 67.9998Z" fill="#C2DDFF"/>
<path fill-rule="evenodd" clip-rule="evenodd" d="M35 31C35 28.7909 36.7909 27 39 27H101C101.53 27 102.039 27.2107 102.414 27.5858L120.414 45.5858C120.789 45.9609 121 46.4696 121 47V125C121 127.209 119.209 129 117 129H39C36.7909 129 35 127.209 35 125V31ZM99 31L39 31V125H117V49H103C100.791 49 99 47.2091 99 45V31ZM103 33.8284L114.172 45H103V33.8284Z" fill="#1C3553"/>
<path fill-rule="evenodd" clip-rule="evenodd" d="M83.9602 68.0004C84.5816 67.9881 85.1734 68.2653 85.5616 68.7506L106.962 95.5012C109.057 98.1203 107.193 102 103.839 102H51.9202C48.6538 102 46.7645 98.2966 48.6818 95.6521L51.9202 98H103.839L84.0651 73.2831L71.61 90.1864C71.2311 90.7007 70.6293 91.003 69.9905 91C69.3517 90.997 68.7527 90.689 68.3787 90.1712L62.997 82.7217L51.9202 98L48.6818 95.6521L61.3807 78.1364C61.7572 77.617 62.3601 77.3098 63.0016 77.3103C63.6431 77.3109 64.2454 77.6191 64.6211 78.1392L70.0158 85.6068L82.3898 68.8136C82.7584 68.3133 83.3388 68.0127 83.9602 68.0004Z" fill="#1C3553"/>
<path fill-rule="evenodd" clip-rule="evenodd" d="M59 58C56.7909 58 55 59.7909 55 62C55 64.2091 56.7909 66 59 66C61.2091 66 63 64.2091 63 62C63 59.7909 61.2091 58 59 58ZM51 62C51 57.5817 54.5817 54 59 54C63.4183 54 67 57.5817 67 62C67 66.4183 63.4183 70 59 70C54.5817 70 51 66.4183 51 62Z" fill="#1C3553"/>
</svg>
