<svg width="156" height="156" viewBox="0 0 156 156" fill="none" xmlns="http://www.w3.org/2000/svg">
<path d="M95.58 93.15C89.44 93.15 85.23 89.1 84 82.32H99.75V79.32H83.66C83.64 78.86 83.62 78.38 83.62 77.9C83.62 77.3 83.64 76.71 83.68 76.14H103.5V73.14H84.08C85.46 66.45 89.86 62.47 96.26 62.47C99.09 62.47 101.89 63.74 103.95 65.96L106.15 63.92C103.52 61.09 99.92 59.47 96.26 59.47C88.19 59.47 82.54 64.7 81.03 73.14H77.43V76.14H80.68C80.64 76.71 80.63 77.3 80.63 77.9C80.63 78.38 80.64 78.85 80.66 79.32H77.43V82.32H80.97C82.34 90.85 87.78 96.15 95.6 96.15C99.94 96.15 103.55 94.44 106.64 90.91L104.38 88.93C101.86 91.81 99.07 93.15 95.6 93.15H95.58Z" fill="#002341"/>
<path d="M94.01 36C70.77 36 51.86 54.91 51.86 78.15C51.86 101.39 70.77 120.3 94.01 120.3C117.25 120.3 136.16 101.39 136.16 78.15C136.16 54.91 117.25 36 94.01 36ZM94.01 117.31C72.42 117.31 54.86 99.75 54.86 78.16C54.86 56.57 72.42 39 94.01 39C115.6 39 133.16 56.56 133.16 78.15C133.16 99.74 115.6 117.3 94.01 117.3V117.31Z" fill="#002341"/>
<path d="M41.19 64.89H32.35V56.05C32.35 55.22 31.68 54.55 30.85 54.55C30.02 54.55 29.35 55.22 29.35 56.05V64.89H20.5C19.67 64.89 19 65.56 19 66.39C19 67.22 19.67 67.89 20.5 67.89H29.34V76.73C29.34 77.56 30.01 78.23 30.84 78.23C31.67 78.23 32.34 77.56 32.34 76.73V67.89H41.18C42.01 67.89 42.68 67.22 42.68 66.39C42.68 65.56 42.01 64.89 41.18 64.89H41.19Z" fill="#002341"/>
<path d="M41.19 95.36H20.5C19.67 95.36 19 96.03 19 96.86C19 97.69 19.67 98.36 20.5 98.36H41.19C42.02 98.36 42.69 97.69 42.69 96.86C42.69 96.03 42.02 95.36 41.19 95.36Z" fill="#002341"/>
</svg>
