<svg width="156" height="156" viewBox="0 0 156 156" fill="none" xmlns="http://www.w3.org/2000/svg">
<path d="M67.08 60.82C69.24 60.82 70.99 59.06 70.99 56.91C70.99 54.76 69.23 53 67.08 53C64.93 53 63.17 54.76 63.17 56.91C63.17 59.06 64.93 60.82 67.08 60.82ZM67.08 55.99C67.58 55.99 67.99 56.4 67.99 56.9C67.99 57.4 67.58 57.81 67.08 57.81C66.58 57.81 66.17 57.4 66.17 56.9C66.17 56.4 66.58 55.99 67.08 55.99Z" fill="#002341"/>
<path d="M112.61 24L112 24.17L43.61 24.16V24.22L43 24.07V116.13L94.13 132.55V123.63L112.61 116.05V24ZM101.45 27.17L86.96 31.28V34.97L55.49 27.17H101.45ZM91.13 128.43L46 113.94V27.91L91.13 39.1V128.43ZM109.61 114.03L94.13 120.38V36.75L89.96 35.71V33.54L109.61 27.97V114.03Z" fill="#002341"/>
<path d="M53.32 67.72L82.94 76.67C83.08 76.71 83.23 76.73 83.37 76.73C83.69 76.73 84 76.63 84.26 76.43C84.64 76.15 84.87 75.7 84.87 75.22V55.16C84.87 54.49 84.42 53.89 83.77 53.71L54.15 45.46C53.69 45.33 53.21 45.43 52.84 45.71C52.47 45.99 52.25 46.44 52.25 46.91V66.28C52.25 66.94 52.68 67.53 53.32 67.72ZM56.93 65.67L61.29 62.21L66.83 68.04L73.58 62.32L79.99 72.65L56.92 65.68L56.93 65.67ZM81.87 69.96L74.3 57.76L67.06 63.9L61.58 58.14L55.25 63.16V48.87L81.87 56.29V69.96Z" fill="#002341"/>
<path d="M67.08 96.23C69.24 96.23 70.99 94.47 70.99 92.32C70.99 90.17 69.23 88.41 67.08 88.41C64.93 88.41 63.17 90.17 63.17 92.32C63.17 94.47 64.93 96.23 67.08 96.23ZM67.08 91.4C67.58 91.4 67.99 91.81 67.99 92.31C67.99 92.81 67.58 93.22 67.08 93.22C66.58 93.22 66.17 92.81 66.17 92.31C66.17 91.81 66.58 91.4 67.08 91.4Z" fill="#002341"/>
<path d="M53.29 103.12L82.91 112.76C83.06 112.81 83.22 112.83 83.37 112.83C83.68 112.83 83.99 112.73 84.25 112.54C84.64 112.26 84.87 111.81 84.87 111.33V91.26C84.87 90.6 84.44 90.01 83.8 89.82L54.18 80.88C53.73 80.74 53.23 80.83 52.85 81.11C52.47 81.39 52.24 81.84 52.24 82.32V101.69C52.24 102.34 52.66 102.92 53.28 103.12H53.29ZM56.88 101.13L61.3 97.62L66.84 103.45L73.56 97.75L80.05 108.67L56.88 101.13ZM81.88 92.38V105.86L74.33 93.15L67.06 99.32L61.58 93.56L55.25 98.58V84.34L81.87 92.38H81.88Z" fill="#002341"/>
</svg>
