<svg width="156" height="156" viewBox="0 0 156 156" fill="none" xmlns="http://www.w3.org/2000/svg">
<g clip-path="url(#clip0_2343_6951)">
<path fill-rule="evenodd" clip-rule="evenodd" d="M76.0275 89.547L79.2057 92.7252L84.7601 91.0597L87.9384 94.2379L85.9152 99.4348L91.9185 105.438L105.977 91.3795L99.9738 85.3762L94.1519 88.0116L90.9737 84.8334L93.2643 78.6666L91.5977 77H111C112.105 77 113 77.8954 113 79V121C113 122.105 112.105 123 111 123H46C45.0714 123 44.2905 122.367 44.0654 121.509L76.0275 89.547ZM44 105.33L67.9054 81.4249L64.374 77.8936L64.7111 77H46C44.8954 77 44 77.8954 44 79V105.33Z" fill="#C2DDFF"/>
<path fill-rule="evenodd" clip-rule="evenodd" d="M73.7089 16.5757C76.0506 14.1415 79.9392 14.1192 82.3088 16.5263L139.075 74.194C141.565 76.7228 139.773 81 136.225 81H121V99C121 100.105 120.104 101 119 101C117.895 101 117 100.105 117 99V80C117 78.3432 118.343 77 120 77H136.225L79.4582 19.3324C78.6683 18.53 77.3721 18.5374 76.5915 19.3488L56.1619 40.5853C54.2895 42.5317 50.9999 41.2063 50.9999 38.5055V34H38.9999V56.5858C38.9999 57.3815 38.6838 58.1445 38.1212 58.7071L19.8283 77H35.9999C37.6568 77 38.9999 78.3432 38.9999 80V102C38.9999 103.105 38.1045 104 36.9999 104C35.8953 104 34.9999 103.105 34.9999 102V81H19.8283C16.2647 81 14.48 76.6914 16.9999 74.1716L34.9999 56.1716V33C34.9999 31.3432 36.343 30 37.9999 30H51.9999C53.6568 30 54.9999 31.3432 54.9999 33V36.0236L73.7089 16.5757ZM119 105C120.104 105 121 105.895 121 107V125C121 128.314 118.314 131 115 131H48.9999C47.8953 131 46.9999 130.105 46.9999 129C46.9999 127.895 47.8953 127 48.9999 127H115C116.104 127 117 126.105 117 125V107C117 105.895 117.895 105 119 105Z" fill="#1C3553"/>
<path fill-rule="evenodd" clip-rule="evenodd" d="M63.506 50.9109C69.1119 52.8794 73.9183 56.4921 76.6687 59.2425L94.6786 77.2524C95.2315 77.8054 95.4115 78.6299 95.1392 79.363L93.2955 84.3267L94.5877 85.6189L99.1491 83.5542C99.9076 83.2108 100.799 83.3733 101.388 83.962L107.391 89.9653C108.172 90.7463 108.172 92.0126 107.391 92.7937L93.3328 106.852C92.5518 107.633 91.2854 107.633 90.5044 106.852L84.5011 100.849C83.9401 100.288 83.7638 99.4485 84.0516 98.7092L85.601 94.729L84.1906 93.3185L79.7802 94.641C79.0755 94.8522 78.3117 94.6596 77.7915 94.1394L76.0275 92.3754L31.317 137.086C29.7549 138.648 27.2223 138.648 25.6602 137.086L20.3665 131.792C18.8044 130.23 18.8044 127.698 20.3665 126.135L65.077 81.4249L62.9599 79.3078C62.4043 78.7522 62.2255 77.9227 62.5028 77.1876L65.9691 68C59.7783 59.9824 50.0763 56.8846 45.9661 56.365C45.1425 56.2609 44.4688 55.6587 44.2732 54.8519C44.0777 54.045 44.4009 53.2013 45.0855 52.7316C51.1801 48.5501 57.8659 48.9303 63.506 50.9109ZM74.9698 85.6608C74.1888 84.8798 72.9224 84.8798 72.1414 85.6608C71.3603 86.4419 71.3603 87.7082 72.1414 88.4893L73.1991 89.547L28.4886 134.258L23.1949 128.964L69.3196 82.8391C70.1007 82.0581 70.1007 80.7917 69.3196 80.0107L66.7009 77.392L70.0964 68.392C70.3314 67.7692 70.2411 67.0703 69.8556 66.5277C64.9361 59.6035 57.8218 55.7409 52.3112 53.8396C55.5858 53.0961 58.9613 53.5545 62.1807 54.685C67.0988 56.412 71.4114 59.6421 73.8403 62.071L90.9426 79.1733L89.0989 84.137C88.8266 84.87 89.0065 85.6946 89.5595 86.2476L92.7377 89.4258C93.3264 90.0145 94.2182 90.1769 94.9767 89.8336L99.5381 87.7688L103.149 91.3795L91.9186 102.61L88.2527 98.9437L89.8022 94.9635C90.09 94.2242 89.9136 93.3847 89.3526 92.8237L86.1744 89.6455C85.6542 89.1253 84.8904 88.9327 84.1858 89.144L79.7754 90.4664L74.9698 85.6608Z" fill="#1C3553"/>
</g>
<defs>
<clipPath id="clip0_2343_6951">
<rect width="156" height="156" fill="white"/>
</clipPath>
</defs>
</svg>
