<svg width="156" height="156" viewBox="0 0 156 156" fill="none" xmlns="http://www.w3.org/2000/svg">
<path d="M102.62 84.83C102.22 84.42 101.61 84.27 101.07 84.45L97.93 85.5L97.09 84.75L98.01 81.4C98.15 80.88 98.01 80.33 97.63 79.95C97.14 79.46 85.61 67.82 78.74 64.5C71.05 60.78 64.06 64.26 63.77 64.41C63.21 64.69 62.89 65.3 62.96 65.92C63.03 66.54 63.48 67.06 64.09 67.21C67.32 68.01 75.81 71.04 77.4 75.52L75.8 80.33C75.62 80.86 75.76 81.44 76.14 81.84L77.79 83.56L47.49 113.86C47.21 114.14 47.05 114.52 47.05 114.92C47.05 115.32 47.21 115.7 47.49 115.98L52.21 120.7C52.5 120.99 52.89 121.14 53.27 121.14C53.65 121.14 54.04 120.99 54.33 120.7L84.69 90.34L85.96 91.61C86.37 92.01 86.97 92.15 87.51 91.97L90.34 91L91.3 91.94L90.14 94.21C89.83 94.81 89.96 95.54 90.46 96L94.81 100.03C95.1 100.3 95.46 100.43 95.83 100.43C96.21 100.43 96.6 100.28 96.89 99.99L106.22 90.66C106.8 90.08 106.81 89.14 106.24 88.55L102.64 84.84L102.62 84.83ZM95.78 96.83L93.33 94.56L94.48 92.31C94.78 91.72 94.66 91.01 94.19 90.55L91.78 88.19C91.37 87.79 90.78 87.66 90.24 87.84L87.41 88.81L84.48 85.9C83.89 85.31 82.94 85.32 82.36 85.9C81.77 86.49 81.78 87.44 82.36 88.02L82.54 88.2L53.25 117.49L50.65 114.89L80.91 84.63C81.5 84.04 81.5 83.09 80.91 82.51C80.88 82.48 80.84 82.47 80.81 82.44C80.76 82.37 80.73 82.28 80.67 82.22L78.91 80.39L80.38 75.99C80.47 75.72 80.48 75.42 80.41 75.14C79.23 70.56 73.74 67.54 69.59 65.87C71.77 65.63 74.54 65.8 77.41 67.19C82.96 69.88 92.38 78.99 94.86 81.44L93.93 84.83C93.78 85.38 93.95 85.96 94.37 86.34L96.54 88.3C96.94 88.66 97.51 88.78 98.02 88.61L101.1 87.58L103.02 89.55L95.76 96.81L95.78 96.83Z" fill="#002341"/>
<path d="M81.84 35.12C79.65 33.62 76.42 33.62 74.23 35.12L39 54.01V107.65H42V55.8L75.73 37.73L75.89 37.63C77.07 36.79 79 36.79 80.19 37.63L114.07 55.8V107.64H117.07V54.01L81.84 35.12Z" fill="#002341"/>
</svg>
