<svg width="156" height="156" viewBox="0 0 156 156" fill="none" xmlns="http://www.w3.org/2000/svg">
<path d="M125.83 97.19C124.03 94.49 121.98 91.12 121.72 90.25V72.42C121.72 68.38 119.87 64.76 116.98 62.36H121.51L121.56 60.92C121.58 60.33 122.04 46.35 115.55 39.61C113.25 37.22 110.38 36.01 107.01 36.01C103.64 36.01 100.78 37.22 98.51 39.6C92.07 46.35 92.65 60.33 92.68 60.92L92.75 62.35H97.06C94.24 64.68 92.42 68.18 92.33 72.1C92.3 72.24 89.68 83.98 82.41 84.53C80.91 83.26 78.98 82.49 76.86 82.49H74.83C72.72 82.49 70.78 83.26 69.28 84.53C62.27 84 59.59 73.09 59.38 72.19C59.29 66.98 56.14 62.51 51.65 60.5C55.51 58.2 58.11 53.99 58.11 49.18C58.13 41.91 52.21 36 44.94 36C37.67 36 31.76 41.91 31.76 49.18C31.76 53.91 34.27 58.05 38.01 60.37C33.31 62.35 30 67 30 72.41V90.35C30 94.53 31.97 98.4 35.31 100.86L35.38 120.82H38.38L38.31 99.25L37.63 98.81C34.74 96.95 33.01 93.79 33.01 90.36V72.42C33.01 66.88 37.52 62.37 43.06 62.37H46.36C51.9 62.37 56.41 66.88 56.41 72.42V90.36C56.41 93.7 54.75 96.82 51.98 98.69L51.32 99.14V120.83H54.32V100.71C57.52 98.25 59.41 94.44 59.41 90.37V80.44C61.09 83.39 63.61 86.24 67.19 87.22C66.6 88.39 66.25 89.7 66.25 91.1V102.12C66.25 104.77 67.46 107.24 69.51 108.86L69.55 120.84H72.55L72.5 107.27L71.81 106.83C70.2 105.79 69.24 104.04 69.24 102.12V91.1C69.24 88.02 71.75 85.51 74.83 85.51H76.86C79.94 85.51 82.45 88.02 82.45 91.1V102.12C82.45 103.98 81.53 105.71 79.98 106.76L79.32 107.21V120.84H82.32V108.76C84.29 107.13 85.45 104.71 85.45 102.13V91.11C85.45 89.71 85.11 88.4 84.51 87.23C88.1 86.25 90.62 83.38 92.3 80.42V90.29C92.01 91.19 89.98 94.53 88.19 97.21L87.33 98.5L88.65 99.32C88.79 99.41 91.98 101.34 97.4 101.47V120.84H100.4V98.39L98.84 98.45C95.56 98.58 93.1 97.93 91.66 97.4C95.31 91.78 95.31 90.73 95.31 90.37V72.43C95.31 66.89 99.81 62.38 105.35 62.38H108.65C114.19 62.38 118.7 66.89 118.7 72.43V90.37C118.7 90.73 118.7 91.78 122.35 97.4C120.91 97.93 118.46 98.58 115.17 98.45L113.61 98.39V120.84H116.61V101.47C122.02 101.34 125.21 99.41 125.36 99.32L126.68 98.5L125.82 97.21L125.83 97.19ZM100.69 41.68C102.4 39.89 104.47 39.02 107.02 39.02C109.57 39.02 111.65 39.89 113.38 41.68C117.88 46.35 118.5 55.76 118.56 59.36H95.67C95.7 55.78 96.22 46.37 100.69 41.68ZM34.76 49.18C34.76 43.57 39.33 39 44.94 39C50.55 39 55.12 43.57 55.12 49.18C55.12 54.79 50.55 59.36 44.94 59.36C39.33 59.36 34.76 54.79 34.76 49.18Z" fill="#002341"/>
<path d="M76 81.15C80.78 81.15 84.68 77.26 84.68 72.47C84.68 67.68 80.79 63.79 76 63.79C71.21 63.79 67.32 67.68 67.32 72.47C67.32 77.26 71.21 81.15 76 81.15ZM76 66.8C79.13 66.8 81.67 69.35 81.67 72.47C81.67 75.59 79.12 78.14 76 78.14C72.88 78.14 70.33 75.59 70.33 72.47C70.33 69.35 72.88 66.8 76 66.8Z" fill="#002341"/>
</svg>
