<svg width="156" height="156" viewBox="0 0 156 156" fill="none" xmlns="http://www.w3.org/2000/svg">
<rect width="28" height="88" rx="2" transform="matrix(-1 0 0 1 126 34)" fill="#C2DDFF"/>
<path fill-rule="evenodd" clip-rule="evenodd" d="M53.113 61.6261C54.2176 61.6261 55.113 62.5215 55.113 63.6261L55.113 91.8C55.113 92.9046 54.2176 93.8 53.113 93.8C52.0085 93.8 51.113 92.9046 51.113 91.8L51.113 79.7131H24C22.8954 79.7131 22 78.8176 22 77.7131C22 76.6085 22.8954 75.7131 24 75.7131H51.113V63.6261C51.113 62.5215 52.0085 61.6261 53.113 61.6261Z" fill="#1C3553"/>
<path fill-rule="evenodd" clip-rule="evenodd" d="M29 30C27.3431 30 26 31.3431 26 33V92.5739C26 93.6785 25.1046 94.5739 24 94.5739C22.8954 94.5739 22 93.6785 22 92.5739V33C22 29.134 25.134 26 29 26L90 26C92.2091 26 94 27.7909 94 30V69C94 70.1046 93.1046 71 92 71C90.8954 71 90 70.1046 90 69V30L55.113 30V43.5C55.113 44.6046 54.2176 45.5 53.113 45.5C52.0085 45.5 51.113 44.6046 51.113 43.5V30H29ZM92 87.7876C93.1046 87.7876 94 88.683 94 89.7876V126C94 128.209 92.2091 130 90 130L81 130C79.8954 130 79 129.105 79 128C79 124.797 78.3405 122.45 77.3411 120.711C76.3453 118.978 74.9449 117.73 73.2727 116.822C70.4015 115.264 66.7901 114.739 63.3137 114.609V128C63.3137 128.53 63.103 129.039 62.7279 129.414C62.3529 129.789 61.8442 130 61.3137 130L29 130C25.134 130 22 126.866 22 123V113.511C22 112.406 22.8954 111.511 24 111.511C25.1046 111.511 26 112.406 26 113.511V123C26 124.657 27.3431 126 29 126L59.3137 126V112.574C59.3137 111.469 60.2092 110.574 61.3137 110.574C65.4515 110.574 70.8119 110.936 75.1807 113.307C77.4068 114.515 79.3931 116.253 80.8093 118.718C81.9628 120.726 82.6931 123.136 82.9223 126L90 126V89.7876C90 88.683 90.8954 87.7876 92 87.7876Z" fill="#1C3553"/>
<path fill-rule="evenodd" clip-rule="evenodd" d="M79 28C79 26.8954 79.8954 26 81 26H83.875C84.9796 26 85.875 26.8954 85.875 28C85.875 29.1046 84.9796 30 83.875 30H81C79.8954 30 79 29.1046 79 28ZM87.625 28C87.625 26.8954 88.5204 26 89.625 26H95.375C96.4796 26 97.375 26.8954 97.375 28C97.375 29.1046 96.4796 30 95.375 30H89.625C88.5204 30 87.625 29.1046 87.625 28ZM99.125 28C99.125 26.8954 100.02 26 101.125 26H106.875C107.98 26 108.875 26.8954 108.875 28C108.875 29.1046 107.98 30 106.875 30H101.125C100.02 30 99.125 29.1046 99.125 28ZM110.625 28C110.625 26.8954 111.52 26 112.625 26H118.375C119.48 26 120.375 26.8954 120.375 28C120.375 29.1046 119.48 30 118.375 30H112.625C111.52 30 110.625 29.1046 110.625 28ZM122.125 28C122.125 26.8954 123.02 26 124.125 26H127C127.945 26 128.852 26.1885 129.68 26.532C130.7 26.9551 131.185 28.1252 130.761 29.1455C130.736 29.2062 130.708 29.2651 130.678 29.3219C130.735 29.2916 130.794 29.2638 130.854 29.2386C131.875 28.8155 133.045 29.2996 133.468 30.32C133.811 31.1481 134 32.0545 134 33V35.8125C134 36.9171 133.105 37.8125 132 37.8125C130.895 37.8125 130 36.9171 130 35.8125V33C130 32.5895 129.919 32.2031 129.773 31.8522C129.534 31.2766 129.584 30.6533 129.857 30.1434C129.347 30.4155 128.723 30.4655 128.148 30.2269C127.797 30.0813 127.41 30 127 30H124.125C123.02 30 122.125 29.1046 122.125 28ZM132 39.4375C133.105 39.4375 134 40.3329 134 41.4375V47.0625C134 48.1671 133.105 49.0625 132 49.0625C130.895 49.0625 130 48.1671 130 47.0625V41.4375C130 40.3329 130.895 39.4375 132 39.4375ZM132 50.6875C133.105 50.6875 134 51.5829 134 52.6875V58.3125C134 59.4171 133.105 60.3125 132 60.3125C130.895 60.3125 130 59.4171 130 58.3125V52.6875C130 51.5829 130.895 50.6875 132 50.6875ZM132 61.9375C133.105 61.9375 134 62.8329 134 63.9375V69.5625C134 70.6671 133.105 71.5625 132 71.5625C130.895 71.5625 130 70.6671 130 69.5625V63.9375C130 62.8329 130.895 61.9375 132 61.9375ZM132 73.1875C133.105 73.1875 134 74.0829 134 75.1875V80.8125C134 81.9171 133.105 82.8125 132 82.8125C130.895 82.8125 130 81.9171 130 80.8125V75.1875C130 74.0829 130.895 73.1875 132 73.1875ZM132 84.4375C133.105 84.4375 134 85.3329 134 86.4375V92.0625C134 93.1671 133.105 94.0625 132 94.0625C130.895 94.0625 130 93.1671 130 92.0625V86.4375C130 85.3329 130.895 84.4375 132 84.4375ZM132 95.6875C133.105 95.6875 134 96.5829 134 97.6875V103.312C134 104.417 133.105 105.312 132 105.312C130.895 105.312 130 104.417 130 103.312V97.6875C130 96.5829 130.895 95.6875 132 95.6875ZM132 106.938C133.105 106.938 134 107.833 134 108.938V114.562C134 115.667 133.105 116.562 132 116.562C130.895 116.562 130 115.667 130 114.562V108.938C130 107.833 130.895 106.938 132 106.938ZM132 118.188C133.105 118.188 134 119.083 134 120.188V123C134 123.945 133.811 124.852 133.468 125.68C133.045 126.7 131.875 127.185 130.854 126.761C130.794 126.736 130.735 126.708 130.678 126.678C130.708 126.735 130.736 126.794 130.761 126.854C131.185 127.875 130.7 129.045 129.68 129.468C128.852 129.811 127.945 130 127 130H124.125C123.02 130 122.125 129.105 122.125 128C122.125 126.895 123.02 126 124.125 126H127C127.41 126 127.797 125.919 128.148 125.773C128.723 125.534 129.347 125.584 129.857 125.857C129.584 125.347 129.534 124.723 129.773 124.148C129.919 123.797 130 123.41 130 123V120.188C130 119.083 130.895 118.188 132 118.188ZM79 128C79 126.895 79.8954 126 81 126H83.875C84.9796 126 85.875 126.895 85.875 128C85.875 129.105 84.9796 130 83.875 130H81C79.8954 130 79 129.105 79 128ZM87.625 128C87.625 126.895 88.5204 126 89.625 126H95.375C96.4796 126 97.375 126.895 97.375 128C97.375 129.105 96.4796 130 95.375 130H89.625C88.5204 130 87.625 129.105 87.625 128ZM99.125 128C99.125 126.895 100.02 126 101.125 126H106.875C107.98 126 108.875 126.895 108.875 128C108.875 129.105 107.98 130 106.875 130H101.125C100.02 130 99.125 129.105 99.125 128ZM110.625 128C110.625 126.895 111.52 126 112.625 126H118.375C119.48 126 120.375 126.895 120.375 128C120.375 129.105 119.48 130 118.375 130H112.625C111.52 130 110.625 129.105 110.625 128Z" fill="#1C3553"/>
</svg>
