<svg width="156" height="156" viewBox="0 0 156 156" fill="none" xmlns="http://www.w3.org/2000/svg">
<g clip-path="url(#clip0_11411_69329)">
<rect x="34" y="34" width="88" height="88" rx="2" fill="#C2DDFF"/>
<mask id="mask0_11411_69329" style="mask-type:alpha" maskUnits="userSpaceOnUse" x="17" y="16" width="123" height="123">
<path fill-rule="evenodd" clip-rule="evenodd" d="M18.3761 115.787C17.5951 115.005 17.5951 113.739 18.3761 112.958L113.836 17.4987C114.617 16.7176 115.883 16.7176 116.664 17.4987C117.445 18.2797 117.445 19.5461 116.664 20.3271L21.2046 115.787C20.4235 116.568 19.1572 116.568 18.3761 115.787Z" fill="#002240"/>
<path fill-rule="evenodd" clip-rule="evenodd" d="M138.85 44.8116L46.0112 137.651C45.2301 138.432 43.9638 138.432 43.1827 137.651C42.4017 136.87 42.4017 135.604 43.1827 134.823L136.022 41.9831C136.803 41.2021 138.069 41.2021 138.85 41.9831C139.631 42.7642 139.631 44.0305 138.85 44.8116Z" fill="#002240"/>
<path fill-rule="evenodd" clip-rule="evenodd" d="M95.4508 132.05C94.6698 131.269 94.6698 130.003 95.4508 129.221L130.806 93.8661C131.587 93.0851 132.854 93.0851 133.635 93.8661C134.416 94.6472 134.416 95.9135 133.635 96.6946L98.2793 132.05C97.4982 132.831 96.2319 132.831 95.4508 132.05Z" fill="#002240"/>
<path fill-rule="evenodd" clip-rule="evenodd" d="M24.7401 61.3392C23.9591 60.5582 23.9591 59.2918 24.7401 58.5108L60.0955 23.1554C60.8765 22.3744 62.1429 22.398 87V127H138V87Z" fill="#1C3553"/>
<path fill-rule="evenodd" clip-rule="evenodd" d="M102 74L107 74L107 47L78.5 47C77.3954 47 76.5 46.1046 76.5 45C76.5 43.8955 77.3954 43 78.5 43L107 43C109.209 43 111 44.7909 111 47L111 74C111 76.2091 109.209 78 107 78L102 78C99.7909 78 98 76.2091 98 74L94 74C94 76.2091 92.2091 78 90 78L86 78C83.7909 78 82 76.2091 82 74L78 74C78 76.2091 76.2091 78 74 78L70 78C67.7909 78 66 76.2091 66 74L62 74C62 76.2091 60.2091 78 58 78L54 78C51.7909 78 50 76.2091 50 74L45 74C45 76.2091 43.2091 78 41 78L36 78C33.7909 78 32 76.2091 32 74L32 47C32 44.7909 33.7909 43 36 43L62.5 43C63.6046 43 64.5 43.8955 64.5 45C64.5 46.1046 63.6046 47 62.5 47L36 47L36 74L41 74C41 71.7909 42.7909 70 45 70L50 70C52.2091 70 54 71.7909 54 74L58 74C58 71.7909 59.7909 70 62 70L66 70C68.2091 70 70 71.7909 70 74L74 74C74 71.7909 75.7909 70 78 70L82 70C84.2091 70 86 71.7909 86 74L90 74C90 71.7909 91.7909 70 94 70L98 70C100.209 70 102 71.7909 102 74Z" fill="#1C3553"/>
<path fill-rule="evenodd" clip-rule="evenodd" d="M30 31C30 27.6863 32.6863 25 36 25L58 25C59.1046 25 60 25.8954 60 27L60 35C60 36.1046 59.1046 37 58 37L36 37C32.6863 37 30 34.3137 30 31ZM36 29C34.8954 29 34 29.8954 34 31C34 32.1046 34.8954 33 36 33L56 33L56 29L36 29Z" fill="#1C3553"/>
<path fill-rule="evenodd" clip-rule="evenodd" d="M57 31C57 29.8954 57.8954 29 59 29H70.5C71.6046 29 72.5 29.8954 72.5 31V59C72.5 60.1046 71.6046 61 70.5 61C69.3954 61 68.5 60.1046 68.5 59V33H59C57.8954 33 57 32.1046 57 31Z" fill="#1C3553"/>
<path fill-rule="evenodd" clip-rule="evenodd" d="M55 59C55 57.8954 55.8954 57 57 57H85C86.1046 57 87 57.8954 87 59C87 60.1046 86.1046 61 85 61H57C55.8954 61 55 60.1046 55 59Z" fill="#1C3553"/>
<path fill-rule="evenodd" clip-rule="evenodd" d="M72.75 82C73.8546 82 74.75 82.8954 74.75 84V111C74.75 112.105 73.8546 113 72.75 113C71.6454 113 70.75 112.105 70.75 111V84C70.75 82.8954 71.6454 82 72.75 82Z" fill="#1C3553"/>
<path fill-rule="evenodd" clip-rule="evenodd" d="M60.5 82C61.6046 82 62.5 82.8954 62.5 84V111C62.5 112.105 61.6046 113 60.5 113C59.3954 113 58.5 112.105 58.5 111V84C58.5 82.8954 59.3954 82 60.5 82Z" fill="#1C3553"/>
<path fill-rule="evenodd" clip-rule="evenodd" d="M85 82C86.1046 82 87 82.8954 87 84V111C87 112.105 86.1046 113 85 113C83.8954 113 83 112.105 83 111V84C83 82.8954 83.8954 82 85 82Z" fill="#1C3553"/>
<path fill-rule="evenodd" clip-rule="evenodd" d="M48.25 82C49.3546 82 50.25 82.8954 50.25 84V111C50.25 112.105 49.3546 113 48.25 113C47.1454 113 46.25 112.105 46.25 111V84C46.25 82.8954 47.1454 82 48.25 82Z" fill="#1C3553"/>
<path fill-rule="evenodd" clip-rule="evenodd" d="M36 82C37.1046 82 38 82.8954 38 84V111C38 112.105 37.1046 113 36 113C34.8954 113 34 112.105 34 111V84C34 82.8954 34.8954 82 36 82Z" fill="#1C3553"/>
</svg>
