<svg width="156" height="156" viewBox="0 0 156 156" fill="none" xmlns="http://www.w3.org/2000/svg">
<path d="M96 87C96 85.8954 96.8954 85 98 85H138C139.105 85 140 85.8954 140 87V127C140 128.105 139.105 129 138 129H98C96.8954 129 96 128.105 96 127V87Z" fill="#C2DDFF"/>
<path d="M41 52C41 51.4477 41.4477 51 42 51H101C101.552 51 102 51.4477 102 52V65C102 65.5523 101.552 66 101 66H42C41.4477 66 41 65.5523 41 65V52Z" fill="#C2DDFF"/>
<path fill-rule="evenodd" clip-rule="evenodd" d="M124 77L124 55C124 53.8954 123.105 53 122 53L117 53C115.895 53 115 52.1046 115 51C115 49.8954 115.895 49 117 49L122 49C125.314 49 128 51.6863 128 55L128 77C128 78.1046 127.105 79 126 79C124.895 79 124 78.1046 124 77ZM90 119C90 120.105 89.1046 121 88 121L21 121C17.6863 121 15 118.314 15 115L15 99.5C15 98.3954 15.8954 97.5 17 97.5C18.1046 97.5 19 98.3954 19 99.5L19 115C19 116.105 19.8954 117 21 117L88 117C89.1046 117 90 117.895 90 119ZM28 51.0001C28 52.1046 27.1046 53.0001 26 53.0001L21 53.0001C19.8954 53.0001 19 53.8955 19 55.0001L19 91.5C19 92.6046 18.1046 93.5 17 93.5C15.8954 93.5 15 92.6046 15 91.5L15 55.0001C15 51.6863 17.6863 49.0001 21 49.0001L26 49.0001C27.1046 49.0001 28 49.8955 28 51.0001Z" fill="#1C3553"/>
<path fill-rule="evenodd" clip-rule="evenodd" d="M94 87C94 84.7909 95.7909 83 98 83H138C140.209 83 142 84.7909 142 87V127C142 129.209 140.209 131 138 131H98C95.7909 131 94 129.209 94 127V87ZM138 87L944 62.9239 23.1554C63.705 23.9365 63.705 25.2028 62.9239 25.9839L27.5686 61.3392C26.7875 62.1202 25.5212 62.1202 24.7401 61.3392Z" fill="#002240"/>
<path fill-rule="evenodd" clip-rule="evenodd" d="M113.873 114.099C113.092 114.88 111.826 114.88 111.045 114.099L89.6778 92.7319C88.8967 91.9508 88.8967 90.6845 89.6778 89.9034C90.4588 89.1224 91.7252 89.1224 92.5062 89.9034L113.873 111.27C114.654 112.051 114.654 113.318 113.873 114.099Z" fill="#002240"/>
<path fill-rule="evenodd" clip-rule="evenodd" d="M67.7675 67.9937C66.9864 68.7747 65.7201 68.7747 64.9391 67.9937L42.9865 46.0411C42.2054 45.26 42.2054 43.9937 42.9864 43.2127C43.7675 42.4316 45.0338 42.4316 45.8149 43.2127L67.7675 65.1653C68.5485 65.9463 68.5485 67.2126 67.7675 67.9937Z" fill="#002240"/>
</mask>
<g mask="url(#mask0_11411_69329)">
<path d="M28.0002 29.9999C28.0002 28.8954 28.8957 27.9999 30.0002 27.9999H126C127.105 27.9999 128 28.8954 128 29.9999V126C128 127.105 127.105 128 126 128H30.0002C28.8957 128 28.0002 127.105 28.0002 126V29.9999Z" fill="#1C3553"/>
<path fill-rule="evenodd" clip-rule="evenodd" d="M26.0002 29.9999C26.0002 27.7908 27.7911 25.9999 30.0002 25.9999H126C128.209 25.9999 130 27.7908 130 29.9999V126C130 128.209 128.209 130 126 130H30.0002C27.7911 130 26.0002 128.209 26.0002 126V29.9999ZM126 29.9999L30.0002 29.9999V126H126V29.9999Z" fill="#1C3553"/>
</g>
<path fill-rule="evenodd" clip-rule="evenodd" d="M26.0002 30C26.0002 27.7909 27.7911 26 30.0002 26H126C128.209 26 130 27.7909 130 30V126C130 128.209 128.209 130 126 130H30.0002C27.7911 130 26.0002 128.209 26.0002 126V30ZM126 30L30.0002 30V126H126V30Z" fill="#1C3553"/>
</g>
<defs>
<clipPath id="clip0_11411_69329">
<rect width="156" height="156" fill="white"/>
</clipPath>
</defs>
</svg>
72.75 82C73.8546 82 74.75 82.8954 74.75 84V111C74.75 112.105 73.8546 113 72.75 113C71.6454 113 70.75 112.105 70.75 111V84C70.75 82.8954 71.6454 82 72.75 82Z" fill="#1C3553"/>
<path fill-rule="evenodd" clip-rule="evenodd" d="M60.5 82C61.6046 82 62.5 82.8954 62.5 84V111C62.5 112.105 61.6046 113 60.5 113C59.3954 113 58.5 112.105 58.5 111V84C58.5 82.8954 59.3954 82 60.5 82Z" fill="#1C3553"/>
<path fill-rule="evenodd" clip-rule="evenodd" d="M85 82C86.1046 82 87 82.8954 87 84V111C87 112.105 86.1046 113 85 113C83.8954 113 83 112.105 83 111V84C83 82.8954 83.8954 82 85 82Z" fill="#1C3553"/>
<path fill-rule="evenodd" clip-rule="evenodd" d="M48.25 82C49.3546 82 50.25 82.8954 50.25 84V111C50.25 112.105 49.3546 113 48.25 113C47.1454 113 46.25 112.105 46.25 111V84C46.25 82.8954 47.1454 82 48.25 82Z" fill="#1C3553"/>
<path fill-rule="evenodd" clip-rule="evenodd" d="M36 82C37.1046 82 38 82.8954 38 84V111C38 112.105 37.1046 113 36 113C34.8954 113 34 112.105 34 111V84C34 82.8954 34.8954 82 36 82Z" fill="#1C3553"/>
</svg>
