<svg width="156" height="156" viewBox="0 0 156 156" fill="none" xmlns="http://www.w3.org/2000/svg">
<path d="M27 27V129.09H129.09V27H27ZM126.09 100.17L100.7 125.56L90.64 115L126.09 79.55V100.18V100.17ZM30 59.15L52.52 36.63L60.92 45.03L30 76.02V59.15ZM111.14 90.25L101.21 79.81L126.09 54.93V75.3L111.14 90.25ZM126.09 50.68L72.93 103.84L63.65 94.56L126.09 32.13V50.69V50.68ZM50.37 103.6L40.63 93.56L85.55 48.64L95.44 58.53L50.36 103.61L50.37 103.6ZM49.56 60.68L59.42 70.54L30 99.95V80.28L49.55 60.69L49.56 60.68ZM97.57 56.4L87.68 46.51L104.19 30H123.97L97.57 56.4ZM61.54 68.41L51.68 58.55L80.17 30H99.94L61.53 68.41H61.54ZM63.06 42.9L54.66 34.5L59.16 30H75.94L63.06 42.91V42.9ZM30 104.19L38.5 95.69L48.24 105.73L30 123.97V104.19ZM61.53 96.68L70.81 105.96L50.69 126.08H32.13L61.54 96.67L61.53 96.68ZM99.08 81.94L109.01 92.38L75.3 126.09H54.93L99.08 81.94ZM88.51 117.12L97.06 126.09H79.54L88.51 117.12ZM54.9 30L30 54.9V30H54.9ZM104.42 126.09L126.09 104.42V126.09H104.42Z" fill="#002341"/>
</svg>
