<svg width="156" height="156" viewBox="0 0 156 156" fill="none" xmlns="http://www.w3.org/2000/svg">
<path d="M129.09 127.09H27V28H129.09V127.09ZM30 124.09H126.09V31H30V124.09Z" fill="#002341"/>
<path d="M43.52 97.06C39.38 97.06 36.01 93.69 36.01 89.55C36.01 85.41 39.38 82.04 43.52 82.04C47.66 82.04 51.03 85.41 51.03 89.55C51.03 93.69 47.66 97.06 43.52 97.06ZM43.52 85.05C41.04 85.05 39.02 87.07 39.02 89.55C39.02 92.03 41.04 94.05 43.52 94.05C46 94.05 48.02 92.03 48.02 89.55C48.02 87.07 46 85.05 43.52 85.05Z" fill="#002341"/>
<path d="M106.57 52.02C102.43 52.02 99.06 48.65 99.06 44.51C99.06 40.37 102.43 37 106.57 37C110.71 37 114.08 40.37 114.08 44.51C114.08 48.65 110.71 52.02 106.57 52.02ZM106.57 40.01C104.09 40.01 102.07 42.03 102.07 44.51C102.07 46.99 104.09 49.01 106.57 49.01C109.05 49.01 111.07 46.99 111.07 44.51C111.07 42.03 109.05 40.01 106.57 40.01Z" fill="#002341"/>
<path d="M120.09 112.08V115.08H36.01V112.08H33.01V121.09H36.01V118.08H120.09V121.09H123.09V112.08H120.09Z" fill="#002341"/>
<path d="M64.45 97.84H59.33V95.61H67.27V97.23C64.63 100.43 64.25 102.56 64.06 107.02H61.4C61.62 103.23 62.3 100.82 64.45 97.84Z" fill="#002341"/>
<path d="M68.77 101.57C68.77 97.31 70.98 95.39 73.39 95.39C74.9 95.39 75.99 96.02 76.71 96.76L75.33 98.34C74.93 97.91 74.22 97.53 73.55 97.53C72.29 97.53 71.29 98.43 71.2 101.09C71.79 100.34 72.78 99.88 73.48 99.88C75.44 99.88 76.87 100.99 76.87 103.4C76.87 105.81 75.15 107.23 73.08 107.23C70.87 107.23 68.77 105.58 68.77 101.57ZM74.46 103.4C74.46 102.19 73.83 101.75 72.97 101.75C72.38 101.75 71.71 102.08 71.25 102.88C71.48 104.68 72.24 105.25 73.03 105.25C73.82 105.25 74.47 104.69 74.47 103.4H74.46Z" fill="#002341"/>
<path d="M82.29 98.11H84.45L84.63 99.26H84.7C85.44 98.52 86.22 97.89 87.39 97.89C88.65 97.89 89.4 98.43 89.85 99.38C90.64 98.57 91.47 97.89 92.65 97.89C94.57 97.89 95.43 99.26 95.43 101.49V107.02H92.79V101.83C92.79 100.54 92.45 100.14 91.69 100.14C91.24 100.14 90.74 100.43 90.17 101V107.02H87.53V101.83C87.53 100.54 87.19 100.14 86.44 100.14C86.01 100.14 85.49 100.43 84.93 101V107.02H82.29V98.11Z" fill="#002341"/>
<path d="M114.08 70.04C110.77 70.04 108.07 67.35 108.07 64.03C108.07 60.71 110.76 58.02 114.08 58.02C117.4 58.02 120.09 60.71 120.09 64.03C120.09 67.35 117.4 70.04 114.08 70.04ZM114.08 61.03C112.42 61.03 111.08 62.38 111.08 64.03C111.08 65.68 112.43 67.03 114.08 67.03C115.73 67.03 117.08 65.68 117.08 64.03C117.08 62.38 115.73 61.03 114.08 61.03Z" fill="#002341"/>
<path d="M88.52 67.04L93.06 61.63V56.97L84.6 67.04H88.52Z" fill="#002341"/>
<path d="M96.06 46.2L83.07 46.04L82.93 40.02H36.01V75.8L83.96 76.06L84.03 70.05H96.17L96.05 46.21L96.06 46.2ZM73.63 43.01H78.48L53.39 72.88L48.56 72.85L73.63 43.01ZM44.65 72.83L39.82 72.8L64.85 43H69.7L44.65 72.82V72.83ZM80.06 45.79L80.14 48.99L82.2 49.02L62.12 72.92L57.29 72.89L80.06 45.79ZM86.08 49.07L91.22 49.13L70.98 72.97L66.02 72.94L86.08 49.06V49.07ZM39.01 43.01H43.39L39.01 48.22V52.89L47.31 43.01H52.16L39.01 58.66V63.33L56.08 43.01H60.93L39.01 69.1V72.8V43.01ZM81.07 67.03L81.02 71.3L79.57 73.02L74.89 72.99L93.06 51.59V49.15L93.15 67.02H81.06L81.07 67.03Z" fill="#002341"/>
</svg>
