<svg width="156" height="156" viewBox="0 0 156 156" fill="none" xmlns="http://www.w3.org/2000/svg">
<g clip-path="url(#clip0_11411_69329)">
<rect x="34" y="34" width="88" height="88" rx="2" fill="#C2DDFF"/>
<mask id="mask0_11411_69329" style="mask-type:alpha" maskUnits="userSpaceOnUse" x="17" y="16" width="123" height="123">
<path fill-rule="evenodd" clip-rule="evenodd" d="M18.3761 115.787C17.5951 115.005 17.5951 113.739 18.3761 112.958L113.836 17.4987C114.617 16.7176 115.883 16.7176 116.664 17.4987C117.445 18.2797 117.445 19.5461 116.664 20.3271L21.2046 115.787C20.4235 116.568 19.1572 116.568 18.3761 115.787Z" fill="#002240"/>
<path fill-rule="evenodd" clip-rule="evenodd" d="M138.85 44.8116L46.0112 137.651C45.2301 138.432 43.9638 138.432 43.1827 137.651C42.4017 136.87 42.4017 135.604 43.1827 134.823L136.022 41.9831C136.803 41.2021 138.069 41.2021 138.85 41.9831C139.631 42.7642 139.631 44.0305 138.85 44.8116Z" fill="#002240"/>
<path fill-rule="evenodd" clip-rule="evenodd" d="M95.4508 132.05C94.6698 131.269 94.6698 130.003 95.4508 129.221L130.806 93.8661C131.587 93.0851 132.854 93.0851 133.635 93.8661C134.416 94.6472 134.416 95.9135 133.635 96.6946L98.2793 132.05C97.4982 132.831 96.2319 132.831 95.4508 132.05Z" fill="#002240"/>
<path fill-rule="evenodd" clip-rule="evenodd" d="M24.7401 61.3392C23.9591 60.5582 23.9591 59.2918 24.7401 58.5108L60.0955 23.1554C60.8765 22.3744 62.1429 22.3744 62.9239 23.1554C63.705 23.9365 63.705 25.2028 62.9239 25.9839L27.5686 61.3392C26.7875 62.1202 25.5212 62.1202 24.7401 61.3392Z" fill="#002240"/>
<path fill-rule="evenodd" clip-rule="evenodd" d="M113.873 114.099C113.092 114.88 111.826 114.88 111.045 114.099L89.6778 92.7319C88.8967 91.9508 88.8967 90.6845 89.6778 89.9034C90.4588 89.1224 91.7252 89.1224 92.5062 89.9034L113.873 111.27C114.654 112.051 114.654 113.318 113.873 114.099Z" fill="#002240"/>
<path fill-rule="evenodd" clip-rule="evenodd" d="M67.7675 67.9937C66.9864 68.7747 65.7201 68.7747 64.9391 67.9937L42.9865 46.0411C42.2054 45.26 42.2054 43.9937 42.9864 43.2127C43.7675 42.4316 45.0338 42.4316 45.8149 43.2127L67.7675 65.1653C68.5485 65.9463 68.5485 67.2126 67.7675 67.9937Z" fill="#002240"/>
</mask>
<g mask="url(#mask0_11411_69329)">
<path d="M28.0002 29.9999C28.0002 28.8954 28.8957 27.9999 30.0002 27.9999H126C127.105 27.9999 128 28.8954 128 29.9999V126C128 127.105 127.105 128 126 128H30.0002C28.8957 128 28.0002 127.105 28.0002 126V29.9999Z" fill="#1C3553"/>
<path fill-rule="evenodd" clip-rule="evenodd" d="M26.0002 29.9999C26.0002 27.7908 27.7911 25.9999 30.0002 25.9999H126C128.209 25.9999 130 27.7908 130 29.9999V126C130 128.209 128.209 130 126 130H30.0002C27.7911 130 26.0002 128.209 26.0002 126V29.9999ZM126 29.9999L30.0002 29.9999V126H126V29.9999Z" fill="#1C3553"/>
</g>
<path fill-rule="evenodd" clip-rule="evenodd" d="M26.0002 30C26.0002 27.7909 27.7911 26 30.0002 26H126C128.209 26 130 27.7909 130 30V126C130 128.209 128.209 130 126 130H30.0002C27.7911 130 26.0002 128.209 26.0002 126V30ZM126 30L30.0002 30V126H126V30Z" fill="#1C3553"/>
</g>
<defs>
<clipPath id="clip0_11411_69329">
<rect width="156" height="156" fill="white"/>
</clipPath>
</defs>
</svg>
72.75 82C73.8546 82 74.75 82.8954 74.75 84V111C74.75 112.105 73.8546 113 72.75 113C71.6454 113 70.75 112.105 70.75 111V84C70.75 82.8954 71.6454 82 72.75 82Z" fill="#1C3553"/>
<path fill-rule="evenodd" clip-rule="evenodd" d="M60.5 82C61.6046 82 62.5 82.8954 62.5 84V111C62.5 112.105 61.6046 113 60.5 113C59.3954 113 58.5 112.105 58.5 111V84C58.5 82.8954 59.3954 82 60.5 82Z" fill="#1C3553"/>
<path fill-rule="evenodd" clip-rule="evenodd" d="M85 82C86.1046 82 87 82.8954 87 84V111C87 112.105 86.1046 113 85 113C83.8954 113 83 112.105 83 111V84C83 82.8954 83.8954 82 85 82Z" fill="#1C3553"/>
<path fill-rule="evenodd" clip-rule="evenodd" d="M48.25 82C49.3546 82 50.25 82.8954 50.25 84V111C50.25 112.105 49.3546 113 48.25 113C47.1454 113 46.25 112.105 46.25 111V84C46.25 82.8954 47.1454 82 48.25 82Z" fill="#1C3553"/>
<path fill-rule="evenodd" clip-rule="evenodd" d="M36 82C37.1046 82 38 82.8954 38 84V111C38 112.105 37.1046 113 36 113C34.8954 113 34 112.105 34 111V84C34 82.8954 34.8954 82 36 82Z" fill="#1C3553"/>
</svg>
