<svg width="156" height="156" viewBox="0 0 156 156" fill="none" xmlns="http://www.w3.org/2000/svg">
<path d="M77.71 114.75L128.27 83.06L119.34 77.95L77.01 103.62L36.49 78.05L27.56 83.12L77.71 114.75Z" fill="white"/>
<path d="M122.28 76.17L134.09 69.01L78.19 37L21 68.28L33.61 76.24L21.72 82.98L77.7 118.3L134.1 82.95L122.27 76.18L122.28 76.17ZM96.53 50.96L61.89 71.03L53.57 66.11L88.08 46.12L96.53 50.96ZM107.36 57.16L93.94 64.93L86.33 60.33L99.54 52.68L107.36 57.16ZM118.49 63.53L84.18 83.41L76.33 78.61L110.37 58.88L118.49 63.53ZM58.96 88.67L73.38 80.32L81.23 85.12L66.69 93.55L58.96 88.67ZM48.65 82.17L83.38 62.05L90.99 66.65L56.1 86.87L48.66 82.17H48.65ZM104.74 74.97L111.62 79.13L77.05 100.09L69.55 95.36L104.74 74.97ZM50.6 67.84L58.92 72.76L45.79 80.37L37.74 75.29L50.6 67.84ZM114.52 77.38L107.7 73.26L121.5 65.26L128.19 69.09L114.52 77.38ZM72.24 51.82L65.17 47.54L78.16 40.44L85.06 44.39L72.24 51.82ZM62.12 49.21L69.28 53.54L34.86 73.48L26.91 68.47L62.12 49.21ZM77 103.62L119.34 77.95L128.27 83.06L77.71 114.75L27.56 83.12L36.49 78.06L77 103.62Z" fill="#002341"/>
<path d="M128.18 69.09L121.49 65.26L107.69 73.25L114.51 77.37L128.18 69.09Z" fill="white"/>
<path d="M65.17 47.54L72.24 51.82L85.06 44.39L78.15 40.44L65.17 47.54Z" fill="white"/>
<path d="M69.28 53.53L62.12 49.21L26.91 68.46L34.86 73.48L69.28 53.53Z" fill="white"/>
<path d="M111.61 79.13L104.73 74.97L69.54 95.36L77.04 100.09L111.61 79.13Z" fill="white"/>
<path d="M73.37 80.32L58.95 88.67L66.67 93.55L81.22 85.12L73.37 80.32Z" fill="white"/>
<path d="M83.36 62.05L48.64 82.17L56.08 86.87L90.97 66.65L83.36 62.05Z" fill="white"/>
<path d="M53.56 66.11L61.88 71.03L96.52 50.96L88.07 46.12L53.56 66.11Z" fill="white"/>
<path d="M86.32 60.33L93.93 64.94L107.35 57.16L99.53 52.68L86.32 60.33Z" fill="white"/>
<path d="M76.32 78.61L84.17 83.41L118.48 63.53L110.36 58.88L76.32 78.61Z" fill="white"/>
<path d="M45.77 80.36L58.9 72.76L50.59 67.83L37.73 75.29L45.77 80.36Z" fill="white"/>
</svg>
