<svg width="156" height="156" viewBox="0 0 156 156" fill="none" xmlns="http://www.w3.org/2000/svg">
<rect width="28" height="88" rx="2" transform="matrix(-1 0 0 1 126 34)" fill="#C2DDFF"/>
<path d="M24 77.7131H53.113M53.113 77.7131V63.6261M53.113 77.7131L53.113 91.8" stroke="#1C3553" stroke-width="4" stroke-linecap="round" stroke-linejoin="round"/>
<path d="M24 92.5739V30C24 28.8954 24.8954 28 26 28H53.113M24 113.511V126C24 127.105 24.8954 128 26 128L61.3137 128V112.574C69.5 112.574 81 114.074 81 128L90 128C91.1046 128 92 127.105 92 126V89.7876M92 69V30C92 28.8954 91.1046 28 90 28L53.113 28M53.113 28V43.5" stroke="#1C3553" stroke-width="4" stroke-linecap="round" stroke-linejoin="round"/>
<path d="M81 28H127C129.761 28 132 30.2386 132 33V123C132 125.761 129.761 128 127 128H81" stroke="#1C3553" stroke-width="4" stroke-linecap="round" stroke-linejoin="round" stroke-dasharray="6 6"/>
</svg>
