<svg width="156" height="156" viewBox="0 0 156 156" fill="none" xmlns="http://www.w3.org/2000/svg">
<path d="M82.9192 41.4292L67.3386 32.0409C66.5287 31.5528 66.7822 30.3081 67.7183 30.1735C77.3231 28.792 91.9363 26.5225 100.087 30.6187C100.751 30.9527 100.725 31.8626 100.079 32.2311L83.9307 41.4413C83.6162 41.6207 83.2293 41.616 82.9192 41.4292Z" fill="#C2DDFF"/>
<path d="M117.213 68.2829L131.356 79.3844C132.012 79.8995 132.966 79.4295 132.934 78.5959C132.463 66.3771 127.883 56.7148 123.89 48.9232C123.477 48.1169 122.291 48.2366 122.042 49.1077L116.869 67.2217C116.758 67.6125 116.894 68.0319 117.213 68.2829Z" fill="#C2DDFF"/>
<path d="M50.9981 68.3124L37.3479 79.744C36.697 80.2891 35.713 79.8227 35.7416 78.9743C36.1492 66.8808 39.9707 58.6268 43.8367 51.0684C44.2361 50.2875 45.3757 50.3671 45.6666 51.1945L51.2995 67.214C51.4377 67.6072 51.3176 68.0448 50.9981 68.3124Z" fill="#C2DDFF"/>
<path fill-rule="evenodd" clip-rule="evenodd" d="M84.7318 57.8527C84.3647 57.5774 83.8573 57.5873 83.5012 57.8766L65.1155 72.815C64.7836 73.0847 64.6599 73.5356 64.8077 73.9368L72.8711 95.8232C73.016 96.2163 73.3905 96.4775 73.8095 96.4775H94.3927C94.8176 96.4775 95.1961 96.2089 95.3365 95.8079L103.412 72.7353C103.556 72.3238 103.417 71.8665 103.068 71.6049L84.7318 57.8527Z" fill="#C2DDFF"/>
<path d="M102.151 105.77L94.7931 122.39C94.432 123.205 95.2404 124.04 96.0624 123.694C110.051 117.803 117.348 110.31 123.655 104.229C124.359 103.55 123.782 102.344 122.813 102.476L102.93 105.184C102.586 105.231 102.291 105.453 102.151 105.77Z" fill="#C2DDFF"/>
<path d="M66.7692 105.531L74.2292 122.382C74.5747 123.162 73.8461 123.984 73.0344 123.72C55.3941 117.994 50.8843 110.254 45.1944 104.063C44.5328 103.343 45.1383 102.105 46.107 102.237L65.9897 104.945C66.3336 104.992 66.6287 105.214 66.7692 105.531Z" fill="#C2DDFF"/>
<path fill-rule="evenodd" clip-rule="evenodd" d="M82.7878 54.4091C83.5038 53.8636 84.496 53.8636 85.212 54.4091L106.212 70.4091C106.914 70.944 107.182 71.8759 106.873 72.7022L97.8726 96.7022C97.5798 97.4829 96.8336 98 95.9999 98H71.9999C71.1662 98 70.42 97.4829 70.1272 96.7022L61.1272 72.7022C60.8173 71.8759 61.0858 70.944 61.7878 70.4091L82.7878 54.4091ZM65.3946 72.6898L73.3859 94H94.6139L102.605 72.6898L83.9999 58.5144L65.3946 72.6898Z" fill="#1C3553"/>
<path fill-rule="evenodd" clip-rule="evenodd" d="M84 41C85.1046 41 86 41.8954 86 43V56C86 57.1046 85.1046 58 84 58C82.8954 58 82 57.1046 82 56V43C82 41.8954 82.8954 41 84 41Z" fill="#1C3553"/>
<path fill-rule="evenodd" clip-rule="evenodd" d="M50.1792 66.1724C50.6362 65.1669 51.8219 64.7222 52.8275 65.1793L63.8275 70.179C64.8331 70.6361 65.2777 71.8218 64.8207 72.8274C64.3636 73.8329 63.1779 74.2776 62.1723 73.8205L51.1723 68.8207C50.1668 68.3637 49.7221 67.178 50.1792 66.1724Z" fill="#1C3553"/>
<path fill-rule="evenodd" clip-rule="evenodd" d="M73.0291 93.285C73.9762 93.8533 74.2834 95.0818 73.7151 96.029L67.7151 106.029C67.1468 106.976 65.9183 107.283 64.9711 106.715C64.0239 106.147 63.7168 104.918 64.2851 103.971L70.2851 93.971C70.8534 93.0239 72.0819 92.7167 73.0291 93.285Z" fill="#1C3553"/>
<path fill-rule="evenodd" clip-rule="evenodd" d="M83.9998 29C58.5947 29 37.9998 49.5949 37.9998 75C37.9998 100.405 58.5947 121 83.9998 121C109.405 121 130 100.405 130 75C130 49.5949 109.405 29 83.9998 29ZM33.9998 75C33.9998 47.3858 56.3855 25 83.9998 25C111.614 25 134 47.3858 134 75C134 102.614 111.614 125 83.9998 125C56.3855 125 33.9998 102.614 33.9998 75Z" fill="#1C3553"/>
<path fill-rule="evenodd" clip-rule="evenodd" d="M63.2692 30.9979C63.8227 30.042 65.0462 29.7157 66.0022 30.2691L84.0001 40.689L101.998 30.2691C102.954 29.7157 104.178 30.042 104.731 30.9979C105.284 31.9539 104.958 33.1774 104.002 33.7309L85.0022 44.7309C84.3823 45.0897 83.6179 45.0897 82.998 44.7309L63.998 33.7309C63.0421 33.1774 62.7158 31.9539 63.2692 30.9979Z" fill="#1C3553"/>
<path fill-rule="evenodd" clip-rule="evenodd" d="M45.4252 45.084C46.4832 44.7666 47.5981 45.3669 47.9155 46.4249L53.9157 66.425C54.1342 67.1535 53.9207 67.9429 53.3647 68.4619L38.3647 82.4618C37.5572 83.2155 36.2917 83.1718 35.538 82.3643C34.7843 81.5568 34.828 80.2913 35.6355 79.5376L49.7275 66.385L44.0842 47.5743C43.7668 46.5164 44.3672 45.4014 45.4252 45.084Z" fill="#1C3553"/>
<path fill-rule="evenodd" clip-rule="evenodd" d="M117.821 66.1724C117.364 65.1669 116.178 64.7222 115.173 65.1793L104.173 70.179C103.167 70.6361 102.722 71.8218 103.179 72.8273C103.637 73.8329 104.822 74.2776 105.828 73.8205L116.828 68.8207C117.833 68.3637 118.278 67.178 117.821 66.1724Z" fill="#1C3553"/>
<path fill-rule="evenodd" clip-rule="evenodd" d="M122.575 45.0843C121.517 44.7669 120.402 45.3673 120.084 46.4253L114.084 66.4253C113.866 67.1538 114.079 67.9432 114.635 68.4621L129.635 82.4623C130.443 83.2159 131.708 83.1723 132.462 82.3648C133.215 81.5573 133.172 80.2917 132.364 79.5381L118.272 66.3852L123.915 47.5747C124.233 46.5167 123.633 45.4017 122.575 45.0843Z" fill="#1C3553"/>
<path fill-rule="evenodd" clip-rule="evenodd" d="M42.0322 100.642C42.2298 99.5553 43.271 98.8345 44.3577 99.0321L66.3578 103.032C66.9302 103.136 67.4289 103.485 67.7238 103.986L77.7238 120.986C78.2838 121.938 77.966 123.164 77.0139 123.724C76.0619 124.284 74.8361 123.966 74.276 123.014L64.7407 106.804L43.6421 102.968C42.5554 102.77 41.8346 101.729 42.0322 100.642Z" fill="#1C3553"/>
<path fill-rule="evenodd" clip-rule="evenodd" d="M94.7721 94.4213C93.9002 95.0995 93.7431 96.356 94.4213 97.2279L101.421 106.228C102.099 107.1 103.356 107.257 104.228 106.579C105.1 105.901 105.257 104.644 104.579 103.772L97.5787 94.7721C96.9006 93.9003 95.644 93.7432 94.7721 94.4213Z" fill="#1C3553"/>
<path fill-rule="evenodd" clip-rule="evenodd" d="M126.95 99.5568C126.706 98.4797 125.634 97.805 124.557 98.0498L102.557 103.05C102.019 103.172 101.556 103.511 101.276 103.986L91.2762 120.986C90.7162 121.938 91.034 123.164 91.986 123.724C92.9381 124.284 94.1639 123.966 94.7239 123.014L104.286 106.759L125.443 101.95C126.52 101.705 127.195 100.634 126.95 99.5568Z" fill="#1C3553"/>
<path fill-rule="evenodd" clip-rule="evenodd" d="M27.6386 98.8527C28.272 99.7576 28.052 101.005 27.1471 101.638L17.147 108.638C16.2421 109.272 14.9951 109.052 14.3616 108.147C13.7282 107.242 13.9482 105.995 14.8531 105.362L24.8532 98.3612C25.7581 97.7278 27.0051 97.9478 27.6386 98.8527Z" fill="#1C3553"/>
<path fill-rule="evenodd" clip-rule="evenodd" d="M30.6275 110.838C31.2695 111.736 31.0613 112.986 30.1625 113.628L16.1625 123.627C15.2636 124.269 14.0145 124.061 13.3725 123.162C12.7305 122.264 12.9387 121.015 13.8375 120.373L27.8375 110.373C28.7363 109.731 29.9854 109.939 30.6275 110.838Z" fill="#1C3553"/>
<path fill-rule="evenodd" clip-rule="evenodd" d="M39.6384 118.853C40.2718 119.758 40.0518 121.005 39.1469 121.638L29.147 128.638C28.2422 129.272 26.9951 129.052 26.3616 128.147C25.7282 127.242 25.9482 125.995 26.8531 125.362L36.853 118.361C37.7578 117.728 39.0049 117.948 39.6384 118.853Z" fill="#1C3553"/>
</svg>
