<svg width="156" height="156" viewBox="0 0 156 156" fill="none" xmlns="http://www.w3.org/2000/svg">
<path d="M129.92 102.17C134.4 94.79 136.99 86.13 136.99 76.88C136.99 49.93 115.07 28 88.12 28C61.17 28 39.25 49.93 39.25 76.87C39.25 103.81 61.18 125.74 88.12 125.74C105.68 125.74 121.1 116.43 129.72 102.49C129.8 102.39 129.87 102.28 129.93 102.16L129.92 102.17ZM107.47 104.81L101.66 97.35L110.03 75.03L119.4 70.77L133.45 83.88C132.54 89.78 130.5 95.31 127.57 100.24L107.47 104.81ZM77.66 96.1C77.55 95.79 77.35 95.51 77.05 95.33H77.03L69.2 74.45L88.13 60.03L107.06 74.45L98.93 96.12H77.67L77.66 96.1ZM69.6 104.82L49.2 101.11C45.98 95.95 43.74 90.12 42.78 83.87L56.83 70.76L66.2 75.02L74.38 96.84L69.59 104.82H69.6ZM133.86 80.14L121.41 68.52L126.45 51.72C131.21 58.95 133.99 67.59 133.99 76.88C133.99 77.98 133.94 79.07 133.86 80.15V80.14ZM124.26 48.67C124.26 48.67 124.2 48.76 124.19 48.81L118.46 67.89L109.04 72.17L89.62 57.37V46.15L107.62 35.73C107.73 35.67 107.81 35.57 107.9 35.49C114.32 38.57 119.91 43.11 124.26 48.67ZM104.54 34.05L88.12 43.56L71.7 34.05C76.8 32.09 82.33 31 88.12 31C93.91 31 99.44 32.09 104.54 34.05ZM68.34 35.49C68.43 35.58 68.5 35.67 68.62 35.73L86.62 46.15V57.37L67.2 72.17L57.78 67.89L52.05 48.8C52.03 48.75 52 48.71 51.98 48.66C56.33 43.1 61.92 38.56 68.34 35.48V35.49ZM49.79 51.71L54.83 68.51L42.38 80.13C42.3 79.05 42.25 77.96 42.25 76.86C42.25 67.57 45.03 58.93 49.79 51.7V51.71ZM51.61 104.59L69.41 107.83L77.43 121.47C66.98 118.97 57.92 112.89 51.6 104.59H51.61ZM81.37 122.24L72.1 106.48L76.53 99.09H99.22L105.05 106.59L95.96 122.05C93.41 122.49 90.79 122.74 88.11 122.74C85.82 122.74 83.56 122.57 81.36 122.24H81.37ZM99.96 121.18L107.83 107.8L125.17 103.86C119.07 112.22 110.22 118.44 99.96 121.18Z" fill="#002341"/>
<path d="M22.49 108.48C22.79 108.48 23.09 108.39 23.35 108.21L33.22 101.3C33.9 100.82 34.06 99.89 33.59 99.21C33.11 98.53 32.18 98.37 31.5 98.84L21.63 105.75C20.95 106.23 20.79 107.16 21.26 107.84C21.55 108.26 22.02 108.48 22.49 108.48Z" fill="#002341"/>
<path d="M36.54 111.04C36.06 110.37 35.12 110.21 34.45 110.69L20.63 120.56C19.96 121.04 19.8 121.98 20.28 122.65C20.57 123.06 21.03 123.28 21.5 123.28C21.8 123.28 22.11 123.19 22.37 123L36.19 113.13C36.86 112.65 37.02 111.71 36.54 111.04Z" fill="#002341"/>
<path d="M43.34 118.58L33.47 125.49C32.79 125.97 32.63 126.9 33.1 127.58C33.39 128 33.86 128.22 34.33 128.22C34.63 128.22 34.93 128.13 35.19 127.95L45.06 121.04C45.74 120.56 45.9 119.63 45.43 118.95C44.95 118.27 44.02 118.11 43.34 118.58Z" fill="#002341"/>
</svg>
