<svg width="156" height="156" viewBox="0 0 156 156" fill="none" xmlns="http://www.w3.org/2000/svg">
<path d="M58.54 106.06C59.3684 106.06 60.04 105.388 60.04 104.56C60.04 103.732 59.3684 103.06 58.54 103.06C57.7116 103.06 57.04 103.732 57.04 104.56C57.04 105.388 57.7116 106.06 58.54 106.06Z" fill="#002341"/>
<path d="M94.57 106.06C95.3984 106.06 96.07 105.388 96.07 104.56C96.07 103.732 95.3984 103.06 94.57 103.06C93.7416 103.06 93.07 103.732 93.07 104.56C93.07 105.388 93.7416 106.06 94.57 106.06Z" fill="#002341"/>
<path d="M67.54 106.07H88.56C89.39 106.07 90.06 105.4 90.06 104.57C90.06 103.74 89.39 103.07 88.56 103.07H67.54C66.71 103.07 66.04 103.74 66.04 104.57C66.04 105.4 66.71 106.07 67.54 106.07Z" fill="#002341"/>
<path d="M126.1 118.08V34H30.01V118.08H21V121.08H135.11V118.08H126.1ZM51.56 91.11C51.55 90.64 51.92 89.49 52.38 88.72C52.64 88.69 53.06 88.71 53.54 88.76C53.18 89.69 52.84 90.59 52.54 91.44C52.12 91.34 51.75 91.22 51.56 91.11ZM101.93 88.65C102.51 88.58 103.03 88.55 103.32 88.59C103.81 89.4 104.2 90.6 104.17 91.08C103.96 91.21 103.52 91.35 103.03 91.46C102.69 90.58 102.32 89.63 101.93 88.65ZM101.09 94.82C79.15 96.83 60.34 95.35 54.55 94.79C57.15 87.21 60.68 79.31 62.29 78.61C65.37 77.28 90.74 77.22 93.47 78.52C94.82 79.39 98.32 87.32 101.08 94.81L101.09 94.82ZM54.04 97.76C59.76 98.32 79.34 99.9 102.08 97.75V110.05C102.08 111.17 101.09 112.07 99.86 112.07H56.25C55.03 112.07 54.03 111.16 54.03 110.05V97.77L54.04 97.76ZM93.4 118.07H62.72C62.92 117.55 63.04 116.99 63.04 116.39V115.06H93.07V116.39C93.07 116.98 93.19 117.54 93.39 118.07H93.4ZM55.72 118.07C54.8 118.07 54.04 117.32 54.04 116.39V114.57C54.72 114.88 55.46 115.06 56.26 115.06H60.05V116.39C60.05 117.31 59.3 118.07 58.37 118.07H55.72ZM97.76 118.07C96.84 118.07 96.08 117.32 96.08 116.39V115.06H99.87C100.67 115.06 101.41 114.87 102.09 114.57V116.39C102.09 117.31 101.34 118.07 100.41 118.07H97.76ZM104.77 118.07C104.97 117.55 105.09 116.99 105.09 116.39V96.08C105.09 95.66 104.91 95.25 104.6 94.97C104.51 94.89 104.39 94.84 104.28 94.78C104.23 94.63 104.16 94.45 104.1 94.29C105.07 94.03 106.12 93.59 106.69 92.77C108.06 90.81 106.19 87.39 105.62 86.59C104.91 85.59 103.27 85.31 100.75 85.77C98.82 81.26 96.62 76.88 95.01 75.93C92.04 74.19 65.11 74.12 61.12 75.85C59.03 76.75 56.67 81.26 54.73 85.87C52.36 85.47 50.81 85.75 50.12 86.72C49.55 87.51 47.72 90.88 49.07 92.8C49.62 93.59 50.62 94.03 51.57 94.28C51.4 94.8 51.24 95.28 51.11 95.65H51.14C51.1 95.8 51.05 95.93 51.05 96.08V116.39C51.05 116.98 51.17 117.54 51.37 118.07H42.04V67.02H114.11V118.07H104.77ZM114.1 55.01H42.02V46H114.09V55.01H114.1ZM114.1 58.01V64.02H42.02V58.01H114.1ZM117.1 118.07V43.01H39.02V118.08H33.01V37H123.09V118.07H117.08H117.1Z" fill="#002341"/>
</svg>
