<svg width="156" height="156" viewBox="0 0 156 156" fill="none" xmlns="http://www.w3.org/2000/svg">
<path fill-rule="evenodd" clip-rule="evenodd" d="M37 56C35.8954 56 35 56.8954 35 58V111C35 112.105 35.8954 113 37 113H120C121.105 113 122 112.105 122 111V58C122 56.8954 121.105 56 120 56H37ZM51 107.001V86.1724C51 82.6777 54.1734 72.01 55.9045 66.451C56.5477 64.3856 58.4635 63 60.6267 63H96.3733C98.5365 63 100.452 64.3856 101.096 66.451C102.827 72.01 106 82.6777 106 86.1724V107C106 109.209 104.209 111 102 111H55C52.7909 111 51 109.21 51 107.001Z" fill="#C2DDFF"/>
<path d="M60.6422 70.5503C60.8517 69.6428 61.6597 69 62.591 69H94.409C95.3403 69 96.1483 69.6428 96.3578 70.5503L98.4347 79.5503C98.7239 80.8035 97.7721 82 96.4859 82H60.5141C59.2279 82 58.2761 80.8035 58.5653 79.5503L60.6422 70.5503Z" fill="#C2DDFF"/>
<circle cx="63.2941" cy="101.294" r="3.29412" fill="#C2DDFF"/>
<circle cx="94.9408" cy="101.294" r="3.29412" fill="#C2DDFF"/>
<path d="M134 46C134 48.2091 132.209 50 130 50H26C23.7909 50 22 48.2091 22 46V38C22 37.4477 22.4477 37 23 37H133C133.552 37 134 37.4477 134 38V46Z" fill="#C2DDFF"/>
<path fill-rule="evenodd" clip-rule="evenodd" d="M137 119C137 120.105 136.105 121 135 121H114C112.895 121 112 120.105 112 119C112 117.895 112.895 117 114 117H126V52H30.9999V66C30.9999 67.1046 30.1045 68 28.9999 68C27.8954 68 26.9999 67.1046 26.9999 66V51C26.9999 49.3431 28.3431 48 29.9999 48H127C128.657 48 130 49.3431 130 51V117H135C136.105 117 137 117.895 137 119ZM45 119C45 120.105 44.1046 121 43 121H21.9999C20.8954 121 19.9999 120.105 19.9999 119C19.9999 117.895 20.8954 117 21.9999 117H26.9999V74C26.9999 72.8954 27.8954 72 28.9999 72C30.1045 72 30.9999 72.8954 30.9999 74V117H43C44.1046 117 45 117.895 45 119Z" fill="#1C3553"/>
<path fill-rule="evenodd" clip-rule="evenodd" d="M136 46C136 49.3137 133.314 52 130 52H26C22.6863 52 20 49.3137 20 46V38C20 36.3431 21.3431 35 23 35H133C134.657 35 136 36.3431 136 38V46ZM130 48C131.105 48 132 47.1046 132 46V39H24V46C24 47.1046 24.8954 48 26 48H130Z" fill="#1C3553"/>
<path fill-rule="evenodd" clip-rule="evenodd" d="M60.6267 65C59.3231 65 58.1922 65.8312 57.8141 67.0456C56.9518 69.8146 55.7352 73.8406 54.736 77.5996C54.2361 79.4803 53.7958 81.2747 53.4819 82.8012C53.1594 84.3697 53 85.5188 53 86.1724V107.001C53 108.105 53.8947 109 55 109H102C103.105 109 104 108.105 104 107V86.1724C104 85.5188 103.841 84.3697 103.518 82.8012C103.204 81.2747 102.764 79.4803 102.264 77.5996C101.265 73.8406 100.048 69.8146 99.1859 67.0456C98.8078 65.8312 97.6769 65 96.3733 65H60.6267ZM53.9949 65.8564C54.9031 62.94 57.6038 61 60.6267 61H96.3733C99.3962 61 102.097 62.94 103.005 65.8564C103.874 68.6465 105.109 72.7338 106.13 76.572C106.64 78.49 107.101 80.3652 107.436 81.9955C107.763 83.5838 108 85.0786 108 86.1724V107C108 110.314 105.314 113 102 113H55C51.687 113 49 110.315 49 107.001V86.1724C49 85.0786 49.2373 83.5838 49.5639 81.9955C49.8991 80.3652 50.3604 78.49 50.8702 76.572C51.8905 72.7338 53.1261 68.6465 53.9949 65.8564Z" fill="#1C3553"/>
<path fill-rule="evenodd" clip-rule="evenodd" d="M51 88C51 86.8954 51.8954 86 53 86H104C105.105 86 106 86.8954 106 88C106 89.1046 105.105 90 104 90H53C51.8954 90 51 89.1046 51 88Z" fill="#1C3553"/>
<path fill-rule="evenodd" clip-rule="evenodd" d="M43 83C43 81.8954 43.8954 81 45 81H51C52.1046 81 53 81.8954 53 83C53 84.1046 52.1046 85 51 85H45C43.8954 85 43 84.1046 43 83Z" fill="#1C3553"/>
<path fill-rule="evenodd" clip-rule="evenodd" d="M104 83C104 81.8954 104.895 81 106 81H111C112.105 81 113 81.8954 113 83C113 84.1046 112.105 85 111 85H106C104.895 85 104 84.1046 104 83Z" fill="#1C3553"/>
<path fill-rule="evenodd" clip-rule="evenodd" d="M72 101.235C72 100.13 72.8954 99.2349 74 99.2349H83.8824C84.9869 99.2349 85.8824 100.13 85.8824 101.235C85.8824 102.339 84.9869 103.235 83.8824 103.235H74C72.8954 103.235 72 102.339 72 101.235Z" fill="#1C3553"/>
<path fill-rule="evenodd" clip-rule="evenodd" d="M63.1767 99.9409C62.462 99.9409 61.8826 100.52 61.8826 101.235C61.8826 101.95 62.462 102.529 63.1767 102.529C63.8914 102.529 64.4708 101.95 64.4708 101.235C64.4708 100.52 63.8914 99.9409 63.1767 99.9409ZM57.8826 101.235C57.8826 98.3112 60.2528 95.9409 63.1767 95.9409C66.1005 95.9409 68.4708 98.3112 68.4708 101.235C68.4708 104.159 66.1005 106.529 63.1767 106.529C60.2528 106.529 57.8826 104.159 57.8826 101.235Z" fill="#1C3553"/>
<path fill-rule="evenodd" clip-rule="evenodd" d="M94.8234 99.9409C94.1087 99.9409 93.5293 100.52 93.5293 101.235C93.5293 101.95 94.1087 102.529 94.8234 102.529C95.5381 102.529 96.1175 101.95 96.1175 101.235C96.1175 100.52 95.5381 99.9409 94.8234 99.9409ZM89.5293 101.235C89.5293 98.3112 91.8996 95.9409 94.8234 95.9409C97.7473 95.9409 100.118 98.3112 100.118 101.235C100.118 104.159 97.7473 106.529 94.8234 106.529C91.8996 106.529 89.5293 104.159 89.5293 101.235Z" fill="#1C3553"/>
<rect x="56" y="111" width="7" height="9" rx="2" stroke="#1C3553" stroke-width="4" stroke-linecap="round" stroke-linejoin="round"/>
<rect x="94" y="111" width="7" height="9" rx="2" stroke="#1C3553" stroke-width="4" stroke-linecap="round" stroke-linejoin="round"/>
</svg>
