<svg width="156" height="156" viewBox="0 0 156 156" fill="none" xmlns="http://www.w3.org/2000/svg">
<path d="M118.1 101.56C116.08 97.4 110.15 87.9 98.07 87.63V74.03C100.78 72.84 107.91 69.29 108.66 64.85C108.87 63.6 108.68 61.72 106.56 59.89C104.48 58.09 102.71 58.22 101.6 58.64C99.17 59.56 97.58 62.84 96.57 66.05C95.56 62.84 93.97 59.57 91.54 58.64C90.42 58.22 88.66 58.09 86.58 59.89C84.46 61.72 84.27 63.6 84.48 64.85C85.23 69.29 92.36 72.84 95.07 74.03V87.76C91.88 88.11 88.96 89.13 86.34 90.82C83.75 89.31 80.44 88.27 76.18 88.27C71.47 88.27 67.81 89.53 64.97 91.29C62.27 89.44 59.28 88.28 56.05 87.83V71.05C59.58 69.61 70.43 64.7 71.36 58.24C71.75 55.54 70.43 53.04 67.46 50.81C64.38 48.5 61.99 48.82 60.54 49.5C56.72 51.28 54.83 57.64 53.91 62.83C52.15 58.18 49.3 52.73 45.34 51.59C43.02 50.92 40.72 51.72 38.48 53.95C35.84 56.59 35.8 58.99 36.22 60.54C37.86 66.45 49.19 70.1 53.05 71.18V87.61C53.05 87.61 53 87.61 52.97 87.61C40.48 87.61 34.83 97.29 32.94 101.56H23V104.56H131.1V101.56H118.1ZM61.79 52.22C61.96 52.14 62.28 51.99 62.77 51.99C63.41 51.99 64.35 52.24 65.64 53.21C67.7 54.75 68.59 56.26 68.37 57.81C67.81 61.75 60.71 65.7 56.22 67.7C56.84 61.68 58.65 53.68 61.79 52.22ZM39.1 59.74C38.98 59.32 38.63 58.03 40.58 56.08C42 54.66 43.07 54.37 43.76 54.37C44.1 54.37 44.34 54.44 44.48 54.48C47.77 55.42 50.81 62.4 52.41 67.88C46.95 66.18 40 63.03 39.09 59.75L39.1 59.74ZM102.67 61.45C102.74 61.42 102.86 61.38 103.04 61.38C103.36 61.38 103.86 61.52 104.6 62.16C105.75 63.15 105.78 63.89 105.7 64.35C105.35 66.44 101.76 68.87 98.53 70.5C99.36 66.52 100.88 62.13 102.66 61.45H102.67ZM87.45 64.35C87.37 63.89 87.4 63.15 88.55 62.16C89.29 61.52 89.8 61.38 90.11 61.38C90.29 61.38 90.41 61.43 90.48 61.45C92.26 62.13 93.78 66.52 94.61 70.5C91.38 68.87 87.79 66.44 87.44 64.35H87.45ZM97.56 90.62C107.38 90.62 112.56 97.51 114.77 101.56H94.72C94.12 99.63 92.54 95.79 89.02 92.72C91.56 91.33 94.42 90.62 97.55 90.62H97.56ZM91.58 101.56H59.73C61.3 98.13 65.75 91.27 76.19 91.27C86.59 91.27 90.36 98.2 91.58 101.56ZM52.97 90.62C56.42 90.62 59.58 91.49 62.4 93.19C58.94 96.21 57.2 99.8 56.5 101.56H36.23C38.26 97.54 43.17 90.62 52.94 90.62H52.97Z" fill="#002341"/>
</svg>
