<svg width="156" height="156" viewBox="0 0 156 156" fill="none" xmlns="http://www.w3.org/2000/svg">
<path d="M95.71 104.34C94.85 104.32 94.19 104.97 94.16 105.79L93.9 114.18C93.9 114.27 93.86 114.35 93.79 114.4L89.18 117.7C88.2299 118.38 87.71 119.52 87.83 120.69L88.36 126.01C88.3699 126.12 88.32 126.2 88.27 126.24C88.2 126.3 88.1199 126.32 88.0299 126.3L83.8899 125.26C83.29 125.11 82.66 125.14 82.07 125.33L74.83 127.72L62.9399 126.86L55 124.48C54.17 124.23 53.25 124.32 52.49 124.74L45.6 128.5C45.52 128.55 45.44 128.55 45.36 128.5C45.3 128.47 45.23 128.42 45.21 128.3L43.97 120.83C43.96 120.76 43.97 120.69 44.01 120.64L49.02 113.13C49.67 112.15 49.75 110.94 49.24 109.88C48.73 108.82 47.72 108.14 46.55 108.05L38.81 107.45C38.74 107.45 38.67 107.41 38.63 107.35L35.19 103.22C35.21 103.13 35.22 103.03 35.22 102.94V99.75C35.22 99.53 35.17 99.31 35.08 99.11L34.96 98.84C34.82 98.51 34.66 98.15 34.39 97.78L32.45 95.19C32.39 95.11 32.31 94.92 32.23 94.73V90.99C32.37 90.61 32.42 90.1 32.19 89.49L30.05 83.78C30.01 83.68 30.04 83.57 30.11 83.5L31.44 82.17C32.15 81.46 32.44 80.54 32.23 79.65V76.82C32.37 76.51 32.42 76.15 32.36 75.78L31.7 71.83C31.68 71.72 31.73 71.61 31.83 71.55L36.18 69.06C37.07 68.55 37.68 67.64 37.8 66.63L38.56 60.61L40.86 55.24C41.16 54.53 41.2 53.74 40.98 53.01L39.07 46.65C39.04 46.56 39.07 46.48 39.1 46.44C39.13 46.39 39.18 46.33 39.28 46.32L45.55 45.07C45.62 45.06 45.68 45.07 45.74 45.1L48.25 46.61C49.65 47.45 51.47 47.12 52.49 45.85L54.25 43.65C55.15 42.53 55.21 40.98 54.42 39.79L52.53 36.95C52.45 36.83 52.48 36.67 52.59 36.59L53.61 35.83C54.88 34.88 55.28 33.16 54.57 31.75L52.38 27.37C52.38 27.37 52.31 27.22 52.4 27.09C52.5 26.96 52.62 26.98 52.66 26.99L62.97 28.81C63.08 28.83 63.1699 28.92 63.1899 29.04L63.7 32.6C63.91 34.07 65.09 35.22 66.58 35.39L71.3899 35.93C71.4799 35.94 71.54 35.99 71.57 36.03C71.5999 36.07 71.6399 36.14 71.63 36.23L71.3899 38.15C71.2399 39.36 71.77 40.55 72.7799 41.25C73.7899 41.94 75.0899 42.02 76.1699 41.45C76.2799 41.39 76.38 41.32 76.47 41.24L87.75 31.17C88.15 31.3 88.76 31.58 89.24 31.83L88.8899 35.94C88.8299 36.62 89.24 37.26 89.9 37.49L95.8 39.53L100.32 46.22C100.32 46.22 100.38 46.31 100.42 46.35C100.67 46.72 101.47 48.3 101.8 49.06L99.11 57.58C98.86 58.37 99.2999 59.21 100.09 59.46C100.88 59.71 101.72 59.27 101.97 58.48L104.81 49.47C104.88 49.26 104.9 49.03 104.86 48.81C104.77 48.17 103.43 45.45 102.8 44.55L98 37.44C97.82 37.17 97.5499 36.97 97.24 36.86L91.97 35.04L92.3 31.17C92.34 30.66 92.13 30.17 91.73 29.86C91.7 29.83 88.22 27.41 86.4799 28.33C86.3699 28.39 86.27 28.46 86.18 28.54L74.65 38.83C74.65 38.83 74.5299 38.82 74.4799 38.78C74.3499 38.69 74.36 38.57 74.3699 38.53L74.61 36.61C74.72 35.73 74.4799 34.87 73.93 34.18C73.38 33.49 72.6 33.05 71.72 32.96L66.91 32.42C66.79 32.41 66.6899 32.31 66.68 32.19L66.1699 28.63C65.9699 27.23 64.9 26.12 63.5 25.87L53.15 24.05C51.93 23.83 50.7 24.32 49.96 25.31C49.22 26.31 49.1 27.62 49.66 28.73L51.85 33.11C51.91 33.22 51.87 33.36 51.77 33.44L50.75 34.2C49.36 35.24 49.03 37.19 49.99 38.63L51.88 41.47C51.94 41.57 51.94 41.69 51.86 41.78L50.1 43.98C50.01 44.08 49.87 44.11 49.75 44.04L47.24 42.53C46.54 42.11 45.71 41.97 44.92 42.13L38.65 43.38C37.75 43.56 36.96 44.12 36.49 44.9C36.02 45.69 35.9 46.64 36.16 47.52L38.07 53.89C38.09 53.95 38.08 54.01 38.06 54.07L35.76 59.44C35.64 59.72 35.56 60.02 35.52 60.32L34.78 66.27C34.77 66.35 34.72 66.43 34.65 66.47L30.3 68.96C29.12 69.63 28.47 70.99 28.7 72.34L29.28 75.82C29.22 75.98 29.19 76.15 29.19 76.33V79.87C29.19 79.96 29.19 80.04 29.21 80.13L27.95 81.39C27.04 82.3 26.75 83.66 27.2 84.85L29.23 90.27C29.2 90.39 29.18 90.52 29.18 90.65V95.04C29.18 95.25 29.23 95.46 29.31 95.65L29.42 95.9C29.56 96.24 29.72 96.62 30.01 97L31.95 99.59C32.01 99.67 32.09 99.86 32.17 100.04V102.71C31.98 103.5 32.18 104.35 32.76 105.04L36.29 109.28C36.85 109.95 37.68 110.38 38.55 110.44L46.29 111.04C46.39 111.04 46.46 111.1 46.51 111.19C46.55 111.28 46.55 111.37 46.49 111.46L41.48 118.97C41.02 119.66 40.84 120.5 40.97 121.32L42.21 128.79C42.38 129.83 43.06 130.73 44 131.19C44.45 131.41 44.94 131.52 45.43 131.52C45.97 131.52 46.51 131.39 47 131.12L53.89 127.36C53.96 127.33 54.03 127.32 54.1 127.34L62.0499 129.73C62.27 129.8 62.5099 129.84 62.75 129.86L74.58 130.71C75.01 130.73 75.4399 130.69 75.84 130.55L82.97 128.17C83.02 128.16 83.0799 128.15 83.1199 128.17L87.25 129.2C88.2799 129.46 89.38 129.2 90.18 128.5C90.9799 127.8 91.4 126.76 91.3 125.7L90.77 120.38C90.76 120.29 90.7999 120.19 90.88 120.14L95.49 116.84C96.35 116.23 96.86 115.23 96.86 114.23L97.12 105.89C97.14 105.06 96.49 104.37 95.67 104.34H95.71Z" fill="#002341"/>
<path d="M126.47 106.96L107.55 91.24C109.28 87.92 110.27 84.17 110.27 80.17C110.27 66.92 99.49 56.15 86.25 56.15C73.0099 56.15 62.2299 66.93 62.2299 80.17C62.2299 93.41 73.0099 104.19 86.25 104.19C92.06 104.19 97.39 102.12 101.55 98.67L120.24 114.29C121.42 115.3 122.85 115.81 124.2 115.81C125.55 115.81 126.8 115.31 127.66 114.3C129.38 112.28 128.86 109 126.48 106.96H126.47ZM65.2299 80.17C65.2299 68.58 74.66 59.15 86.25 59.15C97.84 59.15 107.27 68.58 107.27 80.17C107.27 83.92 106.27 87.43 104.55 90.48C104.51 90.52 104.45 90.54 104.42 90.59C104.27 90.77 104.18 90.97 104.13 91.18C100.42 97.18 93.81 101.2 86.25 101.2C74.66 101.2 65.2299 91.77 65.2299 80.18V80.17ZM125.37 112.35C124.73 113.09 123.27 112.94 122.17 112L103.73 96.59C104.54 95.73 105.29 94.81 105.97 93.84L124.53 109.26C125.62 110.19 126 111.61 125.37 112.35Z" fill="#002341"/>
</svg>
