<svg width="156" height="156" viewBox="0 0 156 156" fill="none" xmlns="http://www.w3.org/2000/svg">
<path d="M103.66 105.93C102.81 105.91 102.14 106.56 102.11 107.38L101.9 114.17C101.9 114.26 101.86 114.34 101.79 114.39L97.1699 117.69C96.2199 118.37 95.6999 119.51 95.8199 120.68L96.3499 126C96.3499 126.09 96.3299 126.17 96.2599 126.23C96.1899 126.29 96.1099 126.31 96.0199 126.29L91.8899 125.26C91.2899 125.11 90.6499 125.13 90.0599 125.33L82.8199 127.72L70.9299 126.86L62.9799 124.48C62.1299 124.23 61.2499 124.32 60.4799 124.74L53.5899 128.5C53.4899 128.56 53.3999 128.53 53.3499 128.5C53.2699 128.46 53.2199 128.39 53.1999 128.3L51.9599 120.83C51.9499 120.76 51.9599 120.69 51.9999 120.64L57.0099 113.13C57.6599 112.15 57.7399 110.94 57.2299 109.88C56.7199 108.82 55.7099 108.14 54.5399 108.05L46.7999 107.45C46.7299 107.45 46.6599 107.41 46.6199 107.35L43.0099 103.01C42.7799 102.69 42.4899 102.35 41.9599 102.01V100.66C42.2899 100.42 42.6099 100.07 42.7499 99.59C42.8799 99.17 42.9099 98.51 42.3699 97.79L40.3899 95.14C40.0699 94.68 39.6799 94.3 38.9599 93.97V91.84C39.4199 91.67 39.8099 91.42 40.0599 90.99C40.2499 90.67 40.4099 90.16 40.1699 89.49L38.0299 83.78C37.9899 83.68 38.0199 83.57 38.0899 83.5L39.4199 82.17C40.1799 81.41 40.1299 80.64 40.0399 80.25C39.8799 79.6 39.4199 79.17 38.9599 78.89V77.66C39.4099 77.56 39.7499 77.38 40.0199 77.04C40.2799 76.71 40.3999 76.21 40.3299 75.79L39.6699 71.85C39.6499 71.74 39.6999 71.63 39.7999 71.57L44.1499 69.08C45.0399 68.57 45.6499 67.66 45.7699 66.65L46.5299 60.63L48.8299 55.26C49.1299 54.56 49.1799 53.77 48.9599 53.03L47.0499 46.66C47.0199 46.57 47.0499 46.49 47.0799 46.45C47.1099 46.4 47.1599 46.35 47.2599 46.33L53.5299 45.08C53.5999 45.08 53.6599 45.08 53.7199 45.11L56.2299 46.62C57.6299 47.46 59.4499 47.13 60.4599 45.86L62.2299 43.66C63.1199 42.54 63.1899 40.99 62.3999 39.8L60.5099 36.96C60.4299 36.84 60.4599 36.68 60.5699 36.6L61.5899 35.84C62.8499 34.89 63.2599 33.18 62.5499 31.76L60.3599 27.38C60.3599 27.38 60.2899 27.23 60.3799 27.1C60.4799 26.97 60.5999 26.99 60.6399 27L70.9499 28.82C71.0599 28.84 71.1499 28.93 71.1699 29.04L71.6799 32.6C71.8899 34.08 73.0799 35.22 74.5599 35.39L79.3699 35.93C79.4599 35.94 79.5199 35.99 79.5499 36.03C79.5799 36.07 79.6199 36.14 79.6099 36.23L79.3699 38.15C79.2199 39.36 79.7499 40.55 80.7599 41.25C81.7699 41.95 83.0699 42.02 84.1499 41.45C84.2599 41.39 84.3599 41.32 84.4499 41.24L95.7299 31.17C96.1299 31.3 96.7399 31.58 97.2199 31.83L96.8699 35.94C96.8099 36.62 97.2199 37.26 97.8699 37.49L103.77 39.53L108.29 46.22C108.29 46.22 108.35 46.31 108.39 46.35C108.64 46.72 109.44 48.3 109.77 49.06L107.88 55.06C107.63 55.85 108.07 56.69 108.86 56.94C109.65 57.19 110.49 56.75 110.74 55.96L112.79 49.47C112.86 49.26 112.88 49.03 112.84 48.81C112.75 48.17 111.41 45.44 110.78 44.54L105.98 37.43C105.8 37.16 105.53 36.96 105.23 36.85L99.9599 35.03L100.29 31.16C100.33 30.65 100.12 30.16 99.7199 29.85C99.6899 29.82 96.2199 27.4 94.4699 28.32C94.3599 28.38 94.2599 28.45 94.1699 28.53L82.6399 38.82C82.6399 38.82 82.5299 38.82 82.4699 38.77C82.3799 38.71 82.3399 38.62 82.3599 38.52L82.5999 36.6C82.7099 35.72 82.4699 34.86 81.9199 34.17C81.3699 33.48 80.5899 33.04 79.7199 32.95L74.9099 32.41C74.7899 32.4 74.6899 32.3 74.6799 32.18L74.1699 28.62C73.9699 27.22 72.8999 26.11 71.4999 25.86L61.1499 24.05C59.9199 23.83 58.6999 24.32 57.9599 25.31C57.2199 26.31 57.0999 27.62 57.6599 28.73L59.8499 33.11C59.9099 33.23 59.8699 33.37 59.7699 33.44L58.7499 34.2C57.3599 35.24 57.0299 37.19 57.9899 38.63L59.8799 41.47C59.9399 41.57 59.9399 41.69 59.8699 41.78L58.0999 43.99C58.0099 44.09 57.8699 44.12 57.7599 44.05L55.2499 42.54C54.5499 42.12 53.7299 41.98 52.9299 42.14L46.6699 43.39C45.7699 43.57 44.9799 44.12 44.5099 44.91C44.0399 45.7 43.9199 46.65 44.1799 47.53L46.0899 53.89C46.1099 53.95 46.0999 54.01 46.0799 54.07L43.7799 59.43C43.6599 59.71 43.5799 60.01 43.5399 60.32L42.7999 66.27C42.7899 66.35 42.7399 66.43 42.6699 66.47L38.3199 68.96C37.1399 69.64 36.4899 70.99 36.7199 72.34L37.1399 74.86C36.4599 75.01 35.9599 75.61 35.9599 76.33V79.87C35.9599 80.28 36.1299 80.67 36.4099 80.94L35.9699 81.38C35.0699 82.28 34.7699 83.64 35.2199 84.84L36.8799 89.26C36.3399 89.49 35.9699 90.03 35.9699 90.64V95.03C35.9699 95.71 36.4199 96.3 37.0799 96.48C37.7299 96.65 37.8899 96.78 37.9399 96.85C37.9499 96.86 38.0299 96.98 38.0399 96.99L39.3499 98.74C39.1099 99.01 38.9699 99.36 38.9699 99.74V102.93C38.9699 103.55 39.3499 104.1 39.9299 104.33C40.4099 104.52 40.4899 104.62 40.6199 104.79C40.6799 104.87 40.7399 104.95 40.7999 105.02L44.3299 109.25C44.8899 109.93 45.7199 110.35 46.5899 110.42L54.3299 111.02C54.4299 111.02 54.4999 111.08 54.5499 111.17C54.5899 111.26 54.5899 111.35 54.5299 111.44L49.5199 118.95C49.0599 119.64 48.8799 120.48 49.0199 121.3L50.2599 128.77C50.4299 129.81 51.0999 130.71 52.0499 131.17C52.4999 131.39 52.9899 131.5 53.4799 131.5C54.0199 131.5 54.5599 131.37 55.0499 131.1L61.9499 127.34C62.0099 127.31 62.0799 127.3 62.1499 127.32L70.0899 129.7C70.3199 129.77 70.5699 129.82 70.7999 129.83L82.6399 130.68C83.0799 130.7 83.4999 130.65 83.8999 130.52L91.0299 128.14H91.1799L95.3099 129.17C96.3499 129.43 97.4399 129.17 98.2399 128.47C99.0399 127.78 99.4599 126.73 99.3599 125.67L98.8299 120.35C98.8199 120.26 98.8599 120.16 98.9399 120.11L103.55 116.82C104.41 116.21 104.92 115.21 104.92 114.21L105.13 107.46C105.15 106.63 104.5 105.94 103.68 105.91L103.66 105.93Z" fill="#002341"/>
<path d="M95.9999 56.15C82.7499 56.15 71.9799 66.93 71.9799 80.17C71.9799 93.41 82.7599 104.19 95.9999 104.19C109.24 104.19 120.02 93.41 120.02 80.17C120.02 66.93 109.24 56.15 95.9999 56.15ZM95.9999 101.19C84.4099 101.19 74.9799 91.76 74.9799 80.17C74.9799 68.58 84.4099 59.15 95.9999 59.15C107.59 59.15 117.02 68.58 117.02 80.17C117.02 91.76 107.59 101.19 95.9999 101.19Z" fill="#002341"/>
<path d="M101.19 67.7249L90.1525 90.557L92.8535 91.8627L103.891 69.0306L101.19 67.7249Z" fill="#002341"/>
<path d="M95.2199 76.27C95.7099 74.05 95.3799 71.87 94.3199 70.27C93.5599 69.13 92.4599 68.37 91.2199 68.15C88.1699 67.59 85.0799 70.22 84.2099 74.14C83.7199 76.36 84.0499 78.54 85.1099 80.14C85.8699 81.28 86.9699 82.03 88.2099 82.26C88.4899 82.31 88.7599 82.34 89.0399 82.34C91.8099 82.34 94.4299 79.84 95.2199 76.27ZM92.2899 75.62C91.7499 78.07 90.0199 79.53 88.7599 79.31C88.3099 79.23 87.9299 78.95 87.6199 78.48C87.0199 77.57 86.8399 76.19 87.1499 74.79C87.6499 72.5 89.2099 71.08 90.4199 71.08C90.5099 71.08 90.5899 71.08 90.6799 71.1C91.1299 71.18 91.5099 71.46 91.8199 71.93C92.4199 72.84 92.5999 74.22 92.2899 75.62Z" fill="#002341"/>
<path d="M105.29 79.41C102.24 78.85 99.1499 81.48 98.2799 85.4C97.7899 87.62 98.1199 89.8 99.1799 91.4C99.9399 92.54 101.04 93.29 102.28 93.52C102.56 93.57 102.83 93.6 103.11 93.6C105.88 93.6 108.5 91.1 109.29 87.53C109.78 85.31 109.45 83.13 108.39 81.53C107.63 80.39 106.53 79.63 105.29 79.41ZM106.36 86.88C105.82 89.33 104.09 90.79 102.83 90.57C102.38 90.49 102 90.21 101.69 89.74C101.09 88.83 100.91 87.45 101.22 86.05C101.72 83.76 103.28 82.34 104.49 82.34C104.58 82.34 104.66 82.34 104.75 82.36C105.2 82.44 105.58 82.72 105.89 83.19C106.49 84.1 106.67 85.48 106.36 86.88Z" fill="#002341"/>
</svg>
