<svg width="156" height="156" viewBox="0 0 156 156" fill="none" xmlns="http://www.w3.org/2000/svg">
<path d="M76.5 65.07H78.37C79.53 70.08 83.01 73.14 87.88 73.14C90.77 73.14 93.17 72 95.22 69.67L92.96 67.69C91.5 69.36 89.88 70.14 87.88 70.14C84.73 70.14 82.46 68.27 81.48 65.07H90.49V62.07H80.97C80.95 61.77 80.95 61.46 80.95 61.15C80.95 60.97 80.95 60.79 80.95 60.61H92.83V57.61H81.38C82.34 54.11 84.81 52.05 88.3 52.05C89.89 52.05 91.54 52.8 92.71 54.06L94.91 52.02C93.16 50.13 90.75 49.05 88.3 49.05C83.08 49.05 79.4 52.31 78.29 57.62H76.5V60.62H77.95C77.95 60.8 77.95 60.98 77.95 61.16C77.95 61.47 77.95 61.78 77.97 62.08H76.51V65.08L76.5 65.07Z" fill="#002341"/>
<path d="M61.3 76.04C59.39 72.12 58.42 67.9 58.42 63.49C58.42 47.79 71.05 35.01 86.58 35.01C102.11 35.01 114.74 47.79 114.74 63.49C114.74 69.02 113.17 74.39 110.2 79.01L112.72 80.64C116.01 75.54 117.74 69.61 117.74 63.5C117.74 46.14 103.76 32.02 86.58 32.02C69.4 32.02 55.42 46.14 55.42 63.5C55.42 68.37 56.49 73.03 58.6 77.37L61.3 76.06V76.04Z" fill="#002341"/>
<path d="M130.63 81.99C130.28 80.17 129.21 79.31 128.37 78.91C125.15 77.36 119.85 80.06 119.33 80.34L103.15 87.81C102.92 86.89 102.45 86.06 101.72 85.38C98.75 82.61 92.55 82.96 91.96 83H88.26C86.07 83 83.99 82.53 82.07 81.6C79.07 80.14 74.45 78.35 69.5 78.11C61.21 77.72 56.65 80.48 50.19 85.1C47.78 86.82 41.93 89.81 38.96 91.28L36.65 86.47L27 91.09L28.3 93.8L35.25 90.47L49.8 120.81L42.85 124.14L44.15 126.85L53.81 122.22L50.94 116.22L55.56 114.41C60.25 112.61 65.53 111.82 71.25 112.08C74.29 112.22 78.56 112.4 82.58 112.53C88.42 112.71 94.35 111.49 99.68 108.96L101.94 107.89C105.27 106.31 108.68 104.24 112.36 101.56C113.31 100.87 114.34 100.14 115.41 99.38C123.07 93.97 131.75 87.84 130.63 81.97V81.99ZM113.67 96.95C112.59 97.72 111.54 98.45 110.58 99.15C107.06 101.72 103.8 103.69 100.64 105.19L98.38 106.26C93.47 108.58 88.05 109.71 82.66 109.54C78.65 109.41 74.4 109.23 71.37 109.09C65.24 108.81 59.54 109.66 54.46 111.62L49.63 113.51L40.27 93.98C43.29 92.47 49.34 89.39 51.94 87.53C58.43 82.9 62.25 80.74 69.36 81.1C73.8 81.31 78.01 82.96 80.76 84.29C83.05 85.41 85.65 86 88.26 86H92.06C93.5 85.9 97.97 85.98 99.67 87.57C100.1 87.97 100.3 88.44 100.3 89.03C100.3 89.49 100.14 89.85 99.79 90.19C98.37 91.58 94.5 92.04 92.34 92H75.35V95H92.31C92.37 95 92.46 95 92.59 95C93.99 95 99.34 94.83 101.89 92.33C102.2 92.02 102.45 91.68 102.66 91.32L120.65 83.01C122.51 82.04 125.72 80.95 127.06 81.6C127.29 81.71 127.55 81.91 127.67 82.54C128.43 86.51 119.54 92.78 113.66 96.93L113.67 96.95Z" fill="#002341"/>
</svg>
