<svg width="156" height="156" viewBox="0 0 156 156" fill="none" xmlns="http://www.w3.org/2000/svg">
<path d="M65.24 49.45C65.49 50 66.04 50.32 66.61 50.32C66.82 50.32 67.03 50.28 67.24 50.18C67.99 49.83 68.32 48.94 67.98 48.19L64.6 40.85C64.25 40.1 63.36 39.77 62.61 40.11C61.86 40.46 61.53 41.35 61.87 42.1L65.25 49.44L65.24 49.45Z" fill="#002341"/>
<path d="M76.42 48.01C77.25 48.01 77.92 47.34 77.92 46.51V37.5C77.92 36.67 77.25 36 76.42 36C75.59 36 74.92 36.67 74.92 37.5V46.51C74.92 47.34 75.59 48.01 76.42 48.01Z" fill="#002341"/>
<path d="M88.5 50.18C88.7 50.27 88.92 50.32 89.13 50.32C89.7 50.32 90.24 50 90.5 49.45L93.88 42.11C94.23 41.36 93.9 40.46 93.14 40.12C92.39 39.77 91.5 40.1 91.15 40.86L87.77 48.2C87.42 48.95 87.75 49.85 88.51 50.19L88.5 50.18Z" fill="#002341"/>
<path d="M124.25 89.59L133.84 83.14L132.16 80.65L125.06 85.43L106.32 57.58L113.42 52.8L111.74 50.31L102.15 56.76L106.19 62.76C103.37 65.5 98.67 68.37 96.87 69.42C85.68 63.36 75.6 64.91 71.73 65.88C70.53 66.18 69.37 66.84 68.47 67.74C67.77 68.44 67.12 69.11 66.49 69.78C65.86 69.85 64.87 69.86 63.29 69.65C61.19 69.38 59.14 68.5 57.35 67.1L50.35 61.68L53.66 56.76L44.07 50.31L42.39 52.8L49.49 57.58L30.75 85.43L23.65 80.65L21.97 83.14L31.56 89.59L34.78 84.8C38.59 86.73 44.26 90.84 46.72 92.67L44.23 95.84C43.31 97.01 42.9 98.47 43.08 99.96C43.26 101.44 44 102.77 45.17 103.69C46.08 104.4 47.13 104.77 48.2 104.85C47.79 106.86 48.48 109.01 50.2 110.36C51.22 111.16 52.44 111.55 53.64 111.55C54.48 111.55 55.31 111.36 56.07 111C56.39 112.04 57.02 113 57.95 113.73C58.94 114.51 60.14 114.92 61.38 114.92C61.61 114.92 61.83 114.91 62.06 114.88C62.33 114.85 62.59 114.78 62.85 114.71C63.09 115.92 63.72 117.06 64.77 117.88C65.72 118.62 66.87 119.02 68.06 119.02C68.28 119.02 68.49 119.01 68.71 118.98C70.13 118.81 71.4 118.1 72.28 116.98L74.41 114.27L78.95 117.54C79.65 118.03 80.46 118.27 81.29 118.26C82.85 118.26 84.48 117.43 85.54 115.92C85.92 115.38 86.2 114.78 86.38 114.17L87.91 115.28C88.91 116.02 90.08 116.38 91.23 116.38C92.94 116.38 94.63 115.6 95.72 114.13C96.38 113.24 96.72 112.22 96.79 111.19C97.29 111.33 97.8 111.42 98.32 111.42C98.6 111.42 98.87 111.4 99.15 111.36C100.63 111.14 101.93 110.36 102.82 109.17C103.71 107.98 104.08 106.5 103.86 105.02C103.74 104.22 103.45 103.49 103.03 102.83C104 102.45 104.85 101.82 105.49 100.97C106.19 100.03 106.55 98.92 106.57 97.76C108.49 95.94 116.38 88.6 121.71 85.88L124.21 89.59H124.25ZM46.09 99.6C46.01 98.91 46.19 98.24 46.62 97.7L50.06 93.33C50.57 92.68 51.33 92.34 52.1 92.34C52.66 92.34 53.22 92.52 53.69 92.89C54.23 93.31 54.57 93.93 54.65 94.61C54.71 95.07 54.63 95.52 54.45 95.94L50.2 101.35C49.29 102.03 48 102.06 47.06 101.32C46.52 100.9 46.18 100.28 46.1 99.6H46.09ZM52.08 107.99C50.96 107.11 50.77 105.48 51.64 104.36L52.45 103.33C52.65 103.14 52.86 102.96 53.04 102.74L56.48 98.37C56.69 98.11 56.86 97.82 57.02 97.53L58.78 95.3C59.66 94.18 61.29 93.98 62.41 94.86C63.53 95.74 63.73 97.37 62.85 98.49L60.65 101.3L57.05 105.88C57.05 105.88 57.05 105.88 57.05 105.89L55.74 107.56C54.86 108.68 53.23 108.88 52.11 108L52.08 107.99ZM61.73 111.89C61.04 111.97 60.37 111.79 59.83 111.36C58.71 110.48 58.52 108.86 59.39 107.74L63 103.15C63.51 102.51 64.27 102.17 65.03 102.17C65.59 102.17 66.15 102.35 66.62 102.72C67.16 103.14 67.5 103.76 67.58 104.44C67.66 105.13 67.47 105.81 67.05 106.34L66.06 107.61L63.46 110.92C63.04 111.46 62.42 111.8 61.74 111.88L61.73 111.89ZM72.11 112.36L69.95 115.11C69.57 115.6 69.01 115.91 68.39 115.98C67.76 116.05 67.15 115.88 66.66 115.5C65.64 114.7 65.47 113.22 66.26 112.21L68.42 109.46C68.88 108.87 69.57 108.57 70.26 108.57C70.77 108.57 71.28 108.73 71.71 109.07C72.73 109.87 72.9 111.35 72.11 112.36ZM103.11 99.17C102.7 99.72 102.1 100.08 101.41 100.18C100.71 100.28 100.04 100.11 99.49 99.7L86.47 90.03L84.68 92.44L99.91 103.75C100.46 104.16 100.82 104.76 100.92 105.45C101.02 106.14 100.85 106.82 100.44 107.37C100.03 107.92 99.43 108.28 98.74 108.38C98.05 108.48 97.37 108.31 96.82 107.9L84.68 98.88L84.65 98.92L82.43 97.27L80.64 99.68L92.8 108.71C93.94 109.56 94.18 111.18 93.34 112.33C92.49 113.47 90.87 113.71 89.71 112.86L85.61 109.86C85.39 109.6 85.15 109.36 84.87 109.16L79.5 105.38L74.51 101.74L72.74 104.17L83.47 112.01C83.57 112.22 83.61 112.43 83.62 112.58C83.66 113.11 83.48 113.7 83.13 114.19C82.48 115.11 81.36 115.53 80.73 115.09L75.59 111.38C75.74 109.64 75.04 107.87 73.57 106.71C72.66 106 71.6 105.64 70.52 105.59C70.59 105.1 70.63 104.59 70.56 104.09C70.38 102.6 69.64 101.28 68.47 100.36C67.68 99.74 66.78 99.39 65.85 99.26C66.92 96.96 66.33 94.14 64.25 92.51C62.12 90.84 59.15 90.97 57.16 92.67C56.8 91.85 56.26 91.11 55.53 90.54C53.51 88.96 50.75 89.01 48.77 90.46C46.47 88.74 40.72 84.54 36.48 82.32L48.68 64.19L55.51 69.48C57.72 71.2 60.28 72.29 62.9 72.63C63.24 72.67 63.56 72.7 63.88 72.73C60.24 77.12 58.58 80.65 58.93 83.23C59.15 84.85 60.07 85.59 60.42 85.82C64.39 88.59 70.75 83.15 75.4 78.1C75.6 77.89 75.9 77.86 76.15 78.04L84.33 83.77C84.38 83.8 86.58 85.05 89.44 85.9L89.4 85.95L102.56 95.57C103.11 95.98 103.47 96.58 103.57 97.27C103.67 97.96 103.5 98.64 103.09 99.19L103.11 99.17ZM105.66 94.53C105.31 94.01 104.88 93.53 104.36 93.14L95.37 86.56C97.5 86.32 99.52 85.41 100.93 83.29C101.38 82.61 101.2 81.69 100.52 81.23C99.84 80.77 98.91 80.94 98.44 81.61C98.3 81.81 94.91 86.43 85.96 81.23L77.89 75.57C76.42 74.54 74.41 74.75 73.21 76.06C67.43 82.36 63.42 84.25 62.12 83.32C62.12 83.32 61.92 83.13 61.9 82.57C61.87 81.38 62.66 77.76 70.6 69.86C71.12 69.34 71.79 68.96 72.47 68.79C76.07 67.89 85.6 66.43 96.14 72.44C96.6 72.7 97.15 72.7 97.61 72.44C97.9 72.28 104.02 68.85 107.89 65.28L120.06 83.37C115.07 86.03 108.6 91.78 105.65 94.52L105.66 94.53Z" fill="#002341"/>
</svg>
