<svg width="156" height="156" viewBox="0 0 156 156" fill="none" xmlns="http://www.w3.org/2000/svg">
<path fill-rule="evenodd" clip-rule="evenodd" d="M127.78 82.6695L123.5 78L110.5 86.5L105 94L103 100.5L98.9998 103L96.4998 107.5L90.4998 109L86.9998 113L75.4998 109L70.9998 111.75L65.9998 109H59.9998L49.9998 100.5L45.9998 92.5L43.9998 86.5L34.4998 76L30.2344 82.8248C32.6579 107.622 53.5659 127 78.9999 127C104.487 127 125.429 107.541 127.78 82.6695ZM111.346 41.1924L105 45L109 52L103 56H83.4998L72.4998 61L58.9998 57L47.4998 53.5L51.9998 45L46.251 41.5507C54.9298 33.7478 66.4103 29 78.9998 29C91.3955 29 102.716 33.6028 111.346 41.1924Z" fill="#C2DDFF"/>
<path fill-rule="evenodd" clip-rule="evenodd" d="M78.9996 25C68.3313 25 58.4047 28.15 50.092 33.57C49.1667 34.1733 47.9276 33.9123 47.3243 32.987C46.721 32.0617 46.982 30.8226 47.9073 30.2193C56.8501 24.3885 67.5322 21 78.9996 21C90.5385 21 101.282 24.4308 110.259 30.3285C111.182 30.935 111.439 32.175 110.832 33.0982C110.226 34.0213 108.986 34.278 108.062 33.6715C99.7181 28.1893 89.7344 25 78.9996 25ZM133.121 88.0478C134.199 88.2877 134.879 89.3562 134.639 90.4344C128.964 115.934 106.211 135 78.9996 135C52.5305 135 30.28 116.96 23.8629 92.5077C23.5825 91.4393 24.2213 90.3459 25.2897 90.0655C26.3581 89.7851 27.4515 90.4239 27.7319 91.4923C33.6989 114.23 54.3934 131 78.9996 131C104.297 131 125.458 113.275 130.734 89.5656C130.974 88.4874 132.043 87.8078 133.121 88.0478Z" fill="#1C3553"/>
<path fill-rule="evenodd" clip-rule="evenodd" d="M73.1039 63.5847C75.251 62.3695 77.4586 61.1201 79.473 59.9571C80.6611 59.2712 82.4645 58.6916 84.6676 58.2598C86.8382 57.8344 89.2599 57.578 91.5915 57.4673C93.9236 57.3565 96.1203 57.3936 97.8347 57.5398C98.6944 57.6131 99.3991 57.7111 99.9229 57.8214C100.415 57.9249 100.592 58.0088 100.595 58.0044C100.595 58.0034 100.587 57.998 100.571 57.9875C101.213 58.4248 102.05 58.4508 102.718 58.0544L110.021 53.7198C110.971 53.156 111.284 51.9289 110.72 50.9791C110.156 50.0293 108.929 49.7163 107.979 50.2801L101.536 54.1045C101.264 54.0231 100.995 53.9594 100.747 53.9071C100.01 53.7521 99.1321 53.636 98.1746 53.5543C96.2544 53.3905 93.8779 53.3542 91.4017 53.4718C88.925 53.5894 86.3032 53.8631 83.8982 54.3345C81.5257 54.7995 79.2214 55.4836 77.473 56.493C75.5732 57.5899 73.4404 58.7971 71.3312 59.9911C67.1506 62.3575 63.0627 64.6715 61.0661 65.9688C60.9584 66.0387 60.8578 66.1188 60.7655 66.2081C58.2203 68.669 58.6543 72.2311 60.0174 74.5921C61.3804 76.953 64.2484 79.1099 67.6522 78.1362C67.7372 78.1119 67.8204 78.082 67.9014 78.0466L82.2809 71.7773C84.0754 72.9416 86.6588 74.2579 89.586 75.0974C93.0842 76.1008 97.293 76.4833 101.261 74.8493C102.283 74.4287 102.77 73.2598 102.349 72.2385C101.929 71.2171 100.76 70.73 99.7384 71.1506C96.9068 72.3166 93.6989 72.1158 90.6888 71.2525C87.6857 70.3911 85.098 68.9301 83.6863 67.8898C83.1116 67.4664 82.3549 67.3813 81.7006 67.6666L66.4466 74.3173C65.475 74.5345 64.2852 73.9842 63.4815 72.5921C62.6919 71.2246 62.7922 69.9404 63.4349 69.2009C65.3908 67.95 69.1444 65.8256 73.1039 63.5847ZM52.5148 78.0597C52.1977 78.1389 51.9049 78.2947 51.662 78.5134L44.5641 84.9015C42.143 87.0804 41.9026 90.7929 44.0223 93.266L46.6587 96.3418C46.4941 97.2451 46.697 98.1405 46.9369 98.7883C47.3651 99.9444 48.1561 101.089 48.9814 102.052C49.8235 103.034 50.8105 103.954 51.7574 104.646C52.2303 104.992 52.7287 105.306 53.2236 105.543C53.3418 105.599 53.4718 105.657 53.6115 105.712C53.8386 106.13 54.1544 106.657 54.5678 107.229C55.5094 108.532 57.0219 110.156 59.2305 111.183C61.0736 112.04 62.9564 111.501 64.2817 110.559C65.6988 112.616 67.8608 113.731 69.3048 114.29C71.423 115.11 73.5406 114.288 74.8682 112.96L81.4141 106.414C81.7892 106.039 81.9999 105.53 81.9999 105C81.9999 102.457 81.0265 100.403 79.4536 99.0051C78.4034 98.0716 77.1402 97.4772 75.8306 97.1947C75.4889 95.4108 74.6369 93.8075 73.3378 92.6384C72.1051 91.5289 70.5407 90.878 68.8137 90.8119C68.4068 88.5233 67.344 86.6643 65.7348 85.5C64.5387 84.6345 63.1566 84.2408 61.7571 84.299C61.5375 82.741 60.7931 81.3272 59.7591 80.244C58.0206 78.4227 55.3062 77.3618 52.5148 78.0597ZM60.6428 88.6545C61.7198 88.0978 62.6837 88.2296 63.39 88.7406C64.0717 89.2338 64.7931 90.2946 64.9627 92.1542L54.5424 101.706C54.4135 101.625 54.2713 101.529 54.1174 101.416C53.4393 100.921 52.6763 100.216 52.0184 99.4484C51.3437 98.6613 50.8847 97.9305 50.6879 97.3991C50.664 97.3346 50.6461 97.2801 50.6326 97.2346L60.6428 88.6545ZM50.5965 97.0783C50.5986 97.0558 50.5969 97.0426 50.5955 97.0417C50.5941 97.0408 50.5931 97.052 50.5965 97.0783ZM49.2168 93.1799L47.0594 90.6628C46.3528 89.8385 46.4329 88.6009 47.2399 87.8746L53.9191 81.8634C54.994 81.7496 56.0848 82.1878 56.8657 83.0059C57.6283 83.8048 57.9756 84.8326 57.7555 85.861L49.2168 93.1799ZM57.4955 104.425L67.9423 94.8492C69.0993 94.6797 70.0074 95.0224 70.662 95.6115C71.2892 96.176 71.7777 97.0578 71.941 98.1741L68.3576 101.459L65.1862 104.366L65.185 104.367L62.1531 107.146C61.8997 107.379 61.6241 107.521 61.392 107.578C61.1736 107.632 61.0255 107.606 60.917 107.556C59.531 106.912 58.5066 105.851 57.8098 104.886C57.6944 104.727 57.5897 104.572 57.4955 104.425ZM74.7182 101.055C75.5163 101.178 76.2443 101.504 76.7962 101.995C77.345 102.483 77.795 103.197 77.9458 104.226L72.0398 110.132C71.5405 110.631 71.0401 110.672 70.7489 110.559C69.3882 110.033 68.0035 109.176 67.3144 107.841L74.7182 101.055ZM125.516 75.8571C124.964 74.9005 123.741 74.5727 122.784 75.125C119.203 77.1928 117.136 79.1474 115.45 80.7422C115.219 80.9607 114.995 81.1724 114.775 81.3767C113.044 82.9875 111.537 84.1949 108.45 85.0769C107.388 85.3803 106.773 86.4873 107.077 87.5494C107.38 88.6115 108.487 89.2264 109.549 88.923C113.462 87.805 115.509 86.1576 117.5 84.3053C117.736 84.086 117.969 83.8652 118.205 83.6426C119.869 82.0715 121.625 80.413 124.784 78.5891C125.741 78.0368 126.069 76.8136 125.516 75.8571Z" fill="#1C3553"/>
<path fill-rule="evenodd" clip-rule="evenodd" d="M127.252 31.0386C126.697 30.8386 126.083 30.8932 125.573 31.1878L104.456 43.3794C103.996 43.6449 103.661 44.0824 103.524 44.5955C103.387 45.1085 103.46 45.655 103.726 46.1144L125.296 83.3263C126.379 85.1952 128.751 85.8663 130.653 84.8423L140.46 79.5621C143.094 78.1439 144.281 75.002 143.243 72.1964L128.448 32.2256C128.244 31.673 127.806 31.2387 127.252 31.0386ZM125.52 35.8371L139.492 73.5849C139.838 74.5201 139.442 75.5674 138.564 76.0401L128.757 81.3203L108.191 45.8418L112.376 43.4259L129.67 73.3812C130.222 74.3378 131.446 74.6655 132.402 74.1132C133.359 73.5609 133.686 72.3378 133.134 71.3812L115.84 41.4259L125.52 35.8371Z" fill="#1C3553"/>
<path fill-rule="evenodd" clip-rule="evenodd" d="M78.7111 102.106C79.2051 101.118 80.4064 100.717 81.3944 101.211L91.3944 106.211C92.2328 106.63 92.6676 107.576 92.4402 108.485C91.844 110.87 90.6673 112.618 88.942 113.631C87.2613 114.617 85.3634 114.726 83.6526 114.48C80.2913 113.996 76.856 112.032 74.8578 110.642C73.9511 110.011 73.7273 108.765 74.3581 107.858C74.9889 106.951 76.2353 106.727 77.1421 107.358C78.9772 108.635 81.7919 110.171 84.2223 110.52C85.4073 110.691 86.2906 110.549 86.9173 110.181C87.2786 109.969 87.6687 109.615 88.0092 108.991L79.6055 104.789C78.6175 104.295 78.2171 103.094 78.7111 102.106Z" fill="#1C3553"/>
<path fill-rule="evenodd" clip-rule="evenodd" d="M59.6566 55.0227C64.1946 55.9878 69.4313 57.3653 73.254 60.4419C74.1145 61.1345 74.2506 62.3935 73.5581 63.254C72.8655 64.1144 71.6065 64.2506 70.746 63.558C67.7431 61.1411 63.3797 59.904 58.8245 58.9352C57.9594 58.7512 57.0661 58.5726 56.1812 58.3956C54.8477 58.129 53.5334 57.8662 52.3633 57.5946C50.4038 57.1397 48.4776 56.5846 47.0009 55.732C46.0443 55.1797 45.7166 53.9566 46.2688 53C46.8211 52.0434 48.0443 51.7156 49.0009 52.2679C49.9238 52.8008 51.344 53.2516 53.2678 53.6982C54.4042 53.962 55.5878 54.1981 56.8524 54.4503C57.7431 54.628 58.6739 54.8137 59.6566 55.0227ZM91.9296 73.4128C96.9955 76.333 103.263 79.9487 108.068 82.7288C108.95 83.2394 109.818 84.0328 110.318 85.1459C111.151 86.9973 111.337 88.7129 110.866 90.24C110.4 91.7505 109.384 92.7734 108.401 93.4378C107.813 93.8358 107.2 94.1311 106.641 94.3495C106.957 96.0704 106.661 97.9222 105.938 99.4708C105 101.48 103.216 103.262 100.689 103.82C100.471 104.621 100.089 105.66 99.4143 106.672C98.6772 107.777 97.5778 108.867 95.9775 109.539C94.3776 110.211 92.4377 110.398 90.1312 109.966C89.0455 109.762 88.3305 108.717 88.534 107.631C88.7376 106.546 89.7827 105.831 90.8683 106.034C92.5619 106.352 93.6845 106.164 94.4286 105.851C95.1723 105.539 95.6981 105.035 96.0863 104.453C96.3883 104 96.5982 103.511 96.7412 103.067L81.1015 94.7868L81.0999 94.786L81.0983 94.7851L81.0968 94.7843L81.0939 94.7828L81.0925 94.782L81.0898 94.7806L81.0886 94.78L81.0862 94.7787L81.084 94.7775L81.0829 94.777L81.0809 94.7759L81.08 94.7754L81.0791 94.775L81.0759 94.7733L81.0745 94.7725L81.0732 94.7718L81.0721 94.7712L81.071 94.7707L81.0701 94.7702L81.0689 94.7696L81.0679 94.769L81.0669 94.7685L81.0658 94.7679C80.0896 94.2511 79.7165 93.0404 80.2333 92.0642C80.7501 91.088 81.9605 90.7156 82.9367 91.2324L82.9377 91.2329L82.9387 91.2335L82.9398 91.234L82.9408 91.2346L82.9421 91.2353L82.9431 91.2358L82.9442 91.2364L82.9454 91.237L82.9467 91.2377L82.9498 91.2394L82.9516 91.2403L82.9525 91.2408L82.9545 91.2418L82.9555 91.2424L82.9577 91.2436L82.9589 91.2442L82.9601 91.2448L82.964 91.2469L82.9654 91.2476L82.9683 91.2492L82.9699 91.25L82.9715 91.2508L82.9731 91.2517L99.4495 99.9745C100.788 99.8194 101.758 98.969 102.313 97.7792C102.879 96.5672 102.872 95.3099 102.534 94.4868L86.0651 85.7675C85.0889 85.2507 84.7165 84.0404 85.2333 83.0642C85.7501 82.088 86.9605 81.7156 87.9367 82.2324L104.31 90.901C104.384 90.8828 104.462 90.8621 104.544 90.8387C105.067 90.6903 105.667 90.4581 106.161 90.1241C106.646 89.796 106.926 89.4434 107.044 89.0606C107.157 88.6945 107.216 87.9991 106.671 86.7868C106.592 86.6112 106.405 86.3881 106.065 86.191C101.263 83.4126 94.9976 79.7983 89.9319 76.8782C87.3993 75.4183 85.1667 74.132 83.5674 73.2107L81.0027 71.7336C81.0026 71.7336 81.002 71.7332 82 70C82.9979 68.2668 82.998 68.2668 82.9981 68.2669L85.564 69.7447C87.1636 70.6661 89.3965 71.9526 91.9296 73.4128ZM82 70L82.9981 68.2669C82.0409 67.7157 80.8179 68.0448 80.2667 69.002C79.7156 69.9593 80.0455 71.1825 81.0027 71.7336L82 70ZM32.4895 75.8661C33.0418 74.9095 34.265 74.5818 35.2216 75.1341C39.3998 77.5463 40.899 79.6656 41.9494 81.6035C42.0874 81.858 42.2054 82.083 42.3125 82.2871C42.608 82.8499 42.8201 83.2541 43.1368 83.6828C43.5068 84.1837 44.0265 84.7054 45.0009 85.268C45.9575 85.8203 46.2853 87.0435 45.733 88.0001C45.1807 88.9566 43.9575 89.2844 43.0009 88.7321C41.5757 87.9093 40.6331 87.0257 39.9193 86.0594C39.4024 85.3597 39.0015 84.5925 38.6748 83.9675C38.5893 83.8039 38.5088 83.6499 38.4327 83.5096C37.7129 82.1815 36.7221 80.6192 33.2216 78.5982C32.265 78.0459 31.9372 76.8227 32.4895 75.8661Z" fill="#1C3553"/>
<path fill-rule="evenodd" clip-rule="evenodd" d="M30.7135 31.1188C31.2678 30.9187 31.8821 30.9733 32.3925 31.268L53.5089 43.4595C54.4655 44.0118 54.7932 45.235 54.241 46.1916L32.5203 83.8129C31.4157 85.7261 28.9693 86.3816 27.0562 85.277L17.3134 79.6521C14.7811 78.19 13.6715 75.1154 14.6865 72.3732L29.5168 32.3058C29.7214 31.7531 30.1592 31.3188 30.7135 31.1188ZM32.4453 35.9173L18.4378 73.7617C18.0995 74.6757 18.4693 75.7006 19.3134 76.188L29.0562 81.8129L49.7769 45.9236L45.5896 43.5061L28.295 73.4613C27.7427 74.4179 26.5196 74.7457 25.563 74.1934C24.6064 73.6411 24.2786 72.4179 24.8309 71.4613L42.1255 41.5061L32.4453 35.9173Z" fill="#1C3553"/>
</svg>
