<svg width="156" height="156" viewBox="0 0 156 156" fill="none" xmlns="http://www.w3.org/2000/svg">
<path d="M39.71 48.63C38.88 48.63 38.21 49.3 38.21 50.13V95.79C38.21 96.62 38.88 97.29 39.71 97.29C40.54 97.29 41.21 96.62 41.21 95.79V50.13C41.21 49.3 40.54 48.63 39.71 48.63Z" fill="#002341"/>
<path d="M54.78 48.63C53.95 48.63 53.28 49.3 53.28 50.13V95.79C53.28 96.62 53.95 97.29 54.78 97.29C55.61 97.29 56.28 96.62 56.28 95.79V50.13C56.28 49.3 55.61 48.63 54.78 48.63Z" fill="#002341"/>
<path d="M69.85 48.63C69.02 48.63 68.35 49.3 68.35 50.13V95.79C68.35 96.62 69.02 97.29 69.85 97.29C70.68 97.29 71.35 96.62 71.35 95.79V50.13C71.35 49.3 70.68 48.63 69.85 48.63Z" fill="#002341"/>
<path d="M84.93 48.63C84.1 48.63 83.43 49.3 83.43 50.13V95.79C83.43 96.62 84.1 97.29 84.93 97.29C85.76 97.29 86.43 96.62 86.43 95.79V50.13C86.43 49.3 85.76 48.63 84.93 48.63Z" fill="#002341"/>
<path d="M99.7 48.63C98.87 48.63 98.2 49.3 98.2 50.13V95.79C98.2 96.62 98.87 97.29 99.7 97.29C100.53 97.29 101.2 96.62 101.2 95.79V50.13C101.2 49.3 100.53 48.63 99.7 48.63Z" fill="#002341"/>
<path d="M114.5 48.63C113.67 48.63 113 49.3 113 50.13V95.79C113 96.62 113.67 97.29 114.5 97.29C115.33 97.29 116 96.62 116 95.79V50.13C116 49.3 115.33 48.63 114.5 48.63Z" fill="#002341"/>
<path d="M139.99 50.7C139.99 49.87 139.32 49.2 138.49 49.2C137.66 49.2 136.99 49.87 136.99 50.7V56.77H131.4C131.23 56.77 131.06 56.81 130.91 56.87V49.34C130.91 44.75 127.17 41.01 122.58 41.01H31.63C27.03 41 23.3 44.74 23.3 49.33V54.22H17.79C16.8 54.22 16 55.02 16 56.01V62.14C16 63.13 16.8 63.93 17.79 63.93H23.3V96.59C23.3 101.18 27.04 104.92 31.63 104.92H38.35V112.5C38.35 113.33 39.02 114 39.85 114C40.68 114 41.35 113.33 41.35 112.5V104.92H113.08V112.5C113.08 113.33 113.75 114 114.58 114C115.41 114 116.08 113.33 116.08 112.5V104.92H122.58C127.17 104.92 130.91 101.18 130.91 96.59V59.67C131.07 59.72 131.23 59.77 131.4 59.77H138.49C139.32 59.77 139.99 59.1 139.99 58.27C139.99 58.18 139.96 58.11 139.94 58.03C139.95 57.95 139.99 57.87 139.99 57.79V50.7ZM19 60.92V57.23H23.29V60.92H19ZM127.91 96.59C127.91 99.53 125.52 101.92 122.58 101.92H31.63C28.69 101.92 26.3 99.53 26.3 96.59V49.33C26.3 46.39 28.69 44 31.63 44H122.58C125.52 44 127.91 46.39 127.91 49.33V96.59Z" fill="#002341"/>
</svg>
