<svg width="156" height="156" viewBox="0 0 156 156" fill="none" xmlns="http://www.w3.org/2000/svg">
<path d="M40 68C40 66.3431 41.3431 65 43 65C44.6569 65 46 66.3431 46 68V123C46 124.657 44.6569 126 43 126C41.3431 126 40 124.657 40 123V68Z" fill="#C2DDFF"/>
<path d="M58 68C58 66.3431 59.3431 65 61 65C62.6569 65 64 66.3431 64 68V123C64 124.657 62.6569 126 61 126C59.3431 126 58 124.657 58 123V68Z" fill="#C2DDFF"/>
<path d="M76 68C76 66.3431 77.3431 65 79 65C80.6569 65 82 66.3431 82 68V123C82 124.657 80.6569 126 79 126C77.3431 126 76 124.657 76 123V68Z" fill="#C2DDFF"/>
<path d="M94 68C94 66.3431 95.3431 65 97 65C98.6569 65 100 66.3431 100 68V123C100 124.657 98.6569 126 97 126C95.3431 126 94 124.657 94 123V68Z" fill="#C2DDFF"/>
<path d="M112 68C112 66.3431 113.343 65 115 65C116.657 65 118 66.3431 118 68V123C118 124.657 116.657 126 115 126C113.343 126 112 124.657 112 123V68Z" fill="#C2DDFF"/>
<path fill-rule="evenodd" clip-rule="evenodd" d="M122 78C122 76.8954 122.895 76 124 76L133 76L133 69C133 67.8954 133.895 67 135 67C136.105 67 137 67.8954 137 69L137 78C137 79.1046 136.105 80 135 80L124 80C122.895 80 122 79.1046 122 78Z" fill="#1C3553"/>
<path fill-rule="evenodd" clip-rule="evenodd" d="M23.0002 74C23.0002 72.8954 23.8957 72 25.0002 72H34.0001C35.1046 72 36.0001 72.8954 36.0001 74C36.0001 75.1046 35.1046 76 34.0001 76H27.0002V80H34.0001C35.1046 80 36.0001 80.8954 36.0001 82C36.0001 83.1046 35.1046 84 34.0001 84H25.0002C23.8957 84 23.0002 83.1046 23.0002 82V74Z" fill="#1C3553"/>
<path fill-rule="evenodd" clip-rule="evenodd" d="M19 78C19 76.8954 19.8954 76 21 76H25C26.1046 76 27 76.8954 27 78C27 79.1046 26.1046 80 25 80H21C19.8954 80 19 79.1046 19 78Z" fill="#1C3553"/>
<path fill-rule="evenodd" clip-rule="evenodd" d="M62.2794 21.9804C62.8425 21.0302 64.0693 20.7163 65.0196 21.2794L64.0119 22.9799C65.0196 21.2794 65.0205 21.28 65.0215 21.2806L65.0236 21.2818L65.0282 21.2846L65.0394 21.2913L65.0692 21.3095C65.0922 21.3237 65.1216 21.3421 65.1566 21.3647C65.2267 21.4097 65.3199 21.4717 65.4309 21.5502C65.6521 21.7064 65.9494 21.9319 66.2779 22.2239C66.9208 22.7953 67.7566 23.6864 68.3328 24.8814C68.9262 26.1123 69.2373 27.6607 68.7835 29.4088C68.3385 31.1228 67.2126 32.8203 65.3287 34.4948C63.8376 35.8203 63.276 36.8728 63.0881 37.5963C62.9092 38.2857 63.02 38.8623 63.2703 39.3814C63.5379 39.9364 63.9676 40.4203 64.3795 40.7864C64.5783 40.9632 64.7556 41.097 64.8772 41.183C64.9376 41.2256 64.9828 41.2554 65.0083 41.2719C65.0152 41.2764 65.0207 41.2798 65.0245 41.2822C65.0271 41.2838 65.029 41.285 65.0301 41.2857C65.9721 41.8516 66.2816 43.0729 65.7206 44.0196C65.1574 44.9699 63.9306 45.2837 62.9804 44.7206L64 43C62.9804 44.7206 62.9794 44.72 62.9785 44.7195L62.9764 44.7182L62.9717 44.7154L62.9605 44.7087L62.9308 44.6905C62.9078 44.6763 62.8784 44.6579 62.8433 44.6353C62.7733 44.5903 62.6801 44.5283 62.569 44.4498C62.3479 44.2936 62.0505 44.0681 61.722 43.7761C61.0792 43.2047 60.2433 42.3136 59.6672 41.1186C59.0737 39.8878 58.7627 38.3393 59.2165 36.5912C59.6615 34.8772 60.7874 33.1797 62.6713 31.5052C64.1624 30.1797 64.724 29.1272 64.9118 28.4037C65.0908 27.7143 64.98 27.1377 64.7297 26.6186C64.4621 26.0636 64.0323 25.5797 63.6205 25.2136C63.4216 25.0368 63.2444 24.903 63.1227 24.817C63.0624 24.7744 63.0172 24.7446 62.9916 24.7281C62.9801 24.7207 62.9727 24.7161 62.9699 24.7143C62.0278 24.1484 61.7184 22.9271 62.2794 21.9804Z" fill="#1C3553"/>
<path fill-rule="evenodd" clip-rule="evenodd" d="M90.2794 21.9804C90.8425 21.0302 92.0693 20.7163 93.0196 21.2794L92.0119 22.9799C93.0196 21.2794 93.0205 21.28 93.0215 21.2806L93.0236 21.2818L93.0282 21.2846L93.0394 21.2913L93.0692 21.3095C93.0922 21.3237 93.1216 21.3421 93.1566 21.3647C93.2267 21.4097 93.3199 21.4717 93.4309 21.5502C93.6521 21.7064 93.9494 21.9319 94.2779 22.2239C94.9208 22.7953 95.7566 23.6864 96.3328 24.8814C96.9262 26.1123 97.2373 27.6607 96.7835 29.4088C96.3385 31.1228 95.2126 32.8203 93.3287 34.4948C91.8376 35.8203 91.276 36.8728 91.0881 37.5963C90.9092 38.2857 91.02 38.8623 91.2703 39.3814C91.5379 39.9364 91.9676 40.4203 92.3795 40.7864C92.5783 40.9632 92.7556 41.097 92.8772 41.183C92.9376 41.2256 92.9828 41.2554 93.0083 41.2719C93.0152 41.2764 93.0207 41.2798 93.0245 41.2822C93.0271 41.2838 93.029 41.285 93.0301 41.2857C93.9721 41.8516 94.2816 43.0729 93.7206 44.0196C93.1574 44.9699 91.9306 45.2837 90.9804 44.7206L92 43C90.9804 44.7206 90.9794 44.72 90.9785 44.7195L90.9764 44.7182L90.9717 44.7154L90.9605 44.7087L90.9308 44.6905C90.9078 44.6763 90.8784 44.6579 90.8433 44.6353C90.7733 44.5903 90.6801 44.5283 90.569 44.4498C90.3479 44.2936 90.0505 44.0681 89.722 43.7761C89.0792 43.2047 88.2433 42.3136 87.6672 41.1186C87.0737 39.8878 86.7627 38.3393 87.2165 36.5912C87.6615 34.8772 88.7874 33.1797 90.6713 31.5052C92.1624 30.1797 92.724 29.1272 92.9118 28.4037C93.0908 27.7143 92.98 27.1377 92.7297 26.6186C92.4621 26.0636 92.0323 25.5797 91.6205 25.2136C91.4216 25.0368 91.2444 24.903 91.1227 24.817C91.0624 24.7744 91.0172 24.7446 90.9916 24.7281C90.9801 24.7207 90.9727 24.7161 90.9699 24.7143C90.0278 24.1484 89.7184 22.9271 90.2794 21.9804Z" fill="#1C3553"/>
<path fill-rule="evenodd" clip-rule="evenodd" d="M76.2616 16.011C76.8078 15.0509 78.0289 14.7154 78.989 15.2616L78 17C78.989 15.2616 78.9899 15.2621 78.9909 15.2627L78.9931 15.264L78.9984 15.267L79.0119 15.2748L79.0511 15.2978C79.0824 15.3163 79.124 15.3414 79.175 15.3728C79.2767 15.4357 79.416 15.5245 79.5841 15.6386C79.9194 15.866 80.3753 16.1977 80.8803 16.6286C81.8743 17.4768 83.1403 18.7787 84.006 20.5024C84.8916 22.2656 85.3532 24.4709 84.6768 26.9721C84.0116 29.4319 82.3063 31.9545 79.2983 34.5214C76.6813 36.7545 75.5741 38.6319 75.1846 40.0721C74.8063 41.4709 75.0478 42.6656 75.5685 43.7024C76.1091 44.7787 76.9524 45.6768 77.7162 46.3286C78.0901 46.6477 78.4252 46.891 78.6613 47.0511C78.7788 47.1308 78.8702 47.1888 78.9278 47.2244C78.9565 47.2421 78.9766 47.2542 78.9872 47.2605L78.9943 47.2646L78.9907 47.2626C78.9922 47.2634 78.9937 47.2643 78.9953 47.2652C79.9505 47.8131 80.2834 49.031 79.7384 49.9889C79.1922 50.949 77.9712 51.2845 77.0111 50.7384L78 49C77.0111 50.7384 77.0101 50.7378 77.0091 50.7373L77.0069 50.736L77.0017 50.733L76.9881 50.7252L76.949 50.7022C76.9177 50.6837 76.876 50.6586 76.8251 50.6271C76.7233 50.5643 76.5841 50.4755 76.4159 50.3614C76.0807 50.134 75.6247 49.8023 75.1198 49.3714C74.1258 48.5232 72.8597 47.2213 71.994 45.4976C71.1085 43.7344 70.6469 41.5291 71.3233 39.0279C71.9885 36.5681 73.6938 34.0454 76.7018 31.4786C79.3188 29.2454 80.426 27.3681 80.8155 25.9279C81.1938 24.5291 80.9522 23.3344 80.4315 22.2976C79.891 21.2213 79.0477 20.3232 78.2838 19.6714C77.9099 19.3523 77.5748 19.109 77.3388 18.9489C77.2213 18.8692 77.1298 18.8111 77.0723 18.7756C77.0436 18.7578 77.0234 18.7458 77.0128 18.7395L77.0048 18.7348M76.2616 16.011C75.7166 16.969 76.0495 18.1869 77.0048 18.7348L76.2616 16.011ZM77.0048 18.7348C77.0048 18.7348 77.0048 18.7348 77.0058 18.7353L77.0079 18.7366" fill="#1C3553"/>
<path fill-rule="evenodd" clip-rule="evenodd" d="M32 65C32 60.5817 35.5817 57 40 57H118C122.418 57 126 60.5817 126 65V126C126 130.418 122.418 134 118 134H40C35.5817 134 32 130.418 32 126V65ZM40 61C37.7909 61 36 62.7909 36 65V126C36 128.209 37.7909 130 40 130H118C120.209 130 122 128.209 122 126V65C122 62.7909 120.209 61 118 61H40Z" fill="#1C3553"/>
<path fill-rule="evenodd" clip-rule="evenodd" d="M52 65C53.1046 65 54 65.8954 54 67V124C54 125.105 53.1046 126 52 126C50.8954 126 50 125.105 50 124V67C50 65.8954 50.8954 65 52 65Z" fill="#1C3553"/>
<path fill-rule="evenodd" clip-rule="evenodd" d="M70 65C71.1046 65 72 65.8954 72 67V124C72 125.105 71.1046 126 70 126C68.8954 126 68 125.105 68 124V67C68 65.8954 68.8954 65 70 65Z" fill="#1C3553"/>
<path fill-rule="evenodd" clip-rule="evenodd" d="M88 65C89.1046 65 90 65.8954 90 67V124C90 125.105 89.1046 126 88 126C86.8954 126 86 125.105 86 124V67C86 65.8954 86.8954 65 88 65Z" fill="#1C3553"/>
<path fill-rule="evenodd" clip-rule="evenodd" d="M106 65C107.105 65 108 65.8954 108 67V124C108 125.105 107.105 126 106 126C104.895 126 104 125.105 104 124V67C104 65.8954 104.895 65 106 65Z" fill="#1C3553"/>
</svg>
