<svg width="156" height="156" viewBox="0 0 156 156" fill="none" xmlns="http://www.w3.org/2000/svg">
<path d="M78.05 132.1C48.25 132.1 24 107.85 24 78.05C24 48.25 48.25 24 78.05 24C107.85 24 132.1 48.25 132.1 78.05C132.1 107.85 107.85 132.1 78.05 132.1ZM78.05 27C49.9 27 27 49.9 27 78.05C27 106.2 49.9 129.1 78.05 129.1C106.2 129.1 129.1 106.2 129.1 78.05C129.1 49.9 106.2 27 78.05 27Z" fill="#002341"/>
<path d="M105.43 69.21C105.43 67.76 104.8 66.42 103.71 65.52L82.8 46.1C81.97 45.12 80.73 44.58 79.3 44.58C77.95 44.58 76.69 45.07 75.88 45.88L54.82 65.44C53.75 66.51 53.18 67.82 53.18 69.2V102.53C53.18 105.39 55.42 107.63 58.29 107.63H77.25C77.44 107.63 77.74 107.4 77.95 107.19L104.97 80.32C105.19 80.1 105.44 79.74 105.43 79.58V69.2V69.21ZM74.2 104.64H58.29C57.09 104.64 56.19 103.74 56.19 102.54V69.21C56.19 68.62 56.44 68.08 56.91 67.61L77.97 48.05C78.25 47.77 78.77 47.59 79.31 47.59C79.69 47.59 80.22 47.68 80.54 48.08L101.71 67.76L101.79 67.83C102.21 68.16 102.43 68.64 102.43 69.21V76.57H79.31C76.54 76.57 74.2 78.91 74.2 81.68V104.65V104.64ZM77.2 103.71V81.67C77.2 80.55 78.18 79.57 79.3 79.57H101.47L77.2 103.71Z" fill="#002341"/>
</svg>
