<svg width="156" height="156" viewBox="0 0 156 156" fill="none" xmlns="http://www.w3.org/2000/svg">
<path d="M116.95 112.81V60.1901L81.39 41.1301C79.18 39.6201 75.92 39.6201 73.71 41.1301L38.15 60.1901V112.81H23V115.84H132.1V112.81H116.95ZM71.49 112.81V91.6001H83.61V112.81H71.49ZM86.64 112.81V88.5701H68.46V112.81H41.18V62.0001L75.22 43.7601L75.38 43.6601C76.57 42.8101 78.52 42.8101 79.72 43.6601L113.92 62.0001V112.81H86.64Z" fill="#002341"/>
<path d="M107.85 82.5101H95.73V97.6601H107.85V82.5101Z" fill="#002341"/>
<path d="M83.61 61.2901H71.49V76.4401H83.61V61.2901Z" fill="#002341"/>
<path d="M59.36 82.5101H47.24V97.6601H59.36V82.5101Z" fill="#002341"/>
</svg>
