<svg width="156" height="156" viewBox="0 0 156 156" fill="none" xmlns="http://www.w3.org/2000/svg">
<path d="M120.39 49.01L126.44 44.38L120.61 37H28V133.09H40.01V49.01H52.02V61.02H46.01V94.05H109.07V61.02H103.06V49.01H120.39ZM37.01 46.01V130.09H31V40H119.15L122.19 43.85L119.37 46.01H37.01ZM106.07 64.03V91.05H49.02V64.03H106.07ZM100.06 61.03H55.02V49.02H100.06V61.03Z" fill="#002341"/>
<path d="M69.38 79.1C69.38 77.39 68.44 76.31 66.19 75.44L64.91 74.94C63.74 74.45 63.13 74.02 63.13 73.16C63.13 72.22 63.83 71.7 65.24 71.7C66.65 71.7 67.8 72.22 68.82 73.07V70.79C68.01 70.18 66.73 69.62 65.06 69.62C62.32 69.62 60.7 71.08 60.7 73.29C60.7 74.96 61.64 76.08 63.64 76.84L64.95 77.34C66.42 77.97 66.84 78.37 66.84 79.19C66.84 80.23 66.14 80.83 64.7 80.83C63.17 80.83 61.76 80.18 60.67 79.26V81.55C61.95 82.5 63.44 82.94 64.92 82.94C67.68 82.94 69.39 81.43 69.39 79.1H69.38Z" fill="#002341"/>
<path d="M75.43 82.84C78.19 82.84 80.08 80.86 80.08 78.07C80.08 75.28 78.21 73.24 75.43 73.24C72.65 73.24 70.8 75.24 70.8 78.07C70.8 80.9 72.69 82.84 75.43 82.84ZM75.43 75.19C76.91 75.19 77.81 76.36 77.81 78.05C77.81 79.74 76.91 80.9 75.43 80.9C73.95 80.9 73.09 79.73 73.09 78.05C73.09 76.37 73.96 75.19 75.43 75.19Z" fill="#002341"/>
<path d="M84.32 69.61H82.09V82.58H84.32V69.61Z" fill="#002341"/>
<path d="M90.28 82.84C91.88 82.84 92.86 81.94 93.34 80.9V82.57H95.56V69.6H93.33V74.97C92.72 73.82 91.76 73.24 90.49 73.24C88.02 73.24 86.33 75.35 86.33 78.08C86.33 80.81 87.86 82.83 90.29 82.83L90.28 82.84ZM90.98 75.19C92.45 75.19 93.36 76.36 93.36 78.02C93.36 79.68 92.42 80.9 90.93 80.9C89.55 80.9 88.61 79.82 88.61 78.09C88.61 76.36 89.55 75.19 90.99 75.19H90.98Z" fill="#002341"/>
</svg>
