<svg width="156" height="156" viewBox="0 0 156 156" fill="none" xmlns="http://www.w3.org/2000/svg">
<path d="M33.02 76.52H45.03V61.51H33.02V76.52ZM36.02 64.51H42.03V73.52H36.02V64.51Z" fill="#002341"/>
<path d="M111.09 76.52H123.1V61.51H111.09V76.52ZM114.09 64.51H120.1V73.52H114.09V64.51Z" fill="#002341"/>
<path d="M138.12 112.56V54.86L122.66 43.49H101.62L79.03 31L54.48 43.49H30.25L18.01 55.9V112.56H9V115.56H84.07V115.59L100.8 115.56H102.09V115.58L109.55 115.56H147.13V112.56H138.12ZM33.02 112.56V88.54H45.03V112.56H33.02ZM48.03 112.56V85.54H30.01V112.56H21V57.13L31.49 46.5H54.03V112.56H48.02H48.03ZM57.04 112.56V45.56L78.97 34.4L99.08 45.52V112.55H87.07V85.53H69.06L68.87 112.55H57.04V112.56ZM71.87 112.56L72.04 88.54H84.06V112.56H71.87ZM111.09 112.56V88.54H123.1V112.56H111.09ZM126.1 112.56V85.54H108.08V112.56H102.07V46.5H121.66L135.1 56.38V112.56H126.09H126.1Z" fill="#002341"/>
<path d="M75.06 61.51H63.05V76.52H75.06V61.51Z" fill="#002341"/>
<path d="M93.08 61.51H81.07V76.52H93.08V61.51Z" fill="#002341"/>
</svg>
