<svg width="156" height="156" viewBox="0 0 156 156" fill="none" xmlns="http://www.w3.org/2000/svg">
<path d="M129.63 83.08C129.28 81.26 128.21 80.4 127.37 80C124.15 78.45 118.85 81.15 118.33 81.43L102.15 88.9C101.92 87.98 101.45 87.15 100.72 86.47C97.75 83.7 91.55 84.05 90.96 84.09H87.26C85.07 84.09 82.99 83.62 81.08 82.69C78.08 81.23 73.46 79.44 68.51 79.2C60.22 78.8 55.67 81.57 49.2 86.19C46.79 87.91 40.94 90.9 37.97 92.37L35.66 87.56L26 92.19L27.3 94.9L34.25 91.57L48.8 121.91L41.85 125.24L43.15 127.95L52.81 123.32L49.94 117.32C51.83 116.58 54.52 115.53 54.56 115.51C59.24 113.71 64.53 112.92 70.25 113.18C73.29 113.32 77.56 113.5 81.58 113.63C87.41 113.81 93.34 112.59 98.68 110.06L100.94 108.99C104.27 107.41 107.68 105.35 111.36 102.66C112.31 101.97 113.34 101.24 114.41 100.48C122.07 95.07 130.75 88.94 129.63 83.07V83.08ZM112.67 98.04C111.59 98.81 110.54 99.54 109.58 100.24C106.05 102.81 102.8 104.78 99.64 106.28L97.38 107.35C92.47 109.67 87.04 110.81 81.66 110.63C77.65 110.5 73.4 110.32 70.37 110.18C64.24 109.91 58.54 110.75 53.46 112.71C53.41 112.73 50.51 113.86 48.63 114.6L39.27 95.07C42.3 93.56 48.34 90.48 50.94 88.62C57.43 83.99 61.24 81.83 68.36 82.19C72.81 82.4 77.01 84.05 79.76 85.38C82.09 86.51 84.61 87.09 87.26 87.09H91.06C92.49 86.99 96.96 87.06 98.67 88.66C99.1 89.06 99.3 89.53 99.3 90.12C99.3 90.58 99.14 90.94 98.79 91.28C97.37 92.67 93.49 93.12 91.34 93.09H74.35V96.09H91.31C91.37 96.09 91.46 96.09 91.59 96.09C92.99 96.09 98.34 95.92 100.89 93.42C101.2 93.11 101.45 92.77 101.66 92.41L119.65 84.1C121.45 83.15 124.73 82.05 126.06 82.69C126.29 82.8 126.55 83 126.67 83.63C127.43 87.6 118.54 93.87 112.66 98.02L112.67 98.04Z" fill="#002341"/>
<path d="M116.41 31.62L90.84 17.87C89.13 16.71 86.63 16.71 84.92 17.87L59.35 31.62V72.07H116.4V31.62H116.41ZM113.41 69.07H62.36V33.42L86.42 20.47L86.58 20.37C87.29 19.87 88.48 19.87 89.19 20.37L113.41 33.41V69.07Z" fill="#002341"/>
<path d="M88.78 37.86C90.37 37.86 92.02 38.61 93.19 39.87L95.39 37.83C93.64 35.94 91.23 34.86 88.78 34.86C83.56 34.86 79.88 38.12 78.77 43.43H76.98V46.43H78.43C78.43 46.61 78.43 46.79 78.43 46.97C78.43 47.31 78.43 47.64 78.45 47.97H76.98V50.97H78.87C80.05 55.94 83.52 58.97 88.37 58.97C91.26 58.97 93.66 57.83 95.71 55.5L93.45 53.52C91.99 55.19 90.37 55.97 88.37 55.97C85.24 55.97 82.98 54.13 81.99 50.97H90.98V47.97H81.47C81.45 47.65 81.44 47.31 81.44 46.97C81.44 46.79 81.44 46.61 81.44 46.43H93.32V43.43H81.87C82.83 39.93 85.3 37.87 88.79 37.87L88.78 37.86Z" fill="#002341"/>
</svg>
