<svg width="156" height="156" viewBox="0 0 156 156" fill="none" xmlns="http://www.w3.org/2000/svg">
<path d="M103.4 80.77L100.31 77.59C99.91 77.18 99.3 77.03 98.76 77.21L96.18 78.07L95.66 77.6L96.41 74.86C96.55 74.34 96.41 73.79 96.03 73.41C95.61 72.99 85.69 62.99 79.77 60.12C73.09 56.89 67 59.91 66.74 60.04C66.18 60.32 65.86 60.93 65.93 61.55C66 62.17 66.45 62.68 67.06 62.84C69.78 63.52 76.91 66.05 78.3 69.76L76.95 73.82C76.77 74.35 76.91 74.93 77.29 75.33L78.56 76.65L52.73 102.49C52.14 103.08 52.14 104.03 52.73 104.61L56.78 108.66C57.06 108.94 57.44 109.1 57.84 109.1C58.24 109.1 58.62 108.94 58.9 108.66L84.78 82.78L85.72 83.72C86.13 84.12 86.73 84.26 87.27 84.08L89.58 83.29L90.2 83.89L89.27 85.7C88.96 86.3 89.09 87.03 89.59 87.49L93.32 90.94C93.61 91.21 93.97 91.34 94.34 91.34C94.72 91.34 95.11 91.19 95.4 90.9L103.4 82.9C103.98 82.32 103.99 81.38 103.42 80.79L103.4 80.77ZM94.29 87.73L92.46 86.03L93.37 84.25C93.67 83.66 93.55 82.95 93.08 82.49L91.01 80.47C90.6 80.07 90.01 79.94 89.47 80.12L87.17 80.91L84.76 78.51C84.17 77.92 83.22 77.93 82.64 78.51C82.06 79.09 82.06 80.05 82.64 80.63L57.82 105.45L55.89 103.52L81.69 77.72C82.28 77.13 82.28 76.18 81.69 75.6C81.66 75.57 81.63 75.57 81.6 75.54C81.56 75.48 81.53 75.41 81.48 75.35L80.06 73.87L81.28 70.21C81.37 69.94 81.38 69.64 81.31 69.36C80.35 65.62 76.24 63.11 72.78 61.61C74.44 61.55 76.41 61.81 78.44 62.79C83.11 65.05 91.01 72.66 93.26 74.88L92.49 77.67C92.34 78.22 92.51 78.8 92.93 79.18L94.79 80.86C95.19 81.22 95.76 81.34 96.27 81.17L98.78 80.33L100.18 81.77L94.25 87.7L94.29 87.73Z" fill="#002341"/>
<path d="M122.92 118.1V57.98L82.55 36.26C80.1 34.58 76.48 34.58 74.04 36.26L33.66 57.98V118.1H21V121.1H135.11V118.1H122.92ZM36.67 118.1V59.78L75.53 38.87L75.69 38.77C77.12 37.75 79.45 37.75 80.88 38.77L119.91 59.78V118.11H36.66L36.67 118.1Z" fill="#002341"/>
</svg>
