<svg width="156" height="156" viewBox="0 0 156 156" fill="none" xmlns="http://www.w3.org/2000/svg">
<path d="M27.51 62.07V77.08H39.52V62.07H27.51ZM36.52 74.08H30.51V65.07H36.52V74.08Z" fill="#002341"/>
<path d="M54.56 77.09H66.57V62.08H54.56V77.09ZM57.56 65.08H63.57V74.09H57.56V65.08Z" fill="#002341"/>
<path d="M85.31 62.07H73.3V77.08H85.31V62.07ZM82.31 74.08H76.3V65.07H82.31V74.08Z" fill="#002341"/>
<path d="M92.04 62.07V77.08H104.05V62.07H92.04ZM101.05 74.08H95.04V65.07H101.05V74.08Z" fill="#002341"/>
<path d="M27.51 98.74H39.52V83.73H27.51V98.74ZM30.51 86.73H36.52V95.74H30.51V86.73Z" fill="#002341"/>
<path d="M54.56 98.74H66.57V83.73H54.56V98.74ZM57.56 86.73H63.57V95.74H57.56V86.73Z" fill="#002341"/>
<path d="M119.22 77.09H131.23V62.08H119.22V77.09ZM122.22 65.08H128.23V74.09H122.22V65.08Z" fill="#002341"/>
<path d="M119.22 98.74H131.23V83.73H119.22V98.74ZM122.22 86.73H128.23V95.74H122.22V86.73Z" fill="#002341"/>
<path d="M92.04 98.74H104.05V83.73H92.04V98.74ZM95.04 86.73H101.05V95.74H95.04V86.73Z" fill="#002341"/>
<path d="M140.6 114.45V51.51H112.85L80.78 39L46.01 51.48V51.51H18.22L18.01 114.45H9V117.45L90.07 117.48L111.65 117.45H147.13V114.45H140.6ZM49.01 53.6L80.74 42.21L109.85 53.57V114.46H49.02V53.6H49.01ZM21.02 114.46L21.22 54.52H46.02V114.46H21.02ZM112.85 114.46V54.52H137.6V114.46H112.85Z" fill="#002341"/>
<path d="M88.31 83.73H70.29V105.69H88.31V83.73ZM85.31 102.69H73.3V86.74H85.31V102.69Z" fill="#002341"/>
<path d="M91.31 108.58H67.29V111.58H91.31V108.58Z" fill="#002341"/>
</svg>
