<svg width="156" height="156" viewBox="0 0 156 156" fill="none" xmlns="http://www.w3.org/2000/svg">
<path d="M114.08 78.45L102.24 67.23C101.4 66.43 100.3 66 99.14 66H50.95C49.79 66 48.69 66.44 47.85 67.24L36.01 78.46V114.05H24V117.05H132.1V114.05H114.08V78.45ZM69.04 114.04V90.02H81.05V114.04H69.04ZM84.05 114.04V87.02H66.03V114.04H39.01V79.74L49.91 69.41C50.19 69.14 50.56 69 50.94 69H99.14C99.53 69 99.89 69.15 100.17 69.41L111.07 79.74V114.04H84.05Z" fill="#002341"/>
<path d="M57.03 87.02H45.02V102.03H57.03V87.02Z" fill="#002341"/>
<path d="M105.07 87.02H93.06V102.03H105.07V87.02Z" fill="#002341"/>
</svg>
