<svg width="156" height="156" viewBox="0 0 156 156" fill="none" xmlns="http://www.w3.org/2000/svg">
<path d="M119.8 116.55V83.54H118.3C118.11 83.54 117.63 83.54 116.91 83.54V74.51H119.82V71.51H98.78V57.88H96.03V48.52H98.78V45.52H77.77V32H37.6V83.54H29.16V86.54H38.17V86.52H38.22L57.66 116.55H21V119.55H135.11V116.55H119.8ZM113.91 83.54C112.98 83.54 111.91 83.54 110.74 83.54V74.52H113.91V83.55V83.54ZM72.03 83.52H40.61V60.88H95.79V83.52H79.61C77.07 83.52 74.54 83.52 72.03 83.52ZM86.87 48.52V57.88H83.76V48.52H86.87ZM98.79 74.51H101.63V83.53C100.71 83.53 99.76 83.53 98.79 83.53V74.51ZM104.63 74.51H107.74V83.53C106.75 83.53 105.71 83.53 104.63 83.53V74.51ZM93.04 57.87H89.87V48.51H93.04V57.87ZM40.6 35H74.76V57.52H40.6V35ZM77.77 48.51H80.75V57.87H77.77V48.51ZM91.28 116.54V94.02H103.29V116.54H91.28ZM106.29 116.54V91.02H88.27V116.54H61.24L41.84 86.56C54.41 86.48 107.2 86.52 116.8 86.53V116.54H106.29Z" fill="#002341"/>
<path d="M52.43 78.99H62.94V65.48H52.43V78.99ZM55.43 68.48H59.93V75.99H55.43V68.48Z" fill="#002341"/>
<path d="M52.43 53.05H62.94V39.53H52.43V53.05ZM55.43 42.54H59.93V50.05H55.43V42.54Z" fill="#002341"/>
<path d="M74.76 78.99H85.27V65.48H74.76V78.99ZM77.76 68.48H82.26V75.99H77.76V68.48Z" fill="#002341"/>
<path d="M63.5 104.53H74.01V91.02H63.5V104.53ZM66.5 94.02H71V101.53H66.5V94.02Z" fill="#002341"/>
</svg>
