<svg width="156" height="156" viewBox="0 0 156 156" fill="none" xmlns="http://www.w3.org/2000/svg">
<path d="M117.09 61.01L81.86 42.12C79.67 40.62 76.44 40.62 74.25 42.12L39.02 61.01V113.07H21V116.07H135.11V113.07H117.09V61.01ZM72.17 63.08L42.02 77.98V63.08H72.17ZM114.08 77.7L84.01 63.08H114.08V77.7ZM76.55 64.27V78.12H48.52L76.55 64.27ZM79.55 64.25L108.08 78.12H79.55V64.25ZM75.74 44.73L75.9 44.63C77.08 43.79 79.01 43.79 80.2 44.63L108.99 60.07H47.12L75.74 44.73ZM72.31 112.34V89.82H84.32V112.34H72.31ZM87.32 113.07V86.82H69.3V113.07H42.01V81.12H42.37V81.14L42.43 81.12H114.08V113.07H87.32Z" fill="#002341"/>
<path d="M108.08 87.56H96.07V102.57H108.08V87.56Z" fill="#002341"/>
<path d="M60.03 87.56H48.02V102.57H60.03V87.56Z" fill="#002341"/>
</svg>
