<svg width="156" height="156" viewBox="0 0 156 156" fill="none" xmlns="http://www.w3.org/2000/svg">
<g clip-path="url(#clip0_2750_54)">
<path d="M83.2057 92.7252L80.0275 89.547L33.9027 135.672C33.1217 136.453 31.8554 136.453 31.0743 135.672L25.7806 130.378C24.9996 129.597 24.9996 128.331 25.7806 127.55L71.9054 81.4249L68.374 77.8936L72.2251 67.686C65.6538 58.4369 54.8149 54.9621 50.2169 54.3808C61.0166 46.9712 74.0751 55.4774 79.2544 60.6567L97.2643 78.6666L94.9737 84.8334L98.1519 88.0116L103.974 85.3762L109.977 91.3795L95.9185 105.438L89.9152 99.4348L91.9384 94.2379L88.7601 91.0597L83.2057 92.7252Z" fill="#C2DDFF"/>
<path fill-rule="evenodd" clip-rule="evenodd" d="M77.7089 16.5756C80.0506 14.1414 83.9392 14.1191 86.3088 16.5263L143.075 74.1939C145.565 76.7227 143.773 81 140.225 81H125V99C125 100.105 124.104 101 123 101C121.895 101 121 100.105 121 99V80C121 78.3431 122.343 77 124 77H140.225L83.4582 19.3323C82.6683 18.5299 81.3721 18.5374 80.5915 19.3488L60.1619 40.5853C58.2895 42.5316 54.9999 41.2062 54.9999 38.5054V34H42.9999V56.5857C42.9999 57.3814 42.6838 58.1445 42.1212 58.7071L23.8283 77H39.9999C41.6568 77 42.9999 78.3431 42.9999 80V102C42.9999 103.105 42.1045 104 40.9999 104C39.8953 104 38.9999 103.105 38.9999 102V81H23.8283C20.2647 81 18.48 76.6914 20.9999 74.1715L38.9999 56.1715V33C38.9999 31.3431 40.343 30 41.9999 30H55.9999C57.6568 30 58.9999 31.3431 58.9999 33V36.0235L77.7089 16.5756ZM123 105C124.104 105 125 105.895 125 107V125C125 128.314 122.314 131 119 131H52.9999C51.8953 131 50.9999 130.105 50.9999 129C50.9999 127.895 51.8953 127 52.9999 127H119C120.104 127 121 126.105 121 125V107C121 105.895 121.895 105 123 105Z" fill="#1C3553"/>
<path fill-rule="evenodd" clip-rule="evenodd" d="M67.506 50.9108C73.1119 52.8793 77.9183 56.492 80.6687 59.2424L98.6786 77.2523C99.2315 77.8053 99.4115 78.6298 99.1392 79.3629L97.2955 84.3265L98.5877 85.6188L103.149 83.554C103.908 83.2107 104.799 83.3732 105.388 83.9619L111.391 89.9651C112.172 90.7462 112.172 92.0125 111.391 92.7936L97.3328 106.852C96.5518 107.633 95.2854 107.633 94.5044 106.852L88.5011 100.849C87.9401 100.288 87.7638 99.4484 88.0516 98.7091L89.601 94.7289L88.1906 93.3184L83.7802 94.6408C83.0755 94.8521 82.3117 94.6595 81.7915 94.1393L80.0275 92.3753L35.317 137.086C33.7549 138.648 31.2223 138.648 29.6602 137.086L24.3665 131.792C22.8044 130.23 22.8044 127.697 24.3665 126.135L69.077 81.4248L66.9599 79.3076C66.4043 78.752 66.2255 77.9226 66.5028 77.1874L69.9691 67.9999C63.7783 59.9823 54.0763 56.8845 49.9661 56.3649C49.1425 56.2607 48.4688 55.6586 48.2732 54.8518C48.0777 54.0449 48.4009 53.2012 49.0855 52.7315C55.1801 48.55 61.8659 48.9302 67.506 50.9108ZM78.9698 85.6607C78.1888 84.8797 76.9224 84.8797 76.1414 85.6607C75.3603 86.4418 75.3603 87.7081 76.1414 88.4892L77.1991 89.5469L32.4886 134.257L27.1949 128.964L73.3196 82.839C74.1007 82.0579 74.1007 80.7916 73.3196 80.0106L70.7009 77.3918L74.0964 68.3919C74.3314 67.7691 74.2411 67.0702 73.8556 66.5276C68.9361 59.6033 61.8218 55.7408 56.3112 53.8395C59.5858 53.096 62.9613 53.5543 66.1807 54.6848C71.0988 56.4118 75.4114 59.6419 77.8403 62.0708L94.9426 79.1732L93.0989 84.1368C92.8266 84.8699 93.0065 85.6945 93.5595 86.2475L96.7377 89.4257C97.3264 90.0144 98.2182 90.1768 98.9767 89.8335L103.538 87.7687L107.149 91.3794L95.9186 102.61L92.2527 98.9436L93.8022 94.9634C94.09 94.2241 93.9136 93.3846 93.3526 92.8236L90.1744 89.6454C89.6542 89.1252 88.8904 88.9326 88.1858 89.1439L83.7754 90.4663L78.9698 85.6607Z" fill="#1C3553"/>
</g>
<defs>
<clipPath id="clip0_2750_54">
<rect width="156" height="156" fill="white"/>
</clipPath>
</defs>
</svg>
