<svg width="156" height="156" viewBox="0 0 156 156" fill="none" xmlns="http://www.w3.org/2000/svg">
<path d="M127.08 127.41V85.4699H119.57V43.5199H119.53H119.54L106.33 26.5499C105.76 25.8199 104.53 25.8199 103.96 26.5499L90.74 43.5199H90.75L90.71 43.5299V50.6099H65.19V43.5299H65.15H65.16L51.94 26.5499C51.37 25.8199 50.14 25.8199 49.57 26.5499L36.35 43.5199H36.36L36.32 43.5299V85.4699H28.98V127.41H21V130.41H135.11V127.41H127.08ZM93.72 46.5299H116.57V85.4699H93.72V46.5299ZM105.15 29.9199L115.76 43.5299H94.55L105.16 29.9199H105.15ZM90.72 53.6099V85.4699H65.2V53.6099H90.72ZM50.76 29.9099L61.37 43.5199H40.16L50.76 29.9099ZM39.33 46.5199H62.18V85.4599H39.33V46.5199ZM71.26 127.38V108.54C71.26 104.83 74.28 101.81 77.99 101.81H78.11C81.82 101.81 84.83 104.83 84.83 108.53V127.38H71.26ZM87.83 127.41V108.54C87.83 103.18 83.47 98.8099 78.1 98.8099H77.98C72.61 98.8099 68.25 103.18 68.25 108.54V127.41H31.99V88.4699H124.08V127.41H87.83Z" fill="#002341"/>
<path d="M50.8 98.8099H50.73C47.25 98.8099 44.42 101.64 44.42 105.12V118.5H57.1V105.12C57.1 101.65 54.27 98.8199 50.8 98.8199V98.8099ZM54.1 115.49H47.43V105.12C47.43 103.3 48.91 101.82 50.73 101.82H50.8C52.62 101.82 54.1 103.3 54.1 105.12V115.5V115.49Z" fill="#002341"/>
<path d="M50.8 66.3699H50.73C47.25 66.3699 44.42 69.1999 44.42 72.6799V80.0499H57.1V72.6799C57.1 69.1999 54.27 66.3799 50.8 66.3799V66.3699ZM54.1 77.0499H47.43V72.6799C47.43 70.8599 48.91 69.3799 50.73 69.3799H50.8C52.62 69.3799 54.1 70.8599 54.1 72.6799V77.0499Z" fill="#002341"/>
<path d="M50.8 49.3099H50.73C47.25 49.3099 44.42 52.1399 44.42 55.6199V62.9899H57.1V55.6099C57.1 52.1399 54.27 49.3099 50.8 49.3099ZM54.1 59.9899H47.43V55.6199C47.43 53.7999 48.91 52.3199 50.73 52.3199H50.8C52.62 52.3199 54.1 53.7999 54.1 55.6199V59.9899Z" fill="#002341"/>
<path d="M105.18 66.3699H105.11C101.63 66.3699 98.8 69.1999 98.8 72.6799V80.0499H111.48V72.6799C111.48 69.1999 108.65 66.3799 105.18 66.3799V66.3699ZM108.48 77.0499H101.81V72.6799C101.81 70.8599 103.29 69.3799 105.11 69.3799H105.18C107 69.3799 108.48 70.8599 108.48 72.6799V77.0499Z" fill="#002341"/>
<path d="M84.37 72.6799C84.37 69.1999 81.54 66.3799 78.07 66.3799H78C74.52 66.3799 71.69 69.2099 71.69 72.6899V80.0599H84.37V72.6799ZM74.69 72.6799C74.69 70.8599 76.17 69.3799 77.99 69.3799H78.06C79.88 69.3799 81.36 70.8599 81.36 72.6799V77.0499H74.69V72.6799Z" fill="#002341"/>
<path d="M105.18 49.3099H105.11C101.63 49.3099 98.8 52.1399 98.8 55.6199V62.9899H111.48V55.6099C111.48 52.1399 108.65 49.3099 105.18 49.3099ZM108.48 59.9899H101.81V55.6199C101.81 53.7999 103.29 52.3199 105.11 52.3199H105.18C107 52.3199 108.48 53.7999 108.48 55.6199V59.9899Z" fill="#002341"/>
<path d="M105.18 98.8099H105.11C101.63 98.8099 98.8 101.64 98.8 105.12V118.5H111.48V105.12C111.48 101.65 108.65 98.8199 105.18 98.8199V98.8099ZM108.48 115.49H101.81V105.12C101.81 103.3 103.29 101.82 105.11 101.82H105.18C107 101.82 108.48 103.3 108.48 105.12V115.5V115.49Z" fill="#002341"/>
</svg>
