<svg width="156" height="156" viewBox="0 0 156 156" fill="none" xmlns="http://www.w3.org/2000/svg">
<path d="M117.09 112.15V60.01L81.85 41.12C79.66 39.62 76.43 39.63 74.24 41.12L39.01 60.01V112.15H24V115.15H132.1V112.15H117.09ZM57.03 112.15V91.13H69.04V112.15H57.03ZM87.06 112.15V91.13H99.07V112.15H87.06ZM102.07 112.15V88.13H84.05V112.15H72.04V88.13H54.02V112.15H42.01V61.8L75.74 43.73L75.9 43.63C77.08 42.79 79.01 42.79 80.2 43.63L114.08 61.8V112.14H102.07V112.15Z" fill="#002341"/>
<path d="M57.03 79.12H69.04V64.11H57.03V79.12ZM60.03 67.11H66.04V76.12H60.03V67.11Z" fill="#002341"/>
<path d="M99.07 64.1H87.06V79.11H99.07V64.1Z" fill="#002341"/>
</svg>
