<svg width="156" height="156" viewBox="0 0 156 156" fill="none" xmlns="http://www.w3.org/2000/svg">
<path d="M126.1 124.09V76.05H30.01V124.09H18V127.09H138.11V124.09H126.1ZM33.01 124.09V79.05H78.05V124.09H33.01ZM81.05 124.09V79.05H123.09V124.09H81.05Z" fill="#002341"/>
<path d="M39.02 118.08H72.05V100.06H39.02V118.08ZM42.02 103.07H69.04V115.08H42.02V103.07Z" fill="#002341"/>
<path d="M29.61 61.03H126.1V28H78.06V55.78L63.05 45.24V29.5C63.05 28.67 62.38 28 61.55 28H46.54C45.71 28 45.04 28.67 45.04 29.5V45.29L28.68 58.35C28.18 58.75 27.99 59.42 28.2 60.02C28.41 60.62 28.98 61.03 29.62 61.03H29.61ZM81.06 31H123.1V43.01H81.06V31ZM81.06 46.01H123.1V58.02H81.26L81.06 57.88V46.01ZM47.47 47.18C47.83 46.9 48.03 46.46 48.03 46.01V31H60.04V46.01C60.04 46.5 60.28 46.96 60.68 47.24L76.04 58.02H33.89L47.46 47.18H47.47Z" fill="#002341"/>
<path d="M42.02 91.06C43.6769 91.06 45.02 89.7169 45.02 88.06C45.02 86.4031 43.6769 85.06 42.02 85.06C40.3631 85.06 39.02 86.4031 39.02 88.06C39.02 89.7169 40.3631 91.06 42.02 91.06Z" fill="#002341"/>
<path d="M51.03 91.06C52.6869 91.06 54.03 89.7169 54.03 88.06C54.03 86.4031 52.6869 85.06 51.03 85.06C49.3731 85.06 48.03 86.4031 48.03 88.06C48.03 89.7169 49.3731 91.06 51.03 91.06Z" fill="#002341"/>
<path d="M60.04 91.06C61.6969 91.06 63.04 89.7169 63.04 88.06C63.04 86.4031 61.6969 85.06 60.04 85.06C58.3831 85.06 57.04 86.4031 57.04 88.06C57.04 89.7169 58.3831 91.06 60.04 91.06Z" fill="#002341"/>
<path d="M90.07 106.07C91.7269 106.07 93.07 104.727 93.07 103.07C93.07 101.413 91.7269 100.07 90.07 100.07C88.4131 100.07 87.07 101.413 87.07 103.07C87.07 104.727 88.4131 106.07 90.07 106.07Z" fill="#002341"/>
</svg>
