<svg width="156" height="156" viewBox="0 0 156 156" fill="none" xmlns="http://www.w3.org/2000/svg">
<path fill-rule="evenodd" clip-rule="evenodd" d="M49 84V97C49 99.7614 51.2386 102 54 102H102C104.209 102 106 100.209 106 98V84H130C131.105 84 132 84.8954 132 86V127C132 128.105 131.105 129 130 129H25C23.8954 129 23 128.105 23 127V86C23 84.8954 23.8954 84 25 84H49Z" fill="#C2DDFF"/>
<path fill-rule="evenodd" clip-rule="evenodd" d="M15 82.0001C15 78.6864 17.6863 76.0001 21 76.0001H41C42.1046 76.0001 43 76.8956 43 78.0001C43 79.1047 42.1046 80.0001 41 80.0001H21C19.8954 80.0001 19 80.8956 19 82.0001L19 130.467C19 131.558 19.8736 132.447 20.9639 132.467L39.3544 132.799L63.9019 133H98C99.1046 133 100 133.896 100 135C100 136.105 99.1046 137 98 137H63.8939L63.8775 137L39.3115 136.799L39.2918 136.798L20.8918 136.466C17.6208 136.407 15 133.739 15 130.467L15 82.0001ZM113 78.0001C113 76.8956 113.895 76.0001 115 76.0001H134C137.314 76.0001 140 78.6864 140 82.0001V131C140 134.314 137.314 137 134 137H106C104.895 137 104 136.105 104 135C104 133.896 104.895 133 106 133H134C135.105 133 136 132.105 136 131V82.0001C136 80.8956 135.105 80.0001 134 80.0001H115C113.895 80.0001 113 79.1047 113 78.0001Z" fill="#1C3553"/>
<path fill-rule="evenodd" clip-rule="evenodd" d="M73.6595 21.6736C76.0175 19.1846 79.978 19.1742 82.3491 21.6506L121.205 62.2338C123.641 64.7777 121.838 69.0001 118.316 69.0001H109V98.0001C109 101.314 106.314 104 103 104H52.9999C49.6862 104 46.9999 101.314 46.9999 98.0001V69.0001H37.6288C34.1233 69.0001 32.3135 64.8114 34.716 62.2587L46.9999 49.207V33.0001C46.9999 31.3433 48.3431 30.0001 49.9999 30.0001H58.9999C60.6568 30.0001 61.9999 31.3433 61.9999 33.0001V33.9809L73.6595 21.6736ZM79.4599 24.4169C78.6695 23.5914 77.3493 23.5949 76.5634 24.4246L63.1778 38.5538C61.3126 40.5225 57.9999 39.2025 57.9999 36.4905V34.0001H50.9999V49.6035C50.9999 50.3677 50.7083 51.1031 50.1845 51.6596L37.6288 65.0001H47.9999C49.6568 65.0001 50.9999 66.3433 50.9999 68.0001V98.0001C50.9999 99.1047 51.8954 100 52.9999 100H103C104.105 100 105 99.1047 105 98.0001V68.0001C105 66.3433 106.343 65.0001 108 65.0001H118.316L79.4599 24.4169Z" fill="#1C3553"/>
<path fill-rule="evenodd" clip-rule="evenodd" d="M68.4761 59.0363C67.0092 60.531 66.6642 63.5477 68.5148 65.6941C70.9844 68.5586 73.6836 71.259 75.7753 73.251C76.6464 74.0805 77.4085 74.7837 77.9999 75.3208C78.5914 74.7837 79.3535 74.0804 80.2246 73.2509C82.3164 71.2589 85.0155 68.5585 87.4852 65.6941C89.3357 63.5477 88.9907 60.531 87.5238 59.0363C86.8532 58.3529 85.9259 57.9567 84.7048 58.1265C83.421 58.305 81.616 59.1445 79.4356 61.3925C79.0589 61.7809 78.541 62.0001 77.9999 62.0001C77.4589 62.0001 76.941 61.7809 76.5643 61.3925C74.3839 59.1445 72.5789 58.305 71.2951 58.1265C70.074 57.9567 69.1467 58.3529 68.4761 59.0363ZM77.9999 78.0001L76.6924 79.5134C77.4433 80.1623 78.5565 80.1623 79.3075 79.5134L77.9999 78.0001ZM77.9999 78.0001C79.3075 79.5134 79.3073 79.5136 79.3075 79.5134L79.3135 79.5082L79.3282 79.4955L79.3825 79.4482C79.4297 79.4071 79.4985 79.3469 79.5873 79.2687C79.7648 79.1123 80.0222 78.8839 80.3462 78.5921C80.9939 78.0086 81.9087 77.1708 82.9831 76.1476C85.1272 74.1058 87.9281 71.3061 90.5147 68.306C93.7205 64.5877 93.3058 59.2173 90.3787 56.2346C88.8524 54.6792 86.6741 53.8142 84.1539 54.1646C82.1556 54.4424 80.0815 55.461 77.9999 57.2509C75.9183 55.461 73.8443 54.4424 71.846 54.1646C69.3257 53.8142 67.1475 54.6792 65.6212 56.2346C62.6941 59.2173 62.2795 64.5878 65.4853 68.3061C68.0719 71.3062 70.8728 74.1058 73.0168 76.1477C74.0912 77.1708 75.006 78.0086 75.6537 78.5921C75.9776 78.8839 76.2351 79.1123 76.4126 79.2687C76.5014 79.3469 76.5702 79.4071 76.6174 79.4482L76.6717 79.4955L76.6924 79.5134C76.6925 79.5136 76.6924 79.5134 77.9999 78.0001Z" fill="#1C3553"/>
</svg>
