<svg width="156" height="156" viewBox="0 0 156 156" fill="none" xmlns="http://www.w3.org/2000/svg">
<path d="M131.19 106.84V37H25.02V106.84H17L21.6 116.05C22.33 117.51 23.94 118.46 25.7 118.46H130.86C132.69 118.46 134.33 117.46 135.02 115.91L139.1 106.84H131.19ZM28.02 40H128.19V106.83H124.32V44.1H31.9V106.84H28.03V40H28.02ZM34.9 106.83V47.1H121.32V106.83H34.9ZM132.28 114.67C132.07 115.13 131.49 115.45 130.86 115.45H25.7C25.08 115.45 24.51 115.15 24.28 114.7L21.85 109.83H134.46L132.28 114.67Z" fill="#002341"/>
<path d="M83.11 111.15H73.18V114.15H83.11V111.15Z" fill="#002341"/>
<path d="M97.27 77.05C97.27 66.29 88.51 57.53 77.75 57.53C66.99 57.53 58.23 66.29 58.23 77.05V96.57H77.75C88.51 96.57 97.27 87.81 97.27 77.05ZM61.24 77.05C61.24 67.94 68.65 60.53 77.76 60.53C86.87 60.53 94.28 67.94 94.28 77.05C94.28 86.16 86.87 93.57 77.76 93.57H61.24V77.05Z" fill="#002341"/>
<path d="M86.55 71.84H68.96V74.84H86.55V71.84Z" fill="#002341"/>
<path d="M86.55 79.27H68.96V82.27H86.55V79.27Z" fill="#002341"/>
</svg>
