<svg width="156" height="156" viewBox="0 0 156 156" fill="none" xmlns="http://www.w3.org/2000/svg">
<path d="M131.19 106.84V37H25.02V106.84H17L21.6 116.05C22.33 117.51 23.94 118.46 25.7 118.46H130.86C132.69 118.46 134.33 117.46 135.02 115.91L139.1 106.84H131.19ZM28.02 40H128.19V106.83H124.32V44.1H31.9V106.84H28.03V40H28.02ZM121.31 47.1V106.83H34.9V47.1H121.32H121.31ZM132.28 114.67C132.07 115.13 131.49 115.45 130.86 115.45H25.7C25.08 115.45 24.51 115.15 24.28 114.7L21.85 109.83H134.46L132.28 114.67Z" fill="#002341"/>
<path d="M83.11 111.14H73.18V114.14H83.11V111.14Z" fill="#002341"/>
<path d="M98.18 68.6L80.43 59.05C79.09 58.15 77.22 58.16 75.88 59.05L58.13 68.6V97.07H98.17V68.6H98.18ZM95.18 94.07H61.15V70.39L77.39 61.65L77.55 61.55C77.86 61.32 78.46 61.32 78.78 61.55L95.18 70.39V94.07Z" fill="#002341"/>
</svg>
