<svg width="156" height="156" viewBox="0 0 156 156" fill="none" xmlns="http://www.w3.org/2000/svg">
<path d="M77.98 39.27C78.81 39.27 79.48 38.6 79.48 37.77V27.5C79.48 26.67 78.81 26 77.98 26C77.15 26 76.48 26.67 76.48 27.5V37.76C76.48 38.59 77.15 39.26 77.98 39.26V39.27Z" fill="#002341"/>
<path d="M107.64 37.15C107.11 36.52 106.15 36.44 105.52 36.97L97.69 43.6C97.06 44.14 96.98 45.09 97.52 45.72C97.82 46.07 98.24 46.25 98.67 46.25C99.01 46.25 99.36 46.13 99.64 45.89L107.47 39.26C108.1 38.72 108.18 37.77 107.64 37.14V37.15Z" fill="#002341"/>
<path d="M57.33 46.18C57.76 46.18 58.18 46 58.48 45.65C59.02 45.02 58.94 44.07 58.31 43.53L50.49 36.9C49.86 36.36 48.9 36.44 48.37 37.07C47.83 37.7 47.91 38.65 48.54 39.19L56.36 45.82C56.64 46.06 56.99 46.18 57.33 46.18Z" fill="#002341"/>
<path d="M77.53 44.24C63.83 44.46 52.35 55.77 51.92 69.46C51.71 76.16 54.05 82.6 58.5 87.59C63.49 93.18 66.23 100.21 66.23 107.38V109.76H89.67V107.39C89.67 99.92 92.24 93.08 96.92 88.13C101.49 83.29 104 76.95 104 70.3C104 63.26 101.24 56.67 96.22 51.73C91.21 46.8 84.53 44.14 77.52 44.25L77.53 44.24ZM94.73 86.05C89.66 91.42 86.81 98.75 86.67 106.74H69.23C69.07 99.05 66.07 91.56 60.74 85.58C56.8 81.17 54.74 75.47 54.92 69.55C55.3 57.45 65.45 47.44 77.57 47.25C83.84 47.12 89.68 49.5 94.11 53.86C98.55 58.23 100.99 64.06 100.99 70.28C100.99 76.16 98.77 81.76 94.73 86.05Z" fill="#002341"/>
<path d="M89.09 113.55H66.59V116.56H89.09V113.55Z" fill="#002341"/>
<path d="M89.09 119.87H66.59V122.88H89.09V119.87Z" fill="#002341"/>
<path d="M85.58 126.2H70.06V129.21H85.58V126.2Z" fill="#002341"/>
</svg>
