<svg width="156" height="156" viewBox="0 0 156 156" fill="none" xmlns="http://www.w3.org/2000/svg">
<path d="M111.89 69.51C106.92 69.51 102.88 73.55 102.88 78.52C102.88 83.49 106.92 87.53 111.89 87.53C116.86 87.53 120.9 83.49 120.9 78.52C120.9 73.55 116.86 69.51 111.89 69.51ZM111.89 84.52C108.58 84.52 105.88 81.83 105.88 78.51C105.88 75.19 108.57 72.5 111.89 72.5C115.21 72.5 117.9 75.19 117.9 78.51C117.9 81.83 115.21 84.52 111.89 84.52Z" fill="#002341"/>
<path d="M68.04 70.11H80.05V55.1H68.04V70.11ZM71.04 58.1H77.05V67.11H71.04V58.1Z" fill="#002341"/>
<path d="M44.02 91.13H56.03V76.12H44.02V91.13ZM47.02 79.12H53.03V88.13H47.02V79.12Z" fill="#002341"/>
<path d="M111.89 52.41C111.34 52.41 110.81 52.46 110.28 52.49L77.85 35.12C75.66 33.62 72.43 33.62 70.24 35.12L35.01 54.01V106.15H20V109.15H103.91L111.89 121.05L119.9 109.15H128.11V106.15H121.92L129.69 94.6C130.08 93.97 130.47 93.35 130.86 92.75C133.9 87.96 136.76 83.44 136.76 77.29C136.76 63.58 125.61 52.42 111.89 52.42V52.41ZM80.06 106.14H68.05V85.12H80.06V106.14ZM83.06 106.14V82.12H65.04V106.14H38.02V55.8L71.74 37.73L71.9 37.63C73.08 36.79 75.01 36.79 76.2 37.63L105.41 53.3C94.83 56.16 87.02 65.81 87.02 77.28C87.02 83.43 89.92 87.96 92.99 92.75C93.42 93.42 93.85 94.1 94.31 94.82L101.9 106.15H83.06V106.14ZM128.31 91.12C127.92 91.74 127.52 92.36 127.16 92.95L111.89 115.65L96.83 93.18C96.39 92.48 95.96 91.8 95.52 91.12C92.57 86.52 90.03 82.54 90.03 77.27C90.03 65.21 99.84 55.41 111.89 55.41C123.94 55.41 133.75 65.22 133.75 77.27C133.75 82.55 131.23 86.52 128.31 91.12Z" fill="#002341"/>
</svg>
