<svg width="156" height="156" viewBox="0 0 156 156" fill="none" xmlns="http://www.w3.org/2000/svg">
<path d="M92.38 94.8001L102.49 80.0901C103.05 79.2001 103.62 78.3301 104.17 77.4801C108.49 70.8101 112.57 64.5101 112.66 55.9801C112.75 46.7301 109.24 38.0001 102.76 31.3901C96.29 24.7801 87.63 21.0901 78.38 21.0001C69.14 20.9301 60.4 24.4201 53.79 30.9001C47.19 37.3801 43.5 46.0301 43.41 55.2801C43.32 63.8201 47.32 70.2001 51.56 76.9601C52.16 77.9201 52.76 78.8801 53.39 79.9001L63.22 94.8901C50.26 97.5001 42 103.31 42 109.98C42 119.24 57.83 126.5 78.03 126.5C98.23 126.5 114.06 119.25 114.06 109.98C114.06 103.2 105.62 97.3601 92.37 94.8001H92.38ZM54.1 75.3701C50.11 69.0001 46.33 62.9701 46.41 55.3201C46.49 46.8701 49.86 38.9601 55.89 33.0501C61.85 27.2101 69.69 24.0101 78.02 24.0101C78.13 24.0101 78.24 24.0101 78.34 24.0101C86.79 24.0901 94.7 27.4601 100.61 33.4901C106.52 39.5201 109.73 47.5001 109.65 55.9401C109.57 63.6001 105.9 69.2701 101.65 75.8401C101.09 76.7101 100.52 77.5801 99.98 78.4301L77.48 111.17L55.92 78.3001C55.32 77.3101 54.7 76.3301 54.1 75.3701ZM78.03 123.5C58.27 123.5 45 116.51 45 109.99C45 104.79 53.17 99.7701 64.99 97.6101L77.42 116.56L90.52 97.5101C102.66 99.6101 111.06 104.68 111.06 109.99C111.06 116.52 97.79 123.5 78.03 123.5Z" fill="#002341"/>
<path d="M90.04 54.4301C90.04 47.8101 84.65 42.4201 78.03 42.4201C71.41 42.4201 66.02 47.8101 66.02 54.4301C66.02 61.0501 71.41 66.4401 78.03 66.4401C84.65 66.4401 90.04 61.0501 90.04 54.4301ZM69.02 54.4301C69.02 49.4601 73.06 45.4201 78.03 45.4201C83 45.4201 87.04 49.4601 87.04 54.4301C87.04 59.4001 83 63.4401 78.03 63.4401C73.06 63.4401 69.02 59.4001 69.02 54.4301Z" fill="#002341"/>
</svg>
