<svg width="156" height="156" viewBox="0 0 156 156" fill="none" xmlns="http://www.w3.org/2000/svg">
<path d="M118.61 108.68C118.31 107.13 117.44 105.67 116.12 104.55L91.58 84.16C93.79 80.11 95.05 75.46 95.05 70.53C95.05 54.8 82.26 42 66.53 42C50.8 42 38 54.8 38 70.53C38 86.26 50.8 99.06 66.53 99.06C73.35 99.06 79.61 96.65 84.52 92.65C84.56 92.69 84.58 92.74 84.62 92.78L108.88 113.06C110.28 114.25 111.95 114.85 113.53 114.85C115.11 114.85 116.54 114.27 117.53 113.11C118.53 111.94 118.92 110.33 118.6 108.69L118.61 108.68ZM41 70.53C41 56.45 52.45 45 66.53 45C80.61 45 92.05 56.45 92.05 70.52C92.05 84.59 80.6 96.04 66.53 96.04C52.46 96.04 41 84.6 41 70.53ZM115.25 111.16C114.34 112.22 112.32 112.05 110.82 110.77L86.74 90.64C87.93 89.44 89.01 88.13 89.98 86.74L114.19 106.86C114.96 107.52 115.49 108.39 115.66 109.26C115.75 109.7 115.8 110.53 115.26 111.17L115.25 111.16Z" fill="#002341"/>
</svg>
