<svg width="156" height="156" viewBox="0 0 156 156" fill="none" xmlns="http://www.w3.org/2000/svg">
<path d="M81.4889 34.6655C94.3762 47.5528 94.3762 68.4472 81.4889 81.3345C68.6016 94.2218 47.7072 94.2218 34.8199 81.3345C21.9326 68.4472 21.9326 47.5528 34.8199 34.6655C47.7072 21.7782 68.6016 21.7782 81.4889 34.6655Z" fill="#C2DDFF"/>
<path d="M94.2167 102.548L117.551 125.882C119.113 127.444 121.646 127.444 123.208 125.882L126.037 123.054C127.599 121.492 127.599 118.959 126.037 117.397L102.702 94.0622C101.921 93.2812 100.655 93.2812 99.8736 94.0622L94.2167 99.7191C93.4357 100.5 93.4357 101.766 94.2167 102.548Z" fill="#C2DDFF"/>
<path fill-rule="evenodd" clip-rule="evenodd" d="M31.9926 31.8359C17.5425 46.2859 17.5425 69.7141 31.9926 84.1641C46.4426 98.6141 69.8707 98.6141 84.3207 84.1641C98.7708 69.7141 98.7708 46.2859 84.3207 31.8359C69.8707 17.3859 46.4426 17.3859 31.9926 31.8359ZM29.1641 86.9925C13.152 70.9804 13.152 45.0196 29.1641 29.0075C45.1763 12.9954 71.137 12.9954 87.1492 29.0075C103.161 45.0196 103.161 70.9804 87.1492 86.9925C71.137 103.005 45.1763 103.005 29.1641 86.9925Z" fill="#1C3553"/>
<path fill-rule="evenodd" clip-rule="evenodd" d="M92.8025 103.962C91.2405 102.4 91.2405 99.8671 92.8025 98.305L98.4594 92.6481C100.021 91.086 102.554 91.086 104.116 92.6481L128.158 116.69C130.501 119.033 130.501 122.832 128.158 125.175L125.329 128.003C122.986 130.347 119.187 130.347 116.844 128.003L92.8025 103.962ZM101.288 95.4766L95.631 101.133L119.673 125.175C120.454 125.956 121.72 125.956 122.501 125.175L125.329 122.347C126.111 121.566 126.111 120.299 125.329 119.518L101.288 95.4766Z" fill="#1C3553"/>
<path fill-rule="evenodd" clip-rule="evenodd" d="M85.7316 96.8908C84.9505 96.1097 84.9505 94.8434 85.7316 94.0623L94.2169 85.5771C94.9979 84.796 96.2643 84.796 97.0453 85.5771C97.8264 86.3581 97.8264 87.6244 97.0453 88.4055L88.56 96.8908C87.779 97.6718 86.5126 97.6718 85.7316 96.8908Z" fill="#1C3553"/>
</svg>
