<svg width="156" height="156" viewBox="0 0 156 156" fill="none" xmlns="http://www.w3.org/2000/svg">
<path d="M96.72 41.66H59.48V44.66H96.72V41.66Z" fill="#002341"/>
<path d="M63.11 79.4H93.08C95.91 79.4 98.22 77.09 98.22 74.26V58.5C98.22 55.67 95.92 53.36 93.08 53.36H63.11C60.28 53.36 57.97 55.67 57.97 58.5V74.26C57.97 77.09 60.27 79.4 63.11 79.4ZM60.97 58.5C60.97 57.32 61.93 56.36 63.11 56.36H93.08C94.26 56.36 95.22 57.32 95.22 58.5V74.26C95.22 75.44 94.26 76.4 93.08 76.4H63.11C61.93 76.4 60.97 75.44 60.97 74.26V58.5Z" fill="#002341"/>
<path d="M119.76 68.94C119.76 68.89 119.75 68.83 119.74 68.78C119.71 68.64 119.66 68.5 119.59 68.38C119.58 68.35 119.57 68.33 119.55 68.3C119.46 68.15 119.33 68.03 119.19 67.92C119.18 67.91 119.17 67.89 119.15 67.88L110.14 61.45C110.14 61.45 110.04 61.41 109.99 61.38V29H46.79V61.33L37.63 67.87C37.63 67.87 37.61 67.9 37.59 67.91C37.45 68.02 37.32 68.14 37.23 68.29C37.22 68.31 37.21 68.33 37.2 68.35C37.13 68.48 37.07 68.62 37.04 68.77C37.03 68.82 37.02 68.87 37.02 68.93C37.02 68.98 37 69.03 37 69.09V122.42C37 125.23 39.39 127.52 42.33 127.52H114.44C117.38 127.52 119.78 125.23 119.78 122.42V69.09C119.78 69.04 119.76 68.99 119.76 68.93V68.94ZM115.89 69.24L109.99 74.59V65.03L115.89 69.24ZM106.99 32V77.3L86.29 96.06H72.52L49.79 76.73V32H106.99ZM86.24 99.06L110.91 124.52H46.06L72.57 99.06H86.24ZM46.8 74.18L40.95 69.2L46.8 65.02V74.18ZM40.01 122.43V72.35L69.74 97.63L41.8 124.46C40.77 124.24 40.01 123.41 40.01 122.42V122.43ZM116.79 122.43C116.79 123.41 116.04 124.23 115.02 124.46L89.03 97.64L116.78 72.49V122.43H116.79Z" fill="#002341"/>
<path d="M73.81 74.47C74.03 74.59 74.27 74.64 74.51 74.64C74.81 74.64 75.11 74.55 75.36 74.37L85.18 67.6C85.59 67.32 85.83 66.86 85.83 66.36C85.83 65.86 85.59 65.4 85.18 65.12L75.36 58.37C74.9 58.05 74.3 58.02 73.81 58.28C73.32 58.54 73.01 59.05 73.01 59.61V73.13C73.01 73.69 73.32 74.2 73.81 74.46V74.47ZM76.01 62.47L81.69 66.37L76.01 70.28V62.47Z" fill="#002341"/>
</svg>
