<svg width="156" height="156" viewBox="0 0 156 156" fill="none" xmlns="http://www.w3.org/2000/svg">
<path d="M97.17 47.58H73.03V50.58H97.17V47.58Z" fill="#002341"/>
<path d="M97.17 59.89H73.03V62.89H97.17V59.89Z" fill="#002341"/>
<path d="M85.41 84.51H58.93V87.51H85.41V84.51Z" fill="#002341"/>
<path d="M97.85 72.2H58.93V75.2H97.85V72.2Z" fill="#002341"/>
<path d="M68.17 47.58H58.43V57.32H68.17V47.58ZM65.17 54.32H61.43V50.58H65.17V54.32Z" fill="#002341"/>
<path d="M119.76 76.4C119.76 76.34 119.75 76.28 119.73 76.22C119.71 76.11 119.67 76.01 119.62 75.91C119.56 75.77 119.47 75.64 119.36 75.52C119.32 75.48 119.29 75.43 119.25 75.4C119.22 75.38 119.21 75.34 119.18 75.32L109.99 68.44V22H46.79V68.54L37.61 75.33C37.61 75.33 37.57 75.38 37.54 75.41C37.44 75.49 37.36 75.59 37.28 75.69C37.23 75.76 37.2 75.82 37.16 75.89C37.11 76 37.06 76.11 37.04 76.23C37.03 76.29 37.02 76.34 37.02 76.4C37.02 76.45 37 76.5 37 76.55V129.88C37 132.69 39.39 134.98 42.34 134.98H114.45C117.39 134.98 119.79 132.69 119.79 129.88V76.55C119.79 76.5 119.77 76.45 119.77 76.4H119.76ZM109.99 72.14L115.97 76.62L109.99 82.04V72.14ZM106.98 25V84.76L86.28 103.52H72.51L49.78 84.19V25H106.98ZM72.53 106.55H86.26L110.89 131.97H46.07L72.54 106.55H72.53ZM46.79 72.23V81.64L40.87 76.61L46.79 72.23ZM40 129.88V79.8L46.79 85.57H46.81L69.74 105.08L41.8 131.91C40.77 131.69 40.01 130.86 40.01 129.87L40 129.88ZM116.78 129.88C116.78 130.86 116.03 131.68 115.01 131.91L89.03 105.09L91.08 103.22L116.78 79.94V129.88Z" fill="#002341"/>
</svg>
