<svg width="156" height="156" viewBox="0 0 156 156" fill="none" xmlns="http://www.w3.org/2000/svg">
<path d="M123.39 102.06V54.01H111.38V102.05H103.57V42H91.56V102.06H83.75V66.02H71.74V102.05H63.93V54.01H51.92V102.05H44.11V87.04H32.1V102.05H21V105.05H135.11V102.05H123.4L123.39 102.06ZM35.11 102.06V90.05H41.12V102.06H35.11ZM54.93 102.06V57.01H60.94V102.05H54.93V102.06ZM74.75 102.06V69.02H80.76V102.05H74.75V102.06ZM94.57 102.06V45H100.58V102.05H94.57V102.06ZM114.39 102.06V57.01H120.4V102.05H114.39V102.06Z" fill="#002341"/>
<path d="M32.11 128.48H44.12V116.47H32.11V128.48ZM35.11 119.47H41.12V125.48H35.11V119.47Z" fill="#002341"/>
<path d="M51.93 128.48H63.94V108.15H51.93V128.48ZM54.93 111.16H60.94V125.48H54.93V111.16Z" fill="#002341"/>
<path d="M71.75 128.48H83.76V116.47H71.75V128.48ZM74.75 119.47H80.76V125.48H74.75V119.47Z" fill="#002341"/>
<path d="M91.57 128.48H103.58V113.47H91.57V128.48ZM94.57 116.47H100.58V125.48H94.57V116.47Z" fill="#002341"/>
<path d="M111.38 128.48H123.39V116.47H111.38V128.48ZM114.38 119.47H120.39V125.48H114.38V119.47Z" fill="#002341"/>
</svg>
