<svg width="156" height="156" viewBox="0 0 156 156" fill="none" xmlns="http://www.w3.org/2000/svg">
<path d="M123.39 102.07V42.01H111.38V102.07H103.57V30H91.56V102.07H83.75V57.02H71.74V102.06H63.93V42.01H51.92V102.07H44.11V72.04H32.1V102.07H21V105.07H135.11V102.07H123.39ZM35.11 102.07V75.05H41.12V102.07H35.11ZM54.93 102.07V45.01H60.94V102.06H54.93V102.07ZM74.75 102.07V60.03H80.76V102.07H74.75ZM94.57 102.07V33H100.58V102.06H94.57V102.07ZM114.39 102.07V45.01H120.4V102.06H114.39V102.07Z" fill="#002341"/>
</svg>
