<svg width="156" height="156" viewBox="0 0 156 156" fill="none" xmlns="http://www.w3.org/2000/svg">
<path d="M123.39 103.07V31.31H111.38V103.06H103.57V43.01H91.56V103.07H83.75V31H71.74V103.07H63.93V43.32H51.92V103.06H44.11V31H32.1V103.07H21V106.07H135.11V103.07H123.39ZM35.11 103.07V34H41.12V103.06H35.11V103.07ZM54.93 103.07V46.33H60.94V103.07H54.93ZM74.75 103.07V34H80.76V103.06H74.75V103.07ZM94.57 103.07V46.01H100.58V103.06H94.57V103.07ZM114.39 103.07V34.32H120.4V103.07H114.39Z" fill="#002341"/>
</svg>
