<svg width="156" height="156" viewBox="0 0 156 156" fill="none" xmlns="http://www.w3.org/2000/svg">
<path d="M101.17 41.06L25 62.58V56.64H22V98.68H25V92.74L101.16 114.26C101.29 114.3 101.43 114.32 101.57 114.32C101.89 114.32 102.21 114.22 102.48 114.02C102.86 113.74 103.08 113.29 103.08 112.82V42.5C103.08 42.03 102.86 41.59 102.49 41.3C102.12 41.02 101.63 40.92 101.18 41.05L101.17 41.06ZM100.07 110.83L25 89.62V65.7L100.07 44.49V110.83Z" fill="#002341"/>
<path d="M131.6 77.66H116.59C115.76 77.66 115.09 78.33 115.09 79.16C115.09 79.99 115.76 80.66 116.59 80.66H131.6C132.43 80.66 133.1 79.99 133.1 79.16C133.1 78.33 132.43 77.66 131.6 77.66Z" fill="#002341"/>
<path d="M115.44 59.78C115.64 59.78 115.84 59.74 116.04 59.65L128.42 54.23C129.18 53.9 129.53 53.01 129.19 52.25C128.86 51.49 127.97 51.15 127.21 51.48L114.83 56.9C114.07 57.23 113.72 58.12 114.06 58.88C114.31 59.44 114.86 59.78 115.44 59.78Z" fill="#002341"/>
<path d="M128.42 101.18L116.04 95.76C115.28 95.43 114.39 95.77 114.06 96.53C113.73 97.29 114.07 98.18 114.83 98.51L127.21 103.93C127.41 104.02 127.61 104.06 127.81 104.06C128.39 104.06 128.94 103.72 129.19 103.16C129.52 102.4 129.18 101.51 128.42 101.18Z" fill="#002341"/>
</svg>
