<svg width="156" height="156" viewBox="0 0 156 156" fill="none" xmlns="http://www.w3.org/2000/svg">
<path d="M78.15 45.72C69.04 45.72 61.63 53.13 61.63 62.24V87.98C61.63 97.09 69.04 104.5 78.15 104.5C87.26 104.5 94.67 97.09 94.67 87.98V62.24C94.67 53.13 87.26 45.72 78.15 45.72ZM91.66 87.97C91.66 95.42 85.6 101.48 78.15 101.48C70.7 101.48 64.64 95.42 64.64 87.97V62.23C64.64 54.78 70.7 48.72 78.15 48.72C85.6 48.72 91.66 54.78 91.66 62.23V87.97Z" fill="#002341"/>
<path d="M104.89 89.53C104.89 88.7 104.22 88.03 103.39 88.03C102.56 88.03 101.89 88.7 101.89 89.53C101.89 102.46 91.37 112.97 78.45 112.97C65.53 112.97 55 102.46 55 89.53C55 88.7 54.33 88.03 53.5 88.03C52.67 88.03 52 88.7 52 89.53C52 103.5 62.9 114.95 76.64 115.88V129.09H61.63V132.09H94.66V129.09H79.65V115.91C93.67 115.28 104.89 103.7 104.89 89.53Z" fill="#002341"/>
<path d="M64.45 43.79C64.7 44.34 65.25 44.66 65.82 44.66C66.03 44.66 66.24 44.62 66.45 44.52C67.2 44.17 67.53 43.28 67.19 42.53L61.34 29.83C60.99 29.08 60.1 28.75 59.35 29.09C58.6 29.44 58.27 30.33 58.61 31.08L64.46 43.78L64.45 43.79Z" fill="#002341"/>
<path d="M78.15 42.02C78.98 42.02 79.65 41.35 79.65 40.52V25.5C79.65 24.67 78.98 24 78.15 24C77.32 24 76.65 24.67 76.65 25.5V40.51C76.65 41.34 77.32 42.01 78.15 42.01V42.02Z" fill="#002341"/>
<path d="M90.45 44.52C90.65 44.61 90.87 44.66 91.08 44.66C91.65 44.66 92.19 44.34 92.45 43.79L98.3 31.09C98.65 30.34 98.32 29.44 97.56 29.1C96.81 28.75 95.91 29.08 95.57 29.84L89.72 42.54C89.37 43.29 89.7 44.19 90.46 44.53L90.45 44.52Z" fill="#002341"/>
</svg>
