<svg width="156" height="156" viewBox="0 0 156 156" fill="none" xmlns="http://www.w3.org/2000/svg">
<path d="M60.26 44.68L54.89 51.81L52.35 49.7C51.71 49.17 50.77 49.26 50.24 49.9C49.71 50.54 49.8 51.48 50.44 52.01L54.19 55.13C54.46 55.35 54.8 55.48 55.15 55.48C55.21 55.48 55.27 55.48 55.32 55.47C55.73 55.42 56.1 55.21 56.35 54.88L62.67 46.5C63.17 45.84 63.04 44.9 62.37 44.4C61.71 43.9 60.77 44.03 60.27 44.69L60.26 44.68Z" fill="#002341"/>
<path d="M60.24 63.72L54.87 70.85L52.33 68.74C51.69 68.21 50.75 68.3 50.22 68.94C49.69 69.58 49.78 70.52 50.42 71.05L54.17 74.17C54.44 74.39 54.78 74.52 55.13 74.52C55.19 74.52 55.25 74.52 55.3 74.51C55.71 74.46 56.08 74.25 56.33 73.92L62.65 65.54C63.15 64.88 63.02 63.94 62.35 63.44C61.69 62.94 60.75 63.07 60.25 63.73L60.24 63.72Z" fill="#002341"/>
<path d="M107.11 79.86C105.77 79.86 104.52 80.28 103.49 81.01C103.36 80.24 103.11 79.51 102.76 78.85C102.74 78.82 102.73 78.78 102.71 78.74C102.58 78.5 102.42 78.29 102.27 78.07C102.2 77.97 102.14 77.86 102.07 77.76C101.96 77.62 101.82 77.5 101.7 77.37C101.56 77.22 101.43 77.06 101.28 76.92C101.18 76.83 101.07 76.77 100.97 76.68C100.77 76.52 100.58 76.36 100.37 76.23C100.25 76.16 100.12 76.11 99.99 76.04C99.78 75.93 99.57 75.8 99.34 75.71C99.17 75.64 98.98 75.61 98.8 75.55C98.61 75.49 98.42 75.42 98.23 75.38C97.85 75.31 97.45 75.27 97.05 75.27C96.67 75.27 96.3 75.31 95.93 75.37C95.8 75.39 95.69 75.44 95.56 75.47C95.33 75.53 95.09 75.58 94.87 75.66C94.73 75.71 94.6 75.79 94.46 75.85C94.27 75.94 94.08 76.02 93.89 76.12C93.75 76.2 93.62 76.3 93.49 76.4C93.35 76.5 93.19 76.59 93.06 76.7V28.86C93.06 24.52 89.53 21 85.2 21H49.86C45.53 21 42 24.53 42 28.86V112.23C42 116.56 45.53 120.09 49.86 120.09H72.28C72.28 120.09 72.33 120.17 72.35 120.21C72.55 120.6 72.77 120.98 73 121.36C73.16 121.62 73.32 121.87 73.48 122.12C73.68 122.42 73.89 122.72 74.11 123.01C74.39 123.38 74.69 123.74 75 124.09C75.14 124.25 75.27 124.42 75.42 124.58C75.91 125.1 76.42 125.58 76.97 126.03C77.09 126.13 77.21 126.22 77.33 126.31C77.78 126.67 78.24 127 78.71 127.31C78.89 127.42 79.06 127.53 79.24 127.64C79.7 127.92 80.16 128.17 80.64 128.4C80.82 128.49 81 128.58 81.18 128.67C81.84 128.96 82.51 129.23 83.2 129.45C85.86 130.27 89.12 130.94 92.68 130.94C96.83 130.94 101.39 130.03 105.87 127.37C110.66 124.53 113.63 119.27 113.63 113.67V86.79C113.63 82.97 110.69 79.86 107.08 79.86H107.11ZM86.93 72.63C85.62 72.63 84.41 73.04 83.38 73.74V64.2C83.38 60.38 80.44 57.27 76.83 57.27C73.22 57.27 70.28 60.38 70.28 64.2V89.89C68.88 88.76 66.82 87.6 63.83 86.69C60.37 85.64 55.5 85.23 53.3 86.56C52.2 87.22 51.48 88.48 51.42 89.84C51.36 91.13 51.9 92.33 52.87 93.05C58.49 97.23 62.2 101.03 64.73 104.2H45V38.12H90.04V73.48C89.11 72.94 88.06 72.63 86.93 72.63ZM49.86 24H85.18C87.86 24 90.04 26.18 90.04 28.86V35.11H45V28.86C45 26.18 47.18 24 49.86 24ZM49.86 117.09C47.18 117.09 45 114.91 45 112.23V107.18H66.91C68.37 109.41 69.17 111.15 69.67 112.24C70.02 113 70.47 114.82 70.84 116.28C70.91 116.56 71.02 116.82 71.1 117.09H49.86ZM110.65 113.67C110.65 118.23 108.24 122.49 104.36 124.79C103.44 125.34 102.51 125.8 101.59 126.19C98.35 127.55 95.11 128 92.12 127.93C90.84 127.9 89.6 127.78 88.43 127.59C86.87 127.34 85.41 126.98 84.12 126.58C83.53 126.4 82.96 126.17 82.4 125.92C82.24 125.85 82.09 125.76 81.93 125.68C81.54 125.49 81.15 125.28 80.78 125.05C80.6 124.94 80.43 124.83 80.26 124.71C79.92 124.49 79.6 124.25 79.28 124C79.1 123.86 78.93 123.72 78.76 123.57C78.48 123.33 78.21 123.07 77.95 122.81C77.77 122.63 77.58 122.46 77.41 122.27C77.22 122.06 77.05 121.84 76.87 121.62C75.99 120.54 75.24 119.34 74.66 118.03C74.31 117.23 73.99 116.41 73.78 115.54C73.26 113.47 72.86 111.92 72.38 110.87C71.04 107.93 67.46 100.11 54.69 90.61C54.45 90.43 54.45 90.06 54.45 89.95C54.47 89.59 54.64 89.25 54.89 89.1C55.33 88.84 56.26 88.69 57.43 88.69C59.03 88.69 61.09 88.95 62.99 89.53C69.36 91.47 70.35 94.56 70.36 94.56C70.54 95.3 71.25 95.78 72 95.69C72.76 95.6 73.32 94.96 73.32 94.2V64.16C73.32 61.99 74.91 60.23 76.86 60.23C78.81 60.23 80.4 61.99 80.4 64.16V89.34C80.4 90.17 81.07 90.84 81.9 90.84C82.73 90.84 83.4 90.17 83.4 89.34V79.53C83.4 77.36 84.99 75.6 86.95 75.6C88.39 75.6 89.62 76.56 90.18 77.92C90.39 78.44 90.5 78.98 90.5 79.53V92.28C90.5 93.11 91.18 93.78 92 93.78C92.83 93.78 93.5 93.11 93.5 92.28V82.18C93.5 80.01 95.09 78.25 97.05 78.25C99.01 78.25 100.6 80.01 100.6 82.18V86.23C100.59 86.41 100.58 86.58 100.58 86.76V96.76C100.58 97.59 101.25 98.26 102.08 98.26C102.91 98.26 103.58 97.59 103.58 96.77L103.6 86.6C103.62 86.08 103.73 85.59 103.9 85.15C103.9 85.14 103.9 85.13 103.91 85.12C103.99 84.93 104.09 84.74 104.19 84.57C104.21 84.54 104.23 84.5 104.25 84.46C104.34 84.32 104.45 84.19 104.56 84.06C104.61 84.01 104.65 83.95 104.69 83.9C104.79 83.8 104.89 83.72 105 83.63C105.07 83.57 105.14 83.5 105.21 83.45C105.31 83.38 105.41 83.33 105.52 83.27C105.61 83.22 105.7 83.16 105.79 83.12C105.91 83.07 106.03 83.04 106.15 83C106.24 82.97 106.33 82.93 106.42 82.91C106.64 82.86 106.87 82.84 107.1 82.84C109.05 82.84 110.64 84.6 110.64 86.77V113.65L110.65 113.67Z" fill="#002341"/>
</svg>
