<svg width="156" height="156" viewBox="0 0 156 156" fill="none" xmlns="http://www.w3.org/2000/svg">
<path d="M85.64 69.64H53.24C53.34 66.59 53.99 59.4 57.91 55.33C59.82 53.35 62.2 52.38 65.21 52.38C76.22 52.38 76.39 64.49 76.4 65.01H79.4C79.4 59.6 76.43 49.38 65.21 49.38C61.39 49.38 58.21 50.68 55.74 53.26C51.05 58.15 50.32 66.25 50.23 69.64H43.98C40.68 69.64 38 72.32 38 75.62V112.36C38 115.66 40.68 118.34 43.98 118.34H85.64C88.94 118.34 91.62 115.66 91.62 112.36V75.62C91.62 72.32 88.94 69.64 85.64 69.64ZM88.61 112.36C88.61 114 87.28 115.33 85.64 115.33H43.98C42.34 115.33 41.01 114 41.01 112.36V75.62C41.01 73.98 42.34 72.65 43.98 72.65H85.64C87.28 72.65 88.61 73.98 88.61 75.62V112.36Z" fill="#002341"/>
<path d="M66.31 86.57H63.31V101.41H66.31V86.57Z" fill="#002341"/>
<path d="M113.7 52.67C113.31 51.94 112.4 51.66 111.67 52.06L93.73 61.69C93 62.08 92.72 62.99 93.12 63.72C93.39 64.23 93.91 64.51 94.44 64.51C94.68 64.51 94.92 64.45 95.15 64.33L113.09 54.7C113.82 54.31 114.1 53.4 113.7 52.67Z" fill="#002341"/>
<path d="M86.84 58.44C87.08 58.58 87.33 58.64 87.59 58.64C88.11 58.64 88.61 58.37 88.89 57.89L99.07 40.25C99.48 39.53 99.24 38.61 98.52 38.2C97.8 37.79 96.88 38.03 96.47 38.75L86.29 56.39C85.88 57.11 86.12 58.03 86.84 58.44Z" fill="#002341"/>
<path d="M117.16 70.6H96.8C95.97 70.6 95.3 71.27 95.3 72.1C95.3 72.93 95.97 73.6 96.8 73.6H117.16C117.99 73.6 118.66 72.93 118.66 72.1C118.66 71.27 117.99 70.6 117.16 70.6Z" fill="#002341"/>
</svg>
