<svg width="156" height="156" viewBox="0 0 156 156" fill="none" xmlns="http://www.w3.org/2000/svg">
<path d="M56.5 107H77.5C78.33 107 79 106.33 79 105.5C79 104.67 78.33 104 77.5 104H56.5C55.67 104 55 104.67 55 105.5C55 106.33 55.67 107 56.5 107Z" fill="#002341"/>
<path d="M47.5 107C48.3284 107 49 106.328 49 105.5C49 104.672 48.3284 104 47.5 104C46.6716 104 46 104.672 46 105.5C46 106.328 46.6716 107 47.5 107Z" fill="#002341"/>
<path d="M83.5 107C84.3284 107 85 106.328 85 105.5C85 104.672 84.3284 104 83.5 104C82.6716 104 82 104.672 82 105.5C82 106.328 82.6716 107 83.5 107Z" fill="#002341"/>
<path d="M106 119V65H122.5C123.33 65 124 64.33 124 63.5V33.5C124 32.67 123.33 32 122.5 32H89.5C88.67 32 88 32.67 88 33.5V63.5C88 64.33 88.67 65 89.5 65H103V119H93.68C93.88 118.48 94 117.92 94 117.32V97.03C94 96.77 93.91 96.53 93.79 96.3C94.52 96.03 95.23 95.63 95.66 95.02C97.01 93.09 95.18 89.73 94.61 88.94C93.91 87.96 92.33 87.68 89.89 88.11C87.95 83.57 85.72 79.12 84.1 78.17C81.13 76.43 54.23 76.36 50.24 78.09C48.15 78.99 45.79 83.51 43.84 88.12C41.48 87.72 39.94 88 39.26 88.96C38.7 89.75 36.87 93.1 38.21 95.03C38.66 95.67 39.41 96.08 40.18 96.35C40.07 96.56 40 96.79 40 97.03V117.32C40 117.91 40.12 118.47 40.32 119H22V122H136V119H106ZM91 35H121V62H91V35ZM92.33 90.94C92.79 91.71 93.16 92.86 93.15 93.33C92.95 93.45 92.56 93.57 92.13 93.67C91.81 92.82 91.45 91.92 91.08 90.99C91.6 90.93 92.06 90.91 92.33 90.94ZM51.43 80.85C54.51 79.52 79.86 79.46 82.58 80.77C83.85 81.59 87.04 88.71 89.72 95.8C68.64 97.7 50.49 96.39 44.11 95.8C46.66 88.62 49.9 81.51 51.42 80.85H51.43ZM41.54 90.96C41.79 90.93 42.21 90.96 42.68 91C42.32 91.92 41.99 92.82 41.69 93.66C41.28 93.56 40.91 93.45 40.73 93.33C40.72 92.86 41.09 91.72 41.55 90.96H41.54ZM43 98.78L43.09 98.81C43.09 98.81 43.11 98.75 43.12 98.71C48.95 99.28 68.29 100.81 90.79 98.71C90.81 98.76 90.82 98.81 90.84 98.85L91 98.79V110.97C91 112.08 90.01 112.99 88.78 112.99H45.22C44 112.99 43 112.08 43 110.97V98.78ZM82.32 118.99H51.67C51.87 118.47 51.99 117.91 51.99 117.31V115.99H81.99V117.31C81.99 117.9 82.11 118.46 82.31 118.99H82.32ZM44.67 118.99C43.75 118.99 42.99 118.24 42.99 117.31V115.49C43.67 115.8 44.41 115.98 45.21 115.98H48.99V117.3C48.99 118.22 48.24 118.98 47.32 118.98H44.67V118.99ZM86.67 118.99C85.75 118.99 84.99 118.24 84.99 117.31V115.99H88.77C89.57 115.99 90.31 115.8 90.99 115.5V117.32C90.99 118.24 90.24 119 89.32 119H86.67V118.99Z" fill="#002341"/>
<path d="M110.33 48.23C111.58 47.24 112.24 45.78 112.24 44C112.24 42.22 111.59 40.75 110.36 39.68C107.36 37.07 101.9 37.73 101.29 37.82C100.55 37.92 100 38.56 100 39.31V57.51C100 58.34 100.67 59.01 101.5 59.01C102.33 59.01 103 58.34 103 57.51V49.6C105.04 49.84 108.26 49.88 110.33 48.24V48.23ZM103 40.69C104.67 40.65 107.13 40.84 108.39 41.94C108.97 42.45 109.24 43.1 109.24 44C109.24 45.13 108.8 45.61 108.47 45.88C107.22 46.87 104.65 46.79 103 46.57V40.69Z" fill="#002341"/>
</svg>
