<svg width="156" height="156" viewBox="0 0 156 156" fill="none" xmlns="http://www.w3.org/2000/svg">
<path d="M93.16 60.29H73.92C73.09 60.29 72.42 59.62 72.42 58.79C72.42 57.96 73.09 57.29 73.92 57.29H93.16C93.99 57.29 94.66 57.96 94.66 58.79C94.66 59.62 93.99 60.29 93.16 60.29Z" fill="#002341"/>
<path d="M72.12 54.18C71.58 54.18 71.05 53.89 70.79 53.37C70.41 52.64 70.69 51.73 71.43 51.35L88.49 42.46C89.23 42.08 90.13 42.36 90.51 43.1C90.89 43.83 90.61 44.74 89.87 45.12L72.81 54.01C72.59 54.13 72.35 54.18 72.12 54.18Z" fill="#002341"/>
<path d="M68.04 49.66C67.78 49.66 67.53 49.6 67.29 49.46C66.57 49.05 66.33 48.13 66.74 47.41L76.35 30.75C76.76 30.03 77.68 29.79 78.4 30.2C79.12 30.61 79.36 31.53 78.95 32.25L69.33 48.91C69.05 49.39 68.55 49.66 68.03 49.66H68.04Z" fill="#002341"/>
<path d="M120.39 125.7H119.18C118.53 125.7 53.72 124.91 31.4 56.72L30.99 55.48L51.16 45.6C54.12 44.15 57.75 45.25 59.4 48.11L70.17 66.49C72.6 70.99 71.45 75.24 67.06 78.19C66.85 78.33 66.71 78.55 66.67 78.8C66.65 78.93 66.64 79.2 66.82 79.44C72.37 86.68 79.7 92.42 88.6 96.53C88.82 96.63 89.08 96.63 89.3 96.53C89.43 96.48 89.67 96.34 89.78 96.05C91.62 91.1 95.48 89.01 100.36 90.28L120.82 96.45C123.98 97.38 125.9 100.64 125.19 103.86L120.36 125.69L120.39 125.7ZM34.67 57.03C54.99 116.93 109.23 122.21 117.98 122.66L122.28 103.23C122.66 101.54 121.65 99.83 119.98 99.34L99.56 93.19C98.37 92.88 94.55 91.88 92.61 97.12C92.24 98.12 91.46 98.92 90.46 99.33C89.46 99.74 88.33 99.72 87.35 99.27C77.99 94.96 70.28 88.91 64.44 81.28C63.79 80.44 63.53 79.39 63.71 78.33C63.88 77.27 64.49 76.32 65.38 75.72C70.04 72.59 68.16 69.12 67.55 67.98L56.8 49.64C55.93 48.13 54.03 47.55 52.47 48.31L34.67 57.03Z" fill="#002341"/>
</svg>
