<svg width="156" height="156" viewBox="0 0 156 156" fill="none" xmlns="http://www.w3.org/2000/svg">
<path d="M122.67 111.06H33.5C31.02 111.06 29 109.04 29 106.56V48.5C29 46.02 31.02 44 33.5 44H122.66C125.14 44 127.16 46.02 127.16 48.5V106.55C127.16 109.03 125.14 111.05 122.66 111.05L122.67 111.06ZM33.5 47C32.67 47 32 47.67 32 48.5V106.55C32 107.38 32.67 108.05 33.5 108.05H122.66C123.49 108.05 124.16 107.38 124.16 106.55V48.5C124.16 47.67 123.49 47 122.66 47H33.5Z" fill="#002341"/>
<path d="M31.59 104.86L29.41 102.8L58.62 72L77.98 90.3L102.11 62.31L126.82 91.5L124.52 93.44L102.09 66.94L78.2 94.64L58.73 76.25L31.59 104.86Z" fill="#002341"/>
<path d="M78.09 69.7C73.26 69.7 69.33 65.77 69.33 60.94C69.33 56.11 73.26 52.18 78.09 52.18C82.92 52.18 86.85 56.11 86.85 60.94C86.85 65.77 82.92 69.7 78.09 69.7ZM78.09 55.18C74.91 55.18 72.33 57.76 72.33 60.94C72.33 64.12 74.91 66.7 78.09 66.7C81.27 66.7 83.85 64.12 83.85 60.94C83.85 57.76 81.27 55.18 78.09 55.18Z" fill="#002341"/>
</svg>
