<svg width="156" height="156" viewBox="0 0 156 156" fill="none" xmlns="http://www.w3.org/2000/svg">
<path fill-rule="evenodd" clip-rule="evenodd" d="M49.5063 116.449C46.7266 112.675 42.7659 107.298 41 102C36.5 88.5001 35.6936 66.559 61.0667 59.2103C78.0606 54.2884 97.0552 59.2957 101.19 60.6858C101.667 60.8462 102.261 60.7265 102.614 60.3676C107.708 55.1888 110.777 53.8333 115.255 53.5596C116.119 53.5068 116.577 54.5255 115.998 55.169L109.219 62.7009C108.831 63.1326 108.89 63.8024 109.347 64.1607C113.164 67.1517 117.928 71.1446 119.994 75.4813C120.888 77.3596 122.6 79.0002 124.68 79.0002H128.802C129.426 79.0002 129.897 79.5653 129.786 80.1791L128.149 89.1791C128.063 89.6546 127.649 90.0002 127.165 90.0002H121.991C121.366 90.0002 120.779 90.2946 120.391 90.7835C112.913 100.202 104.084 104.308 100.528 105.784C100.199 105.92 99.969 106.217 99.9186 106.57L98.1226 119.142C98.0522 119.634 97.6303 120 97.1327 120L92.6811 120C92.3364 120 92.0154 119.823 91.8347 119.529C89.4839 115.709 88.9779 114.092 88.3946 112.228C88.3548 112.1 88.3147 111.972 88.2736 111.842C88.1215 111.36 87.6236 111.079 87.1269 111.171C76.5859 113.123 67.947 110.773 62.361 108.37C59.4759 107.13 55.9999 109.071 55.9999 112.212V119C55.9999 119.552 55.5522 120 54.9999 120H52.5671C52.2153 120 51.893 119.818 51.7009 119.523C51.1639 118.699 50.3955 117.656 49.5063 116.449ZM108 83C110.761 83 113 80.7614 113 78C113 75.2386 110.761 73 108 73C105.239 73 103 75.2386 103 78C103 80.7614 105.239 83 108 83Z" fill="#C2DDFF"/>
<path fill-rule="evenodd" clip-rule="evenodd" d="M114.072 47.4041C118.995 47.0859 123.638 48.0257 126.288 49.1616C126.867 49.4099 127.296 49.9165 127.444 50.5289C127.593 51.1413 127.444 51.7879 127.042 52.2737L118.836 62.2081C122.939 65.5625 125.564 68.2937 127.184 70.9999H132.244C135.969 70.9999 138.793 74.3583 138.155 78.028L135.258 94.6853C134.925 96.6012 133.262 97.9999 131.318 97.9999L124.884 97.9999C118.566 104.825 111.003 109.441 106.843 111.374L105.203 124.496C104.953 126.498 103.251 128 101.234 128H88.9997C88.1776 128 87.5398 127.624 87.1464 127.321C86.7342 127.004 86.3841 126.608 86.0949 126.23C85.5135 125.469 84.9654 124.491 84.4811 123.51C83.806 122.141 83.1765 120.603 82.6811 119.27C79.4316 119.681 75.3023 119.368 71.6264 118.788C69.3819 118.434 67.2147 117.965 65.3861 117.448C64.9112 117.314 64.4462 117.173 63.9997 117.026V124C63.9997 126.209 62.2089 128 59.9997 128H50.1421C48.7219 128 47.4743 127.258 46.7336 126.17C46.1572 125.323 45.3754 124.27 44.4392 123.01C44.2605 122.77 44.0761 122.521 43.8864 122.266C42.7192 120.691 41.3856 118.873 40.0473 116.9C37.3852 112.976 34.6294 108.333 33.0973 103.618C29.76 93.3479 29.1769 83.5116 32.0434 75.046C34.9294 66.5227 41.2344 59.6254 51.1842 55.1743C71.5071 46.0826 90.9774 50.6208 99.3836 52.5802C99.7329 52.6616 100.063 52.7385 100.373 52.8099C104.341 49.1263 109.457 47.7024 114.072 47.4041ZM114.33 51.3957C109.989 51.6764 105.589 53.0668 102.454 56.3754C101.975 56.8818 101.266 57.1017 100.583 56.9555C99.9744 56.825 99.2732 56.6627 98.4872 56.4808C90.0519 54.5285 71.8434 50.3142 52.8176 58.8255C43.7668 62.8745 38.3214 68.9772 35.8321 76.3289C33.3232 83.7383 33.7397 92.652 36.9015 102.382C38.2586 106.558 40.7642 110.832 43.3575 114.655C44.6469 116.556 45.9394 118.319 47.0995 119.883C47.2811 120.128 47.4603 120.369 47.6363 120.606C48.5696 121.862 49.413 122.997 50.0405 123.92C50.0659 123.957 50.0939 123.979 50.1141 123.99C50.1321 124 50.1408 124 50.142 124H59.9997V114C59.9997 113.271 60.3961 112.6 61.0343 112.248C61.6725 111.897 62.4516 111.92 63.0677 112.309C63.6009 112.646 64.7603 113.115 66.4735 113.599C68.1297 114.066 70.1402 114.504 72.2502 114.837C76.5609 115.517 80.93 115.706 83.5145 115.06C84.5284 114.806 85.5666 115.376 85.8971 116.367C86.3796 117.815 87.1968 119.973 88.0683 121.74C88.5091 122.633 88.9235 123.343 89.2733 123.801C89.3362 123.884 89.3904 123.949 89.4354 124H101.234L103.015 109.752C103.105 109.035 103.574 108.422 104.242 108.149C107.663 106.75 115.935 102.015 122.51 94.6663C122.889 94.2423 123.431 93.9999 124 93.9999L131.318 93.9999L134.214 77.3426C134.427 76.1194 133.486 74.9999 132.244 74.9999H126.003C125.245 74.9999 124.552 74.5719 124.214 73.8943C122.922 71.3109 120.32 68.4376 114.765 64.0726C114.341 63.7396 114.07 63.2497 114.012 62.7139C113.954 62.1781 114.115 61.6416 114.458 61.2262L122.07 52.0121C119.966 51.5252 117.226 51.2086 114.33 51.3957ZM89.5866 124.152C89.5861 124.151 89.5856 124.151 89.585 124.15C89.5954 124.157 89.5961 124.159 89.5866 124.152Z" fill="#1C3553"/>
<path fill-rule="evenodd" clip-rule="evenodd" d="M25.3178 61.4597C23.8855 59.4487 23.4902 57.1585 23.963 55.0927C24.6394 52.1369 27.3052 49.4466 30.8578 50.0926C32.8955 50.4631 34.489 51.4189 35.3493 52.9982C36.1749 54.5137 36.1043 56.2057 35.7205 57.6273C35.3318 59.067 34.5682 60.4571 33.6648 61.6083C33.3233 62.0434 32.9469 62.4634 32.5434 62.8508C32.6969 62.9787 32.8611 63.1091 33.0354 63.2394C34.3291 64.2065 36.0397 65.0654 38.0003 65.0657C39.1049 65.0658 40.0002 65.9614 40 67.0659C39.9999 68.1705 39.1044 69.0658 37.9998 69.0657C34.8615 69.0653 32.3221 67.7002 30.6405 66.4433C29.9584 65.9334 29.3945 65.4246 28.9619 64.9962C26.3374 65.8526 23.8191 65.4825 21.7605 64.6633C19.3773 63.7149 17.4871 62.1261 16.4636 60.8979C15.7565 60.0494 15.8711 58.7882 16.7197 58.0811C17.5682 57.374 18.8294 57.4886 19.5365 58.3372C20.1796 59.1089 21.5395 60.2702 23.2396 60.9468C23.9048 61.2115 24.6012 61.3954 25.3178 61.4597ZM31.0843 61.3968C31.0836 61.3959 31.0837 61.396 31.0845 61.3971L31.0843 61.3968ZM29.5365 60.182C29.8619 59.8983 30.1971 59.5479 30.5181 59.1389C31.1558 58.3262 31.6356 57.4114 31.8588 56.5848C32.0868 55.7402 31.9964 55.2048 31.8367 54.9117C31.7118 54.6823 31.3546 54.2485 30.1423 54.028C29.295 53.874 28.2107 54.4623 27.8621 55.9851C27.603 57.1173 27.8571 58.7416 29.5365 60.182Z" fill="#1C3553"/>
<path fill-rule="evenodd" clip-rule="evenodd" d="M77 28C71.4772 28 67 32.4772 67 38C67 40.1795 67.6949 42.1907 68.8756 43.8321C69.5207 44.7287 69.3167 45.9785 68.42 46.6236C67.5234 47.2686 66.2736 47.0646 65.6285 46.1679C63.9746 43.8688 63 41.0452 63 38C63 30.268 69.268 24 77 24C84.732 24 91 30.268 91 38C91 41.0452 90.0254 43.8688 88.3715 46.1679C87.7264 47.0646 86.4766 47.2686 85.58 46.6236C84.6833 45.9785 84.4793 44.7287 85.1244 43.8321C86.3051 42.1907 87 40.1795 87 38C87 32.4772 82.5228 28 77 28Z" fill="#1C3553"/>
<path fill-rule="evenodd" clip-rule="evenodd" d="M108 75C106.343 75 105 76.3431 105 78C105 79.6569 106.343 81 108 81C109.657 81 111 79.6569 111 78C111 76.3431 109.657 75 108 75ZM101 78C101 74.134 104.134 71 108 71C111.866 71 115 74.134 115 78C115 81.866 111.866 85 108 85C104.134 85 101 81.866 101 78Z" fill="#1C3553"/>
</svg>
