<svg width="156" height="156" viewBox="0 0 156 156" fill="none" xmlns="http://www.w3.org/2000/svg">
<path d="M125.87 75.26C124.88 74.08 123.43 73.41 121.9 73.41H117.03C115.53 70.84 113 68.19 108.81 64.82L112.7 57.55C112.9 57.18 112.93 56.74 112.79 56.34C112.65 55.94 112.35 55.62 111.96 55.46C107.39 53.5 103.81 53.36 97.25 58.08C96.77 57.97 96.21 57.84 95.6 57.69C86.62 55.55 65.58 50.53 47.18 58.76C30.01 66.44 23.99 82.59 30.65 103.08C32.83 109.8 37.79 116.47 41.06 120.88C41.91 122.03 42.65 123.02 43.2 123.82C43.86 124.78 44.93 125.36 46.06 125.36H55.16C57.01 125.36 58.51 123.86 58.51 122.01V115.08C62.98 116.65 71.22 117.98 76.33 117.26C79.22 125.36 81.25 125.36 81.94 125.36H93.24C94.92 125.36 96.35 124.1 96.56 122.43L98.1 110.12C101.75 108.45 108.9 104.21 114.93 97.66H121.02C122.65 97.66 124.04 96.49 124.32 94.88L127 79.5C127.26 77.99 126.84 76.44 125.85 75.27L125.87 75.26ZM124.06 78.98L121.38 94.36C121.35 94.53 121.21 94.65 121.04 94.65H114.28C113.85 94.65 113.45 94.83 113.16 95.15C107.38 101.61 99.83 106.19 96.16 107.69C95.66 107.9 95.31 108.36 95.24 108.89L93.59 122.05C93.57 122.22 93.42 122.35 93.25 122.35H82.2C81.49 121.71 79.97 118.7 78.76 115.06C78.51 114.32 77.72 113.89 76.97 114.08C71.82 115.36 60.31 113.07 57.82 111.5C57.36 111.21 56.77 111.19 56.3 111.45C55.83 111.71 55.52 112.22 55.52 112.77V122.01C55.52 122.2 55.36 122.35 55.17 122.35H46.07C45.93 122.35 45.79 122.26 45.69 122.13C45.12 121.3 44.36 120.27 43.48 119.09C40.32 114.84 35.54 108.4 33.51 102.16C27.29 83.02 32.58 68.59 48.4 61.51C65.87 53.69 86.21 58.55 94.9 60.62C95.84 60.84 96.63 61.03 97.27 61.17C97.69 61.27 98.13 61.17 98.48 60.91C103.85 56.93 106.49 56.72 109.25 57.63L105.57 64.51C105.23 65.15 105.39 65.95 105.97 66.4C110.85 70.23 113.49 72.98 114.79 75.59C115.05 76.1 115.56 76.42 116.13 76.42H121.9C122.55 76.42 123.16 76.7 123.58 77.2C124 77.7 124.18 78.35 124.06 78.99V78.98Z" fill="#002341"/>
<path d="M62.98 50.27C63.65 49.79 63.81 48.85 63.32 48.17C62.14 46.54 61.52 44.6 61.52 42.58C61.52 37.3 65.82 33 71.1 33C76.38 33 80.68 37.3 80.68 42.58C80.68 44.6 80.06 46.53 78.88 48.17C78.4 48.84 78.55 49.78 79.22 50.27C79.49 50.46 79.79 50.55 80.1 50.55C80.57 50.55 81.03 50.33 81.32 49.93C82.87 47.78 83.68 45.24 83.68 42.59C83.68 35.65 78.04 30.01 71.1 30.01C64.16 30.01 58.52 35.65 58.52 42.59C58.52 45.24 59.34 47.78 60.88 49.93C61.36 50.6 62.3 50.76 62.98 50.27Z" fill="#002341"/>
<path d="M99.5 73.41C96.12 73.41 93.38 76.15 93.38 79.53C93.38 82.91 96.12 85.65 99.5 85.65C102.88 85.65 105.62 82.91 105.62 79.53C105.62 76.15 102.88 73.41 99.5 73.41ZM99.5 82.65C97.78 82.65 96.38 81.25 96.38 79.53C96.38 77.81 97.78 76.41 99.5 76.41C101.22 76.41 102.62 77.81 102.62 79.53C102.62 81.25 101.22 82.65 99.5 82.65Z" fill="#002341"/>
</svg>
