<svg width="156" height="156" viewBox="0 0 156 156" fill="none" xmlns="http://www.w3.org/2000/svg">
<path d="M78.08 40.04C57.63 40.04 40.99 56.68 40.99 77.13C40.99 97.58 57.63 114.22 78.08 114.22C98.53 114.22 115.17 97.58 115.17 77.13C115.17 56.68 98.53 40.04 78.08 40.04ZM78.08 111.21C59.29 111.21 44 95.92 44 77.13C44 58.34 59.29 43.05 78.08 43.05C96.87 43.05 112.16 58.34 112.16 77.13C112.16 95.92 96.87 111.21 78.08 111.21Z" fill="#002341"/>
<path d="M85.73 64.04L61.44 70.9V68.11H58.44V86.44H61.44V83.65L85.73 90.51C85.86 90.55 86 90.57 86.14 90.57C86.46 90.57 86.78 90.47 87.05 90.27C87.43 89.99 87.65 89.54 87.65 89.07V65.48C87.65 65.01 87.43 64.57 87.05 64.28C86.67 64 86.19 63.91 85.74 64.03L85.73 64.04ZM84.64 87.09L61.45 80.54V74.02L84.64 67.47V87.1V87.09Z" fill="#002341"/>
<path d="M96.41 75.59H91.37C90.54 75.59 89.87 76.26 89.87 77.09C89.87 77.92 90.54 78.59 91.37 78.59H96.41C97.24 78.59 97.91 77.92 97.91 77.09C97.91 76.26 97.24 75.59 96.41 75.59Z" fill="#002341"/>
<path d="M90.99 72.27C91.19 72.27 91.39 72.23 91.59 72.14L95.74 70.32C96.5 69.99 96.85 69.1 96.51 68.34C96.18 67.58 95.3 67.23 94.53 67.57L90.38 69.39C89.62 69.72 89.27 70.61 89.61 71.37C89.86 71.93 90.41 72.27 90.99 72.27Z" fill="#002341"/>
<path d="M95.74 84.26L91.59 82.44C90.83 82.1 89.94 82.45 89.61 83.21C89.28 83.97 89.62 84.86 90.38 85.19L94.53 87.01C94.73 87.1 94.93 87.14 95.13 87.14C95.71 87.14 96.26 86.8 96.51 86.24C96.84 85.48 96.5 84.59 95.74 84.26Z" fill="#002341"/>
<path d="M108.2 48.6C108.49 48.89 108.88 49.04 109.26 49.04C109.64 49.04 110.03 48.89 110.32 48.6L120.86 38.06L120.84 47.36C120.84 48.19 121.51 48.86 122.34 48.87C123.17 48.87 123.84 48.2 123.84 47.37L123.87 34.43C123.87 34.24 123.83 34.04 123.76 33.86C123.69 33.68 123.58 33.51 123.43 33.37C123.28 33.23 123.12 33.12 122.94 33.04C122.76 32.97 122.56 32.93 122.37 32.93L109.44 32.96C108.61 32.96 107.94 33.64 107.94 34.47C107.94 35.3 108.61 35.97 109.44 35.97L118.73 35.95L108.19 46.49C107.6 47.08 107.6 48.03 108.19 48.61L108.2 48.6Z" fill="#002341"/>
<path d="M32.32 47.28C32.32 48.11 32.99 48.78 33.82 48.78C34.65 48.78 35.32 48.1 35.32 47.27L35.3 37.97L45.84 48.51C46.13 48.8 46.52 48.95 46.9 48.95C47.28 48.95 47.67 48.8 47.96 48.51C48.55 47.92 48.55 46.97 47.96 46.39L37.42 35.85L46.71 35.87C47.54 35.87 48.21 35.2 48.21 34.37C48.21 33.54 47.54 32.87 46.71 32.86L33.78 32.83C33.4 32.83 33.01 32.98 32.72 33.27C32.58 33.41 32.47 33.58 32.39 33.76C32.32 33.94 32.28 34.14 32.28 34.33L32.31 47.27L32.32 47.28Z" fill="#002341"/>
<path d="M126.65 103.96C126.65 103.13 125.98 102.46 125.15 102.46C124.32 102.46 123.65 103.14 123.65 103.97L123.67 113.27L113.13 102.73C112.54 102.14 111.59 102.14 111.01 102.73C110.43 103.32 110.42 104.27 111.01 104.85L121.55 115.39L112.26 115.37C111.43 115.37 110.76 116.04 110.76 116.87C110.76 117.7 111.43 118.37 112.26 118.38L125.19 118.41C125.38 118.41 125.58 118.37 125.76 118.3C125.94 118.23 126.11 118.12 126.25 117.97C126.39 117.82 126.5 117.66 126.58 117.48C126.65 117.3 126.69 117.1 126.69 116.91L126.66 103.97L126.65 103.96Z" fill="#002341"/>
<path d="M46.66 104.5C46.07 103.91 45.12 103.91 44.54 104.5L34 115.04L34.02 105.74C34.02 104.91 33.35 104.24 32.52 104.23C31.69 104.23 31.02 104.9 31.02 105.73L30.99 118.67C30.99 118.86 31.03 119.06 31.1 119.24C31.17 119.42 31.28 119.59 31.43 119.73C31.58 119.87 31.74 119.98 31.92 120.06C32.1 120.13 32.3 120.17 32.49 120.17L45.42 120.14C46.25 120.14 46.92 119.46 46.92 118.63C46.92 117.8 46.25 117.13 45.42 117.13L36.13 117.15L46.67 106.61C47.26 106.02 47.26 105.07 46.67 104.49L46.66 104.5Z" fill="#002341"/>
<path d="M20.14 76.47H35.04C35.87 76.47 36.54 75.8 36.54 74.97C36.54 74.14 35.87 73.47 35.04 73.47H20.14L26.73 66.91C27.32 66.32 27.32 65.37 26.73 64.79C26.14 64.21 25.19 64.2 24.61 64.79L15.44 73.9C15.3 74.04 15.19 74.2 15.11 74.38C15.03 74.56 14.99 74.76 14.99 74.96C14.99 75.16 15.03 75.36 15.11 75.54C15.19 75.72 15.3 75.89 15.43 76.02L24.61 85.15C24.9 85.44 25.29 85.59 25.67 85.59C26.05 85.59 26.44 85.44 26.73 85.15C27.32 84.56 27.31 83.61 26.73 83.03L20.14 76.47Z" fill="#002341"/>
<path d="M141.06 75.55C141.14 75.37 141.18 75.17 141.18 74.97C141.18 74.77 141.14 74.57 141.06 74.39C140.98 74.21 140.87 74.04 140.73 73.91L131.56 64.79C130.97 64.2 130.02 64.21 129.44 64.79C128.85 65.38 128.86 66.33 129.44 66.91L136.03 73.46H121.12C120.29 73.46 119.62 74.14 119.62 74.96C119.62 75.78 120.29 76.46 121.12 76.46H136.02L129.43 83.02C128.84 83.61 128.84 84.56 129.43 85.14C129.72 85.43 130.11 85.58 130.49 85.58C130.87 85.58 131.26 85.43 131.55 85.14L140.73 76.01C140.87 75.87 140.98 75.71 141.05 75.53L141.06 75.55Z" fill="#002341"/>
<path d="M70.02 25.73L76.57 19.14V34.05C76.57 34.88 77.25 35.55 78.07 35.55C78.89 35.55 79.57 34.88 79.57 34.05V19.14L86.13 25.74C86.42 26.03 86.81 26.18 87.19 26.18C87.57 26.18 87.96 26.03 88.25 25.74C88.84 25.15 88.84 24.2 88.25 23.62L79.14 14.44C79 14.3 78.84 14.19 78.66 14.12C78.48 14.04 78.28 14 78.08 14C77.88 14 77.68 14.04 77.5 14.12C77.32 14.2 77.15 14.31 77.02 14.44L67.9 23.61C67.31 24.2 67.32 25.15 67.9 25.73C68.49 26.32 69.44 26.31 70.02 25.73Z" fill="#002341"/>
<path d="M86.14 128.54L79.58 135.13V120.23C79.58 119.4 78.91 118.73 78.08 118.73C77.25 118.73 76.58 119.4 76.58 120.23V135.14L70.02 128.55C69.43 127.96 68.48 127.96 67.9 128.55C67.31 129.14 67.31 130.09 67.9 130.67L77.02 139.84C77.16 139.98 77.32 140.09 77.5 140.16C77.68 140.24 77.88 140.28 78.08 140.28C78.28 140.28 78.48 140.24 78.66 140.16C78.84 140.08 79.01 139.97 79.14 139.84L88.27 130.67C88.86 130.08 88.85 129.13 88.27 128.55C87.69 127.97 86.73 127.97 86.15 128.55L86.14 128.54Z" fill="#002341"/>
</svg>
