<svg width="156" height="156" viewBox="0 0 156 156" fill="none" xmlns="http://www.w3.org/2000/svg">
<path d="M121.92 113.1V52.9801L81.5497 31.2601C79.0997 29.5801 75.4798 29.5801 73.0398 31.2601L32.6598 52.9801V113.1H19.9998V116.1H134.11V113.1H121.92ZM118.92 113.1H35.6598V54.7801L74.5298 33.8701L74.6898 33.7701C76.1198 32.7501 78.4497 32.7501 79.8797 33.7701L118.91 54.7801V113.11L118.92 113.1Z" fill="#002341"/>
<path d="M52.9098 74.2101C52.9098 84.8601 61.5798 93.5301 72.2298 93.5301C76.6798 93.5301 80.7798 92.0001 84.0498 89.4601L99.8198 102.64C100.76 103.45 101.92 103.91 103.07 103.95C103.12 103.95 103.17 103.95 103.22 103.95C104.42 103.95 105.52 103.47 106.25 102.62C107.01 101.73 107.31 100.51 107.07 99.2701C106.85 98.1401 106.22 97.0701 105.26 96.2501L89.3898 83.0601C90.7697 80.4101 91.5597 77.4001 91.5597 74.2101C91.5597 63.5601 82.8898 54.8901 72.2398 54.8901C61.5898 54.8901 52.9198 63.5601 52.9198 74.2101H52.9098ZM103.31 98.5401C103.73 98.9001 104.02 99.3701 104.11 99.8301C104.15 100.03 104.18 100.4 103.96 100.66C103.74 100.92 103.38 100.95 103.16 100.94C102.69 100.92 102.18 100.71 101.75 100.34L86.2798 87.4101C86.8097 86.8501 87.2998 86.2501 87.7598 85.6301L103.3 98.5401H103.31ZM88.5398 74.2101C88.5398 83.2101 81.2198 90.5201 72.2298 90.5201C63.2398 90.5201 55.9098 83.2001 55.9098 74.2101C55.9098 65.2201 63.2298 57.8901 72.2298 57.8901C81.2298 57.8901 88.5398 65.2101 88.5398 74.2101Z" fill="#002341"/>
</svg>
