<svg width="156" height="156" viewBox="0 0 156 156" fill="none" xmlns="http://www.w3.org/2000/svg">
<path d="M116.59 130.04H39V26H116.59V130.04ZM113.59 127.04V29H42V127.04H113.59Z" fill="#002341"/>
<path d="M101.9 96.83H53.8V99.83H101.9V96.83Z" fill="#002341"/>
<path d="M101.9 113.82H53.68V116.82H101.9V113.82Z" fill="#002341"/>
<path d="M101.91 82.85H53.68C53.14 82.85 52.64 82.56 52.38 82.09C52.11 81.62 52.12 81.05 52.39 80.58L75.65 41.18C75.92 40.73 76.4 40.45 76.92 40.44C77.42 40.46 77.93 40.7 78.21 41.14L103.17 80.55C103.46 81.01 103.48 81.6 103.22 82.08C102.96 82.56 102.45 82.86 101.9 82.86L101.91 82.85ZM56.32 79.85H99.18L77 44.82L56.32 79.85Z" fill="#002341"/>
<path d="M75.3771 55.7504L75.355 68.4404L78.355 68.4457L78.3771 55.7557L75.3771 55.7504Z" fill="#002341"/>
<path d="M76.95 74.98C77.9717 74.98 78.8 74.1517 78.8 73.13C78.8 72.1083 77.9717 71.28 76.95 71.28C75.9283 71.28 75.1 72.1083 75.1 73.13C75.1 74.1517 75.9283 74.98 76.95 74.98Z" fill="#002341"/>
</svg>
