<svg width="156" height="156" viewBox="0 0 156 156" fill="none" xmlns="http://www.w3.org/2000/svg">
<path d="M112.61 74.56C120.44 66 135.41 39.49 126.84 30.76C121.95 25.77 111.71 28.47 103.97 31.6C96.01 34.83 87.5 39.89 82.71 44.2C82.67 44.23 82.63 44.24 82.59 44.28C82.56 44.31 82.55 44.34 82.53 44.37C82.28 44.59 82.04 44.82 81.82 45.04L74.93 51.78L60.46 52.87C59.75 52.91 59.09 53.16 58.54 53.6L43.86 65.39C42.72 66.31 42.31 67.79 42.83 69.16C43.33 70.48 44.53 71.3 45.92 71.3C45.98 71.3 46.03 71.3 46.09 71.3L55.43 70.85L43.42 82.61L47.55 86.81L43.83 99.79L56.08 112.27L69.29 108.95L73.41 113.14L85.48 101.27L84.84 110.77C84.74 112.23 85.56 113.53 86.92 114.07C87.33 114.24 87.76 114.32 88.18 114.32C89.14 114.32 90.05 113.9 90.7 113.12L102.77 98.66C103.22 98.12 103.49 97.46 103.53 96.79L104.91 82.16L111.7 75.49C111.92 75.28 112.14 75.04 112.37 74.8C112.4 74.77 112.44 74.76 112.47 74.73C112.52 74.68 112.55 74.61 112.59 74.55L112.61 74.56ZM57.03 108.94L47.21 98.94L49.91 89.52L66.6 106.54L57.02 108.95L57.03 108.94ZM105.11 34.38C114.7 30.49 121.84 29.94 124.7 32.86C130.68 38.95 119.97 61.5 111.37 71.46L85.87 45.47C90.11 42 97.36 37.52 105.11 34.39V34.38ZM45.97 68.3C45.9 68.3 45.74 68.3 45.66 68.1C45.58 67.88 45.71 67.78 45.76 67.74L60.45 55.94C60.5 55.9 60.56 55.88 60.67 55.87L71.62 55.05L58.7 67.7L45.98 68.31L45.97 68.3ZM47.69 82.65L83.63 47.47L109.31 73.64L73.45 108.89L47.69 82.64V82.65ZM100.55 96.56C100.55 96.63 100.52 96.69 100.48 96.74L88.41 111.2C88.41 111.2 88.26 111.37 88.05 111.29C87.83 111.2 87.85 111.03 87.85 110.97L88.71 98.11L101.6 85.44L100.55 96.56Z" fill="#002341"/>
<path d="M92.29 64.98C91.71 64.38 90.76 64.38 90.17 64.96L65.73 88.94C65.14 89.52 65.13 90.47 65.71 91.06C66 91.36 66.39 91.51 66.78 91.51C67.17 91.51 67.54 91.37 67.83 91.08L92.27 67.1C92.86 66.52 92.87 65.57 92.29 64.98Z" fill="#002341"/>
<path d="M103.91 53.38C105.57 55.07 107.76 55.92 109.96 55.92C112.16 55.92 114.25 55.12 115.89 53.5C119.23 50.23 119.28 44.85 116 41.52C114.42 39.91 112.3 39.01 110.03 38.99C107.77 39.03 105.63 39.83 104.02 41.41C100.68 44.68 100.63 50.06 103.91 53.39V53.38ZM106.13 43.54C107.15 42.53 108.51 41.98 109.96 41.98H110.01C111.48 41.99 112.84 42.57 113.86 43.61C115.97 45.76 115.94 49.23 113.79 51.35C111.64 53.46 108.17 53.43 106.05 51.28C103.94 49.13 103.97 45.66 106.12 43.54H106.13Z" fill="#002341"/>
<path d="M39.95 105.56C39.37 104.96 38.42 104.96 37.83 105.54L27.45 115.71C26.86 116.29 26.85 117.24 27.43 117.83C27.72 118.13 28.11 118.28 28.5 118.28C28.89 118.28 29.26 118.14 29.55 117.85L39.92 107.67C40.51 107.09 40.52 106.14 39.94 105.55L39.95 105.56Z" fill="#002341"/>
<path d="M47.99 115.9L37.62 126.08C37.03 126.66 37.02 127.61 37.6 128.2C37.89 128.5 38.28 128.65 38.67 128.65C39.06 128.65 39.43 128.51 39.72 128.22L50.09 118.04C50.68 117.46 50.69 116.51 50.11 115.92C49.53 115.32 48.58 115.32 47.99 115.9Z" fill="#002341"/>
<path d="M39.02 118.52L44.9 112.75C45.49 112.17 45.5 111.22 44.92 110.63C44.34 110.03 43.39 110.03 42.8 110.61L36.92 116.38C36.33 116.96 36.32 117.91 36.9 118.5C37.19 118.8 37.58 118.95 37.97 118.95C38.36 118.95 38.73 118.81 39.02 118.52Z" fill="#002341"/>
</svg>
