<svg width="156" height="156" viewBox="0 0 156 156" fill="none" xmlns="http://www.w3.org/2000/svg">
<path d="M81.84 39.12C79.65 37.62 76.42 37.62 74.23 39.12L39 58.01V78.62H42V59.81L75.73 41.73L75.89 41.63C77.07 40.79 79 40.79 80.19 41.63L114.07 59.8V78.61H117.07V58L81.84 39.12Z" fill="#002341"/>
<path d="M99.59 81.88C99.19 81.47 98.58 81.32 98.04 81.5L94.9 82.55L94.07 81.8L94.99 78.45C95.13 77.93 94.99 77.38 94.61 77C94.12 76.51 82.59 64.87 75.72 61.55C68.03 57.83 61.04 61.31 60.75 61.46C60.19 61.74 59.87 62.35 59.94 62.97C60.01 63.59 60.46 64.11 61.07 64.26C64.3 65.06 72.79 68.09 74.38 72.57L72.78 77.38C72.6 77.91 72.74 78.49 73.12 78.89L74.77 80.61L44.47 110.91C43.88 111.5 43.88 112.45 44.47 113.03L49.19 117.75C49.47 118.03 49.85 118.19 50.25 118.19C50.65 118.19 51.03 118.03 51.31 117.75L81.67 87.39L82.94 88.66C83.35 89.06 83.95 89.2 84.49 89.02L87.32 88.05L88.28 88.99L87.12 91.26C86.81 91.86 86.94 92.59 87.44 93.05L91.79 97.08C92.08 97.35 92.44 97.48 92.81 97.48C93.19 97.48 93.58 97.33 93.87 97.04L103.2 87.71C103.78 87.13 103.79 86.19 103.22 85.6L99.62 81.89L99.59 81.88ZM92.75 93.88L90.3 91.61L91.45 89.36C91.75 88.77 91.63 88.06 91.16 87.6L88.75 85.24C88.34 84.84 87.75 84.71 87.21 84.89L84.38 85.86L81.45 82.95C80.86 82.36 79.91 82.37 79.33 82.95C78.74 83.54 78.75 84.49 79.33 85.07L79.51 85.25L50.22 114.54L47.62 111.94L77.88 81.68C78.47 81.09 78.47 80.14 77.88 79.56C77.85 79.53 77.81 79.52 77.78 79.49C77.73 79.42 77.7 79.34 77.64 79.27L75.88 77.44L77.35 73.03C77.44 72.76 77.45 72.46 77.38 72.18C76.2 67.61 70.73 64.59 66.59 62.92C68.78 62.69 71.54 62.85 74.39 64.23C79.94 66.92 89.36 76.03 91.84 78.48L90.91 81.87C90.76 82.42 90.93 83 91.35 83.38L93.52 85.34C93.92 85.7 94.49 85.82 95 85.65L98.08 84.62L99.99 86.59L92.73 93.85L92.75 93.88Z" fill="#002341"/>
</svg>
