<svg width="156" height="156" viewBox="0 0 156 156" fill="none" xmlns="http://www.w3.org/2000/svg">
<path d="M106.58 127.04H35V29H106.58V46.22H109.59V26H32V130.04H109.59V85.95H106.58V127.04Z" fill="#002341"/>
<path d="M94.9 39.78H64.99V42.78H94.9V39.78Z" fill="#002341"/>
<path d="M94.9 56.71H64.99V59.71H94.9V56.71Z" fill="#002341"/>
<path d="M71.95 73.63H46.68V76.63H71.95V73.63Z" fill="#002341"/>
<path d="M94.9 112.71H46.68V115.71H94.9V112.71Z" fill="#002341"/>
<path d="M57.77 35.61H46.42V46.96H57.77V35.61ZM54.77 43.96H49.42V38.61H54.77V43.96Z" fill="#002341"/>
<path d="M46.42 63.85H57.77V52.5H46.42V63.85ZM49.42 55.5H54.77V60.85H49.42V55.5Z" fill="#002341"/>
<path d="M123.09 49.63C122.98 48.32 122.36 47.14 121.36 46.29C119.29 44.55 116.18 44.82 114.44 46.89L113.18 48.38L113.06 48.28C112.43 47.75 111.49 47.82 110.96 48.45L74.35 90.77C74.26 90.87 74.19 90.99 74.13 91.11L66.83 106.45C66.36 107.43 66.61 108.56 67.44 109.26C67.88 109.63 68.42 109.82 68.95 109.82C69.42 109.82 69.9 109.67 70.31 109.38L84.17 99.56C84.27 99.49 84.36 99.41 84.44 99.32L117.37 61.26C117.8 61.55 118.18 61.87 118.34 62.1C116.32 64.49 105.65 76.78 105.54 76.91C105 77.54 105.06 78.48 105.69 79.03C105.97 79.28 106.32 79.4 106.67 79.4C107.09 79.4 107.51 79.22 107.8 78.88C108.26 78.35 119.06 65.91 120.76 63.89C121.31 63.23 121.52 62.43 121.36 61.62C121.13 60.5 120.21 59.6 119.35 58.97L121.06 57C121.32 56.7 121.45 56.3 121.42 55.9C121.39 55.5 121.2 55.13 120.89 54.87L120.7 54.71L121.96 53.21C122.8 52.21 123.21 50.93 123.09 49.63ZM82.29 97.22L70.61 105.5L76.75 92.59L112.26 51.54L117.79 56.19L82.29 97.22ZM116.73 48.83C117.41 48.02 118.62 47.92 119.42 48.6C120.22 49.28 120.33 50.48 119.65 51.29L118.42 52.75L115.5 50.29L116.73 48.83Z" fill="#002341"/>
</svg>
