<svg width="156" height="156" viewBox="0 0 156 156" fill="none" xmlns="http://www.w3.org/2000/svg">
<rect x="26" y="82" width="13" height="15" rx="2" fill="#C2DDFF"/>
<rect x="51" y="82" width="13" height="15" rx="2" fill="#C2DDFF"/>
<rect x="76" y="82" width="13" height="15" rx="2" fill="#C2DDFF"/>
<rect x="26" y="109" width="13" height="15" rx="2" fill="#C2DDFF"/>
<rect x="51" y="109" width="13" height="15" rx="2" fill="#C2DDFF"/>
<rect x="76" y="109" width="13" height="15" rx="2" fill="#C2DDFF"/>
<circle cx="103" cy="64" r="12" fill="#C2DDFF"/>
<path fill-rule="evenodd" clip-rule="evenodd" d="M103 48C94.1634 48 87 55.1634 87 64C87 65.0985 87.1104 66.1692 87.3201 67.2021C87.5398 68.2846 86.8404 69.3403 85.7579 69.56C84.6754 69.7798 83.6198 69.0804 83.4 67.9979C83.1375 66.7045 83 65.3673 83 64C83 52.9543 91.9543 44 103 44C114.046 44 123 52.9543 123 64C123 74.6735 114.64 83.3931 104.109 83.9697C103.006 84.0301 102.063 83.185 102.003 82.082C101.943 80.9791 102.788 80.0361 103.891 79.9757C112.312 79.5146 119 72.5376 119 64C119 55.1634 111.837 48 103 48Z" fill="#1C3553"/>
<path fill-rule="evenodd" clip-rule="evenodd" d="M103 26C104.105 26 105 26.8954 105 28V38C105 39.1046 104.105 40 103 40C101.895 40 101 39.1046 101 38V28C101 26.8954 101.895 26 103 26Z" fill="#1C3553"/>
<path fill-rule="evenodd" clip-rule="evenodd" d="M65 64C65 62.8954 65.8954 62 67 62L77 62C78.1046 62 79 62.8954 79 64C79 65.1046 78.1046 66 77 66L67 66C65.8954 66 65 65.1046 65 64Z" fill="#1C3553"/>
<path fill-rule="evenodd" clip-rule="evenodd" d="M127 64C127 62.8954 127.895 62 129 62L139 62C140.105 62 141 62.8954 141 64C141 65.1046 140.105 66 139 66L129 66C127.895 66 127 65.1046 127 64Z" fill="#1C3553"/>
<path fill-rule="evenodd" clip-rule="evenodd" d="M74.5858 36.5858C75.3669 35.8047 76.6332 35.8047 77.4143 36.5858L84.4853 43.6569C85.2664 44.4379 85.2664 45.7042 84.4853 46.4853C83.7043 47.2663 82.438 47.2663 81.6569 46.4853L74.5858 39.4142C73.8048 38.6332 73.8048 37.3668 74.5858 36.5858Z" fill="#1C3553"/>
<path fill-rule="evenodd" clip-rule="evenodd" d="M131.556 36.5858C130.775 35.8047 129.509 35.8047 128.728 36.5858L121.657 43.6569C120.876 44.4379 120.876 45.7042 121.657 46.4853C122.438 47.2663 123.704 47.2663 124.485 46.4853L131.556 39.4142C132.337 38.6332 132.337 37.3668 131.556 36.5858Z" fill="#1C3553"/>
<path fill-rule="evenodd" clip-rule="evenodd" d="M129.485 92.4855C128.704 93.2666 127.438 93.2666 126.657 92.4855L119.586 85.4144C118.805 84.6334 118.805 83.3671 119.586 82.586C120.367 81.805 121.633 81.805 122.414 82.586L129.485 89.6571C130.266 90.4381 130.266 91.7045 129.485 92.4855Z" fill="#1C3553"/>
<path fill-rule="evenodd" clip-rule="evenodd" d="M18 103C18 101.895 18.8954 101 20 101L95 101C96.1046 101 97 101.895 97 103C97 104.105 96.1046 105 95 105L20 105C18.8954 105 18 104.105 18 103Z" fill="#1C3553"/>
<path fill-rule="evenodd" clip-rule="evenodd" d="M45 75C46.1046 75 47 75.8954 47 77L47 129C47 130.105 46.1046 131 45 131C43.8954 131 43 130.105 43 129L43 77C43 75.8954 43.8954 75 45 75Z" fill="#1C3553"/>
<path fill-rule="evenodd" clip-rule="evenodd" d="M70 74C71.1046 74 72 74.8954 72 76V129C72 130.105 71.1046 131 70 131C68.8954 131 68 130.105 68 129V76C68 74.8954 68.8954 74 70 74Z" fill="#1C3553"/>
<path fill-rule="evenodd" clip-rule="evenodd" d="M18 80C18 76.6863 20.6863 74 24 74H91C94.3137 74 97 76.6863 97 80V114C97 115.105 96.1046 116 95 116C93.8954 116 93 115.105 93 114V80C93 78.8954 92.1046 78 91 78H24C22.8954 78 22 78.8954 22 80V84C22 85.1046 21.1046 86 20 86C18.8954 86 18 85.1046 18 84V80ZM20 90C21.1046 90 22 90.8954 22 92V126C22 127.105 22.8954 128 24 128H91C92.1046 128 93 127.105 93 126V123C93 121.895 93.8954 121 95 121C96.1046 121 97 121.895 97 123V126C97 129.314 94.3137 132 91 132H24C20.6863 132 18 129.314 18 126V92C18 90.8954 18.8954 90 20 90Z" fill="#1C3553"/>
</svg>
