<svg width="156" height="156" viewBox="0 0 156 156" fill="none" xmlns="http://www.w3.org/2000/svg">
<rect x="86" y="107" width="54" height="9" rx="2" fill="#C2DDFF"/>
<path fill-rule="evenodd" clip-rule="evenodd" d="M84 110C84 107.791 85.7909 106 88 106H138C140.209 106 142 107.791 142 110V114C142 116.209 140.209 118 138 118H128C126.895 118 126 117.105 126 116C126 114.895 126.895 114 128 114H138V110H88V114H120C121.105 114 122 114.895 122 116C122 117.105 121.105 118 120 118H88C85.7909 118 84 116.209 84 114V110Z" fill="#002240"/>
<path fill-rule="evenodd" clip-rule="evenodd" d="M62.2961 39.5882C59.9534 37.147 56.0566 37.1246 53.686 39.5387L16.913 76.9869C14.4285 79.5171 16.2209 83.7895 19.7671 83.7895H28.0159V95.4737C28.0159 96.5783 28.9114 97.4737 30.0159 97.4737C31.1205 97.4737 32.0159 96.5783 32.0159 95.4737V82.7895C32.0159 81.1326 30.6728 79.7895 29.0159 79.7895L19.7671 79.7895L56.5401 42.3413C57.3303 41.5366 58.6292 41.5441 59.4101 42.3578L71.899 55.3717C73.7703 57.3217 77.0636 55.9971 77.0636 53.2945V51.6316H83.9842V66.3233C83.9842 67.1177 84.2993 67.8797 84.8603 68.4421L96.18 79.7895H86.9842C85.3273 79.7895 83.9842 81.1326 83.9842 82.7895V100C83.9842 101.105 84.8796 102 85.9842 102C87.0888 102 87.9842 101.105 87.9842 100V83.7895H96.18C99.7412 83.7895 101.527 79.4858 99.0119 76.9645L87.9842 65.9099V50.6316C87.9842 48.9747 86.641 47.6316 84.9842 47.6316H76.0636C74.4067 47.6316 73.0636 48.9747 73.0636 50.6316V50.8083L62.2961 39.5882ZM30.0159 98.9474C28.9114 98.9474 28.0159 99.8428 28.0159 100.947V112C28.0159 115.314 30.7022 118 34.0159 118H77.7937C78.8983 118 79.7937 117.105 79.7937 116C79.7937 114.895 78.8983 114 77.7937 114H34.0159C32.9114 114 32.0159 113.105 32.0159 112V100.947C32.0159 99.8428 31.1205 98.9474 30.0159 98.9474Z" fill="#002240"/>
<path fill-rule="evenodd" clip-rule="evenodd" d="M37 87C37 85.8954 37.8954 85 39 85H53C54.1046 85 55 85.8954 55 87V115C55 116.105 54.1046 117 53 117H39C37.8954 117 37 116.105 37 115V87ZM41 89V113H51V89H41Z" fill="#002240"/>
<path fill-rule="evenodd" clip-rule="evenodd" d="M61 87C61 85.8954 61.8954 85 63 85H77C78.1046 85 79 85.8954 79 87V101C79 102.105 78.1046 103 77 103H63C61.8954 103 61 102.105 61 101V87ZM65 89V99H75V89H65Z" fill="#002240"/>
<path fill-rule="evenodd" clip-rule="evenodd" d="M101 92C102.105 92 103 92.8954 103 94V106C103 107.105 102.105 108 101 108C99.8954 108 99 107.105 99 106V94C99 92.8954 99.8954 92 101 92Z" fill="#002240"/>
<path fill-rule="evenodd" clip-rule="evenodd" d="M109 92C110.105 92 111 92.8954 111 94V106C111 107.105 110.105 108 109 108C107.895 108 107 107.105 107 106V94C107 92.8954 107.895 92 109 92Z" fill="#002240"/>
<path fill-rule="evenodd" clip-rule="evenodd" d="M117 92C118.105 92 119 92.8954 119 94V106C119 107.105 118.105 108 117 108C115.895 108 115 107.105 115 106V94C115 92.8954 115.895 92 117 92Z" fill="#002240"/>
<path fill-rule="evenodd" clip-rule="evenodd" d="M125 92C126.105 92 127 92.8954 127 94V106C127 107.105 126.105 108 125 108C123.895 108 123 107.105 123 106V94C123 92.8954 123.895 92 125 92Z" fill="#002240"/>
<path fill-rule="evenodd" clip-rule="evenodd" d="M133 92C134.105 92 135 92.8954 135 94V106C135 107.105 134.105 108 133 108C131.895 108 131 107.105 131 106V94C131 92.8954 131.895 92 133 92Z" fill="#002240"/>
<path fill-rule="evenodd" clip-rule="evenodd" d="M92 98C92 96.8954 92.8954 96 94 96H140C141.105 96 142 96.8954 142 98C142 99.1046 141.105 100 140 100H94C92.8954 100 92 99.1046 92 98Z" fill="#002240"/>
</svg>
