<svg width="156" height="156" viewBox="0 0 156 156" fill="none" xmlns="http://www.w3.org/2000/svg">
<path d="M114.09 109.58L120.04 87.49C120.26 86.69 119.78 85.87 118.98 85.65C118.18 85.43 117.36 85.91 117.14 86.71L111.77 106.64L97.57 106.62C97.17 106.62 96.79 106.78 96.51 107.06C96.23 107.34 96.07 107.72 96.07 108.12V121.63H92.37L84.32 109.58L92.25 97.61H100.58C101.41 97.61 102.08 96.94 102.08 96.11C102.08 95.28 101.41 94.61 100.58 94.61H90.73L90.67 94.57L90.64 94.61H84.07V63.17C88.68 63.33 93.74 64.26 98.77 66.64C98.84 66.67 98.91 66.67 98.98 66.69C99.04 66.71 99.1 66.75 99.16 66.77C99.24 66.78 99.32 66.79 99.41 66.79C99.58 66.79 99.74 66.75 99.89 66.7C99.94 66.68 99.98 66.66 100.03 66.64C100.14 66.59 100.25 66.52 100.34 66.45C100.36 66.43 100.4 66.42 100.42 66.4C106.04 61.25 123.89 61.72 130.3 62.34C131.01 62.4 131.66 61.97 131.88 61.3C132.09 60.62 131.8 59.89 131.19 59.54L82.86 32.18C82.86 32.18 82.84 32.18 82.83 32.17C82.75 32.13 82.66 32.1 82.57 32.08C82.5 32.06 82.44 32.03 82.37 32.02C82.29 32.01 82.2 32.02 82.11 32.02C82.04 32.02 81.97 32.02 81.89 32.02C81.82 32.03 81.74 32.06 81.67 32.09C81.59 32.12 81.51 32.13 81.43 32.17C81.43 32.17 81.41 32.17 81.4 32.17L33.1 57.87C32.48 58.2 32.18 58.91 32.35 59.58C32.53 60.25 33.1 60.72 33.84 60.7C34.07 60.7 56.68 60.15 63.49 66.4C63.53 66.44 63.58 66.45 63.62 66.48C63.73 66.56 63.84 66.64 63.97 66.69C64.04 66.71 64.11 66.71 64.18 66.73C64.28 66.75 64.39 66.79 64.49 66.79C64.5 66.79 64.52 66.79 64.53 66.79C64.55 66.79 64.56 66.79 64.58 66.79C64.63 66.79 64.68 66.79 64.73 66.78C64.79 66.78 64.83 66.73 64.89 66.72C64.97 66.7 65.05 66.7 65.13 66.66C65.24 66.61 71.95 63.53 81.03 63.19V94.62H74.3L74.27 94.57L74.2 94.62H64.52C63.69 94.62 63.02 95.29 63.02 96.12C63.02 96.95 63.69 97.62 64.52 97.62H72.7L80.7 109.6L72.73 121.64H66.03V108.13C66.03 107.73 65.87 107.35 65.59 107.07C65.31 106.79 64.93 106.63 64.53 106.63L50.66 106.65L48 86.91C47.89 86.09 47.13 85.51 46.31 85.62C45.49 85.73 44.91 86.49 45.02 87.31L48.01 109.49V121.64H21V124.64H135.11V121.64H114.09V109.58ZM82.11 36.61L96.08 62.32C84.43 58.29 73.46 60.62 67.81 62.43L82.11 36.61ZM124.13 58.98C117 58.8 105.8 59.23 99.89 63.03L85.95 37.38L124.13 58.99V58.98ZM78.35 37.19L64.04 63.02C58.06 59.05 46.7 58 39.71 57.74L78.35 37.19ZM99.07 109.62L111.08 109.64V121.63H99.07V109.62ZM76.33 97.61H88.65L82.52 106.87L76.34 97.61H76.33ZM82.53 112.3L88.76 121.64H76.35L82.53 112.3ZM51.03 109.64L63.04 109.62V121.63H51.03V109.64Z" fill="#002341"/>
</svg>
