<svg width="156" height="156" viewBox="0 0 156 156" fill="none" xmlns="http://www.w3.org/2000/svg">
<path d="M118.14 39.85V36.85H99.9V43.05L92.19 39.16C88.1 37.09 83.51 36 78.93 36H55.64L51.98 36.04C49.77 36.04 47.69 36.91 46.12 38.49C44.55 40.06 43.69 42.15 43.69 44.36C43.69 46.57 44.56 48.65 46.14 50.22C46.17 50.25 46.21 50.28 46.25 50.31C43.24 51.56 41.12 54.53 41.12 57.99C41.12 60.48 42.23 62.7 43.97 64.22C41.28 65.6 39.44 68.39 39.45 71.61C39.45 73.95 40.43 76.05 41.99 77.56C41.05 77.97 40.18 78.55 39.43 79.3C37.86 80.87 37 82.95 37 85.16C37 87.37 37.87 89.45 39.45 91.02C41.02 92.59 43.1 93.45 45.3 93.45H45.31L67.43 93.4C66.43 96.61 64.66 103 64.74 107.75C64.86 115.02 68.65 119.64 75.42 120.77C75.66 120.81 75.91 120.83 76.15 120.83C78.26 120.83 80.14 119.32 80.52 117.19C81.34 112.63 82.89 104.51 83.57 101.64C86.66 88.52 95.91 83.52 99.9 81.93V87.64H118.14V84.64H102.91V39.85H118.14ZM80.65 100.94C79.93 103.97 78.38 112.16 77.57 116.65C77.44 117.41 76.7 117.92 75.92 117.8C70.59 116.91 67.84 113.51 67.75 107.69C67.65 101.78 70.89 92.47 70.93 92.38L71.63 90.38L45.32 90.43C43.92 90.43 42.59 89.88 41.59 88.88C40.58 87.88 40.03 86.55 40.03 85.14C40.03 83.73 40.58 82.4 41.58 81.4C42.58 80.39 43.91 79.84 45.32 79.84H47.01C47.26 79.86 47.52 79.88 47.78 79.88H47.79L52.95 79.83H52.98L55.93 79.8L55.9 76.8L52.92 76.83H47.37C44.64 76.64 42.47 74.38 42.46 71.59C42.46 68.67 44.83 66.29 47.73 66.29L55.13 66.34V66.32L56.86 66.34L56.9 63.34L49.44 63.25C46.52 63.25 44.15 60.88 44.14 57.96C44.14 55.04 46.51 52.66 49.44 52.66L55.93 52.59L57.18 52.58L57.15 49.58L52.01 49.63C50.61 49.63 49.28 49.08 48.28 48.08C47.27 47.08 46.72 45.75 46.72 44.34C46.72 42.93 47.27 41.6 48.27 40.6C49.27 39.59 50.6 39.04 52.02 39.04L78.95 39C83.07 39 87.19 39.98 90.86 41.83L99.92 46.4V78.71C96.17 79.99 84.37 85.21 80.66 100.94H80.65Z" fill="#002341"/>
</svg>
