<svg width="156" height="156" viewBox="0 0 156 156" fill="none" xmlns="http://www.w3.org/2000/svg">
<path fill-rule="evenodd" clip-rule="evenodd" d="M127 78C127 50.938 105.062 29 78.0001 29C63.1688 29 49.8765 35.5893 40.8911 46H42.0001C43.1047 46 44.0001 46.8954 44.0001 48V54.0002C48.1253 54.0002 53.37 50.7754 57.1324 47.9883C60.3845 45.5793 64.2431 44.0002 68.2902 44.0002H93.0001C101.855 44.0002 105 51.0002 100 55.0002C107.316 55.0002 110 66.0002 104 68.0002C111 71.0002 109 80.0002 103 81.0002C110 83.0002 106.859 93.0002 100 93.0002H79.0001C83.5402 98.2635 84.8697 103 84.0001 113C83.5334 118.367 79.2096 119.556 75.979 119.11C73.99 118.836 73.1405 116.794 73.006 114.79C72.76 111.126 71.6956 106.274 69.0001 104.5C65.368 102.11 55.9349 92.8367 52.0001 88.0001H44.0001V93H35.9953H31.3386C37.6744 112.725 56.1702 127 78.0001 127C105.062 127 127 105.062 127 78Z" fill="#C2DDFF"/>
<path fill-rule="evenodd" clip-rule="evenodd" d="M80.2887 131.102C60.4434 131.958 42.6739 121.788 32.9071 106.014C32.3256 105.075 31.093 104.785 30.1538 105.367C29.2147 105.948 28.9248 107.181 29.5063 108.12C40.0037 125.074 59.1127 136.019 80.4612 135.098C111.912 133.74 136.308 107.144 134.95 75.693C133.593 44.2421 106.997 19.8465 75.5456 21.2039C61.0449 21.8297 48.0398 27.8235 38.3722 37.1821C37.5785 37.9504 37.558 39.2166 38.3262 40.0102C39.0945 40.8038 40.3606 40.8244 41.1543 40.0561C50.1458 31.352 62.2324 25.7822 75.718 25.2002C104.962 23.938 129.692 46.6217 130.954 75.8655C132.216 105.109 109.533 129.839 80.2887 131.102Z" fill="#1C3553"/>
<path fill-rule="evenodd" clip-rule="evenodd" d="M82.0438 119.956C84.1841 118.691 85.7075 116.45 85.9925 113.173C86.4352 108.083 86.3389 104.139 85.4662 100.728C84.9257 98.6157 84.1014 96.7614 82.992 95.0001H100C104.492 95.0001 107.662 91.7327 108.623 88.2879C109.111 86.5399 109.083 84.5917 108.253 82.8562C107.973 82.2704 107.612 81.7309 107.173 81.2476C108.946 79.8102 110.06 77.6991 110.357 75.5204C110.723 72.8312 109.87 69.9782 107.591 67.9273C108.127 67.2989 108.534 66.5792 108.814 65.8093C109.462 64.0315 109.427 62.0332 108.92 60.2136C108.196 57.6141 106.368 54.9985 103.588 53.752C104.683 51.6094 104.652 49.1714 103.438 47.0182C101.713 43.958 97.9142 42.0002 93 42.0002H68.2901C63.7181 42.0002 59.4521 43.7809 55.9418 46.3812C54.1113 47.7372 51.9612 49.1682 49.804 50.2524C47.6078 51.3563 45.599 52.0002 44 52.0002C42.8954 52.0002 42 52.8956 42 54.0002V88C42 89.1046 42.8954 90 44 90H51.0488C51.0504 90 51.0523 90.0001 51.0563 90.002C51.0609 90.0042 51.0694 90.0094 51.0793 90.021C53.2492 92.5819 56.5341 96.0064 59.6998 99.0681C62.8272 102.093 65.9943 104.916 67.9007 106.171C68.6881 106.689 69.4412 107.828 70.025 109.571C70.5888 111.255 70.895 113.205 71.0104 114.924C71.0912 116.128 71.3908 117.477 72.0826 118.629C72.8045 119.83 73.9925 120.855 75.7055 121.091C77.6292 121.357 80.0063 121.161 82.0438 119.956ZM79 93.0001V91.0001C78.2178 91.0001 77.5074 91.4561 77.1817 92.1673C76.8559 92.8784 76.9747 93.7142 77.4856 94.3065C79.6084 96.7675 80.8947 98.9984 81.5911 101.72C82.3007 104.493 82.4344 107.918 82.0075 112.827C81.8258 114.917 80.954 115.954 80.008 116.513C78.9593 117.133 77.5592 117.309 76.2523 117.129C75.9764 117.091 75.7451 116.958 75.5113 116.569C75.2476 116.13 75.0551 115.456 75.0014 114.656C74.8708 112.712 74.5218 110.403 73.818 108.301C73.1342 106.259 72.0074 104.085 70.0993 102.829C68.5484 101.809 65.6302 99.2391 62.4806 96.1929C59.3693 93.1837 56.1854 89.8596 54.131 87.4351C53.3721 86.5394 52.2539 86 51.0488 86H46V55.8155C47.9035 55.4788 49.8279 54.7172 51.6003 53.8264C54.0374 52.6014 56.3908 51.0265 58.3228 49.5954C61.3166 47.3776 64.7679 46.0002 68.2901 46.0002H93C96.9411 46.0002 99.142 47.5424 99.9534 48.9822C100.695 50.2983 100.559 51.9919 98.7506 53.4385C98.0874 53.9691 97.8316 54.8607 98.1127 55.6622C98.3939 56.4637 99.1506 57.0002 100 57.0002C102.505 57.0002 104.396 58.878 105.067 61.2868C105.396 62.4672 105.364 63.5939 105.056 64.441C104.767 65.2353 104.235 65.8137 103.368 66.1028C102.58 66.3654 102.036 67.0874 102.002 67.9171C101.967 68.7467 102.449 69.5114 103.212 69.8385C105.845 70.9667 106.653 73.0768 106.393 74.98C106.118 77.0003 104.676 78.6933 102.671 79.0274C101.749 79.1811 101.056 79.9535 101.003 80.8871C100.95 81.8207 101.551 82.6663 102.451 82.9232C103.701 83.2806 104.331 83.9262 104.645 84.5816C104.98 85.2837 105.05 86.2104 104.771 87.2124C104.197 89.2677 102.367 91.0001 100 91.0001H79C78.9999 91.0001 79 91.0001 79 93.0001Z" fill="#1C3553"/>
<path fill-rule="evenodd" clip-rule="evenodd" d="M20.4852 46.6941C20.8651 46.2534 21.4182 46 22 46H44C45.1046 46 46 46.8954 46 48V93C46 95.2091 44.2091 97 42 97L32.4484 97C29.476 97 26.9517 94.8237 26.5138 91.8838L20.0218 48.2946C19.9361 47.7191 20.1053 47.1348 20.4852 46.6941ZM24.3199 50L30.4702 91.2946C30.6162 92.2746 31.4576 93 32.4484 93L42 93V50H37.9953V85.951C37.9953 87.0556 37.0998 87.951 35.9953 87.951C34.8907 87.951 33.9953 87.0556 33.9953 85.951V50H24.3199Z" fill="#1C3553"/>
</svg>
