<svg width="156" height="156" viewBox="0 0 156 156" fill="none" xmlns="http://www.w3.org/2000/svg">
<path fill-rule="evenodd" clip-rule="evenodd" d="M127 78C127 105.062 105.062 127 78.0001 127C63.1688 127 49.8765 120.411 40.8911 110H42.0001C43.1047 110 44.0001 109.105 44.0001 108V102C48.1253 102 53.37 105.225 57.1324 108.012C60.3845 110.421 64.2431 112 68.2902 112H93.0001C101.855 112 105 105 100 101C107.316 101 110 89.9998 104 87.9998C111 84.9998 109 75.9998 103 74.9998C110 72.9998 106.859 62.9998 100 62.9998H79.0001C83.5402 57.7365 84.8697 52.9998 84.0001 42.9998C83.5334 37.633 79.2096 36.444 75.979 36.8898C73.99 37.1643 73.1405 39.2062 73.006 41.2095C72.76 44.8735 71.6956 49.7263 69.0001 51.4999C65.368 53.8898 55.9349 63.1633 52.0001 67.9999H44.0001V63H35.9953H31.3386C37.6744 43.2753 56.1702 29 78.0001 29C105.062 29 127 50.938 127 78Z" fill="#C2DDFF"/>
<path fill-rule="evenodd" clip-rule="evenodd" d="M78.0001 25C58.1363 25 40.8219 35.9267 31.7444 52.107C31.2039 53.0703 29.9849 53.4131 29.0215 52.8727C28.0582 52.3322 27.7154 51.1132 28.2559 50.1499C38.0125 32.7592 56.6317 21 78.0001 21C109.48 21 135 46.5198 135 78C135 109.48 109.48 135 78.0001 135C63.4859 135 50.2345 129.573 40.1723 120.639C39.3463 119.906 39.2711 118.642 40.0045 117.816C40.7378 116.99 42.0019 116.915 42.8279 117.648C52.1864 125.957 64.5019 131 78.0001 131C107.271 131 131 107.271 131 78C131 48.7289 107.271 25 78.0001 25Z" fill="#1C3553"/>
<path fill-rule="evenodd" clip-rule="evenodd" d="M82.0438 36.0435C84.1841 37.3089 85.7075 39.5495 85.9925 42.8266C86.4352 47.9173 86.3389 51.8611 85.4662 55.2718C84.9257 57.3843 84.1014 59.2386 82.992 60.9998H100C104.492 60.9998 107.662 64.2673 108.623 67.7121C109.111 69.4601 109.083 71.4083 108.253 73.1438C107.973 73.7295 107.612 74.2691 107.173 74.7524C108.946 76.1898 110.06 78.3009 110.357 80.4796C110.723 83.1688 109.87 86.0218 107.591 88.0727C108.127 88.7011 108.534 89.4207 108.814 90.1906C109.462 91.9685 109.427 93.9668 108.92 95.7864C108.196 98.3859 106.368 101.002 103.588 102.248C104.683 104.391 104.652 106.829 103.438 108.982C101.713 112.042 97.9142 114 93 114H68.2901C63.7181 114 59.4521 112.219 55.9418 109.619C54.1113 108.263 51.9612 106.832 49.804 105.748C47.6078 104.644 45.599 104 44 104C42.8954 104 42 103.104 42 102V67.9999C42 66.8954 42.8954 65.9999 44 65.9999H51.0488C51.0504 65.9999 51.0523 65.9999 51.0563 65.9979C51.0609 65.9958 51.0694 65.9906 51.0793 65.979C53.2492 63.4181 56.5341 59.9936 59.6998 56.9318C62.8272 53.9071 65.9943 51.0835 67.9007 49.8292C68.6881 49.3111 69.4412 48.1722 70.025 46.4286C70.5888 44.7449 70.895 42.7948 71.0104 41.0755C71.0912 39.8722 71.3908 38.5227 72.0826 37.3712C72.8045 36.17 73.9925 35.1449 75.7055 34.9085C77.6292 34.6431 80.0063 34.8387 82.0438 36.0435ZM79 62.9998V64.9998C78.2178 64.9998 77.5074 64.5438 77.1817 63.8327C76.8559 63.1216 76.9747 62.2858 77.4856 61.6935C79.6084 59.2325 80.8947 57.0016 81.5911 54.2803C82.3007 51.5069 82.4344 48.0824 82.0075 43.1731C81.8258 41.0834 80.954 40.046 80.008 39.4867C78.9593 38.8666 77.5592 38.6906 76.2523 38.871C75.9764 38.9091 75.7451 39.0423 75.5113 39.4314C75.2476 39.8703 75.0551 40.5435 75.0014 41.3435C74.8708 43.2882 74.5218 45.5966 73.818 47.6986C73.1342 49.7409 72.0074 51.9152 70.0993 53.1707C68.5484 54.1912 65.6302 56.7609 62.4806 59.8071C59.3693 62.8163 56.1854 66.1404 54.131 68.5649C53.3721 69.4606 52.2539 69.9999 51.0488 69.9999H46V100.185C47.9035 100.521 49.8279 101.283 51.6003 102.174C54.0374 103.399 56.3908 104.973 58.3228 106.405C61.3166 108.622 64.7679 110 68.2901 110H93C96.9411 110 99.142 108.458 99.9534 107.018C100.695 105.702 100.559 104.008 98.7506 102.562C98.0874 102.031 97.8316 101.139 98.1127 100.338C98.3939 99.5363 99.1506 98.9998 100 98.9998C102.505 98.9998 104.396 97.1219 105.067 94.7132C105.396 93.5328 105.364 92.4061 105.056 91.559C104.767 90.7647 104.235 90.1863 103.368 89.8972C102.58 89.6346 102.036 88.9126 102.002 88.0829C101.967 87.2533 102.449 86.4886 103.212 86.1615C105.845 85.0332 106.653 82.9232 106.393 81.02C106.118 78.9997 104.676 77.3067 102.671 76.9726C101.749 76.8188 101.056 76.0465 101.003 75.1129C100.95 74.1793 101.551 73.3336 102.451 73.0767C103.701 72.7194 104.331 72.0738 104.645 71.4183C104.98 70.7163 105.05 69.7895 104.771 68.7876C104.197 66.7323 102.367 64.9998 100 64.9998H79C78.9999 64.9998 79 64.9998 79 62.9998Z" fill="#1C3553"/>
<path fill-rule="evenodd" clip-rule="evenodd" d="M20.4852 61.6941C20.8651 61.2534 21.4182 61 22 61H44C45.1046 61 46 61.8954 46 63V108C46 110.209 44.2091 112 42 112L32.4484 112C29.476 112 26.9517 109.824 26.5138 106.884L20.0218 63.2946C19.9361 62.7191 20.1053 62.1348 20.4852 61.6941ZM24.3199 65L30.4702 106.295C30.6162 107.275 31.4576 108 32.4484 108L42 108V65H37.9953V100.951C37.9953 102.056 37.0998 102.951 35.9953 102.951C34.8907 102.951 33.9953 102.056 33.9953 100.951V65H24.3199Z" fill="#1C3553"/>
</svg>
