<svg width="156" height="156" viewBox="0 0 156 156" fill="none" xmlns="http://www.w3.org/2000/svg">
<path d="M118.14 71.67C118.14 67.1 114.41 63.38 109.84 63.38H109.83L87.71 63.43C88.71 60.22 90.48 53.83 90.4 49.08C90.28 41.82 86.49 37.19 79.72 36.06C77.32 35.66 75.04 37.27 74.62 39.64C73.82 44.13 72.27 52.25 71.57 55.19C68.48 68.31 59.23 73.31 55.24 74.9V69.19H37V72.19H52.23V116.96H37V119.96H55.23V113.76L62.94 117.65C67.03 119.72 71.62 120.81 76.2 120.81H99.49L103.15 120.77C105.36 120.77 107.44 119.9 109.01 118.32C110.58 116.75 111.44 114.66 111.44 112.45C111.44 110.11 110.46 108.01 108.9 106.5C111.9 105.25 114.02 102.28 114.02 98.83C114.02 96.62 113.15 94.54 111.57 92.97C111.43 92.83 111.26 92.72 111.11 92.59C111.89 92.19 112.63 91.71 113.26 91.07C114.83 89.5 115.69 87.41 115.69 85.2C115.69 82.99 114.82 80.91 113.24 79.34C113.21 79.31 113.17 79.29 113.14 79.26C116.08 77.98 118.13 75.05 118.13 71.64L118.14 71.67ZM109.85 76.98H107.79C107.65 76.98 107.52 76.94 107.39 76.94H107.38L99.23 77.02L99.26 80.02L102.19 79.99H107.81C109.06 80.08 110.24 80.59 111.14 81.49C112.15 82.49 112.7 83.82 112.7 85.23C112.7 86.64 112.15 87.97 111.15 88.97C110.15 89.98 108.82 90.53 107.43 90.53L100.03 90.48V90.5L98.3 90.48L98.26 93.48L105.72 93.57C107.12 93.57 108.45 94.12 109.45 95.12C110.46 96.12 111.01 97.45 111.01 98.86C111.01 101.78 108.64 104.16 105.71 104.16L99.22 104.23L97.97 104.24L98 107.24L103.14 107.19C106.06 107.19 108.43 109.56 108.44 112.48C108.44 113.89 107.89 115.22 106.89 116.22C105.89 117.23 104.56 117.78 103.14 117.78L76.21 117.82C72.09 117.82 67.97 116.84 64.3 114.99L55.24 110.42V78.11C58.99 76.83 70.79 71.61 74.5 55.88C75.21 52.88 76.77 44.69 77.58 40.17C77.71 39.41 78.46 38.89 79.23 39.02C84.56 39.91 87.31 43.31 87.4 49.12C87.5 55.03 84.26 64.34 84.22 64.43L83.52 66.43L109.84 66.38C112.76 66.38 115.13 68.75 115.14 71.67C115.14 74.59 112.77 76.97 109.85 76.97V76.98Z" fill="#002341"/>
</svg>
