<svg width="156" height="156" viewBox="0 0 156 156" fill="none" xmlns="http://www.w3.org/2000/svg">
<path d="M80.01 41.79V37.03H83.1V34H73.9V37.03H76.99V41.79C55.35 42.59 38 60.43 38 82.25C38 104.07 56.17 122.75 78.5 122.75C100.83 122.75 119 104.58 119 82.25C119 59.92 101.65 42.59 80.01 41.79ZM78.5 119.72C57.84 119.72 41.03 102.91 41.03 82.25C41.03 61.59 57.84 44.78 78.5 44.78C99.16 44.78 115.97 61.59 115.97 82.25C115.97 102.91 99.16 119.72 78.5 119.72Z" fill="#002341"/>
<path d="M80.01 89.09C83.15 88.39 85.51 85.6 85.51 82.26C85.51 78.39 82.37 75.25 78.5 75.25C74.63 75.25 71.49 78.4 71.49 82.26C71.49 85.6 73.85 88.4 76.99 89.09V105.46H80.02V89.09H80.01ZM74.51 82.26C74.51 80.06 76.3 78.28 78.49 78.28C80.68 78.28 82.47 80.07 82.47 82.26C82.47 84.45 80.68 86.24 78.49 86.24C76.3 86.24 74.51 84.45 74.51 82.26Z" fill="#002341"/>
<path d="M78.5 48.32V51.35C95.54 51.35 109.4 65.21 109.4 82.25C109.4 99.29 95.54 113.15 78.5 113.15V116.18C97.21 116.18 112.43 100.96 112.43 82.25C112.43 63.54 97.21 48.32 78.5 48.32Z" fill="#002341"/>
</svg>
