<svg width="156" height="156" viewBox="0 0 156 156" fill="none" xmlns="http://www.w3.org/2000/svg">
<path d="M79.68 41.73V37H82.74V34H73.61V37H76.67V41.73C55.21 42.52 38 60.22 38 81.87C38 103.52 56.02 122.04 78.17 122.04C100.32 122.04 118.35 104.02 118.35 81.87C118.35 59.72 101.13 42.52 79.68 41.73ZM78.18 119.04C57.68 119.04 41.01 102.36 41.01 81.87C41.01 61.38 57.68 44.69 78.17 44.69C98.66 44.69 115.34 61.37 115.34 81.86C115.34 102.35 98.66 119.03 78.17 119.03L78.18 119.04Z" fill="#002341"/>
<path d="M79.68 75.08V57.92H76.68V75.08C73.57 75.77 71.23 78.54 71.23 81.86C71.23 85.69 74.35 88.81 78.18 88.81C82.01 88.81 85.13 85.69 85.13 81.86C85.13 78.54 82.79 75.77 79.68 75.08ZM78.18 85.81C76 85.81 74.23 84.04 74.23 81.86C74.23 79.68 76 77.91 78.18 77.91C80.36 77.91 82.13 79.68 82.13 81.86C82.13 84.04 80.36 85.81 78.18 85.81Z" fill="#002341"/>
<path d="M78.17 48.21C59.62 48.21 44.52 63.31 44.52 81.87C44.52 100.43 59.62 115.53 78.18 115.53C96.74 115.53 111.84 100.43 111.84 81.87C111.84 63.31 96.73 48.21 78.17 48.21ZM78.17 112.52C61.27 112.52 47.52 98.77 47.52 81.87C47.52 64.97 61.27 51.22 78.17 51.22C95.07 51.22 108.82 64.97 108.82 81.87C108.82 98.77 95.07 112.52 78.17 112.52Z" fill="#002341"/>
</svg>
