<svg width="156" height="156" viewBox="0 0 156 156" fill="none" xmlns="http://www.w3.org/2000/svg">
<path d="M86.34 41.73V37H89.4V34H80.27V37H83.33V41.73C61.87 42.52 44.66 60.22 44.66 81.87C44.66 103.52 62.68 122.05 84.84 122.05C107 122.05 125.02 104.03 125.02 81.87C125.02 59.71 107.8 42.52 86.34 41.73ZM84.84 119.04C64.34 119.04 47.67 102.36 47.67 81.87C47.67 61.38 64.34 44.69 84.84 44.69C105.34 44.69 122.01 61.37 122.01 81.86C122.01 102.35 105.33 119.03 84.84 119.03V119.04Z" fill="#002341"/>
<path d="M86.34 75.09V57.93H83.34V75.09C80.23 75.78 77.89 78.55 77.89 81.87C77.89 85.7 81.01 88.82 84.84 88.82C88.67 88.82 91.79 85.7 91.79 81.87C91.79 78.55 89.45 75.78 86.34 75.09ZM84.84 85.82C82.66 85.82 80.89 84.05 80.89 81.87C80.89 79.69 82.66 77.92 84.84 77.92C87.02 77.92 88.79 79.69 88.79 81.87C88.79 84.05 87.02 85.82 84.84 85.82Z" fill="#002341"/>
<path d="M35.42 34H32.43V51.33H35.42V34Z" fill="#002341"/>
<path d="M33.92 62.95C35.5327 62.95 36.84 61.6427 36.84 60.03C36.84 58.4173 35.5327 57.11 33.92 57.11C32.3073 57.11 31 58.4173 31 60.03C31 61.6427 32.3073 62.95 33.92 62.95Z" fill="#002341"/>
</svg>
