<svg width="156" height="156" viewBox="0 0 156 156" fill="none" xmlns="http://www.w3.org/2000/svg">
<path d="M79.68 41.73V37H82.74V34H73.61V37H76.67V41.73C55.21 42.52 38 60.22 38 81.87C38 103.52 56.02 122.04 78.17 122.04C100.32 122.04 118.35 104.02 118.35 81.87C118.35 59.72 101.13 42.52 79.68 41.73ZM78.18 119.04C57.68 119.04 41.01 102.36 41.01 81.87C41.01 61.38 57.68 44.69 78.17 44.69C98.66 44.69 115.34 61.37 115.34 81.86C115.34 102.35 98.66 119.03 78.17 119.03L78.18 119.04Z" fill="#002341"/>
<path d="M78.17 88.82C82 88.82 85.12 85.7 85.12 81.87C85.12 78.04 82 74.92 78.17 74.92C74.85 74.92 72.08 77.26 71.39 80.37H54.92V83.37H71.39C72.08 86.48 74.85 88.82 78.17 88.82ZM78.17 77.92C80.35 77.92 82.12 79.69 82.12 81.87C82.12 84.05 80.35 85.82 78.17 85.82C75.99 85.82 74.22 84.05 74.22 81.87C74.22 79.69 75.99 77.92 78.17 77.92Z" fill="#002341"/>
<path d="M78.17 48.21V51.21C95.07 51.21 108.82 64.96 108.82 81.86C108.82 98.76 95.07 112.51 78.17 112.51C61.27 112.51 47.52 98.76 47.52 81.86H44.52C44.52 100.42 59.62 115.52 78.18 115.52C96.74 115.52 111.84 100.42 111.84 81.86C111.84 63.3 96.73 48.21 78.17 48.21Z" fill="#002341"/>
</svg>
