<svg width="156" height="156" viewBox="0 0 156 156" fill="none" xmlns="http://www.w3.org/2000/svg">
<path d="M79.68 41.73V37H82.74V34H73.61V37H76.67V41.73C55.21 42.52 38 60.22 38 81.87C38 103.52 56.02 122.05 78.18 122.05C100.34 122.05 118.36 104.03 118.36 81.87C118.36 59.71 101.14 42.52 79.68 41.73ZM78.18 119.04C57.68 119.04 41.01 102.36 41.01 81.87C41.01 61.38 57.68 44.69 78.18 44.69C98.68 44.69 115.35 61.37 115.35 81.86C115.35 102.35 98.67 119.03 78.18 119.03V119.04Z" fill="#002341"/>
<path d="M79.68 75.09V57.93H76.68V75.09C73.57 75.78 71.23 78.55 71.23 81.87C71.23 85.7 74.35 88.82 78.18 88.82C82.01 88.82 85.13 85.7 85.13 81.87C85.13 78.55 82.79 75.78 79.68 75.09ZM78.18 85.82C76 85.82 74.23 84.05 74.23 81.87C74.23 79.69 76 77.92 78.18 77.92C80.36 77.92 82.13 79.69 82.13 81.87C82.13 84.05 80.36 85.82 78.18 85.82Z" fill="#002341"/>
</svg>
