<svg width="156" height="156" viewBox="0 0 156 156" fill="none" xmlns="http://www.w3.org/2000/svg">
<path d="M78.41 31.22C89.53 31.22 100.2 35.09 108.7 42.16L95.63 42.89L95.8 45.89L113.8 44.88L111.49 26.99L108.51 27.37L110.07 39.41C101.13 32.18 90.01 28.22 78.41 28.22C50.61 28.22 28 50.83 28 78.63C28 88.48 30.84 98.03 36.22 106.23L38.73 104.58C33.67 96.86 31 87.89 31 78.62C31 52.49 52.27 31.22 78.41 31.22Z" fill="#002341"/>
<path d="M120.49 50.87L117.99 52.53C123.11 60.28 125.82 69.31 125.82 78.64C125.82 104.78 104.55 126.05 78.41 126.05C67.12 126.05 56.33 122.08 47.78 114.82L60.85 114.22L60.71 111.22L42.7 112.05L44.84 129.96L47.82 129.61L46.38 117.56C55.39 124.99 66.64 129.06 78.41 129.06C106.21 129.06 128.82 106.45 128.82 78.65C128.82 68.73 125.94 59.13 120.49 50.89V50.87Z" fill="#002341"/>
<path d="M71.62 76.11H70.15V79.11H71.28C71.28 79.22 71.28 79.32 71.28 79.43C71.28 79.76 71.28 80.08 71.31 80.39H70.16V83.39H71.79C72.97 87.64 76.1 90.29 80.31 90.29C82.94 90.29 85.12 89.26 86.98 87.14L84.72 85.16C83.45 86.61 82.05 87.29 80.31 87.29C77.75 87.29 75.86 85.86 74.93 83.4H82.63V80.4H74.31C74.29 80.09 74.28 79.77 74.28 79.44C74.28 79.33 74.28 79.23 74.28 79.12H84.72V76.12H74.7C75.56 73.17 77.66 71.48 80.67 71.48C82.05 71.48 83.47 72.13 84.48 73.22L86.68 71.18C85.09 69.46 82.9 68.48 80.67 68.48C75.98 68.48 72.65 71.39 71.61 76.12L71.62 76.11Z" fill="#002341"/>
<path d="M75.37 53.86L53.48 65.59V100.29H104.23V65.56L80.61 53.85C79.07 52.83 76.9 52.83 75.36 53.86H75.37ZM101.23 97.28H56.49V67.38L76.87 56.46L77.03 56.36C77.55 55.99 78.47 55.99 78.99 56.36L101.24 67.41V97.27L101.23 97.28Z" fill="#002341"/>
</svg>
