<svg width="156" height="156" viewBox="0 0 156 156" fill="none" xmlns="http://www.w3.org/2000/svg">
<path d="M128.31 55.25C127.83 54.99 127.24 55.01 126.78 55.3L108.07 67.28V52.5C108.07 51.67 107.4 51 106.57 51H28.5C27.67 51 27 51.67 27 52.5V103.55C27 104.38 27.67 105.05 28.5 105.05H106.57C107.4 105.05 108.07 104.38 108.07 103.55V88.76L126.78 100.74C127.03 100.9 127.31 100.98 127.59 100.98C127.84 100.98 128.09 100.92 128.31 100.8C128.79 100.54 129.09 100.03 129.09 99.48V56.57C129.09 56.02 128.79 55.52 128.31 55.25ZM105.07 102.04H30V54H105.07V102.04ZM126.09 96.73L108.07 85.19V70.85L126.09 59.31V96.73Z" fill="#002341"/>
<path d="M77.15 75.69L62.28 67.08C61.81 66.81 61.24 66.81 60.78 67.08C60.32 67.35 60.03 67.84 60.03 68.38V85.6C60.03 86.14 60.32 86.63 60.78 86.9C61.01 87.03 61.27 87.1 61.53 87.1C61.79 87.1 62.05 87.03 62.28 86.9L77.15 78.29C77.61 78.02 77.9 77.53 77.9 76.99C77.9 76.45 77.61 75.96 77.15 75.69ZM63.03 82.99V70.98L73.4 76.98L63.03 82.98V82.99Z" fill="#002341"/>
</svg>
