<svg width="156" height="156" viewBox="0 0 156 156" fill="none" xmlns="http://www.w3.org/2000/svg">
<path d="M63.43 44.59H53.42C52.59 44.59 51.92 45.26 51.92 46.09C51.92 46.92 52.59 47.59 53.42 47.59H63.43C64.26 47.59 64.93 46.92 64.93 46.09C64.93 45.26 64.26 44.59 63.43 44.59Z" fill="#002341"/>
<path d="M121.44 46.16C120.96 45.9 120.37 45.92 119.91 46.21L115.31 49.16V46.14C115.31 45.31 114.64 44.64 113.81 44.64H88.14C87.31 44.64 86.64 45.31 86.64 46.14V62.93C86.64 63.76 87.31 64.43 88.14 64.43H113.81C114.64 64.43 115.31 63.76 115.31 62.93V59.91L119.91 62.86C120.16 63.02 120.44 63.1 120.72 63.1C120.97 63.1 121.22 63.04 121.44 62.92C121.92 62.66 122.22 62.15 122.22 61.6V47.49C122.22 46.94 121.92 46.44 121.44 46.17V46.16ZM112.3 61.42H89.63V47.64H112.3V61.42ZM119.21 58.84L115.3 56.34V52.73L119.21 50.23V58.85V58.84Z" fill="#002341"/>
<path d="M104.26 53.54L99.37 50.71C99.14 50.58 98.85 50.58 98.62 50.71C98.39 50.84 98.24 51.09 98.24 51.36V57.02C98.24 57.29 98.38 57.54 98.62 57.67C98.74 57.74 98.87 57.77 99 57.77C99.13 57.77 99.26 57.74 99.38 57.67L104.27 54.84C104.5 54.71 104.65 54.46 104.65 54.19C104.65 53.92 104.51 53.67 104.27 53.54H104.26ZM99.74 55.72V52.66L102.38 54.19L99.74 55.72Z" fill="#002341"/>
<path d="M104.03 23C93.95 23 85.03 27.98 79.53 35.59C78.69 35.29 77.82 35.12 76.94 35.12H39.9C35.55 35.12 32 38.66 32 43.02V125.42C32 129.78 35.55 133.32 39.9 133.32H76.93C81.29 133.32 84.83 129.77 84.83 125.42V83.45H104.02C120.69 83.45 134.25 69.89 134.25 53.22C134.25 36.55 120.69 23 104.03 23ZM76.94 130.33H39.9C37.2 130.33 35 128.13 35 125.43V120.8H81.83V125.43C81.83 128.13 79.63 130.33 76.93 130.33H76.94ZM47.05 87.06C47.05 80.97 52.01 76.02 58.1 76.02C64.19 76.02 69.14 80.97 69.14 87.06C69.14 93.15 64.19 98.1 58.1 98.1C52.01 98.1 47.05 93.15 47.05 87.06ZM76.01 117.79H40.17C40.94 108.57 48.67 101.3 58.09 101.3C67.51 101.3 75.24 108.57 76.01 117.79ZM81.84 117.79H79.01C78.4 109.21 72.63 102.05 64.78 99.4C69.16 97.02 72.14 92.38 72.14 87.05C72.14 79.3 65.84 73 58.09 73C50.34 73 44.04 79.3 44.04 87.05C44.04 92.38 47.02 97.02 51.4 99.4C43.55 102.05 37.78 109.21 37.17 117.79H35.01V43.02C35.01 40.32 37.21 38.12 39.91 38.12H76.94C77.23 38.12 77.52 38.15 77.81 38.21C77.74 38.33 77.69 38.45 77.62 38.56C77.49 38.79 77.37 39.02 77.25 39.25C76.94 39.85 76.64 40.45 76.37 41.07C76.29 41.26 76.2 41.44 76.12 41.62C75.8 42.39 75.52 43.17 75.26 43.96C75.18 44.2 75.12 44.43 75.04 44.67C74.83 45.37 74.65 46.09 74.49 46.8C74.46 46.95 74.42 47.1 74.39 47.25C74.22 48.1 74.09 48.97 73.99 49.84C73.97 50.06 73.95 50.28 73.93 50.5C73.85 51.41 73.79 52.32 73.79 53.23V83.46H81.83V117.79H81.84ZM104.03 80.45H76.8V53.22C76.8 52.39 76.85 51.56 76.93 50.75C76.95 50.51 76.98 50.27 77.01 50.02C77.08 49.41 77.18 48.8 77.29 48.2C77.33 47.98 77.36 47.76 77.41 47.55C77.57 46.78 77.77 46.03 77.99 45.29C78.05 45.08 78.13 44.88 78.2 44.67C78.38 44.12 78.58 43.57 78.8 43.04C78.91 42.78 79.02 42.51 79.13 42.25C79.36 41.74 79.6 41.24 79.86 40.74C79.97 40.53 80.07 40.31 80.19 40.11C80.58 39.4 81 38.7 81.46 38.03V38.01C86.37 30.77 94.66 26 104.04 26C119.05 26 131.27 38.21 131.27 53.23C131.27 68.25 119.06 80.46 104.04 80.46L104.03 80.45Z" fill="#002341"/>
</svg>
