<svg width="156" height="156" viewBox="0 0 156 156" fill="none" xmlns="http://www.w3.org/2000/svg">
<path fill-rule="evenodd" clip-rule="evenodd" d="M52.9998 52.0004C51.8952 52.0004 50.9998 52.8958 50.9998 54.0004V113C50.9998 114.105 51.8952 115 52.9998 115H103C104.104 115 105 114.105 105 113V54.0004C105 52.8958 104.104 52.0004 103 52.0004H52.9998ZM64.4998 101C68.6664 104 80.0998 108.2 92.4998 101C94.9998 99.1667 99.9998 93.6001 99.9998 86.0001C98.1664 77.3334 91.2998 60.0001 78.4998 60.0001C73.3331 58.5001 61.7998 61.6001 56.9998 86.0001C56.6664 89.848 57.6998 98.2352 64.4998 101Z" fill="#C2DDFF"/>
<path fill-rule="evenodd" clip-rule="evenodd" d="M43.0002 26.9999C43.0002 23.6862 45.6865 20.9999 49.0002 20.9999H107C110.314 20.9999 113 23.6862 113 26.9999V131C113 134.314 110.314 137 107 137H49.0002C45.6865 137 43.0002 134.314 43.0002 131V26.9999ZM49.0002 24.9999C47.8957 24.9999 47.0002 25.8953 47.0002 26.9999V43.9948L100.852 43.8575C101.957 43.8547 102.855 44.7479 102.857 45.8524C102.86 46.957 101.967 47.8547 100.862 47.8575L47.0002 47.9948V131C47.0002 132.105 47.8957 133 49.0002 133H107C108.105 133 109 132.105 109 131V123.286H55.1431C54.0385 123.286 53.1431 122.391 53.1431 121.286C53.1431 120.182 54.0385 119.286 55.1431 119.286H109V26.9999C109 25.8953 108.105 24.9999 107 24.9999H49.0002Z" fill="#1C3553"/>
<path fill-rule="evenodd" clip-rule="evenodd" d="M63.4287 34.4284C63.4287 33.3239 64.3241 32.4284 65.4287 32.4284H90.5716C91.6761 32.4284 92.5716 33.3239 92.5716 34.4284C92.5716 35.533 91.6761 36.4284 90.5716 36.4284H65.4287C64.3241 36.4284 63.4287 35.533 63.4287 34.4284Z" fill="#1C3553"/>
<path fill-rule="evenodd" clip-rule="evenodd" d="M120 82.0624C120 80.9578 120.895 80.0624 122 80.0624H132C133.105 80.0624 134 80.9578 134 82.0624C134 83.1669 133.105 84.0624 132 84.0624H122C120.895 84.0624 120 83.1669 120 82.0624Z" fill="#1C3553"/>
<path fill-rule="evenodd" clip-rule="evenodd" d="M118.264 70.0234C117.716 69.0643 118.049 67.8426 119.008 67.2946L126.008 63.2946C126.967 62.7466 128.189 63.0798 128.737 64.0388C129.285 64.9979 128.951 66.2196 127.992 66.7676L120.992 70.7676C120.033 71.3156 118.812 70.9824 118.264 70.0234Z" fill="#1C3553"/>
<path fill-rule="evenodd" clip-rule="evenodd" d="M36 82.0624C36 80.9578 35.1046 80.0624 34 80.0624H24C22.8954 80.0624 22 80.9578 22 82.0624C22 83.1669 22.8954 84.0624 24 84.0624H34C35.1046 84.0624 36 83.1669 36 82.0624Z" fill="#1C3553"/>
<path fill-rule="evenodd" clip-rule="evenodd" d="M37.7364 70.0234C38.2844 69.0643 37.9512 67.8426 36.9922 67.2946L29.9922 63.2946C29.0331 62.7466 27.8114 63.0798 27.2634 64.0388C26.7154 64.9979 27.0486 66.2196 28.0076 66.7676L35.0076 70.7676C35.9666 71.3156 37.1883 70.9824 37.7364 70.0234Z" fill="#1C3553"/>
<path fill-rule="evenodd" clip-rule="evenodd" d="M71.9993 90.0003C73.1039 90.0003 73.9993 90.8958 73.9993 92.0003V98.0003C73.9993 98.989 73.2769 99.8294 72.2994 99.9777C71.2271 100.14 68.4513 101.037 65.672 102.54C64.3058 103.28 63.0106 104.128 61.9636 105.047C60.9037 105.977 60.1967 106.892 59.8563 107.743C59.446 108.769 58.2821 109.268 57.2565 108.857C56.231 108.447 55.7321 107.283 56.1424 106.258C56.8019 104.609 58.0019 103.201 59.3257 102.04C60.6624 100.867 62.2277 99.8562 63.7685 99.0225C65.9666 97.8331 68.2642 96.9261 69.9993 96.42V92.0003C69.9993 90.8958 70.8947 90.0003 71.9993 90.0003Z" fill="#1C3553"/>
<path fill-rule="evenodd" clip-rule="evenodd" d="M83.9992 90.0003C82.8947 90.0003 81.9992 90.8958 81.9992 92.0003V98.0003C81.9992 98.989 82.7217 99.8294 83.6992 99.9777C84.7714 100.14 87.5472 101.037 90.3265 102.54C91.6927 103.28 92.9879 104.128 94.0349 105.047C95.0948 105.977 95.8018 106.892 96.1423 107.743C96.5525 108.769 97.7164 109.268 98.742 108.857C99.7676 108.447 100.266 107.283 99.8562 106.258C99.1966 104.609 97.9967 103.201 96.6728 102.04C95.3361 100.867 93.7708 99.8562 92.2301 99.0225C90.0319 97.8331 87.7343 96.9261 85.9992 96.42V92.0003C85.9992 90.8958 85.1038 90.0003 83.9992 90.0003Z" fill="#1C3553"/>
<path fill-rule="evenodd" clip-rule="evenodd" d="M92.7973 100.123C93.2818 101.115 92.8698 102.313 91.8772 102.797C86.3522 105.494 82.0785 107 77.754 107C73.4127 107 69.2942 105.485 64.0782 102.776C63.0979 102.267 62.7159 101.06 63.225 100.079C63.734 99.0992 64.9413 98.7172 65.9216 99.2262C70.9746 101.85 74.3935 103 77.7536 103C81.1305 103 84.7223 101.838 90.1227 99.2026C91.1153 98.7181 92.3128 99.13 92.7973 100.123Z" fill="#1C3553"/>
<path fill-rule="evenodd" clip-rule="evenodd" d="M69.609 72.0954C70.6609 72.4325 71.2404 73.5584 70.9034 74.6103C70.8825 74.6757 70.8618 74.7401 70.8415 74.8035C70.3175 76.4366 69.9988 77.43 69.9988 79.0001C69.9988 82.6909 70.9123 86.0517 72.4122 88.4231C73.901 90.777 75.8383 92.0001 77.9986 92.0001C80.1589 92.0001 82.0963 90.777 83.5852 88.423C85.0852 86.0517 85.9988 82.6909 85.9988 79.0001C85.9988 77.43 85.6801 76.4366 85.1561 74.8035C85.1358 74.7401 85.1151 74.6757 85.0941 74.6103C84.7571 73.5584 85.3367 72.4325 86.3886 72.0954C87.4405 71.7584 88.5664 72.3379 88.9034 73.3898C88.9344 73.4866 88.9655 73.583 88.9964 73.6792C89.5078 75.2673 89.9988 76.7919 89.9988 79.0001C89.9988 83.2882 88.948 87.4274 86.9657 90.5613C84.9724 93.7126 81.9097 96.0001 77.9986 96.0001C74.0874 96.0001 71.0248 93.7126 69.0316 90.5613C67.0494 87.4274 65.9988 83.2882 65.9988 79.0001C65.9988 76.7919 66.4897 75.2673 67.0011 73.6792C67.0321 73.583 67.0631 73.4866 67.0941 73.3898C67.4312 72.3379 68.5571 71.7584 69.609 72.0954Z" fill="#1C3553"/>
<path fill-rule="evenodd" clip-rule="evenodd" d="M79.27 68.138C80.0364 67.8379 80.9085 68.038 81.4674 68.6422C81.9589 69.1735 82.8682 70.0597 83.9514 70.7975C85.076 71.5636 86.1417 72.0003 86.9993 72.0003C88.1038 72.0003 88.9993 72.8958 88.9993 74.0003C88.9993 75.1049 88.1038 76.0003 86.9993 76.0003C85.0853 76.0003 83.3202 75.1607 81.9786 74.2892C81.8386 75.2569 81.0058 76.0003 79.9993 76.0003H68.9993C67.8947 76.0003 66.9993 75.1049 66.9993 74.0003C66.9993 72.8958 67.8947 72.0003 68.9993 72.0003H77.9993V70.0003C77.9993 69.1772 78.5036 68.4382 79.27 68.138Z" fill="#1C3553"/>
<path d="M64.3049 101C61.4143 99.1916 54.8083 93.7842 56.4425 87.1405C57.7576 81.7946 61.9161 67.3577 70.5761 61.9999C75.3924 59.8734 77.9105 59.7935 78.5675 60.0193" stroke="#1C3553" stroke-width="4" stroke-linecap="round" stroke-linejoin="round"/>
<path d="M91.6956 101C94.5862 99.1916 101.192 93.7842 99.558 87.1405C98.2429 81.7946 94.0844 67.3577 85.4244 61.9999C80.608 59.8734 78.09 59.7935 77.433 60.0193" stroke="#1C3553" stroke-width="4" stroke-linecap="round" stroke-linejoin="round"/>
<path fill-rule="evenodd" clip-rule="evenodd" d="M62.5703 75.4137C64.7841 70.6239 67.7452 66.1564 71.5135 63.7725C73.7518 62.7933 75.4001 62.3089 76.5162 62.0901C76.7338 62.0474 76.9283 62.0155 77.1003 61.9919C77.3894 62.0409 77.693 62.0268 77.9911 61.9399C77.9937 61.9397 77.9967 61.9394 78.0002 61.9391C78.0036 61.9394 78.0066 61.9397 78.0092 61.9399C78.3073 62.0268 78.6109 62.0409 78.9 61.9919C79.0721 62.0155 79.2665 62.0474 79.4841 62.0901C80.6002 62.3089 82.2486 62.7933 84.4868 63.7725C88.2551 66.1564 91.2162 70.6239 93.43 75.4137C95.6398 80.1948 96.972 85.0012 97.6158 87.6182L97.6158 87.6182C98.2344 90.1333 97.3388 92.5325 95.7242 94.6825C94.108 96.8348 91.9458 98.4842 90.6348 99.3043C89.6984 99.8901 89.4141 101.124 89.9999 102.061C90.5857 102.997 91.8197 103.281 92.7561 102.695C94.3358 101.707 96.922 99.7488 98.9228 97.0844C100.925 94.4178 102.516 90.7914 101.5 86.6628L101.5 86.6627C100.829 83.9338 99.4242 78.8488 97.0609 73.7356C94.7241 68.6795 91.3136 63.2917 86.4766 60.2991C86.3982 60.2506 86.3165 60.2075 86.2321 60.1703C83.7202 59.0612 81.7434 58.4569 80.2536 58.1648C79.5095 58.0189 78.8666 57.947 78.3258 57.935C78.2195 57.9326 78.1105 57.9324 78.0002 57.9351C77.8898 57.9324 77.7808 57.9326 77.6745 57.935C77.1337 57.947 76.4909 58.0189 75.7467 58.1648C74.2569 58.4569 72.2801 59.0612 69.7682 60.1703C69.6838 60.2075 69.6021 60.2506 69.5237 60.2991C64.6867 63.2917 61.2762 68.6795 58.9394 73.7356C56.5761 78.8488 55.1716 83.9338 54.5003 86.6627L54.5003 86.6628C53.4848 90.7914 55.075 94.4178 57.0775 97.0844C59.0784 99.7488 61.6645 101.707 63.2442 102.695C64.1806 103.281 65.4146 102.997 66.0004 102.061C66.5862 101.124 66.302 99.8901 65.3655 99.3043C64.0545 98.4842 61.8924 96.8348 60.2761 94.6825C58.6615 92.5325 57.7659 90.1333 58.3845 87.6182L58.3845 87.6182C59.0283 85.0012 60.3606 80.1948 62.5703 75.4137Z" fill="#1C3553"/>
</svg>
