<svg width="156" height="156" viewBox="0 0 156 156" fill="none" xmlns="http://www.w3.org/2000/svg">
<path d="M84.06 68.11H72.05V53.1H84.06V68.11ZM75.05 65.11H81.06V56.1H75.05V65.11Z" fill="#002341"/>
<path d="M60.03 89.13H48.02V74.12H60.03V89.13ZM51.02 86.13H57.03V77.12H51.02V86.13Z" fill="#002341"/>
<path d="M132.1 104.15H122.98C122.89 103.98 122.82 103.84 122.78 103.73V93.01C122.78 90.91 122.01 88.98 120.74 87.5H122.63L122.68 86.06C122.69 85.69 122.98 76.97 118.87 72.69C118.33 72.13 117.73 71.7 117.09 71.34V52L81.85 33.12C79.66 31.62 76.43 31.62 74.24 33.12L39.01 52.01V104.15H24V107.15H80.5C81.05 108.48 81.92 109.66 83.07 110.57L83.12 123.89H95.79V110.46C96.05 110.25 96.29 110.02 96.52 109.78C96.6 109.69 96.68 109.6 96.75 109.51C96.89 109.35 97.03 109.19 97.15 109.03C97.23 108.92 97.31 108.8 97.39 108.68C97.5 108.52 97.6 108.37 97.7 108.21C97.78 108.08 97.84 107.95 97.91 107.82C97.99 107.66 98.07 107.5 98.15 107.33C98.18 107.27 98.22 107.21 98.24 107.14H101.75C101.62 107.33 101.5 107.53 101.37 107.71L100.51 109L101.83 109.82C101.92 109.87 103.76 110.99 106.86 111.19V123.88H119.7V111.19C122.8 110.99 124.64 109.88 124.73 109.82L126.05 109L125.19 107.71C125.07 107.52 124.94 107.33 124.81 107.14H132.11V104.14L132.1 104.15ZM119.66 84.5H106.97C107.05 81.74 107.65 77.08 109.85 74.77C110.77 73.81 111.89 73.34 113.26 73.34C113.86 73.34 114.42 73.45 115.03 73.69L115.37 73.82C115.85 74.05 116.29 74.36 116.69 74.77C119.07 77.23 119.56 82.08 119.65 84.5H119.66ZM72.04 104.15V83.13H82.01C82.01 83.13 82.04 83.17 82.05 83.19C82.3 83.62 82.58 84.03 82.89 84.41C82.92 84.45 82.95 84.48 82.99 84.51C83.31 84.88 83.66 85.23 84.04 85.55C84.04 85.55 84.04 85.55 84.05 85.56V85.68C84.05 85.68 83.99 85.72 83.96 85.74C83.71 85.89 83.47 86.05 83.24 86.23C83.18 86.27 83.12 86.32 83.07 86.36C82.81 86.57 82.55 86.79 82.32 87.03C82.29 87.06 82.27 87.08 82.25 87.11C82.05 87.32 81.85 87.54 81.67 87.77C81.61 87.85 81.55 87.93 81.49 88.01C81.34 88.21 81.21 88.42 81.08 88.63C81.04 88.7 80.99 88.77 80.95 88.85C80.79 89.14 80.64 89.44 80.51 89.75C80.51 89.77 80.49 89.79 80.49 89.81C80.37 90.1 80.27 90.39 80.19 90.69C80.16 90.78 80.14 90.87 80.12 90.96C80.06 91.21 80.01 91.46 79.97 91.71C79.96 91.8 79.94 91.89 79.93 91.99C79.89 92.33 79.86 92.67 79.86 93.02V103.91C79.86 103.99 79.87 104.07 79.87 104.15H72.04ZM89.5 84.51C88.35 84.51 87.28 84.16 86.39 83.56C86.37 83.54 86.35 83.52 86.32 83.51C86.07 83.34 85.85 83.15 85.63 82.94C85.56 82.87 85.5 82.8 85.43 82.73C85.27 82.56 85.12 82.38 84.99 82.19C84.93 82.1 84.86 82.02 84.81 81.93C84.67 81.71 84.55 81.49 84.44 81.25C84.41 81.19 84.37 81.13 84.34 81.06C84.07 80.4 83.91 79.68 83.91 78.92C83.91 75.84 86.42 73.33 89.5 73.33C92.58 73.33 95.09 75.84 95.09 78.92C95.09 82 92.58 84.51 89.5 84.51ZM86.1 120.9L86.06 108.99L85.38 108.55C83.8 107.53 82.85 105.8 82.85 103.92V93.03C82.85 92.69 82.89 92.36 82.95 92.04C82.97 91.94 82.99 91.84 83.02 91.74C83.08 91.51 83.15 91.29 83.23 91.07C83.26 90.98 83.29 90.89 83.33 90.8C83.46 90.52 83.6 90.24 83.77 89.99C83.81 89.93 83.86 89.88 83.9 89.82C84.04 89.62 84.2 89.43 84.37 89.25C84.45 89.17 84.53 89.09 84.61 89.01C84.76 88.87 84.93 88.73 85.1 88.61C85.19 88.54 85.28 88.47 85.38 88.41C85.63 88.25 85.9 88.1 86.17 87.98L86.26 87.94C86.91 87.67 87.62 87.52 88.36 87.52H90.36C93.4 87.52 95.87 89.99 95.87 93.03V103.92C95.87 104.8 95.65 105.64 95.27 106.4C95.22 106.49 95.17 106.58 95.11 106.67C94.96 106.94 94.78 107.19 94.58 107.43C94.51 107.52 94.44 107.6 94.36 107.68C94.08 107.98 93.78 108.25 93.44 108.48L93.06 108.74L92.78 108.93V120.9H86.1ZM103.55 104.16H98.85C98.85 104.08 98.86 104 98.86 103.92V93.03C98.86 89.93 97.19 87.23 94.72 85.74C96.76 84.17 98.09 81.71 98.09 78.93C98.09 74.19 94.24 70.34 89.5 70.34C84.76 70.34 80.91 74.19 80.91 78.93C80.91 79.34 80.95 79.74 81.01 80.14H69.05V104.16H42.03V53.8L75.74 35.73L75.9 35.63C77.08 34.79 79.01 34.79 80.2 35.63L114.08 53.8V70.37C113.81 70.34 113.54 70.33 113.26 70.33C111.05 70.33 109.17 71.12 107.67 72.69C103.59 76.97 103.95 85.7 103.97 86.07L104.04 87.5H105.78C105.78 87.5 105.76 87.53 105.75 87.54C105.47 87.87 105.23 88.22 105 88.59C104.96 88.65 104.92 88.72 104.88 88.78C104.67 89.15 104.48 89.53 104.33 89.93C104.3 90 104.28 90.07 104.25 90.15C104.1 90.56 103.98 90.98 103.9 91.42C103.89 91.48 103.88 91.54 103.87 91.59C103.79 92.05 103.74 92.53 103.74 93.01V103.72C103.74 103.72 103.71 103.8 103.68 103.86C103.68 103.86 103.68 103.88 103.67 103.89C103.64 103.96 103.6 104.04 103.54 104.15L103.55 104.16ZM118.24 108.23L116.68 108.17V120.91H109.85V108.17L108.29 108.23C106.88 108.28 105.7 108.09 104.87 107.86C105.03 107.6 105.16 107.39 105.3 107.17L105.41 106.98C105.66 106.57 105.86 106.21 106.03 105.91C106.48 105.1 106.66 104.63 106.73 104.27C106.73 104.25 106.73 104.24 106.73 104.22C106.73 104.17 106.74 104.12 106.75 104.08C106.75 104.07 106.75 104.05 106.75 104.04C106.75 104 106.75 103.96 106.75 103.93V93.04C106.75 90 109.22 87.53 112.25 87.53H114.25C114.57 87.53 114.91 87.57 115.29 87.64H115.38C117.88 88.17 119.77 90.39 119.77 93.04V103.93C119.77 104.28 119.77 104.88 121.66 107.87C120.83 108.1 119.65 108.3 118.24 108.24V108.23Z" fill="#002341"/>
</svg>
