<svg width="156" height="156" viewBox="0 0 156 156" fill="none" xmlns="http://www.w3.org/2000/svg">
<path d="M49 70C49 68.8954 49.8954 68 51 68H66C67.1046 68 68 68.8954 68 70V82.8676C68 83.5701 67.6314 84.2212 67.029 84.5826L62.2986 87.4208C61.3194 88.0084 61.0301 89.2951 61.6635 90.2452L62.9063 92.1094C63.2772 92.6658 63.9017 93 64.5704 93H66C67.1046 93 68 93.8954 68 95V121C68 122.105 67.1046 123 66 123H51C49.8954 123 49 122.105 49 121V70Z" fill="#C2DDFF"/>
<path fill-rule="evenodd" clip-rule="evenodd" d="M51 96C51 94.8954 51.8954 94 53 94H55C56.1046 94 57 94.8954 57 96C57 97.1046 56.1046 98 55 98H53C51.8954 98 51 97.1046 51 96Z" fill="#1C3553"/>
<path fill-rule="evenodd" clip-rule="evenodd" d="M74.4597 19.3277C73.6696 18.5267 72.3746 18.5349 71.5946 19.3457L51.1619 40.5853C49.2895 42.5317 45.9999 41.2063 45.9999 38.5055V34H33.9999V56.5858C33.9999 57.3815 33.6838 58.1445 33.1212 58.7071L14.8283 77H25.9999C27.6568 77 28.9999 78.3432 28.9999 80V127H40.9999V66C40.9999 62.6863 43.6862 60 46.9999 60H69.9999C73.3136 60 75.9999 62.6863 75.9999 66V74C75.9999 75.1046 75.1045 76 73.9999 76C72.8953 76 71.9999 75.1046 71.9999 74V66C71.9999 64.8955 71.1045 64 69.9999 64H46.9999C45.8953 64 44.9999 64.8955 44.9999 66V127H71.9999V100C71.9999 98.8955 72.8953 98 73.9999 98C75.1045 98 75.9999 98.8955 75.9999 100V129C75.9999 130.105 75.1045 131 73.9999 131H21.9999C20.8953 131 19.9999 130.105 19.9999 129C19.9999 127.895 20.8953 127 21.9999 127H24.9999V81H14.8283C11.2647 81 9.48004 76.6915 11.9999 74.1716L29.9999 56.1716V33C29.9999 31.3432 31.343 30 32.9999 30H46.9999C48.6568 30 49.9999 31.3432 49.9999 33V36.0236L68.7119 16.5725C71.0519 14.1402 74.937 14.1158 77.3073 16.5186L110.924 50.5955C111.699 51.3818 111.691 52.6481 110.904 53.4238C110.118 54.1995 108.852 54.1909 108.076 53.4046L74.4597 19.3277Z" fill="#1C3553"/>
<path fill-rule="evenodd" clip-rule="evenodd" d="M126 56C122.686 56 120 58.6863 120 62C120 65.3137 122.686 68 126 68C129.314 68 132 65.3137 132 62C132 58.6863 129.314 56 126 56ZM116 62C116 56.4772 120.477 52 126 52C131.523 52 136 56.4772 136 62C136 67.5228 131.523 72 126 72C120.477 72 116 67.5228 116 62Z" fill="#1C3553"/>
<path fill-rule="evenodd" clip-rule="evenodd" d="M122 80C118.686 80 116 82.6863 116 86V135C116 136.105 116.895 137 118 137C119.105 137 120 136.105 120 135V113C120 110.791 121.791 109 124 109H128C130.209 109 132 110.791 132 113V135C132 136.105 132.895 137 134 137C135.105 137 136 136.105 136 135V111C136 109.895 136.895 109 138 109H140V86C140 82.6863 137.314 80 134 80H122ZM112 86C112 80.4772 116.477 76 122 76H134C139.523 76 144 80.4772 144 86V109C144 111.209 142.209 113 140 113V135C140 138.314 137.314 141 134 141C130.686 141 128 138.314 128 135V113H124V135C124 138.314 121.314 141 118 141C114.686 141 112 138.314 112 135V86Z" fill="#1C3553"/>
<path fill-rule="evenodd" clip-rule="evenodd" d="M94 56C90.6863 56 88 58.6863 88 62C88 65.3137 90.6863 68 94 68C97.3137 68 100 65.3137 100 62C100 58.6863 97.3137 56 94 56ZM84 62C84 56.4772 88.4772 52 94 52C99.5228 52 104 56.4772 104 62C104 67.5228 99.5228 72 94 72C88.4772 72 84 67.5228 84 62Z" fill="#1C3553"/>
<path fill-rule="evenodd" clip-rule="evenodd" d="M78.4606 78.1979C81.1046 76.7557 84.0682 76 87.0799 76H99C104.523 76 109 80.4772 109 86V135C109 138.314 106.314 141 103 141C99.6863 141 97 138.314 97 135V113H93V135C93 138.314 90.3137 141 87 141C83.6863 141 81 138.314 81 135V91.8554L73.1713 94.7022C72.6855 94.8788 72.1789 94.992 71.6641 95.0388L65.5432 95.5952C62.0295 95.9147 59 93.1481 59 89.6199V89.3383C59 86.4386 61.0737 83.9538 63.9267 83.4351L71.0081 82.1475C71.2182 82.1094 71.4207 82.0378 71.6081 81.9356L78.4606 78.1979ZM87.0799 80C84.7374 80 82.4324 80.5878 80.376 81.7095L73.5235 85.4472C72.9613 85.7538 72.3537 85.9685 71.7237 86.083L64.6422 87.3706C63.6912 87.5435 63 88.3717 63 89.3383V89.6199C63 90.7959 64.0098 91.7181 65.1811 91.6117L71.302 91.0552C71.4736 91.0396 71.6424 91.0019 71.8044 90.943L79.633 88.0962C82.2418 87.1476 85 89.0795 85 91.8554V135C85 136.105 85.8954 137 87 137C88.1046 137 89 136.105 89 135V113C89 110.791 90.7909 109 93 109H97C99.2091 109 101 110.791 101 113V135C101 136.105 101.895 137 103 137C104.105 137 105 136.105 105 135V86C105 82.6863 102.314 80 99 80H87.0799Z" fill="#1C3553"/>
</svg>
