<svg width="156" height="156" viewBox="0 0 156 156" fill="none" xmlns="http://www.w3.org/2000/svg">
<path d="M111 44.56V43.62C111 37.77 106.24 33 100.38 33H51.62C45.76 33 41 37.76 41 43.62V46.92C41 51.85 44.38 55.99 48.95 57.18V81.38C48.95 82.21 49.62 82.88 50.45 82.88C51.28 82.88 51.95 82.21 51.95 81.38V57.53H56.78V70.2C56.78 71.03 57.45 71.7 58.28 71.7C59.11 71.7 59.78 71.03 59.78 70.2V57.53H64.61V75.04C64.61 75.87 65.28 76.54 66.11 76.54C66.94 76.54 67.61 75.87 67.61 75.04V57.53H72.44V70.2C72.44 71.03 73.11 71.7 73.94 71.7C74.77 71.7 75.44 71.03 75.44 70.2V57.53H80.27V67.4C80.27 68.23 80.94 68.9 81.77 68.9C82.6 68.9 83.27 68.23 83.27 67.4V57.53H100.39C106.01 57.53 110.62 53.13 110.97 47.6C111.98 47.9 112.72 48.83 112.72 49.94V70.75C112.72 72.16 112.72 72.45 110 73.22C109.18 73.37 89.71 76.91 81.5 79.31C79.14 80 77.9 80.83 76.4 82.73C74.84 84.71 74.01 87.3 74.01 90.21V94.26H69.79V118.32C69.79 120.8 71.81 122.82 74.29 122.82H76.73C79.21 122.82 81.23 120.8 81.23 118.32V94.26H77.01V90.21C77.01 88.65 77.31 86.41 78.75 84.59C79.93 83.09 80.68 82.68 82.33 82.19C90.39 79.83 110.33 76.21 110.67 76.14C113.63 75.31 115.72 74.43 115.72 70.74V49.93C115.72 47.17 113.66 44.91 111 44.55V44.56ZM108 46.92C108 51.12 104.58 54.53 100.39 54.53H51.62C47.42 54.53 44.01 51.11 44.01 46.92V43.62C44.01 39.42 47.43 36 51.62 36H100.39C104.59 36 108 39.42 108 43.62V46.92ZM78.24 118.33C78.24 119.16 77.57 119.83 76.74 119.83H74.3C73.47 119.83 72.8 119.16 72.8 118.33V97.27H78.24V118.33Z" fill="#002341"/>
</svg>
