<svg width="156" height="156" viewBox="0 0 156 156" fill="none" xmlns="http://www.w3.org/2000/svg">
<path d="M61.76 91.83C54.76 91.83 49.97 87.2 48.6 79.45H66.45V76.25H48.23C48.2 75.7 48.18 75.14 48.18 74.56C48.18 73.85 48.2 73.16 48.25 72.49H70.67V69.29H48.68C50.21 61.65 55.23 57.09 62.52 57.09C65.73 57.09 68.91 58.54 71.25 61.06L73.6 58.88C70.66 55.71 66.62 53.89 62.52 53.89C53.44 53.89 47.11 59.78 45.43 69.29H41.3V72.49H45.06C45.02 73.17 45 73.86 45 74.56C45 75.13 45.01 75.7 45.04 76.25H41.31V79.45H45.37C46.89 89.07 52.99 95.04 61.78 95.04C66.65 95.04 70.7 93.12 74.16 89.17L71.75 87.06C68.9 90.32 65.73 91.84 61.79 91.84L61.76 91.83Z" fill="#002341"/>
<path d="M109 69.86C106.79 69.86 104.99 71.66 104.99 73.87C104.99 76.08 106.79 77.88 109 77.88C111.21 77.88 113.01 76.08 113.01 73.87C113.01 71.66 111.21 69.86 109 69.86ZM109 75.48C108.11 75.48 107.39 74.76 107.39 73.87C107.39 72.98 108.11 72.26 109 72.26C109.89 72.26 110.61 72.98 110.61 73.87C110.61 74.76 109.89 75.48 109 75.48Z" fill="#002341"/>
<path d="M136 59.79H130.54V39.46C130.54 34.8 126.75 31 122.08 31H28.46C23.8 31 20 34.8 20 39.46V108.28C20 112.94 23.8 116.74 28.46 116.74H122.09C126.75 116.74 130.55 112.94 130.55 108.28V87.95H136.01V59.8L136 59.79ZM127.34 108.27C127.34 111.17 124.98 113.52 122.09 113.52H28.46C25.56 113.52 23.21 111.16 23.21 108.27V39.46C23.21 36.56 25.57 34.21 28.46 34.21H122.09C124.99 34.21 127.34 36.57 127.34 39.46V59.8H108.88C102.01 59.8 96.42 65.39 96.42 72.26V75.49C96.42 82.36 102.01 87.95 108.88 87.95H127.34V108.28V108.27ZM132.8 84.73H108.88C103.78 84.73 99.63 80.58 99.63 75.48V72.25C99.63 67.15 103.78 63 108.88 63H132.8V84.74V84.73Z" fill="#002341"/>
</svg>
