<svg width="156" height="156" viewBox="0 0 156 156" fill="none" xmlns="http://www.w3.org/2000/svg">
<path d="M96.66 80.85C95.87 80.85 95.21 80.23 95.16 79.43C95.11 78.6 95.75 77.89 96.58 77.85C104.41 77.42 110.55 70.93 110.55 63.08C110.55 55.23 103.92 48.29 95.76 48.29C87.6 48.29 80.97 54.92 80.97 63.08C80.97 64.08 81.07 65.08 81.26 66.04C81.43 66.85 80.9 67.65 80.09 67.81C79.29 67.98 78.48 67.45 78.32 66.64C78.08 65.48 77.96 64.28 77.96 63.08C77.96 53.27 85.94 45.29 95.75 45.29C105.56 45.29 113.54 53.27 113.54 63.08C113.54 72.89 106.16 80.33 96.73 80.84C96.7 80.84 96.67 80.84 96.65 80.84L96.66 80.85Z" fill="#002341"/>
<path d="M95.76 41.05C94.93 41.05 94.26 40.38 94.26 39.55V30.5C94.26 29.67 94.93 29 95.76 29C96.59 29 97.26 29.67 97.26 30.5V39.55C97.26 40.38 96.59 41.05 95.76 41.05Z" fill="#002341"/>
<path d="M72.23 64.59H63.18C62.35 64.59 61.68 63.92 61.68 63.09C61.68 62.26 62.35 61.59 63.18 61.59H72.23C73.06 61.59 73.73 62.26 73.73 63.09C73.73 63.92 73.06 64.59 72.23 64.59Z" fill="#002341"/>
<path d="M128.34 64.59H119.29C118.46 64.59 117.79 63.92 117.79 63.09C117.79 62.26 118.46 61.59 119.29 61.59H128.34C129.17 61.59 129.84 62.26 129.84 63.09C129.84 63.92 129.17 64.59 128.34 64.59Z" fill="#002341"/>
<path d="M77.72 47.45C77.34 47.45 76.95 47.3 76.66 47.01L70.26 40.61C69.67 40.02 69.67 39.07 70.26 38.49C70.85 37.91 71.8 37.9 72.38 38.49L78.78 44.89C79.37 45.48 79.37 46.43 78.78 47.01C78.49 47.3 78.1 47.45 77.72 47.45Z" fill="#002341"/>
<path d="M113.93 47.45C113.55 47.45 113.16 47.3 112.87 47.01C112.28 46.42 112.28 45.47 112.87 44.89L119.27 38.49C119.86 37.9 120.81 37.9 121.39 38.49C121.97 39.08 121.98 40.03 121.39 40.61L114.99 47.01C114.7 47.3 114.31 47.45 113.93 47.45Z" fill="#002341"/>
<path d="M118.45 89.09C118.07 89.09 117.68 88.94 117.39 88.65L110.99 82.25C110.4 81.66 110.4 80.71 110.99 80.13C111.58 79.55 112.53 79.54 113.11 80.13L119.51 86.53C120.1 87.12 120.1 88.07 119.51 88.65C119.22 88.94 118.83 89.09 118.45 89.09Z" fill="#002341"/>
<path d="M91.23 126.13H46.88C40.47 126.13 34.9 123.65 31.2 119.14C27.76 114.94 26.3 109.44 27.3 104.42C29.17 95.09 40.26 93.51 45.41 93.29C46.17 80.09 57.19 72.79 67.45 71.58C77.2 70.43 88.94 74.49 92.37 86.03C107.78 86.34 116.25 92.95 116.25 104.72C116.25 115.07 109.67 126.13 91.22 126.13H91.23ZM70.84 74.38C69.82 74.38 68.81 74.44 67.82 74.56C58.15 75.71 48.39 82.39 48.39 94.76C48.39 95.59 47.72 96.26 46.89 96.26C43.4 96.26 31.88 96.89 30.26 105.01C29.44 109.09 30.7 113.77 33.54 117.23C36.65 121.03 41.4 123.12 46.89 123.12H91.24C111.68 123.12 113.27 109.03 113.27 104.71C113.27 91.74 101.29 89.02 91.24 89.02C90.55 89.02 89.94 88.54 89.78 87.87C87.5 78.36 79.08 74.38 70.85 74.38H70.84Z" fill="#002341"/>
</svg>
