<svg width="156" height="156" viewBox="0 0 156 156" fill="none" xmlns="http://www.w3.org/2000/svg">
<path d="M87.7298 93.2237C83.3007 69.9694 47.7031 75.2988 49.7262 99.8122C49.8232 100.987 48.9846 102.066 47.8066 102.102C40.596 102.326 30 102.069 30 112C30 123 39.0856 124 50.1275 124H86C93.3338 124 113 125 113 109C113 95.7833 99.9069 95.0438 89.7809 95.0025C88.765 94.9983 87.9199 94.2216 87.7298 93.2237Z" fill="#C2DDFF"/>
<path fill-rule="evenodd" clip-rule="evenodd" d="M98 46C89.1634 46 82 53.1634 82 62C82 63.0985 82.1104 64.1692 82.3201 65.2021C82.5398 66.2846 81.8404 67.3403 80.7579 67.56C79.6754 67.7798 78.6198 67.0804 78.4 65.9979C78.1375 64.7045 78 63.3673 78 62C78 50.9543 86.9543 42 98 42C109.046 42 118 50.9543 118 62C118 72.6735 109.64 81.3931 99.1094 81.9697C98.0064 82.0301 97.0634 81.185 97.003 80.082C96.9426 78.9791 97.7877 78.0361 98.8906 77.9757C107.312 77.5146 114 70.5376 114 62C114 53.1634 106.837 46 98 46Z" fill="#1C3553"/>
<path fill-rule="evenodd" clip-rule="evenodd" d="M98 24C99.1046 24 100 24.8954 100 26V36C100 37.1046 99.1046 38 98 38C96.8954 38 96 37.1046 96 36V26C96 24.8954 96.8954 24 98 24Z" fill="#1C3553"/>
<path fill-rule="evenodd" clip-rule="evenodd" d="M60 62C60 60.8954 60.8954 60 62 60L72 60C73.1046 60 74 60.8954 74 62C74 63.1046 73.1046 64 72 64L62 64C60.8954 64 60 63.1046 60 62Z" fill="#1C3553"/>
<path fill-rule="evenodd" clip-rule="evenodd" d="M122 62C122 60.8954 122.895 60 124 60L134 60C135.105 60 136 60.8954 136 62C136 63.1046 135.105 64 134 64L124 64C122.895 64 122 63.1046 122 62Z" fill="#1C3553"/>
<path fill-rule="evenodd" clip-rule="evenodd" d="M69.5856 34.5858C70.3666 33.8047 71.633 33.8047 72.414 34.5858L79.4851 41.6569C80.2661 42.4379 80.2661 43.7042 79.4851 44.4853C78.704 45.2663 77.4377 45.2663 76.6567 44.4853L69.5856 37.4142C68.8046 36.6332 68.8046 35.3668 69.5856 34.5858Z" fill="#1C3553"/>
<path fill-rule="evenodd" clip-rule="evenodd" d="M126.556 34.5858C125.775 33.8047 124.509 33.8047 123.728 34.5858L116.657 41.6569C115.876 42.4379 115.876 43.7042 116.657 44.4853C117.438 45.2663 118.704 45.2663 119.485 44.4853L126.556 37.4142C127.338 36.6332 127.338 35.3668 126.556 34.5858Z" fill="#1C3553"/>
<path fill-rule="evenodd" clip-rule="evenodd" d="M124.485 90.4853C123.704 91.2663 122.438 91.2663 121.657 90.4853L114.586 83.4142C113.805 82.6331 113.805 81.3668 114.586 80.5858C115.367 79.8047 116.633 79.8047 117.414 80.5858L124.485 87.6568C125.266 88.4379 125.266 89.7042 124.485 90.4853Z" fill="#1C3553"/>
<path fill-rule="evenodd" clip-rule="evenodd" d="M42.0658 95.0459C39.086 95.186 35.2633 95.6851 31.7445 97.0489C27.3777 98.7414 23.1793 101.906 22.0388 107.608C19.8954 118.325 27.832 132 44 132H93C98.1285 132 105.041 130.974 110.741 127.462C116.571 123.87 121 117.742 121 108C121 100.16 117.658 94.7601 112.307 91.4274C107.471 88.4155 101.145 87.1796 94.5306 87.0185C90.6127 74.2996 77.6391 69.4958 65.9702 71.1447C54.3187 72.7911 43.0248 80.9669 42.0658 95.0459ZM66.5298 75.1053C77.4085 73.5681 88.3796 78.3183 91.0552 89.4668C91.271 90.366 92.0752 91.0001 93 91.0001C99.8367 91 105.901 92.1496 110.193 94.8227C114.342 97.4067 117 101.506 117 108C117 116.283 113.352 121.155 108.642 124.056C103.804 127.038 97.716 128 93 128H44C30.5241 128 24.2792 116.802 25.9612 108.392C26.7334 104.531 29.5351 102.195 33.1901 100.779C36.8719 99.3516 41.1131 99.0001 44 99.0001C45.1046 99.0001 46 98.1047 46 97.0001C46 84.2773 55.7103 76.6342 66.5298 75.1053Z" fill="#1C3553"/>
</svg>
