<svg width="156" height="156" viewBox="0 0 156 156" fill="none" xmlns="http://www.w3.org/2000/svg">
<path d="M113.63 120.11L112.2 119.77C96.44 116.05 86.95 107.6 83.19 93.94L82.84 92.66L90.94 89.31C92.51 88.66 94.36 89.4 95.04 90.96L97.89 97.43C98.34 98.45 98.21 99.65 97.55 100.56L96.67 101.78C98.19 103.87 100.18 105.55 102.84 106.98L104.09 106.03C104.92 105.39 106.02 105.21 107.02 105.54L113.81 107.82C115.38 108.35 116.28 110.02 115.86 111.62L113.64 120.1L113.63 120.11ZM86.47 94.42C90.02 105.78 98.22 113.02 111.48 116.5L112.96 110.87C112.98 110.79 112.94 110.71 112.86 110.68L106.07 108.4L103.18 110.52L102.35 110.11C98.4 108.16 95.61 105.76 93.59 102.57L93.04 101.71L95.14 98.82C95.14 98.82 95.18 98.71 95.16 98.66L92.31 92.19C92.27 92.11 92.18 92.08 92.1 92.11L86.48 94.44L86.47 94.42Z" fill="#002341"/>
<path d="M106.8 97.97H100.16C99.33 97.97 98.66 97.3 98.66 96.47C98.66 95.64 99.33 94.97 100.16 94.97H106.8C107.63 94.97 108.3 95.64 108.3 96.47C108.3 97.3 107.63 97.97 106.8 97.97Z" fill="#002341"/>
<path d="M98.93 94.48C98.39 94.48 97.86 94.19 97.6 93.67C97.22 92.94 97.5 92.03 98.24 91.65L104.13 88.58C104.87 88.19 105.77 88.48 106.15 89.22C106.53 89.95 106.25 90.86 105.51 91.24L99.62 94.31C99.4 94.43 99.16 94.48 98.93 94.48Z" fill="#002341"/>
<path d="M97.39 91.01C97.14 91.01 96.88 90.95 96.64 90.81C95.92 90.4 95.68 89.48 96.09 88.76L99.41 83.01C99.82 82.29 100.74 82.04 101.46 82.46C102.18 82.87 102.42 83.79 102.01 84.51L98.69 90.26C98.41 90.74 97.91 91.01 97.39 91.01Z" fill="#002341"/>
<path d="M99.88 75.48C96.71 75.48 93.68 76.02 90.83 76.97V49.39C90.83 34.84 78.99 23 64.44 23C49.89 23 38.06 34.84 38.06 49.38V90.59C32.3 93.81 27 98.53 27 105.02H30C30 97.27 40.3 92.28 47.13 89.82C48.99 93.21 54.89 102.62 63.45 103.05C63.65 103.06 63.86 103.06 64.06 103.06C66.54 103.06 68.99 102.27 71.4 100.74C71.27 101.86 71.18 103 71.18 104.16C71.18 119.98 84.05 132.85 99.87 132.85C115.69 132.85 128.56 119.98 128.56 104.16C128.56 88.34 115.69 75.47 99.87 75.47L99.88 75.48ZM41.06 89.07V49.38C41.06 36.49 51.55 26 64.44 26C77.33 26 87.82 36.49 87.82 49.38V78.17C84 79.95 80.62 82.53 77.93 85.72C77.45 85.58 77.03 85.46 76.68 85.37V79.26C81.52 73.42 83.11 64.73 83.14 59.12C83.14 58.36 82.59 57.72 81.84 57.62C67.62 55.73 62.35 45.08 62.13 44.63C61.82 43.98 61.1 43.64 60.4 43.82C59.7 44 59.23 44.64 59.27 45.36C59.89 56.47 46.45 57.57 45.88 57.61C45.11 57.67 44.5 58.3 44.48 59.08C44.47 59.64 44.32 72.59 51.21 80.15V85.37C49.28 85.89 45.27 87.08 41.05 89.06L41.06 89.07ZM63.52 82.43C59.61 82.43 56.35 81.13 53.82 78.58C53.8 78.55 53.77 78.53 53.75 78.5C48.58 73.18 47.68 63.9 47.53 60.48C52.62 59.75 60 56.81 61.87 49.71C64.78 53.42 70.5 58.75 80.1 60.42C79.81 65.36 77.77 82.44 63.53 82.44L63.52 82.43ZM63.61 100.06C56.98 99.73 51.93 92.15 50.04 88.86C51.83 88.31 53.01 88.03 53.06 88.01V87.98C53.72 87.83 54.22 87.26 54.22 86.55V82.78C56.87 84.54 59.98 85.43 63.51 85.43C67.67 85.43 71.01 84.17 73.67 82.16V87.74L74.83 88.01C74.86 88.01 75.28 88.12 75.98 88.31C74.35 90.75 73.11 93.46 72.29 96.34C69.37 98.96 66.46 100.23 63.6 100.05L63.61 100.06ZM99.87 129.87C85.7 129.87 74.18 118.35 74.18 104.18C74.18 90.01 85.7 78.49 99.87 78.49C114.04 78.49 125.56 90.01 125.56 104.18C125.56 118.35 114.04 129.87 99.87 129.87Z" fill="#002341"/>
</svg>
