<svg width="156" height="156" viewBox="0 0 156 156" fill="none" xmlns="http://www.w3.org/2000/svg">
<path fill-rule="evenodd" clip-rule="evenodd" d="M103 68C115.15 68 125 58.1503 125 46C125 33.8497 115.15 24 103 24C90.8497 24 81 33.8497 81 46C81 58.1503 90.8497 68 103 68ZM116 57V39H90V57H116Z" fill="#C2DDFF"/>
<path fill-rule="evenodd" clip-rule="evenodd" d="M57.0007 111C58.1053 111 59.0006 111.896 59.0005 113L58.9995 122C58.9994 122.989 58.2772 123.829 57.2999 123.977C52.2746 124.741 42.2485 126.99 34.7554 134.42C33.971 135.198 32.7047 135.193 31.927 134.408C31.1492 133.624 31.1546 132.358 31.939 131.58C39.5337 124.049 49.2972 121.35 54.9997 120.307L55.0005 113C55.0006 111.895 55.8961 111 57.0007 111Z" fill="#1C3553"/>
<path fill-rule="evenodd" clip-rule="evenodd" d="M78.9995 111C77.8949 111 76.9995 111.895 76.9995 113V122C76.9995 122.989 77.7217 123.829 78.6991 123.977C83.8319 124.757 94.5352 127.021 100.834 134.308C101.556 135.144 102.819 135.235 103.655 134.513C104.491 133.791 104.583 132.528 103.86 131.692C97.2399 124.034 86.7711 121.333 80.9995 120.303V113C80.9995 111.895 80.104 111 78.9995 111Z" fill="#1C3553"/>
<path fill-rule="evenodd" clip-rule="evenodd" d="M103 20C88.6406 20 77 31.6406 77 46C77 60.3594 88.6406 72 103 72C117.359 72 129 60.3594 129 46C129 31.6406 117.359 20 103 20ZM73 46C73 29.4315 86.4315 16 103 16C119.569 16 133 29.4315 133 46C133 62.5685 119.569 76 103 76C86.4315 76 73 62.5685 73 46Z" fill="#1C3553"/>
<path fill-rule="evenodd" clip-rule="evenodd" d="M44.238 125.054C44.7603 124.081 45.9726 123.715 46.946 124.238C55.5419 128.85 61.8421 131 68.0004 131C74.1587 131 80.4589 128.85 89.0548 124.238C90.0281 123.715 91.2405 124.081 91.7627 125.054C92.285 126.028 91.9193 127.24 90.946 127.762C82.1466 132.484 75.1444 135 68.0004 135C60.8563 135 53.8542 132.484 45.0548 127.762C44.0815 127.24 43.7158 126.028 44.238 125.054Z" fill="#1C3553"/>
<path fill-rule="evenodd" clip-rule="evenodd" d="M68.9996 52.9399C69.0328 54.044 68.1647 54.9659 67.0606 54.9991L66.6196 55.0129C66.3529 55.0215 65.9965 55.0334 65.6356 55.0466C65.2731 55.0598 64.9126 55.0741 64.6354 55.0875C64.4955 55.0943 64.3867 55.1004 64.3133 55.1054L64.2832 55.1076C64.2539 55.1118 64.2244 55.1154 64.1949 55.1183C60.9151 55.44 57.5689 56.5214 53.8217 59.7455C50.0092 63.0258 45.7297 68.5703 40.7677 77.9363C29.546 99.118 29.5603 111.253 31.8821 117.897C33.044 121.221 34.8222 123.296 36.2672 124.533C36.9939 125.155 37.6413 125.568 38.0907 125.82C38.3151 125.946 38.489 126.03 38.5972 126.08C38.6512 126.105 38.6887 126.121 38.7076 126.129C38.7136 126.131 38.7177 126.133 38.7199 126.134C39.7445 126.529 40.2601 127.677 39.8717 128.706C39.4817 129.74 38.3278 130.261 37.2944 129.871L38.0005 128C37.2944 129.871 37.2924 129.87 37.2903 129.87L37.2858 129.868L37.2752 129.864L37.248 129.853C37.2273 129.845 37.2013 129.834 37.1704 129.822C37.1087 129.796 37.0272 129.761 36.9279 129.715C36.7295 129.624 36.4597 129.491 36.1355 129.31C35.4877 128.947 34.6183 128.386 33.6666 127.572C31.7547 125.936 29.5297 123.289 28.1061 119.216C25.257 111.064 25.7712 97.699 37.2331 76.0637C42.3071 66.4862 46.8656 60.4538 51.2129 56.7134C55.6026 52.9365 59.7181 51.5483 63.7417 51.1436C63.8075 51.1341 63.8535 51.13 63.8622 51.1292L63.8636 51.1291C63.9225 51.1233 63.9842 51.1186 64.0397 51.1148C64.1531 51.107 64.2931 51.0994 64.4423 51.0922C64.7434 51.0776 65.1227 51.0627 65.4896 51.0493C65.8581 51.0358 66.2207 51.0237 66.4906 51.015L66.9398 51.0009C66.9399 51.0009 66.9404 51.0009 67.0005 53L66.9398 51.0009C68.0439 50.9677 68.9664 51.8358 68.9996 52.9399ZM96.1537 80.1881C97.1544 79.7204 98.3447 80.1525 98.8124 81.1532C107.716 100.203 107.902 112.251 105.492 119.712C104.289 123.439 102.463 125.932 100.887 127.512C100.102 128.298 99.385 128.853 98.8457 129.219C98.576 129.403 98.3503 129.539 98.1824 129.635C98.1358 129.661 98.0936 129.685 98.0561 129.705C98.026 129.721 97.999 129.736 97.9751 129.748C97.9483 129.762 97.9255 129.774 97.9068 129.783L97.8821 129.795L97.8721 129.8L97.8678 129.802C97.8658 129.803 97.8638 129.804 97.0005 128L97.8638 129.804C96.8674 130.281 95.6732 129.86 95.1964 128.863C94.7223 127.872 95.1363 126.686 96.121 126.204C96.1221 126.203 96.1237 126.202 96.1257 126.201C96.1375 126.195 96.1644 126.181 96.2048 126.158C96.2856 126.112 96.4203 126.031 96.5967 125.911C96.9496 125.671 97.4676 125.275 98.0555 124.686C99.2248 123.515 100.693 121.557 101.686 118.483C103.669 112.342 103.855 101.39 95.1887 82.8468C94.721 81.8461 95.1531 80.6558 96.1537 80.1881Z" fill="#1C3553"/>
<path fill-rule="evenodd" clip-rule="evenodd" d="M73.296 69.1278C74.0759 68.8347 74.9559 69.0559 75.5046 69.6829C76.5296 70.8541 78.3697 72.4741 80.5376 73.7904C82.7327 75.1231 85.0269 76 87 76C87.8609 76 88.6251 76.5508 88.8974 77.3675L87 78C88.8974 77.3675 88.8973 77.3672 88.8974 77.3675L88.8978 77.3687L88.9001 77.3756L88.9056 77.3924L88.9249 77.4516C88.9413 77.5021 88.9646 77.5746 88.9938 77.6673C89.0521 77.8528 89.1341 78.1195 89.232 78.4538C89.4274 79.1215 89.6871 80.0629 89.9468 81.1669C90.4601 83.3484 91 86.2726 91 89C91 105.648 81.3585 118 68 118C54.6415 118 45 105.648 45 89C45 86.2726 45.5399 83.3484 46.0532 81.1669C46.3129 80.0629 46.5726 79.1215 46.768 78.4538C46.8659 78.1195 46.9479 77.8528 47.0063 77.6673C47.0354 77.5746 47.0587 77.5021 47.0751 77.4516L47.0944 77.3924L47.0999 77.3756L47.1022 77.3687C47.1023 77.3684 47.1026 77.3675 49 78L47.1026 77.3675C47.3749 76.5508 48.1391 76 49 76H71.9995V71C71.9995 70.1668 72.5161 69.4209 73.296 69.1278ZM50.4855 80C50.3258 80.5659 50.1363 81.2778 49.9468 82.083C49.4601 84.1515 49 86.7273 49 89C49 104.352 57.6639 114 68 114C78.3361 114 87 104.352 87 89C87 86.7273 86.5399 84.1515 86.0532 82.083C85.852 81.2283 85.6509 80.4786 85.4853 79.8971C82.9735 79.5634 80.5207 78.4596 78.4617 77.2095C77.5928 76.682 76.7649 76.1106 75.9995 75.5267V78C75.9995 79.1045 75.1041 80 73.9995 80H50.4855Z" fill="#1C3553"/>
<path fill-rule="evenodd" clip-rule="evenodd" d="M88.0005 41C88.0005 38.7909 89.7913 37 92.0005 37H114C116.21 37 118 38.7909 118 41V55C118 57.2091 116.21 59 114 59H92.0005C89.7913 59 88.0005 57.2091 88.0005 55V41ZM114 41H92.0005V55H114V41Z" fill="#1C3553"/>
<path fill-rule="evenodd" clip-rule="evenodd" d="M102 33C100.896 33 100 33.8954 100 35V37H96.0005V35C96.0005 31.6863 98.6868 29 102 29H104C107.314 29 110 31.6863 110 35V37H106V35C106 33.8954 105.105 33 104 33H102Z" fill="#1C3553"/>
</svg>
