<svg width="156" height="156" viewBox="0 0 156 156" fill="none" xmlns="http://www.w3.org/2000/svg">
<path d="M99.88 75.48C96.71 75.48 93.68 76.02 90.83 76.97V49.39C90.83 34.84 78.99 23 64.44 23C49.89 23 38.06 34.84 38.06 49.38V90.59C32.3 93.81 27 98.53 27 105.02H30C30 97.27 40.3 92.28 47.13 89.82C48.99 93.21 54.89 102.62 63.45 103.05C63.65 103.06 63.86 103.06 64.06 103.06C66.54 103.06 68.99 102.27 71.4 100.74C71.27 101.86 71.18 103 71.18 104.16C71.18 119.98 84.05 132.85 99.87 132.85C115.69 132.85 128.56 119.98 128.56 104.16C128.56 88.34 115.69 75.47 99.87 75.47L99.88 75.48ZM41.06 89.07V49.38C41.06 36.49 51.55 26 64.44 26C77.33 26 87.82 36.49 87.82 49.38V78.17C84 79.95 80.62 82.53 77.93 85.72C77.45 85.58 77.03 85.46 76.68 85.37V79.26C81.52 73.42 83.11 64.73 83.14 59.12C83.14 58.36 82.59 57.72 81.84 57.62C67.62 55.73 62.35 45.08 62.13 44.63C61.82 43.98 61.1 43.64 60.4 43.82C59.7 44 59.23 44.64 59.27 45.36C59.89 56.47 46.45 57.57 45.88 57.61C45.11 57.67 44.5 58.3 44.48 59.08C44.47 59.64 44.32 72.59 51.21 80.15V85.37C49.28 85.89 45.27 87.08 41.05 89.06L41.06 89.07ZM63.52 82.43C59.61 82.43 56.35 81.13 53.82 78.58C53.8 78.55 53.77 78.53 53.75 78.5C48.58 73.18 47.68 63.9 47.53 60.48C52.62 59.75 60 56.81 61.87 49.71C64.78 53.42 70.5 58.75 80.1 60.42C79.81 65.36 77.77 82.44 63.53 82.44L63.52 82.43ZM63.61 100.06C56.98 99.73 51.93 92.15 50.04 88.86C51.83 88.31 53.01 88.03 53.06 88.01V87.98C53.72 87.83 54.22 87.26 54.22 86.55V82.78C56.87 84.54 59.98 85.43 63.51 85.43C67.67 85.43 71.01 84.17 73.67 82.16V87.74L74.83 88.01C74.86 88.01 75.28 88.12 75.98 88.31C74.35 90.75 73.11 93.46 72.29 96.34C69.37 98.96 66.46 100.23 63.6 100.05L63.61 100.06ZM99.87 129.87C85.7 129.87 74.18 118.35 74.18 104.18C74.18 90.01 85.7 78.49 99.87 78.49C114.04 78.49 125.56 90.01 125.56 104.18C125.56 118.35 114.04 129.87 99.87 129.87Z" fill="#002341"/>
<path d="M101.39 117.54V107.9H98.37V117.54H83.32V93.97L97.9 86.16C99.07 85.39 100.71 85.39 101.88 86.16L116.45 93.97V117.54H101.39ZM104.39 114.54H113.44V95.77L100.22 88.67C100.06 88.56 99.7 88.56 99.53 88.67L99.37 88.77L86.31 95.77V114.54H95.36V104.9H104.39V114.54Z" fill="#002341"/>
</svg>
