<svg width="156" height="156" viewBox="0 0 156 156" fill="none" xmlns="http://www.w3.org/2000/svg">
<path d="M104.19 95.15V53.38C104.19 38.83 92.35 27 77.81 27C63.27 27 51.43 38.84 51.43 53.38V94.59C45.67 97.81 40.37 102.53 40.37 109.02H43.37C43.37 101.27 53.67 96.28 60.5 93.82C62.36 97.21 68.26 106.62 76.82 107.05C77.02 107.06 77.23 107.06 77.43 107.06C83.37 107.06 89.14 102.66 94.62 93.99C101.45 96.51 111.27 101.45 111.27 109.01H114.27C114.27 102.89 109.55 98.34 104.18 95.15H104.19ZM54.43 53.38C54.43 40.49 64.92 30 77.81 30C90.7 30 101.19 40.49 101.19 53.38V93.53C96.63 91.28 92.13 89.93 90.05 89.37V83.26C94.89 77.42 96.48 68.73 96.51 63.12C96.51 62.36 95.96 61.72 95.21 61.62C80.99 59.73 75.72 49.08 75.5 48.63C75.19 47.98 74.48 47.64 73.77 47.82C73.07 48 72.6 48.64 72.64 49.36C73.26 60.47 59.82 61.57 59.25 61.61C58.48 61.67 57.87 62.3 57.85 63.08C57.84 63.64 57.69 76.59 64.58 84.14V89.36C62.65 89.88 58.64 91.07 54.42 93.05V53.38H54.43ZM67.18 82.55C67.18 82.55 67.14 82.51 67.12 82.49C61.94 77.17 61.04 67.89 60.89 64.46C65.98 63.73 73.36 60.79 75.23 53.69C78.14 57.4 83.86 62.73 93.46 64.4C93.17 69.34 91.13 86.41 76.89 86.41C72.97 86.41 69.71 85.11 67.18 82.55ZM76.98 104.05C70.35 103.72 65.3 96.14 63.41 92.85C65.2 92.3 66.38 92.02 66.43 92V91.97C67.09 91.82 67.59 91.25 67.59 90.54V86.77C70.24 88.53 73.35 89.42 76.89 89.42C81.05 89.42 84.39 88.16 87.05 86.15V91.73L88.21 92C88.27 92.01 89.65 92.34 91.7 92.99C86.78 100.57 81.8 104.33 76.98 104.04V104.05Z" fill="#002341"/>
<path d="M32.18 115.71L28.83 108.93L25.49 115.71L18 116.8L23.42 122.08L22.14 129.53L28.83 126.01L35.53 129.53L34.25 122.08L39.67 116.8L32.18 115.71Z" fill="#002341"/>
<path d="M56.65 115.71L53.3 108.93L49.95 115.71L42.47 116.8L47.88 122.08L46.61 129.53L53.3 126.01L60 129.53L58.72 122.08L64.13 116.8L56.65 115.71Z" fill="#002341"/>
<path d="M81.12 115.71L77.77 108.93L74.42 115.71L66.93 116.8L72.35 122.08L71.07 129.53L77.76 126.01L84.46 129.53L83.18 122.08L88.6 116.8L81.11 115.71H81.12ZM80.48 124.04L77.77 122.62L75.06 124.04L75.58 121.02L73.39 118.89L76.42 118.45L77.77 115.71L79.12 118.45L82.15 118.89L79.96 121.02L80.48 124.04Z" fill="#002341"/>
<path d="M105.58 115.71L102.23 108.93L98.88 115.71L91.4 116.8L96.82 122.08L95.54 129.53L102.24 126.01L108.93 129.53L107.65 122.08L113.07 116.8L105.59 115.71H105.58ZM104.94 124.04L102.23 122.62L99.52 124.04L100.04 121.02L97.85 118.89L100.88 118.45L102.23 115.71L103.58 118.45L106.61 118.89L104.42 121.02L104.94 124.03V124.04Z" fill="#002341"/>
<path d="M137.54 116.8L130.05 115.71L126.7 108.93L123.35 115.71L115.86 116.8L121.28 122.08L120 129.53L126.69 126.01L133.39 129.53L132.11 122.08L137.53 116.8H137.54ZM129.41 124.05L126.7 122.63L123.99 124.05L124.51 121.03L122.32 118.9L125.35 118.46L126.7 115.72L128.05 118.46L131.08 118.9L128.89 121.03L129.41 124.05Z" fill="#002341"/>
</svg>
