<svg width="156" height="156" viewBox="0 0 156 156" fill="none" xmlns="http://www.w3.org/2000/svg">
<path d="M89.88 120.87C68.06 124.64 55.44 110.15 56.2 96.02C56.61 88.44 60.71 79.28 73.66 77.21C77.57 76.59 84.27 77.1 88.55 75.96C96.86 73.74 101.64 67.15 102.11 58.23C102.72 46.65 92.87 32.76 72.63 32.76M122.58 77.54C122.58 102.415 102.415 122.58 77.54 122.58C52.6651 122.58 32.5 102.415 32.5 77.54C32.5 52.6651 52.6651 32.5 77.54 32.5C102.415 32.5 122.58 52.6651 122.58 77.54ZM86.88 100.04C86.88 104.309 83.4192 107.77 79.15 107.77C74.8808 107.77 71.42 104.309 71.42 100.04C71.42 95.7708 74.8808 92.31 79.15 92.31C83.4192 92.31 86.88 95.7708 86.88 100.04ZM86.88 56.1C86.88 60.3692 83.4192 63.83 79.15 63.83C74.8808 63.83 71.42 60.3692 71.42 56.1C71.42 51.8308 74.8808 48.37 79.15 48.37C83.4192 48.37 86.88 51.8308 86.88 56.1Z" stroke="#002341" stroke-width="3" stroke-miterlimit="10"/>
</svg>
