<svg width="24" height="24" viewBox="0 0 24 24" fill="none" xmlns="http://www.w3.org/2000/svg">
<path fill-rule="evenodd" clip-rule="evenodd" d="M19.22 7.38997V7.41997C19.23 7.44997 19.24 7.49997 19.24 7.49997V21.79C19.24 22.07 19.02 22.29 18.74 22.29H4.5C4.22 22.29 4 22.07 4 21.79V2.49997C4 2.21997 4.22 1.99997 4.5 2.00997H13.73C13.74 2.00997 13.75 2.01247 13.76 2.01497C13.77 2.01747 13.78 2.01997 13.79 2.01997C13.81 2.02997 13.83 2.02997 13.85 2.02997C13.94 2.04997 14.02 2.08997 14.08 2.14997L19.08 7.13997C19.15 7.20997 19.2 7.28997 19.22 7.38997ZM17.53 7.01997L14.22 3.70997L14.21 7.01997H17.53ZM5 2.99997V21.29H18.24V8.00997L13.71 8.02997C13.58 8.02997 13.46 7.97997 13.36 7.87997C13.26 7.77997 13.21 7.64997 13.21 7.51997L13.23 2.99997H5ZM12.1198 14.52H14.9198C15.1998 14.52 15.4198 14.74 15.4198 15.02C15.4198 15.3 15.1998 15.52 14.9198 15.52H12.1198V18.32C12.1198 18.6 11.8998 18.82 11.6198 18.82C11.3398 18.82 11.1198 18.6 11.1198 18.32V15.52H8.31982C8.03982 15.52 7.81982 15.3 7.81982 15.02C7.81982 14.74 8.03982 14.52 8.31982 14.52H11.1198V11.72C11.1198 11.44 11.3398 11.22 11.6198 11.22C11.8998 11.22 12.1198 11.44 12.1198 11.72V14.52Z" fill="#002341"/>
</svg>
