<svg width="24" height="24" viewBox="0 0 24 24" fill="none" xmlns="http://www.w3.org/2000/svg">
<path fill-rule="evenodd" clip-rule="evenodd" d="M2 21.2725H13.0959V20.1309H3.14155V7.79076L11.5776 3.27021C11.8059 3.09898 12.2055 3.11039 12.4909 3.30446L20.8584 7.79076V13.7382H22V7.10583L13.0845 2.33414C12.468 1.90035 11.532 1.88893 10.9726 2.29989L2 7.10583V21.2725ZM18.7695 17.2538H21.0754C21.3951 17.2538 21.6462 17.5049 21.6462 17.8246C21.6462 18.1442 21.3951 18.3954 21.0754 18.3954H18.7695V20.7013C18.7695 21.0209 18.5184 21.2721 18.1987 21.2721C17.8791 21.2721 17.628 21.0209 17.628 20.7013V18.3954H15.322C15.0024 18.3954 14.7512 18.1442 14.7512 17.8246C14.7512 17.5049 15.0024 17.2538 15.322 17.2538H17.628V14.9479C17.628 14.6282 17.8791 14.3771 18.1987 14.3771C18.5184 14.3771 18.7695 14.6282 18.7695 14.9479V17.2538Z" fill="#002341"/>
</svg>
