<svg width="24" height="24" viewBox="0 0 24 24" fill="none" xmlns="http://www.w3.org/2000/svg">
<path fill-rule="evenodd" clip-rule="evenodd" d="M4.8 8.4L10.8 3.9C11.1462 3.64036 11.5673 3.5 12 3.5C12.4327 3.5 12.8538 3.64036 13.2 3.9L19.2 8.4C19.4484 8.58629 19.65 8.82786 19.7889 9.10557C19.9277 9.38328 20 9.68951 20 10V13C20 13.5523 19.5523 14 19 14C18.4477 14 18 13.5523 18 13V10L12 5.5L6 10V19H12C12.2652 19 12.5196 19.1054 12.7071 19.2929C12.8946 19.4804 13 20 13 20C13 20 12.8946 20.5196 12.7071 20.7071C12.5196 20.8946 12.2652 21 12 21H6C5.46957 21 4.96086 20.7893 4.58579 20.4142C4.21071 20.0391 4 19.5304 4 19V10C4 9.68951 4.07229 9.38328 4.21115 9.10557C4.35 8.82786 4.55161 8.58629 4.8 8.4Z" fill="#1C3553"/>
<path d="M16 19H18V17C18 16.7348 18.1054 16.4804 18.2929 16.2929C18.4804 16.1054 18.7348 16 19 16C19.2652 16 19.5196 16.1054 19.7071 16.2929C19.8946 16.4804 20 16.7348 20 17V19H22C22.2652 19 22.5196 19.1054 22.7071 19.2929C22.8946 19.4804 23 19.7348 23 20C23 20.2652 22.8946 20.5196 22.7071 20.7071C22.5196 20.8946 22.2652 21 22 21H20V23C20 23.2652 19.8946 23.5196 19.7071 23.7071C19.5196 23.8946 19.2652 24 19 24C18.7348 24 18.4804 23.8946 18.2929 23.7071C18.1054 23.5196 18 23.2652 18 23V21H16C15.7348 21 15.4804 20.8946 15.2929 20.7071C15.1054 20.5196 15 20.2652 15 20C15 19.7348 15.1054 19.4804 15.2929 19.2929C15.4804 19.1054 15.7348 19 16 19Z" fill="#1C3553"/>
</svg>
