<svg width="24" height="24" viewBox="0 0 24 24" fill="none" xmlns="http://www.w3.org/2000/svg">
<path fill-rule="evenodd" clip-rule="evenodd" d="M3.8 6.9L9.8 2.4C10.1462 2.14036 10.5673 2 11 2C11.4327 2 11.8538 2.14036 12.2 2.4L18.2 6.9C18.4484 7.08629 18.65 7.32786 18.7889 7.60557C18.9277 7.88328 19 8.18951 19 8.5V11.5C19 12.0523 18.5523 12.5 18 12.5C17.4477 12.5 17 12.0523 17 11.5V8.5L11 4L5 8.5V17.5H11C11.2652 17.5 11.5196 17.6054 11.7071 17.7929C11.8946 17.9804 12 18.5 12 18.5C12 18.5 11.8946 19.0196 11.7071 19.2071C11.5196 19.3946 11.2652 19.5 11 19.5H5C4.46957 19.5 3.96086 19.2893 3.58579 18.9142C3.21071 18.5391 3 18.0304 3 17.5V8.5C3 8.18951 3.07229 7.88328 3.21115 7.60557C3.35 7.32786 3.55161 7.08629 3.8 6.9Z" fill="#1C3553"/>
<path d="M15 17.5H17V15.5C17 15.2348 17.1054 14.9804 17.2929 14.7929C17.4804 14.6054 17.7348 14.5 18 14.5C18.2652 14.5 18.5196 14.6054 18.7071 14.7929C18.8946 14.9804 19 15.2348 19 15.5V17.5H21C21.2652 17.5 21.5196 17.6054 21.7071 17.7929C21.8946 17.9804 22 18.2348 22 18.5C22 18.7652 21.8946 19.0196 21.7071 19.2071C21.5196 19.3946 21.2652 19.5 21 19.5H19V21.5C19 21.7652 18.8946 22.0196 18.7071 22.2071C18.5196 22.3946 18.2652 22.5 18 22.5C17.7348 22.5 17.4804 22.3946 17.2929 22.2071C17.1054 22.0196 17 21.7652 17 21.5V19.5H15C14.7348 19.5 14.4804 19.3946 14.2929 19.2071C14.1054 19.0196 14 18.7652 14 18.5C14 18.2348 14.1054 17.9804 14.2929 17.7929C14.4804 17.6054 14.7348 17.5 15 17.5Z" fill="#1C3553"/>
</svg>
