<svg width="24" height="24" viewBox="0 0 24 24" fill="none" xmlns="http://www.w3.org/2000/svg">
<rect x="4" y="19" width="14" height="2" rx="1" fill="#1C3553"/>
<rect x="17.6665" y="11.5555" width="3.33333" height="1.7" rx="0.85" fill="#1C3553"/>
<rect x="1" y="11.5555" width="3.33333" height="1.7" rx="0.85" fill="#1C3553"/>
<rect x="2.6582" y="4.88892" width="3.33333" height="1.7" rx="0.85" transform="rotate(29.5013 2.6582 4.88892)" fill="#1C3553"/>
<rect x="19.8853" y="5.77563" width="3.33333" height="1.7" rx="0.85" transform="rotate(142.949 19.8853 5.77563)" fill="#1C3553"/>
<rect x="11.5557" y="1" width="3.33333" height="1.7" rx="0.85" transform="rotate(90 11.5557 1)" fill="#1C3553"/>
<path d="M6 11C6 8.23858 8.23858 6 11 6C13.7614 6 16 8.23858 16 11V16.6667C16 17.219 15.5523 17.6667 15 17.6667H7C6.44772 17.6667 6 17.219 6 16.6667V11Z" fill="#1C3553"/>
</svg>
