<svg width="24" height="24" viewBox="0 0 24 24" fill="none" xmlns="http://www.w3.org/2000/svg">
<path d="M17.14 19.39H6.85V12.83C6.85 9.99 9.16 7.69 11.99 7.69C14.82 7.69 17.13 10 17.13 12.83V19.39H17.14ZM7.85 18.39H16.14V12.83C16.14 10.54 14.28 8.69 12 8.69C9.72 8.69 7.86 10.55 7.86 12.83V18.39H7.85Z" fill="#002341"/>
<path d="M5.39 14.69H2.5C2.22 14.69 2 14.47 2 14.19C2 13.91 2.22 13.69 2.5 13.69H5.39C5.67 13.69 5.89 13.91 5.89 14.19C5.89 14.47 5.67 14.69 5.39 14.69Z" fill="#002341"/>
<path d="M6.41 9.76C6.28 9.76 6.15 9.71 6.06 9.61L4.02 7.57C3.82 7.37 3.82 7.06 4.02 6.86C4.22 6.66 4.53 6.66 4.73 6.86L6.77 8.9C6.97 9.1 6.97 9.41 6.77 9.61C6.67 9.71 6.54 9.76 6.42 9.76H6.41Z" fill="#002341"/>
<path d="M21.49 14.69H18.6C18.32 14.69 18.1 14.47 18.1 14.19C18.1 13.91 18.32 13.69 18.6 13.69H21.49C21.77 13.69 21.99 13.91 21.99 14.19C21.99 14.47 21.77 14.69 21.49 14.69Z" fill="#002341"/>
<path d="M17.58 9.76C17.45 9.76 17.32 9.71 17.23 9.61C17.03 9.41 17.03 9.1 17.23 8.9L19.27 6.86C19.47 6.66 19.78 6.66 19.98 6.86C20.18 7.06 20.18 7.37 19.98 7.57L17.94 9.61C17.84 9.71 17.71 9.76 17.59 9.76H17.58Z" fill="#002341"/>
<path d="M11.89 6.89C11.61 6.89 11.39 6.67 11.39 6.39V3.5C11.39 3.22 11.61 3 11.89 3C12.17 3 12.39 3.22 12.39 3.5V6.39C12.39 6.67 12.17 6.89 11.89 6.89Z" fill="#002341"/>
<path d="M18.18 21.55H5.81C5.53 21.55 5.31 21.33 5.31 21.05C5.31 20.77 5.53 20.55 5.81 20.55H18.18C18.46 20.55 18.68 20.77 18.68 21.05C18.68 21.33 18.46 21.55 18.18 21.55Z" fill="#002341"/>
</svg>
