<svg width="24" height="24" viewBox="0 0 24 24" fill="none" xmlns="http://www.w3.org/2000/svg">
<g clip-path="url(#clip0_6776_34655)">
<path d="M18.793 17.4139C16.9774 17.4139 15.3183 16.4957 14.3687 14.9409L15.2557 14.3878C16.0174 15.6296 17.3426 16.36 18.793 16.36C21.0887 16.36 22.9565 14.4922 22.9565 12.1965C22.9565 9.90087 21.0887 8.03304 18.793 8.03304C17.7913 8.03304 16.2261 8.44 15.1304 9.6087L9.88174 15.233C8.30609 16.7461 6.87652 17.4139 5.20696 17.4139C2.33739 17.4139 0 15.0765 0 12.207C0 9.33739 2.33739 7 5.20696 7C6.41739 7 7.58609 7.41739 8.51478 8.18957L7.84696 8.99304C7.10609 8.37739 6.16696 8.04348 5.19652 8.04348C2.90087 8.04348 1.03304 9.9113 1.03304 12.207C1.03304 14.5026 2.90087 16.3704 5.19652 16.3704C6.59478 16.3704 7.77391 15.807 9.13043 14.5026L14.3791 8.89913C15.7043 7.50087 17.5304 7 18.8035 7C21.673 7 24.0104 9.33739 24.0104 12.207C24.0104 15.0765 21.673 17.4139 18.8035 17.4139H18.793Z" fill="#002341"/>
</g>
<defs>
<clipPath id="clip0_6776_34655">
<rect width="24" height="24" fill="white"/>
</clipPath>
</defs>
</svg>
