<svg width="24" height="24" viewBox="0 0 24 24" fill="none" xmlns="http://www.w3.org/2000/svg">
<path fill-rule="evenodd" clip-rule="evenodd" d="M19.0392 21.2286H19.05L19.0392 21.2393V21.2286ZM19.0392 21.2286V5.40215L16.9829 2.45218C16.7891 2.17226 16.4661 2 16.1216 2H7.91766C7.57314 2 7.25015 2.17226 7.05636 2.45218L5 5.40215V21.2286H11.266V16.556H12.784V21.2286H19.0392ZM17.9734 20.152H13.8607V15.4902H10.1893V20.1627H6.07663V5.7359L7.91766 3.06586H16.1108L17.9734 5.7359V20.152ZM16.6494 8.45982H14.6576V5.95127H16.6494V8.45982ZM15.0882 8.02917H16.2079V6.38192H15.0882V8.02917ZM14.6576 13.1323H16.6494V10.6238H14.6576V13.1323ZM7.39035 18.1064H9.38211V15.5978H7.39035V18.1064ZM14.6576 18.1064H16.6494V15.5978H14.6576V18.1064ZM16.2079 17.6757H15.0882V16.0285H16.2079V17.6757ZM13.021 13.1323H11.0292V10.6238H13.021V13.1323ZM7.39035 13.1323H9.38211V10.6238H7.39035V13.1323ZM8.94069 12.7017H7.821V11.0545H8.94069V12.7017ZM11.0292 8.45982H13.021V5.95127H11.0292V8.45982ZM9.38211 8.45982H7.39035V5.95127H9.38211V8.45982ZM7.821 8.02917H8.94069V6.38192H7.821V8.02917Z" fill="#002341"/>
</svg>
