<svg width="24" height="24" viewBox="0 0 24 24" fill="none" xmlns="http://www.w3.org/2000/svg">
<path d="M19.5098 12.01L12.6798 5.15C12.5898 5.06 12.4598 5 12.3298 5C12.1998 5 12.0698 5.06 11.9798 5.15L5.14982 12C4.95982 12.2 4.95982 12.51 5.14982 12.71C5.34982 12.9 5.65982 12.9 5.85982 12.71L11.8198 6.71V19.37C11.8198 19.65 12.0498 19.87 12.3198 19.87C12.5898 19.87 12.8198 19.65 12.8198 19.37V6.71L18.7898 12.71C18.8898 12.81 19.0198 12.86 19.1398 12.86C19.2598 12.86 19.3898 12.81 19.4898 12.71C19.6898 12.52 19.6898 12.2 19.4898 12L19.5098 12.01Z" fill="#002341"/>
</svg>
