<svg width="24" height="24" viewBox="0 0 24 24" fill="none" xmlns="http://www.w3.org/2000/svg">
<path d="M19.83 12.5199C19.86 12.4599 19.87 12.3899 19.87 12.3299C19.87 12.2699 19.86 12.1999 19.83 12.1399C19.8 12.0799 19.77 12.0199 19.72 11.9799L12.87 5.14995C12.67 4.95995 12.36 4.95995 12.16 5.14995C11.97 5.34995 11.97 5.65995 12.16 5.85995L18.16 11.8299H5.5C5.22 11.8299 5 12.0599 5 12.3299C5 12.5999 5.22 12.8299 5.5 12.8299H18.16L12.16 18.7999C11.96 18.9899 11.96 19.3099 12.16 19.5099C12.26 19.6099 12.39 19.6599 12.51 19.6599C12.63 19.6599 12.76 19.6099 12.86 19.5099L19.72 12.6799C19.77 12.6299 19.8 12.5799 19.83 12.5199Z" fill="#002341"/>
</svg>
