<svg width="24" height="24" viewBox="0 0 24 24" fill="none" xmlns="http://www.w3.org/2000/svg">
<path d="M19.37 11.83H6.71L12.71 5.84999C12.91 5.65999 12.91 5.33999 12.71 5.13999C12.51 4.93999 12.2 4.93999 12 5.13999L5.15 11.97C5.15 11.97 5.07 12.07 5.04 12.13C5.01 12.19 5 12.26 5 12.32C5 12.38 5.01 12.45 5.04 12.51C5.07 12.57 5.1 12.62 5.15 12.67L12.01 19.5C12.11 19.6 12.23 19.65 12.36 19.65C12.49 19.65 12.62 19.6 12.71 19.5C12.9 19.3 12.9 18.99 12.71 18.79L6.71 12.82H19.37C19.65 12.82 19.87 12.6 19.87 12.32C19.87 12.04 19.65 11.82 19.37 11.82V11.83Z" fill="#002341"/>
</svg>
