<svg width="24" height="24" viewBox="0 0 24 24" fill="none" xmlns="http://www.w3.org/2000/svg">
<path d="M19.5002 12.15C19.3002 11.96 18.9902 11.96 18.7902 12.15L12.8202 18.15V5.5C12.8202 5.22 12.6002 5 12.3202 5C12.0402 5 11.8202 5.22 11.8202 5.5V18.16L5.85023 12.16C5.65023 11.96 5.34023 11.96 5.14023 12.16C4.94023 12.35 4.94023 12.67 5.14023 12.87L11.9602 19.73C12.0102 19.78 12.0602 19.81 12.1202 19.84C12.1802 19.87 12.2502 19.88 12.3102 19.88C12.3702 19.88 12.4402 19.87 12.5002 19.84C12.5602 19.81 12.6202 19.78 12.6602 19.73L19.4902 12.87C19.6802 12.67 19.6802 12.36 19.4902 12.16L19.5002 12.15Z" fill="#002341"/>
</svg>
