<svg width="24" height="24" viewBox="0 0 24 24" fill="none" xmlns="http://www.w3.org/2000/svg">
<path fill-rule="evenodd" clip-rule="evenodd" d="M14.8582 4.46916H20.4813C20.7718 4.46916 21 4.69741 21 4.9879V21.1412C21 21.4317 20.7718 21.6599 20.4813 21.6599H3.51873C3.22824 21.6599 3 21.4317 3 21.1412V4.9879C3 4.69741 3.22824 4.46916 3.51873 4.46916H9.04841C9.27666 3.06859 10.4905 2 11.9533 2C13.4161 2 14.63 3.06859 14.8582 4.46916ZM13.8 4.46916C13.5821 3.64957 12.8455 3.03746 11.9533 3.03746C11.0611 3.03746 10.3245 3.64957 10.1066 4.46916H13.8ZM4.03746 20.6225H19.9625V5.50663H4.03746V20.6225ZM6.29946 8.34932H17.6078V9.38678H6.29946V8.34932ZM6.29946 12.551H17.6078V13.5885H6.29946V12.551ZM12.1611 16.7423H6.29946V17.7798H12.1611V16.7423Z" fill="#002341"/>
</svg>
