<svg width="24" height="24" viewBox="0 0 24 24" fill="none" xmlns="http://www.w3.org/2000/svg">
<path d="M7.14258 4C7.14258 2.89543 8.03801 2 9.14258 2H14.7854C15.89 2 16.7854 2.89543 16.7854 4V12.2857H7.14258V4Z" fill="#1C3553"/>
<rect x="2" y="13.9286" width="19.2857" height="1.28571" rx="0.642857" fill="#1C3553"/>
<rect x="2" y="19.7142" width="19.2857" height="1.28571" rx="0.642857" fill="#1C3553"/>
<rect x="4.57129" y="13.9286" width="6.42857" height="1.92857" rx="0.964286" transform="rotate(90 4.57129 13.9286)" fill="#1C3553"/>
<rect x="7.78564" y="13.9286" width="6.42857" height="1.92857" rx="0.964286" transform="rotate(90 7.78564 13.9286)" fill="#1C3553"/>
<rect x="11" y="13.9286" width="6.42857" height="1.92857" rx="0.964286" transform="rotate(90 11 13.9286)" fill="#1C3553"/>
<rect x="14.2144" y="13.9286" width="6.42857" height="1.92857" rx="0.964286" transform="rotate(90 14.2144 13.9286)" fill="#1C3553"/>
<rect x="17.4287" y="13.9286" width="6.42857" height="1.92857" rx="0.964286" transform="rotate(90 17.4287 13.9286)" fill="#1C3553"/>
<rect x="20.6426" y="13.9286" width="6.42857" height="1.92857" rx="0.964286" transform="rotate(90 20.6426 13.9286)" fill="#1C3553"/>
</svg>
