<svg width="24" height="24" viewBox="0 0 24 24" fill="none" xmlns="http://www.w3.org/2000/svg">
<path d="M21.17 12.42H13.75V4H5.4V12.42H2.5C2.22 12.42 2 12.64 2 12.92C2 13.2 2.22 13.42 2.5 13.42H3.71V15.46C3.4 15.64 3.18 15.96 3.18 16.34C3.18 16.72 3.4 17.04 3.71 17.22V19.76C3.71 20.04 3.93 20.26 4.21 20.26H19.46C19.74 20.26 19.96 20.04 19.96 19.76V17.22C20.27 17.04 20.49 16.72 20.49 16.34C20.49 15.96 20.27 15.64 19.96 15.46V13.42H21.17C21.45 13.42 21.67 13.2 21.67 12.92C21.67 12.64 21.45 12.42 21.17 12.42ZM15.91 15.46C15.6 15.64 15.38 15.96 15.38 16.34C15.38 16.72 15.6 17.04 15.91 17.22V19.26H13.86V17.22C14.17 17.04 14.39 16.72 14.39 16.34C14.39 15.96 14.17 15.64 13.86 15.46V13.42H15.91V15.46ZM7.76 17.21C8.07 17.03 8.29 16.71 8.29 16.33C8.29 15.95 8.07 15.63 7.76 15.45V13.41H9.81V15.45C9.5 15.63 9.28 15.95 9.28 16.33C9.28 16.71 9.5 17.03 9.81 17.21V19.25H7.76V17.21ZM10.81 17.21C11.12 17.03 11.34 16.71 11.34 16.33C11.34 15.95 11.12 15.63 10.81 15.45V13.41H12.86V15.45C12.55 15.63 12.33 15.95 12.33 16.33C12.33 16.71 12.55 17.03 12.86 17.21V19.25H10.81V17.21ZM12.76 12.41H10.08V9.2H10.9C11.18 9.2 11.4 8.98 11.4 8.7C11.4 8.42 11.18 8.2 10.9 8.2H10.08V5H12.76V12.42V12.41ZM6.4 5H9.08V12.42H6.4V5ZM5.4 13.42H6.77V15.46C6.46 15.64 6.24 15.96 6.24 16.34C6.24 16.72 6.46 17.04 6.77 17.22V19.26H4.72V17.22C5.03 17.04 5.25 16.72 5.25 16.34C5.25 15.96 5.03 15.64 4.72 15.46V13.42H5.41H5.4ZM18.97 15.46C18.66 15.64 18.44 15.96 18.44 16.34C18.44 16.72 18.66 17.04 18.97 17.22V19.26H16.92V17.22C17.23 17.04 17.45 16.72 17.45 16.34C17.45 15.96 17.23 15.64 16.92 15.46V13.42H18.97V15.46Z" fill="#002341"/>
</svg>
