<svg width="24" height="24" viewBox="0 0 24 24" fill="none" xmlns="http://www.w3.org/2000/svg">
<path d="M7 3C7 2.44772 7.44772 2 8 2H15.6429C16.1951 2 16.6429 2.44772 16.6429 3V12.2857H7V3Z" fill="#1C3553"/>
<rect x="2" y="13.9286" width="19.2857" height="1.28571" rx="0.642857" fill="#1C3553"/>
<rect x="2" y="19.7142" width="19.2857" height="1.28571" rx="0.642857" fill="#1C3553"/>
<rect x="4.5" y="13.9286" width="6.42857" height="1.5" rx="0.75" transform="rotate(90 4.5 13.9286)" fill="#1C3553"/>
<rect x="7.71436" y="13.9286" width="6.42857" height="1.5" rx="0.75" transform="rotate(90 7.71436 13.9286)" fill="#1C3553"/>
<rect x="10.9287" y="13.9286" width="6.42857" height="1.5" rx="0.75" transform="rotate(90 10.9287 13.9286)" fill="#1C3553"/>
<rect x="14.1431" y="13.9286" width="6.42857" height="1.5" rx="0.75" transform="rotate(90 14.1431 13.9286)" fill="#1C3553"/>
<rect x="17.3574" y="13.9286" width="6.42857" height="1.5" rx="0.75" transform="rotate(90 17.3574 13.9286)" fill="#1C3553"/>
<rect x="20.5713" y="13.9286" width="6.42857" height="1.5" rx="0.75" transform="rotate(90 20.5713 13.9286)" fill="#1C3553"/>
</svg>
