<svg width="24" height="24" viewBox="0 0 24 24" fill="none" xmlns="http://www.w3.org/2000/svg">
<path d="M7.27 17H10.84V11.68H7.27V17ZM8.27 12.68H9.84V16H8.27V12.68Z" fill="#002341"/>
<path d="M20.29 19.42V9.97H13.49V4H3.98V19.42H2V20.42H22.56V19.42H20.29ZM4.98 5H12.49V10.97H19.29V19.41H4.98V5Z" fill="#002341"/>
<path d="M11.85 17.65H6.2V18.65H11.85V17.65Z" fill="#002341"/>
<path d="M9.01 10.19C9.48 10.19 9.88 10 10.21 9.62L9.76 9.23C9.26 9.8 8.47 9.66 8.16 9.07H9.42V8.47H8C8 8.4 7.99 8.32 7.99 8.24V8.22H9.79V7.62H8.08C8.24 7.15 8.59 6.88 9.08 6.88C9.32 6.88 9.55 6.99 9.72 7.17L10.16 6.76C9.87 6.45 9.48 6.27 9.08 6.27C8.26 6.27 7.66 6.79 7.46 7.61H7.23V8.21H7.39V8.23C7.39 8.31 7.39 8.38 7.39 8.46H7.22V9.06H7.51C7.74 9.75 8.29 10.18 9.01 10.18V10.19Z" fill="#002341"/>
</svg>
