<svg width="24" height="24" viewBox="0 0 24 24" fill="none" xmlns="http://www.w3.org/2000/svg">
<path d="M2 4C2 3.44772 2.44772 3 3 3H21C21.5523 3 22 3.44772 22 4V5C22 5.55228 21.5523 6 21 6H3C2.44772 6 2 5.55228 2 5V4Z" fill="#1C3553"/>
<path fill-rule="evenodd" clip-rule="evenodd" d="M22 7H2V17.5508C2 18.6554 2.89543 19.5508 4 19.5508H20C21.1046 19.5508 22 18.6554 22 17.5508V7ZM16.4211 8.78906H15.4211V9.78906V12.2754H11.4211H10.4211V13.2754V15.7617H6.92108H5.92108V16.7617V19.5508H7.92108V17.7617H11.4211H12.4211V16.7617V14.2754H16.4211H17.4211V13.2754V10.7891H21.9605V8.78906H16.4211Z" fill="#1C3553"/>
</svg>
