<svg width="24" height="24" viewBox="0 0 24 24" fill="none" xmlns="http://www.w3.org/2000/svg">
<path d="M18.83 6.5H14.95V9.88H11.57V13.26H8.19V16.64H5.31C5.03 16.64 4.81 16.86 4.81 17.14C4.81 17.42 5.03 17.64 5.31 17.64H9.19V14.26H12.57V10.88H15.95V7.5H18.83C19.11 7.5 19.33 7.28 19.33 7C19.33 6.72 19.11 6.5 18.83 6.5Z" fill="#002341"/>
<path d="M20.02 2H4.12C2.95 2 2 2.95 2 4.12V20.02C2 21.19 2.95 22.14 4.12 22.14H20.02C21.19 22.14 22.14 21.19 22.14 20.02V4.12C22.14 2.95 21.19 2 20.02 2ZM21.14 20.02C21.14 20.64 20.64 21.14 20.02 21.14H4.12C3.5 21.14 3 20.64 3 20.02V4.12C3 3.5 3.5 3 4.12 3H20.02C20.64 3 21.14 3.5 21.14 4.12V20.02Z" fill="#002341"/>
</svg>
