<svg width="24" height="24" viewBox="0 0 24 24" fill="none" xmlns="http://www.w3.org/2000/svg">
<path d="M20 18.7121L19.9794 18.1774C19.9486 17.4679 19.4756 16.8201 18.9614 16.1311C18.4884 15.4936 18.0051 14.8355 18.0051 14.2494V13.6838C18.036 12.09 18.0874 9.12856 17.018 7.24682C16.144 5.7044 14.7866 5.108 14.1388 4.90234C13.964 4.09 13.3882 2.98975 12.0308 2.98975C10.6735 2.98975 10.0668 4.09 9.87147 4.89206C9.22365 5.09772 7.85604 5.68383 6.98201 7.23653C5.9126 9.12856 5.96401 12.09 5.99486 13.6838V14.2494C5.99486 14.8355 5.51157 15.4936 5.03856 16.1311C4.52442 16.8201 4.05141 17.4679 4.02057 18.1774L4 18.7121H9.08997C9.10026 18.7944 9.13111 18.8664 9.18252 18.9383C9.23393 19 10.3856 20.4807 12 20.4807C13.6144 20.4807 14.8586 19.0206 14.91 18.9589C14.9717 18.8869 15.0026 18.8047 15.0129 18.7121H20ZM5.86118 16.7481C6.40617 16.018 7.02314 15.1851 7.02314 14.2597V13.6838C6.99229 12.1928 6.95116 9.4062 7.87661 7.76095C8.78149 6.14656 10.3445 5.84836 10.4062 5.83807L10.7866 5.7661L10.8278 5.38563C10.838 5.25196 11.0026 4.03859 12.0308 4.03859C13.0591 4.03859 13.1517 5.23139 13.162 5.36507L13.1928 5.7661L13.5835 5.83807C13.6452 5.84836 15.2082 6.15684 16.1234 7.77124C17.0488 9.41648 17.0077 12.1928 16.9769 13.6941V14.27C16.9769 15.1954 17.5835 16.0283 18.1285 16.7584C18.365 17.0771 18.6015 17.3959 18.7661 17.6941H5.22365C5.37789 17.3959 5.62468 17.0771 5.86118 16.7584V16.7481ZM12 19.4525C11.3419 19.4525 10.7558 19.0412 10.3959 18.7121H13.6761C13.2751 19.0412 12.6581 19.4525 12 19.4525Z" fill="#002341"/>
</svg>
