<svg width="24" height="24" viewBox="0 0 24 24" fill="none" xmlns="http://www.w3.org/2000/svg">
<path d="M19.56 18.28L19.54 17.76C19.52 17.07 19.05 16.44 18.55 15.77C18.09 15.15 17.62 14.51 17.62 13.94V13.39C17.65 11.84 17.7 8.95999 16.66 7.12999C15.81 5.62999 14.49 5.04999 13.86 4.84999C13.69 4.05999 13.13 2.98999 11.81 2.98999C10.49 2.98999 9.9 4.05999 9.71 4.83999C9.08 5.03999 7.75 5.60999 6.9 7.11999C5.86 8.95999 5.91 11.84 5.94 13.39V13.94C5.94 14.51 5.47 15.15 5.01 15.77C4.51 16.44 4.05 17.07 4.02 17.76L4 18.28H8.95C8.96 18.36 8.99 18.43 9.04 18.5C9.09 18.56 10.21 20 11.77 20C13.33 20 14.55 18.58 14.6 18.52C14.66 18.45 14.69 18.37 14.7 18.28H19.56ZM5.81 16.37C6.34 15.66 6.94 14.85 6.94 13.95V13.39C6.91 11.94 6.87 9.22999 7.77 7.62999C8.65 6.05999 10.17 5.76999 10.23 5.75999L10.6 5.68999L10.64 5.31999C10.65 5.18999 10.81 4.00999 11.81 4.00999C12.81 4.00999 12.9 5.16999 12.91 5.29999L12.94 5.68999L13.32 5.75999C13.38 5.76999 14.9 6.06999 15.79 7.63999C16.69 9.23999 16.65 11.94 16.62 13.4V13.96C16.62 14.86 17.21 15.67 17.74 16.38C17.97 16.69 18.2 17 18.36 17.29H5.19C5.34 17 5.58 16.69 5.81 16.38V16.37ZM11.78 19C11.14 19 10.57 18.6 10.22 18.28H13.42C13.03 18.6 12.43 19 11.79 19H11.78Z" fill="#002341"/>
<path d="M13.91 9.65999V8.68999H9.59V9.64999H12.65L9.51 13.63V14.69H14.11V13.7H10.66L13.91 9.65999Z" fill="#002341"/>
</svg>
