<svg width="24" height="24" viewBox="0 0 24 24" fill="none" xmlns="http://www.w3.org/2000/svg">
<path d="M21.839 20.2005L19.4967 17.9788V17.8381C19.4665 17.1444 18.994 16.5111 18.5015 15.8376C18.039 15.2143 17.5665 14.5709 17.5665 13.9979V13.445C17.5967 11.8868 17.647 8.99153 16.6015 7.1418C15.747 5.63386 14.42 5.05079 13.7866 4.85979C13.6157 4.06561 13.0528 3 11.7258 3C10.3988 3 9.80569 4.07566 9.61468 4.85979C9.10198 5.02063 8.1168 5.44286 7.30251 6.41799L3.84431 3.14074C3.6533 2.94974 3.33161 2.95979 3.14061 3.16085C2.9496 3.3619 2.95965 3.6836 3.16071 3.8746L6.73955 7.26243C5.75436 9.11217 5.79457 11.927 5.82473 13.455V14.0079C5.82473 14.581 5.35225 15.2243 4.88981 15.8476C4.38717 16.5212 3.92473 17.1545 3.89457 17.8481L3.87447 18.3709H8.85066C8.86071 18.4513 8.89087 18.5217 8.94114 18.5921C8.9914 18.6524 10.1173 20.1 11.6856 20.1C13.2538 20.1 14.4803 18.6725 14.5306 18.6122C14.5909 18.5418 14.621 18.4614 14.6311 18.3709H18.4311L21.1454 20.9444C21.2459 21.0349 21.3665 21.0852 21.4872 21.0852C21.6179 21.0852 21.7485 21.0349 21.8491 20.9243C22.0401 20.7233 22.03 20.4016 21.829 20.2106L21.839 20.2005ZM10.1374 5.76455L10.5094 5.69418L10.5496 5.32222C10.5597 5.19153 10.7205 4.00529 11.7258 4.00529C12.7311 4.00529 12.8216 5.17143 12.8316 5.30212L12.8618 5.69418L13.2438 5.76455C13.3041 5.7746 14.8321 6.07619 15.7269 7.64444C16.6316 9.25291 16.5914 11.9772 16.5612 13.4349V13.9979C16.5612 14.6815 16.903 15.3148 17.3052 15.8979L8.02632 7.10159C8.91098 5.99577 10.0771 5.7746 10.1374 5.76455ZM11.6956 19.0847C11.0522 19.0847 10.4792 18.6825 10.1274 18.3608H13.3343C12.9422 18.6825 12.339 19.0847 11.6956 19.0847ZM5.07077 17.3556C5.22156 17.064 5.46283 16.7524 5.69405 16.4407C6.22685 15.727 6.83002 14.9127 6.83002 14.0079V13.445C6.79987 12.0778 6.76971 9.63492 7.50357 7.9963L17.3755 17.3656H5.07077V17.3556Z" fill="#002341"/>
</svg>
