<svg width="24" height="24" viewBox="0 0 24 24" fill="none" xmlns="http://www.w3.org/2000/svg">
<path fill-rule="evenodd" clip-rule="evenodd" d="M11.9984 1.5C11.7311 1.5 11.5151 1.71621 11.5151 1.98211C11.5151 2.24801 11.7311 2.46422 11.9984 2.46422C12.2656 2.46422 12.4816 2.24801 12.4816 1.98211C12.4816 1.71621 12.2656 1.5 11.9984 1.5ZM11.0151 1.98211C11.0151 1.43935 11.4557 1 11.9984 1C12.541 1 12.9816 1.43935 12.9816 1.98211C12.9816 2.44303 12.6639 2.82937 12.2357 2.9354V2.98608H12.8943C13.0708 2.98608 13.2145 3.12901 13.2145 3.30611V4.2019H14V2.7937C14 2.65563 14.1119 2.5437 14.25 2.5437C14.3881 2.5437 14.5 2.65563 14.5 2.7937V4.2019H16.0312C16.1693 4.2019 16.2812 4.31383 16.2812 4.4519C16.2812 4.58998 16.1693 4.7019 16.0312 4.7019H7.9657C7.82763 4.7019 7.7157 4.58998 7.7157 4.4519C7.7157 4.31383 7.82763 4.2019 7.9657 4.2019H9.5V2.7937C9.5 2.65563 9.61193 2.5437 9.75 2.5437C9.88807 2.5437 10 2.65563 10 2.7937V4.2019H10.7603V3.30611C10.7603 3.129 10.9039 2.98608 11.0804 2.98608H11.7357V2.92878C11.3204 2.81405 11.0151 2.43391 11.0151 1.98211ZM11.7357 3.48608H11.2603V4.18929H11.7357V3.48608ZM12.2357 4.18929V3.48608H12.7145V4.18929H12.2357ZM14.3261 6.1001H9.67386C9.57784 6.1001 9.5 6.17529 9.5 6.26805V7.43214C9.5 7.5249 9.57784 7.6001 9.67386 7.6001H14.3261C14.4222 7.6001 14.5 7.5249 14.5 7.43214V6.26805C14.5 6.17529 14.4222 6.1001 14.3261 6.1001ZM2.31718 9C2.2295 9 2.14191 9.02539 2.07126 9.07644C2.00088 9.1273 1.93506 9.21493 1.93506 9.3316V9.6684C1.93506 9.78507 2.00088 9.8727 2.07126 9.92356C2.14191 9.97461 2.2295 10 2.31718 10H21.1529C21.2406 10 21.3282 9.97461 21.3989 9.92356C21.4692 9.87271 21.5351 9.78507 21.5351 9.6684V9.3316C21.5351 9.21493 21.4692 9.12729 21.3989 9.07644C21.3282 9.02539 21.2406 9 21.1529 9H2.31718ZM1.73328 10.4793C1.59521 10.4793 1.48328 10.5912 1.48328 10.7293C1.48328 10.8674 1.59521 10.9793 1.73328 10.9793H22.2636C22.4017 10.9793 22.5136 10.8674 22.5136 10.7293C22.5136 10.5912 22.4017 10.4793 22.2636 10.4793H1.73328ZM0.75 8.24097C0.75 8.1029 0.861929 7.99097 1 7.99097H8.44885V5.5355C8.44885 5.28631 8.65106 5.08496 8.89969 5.08496H15.0397C15.2883 5.08496 15.4905 5.28631 15.4905 5.5355V7.99097H23C23.138 7.99097 23.25 8.1029 23.25 8.24097C23.25 8.37904 23.138 8.49097 23 8.49097H1C0.861929 8.49097 0.75 8.37904 0.75 8.24097ZM2 5.65C2 5.51193 2.11193 5.4 2.25 5.4H3.21558H7.75C7.88807 5.4 8 5.51193 8 5.65C8 5.78807 7.88807 5.9 7.75 5.9H3.46558V7.29884C3.46558 7.43691 3.35365 7.54884 3.21558 7.54884C3.0775 7.54884 2.96558 7.43691 2.96558 7.29884V5.9H2.25C2.11193 5.9 2 5.78807 2 5.65ZM4 7.0001C4 6.86203 4.11193 6.7501 4.25 6.7501H7.75C7.88807 6.7501 8 6.86203 8 7.0001C8 7.13817 7.88807 7.2501 7.75 7.2501H4.25C4.11193 7.2501 4 7.13817 4 7.0001ZM21.0359 5.9H21.75C21.8881 5.9 22 5.78807 22 5.65C22 5.51193 21.8881 5.4 21.75 5.4H20.7859H16.25C16.1119 5.4 16 5.51193 16 5.65C16 5.78807 16.1119 5.9 16.25 5.9H20.5359V7.29884C20.5359 7.43691 20.6478 7.54884 20.7859 7.54884C20.924 7.54884 21.0359 7.43691 21.0359 7.29884V5.9ZM16 7.0001C16 6.86203 16.1119 6.7501 16.25 6.7501H19.75C19.8881 6.7501 20 6.86203 20 7.0001C20 7.13817 19.8881 7.2501 19.75 7.2501H16.25C16.1119 7.2501 16 7.13817 16 7.0001ZM8.94885 7.98794V5.58496H14.9905V7.98794H8.94885ZM21.4 21.076H21.5177C21.7663 21.076 21.9685 21.2773 21.9685 21.5265V21.9817C21.9685 22.2309 21.7663 22.4322 21.5177 22.4322H20.2648C20.0162 22.4322 19.814 22.2309 19.814 21.9817V21.5265C19.814 21.2773 20.0162 21.076 20.2648 21.076H20.4V11.5H21.4V21.076ZM18.4037 21.076H18.286V11.5H17.286V21.076H17.1508C16.9022 21.076 16.7 21.2773 16.7 21.5265V21.9817C16.7 22.2309 16.9022 22.4322 17.1508 22.4322H18.4037C18.6523 22.4322 18.8545 22.2309 18.8545 21.9817V21.5265C18.8545 21.2773 18.6523 21.076 18.4037 21.076ZM15.186 21.076H15.3037C15.5523 21.076 15.7545 21.2773 15.7545 21.5265V21.9817C15.7545 22.2309 15.5523 22.4322 15.3037 22.4322H14.0508C13.8022 22.4322 13.6 22.2309 13.6 21.9817V21.5265C13.6 21.2773 13.8022 21.076 14.0508 21.076H14.186V11.5H15.186V21.076ZM10.2037 21.076H10.0861V11.5H9.08606V21.076H8.95084C8.70221 21.076 8.5 21.2773 8.5 21.5265V21.9817C8.5 22.2309 8.70221 22.4322 8.95084 22.4322H10.2037C10.4523 22.4322 10.6545 22.2309 10.6545 21.9817V21.5265C10.6545 21.2773 10.4523 21.076 10.2037 21.076ZM6.98608 21.076H7.10373C7.35236 21.076 7.55456 21.2773 7.55456 21.5265V21.9817C7.55456 22.2309 7.35236 22.4322 7.10373 22.4322H5.85086C5.60223 22.4322 5.40002 22.2309 5.40002 21.9817V21.5265C5.40002 21.2773 5.60223 21.076 5.85086 21.076H5.98608L5.98608 11.5H6.98608L6.98608 21.076ZM3.90365 21.076H3.78601L3.78601 11.5H2.78601L2.78601 21.076H2.65079C2.40216 21.076 2.19995 21.2773 2.19995 21.5265V21.9817C2.19995 22.2309 2.40216 22.4322 2.65079 22.4322H3.90365C4.15229 22.4322 4.35449 22.2309 4.35449 21.9817V21.5265C4.35449 21.2773 4.15229 21.076 3.90365 21.076Z" fill="#002341"/>
</svg>
