<svg width="24" height="24" viewBox="0 0 24 24" fill="none" xmlns="http://www.w3.org/2000/svg">
<path d="M23.4588 20.5817C23.4588 20.7742 23.4588 20.9711 23.4588 21.1635C23.3783 21.168 23.2977 21.1769 23.2127 21.1769C15.739 21.1769 8.26531 21.1769 0.787155 21.1769C0.7066 21.1769 0.626046 21.168 0.541016 21.1635C0.541016 20.9711 0.541016 20.7742 0.541016 20.5817C0.836383 20.5817 1.13175 20.5817 1.42712 20.5817C1.42712 17.552 1.42712 14.5715 1.42712 11.582C1.31076 11.573 1.19888 11.5641 1.09147 11.5551C1.09147 10.7093 1.09147 9.88139 1.09147 9.02661C1.30628 9.02661 1.5032 9.02661 1.69116 9.02661C1.69116 8.7223 1.69116 8.44036 1.69116 8.15841C1.58375 8.14946 1.48977 8.14051 1.39579 8.13156C1.39579 8.01521 1.39579 7.91675 1.39579 7.78697C3.14114 7.78697 4.87307 7.78697 6.63184 7.78697C6.63184 7.53635 6.63184 7.30812 6.63184 7.06198C7.37473 7.06198 8.09525 7.06198 8.81129 7.06198C8.89632 6.5518 8.82919 6.05952 8.60543 5.90288C8.59648 5.89841 8.57858 5.90736 8.56068 5.90736C8.56515 5.95659 8.5741 6.01029 8.57858 6.07742C8.50697 6.06399 8.45327 6.06399 8.40404 6.04609C8.16685 5.97449 8.03707 6.07294 8.06392 6.31908C8.08182 6.47124 8.14 6.61892 8.16685 6.76661C8.18028 6.83374 8.15343 6.90534 8.14 6.99037C8.07735 6.96352 8.0505 6.95904 8.03707 6.94562C7.91624 6.82926 7.80436 5.97449 7.92967 5.88051C8.13553 5.72835 8.02812 5.55829 8.02365 5.38375C8.01917 5.26292 8.02365 5.12866 8.07735 5.02573C8.21608 4.74827 8.22503 4.75274 7.96099 4.56926C7.84911 4.49318 7.79988 4.43052 7.82226 4.26494C7.85359 4.01433 7.79988 3.75476 7.78198 3.49072C7.79093 3.48624 7.83121 3.48177 7.86254 3.46834C8.22503 3.33409 8.40404 15.3967 8.56963 15.7592C8.66361 15.9696 8.74864 16.1889 8.80234 16.4081C8.86947 16.6856 9.0261 16.8333 9.30357 16.9049C9.63026 16.9899 9.73767 17.1466 9.75557 17.4822C9.76005 17.5986 9.75557 5.7194 9.74215 5.84023C9.68397 6.23853 9.61684 6.63683 9.55418 7.04855C9.82718 7.04855 10.0509 7.04855 10.2613 7.04855C10.1807 6.6771 10.1091 6.31461 10.0196 5.95659C9.9122 5.51354 9.88535 17.0884 10.1494 16.6856C10.1762 16.6453 10.1852 16.5916 10.2031 16.5379C10.1404 16.5156 10.0733 16.5066 10.033 16.4708C9.93011 16.3768 9.83613 16.2828 9.90773 16.1083C10.0151 15.8487 10.0957 15.5757 10.1897 15.2983C10.673 15.3072 10.8028 15.4146 10.8296 15.8487C10.8431 16.0725 10.852 16.2963 10.8252 16.52C10.7938 16.793 10.9505 16.8825 11.1787 16.9676C11.1787 16.8915 11.1832 16.8333 11.1787 16.7796C11.1563 16.4887 11.1116 16.2023 11.1116 15.9114C11.1116 15.7592 11.1653 15.5892 11.2503 15.4639C11.3622 15.2983 11.5322 15.1775 11.6665 15.0298C11.7113 14.9805 11.756 14.9045 11.7605 14.8418C11.7694 14.542 11.765 14.2466 11.765 13.9378C11.5054 13.8528 11.3264 13.7006 11.3174 13.4142C11.3085 13.1323 11.4875 12.9801 11.7292 12.8682C11.2816 12.6847 11.134 12.4654 11.1877 12.0134C11.3667 12.1253 11.5322 12.2283 11.6978 12.3312C11.7918 12.1432 11.8813 12.188 11.9484 12.3312C12.1185 12.2283 12.2841 12.1253 12.4855 12C12.49 12.452 12.3602 12.7519 11.8947 12.8637C12.1946 12.9488 12.3512 13.1054 12.3691 13.365C12.387 13.6245 12.2617 13.8035 12.0201 13.902C11.9842 13.9154 11.9395 13.9602 11.9395 13.9915C11.935 14.3137 11.935 14.6404 11.935 14.9626C11.9574 14.9447 11.9798 14.9224 11.9977 14.9045C12.1275 14.9582 12.2796 14.985 12.3736 15.0745C12.4139 15.1148 12.3602 15.2849 12.3199 15.3833C12.2393 15.5847 12.3288 15.7011 12.5437 15.6921C12.6153 15.5802 12.6958 15.4057 12.7271 15.4146C12.848 15.446 12.9554 15.5355 13.0717 15.6071C13.3268 15.1685 13.4029 15.1461 13.8728 15.3251C13.8594 15.6026 13.846 15.8666 13.837 16.1307C13.837 16.1799 13.8594 16.2515 13.8325 16.2739C13.6625 16.426 13.743 16.5872 13.8057 16.7438C13.9713 17.1421 14.0876 5.54486 14.0339 5.98344C13.9892 6.34146 13.9399 6.695 13.8952 7.04855C14.0697 7.04855 14.2308 7.04855 14.4367 7.04855C14.3651 6.60102 14.298 6.18035 14.2353 5.7552C14.2219 5.6657 14.2264 5.57619 14.2308 5.48668C14.2487 5.15104 14.3561 4.99441 14.6828 4.90938C14.9603 4.83777 15.1259 4.69456 15.1796 4.41262C15.202 4.29179 15.2467 4.16648 15.3004 4.0546C15.3854 3.87559 15.4705 3.69211 15.5824 3.531C15.6853 3.38331 15.8419 3.33856 16.0165 3.42807C16.0836 3.46387 16.1597 3.48625 16.1999 3.50415C16.1776 3.75924 16.1104 4.0009 16.1507 4.22914C16.1865 4.43947 16.1194 4.53793 15.9628 4.61401C15.7793 4.70351 15.7793 4.8333 15.8822 4.97203C15.9986 5.12866 15.9807 5.2853 15.9449 5.45983C15.918 5.59857 15.833 5.76863 16.0388 5.86708C16.0746 5.88498 16.0925 5.97449 16.0925 6.02819C16.0881 6.26538 16.0836 6.50704 16.0523 6.73976C16.0388 6.82926 15.9538 6.90982 15.9046 6.99485C15.8777 6.9859 15.8509 6.97695 15.824 6.968C15.824 6.89639 15.8151 6.82031 15.824 6.74871C15.8509 6.59207 15.909 6.43544 15.918 6.27433C15.9314 6.06399 15.7972 5.97896 15.6003 6.04162C15.5421 6.05952 15.475 6.06399 15.3899 6.07742C15.4078 6.01924 15.4168 5.99239 15.4212 5.96554C15.4257 5.94316 15.4212 5.92078 15.4212 5.84471C15.0632 6.23405 15.1393 6.64578 15.1617 7.07093C15.8911 7.07093 16.5982 7.07093 17.3277 7.07093C17.3277 7.32154 17.3277 7.5453 17.3277 7.79144C19.0507 7.79144 20.7468 7.79144 22.4608 7.79144C22.425 7.93465 22.5638 8.11366 22.3221 8.16289C22.3087 8.16736 22.2997 8.21659 22.2997 8.24344C22.2997 8.50301 22.2997 8.76257 22.2997 9.03556C22.4832 9.03556 22.6354 9.03556 22.8009 9.03556C22.8009 9.88139 22.8009 10.7048 22.8009 11.5372C22.6801 11.5507 22.5682 11.5641 22.4519 11.5775C22.4519 14.5759 22.4519 17.5565 22.4519 20.5728C22.8054 20.5817 23.1321 20.5817 23.4588 20.5817ZM13.2418 20.5594C13.2418 17.6146 13.2418 14.6968 13.2418 11.7744C12.2707 11.7744 11.3174 11.7744 10.3597 11.7744C10.3597 14.7102 10.3597 17.6281 10.3597 20.5594C11.3264 20.5594 12.2751 20.5594 13.2418 20.5594ZM15.3586 20.5594C15.8822 20.5594 16.379 20.5594 16.8802 20.5594C16.8802 17.6236 16.8802 14.6968 16.8802 11.7744C16.3611 11.7744 15.8688 11.7744 15.3586 11.7744C15.3586 14.7012 15.3586 17.6236 15.3586 20.5594ZM20.4112 11.7744C19.9234 11.7744 19.4669 11.7744 19.0015 11.7744C19.0015 14.7102 19.0015 17.6281 19.0015 20.5549C19.4758 20.5549 19.9413 20.5549 20.4112 20.5549C20.4112 17.6191 20.4112 14.7012 20.4112 11.7744ZM3.47231 20.5549C3.91984 20.5549 4.35394 20.5549 4.80146 20.5549C4.80146 17.6191 4.80146 14.7012 4.80146 11.7699C4.35394 11.7699 3.91984 11.7699 3.47231 11.7699C3.47231 14.7057 3.47231 17.6236 3.47231 20.5549ZM8.23846 20.5594C8.23846 17.6191 8.23846 14.7012 8.23846 11.7744C7.79093 11.7744 7.35236 11.7744 6.91378 11.7744C6.91378 14.7102 6.91378 17.6281 6.91378 20.5594C7.35683 20.5594 7.78646 20.5594 8.23846 20.5594ZM11.7515 13.2889C11.671 13.3336 11.6083 13.3694 11.5501 13.4008C11.6218 13.4366 11.6934 13.4679 11.7694 13.5037C11.7784 13.5574 11.7873 13.6245 11.7963 13.6872C11.8142 13.6917 11.8366 13.7006 11.8545 13.7051C11.8813 13.6335 11.9126 13.5619 11.9305 13.5127C12.0066 13.4679 12.0738 13.4276 12.1364 13.3873C12.0693 13.356 12.0022 13.3247 11.9529 13.3023C11.9126 13.2307 11.8724 13.1636 11.8366 13.092C11.8097 13.1681 11.7784 13.2352 11.7515 13.2889ZM11.7963 15.2267C11.7739 15.2177 11.7515 15.2133 11.7292 15.2043C11.6934 15.2893 11.6486 15.3699 11.6262 15.4594C11.6218 15.4728 11.7202 15.5131 11.7963 15.5534C11.7963 15.4146 11.7963 15.3207 11.7963 15.2267Z" fill="#1C3553"/>
</svg>
