<svg width="24" height="24" viewBox="0 0 24 24" fill="none" xmlns="http://www.w3.org/2000/svg">
<path fill-rule="evenodd" clip-rule="evenodd" d="M4 2C2.89543 2 2 2.89543 2 4V20C2 21.1046 2.89543 22 4 22H20C21.1046 22 22 21.1046 22 20V4C22 2.89543 21.1046 2 20 2H4ZM13.6499 9.60104V9V8.66667L12.6663 8.66667C12.4822 8.66667 12.333 8.51743 12.333 8.33333C12.333 8.14924 12.4822 8 12.6663 8H13.333C13.8853 8 14.333 8.44771 14.333 9L14.333 9.66356L14.3331 9.68754L14.333 9.75713L14.3283 9.76493L14.9604 10.6975C15.3046 10.5569 15.6835 10.4797 16.0833 10.4797C17.7167 10.4797 19 11.7675 19 13.4065C19 15.0455 17.7167 16.3333 16.0833 16.3333C14.45 16.3333 13.1667 15.0455 13.1667 13.4065C13.1667 12.4126 13.6386 11.5478 14.3744 11.021L13.9513 10.3967L12.321 13.128C12.2613 13.435 11.991 13.6667 11.6666 13.6667H10.8224C10.6949 15.1798 9.46253 16.3333 7.91667 16.3333C6.28333 16.3333 5 15.0455 5 13.4065C5 11.7675 6.28333 10.4797 7.91667 10.4797C8.20997 10.4797 8.49199 10.5212 8.75732 10.5988L9.05495 10.0833H8.64583C8.35818 10.0833 8.125 9.85014 8.125 9.56249C8.125 9.27484 8.35818 9.04166 8.64583 9.04166H10.7292C11.0168 9.04166 11.25 9.27484 11.25 9.56249C11.25 9.85014 11.0168 10.0833 10.7292 10.0833H10.3455L11.8287 12.6523L13.5982 9.68754L13.6499 9.60104ZM16.0642 13.5145L14.8781 11.7643C14.3743 12.1412 14.0417 12.7426 14.0417 13.4065C14.0417 14.5187 14.975 15.4553 16.0833 15.4553C17.1917 15.4553 18.125 14.5187 18.125 13.4065C18.125 12.2943 17.1917 11.3577 16.0833 11.3577C15.8719 11.3577 15.6669 11.3918 15.4735 11.4547L16.6161 13.1405C16.7184 13.2915 16.6804 13.4966 16.5309 13.6009C16.3784 13.7072 16.1685 13.6683 16.0642 13.5145ZM9.37576 10.861L9.70022 10.299L11.2596 13H10.8065C10.6831 12.0746 10.1429 11.298 9.37576 10.861ZM8.29764 11.395C8.17386 11.3706 8.04646 11.3577 7.91667 11.3577C6.80833 11.3577 5.875 12.2943 5.875 13.4065C5.875 14.5187 6.80833 15.4553 7.91667 15.4553C8.93736 15.4553 9.80963 14.661 9.9412 13.6667H7.80733C7.77746 13.6667 7.74851 13.6627 7.72097 13.6554C7.61912 13.7217 7.48453 13.7298 7.37205 13.6649C7.21262 13.5728 7.15799 13.369 7.25004 13.2095L8.29764 11.395ZM8.14081 13L8.92846 11.6358C9.42531 11.9275 9.79564 12.4235 9.91624 13H8.14081Z" fill="#1C3553"/>
</svg>
