<svg width="24" height="24" viewBox="0 0 24 24" fill="none" xmlns="http://www.w3.org/2000/svg">
<path fill-rule="evenodd" clip-rule="evenodd" d="M2 0C0.895431 0 0 0.89543 0 2V22C0 23.1046 0.89543 24 2 24H22C23.1046 24 24 23.1046 24 22V2C24 0.895431 23.1046 0 22 0H2ZM15.7333 6.43337L17.15 10.3334V10.325H17.8333C20.1667 10.325 22 12.1584 22 14.4917C22 16.8334 19.9583 18.7667 17.625 18.6584C15.675 18.5667 14.1167 17.1917 13.75 15.3334H10.25C9.875 17.2584 8.21667 18.6667 6.16667 18.6667C3.83333 18.6667 2 16.8334 2 14.5C2 12.1667 4.04167 10.225 6.375 10.3417C8.325 10.4334 9.88333 11.8084 10.25 13.6667H10.8083L9.29167 9.50004H8.66667C8.20833 9.50004 7.83333 9.12504 7.83333 8.66671C7.83333 8.20837 8.20833 7.83337 8.66667 7.83337H11.15C11.6083 7.83337 11.9833 8.20837 11.9833 8.66671C11.9833 9.12504 11.6083 9.50004 11.15 9.50004H11.075L11.375 10.3334H15.3833L14.1667 7.00004H12.8333C12.375 7.00004 12 6.62504 12 6.16671C12 5.70837 12.375 5.33337 12.8333 5.33337H14.1667C14.8667 5.33337 15.4917 5.77504 15.7333 6.43337ZM6 16.9917C7.18333 17.0667 8.16667 16.3584 8.51667 15.3334H7C6.54167 15.3334 6.16667 14.9584 6.16667 14.5C6.16667 14.0417 6.54167 13.6667 7 13.6667H8.51667C8.18333 12.6917 7.275 12 6.16667 12C4.725 12 3.60833 13.1584 3.66667 14.6167C3.725 15.8667 4.75833 16.9167 6 16.9917ZM12.5833 13.6667H13.75C13.8667 13.0417 14.1333 12.4834 14.5 12H11.975L12.5833 13.6667ZM15.3333 14.5667C15.3667 15.8584 16.45 16.95 17.7333 17C19.1833 17.05 20.3333 15.9334 20.3417 14.5C20.3417 13.075 19.2083 11.9667 17.775 12L17.7667 12.0084L18.2917 13.45C18.45 13.8834 18.225 14.3584 17.7917 14.5167C17.3583 14.675 16.8833 14.45 16.725 14.0167L16.2083 12.6C15.6583 13.0667 15.3167 13.7667 15.3333 14.5667Z" fill="#1C3553"/>
</svg>
