<svg width="24" height="24" viewBox="0 0 24 24" fill="none" xmlns="http://www.w3.org/2000/svg">
<path d="M20.02 2H4.12C2.95 2 2 2.95 2 4.12V20.02C2 21.19 2.95 22.14 4.12 22.14H20.02C21.19 22.14 22.14 21.19 22.14 20.02V4.12C22.14 2.95 21.19 2 20.02 2ZM21.14 20.02C21.14 20.64 20.64 21.14 20.02 21.14H4.12C3.5 21.14 3 20.64 3 20.02V4.12C3 3.5 3.5 3 4.12 3H20.02C20.64 3 21.14 3.5 21.14 4.12V20.02Z" fill="#002341"/>
<path d="M17.09 11.23C17.01 11.23 16.93 11.25 16.85 11.25L15.68 7.03H13.35C13.07 7.03 12.85 7.25 12.85 7.53C12.85 7.81 13.07 8.03 13.35 8.03H14.92L15.35 9.56H10.72L10.65 9.31H11.12C11.4 9.31 11.62 9.09 11.62 8.81C11.62 8.53 11.4 8.31 11.12 8.31H8.86C8.58 8.31 8.36 8.53 8.36 8.81C8.36 9.09 8.58 9.31 8.86 9.31H9.62L9.81 9.98L8.49 11.61C8.07 11.37 7.59 11.23 7.07 11.23C5.45 11.23 4.14 12.55 4.14 14.16C4.14 15.77 5.46 17.09 7.07 17.09C8.52 17.09 9.72 16.04 9.95 14.66H11.54C11.54 14.66 11.63 14.66 11.68 14.64C11.68 14.64 11.69 14.64 11.7 14.63C11.73 14.62 11.76 14.6 11.79 14.58C11.81 14.57 11.84 14.55 11.86 14.54C11.86 14.54 11.86 14.54 11.87 14.54L15.74 10.99L15.88 11.51C14.87 11.97 14.16 12.99 14.16 14.17C14.16 15.79 15.48 17.1 17.09 17.1C18.7 17.1 20.02 15.78 20.02 14.17C20.02 12.56 18.7 11.24 17.09 11.24V11.23ZM7.05 16.1C5.98 16.1 5.12 15.23 5.12 14.17C5.12 13.11 5.99 12.24 7.05 12.24C7.33 12.24 7.59 12.3 7.83 12.41L6.66 13.86C6.54 14.01 6.51 14.22 6.6 14.39C6.69 14.56 6.86 14.67 7.05 14.67H8.91C8.69 15.49 7.94 16.1 7.05 16.1ZM8.1 13.67L8.61 13.03C8.75 13.22 8.85 13.43 8.91 13.67H8.1ZM9.94 13.67C9.85 13.13 9.6 12.64 9.25 12.24L10.13 11.15L10.86 13.66H9.94V13.67ZM11.78 13.26L11 10.57H14.71L11.78 13.26ZM17.09 16.11C16.02 16.11 15.16 15.24 15.16 14.18C15.16 13.46 15.57 12.83 16.16 12.5L16.62 14.14C16.68 14.36 16.88 14.51 17.1 14.51C17.14 14.51 17.19 14.51 17.23 14.49C17.5 14.42 17.65 14.14 17.58 13.87L17.13 12.25C18.18 12.27 19.03 13.13 19.03 14.18C19.03 15.23 18.16 16.11 17.1 16.11H17.09Z" fill="#002341"/>
</svg>
