<svg width="24" height="24" viewBox="0 0 24 24" fill="none" xmlns="http://www.w3.org/2000/svg">
<path d="M20.62 5.12997C16.76 4.51997 12.98 6.13997 12.02 6.58997C11.06 6.14997 7.28 4.52997 3.42 5.12997C3.18 5.16997 3 5.37997 3 5.61997V17.64C3 17.78 3.06 17.92 3.17 18.02C3.28 18.12 3.43 18.16 3.57 18.14C3.61 18.14 7.6 17.6 11.86 19.08C11.91 19.1 11.97 19.11 12.02 19.11C12.07 19.11 12.13 19.11 12.18 19.08C16.44 17.6 20.42 18.14 20.47 18.14C20.61 18.16 20.76 18.12 20.87 18.02C20.98 17.93 21.04 17.79 21.04 17.64V5.62997C21.04 5.37997 20.86 5.16997 20.62 5.13997V5.12997ZM5.48 17.04C4.86 17.04 4.36 17.07 4 17.1V6.06997C7.31 5.69997 10.57 7.03997 11.52 7.46997V17.92C9.17 17.2 6.98 17.04 5.48 17.04ZM20.04 17.1C18.83 17 15.83 16.91 12.52 17.93V7.46997C13.46 7.03997 16.73 5.68997 20.04 6.06997V17.1Z" fill="#002341"/>
</svg>
