<svg width="24" height="24" viewBox="0 0 24 24" fill="none" xmlns="http://www.w3.org/2000/svg">
<path d="M18.3775 3.20448C17.9896 2.82824 17.4605 2.62837 16.9196 2.61661L7.12579 2.56958H7.11403C5.97357 2.56958 5.03298 3.46314 5.03298 4.56832L4.95068 21.0521C4.95068 21.2755 5.08001 21.4871 5.27989 21.5812C5.47976 21.6752 5.72667 21.6517 5.90303 21.5106L11.7699 16.843L17.9778 21.5929C18.0836 21.6752 18.2129 21.7105 18.3305 21.7105C18.4246 21.7105 18.5069 21.687 18.5892 21.6517C18.7891 21.5577 18.9184 21.346 18.9184 21.1226L19.0007 4.63887C19.0007 4.09803 18.7891 3.59247 18.3775 3.20448ZM17.7427 19.9351L12.1109 15.6202C12.0051 15.5379 11.8757 15.5026 11.7582 15.5026C11.6406 15.5026 11.4995 15.5497 11.3937 15.632L6.13817 19.8293L6.20872 4.56832C6.20872 4.10979 6.62022 3.74531 7.12579 3.74531L16.9196 3.79234C17.1665 3.79234 17.4017 3.8864 17.578 4.051C17.7427 4.20385 17.8367 4.41548 17.8367 4.62711L17.7662 19.9234L17.7427 19.9351Z" fill="#002341"/>
</svg>
