<svg width="24" height="25" viewBox="0 0 24 25" fill="none" xmlns="http://www.w3.org/2000/svg">
<path d="M20.03 12.88L11.3 4.14998C11.2 4.04998 11.08 3.98998 10.92 3.99998L4.35 4.35998C4.09 4.36998 3.84 4.47998 3.67 4.65998C3.5 4.82998 3.39 5.06998 3.36 5.32998L3 11.92C3 12.06 3.04 12.2 3.15 12.3L11.88 21.03C12.18 21.33 12.58 21.48 12.97 21.48C13.36 21.48 13.76 21.33 14.06 21.03L20.03 15.06C20.63 14.46 20.63 13.48 20.03 12.88ZM19.32 14.36L13.35 20.33C13.14 20.54 12.79 20.54 12.58 20.33L4.01 11.75L4.37 5.36998C4.37 5.36998 4.39 5.35998 4.4 5.35998L10.75 5.01998L19.32 13.59C19.53 13.8 19.53 14.15 19.32 14.36Z" fill="#002341"/>
<path d="M5.85 6.84998C5.37 7.32998 5.37 8.09998 5.85 8.57998C6.33 9.05998 7.1 9.05998 7.58 8.57998C8.06 8.09998 8.06 7.32998 7.58 6.84998C7.1 6.36998 6.33 6.36998 5.85 6.84998Z" fill="#002341"/>
</svg>
