<svg width="24" height="24" viewBox="0 0 24 24" fill="none" xmlns="http://www.w3.org/2000/svg">
<path d="M19.81 3.42C19.63 3.16 19.33 3 19 3H11.38C11.06 3 10.76 3.16 10.57 3.42L8.66 6.16V8.92C8.27 8.79 7.83 8.83 7.53 9.04L2 12.01V20.87H7.59V17.2H8.88V20.87H14.49V16.53H15.9V20.87H21.72V6.16L19.81 3.43V3.42ZM6.59 16.19V19.86H3V12.6L8.06 9.88C8.15 9.82 8.32 9.82 8.46 9.91L13.47 12.6V19.86H9.88V16.19H6.59ZM20.72 19.86H16.9V15.52H14.47V12L9.67 9.43V6.46L11.38 3.99H18.98L20.71 6.46V19.85L20.72 19.86Z" fill="#002341"/>
<path d="M19.49 17.86H17.64V15.53H19.49V17.86ZM18.04 17.46H19.08V15.93H18.04V17.46Z" fill="#002341"/>
<path d="M19.49 13.34H17.64V11.01H19.49V13.34ZM18.04 12.94H19.08V11.41H18.04V12.94Z" fill="#002341"/>
<path d="M16.12 13.34H14.27V11.01H16.12V13.34ZM14.67 12.94H15.71V11.41H14.67V12.94Z" fill="#002341"/>
<path d="M19.49 9H17.64V6.67H19.49V9ZM18.04 8.6H19.08V7.07H18.04V8.6Z" fill="#002341"/>
<path d="M16.12 9H14.27V6.67H16.12V9ZM14.67 8.6H15.71V7.07H14.67V8.6Z" fill="#002341"/>
<path d="M12.74 9H10.89V6.67H12.74V9ZM11.29 8.6H12.33V7.07H11.29V8.6Z" fill="#002341"/>
<path d="M9.16 14.65H7.31V12.32H9.16V14.65ZM7.71 14.25H8.75V12.72H7.71V14.25Z" fill="#002341"/>
<path d="M5.67 17.86H3.82V15.53H5.67V17.86ZM4.22 17.46H5.26V15.93H4.22V17.46Z" fill="#002341"/>
<path d="M12.6 17.86H10.75V15.53H12.6V17.86ZM11.15 17.46H12.19V15.93H11.15V17.46Z" fill="#002341"/>
</svg>
