<svg width="24" height="24" viewBox="0 0 24 24" fill="none" xmlns="http://www.w3.org/2000/svg">
<path fill-rule="evenodd" clip-rule="evenodd" d="M7.4749 15.1255C6.88912 15.1255 6.35565 14.728 6.19874 14.1632L3.88703 6.25523C3.85565 6.12971 3.74059 6.04603 3.61506 6.04603H1V5.01046H3.6046V5C4.19038 5 4.72385 5.39749 4.89121 5.96234L4.94351 6.15063H19.6715C20.0586 6.15063 20.4351 6.31799 20.6862 6.62134C20.9372 6.92469 21.0523 7.31172 20.9895 7.69874L19.9749 14.0063C19.8703 14.6548 19.3159 15.1255 18.6569 15.1255H7.4749ZM5.24686 7.19665L7.19247 13.8703C7.22385 13.9958 7.33891 14.0795 7.46443 14.0795H18.6464C18.7929 14.0795 18.9079 13.9749 18.9289 13.8389L19.9435 7.53138C19.9644 7.41632 19.9121 7.33264 19.8808 7.30126C19.8494 7.25941 19.7761 7.19665 19.6611 7.19665H5.24686Z" fill="#002341"/>
<path fill-rule="evenodd" clip-rule="evenodd" d="M9.78661 19.09C8.87657 19.09 8.13389 18.3473 8.13389 17.4372C8.13389 16.5272 8.87657 15.7845 9.78661 15.7845C10.6967 15.7845 11.4393 16.5272 11.4393 17.4372C11.4393 18.3473 10.6967 19.09 9.78661 19.09ZM9.78661 16.8201C9.45188 16.8201 9.17992 17.0921 9.17992 17.4268C9.17992 17.7615 9.45188 18.0335 9.78661 18.0335C10.1213 18.0335 10.3933 17.7615 10.3933 17.4268C10.3933 17.0921 10.1213 16.8201 9.78661 16.8201Z" fill="#002341"/>
<path fill-rule="evenodd" clip-rule="evenodd" d="M14.3577 17.4372C14.3577 18.3473 15.1004 19.09 16.0105 19.09C16.9205 19.09 17.6632 18.3473 17.6632 17.4372C17.6632 16.5272 16.9205 15.7845 16.0105 15.7845C15.1004 15.7845 14.3577 16.5272 14.3577 17.4372ZM15.4038 17.4268C15.4038 17.0921 15.6757 16.8201 16.0105 16.8201C16.3452 16.8201 16.6172 17.0921 16.6172 17.4268C16.6172 17.7615 16.3452 18.0335 16.0105 18.0335C15.6757 18.0335 15.4038 17.7615 15.4038 17.4268Z" fill="#002341"/>
</svg>
