<svg width="24" height="24" viewBox="0 0 24 24" fill="none" xmlns="http://www.w3.org/2000/svg">
<path fill-rule="evenodd" clip-rule="evenodd" d="M6.5 2C5.39543 2 4.5 2.89543 4.5 4V20C4.5 21.1046 5.39543 22 6.5 22H17.5C18.6046 22 19.5 21.1046 19.5 20V4C19.5 2.89543 18.6046 2 17.5 2H6.5ZM6.5 5C6.5 4.44772 6.94772 4 7.5 4H16.5C17.0523 4 17.5 4.44772 17.5 5V7C17.5 7.55228 17.0523 8 16.5 8H7.5C6.94772 8 6.5 7.55228 6.5 7V5ZM6.5 10C6.5 9.44772 6.94772 9 7.5 9H8.5C9.05228 9 9.5 9.44772 9.5 10V11C9.5 11.5523 9.05228 12 8.5 12H7.5C6.94772 12 6.5 11.5523 6.5 11V10ZM11.5 9C10.9477 9 10.5 9.44772 10.5 10V11C10.5 11.5523 10.9477 12 11.5 12H12.5C13.0523 12 13.5 11.5523 13.5 11V10C13.5 9.44772 13.0523 9 12.5 9H11.5ZM14.5 10C14.5 9.44772 14.9477 9 15.5 9H16.5C17.0523 9 17.5 9.44772 17.5 10V11C17.5 11.5523 17.0523 12 16.5 12H15.5C14.9477 12 14.5 11.5523 14.5 11V10ZM7.5 13C6.94772 13 6.5 13.4477 6.5 14V15C6.5 15.5523 6.94772 16 7.5 16H8.5C9.05228 16 9.5 15.5523 9.5 15V14C9.5 13.4477 9.05228 13 8.5 13H7.5ZM10.5 14C10.5 13.4477 10.9477 13 11.5 13H12.5C13.0523 13 13.5 13.4477 13.5 14V15C13.5 15.5523 13.0523 16 12.5 16H11.5C10.9477 16 10.5 15.5523 10.5 15V14ZM15.5 13C14.9477 13 14.5 13.4477 14.5 14V15C14.5 15.5523 14.9477 16 15.5 16H16.5C17.0523 16 17.5 15.5523 17.5 15V14C17.5 13.4477 17.0523 13 16.5 13H15.5ZM6.5 18C6.5 17.4477 6.94772 17 7.5 17H8.5C9.05228 17 9.5 17.4477 9.5 18V19C9.5 19.5523 9.05228 20 8.5 20H7.5C6.94772 20 6.5 19.5523 6.5 19V18ZM11.5 17C10.9477 17 10.5 17.4477 10.5 18V19C10.5 19.5523 10.9477 20 11.5 20H12.5C13.0523 20 13.5 19.5523 13.5 19V18C13.5 17.4477 13.0523 17 12.5 17H11.5ZM14.5 18C14.5 17.4477 14.9477 17 15.5 17H16.5C17.0523 17 17.5 17.4477 17.5 18V19C17.5 19.5523 17.0523 20 16.5 20H15.5C14.9477 20 14.5 19.5523 14.5 19V18Z" fill="#1C3553"/>
<path fill-rule="evenodd" clip-rule="evenodd" d="M13 6.5C13 6.77614 13.2239 7 13.5 7C13.7761 7 14 6.77614 14 6.5L14 5.5C14 5.22386 13.7761 5 13.5 5C13.2239 5 13 5.22386 13 5.5V6.5ZM15 6.5C15 6.77614 15.2239 7 15.5 7C15.7761 7 16 6.77614 16 6.5V5.5C16 5.22386 15.7761 5 15.5 5C15.2239 5 15 5.22386 15 5.5V6.5Z" fill="#1C3553"/>
</svg>
