<svg width="24" height="24" viewBox="0 0 24 24" fill="none" xmlns="http://www.w3.org/2000/svg">
<path fill-rule="evenodd" clip-rule="evenodd" d="M6 2C4.89543 2 4 2.89543 4 4V20C4 21.1046 4.89543 22 6 22H17C18.1046 22 19 21.1046 19 20V4C19 2.89543 18.1046 2 17 2H6ZM6 5C6 4.44772 6.44772 4 7 4H16C16.5523 4 17 4.44772 17 5V7C17 7.55228 16.5523 8 16 8H7C6.44772 8 6 7.55228 6 7V5ZM6 10C6 9.44772 6.44772 9 7 9H8C8.55228 9 9 9.44772 9 10V11C9 11.5523 8.55228 12 8 12H7C6.44772 12 6 11.5523 6 11V10ZM11 9C10.4477 9 10 9.44772 10 10V11C10 11.5523 10.4477 12 11 12H12C12.5523 12 13 11.5523 13 11V10C13 9.44772 12.5523 9 12 9H11ZM14 10C14 9.44772 14.4477 9 15 9H16C16.5523 9 17 9.44772 17 10V11C17 11.5523 16.5523 12 16 12H15C14.4477 12 14 11.5523 14 11V10ZM7 13C6.44772 13 6 13.4477 6 14V15C6 15.5523 6.44772 16 7 16H8C8.55228 16 9 15.5523 9 15V14C9 13.4477 8.55228 13 8 13H7ZM10 14C10 13.4477 10.4477 13 11 13H12C12.5523 13 13 13.4477 13 14V15C13 15.5523 12.5523 16 12 16H11C10.4477 16 10 15.5523 10 15V14ZM15 13C14.4477 13 14 13.4477 14 14V15C14 15.5523 14.4477 16 15 16H16C16.5523 16 17 15.5523 17 15V14C17 13.4477 16.5523 13 16 13H15ZM6 18C6 17.4477 6.44772 17 7 17H8C8.55228 17 9 17.4477 9 18V19C9 19.5523 8.55228 20 8 20H7C6.44772 20 6 19.5523 6 19V18ZM11 17C10.4477 17 10 17.4477 10 18V19C10 19.5523 10.4477 20 11 20H12C12.5523 20 13 19.5523 13 19V18C13 17.4477 12.5523 17 12 17H11ZM14 18C14 17.4477 14.4477 17 15 17H16C16.5523 17 17 17.4477 17 18V19C17 19.5523 16.5523 20 16 20H15C14.4477 20 14 19.5523 14 19V18Z" fill="#1C3553"/>
<path fill-rule="evenodd" clip-rule="evenodd" d="M13 6.5C13 6.77614 13.2239 7 13.5 7C13.7761 7 14 6.77614 14 6.5L14 5.5C14 5.22386 13.7761 5 13.5 5C13.2239 5 13 5.22386 13 5.5V6.5ZM15 6.5C15 6.77614 15.2239 7 15.5 7C15.7761 7 16 6.77614 16 6.5V5.5C16 5.22386 15.7761 5 15.5 5C15.2239 5 15 5.22386 15 5.5V6.5Z" fill="#1C3553"/>
</svg>
