<svg width="24" height="24" viewBox="0 0 24 24" fill="none" xmlns="http://www.w3.org/2000/svg">
<path fill-rule="evenodd" clip-rule="evenodd" d="M17.4618 5.22103C17.6542 4.97204 18.0051 4.92677 18.254 5.11917H18.2654C18.503 5.31158 18.5596 5.66243 18.3672 5.91143L14.8813 10.4839L15.9226 10.3933C16.2055 10.3594 16.5111 10.597 16.5337 10.9139C16.5564 11.2308 16.33 11.5025 16.0131 11.5251L13.7269 11.7175H13.6816C13.4326 11.7175 13.2063 11.5364 13.1384 11.2874L12.5725 9.09176C12.4932 8.78618 12.6743 8.48059 12.9799 8.40137C13.2855 8.32214 13.5911 8.50323 13.6703 8.80881L13.9419 9.85006L17.4618 5.22103ZM19.8948 22.1301H20.3475L21.3775 17.501C21.5472 16.7088 21.0832 15.9165 20.3136 15.6902L16.1599 14.4339C15.0734 14.1509 14.168 14.615 13.7379 15.6789C12.0402 14.8866 10.6368 13.7774 9.56158 12.408C10.501 11.7402 10.7386 10.7556 10.1954 9.73695L8.01102 6.01336C7.60358 5.31165 6.72078 5.05133 5.99643 5.40219L1.71826 7.50732L1.86539 7.97136C6.44915 21.9716 19.759 22.1301 19.8948 22.1301ZM3.09111 8.0942C7.11122 19.5842 17.1452 20.8399 19.4308 20.9756L20.257 17.252C20.3023 17.0483 20.1778 16.8333 19.9741 16.7767L15.843 15.5317C15.4695 15.4299 15.0281 15.4299 14.7565 16.1655C14.6546 16.4372 14.4396 16.6522 14.1793 16.7654C13.9077 16.8786 13.6021 16.8672 13.3418 16.7541C11.4064 15.8599 9.81057 14.615 8.59955 13.0305C8.42978 12.8041 8.35056 12.5098 8.39583 12.2269C8.4411 11.9439 8.61087 11.6836 8.84855 11.5252C9.50499 11.0838 9.39181 10.6311 9.1994 10.3028L7.02636 6.60189C6.91318 6.40948 6.68683 6.34158 6.49442 6.43212L3.09111 8.0942Z" fill="#002341"/>
</svg>
