<svg width="24" height="24" viewBox="0 0 24 24" fill="none" xmlns="http://www.w3.org/2000/svg">
<path d="M19.1 21.78H4V10.38H7.74L9.59 8.3H13.51L15.36 10.38H19.1V21.78ZM5 20.78H18.1V11.38H14.91L13.06 9.3H10.04L8.19 11.38H5V20.78Z" fill="#002341"/>
<path d="M11.43 19.47C9.5 19.47 7.93 17.9 7.93 15.97C7.93 14.04 9.5 12.47 11.43 12.47C13.36 12.47 14.93 14.04 14.93 15.97C14.93 17.9 13.36 19.47 11.43 19.47ZM11.43 13.46C10.05 13.46 8.93 14.58 8.93 15.96C8.93 17.34 10.05 18.46 11.43 18.46C12.81 18.46 13.93 17.34 13.93 15.96C13.93 14.58 12.81 13.46 11.43 13.46Z" fill="#002341"/>
<path d="M11.43 6.67C11.15 6.67 10.93 6.45 10.93 6.17V2.5C10.93 2.22 11.15 2 11.43 2C11.71 2 11.93 2.22 11.93 2.5V6.17C11.93 6.45 11.71 6.67 11.43 6.67Z" fill="#002341"/>
<path d="M13.99 7.21C13.9 7.21 13.81 7.19 13.73 7.14C13.49 7 13.41 6.69 13.56 6.45L15.27 3.58C15.41 3.34 15.72 3.27 15.96 3.41C16.2 3.55 16.28 3.86 16.13 4.1L14.42 6.97C14.33 7.13 14.16 7.21 13.99 7.21Z" fill="#002341"/>
<path d="M8.89 7.21C8.72 7.21 8.55 7.12 8.46 6.97L6.75 4.1C6.61 3.86 6.69 3.56 6.92 3.41C7.15 3.27 7.46 3.34 7.61 3.58L9.32 6.45C9.46 6.69 9.38 6.99 9.15 7.14C9.07 7.19 8.98 7.21 8.89 7.21Z" fill="#002341"/>
</svg>
