<svg width="24" height="24" viewBox="0 0 24 24" fill="none" xmlns="http://www.w3.org/2000/svg">
<path fill-rule="evenodd" clip-rule="evenodd" d="M16.83 4H20C21.1 4 22 4.9 22 6V18C22 19.1 21.1 20 20 20H4C2.9 20 2 19.1 2 18V6C2 4.9 2.9 4 4 4H7.17L8.4 2.65C8.78 2.24 9.32 2 9.88 2H14.12C14.68 2 15.22 2.24 15.59 2.65L16.83 4ZM7 12C7 14.76 9.24 17 12 17C14.76 17 17 14.76 17 12C17 9.24 14.76 7 12 7C9.24 7 7 9.24 7 12ZM15 12C15 13.6569 13.6569 15 12 15C10.3431 15 9 13.6569 9 12C9 10.3431 10.3431 9 12 9C13.6569 9 15 10.3431 15 12Z" fill="#1C3553"/>
</svg>
94L5.42734 15.4274Z" fill="#1C3553"/>
<circle cx="14.0265" cy="14.8882" r="2.36587" fill="#1C3553"/>
<path fill-rule="evenodd" clip-rule="evenodd" d="M14.2501 18.43C13.998 18.643 13.8428 18.9337 13.8428 19.2541C13.8428 19.7692 14.2441 20.2074 14.8042 20.3698V20.437H29.2212V18.0712H15.5973C15.1869 18.2741 14.7315 18.4001 14.2501 18.43Z" fill="#1C3553"/>
</g>
<defs>
<clipPath id="clip0_8808_36106">
<rect width="24" height="24" fill="white"/>
</clipPath>
</defs>
</svg>
