<svg width="24" height="24" viewBox="0 0 24 24" fill="none" xmlns="http://www.w3.org/2000/svg">
<path fill-rule="evenodd" clip-rule="evenodd" d="M4 9.88668L4.00004 9.8688C3.99879 9.68206 4.02524 9.51098 4.07939 9.35213C4.16004 9.10751 4.30348 8.89301 4.51577 8.69683C5.79759 7.51207 7.07726 6.32385 8.35635 5.13617L8.35679 5.13576C9.32457 4.23715 10.2923 3.33853 11.2613 2.44115C11.5807 2.14541 11.8938 1.99938 12.2061 2C12.5185 1.99938 12.8316 2.14541 13.1509 2.44115C14.1197 3.33833 15.0873 4.23675 16.0548 5.13516L16.0569 5.13712L16.057 5.13716C17.3359 6.32469 18.6148 7.51221 19.8965 8.69683C20.1088 8.893 20.2522 9.1075 20.3329 9.35211C20.387 9.51096 20.4135 9.68204 20.4122 9.86878L20.4123 9.88668C20.4066 12.4373 20.4071 14.9881 20.4076 17.5388C20.4078 18.5799 20.408 19.621 20.4078 20.6621C20.4078 21.5084 19.9216 21.998 19.0773 21.999C18.385 22 17.6926 22.0002 17.0002 22H7.00017C6.44508 22.0001 5.89001 21.9998 5.33498 21.999C4.49063 21.998 4.00449 21.5084 4.00449 20.6621C4.0043 19.7587 4.00442 18.8553 4.00459 17.9519L7.44995 14.5L10.0545 17.1046C10.3633 17.4133 10.862 17.4133 11.1708 17.1046L15.5962 12.6871L16.7362 13.8271C16.9816 14.0725 17.4091 13.8983 17.4091 13.55V10.1458C17.417 9.92417 17.2429 9.75 17.0212 9.75H13.625C13.2687 9.75 13.0945 10.1775 13.34 10.4229L14.48 11.5629L10.6166 15.4263L8.01204 12.8217C7.70329 12.5129 7.20454 12.5129 6.89579 12.8217L4.00494 15.7173C4.00505 13.7738 4.00431 11.8302 4 9.88668Z" fill="#1C3553"/>
</svg>
