<svg width="24" height="24" viewBox="0 0 24 24" fill="none" xmlns="http://www.w3.org/2000/svg">
<path d="M18.1759 8.87217L18.8494 11.4863H18.8266C18.9065 11.7945 18.7238 12.1028 18.4156 12.1827C18.3699 12.2055 18.3243 12.2055 18.2786 12.2055C18.0275 12.2055 17.7992 12.0343 17.7307 11.7717L17.354 10.2991L13.0731 16.0183C12.9704 16.1553 12.822 16.2352 12.6622 16.2466H12.6165C12.4681 16.2466 12.3311 16.1895 12.2284 16.0868L9.08912 13.1416L6.10966 16.0754C5.88135 16.3037 5.52747 16.3037 5.29916 16.0754C5.07085 15.8471 5.07085 15.4818 5.29916 15.2649L8.67816 11.9544C8.89505 11.7489 9.24893 11.7489 9.46583 11.9544L12.5366 14.8311L16.3836 9.69409L14.9339 9.81966C14.6256 9.84249 14.3403 9.61418 14.3174 9.29455C14.2946 8.97491 14.5229 8.70094 14.8425 8.67811L17.5709 8.4498C17.8677 8.41555 18.1074 8.5982 18.1759 8.87217Z" fill="#002341"/>
<path fill-rule="evenodd" clip-rule="evenodd" d="M2 21.2809H22V7.1028L13.0845 2.33111C12.4566 1.88591 11.5434 1.88591 10.9726 2.29686L2 7.11422V21.2809ZM20.8584 20.1393H3.14155V7.79915L11.5776 3.2786C11.8059 3.10737 12.1941 3.10737 12.4909 3.31285L20.8584 7.79915V20.1393Z" fill="#002341"/>
</svg>
