<svg width="24" height="24" viewBox="0 0 24 24" fill="none" xmlns="http://www.w3.org/2000/svg">
<path d="M4.00004 9.8688C4 9.87474 3.99999 9.88071 4 9.88668C4.00566 12.4373 4.00517 14.9881 4.00467 17.5388C4.00447 18.5799 4.00427 19.621 4.00449 20.6621C4.00449 21.5084 4.49063 21.998 5.33498 21.999C5.89001 21.9998 6.44508 22.0001 7.00017 22H17.0002C17.6926 22.0002 18.385 22 19.0773 21.999C19.9216 21.998 20.4078 21.5084 20.4078 20.6621C20.408 19.621 20.4078 18.5799 20.4076 17.5388C20.4071 14.9881 20.4066 12.4373 20.4123 9.88668C20.4123 9.8807 20.4123 9.87473 20.4122 9.86878C20.4135 9.68204 20.387 9.51096 20.3329 9.35211C20.2522 9.1075 20.1088 8.893 19.8965 8.69683C18.6148 7.5122 17.3359 6.32466 16.0569 5.13712L16.0548 5.13516C15.0873 4.23675 14.1197 3.33833 13.1509 2.44115C12.8316 2.14541 12.5185 1.99938 12.2061 2C11.8938 1.99938 11.5807 2.14541 11.2613 2.44115C10.2922 3.33866 9.32427 4.23742 8.35635 5.13617C7.07726 6.32385 5.79759 7.51207 4.51577 8.69683C4.30348 8.89301 4.16004 9.10751 4.07939 9.35213C4.02524 9.51098 3.99879 9.68206 4.00004 9.8688Z" fill="#1C3553"/>
<path d="M13.3398 10.4229L14.4798 11.5629L10.6165 15.4262L8.01187 12.8217C7.70312 12.5129 7.20437 12.5129 6.89562 12.8217L2.14562 17.5796C1.83688 17.8883 1.83688 18.3871 2.14562 18.6958C2.45437 19.0046 2.95312 19.0046 3.26187 18.6958L7.44979 14.5L10.0544 17.1046C10.3631 17.4133 10.8619 17.4133 11.1706 17.1046L15.596 12.6871L16.736 13.8271C16.9815 14.0725 17.409 13.8983 17.409 13.55V10.1458C17.4169 9.92417 17.2427 9.75 17.021 9.75H13.6248C13.2685 9.75 13.0944 10.1775 13.3398 10.4229Z" fill="white"/>
</svg>
