<svg width="24" height="24" viewBox="0 0 24 24" fill="none" xmlns="http://www.w3.org/2000/svg">
<path d="M7 20V19H17V20C17 20.55 17.45 21 18 21C18.55 21 19 20.55 19 20V13.69C19 13.69 17.66 9.66 17.44 9C17.39 8.84 17.32 8.71 17.25 8.6C17.23 8.58 17.22 8.56 17.2 8.53C16.82 8.01 16.28 8 16.28 8H7.72C7.72 8 7.18 8.01 6.8 8.54C6.78 8.56 6.77 8.58 6.75 8.6C6.68 8.71 6.61 8.84 6.56 9C6.34 9.66 5 13.69 5 13.69V20C5 20.55 5.45 21 6 21C6.55 21 7 20.55 7 20ZM9 16.5C8.45 16.5 8 16.05 8 15.5C8 14.95 8.45 14.5 9 14.5C9.55 14.5 10 14.95 10 15.5C10 16.05 9.55 16.5 9 16.5ZM15 16.5C14.45 16.5 14 16.05 14 15.5C14 14.95 14.45 14.5 15 14.5C15.55 14.5 16 14.95 16 15.5C16 16.05 15.55 16.5 15 16.5ZM8.33 10H15.67L15.9 10.69L16.33 12H7.67L8.33 10Z" fill="#1C3553"/>
<rect x="1" y="3" width="2" height="18" rx="1" fill="#1C3553"/>
<rect y="4" width="2" height="24" rx="1" transform="rotate(-90 0 4)" fill="#1C3553"/>
<rect x="21" y="3" width="2" height="18" rx="1" fill="#1C3553"/>
</svg>
