<svg width="24" height="24" viewBox="0 0 24 24" fill="none" xmlns="http://www.w3.org/2000/svg">
<path d="M18.09 12L17.07 9.02C16.87 8.43 16.31 8.03 15.69 8.03H9.06C8.43 8.03 7.87 8.43 7.67 9.03L6.7 12C6.7 12 6.7 12.03 6.7 12.05C6.7 12.08 6.68 12.12 6.68 12.15V16.05C6.68 16.72 7.13 17.28 7.74 17.46V18.74C7.74 19.2 8.11 19.57 8.57 19.57C9.03 19.57 9.4 19.2 9.4 18.74V17.52H15.39V18.74C15.39 19.2 15.76 19.57 16.22 19.57C16.68 19.57 17.05 19.2 17.05 18.74V17.46C17.66 17.28 18.11 16.72 18.11 16.05V12.15C18.11 12.15 18.1 12.07 18.09 12.04C18.09 12.02 18.09 12.01 18.09 11.99V12ZM8.61 9.35C8.67 9.16 8.85 9.03 9.05 9.03H15.68C15.88 9.03 16.05 9.15 16.12 9.34L16.91 11.66H7.85L8.61 9.35ZM17.11 16.06C17.11 16.32 16.9 16.54 16.63 16.54H8.14C7.88 16.54 7.66 16.33 7.66 16.06V12.66H17.11V16.06Z" fill="#002341"/>
<path d="M10.06 15.3C10.63 15.3 11.09 14.84 11.09 14.27C11.09 13.7 10.63 13.24 10.06 13.24C9.49 13.24 9.03 13.7 9.03 14.27C9.03 14.84 9.49 15.3 10.06 15.3Z" fill="#002341"/>
<path d="M14.72 15.3C15.29 15.3 15.75 14.84 15.75 14.27C15.75 13.7 15.29 13.24 14.72 13.24C14.15 13.24 13.69 13.7 13.69 14.27C13.69 14.84 14.15 15.3 14.72 15.3Z" fill="#002341"/>
<path d="M22.28 4.5H2.5C2.22 4.5 2 4.72 2 5C2 5.28 2.22 5.5 2.5 5.5H3.55V19.14C3.55 19.42 3.77 19.64 4.05 19.64C4.33 19.64 4.55 19.42 4.55 19.14V5.5H20.22V19.14C20.22 19.42 20.44 19.64 20.72 19.64C21 19.64 21.22 19.42 21.22 19.14V5.5H22.28C22.56 5.5 22.78 5.28 22.78 5C22.78 4.72 22.56 4.5 22.28 4.5Z" fill="#002341"/>
</svg>
