<svg width="24" height="24" viewBox="0 0 24 24" fill="none" xmlns="http://www.w3.org/2000/svg">
<path d="M7.6001 8.70996H6.6001V17.64H7.6001V8.70996Z" fill="#002341"/>
<path fill-rule="evenodd" clip-rule="evenodd" d="M12.54 17.95C12.54 16.54 13.68 15.4 15.09 15.4C16.5 15.4 17.64 16.54 17.64 17.95C17.64 19.36 16.5 20.5 15.09 20.5C13.68 20.5 12.54 19.36 12.54 17.95ZM13.54 17.95C13.54 18.8 14.23 19.5 15.09 19.5C15.94 19.5 16.64 18.8 16.64 17.95C16.64 17.1 15.94 16.4 15.09 16.4C14.24 16.4 13.54 17.1 13.54 17.95Z" fill="#002341"/>
<path fill-rule="evenodd" clip-rule="evenodd" d="M21.85 17.4C21.05 16.45 20.21 15.69 19.36 15.11V4.5C19.36 4.22 19.14 4 18.86 4H2.5C2.22 4 2 4.22 2 4.5V20.07C2 20.35 2.22 20.57 2.5 20.57H10.83C12.22 21.62 13.64 22.15 15.1 22.15H15.36C19.163 21.9825 21.6943 18.2721 21.8735 18.0095L21.88 18L22.09 17.69L21.85 17.41V17.4ZM3 5H18.35V14.53C17.34 14.03 16.3 13.76 15.23 13.76H15.13C15.0402 13.76 14.9503 13.7696 14.8638 13.7788C14.8251 13.7829 14.7871 13.7869 14.75 13.79V11.09H13.75V13.92C12.79 14.13 11.92 14.52 11.17 14.97V6.93H10.17V15.65C9.05 16.5 8.36 17.34 8.31 17.41L8.06 17.72L8.31 18.03C8.76 18.61 9.23 19.11 9.69 19.57H3V5ZM15.32 21.14C13.32 21.21 11.3 20.08 9.36 17.73C10.1 16.93 12.34 14.8 15.16 14.76C17.18 14.75 19.04 15.74 20.83 17.75C20.17 18.61 18.09 21.03 15.32 21.15V21.14Z" fill="#002341"/>
</svg>
