<svg width="24" height="24" viewBox="0 0 24 24" fill="none" xmlns="http://www.w3.org/2000/svg">
<path fill-rule="evenodd" clip-rule="evenodd" d="M15.1254 4.63578C13.4965 3.94444 11.6842 3.81271 9.97243 4.26121C8.26062 4.7097 6.74582 5.71311 5.66513 7.11437C4.58443 8.51564 3.99884 10.2357 4 12.0053C4.00117 13.7749 4.58902 15.4941 5.67156 16.894C6.7541 18.2938 8.27021 19.2952 9.98261 19.7415C11.695 20.1877 13.507 20.0536 15.1351 19.3601C16.7631 18.6666 18.1153 17.4529 18.98 15.909C19.8446 14.365 20.173 12.5779 19.9136 10.8275C19.8327 10.2811 20.2099 9.77263 20.7562 9.69169C21.3026 9.61074 21.8111 9.988 21.892 10.5343C22.2162 12.7224 21.8058 14.9563 20.725 16.8862C19.6441 18.8162 17.9539 20.3333 15.9189 21.2001C13.8838 22.067 11.6188 22.2346 9.47827 21.6768C7.33777 21.119 5.44262 19.8673 4.08945 18.1175C2.73628 16.3676 2.00146 14.2186 2 12.0066C1.99855 9.7946 2.73054 7.64455 4.08141 5.89297C5.43228 4.14139 7.32578 2.88713 9.46554 2.32651C11.6053 1.76589 13.8706 1.93055 15.9068 2.79472C16.4152 3.01049 16.6524 3.59753 16.4366 4.10593C16.2208 4.61432 15.6338 4.85154 15.1254 4.63578Z" fill="#1C3553"/>
<path fill-rule="evenodd" clip-rule="evenodd" d="M7.70021 11.03L11.2902 14.62C11.6802 15.01 12.3202 15.01 12.7002 14.62L21.5803 5.73984C21.9703 5.34984 21.9703 4.71983 21.5803 4.32984C21.1903 3.93984 20.5603 3.93984 20.1703 4.32984L12.0002 12.5L9.11022 9.62C8.72022 9.23 8.09021 9.23 7.70021 9.62C7.31021 10.01 7.31021 10.64 7.70021 11.03Z" fill="#1C3553"/>
</svg>
