<svg width="24" height="24" viewBox="0 0 24 24" fill="none" xmlns="http://www.w3.org/2000/svg">
<path fill-rule="evenodd" clip-rule="evenodd" d="M5.20038 18.7983C7.11862 20.7166 9.63843 21.67 12.1582 21.67C14.6781 21.67 17.1979 20.7166 19.1161 18.7983C21.4657 16.4488 22.4645 13.1117 21.7948 9.85414C21.7381 9.54767 21.4316 9.35471 21.1252 9.41147C20.8187 9.47957 20.6257 9.77468 20.6825 10.0811C21.2727 12.9528 20.3874 15.9153 18.3102 17.9925C14.9164 21.3863 9.40007 21.3863 6.00627 17.9925C2.61247 14.5987 2.61247 9.07095 6.00627 5.6885C8.04936 3.64541 10.9664 2.76007 13.8154 3.30489C14.1219 3.36164 14.4284 3.15734 14.4851 2.85087C14.5419 2.53306 14.3375 2.23794 14.0311 2.18119C10.8302 1.55691 7.51589 2.56711 5.20038 4.88261C1.37526 8.71909 1.37526 14.9505 5.20038 18.7983ZM11.3974 14.6328C11.4996 14.7236 11.6245 14.769 11.7607 14.769L11.7493 14.7463H11.8174C11.965 14.7236 12.1125 14.6441 12.2033 14.5193L18.9909 5.51833C19.1725 5.26861 19.1271 4.91675 18.8774 4.72379C18.6277 4.54218 18.2759 4.58758 18.0829 4.8373L11.6585 13.3729L8.08309 10.4104C7.84473 10.2174 7.49287 10.2515 7.28856 10.4899C7.0956 10.7282 7.12965 11.0801 7.36801 11.2844L11.3974 14.6328Z" fill="#002341"/>
</svg>
