<svg width="24" height="24" viewBox="0 0 24 24" fill="none" xmlns="http://www.w3.org/2000/svg">
<path d="M12 2C6.48 2 2 6.48 2 12C2 17.52 6.48 22 12 22C17.52 22 22 17.52 22 12C22 6.48 17.52 2 12 2ZM17.17 8.33L11.19 16.26C11.11 16.37 10.98 16.44 10.85 16.46C10.83 16.46 10.81 16.46 10.79 16.46C10.67 16.46 10.56 16.42 10.47 16.34L6.92 13.39C6.71 13.21 6.68 12.9 6.85 12.69C7.03 12.48 7.34 12.45 7.55 12.62L10.7 15.23L16.37 7.72C16.54 7.5 16.85 7.46 17.07 7.62C17.29 7.79 17.33 8.1 17.17 8.32V8.33Z" fill="#002341"/>
</svg>
