<svg width="24" height="24" viewBox="0 0 24 24" fill="none" xmlns="http://www.w3.org/2000/svg">
<path d="M11.9099 8.15998C12.0399 8.15998 12.1699 8.21998 12.2599 8.30998H12.2699L15.6399 11.7C15.8399 11.9 15.8399 12.21 15.6399 12.41C15.4399 12.61 15.1299 12.61 14.9299 12.41L12.4099 9.87998V15.52C12.4099 15.8 12.1899 16.02 11.9099 16.02C11.6299 16.02 11.4099 15.8 11.4099 15.52V9.87998L8.88986 12.41C8.79986 12.51 8.66986 12.56 8.53986 12.56C8.40986 12.56 8.28986 12.51 8.18986 12.41C7.99986 12.21 7.99986 11.9 8.18986 11.7L11.5599 8.30998C11.6499 8.21998 11.7799 8.15998 11.9099 8.15998Z" fill="#002341"/>
<path fill-rule="evenodd" clip-rule="evenodd" d="M10.7699 5.04998C13.1299 4.76998 15.9599 5.73998 16.8399 8.48998V8.49998C20.5399 8.59998 22.5699 10.22 22.5699 13.09C22.5699 16.96 19.4099 18.34 16.4599 18.34H5.88986C4.30986 18.34 2.94986 17.73 2.03986 16.62C1.18986 15.58 0.829862 14.23 1.07986 12.99C1.52986 10.74 4.08986 10.3 5.39986 10.23C5.64986 7.07998 8.29986 5.33998 10.7699 5.04998ZM5.87986 17.33H16.4599L16.4699 17.34C17.6699 17.34 21.5799 17.03 21.5799 13.09C21.5799 10.7 19.8599 9.48998 16.4699 9.48998C16.2299 9.48998 16.0299 9.32998 15.9799 9.10998C15.4499 6.91998 13.4999 5.99998 11.5999 5.99998C11.3699 5.99998 11.1299 6.00998 10.8999 6.03998C8.64986 6.29998 6.38986 7.84998 6.38986 10.71C6.38986 10.99 6.16986 11.21 5.88986 11.21C5.07986 11.21 2.42986 11.35 2.05986 13.18C1.86986 14.12 2.15986 15.19 2.80986 15.98C3.30986 16.59 4.25986 17.33 5.87986 17.33Z" fill="#002341"/>
</svg>
