<svg width="24" height="24" viewBox="0 0 24 24" fill="none" xmlns="http://www.w3.org/2000/svg">
<path d="M14.92 11.77C15.12 11.57 15.43 11.58 15.63 11.77H15.61C15.8 11.97 15.8 12.28 15.61 12.48L12.24 15.87C12.2 15.92 12.14 15.95 12.08 15.98C12.02 16.01 11.95 16.02 11.89 16.02C11.83 16.02 11.76 16.01 11.7 15.98C11.64 15.95 11.59 15.92 11.54 15.87L8.16995 12.48C7.96995 12.28 7.96995 11.96 8.16995 11.77C8.36995 11.57 8.67995 11.57 8.87995 11.77L11.4 14.3V8.65997C11.4 8.37997 11.62 8.15997 11.9 8.15997C12.18 8.15997 12.4 8.37997 12.4 8.65997V14.3L14.92 11.77Z" fill="#002341"/>
<path fill-rule="evenodd" clip-rule="evenodd" d="M5.87995 18.33H16.46L16.45 18.34C19.4 18.34 22.56 16.96 22.56 13.09C22.56 10.23 20.53 8.59997 16.83 8.49997C15.96 5.73997 13.12 4.76997 10.77 5.04997C8.29995 5.33997 5.64995 7.07997 5.39995 10.23C4.09995 10.3 1.52995 10.74 1.07995 12.99C0.829954 14.23 1.18995 15.58 2.02995 16.61C2.93995 17.72 4.30995 18.33 5.87995 18.33ZM10.89 6.03997C11.12 6.00997 11.35 5.99997 11.59 5.99997L11.57 5.97997C13.48 5.97997 15.42 6.89997 15.95 9.08997C16.01 9.30997 16.21 9.46997 16.44 9.46997C19.83 9.46997 21.55 10.68 21.55 13.07C21.55 17.01 17.64 17.32 16.44 17.32H5.86995C4.60995 17.32 3.50995 16.84 2.79995 15.97C2.14995 15.18 1.85995 14.11 2.04995 13.18C2.41995 11.35 5.07995 11.21 5.87995 11.21C6.15995 11.21 6.37995 10.99 6.37995 10.71C6.37995 7.84997 8.64995 6.30997 10.89 6.03997Z" fill="#002341"/>
</svg>
