<svg width="24" height="24" viewBox="0 0 24 24" fill="none" xmlns="http://www.w3.org/2000/svg">
<path d="M12.6754 15.9808C12.6754 15.5617 13.0305 15.2183 13.4671 15.2183C13.9036 15.2183 14.2587 15.5559 14.2587 15.9808V19.1532L13.4671 20.5269L12.6754 19.1532V15.9808Z" fill="#002341"/>
<path d="M4.5751 16.0041C4.5751 15.585 4.93017 15.2416 5.36673 15.2416C5.80329 15.2416 6.15836 15.5792 6.15836 16.0041V19.1532L5.36673 20.4978L4.5751 19.1532V16.0041Z" fill="#002341"/>
<path fill-rule="evenodd" clip-rule="evenodd" d="M5.36174 2C5.55136 2 5.70508 2.15372 5.70508 2.34333V3.00125H6.24086C6.43048 3.00125 6.58419 3.15497 6.58419 3.34459C6.58419 3.53421 6.43048 3.68792 6.24086 3.68792H5.70508V4.3457L5.70504 4.35067L7.74429 11.5913L8.09287 11.0773C8.17751 10.9525 8.33367 10.8975 8.47782 10.9418C8.62197 10.986 8.72036 11.1192 8.72036 11.27V18.7376L10.0513 18.7376V11.2549C10.0513 11.1041 10.1496 10.971 10.2938 10.9267C10.4379 10.8824 10.594 10.9373 10.6787 11.0621L11.0356 11.5877L13.0496 4.36037C13.0494 4.3555 13.0493 4.35061 13.0493 4.3457V3.68792H12.4611C12.2715 3.68792 12.1178 3.53421 12.1178 3.34459C12.1178 3.15497 12.2715 3.00125 12.4611 3.00125H13.0493V2.34333C13.0493 2.15372 13.203 2 13.3926 2C13.5822 2 13.736 2.15372 13.736 2.34333V3.00125H14.2714C14.461 3.00125 14.6148 3.15497 14.6148 3.34459C14.6148 3.53421 14.461 3.68792 14.2714 3.68792H13.736V4.28079C13.738 4.28666 13.7399 4.29262 13.7416 4.29865L15.7901 11.5723L16.1347 11.0626C16.2193 10.9376 16.3755 10.8824 16.5197 10.9266C16.664 10.9708 16.7625 11.104 16.7625 11.2549V18.7376L20.3683 18.7376C20.5072 18.7376 20.6268 18.82 20.6809 18.9386L22.8956 22.0399C22.9719 22.149 22.9741 22.288 22.913 22.3983C22.8591 22.5173 22.7393 22.6 22.6002 22.6L2.34333 22.6C2.15372 22.6 2 22.4463 2 22.2567C2 22.2236 2.00469 22.1916 2.01343 22.1613C2.00683 22.1347 2.00333 22.1069 2.00333 22.0783V11.27C2.00333 11.1192 2.10169 10.9861 2.2458 10.9418C2.38991 10.8975 2.54605 10.9524 2.63073 11.0771L2.98232 11.595L5.01537 4.29943L5.01841 4.28924V3.68792H4.43059C4.24097 3.68792 4.08725 3.53421 4.08725 3.34459C4.08725 3.15497 4.24097 3.00125 4.43059 3.00125H5.01841V2.34333C5.01841 2.15372 5.17212 2 5.36174 2ZM21.9248 21.9134L20.1819 19.4242L16.4677 19.4242C16.4182 19.4242 16.3712 19.4138 16.3287 19.3949C16.183 19.3552 16.0758 19.2219 16.0758 19.0637V12.3757L14.7594 14.3227C14.6933 14.4206 14.5814 14.4775 14.4633 14.4735C14.3452 14.4695 14.2375 14.405 14.1782 14.3029L13.3787 12.927L12.6403 14.2829C12.583 14.3881 12.4751 14.4558 12.3555 14.4617C12.236 14.4675 12.122 14.4106 12.0547 14.3116L10.738 12.3719V19.0657C10.738 19.096 10.734 19.1254 10.7267 19.1534C10.6934 19.3082 10.5558 19.4242 10.391 19.4242L8.3786 19.4242C8.18898 19.4242 8.03527 19.2705 8.03527 19.0809C8.03527 19.0702 8.03576 19.0596 8.03672 19.0491C8.03472 19.0341 8.03369 19.0189 8.03369 19.0033V12.388L6.71122 14.3382C6.64487 14.436 6.53286 14.4928 6.41473 14.4886C6.2966 14.4843 6.18896 14.4196 6.1298 14.3173L5.33498 12.9421L4.59195 14.2987C4.5345 14.4036 4.42663 14.4711 4.30718 14.4768C4.18773 14.4825 4.07392 14.4256 4.00676 14.3267L2.69 12.387V21.9134H21.9248ZM5.35478 5.66118L7.23603 12.3408L6.45027 13.4995L5.62418 12.0702C5.56212 11.9629 5.44698 11.8973 5.32297 11.8987C5.19897 11.9002 5.08537 11.9684 5.0258 12.0771L4.25946 13.4763L3.49199 12.3458L5.35478 5.66118ZM11.5452 12.3385L13.406 5.66118L15.2823 12.3234L14.497 13.4848L13.6659 12.0545C13.6036 11.9472 13.4883 11.882 13.3643 11.8837C13.2403 11.8854 13.1269 11.9538 13.0675 12.0628L12.3066 13.46L11.5452 12.3385Z" fill="#002341"/>
</svg>
