<svg width="24" height="24" viewBox="0 0 24 24" fill="none" xmlns="http://www.w3.org/2000/svg">
<path fill-rule="evenodd" clip-rule="evenodd" d="M4.64103 7.88462H15.0256V8.84615C15.0256 9.20513 15.3077 9.48718 15.6667 9.48718C16.0256 9.48718 16.3077 9.20513 16.3077 8.84615V7.88462H19.359C19.7179 7.88462 20 7.60256 20 7.24359C20 6.88462 19.7179 6.60256 19.359 6.60256H16.3077V5.64103C16.3077 5.28205 16.0256 5 15.6667 5C15.3077 5 15.0256 5.28205 15.0256 5.64103V6.60256H4.64103C4.28205 6.60256 4 6.88462 4 7.24359C4 7.60256 4.28205 7.88462 4.64103 7.88462ZM19.3462 11.4488H8.97436V10.4872C8.97436 10.1283 8.69231 9.84622 8.33333 9.84622C7.97436 9.84622 7.69231 10.1283 7.69231 10.4872V11.4488H4.64103C4.28205 11.4488 4 11.7308 4 12.0898C4 12.4488 4.28205 12.7308 4.64103 12.7308H7.69231V13.6924C7.69231 14.0514 7.97436 14.3334 8.33333 14.3334C8.69231 14.3334 8.97436 14.0514 8.97436 13.6924V12.7308H19.3462C19.7051 12.7308 19.9872 12.4488 19.9872 12.0898C19.9872 11.7308 19.7051 11.4488 19.3462 11.4488ZM12.6282 16.2949H19.3462H19.359C19.7179 16.2949 20 16.5769 20 16.9359C20 17.2949 19.7179 17.5769 19.359 17.5769H12.641V18.5385C12.641 18.8974 12.359 19.1795 12 19.1795C11.641 19.1795 11.359 18.8974 11.359 18.5385V17.5769H4.64103C4.28205 17.5769 4 17.2949 4 16.9359C4 16.5769 4.28205 16.2949 4.64103 16.2949H11.3462V15.3333C11.3462 14.9744 11.6282 14.6923 11.9872 14.6923C12.3462 14.6923 12.6282 14.9744 12.6282 15.3333V16.2949Z" fill="#002341"/>
</svg>
