<svg width="24" height="24" viewBox="0 0 24 24" fill="none" xmlns="http://www.w3.org/2000/svg">
<path d="M9.93 5V6.76L9.85 6.68C8 4.83 4.99 4.83 3.15 6.67C3.06 6.76 3 6.89 3 7.02C3 7.15 3.05 7.28 3.15 7.37L4.92 9.14C5.03 9.25 5.17 9.3 5.33 9.28L6.33 9.17L6.38 10.4C6.38 10.53 6.44 10.65 6.53 10.73L7.76 11.95C7.87 12.1 8.46 12.84 9.11 12.89C9.38 12.9 9.64 12.81 9.83 12.62C9.86 12.59 9.9 12.55 9.94 12.51V14.77H6.75C6.47 14.77 6.25 14.99 6.25 15.27V17.36C6.25 18.72 7.36 19.83 8.72 19.83H18.2C19.56 19.83 20.67 18.72 20.67 17.36V5H9.93ZM9.17 11.91C9.05 11.9 8.74 11.63 8.5 11.32L7.36 10.18L7.3 8.61C7.3 8.47 7.23 8.34 7.13 8.25C7.03 8.16 6.88 8.12 6.75 8.13L5.46 8.27L4.24 7.05C5.7 5.93 7.81 6.04 9.15 7.38L11.39 9.62C10.95 10.08 9.55 11.51 9.18 11.91H9.17ZM8.7 18.84C7.89 18.84 7.23 18.18 7.23 17.37V15.78H15.71V17.37C15.71 17.92 15.89 18.43 16.2 18.84H8.7ZM19.65 17.37C19.65 18.18 18.99 18.84 18.18 18.84C17.37 18.84 16.71 18.18 16.71 17.37V15.28C16.71 15 16.49 14.78 16.21 14.78H10.92V11.51C11.38 11.04 11.85 10.56 12.08 10.33L15.67 13.92C15.77 14.02 15.9 14.07 16.02 14.07C16.14 14.07 16.28 14.02 16.37 13.92C16.57 13.72 16.57 13.41 16.37 13.21L10.93 7.76V6H19.66V17.38L19.65 17.37Z" fill="#002341"/>
</svg>
