<svg width="24" height="24" viewBox="0 0 24 24" fill="none" xmlns="http://www.w3.org/2000/svg">
<path d="M19.22 7.42997C19.22 7.42997 19.22 7.40997 19.22 7.38997C19.2 7.28997 19.15 7.20997 19.08 7.13997L14.08 2.14997C14.02 2.08997 13.94 2.04997 13.85 2.02997C13.83 2.02997 13.81 2.02997 13.79 2.01997C13.77 2.01997 13.75 2.00997 13.72 2.00997H4.5C4.22 1.99997 4 2.21997 4 2.49997V21.79C4 22.07 4.22 22.29 4.5 22.29H18.74C19.02 22.29 19.24 22.07 19.24 21.79V7.49997C19.24 7.49997 19.23 7.44997 19.22 7.41997V7.42997ZM14.22 3.70997L17.53 7.01997H14.21L14.22 3.70997ZM5 21.29V2.99997H13.23L13.21 7.51997C13.21 7.64997 13.26 7.77997 13.36 7.87997C13.45 7.96997 13.58 8.02997 13.71 8.02997L18.24 8.00997V21.29H5Z" fill="#002341"/>
</svg>
