<svg width="24" height="24" viewBox="0 0 24 24" fill="none" xmlns="http://www.w3.org/2000/svg">
<path fill-rule="evenodd" clip-rule="evenodd" d="M10.4553 2.98303H3.53025C3.23331 2.98303 3 3.21634 3 3.51328V12.6548C3 12.9517 3.23331 13.185 3.53025 13.185H10.4553C10.7522 13.185 10.9855 12.9517 10.9855 12.6548V3.51328C10.9855 3.21634 10.7522 2.98303 10.4553 2.98303ZM9.92504 12.1245H4.0605V4.04353H9.92504V12.1245Z" fill="#002341"/>
<path fill-rule="evenodd" clip-rule="evenodd" d="M13.0747 2.98303H19.9997C20.2967 2.98303 20.53 3.21634 20.53 3.51328V8.60366C20.53 8.9006 20.2967 9.13391 19.9997 9.13391H13.0747C12.7777 9.13391 12.5444 8.9006 12.5444 8.60366V3.51328C12.5444 3.21634 12.7777 2.98303 13.0747 2.98303ZM13.6049 8.07341H19.4695V4.04353H13.6049V8.07341Z" fill="#002341"/>
<path fill-rule="evenodd" clip-rule="evenodd" d="M13.0747 10.6079H19.9997C20.2967 10.6079 20.53 10.8412 20.53 11.1382V20.2796C20.53 20.5766 20.2967 20.8099 19.9997 20.8099H13.0747C12.7777 20.8099 12.5444 20.5766 12.5444 20.2796V11.1382C12.5444 10.8412 12.7777 10.6079 13.0747 10.6079ZM13.6049 19.7494H19.4695V11.6684H13.6049V19.7494Z" fill="#002341"/>
<path fill-rule="evenodd" clip-rule="evenodd" d="M3.53025 14.6592H10.4553C10.7522 14.6592 10.9855 14.8925 10.9855 15.1894V20.2692C10.9855 20.5661 10.7522 20.7995 10.4553 20.7995H3.53025C3.23331 20.7995 3 20.5661 3 20.2692V15.1894C3 14.8925 3.23331 14.6592 3.53025 14.6592ZM4.0605 19.739H9.92504V15.7197H4.0605V19.739Z" fill="#002341"/>
</svg>
