<svg width="24" height="24" viewBox="0 0 24 24" fill="none" xmlns="http://www.w3.org/2000/svg">
<path d="M15.7 6.28C15.57 4.93 14.96 4 14.15 4H10.7C9.89 4 9.28 4.93 9.15 6.28H5V7.28H6.4V19.5C6.4 20.28 7.03 20.92 7.82 20.92H17.03C17.81 20.92 18.45 20.29 18.45 19.5V7.28H19.85V6.28H15.7ZM10.7 5H14.15C14.27 5 14.59 5.45 14.69 6.28H10.16C10.27 5.45 10.58 5 10.7 5ZM17.44 19.5C17.44 19.73 17.25 19.92 17.02 19.92H7.82C7.59 19.92 7.4 19.73 7.4 19.5V7.28H17.44V19.5Z" fill="#002341"/>
<path d="M12.96 8.9H11.96V17.78H12.96V8.9Z" fill="#002341"/>
<path d="M15.92 9.29H14.92V17.4H15.92V9.29Z" fill="#002341"/>
<path d="M9.99 9.29H8.99V17.4H9.99V9.29Z" fill="#002341"/>
</svg>
