<svg width="24" height="24" viewBox="0 0 24 24" fill="none" xmlns="http://www.w3.org/2000/svg">
<path fill-rule="evenodd" clip-rule="evenodd" d="M1 11.71L11.71 1L22.42 11.71L11.71 22.42L1 11.71ZM11.71 2.41L2.41 11.71L11.71 20.99L21 11.7L11.71 2.41ZM14.6999 8.66999L16.2899 10.46L16.2699 10.45C16.4399 10.64 16.4399 10.91 16.2899 11.1L14.8099 12.95C14.7099 13.08 14.5699 13.14 14.4199 13.14C14.3099 13.14 14.1999 13.1 14.1099 13.03C13.8899 12.86 13.8599 12.54 14.0299 12.33L14.8699 11.29H9.10986V14.43C9.10986 14.71 8.88986 14.93 8.60986 14.93C8.32986 14.93 8.10986 14.71 8.10986 14.43V10.79C8.10986 10.51 8.32986 10.29 8.60986 10.29H14.7899L13.9499 9.33999C13.7599 9.12999 13.7799 8.80999 13.9899 8.62999C14.1999 8.43999 14.5199 8.45999 14.6999 8.66999Z" fill="#002341"/>
</svg>
