<svg width="24" height="24" viewBox="0 0 24 24" fill="none" xmlns="http://www.w3.org/2000/svg">
<path fill-rule="evenodd" clip-rule="evenodd" d="M3 12C3 11.4477 3.57563 11 4.28571 11L19.7143 11C20.4244 11 21 11.4477 21 12C21 12.5523 20.4244 13 19.7143 13H4.28571C3.57563 13 3 12.5523 3 12Z" fill="#1C3553"/>
<path d="M14 6C14 7.1 13.1 8 12 8C10.9 8 10 7.1 10 6C10 4.9 10.9 4 12 4C13.1 4 14 4.9 14 6Z" fill="#1C3553"/>
<path d="M14 18C14 19.1 13.1 20 12 20C10.9 20 10 19.1 10 18C10 16.9 10.9 16 12 16C13.1 16 14 16.9 14 18Z" fill="#1C3553"/>
</svg>
