<svg width="24" height="24" viewBox="0 0 24 24" fill="none" xmlns="http://www.w3.org/2000/svg">
<path fill-rule="evenodd" clip-rule="evenodd" d="M19.22 7.38997V7.41997C19.23 7.44997 19.24 7.49997 19.24 7.49997V21.79C19.24 22.07 19.02 22.29 18.74 22.29H4.5C4.22 22.29 4 22.07 4 21.79V2.49997C4 2.21997 4.22 1.99997 4.5 2.00997H13.73C13.74 2.00997 13.75 2.01247 13.76 2.01497C13.77 2.01747 13.78 2.01997 13.79 2.01997C13.81 2.02997 13.83 2.02997 13.85 2.02997C13.94 2.04997 14.02 2.08997 14.08 2.14997L19.08 7.13997C19.15 7.19997 19.2 7.28997 19.22 7.38997ZM17.53 7.00997L14.22 3.69997L14.21 7.00997H17.53ZM5 21.29H18.23H18.24V8.00997L13.71 8.02997C13.58 8.02997 13.46 7.97997 13.36 7.87997C13.26 7.77997 13.21 7.64997 13.21 7.51997L13.23 2.99997H5V21.29ZM7.02002 10.73H16.23V11.73H7.02002V10.73ZM7.02002 14.15H16.23V15.15H7.02002V14.15ZM16.23 17.5601H7.02002V18.5601H16.23V17.5601Z" fill="#002341"/>
</svg>
