<svg width="24" height="24" viewBox="0 0 24 24" fill="none" xmlns="http://www.w3.org/2000/svg">
<path d="M5.00023 12.85C5.00023 9.84 6.47023 7.5 9.54023 6L10.5602 8.05C8.64023 9.01 7.68023 10.23 7.68023 12.11C7.78023 12.08 7.90023 12.08 8.00023 12.08C9.34023 12.08 10.4602 12.98 10.4602 14.41C10.4602 16.01 9.40023 17.03 8.00023 17.03C6.02023 17.03 4.99023 15.46 4.99023 12.84L5.00023 12.85ZM12.5802 12.85C12.5802 9.84 14.0502 7.51 17.1202 6L18.1402 8.05C16.2202 9.01 15.2602 10.23 15.2602 12.11C15.3602 12.08 15.4802 12.08 15.5802 12.08C16.9202 12.08 18.0402 12.98 18.0402 14.41C18.0402 16.01 16.9802 17.03 15.5802 17.03C13.6002 17.03 12.5702 15.46 12.5702 12.84L12.5802 12.85Z" fill="#002341"/>
</svg>
