<svg width="24" height="24" viewBox="0 0 24 24" fill="none" xmlns="http://www.w3.org/2000/svg">
<path d="M7.15 17.66C7.24 17.76 7.37 17.81 7.5 17.81V17.82C7.62 17.82 7.75 17.77 7.85 17.67L12.8 12.75C12.9 12.66 12.95 12.53 12.95 12.4C12.95 12.27 12.89 12.14 12.8 12.05L7.86 7.14005C7.66 6.94005 7.34 6.95005 7.15 7.14005C6.95 7.34005 6.95 7.66005 7.15 7.85005L11.73 12.4L7.15 16.95C6.96 17.15 6.95 17.46 7.15 17.66Z" fill="#002341"/>
<path d="M12.0899 17.66C12.1799 17.76 12.3099 17.81 12.4399 17.81H12.4499C12.5699 17.81 12.6999 17.76 12.7999 17.66L17.7399 12.75C17.8399 12.66 17.8899 12.53 17.8899 12.4C17.8899 12.27 17.8299 12.14 17.7399 12.05L12.7999 7.14005C12.5999 6.94005 12.2799 6.95005 12.0899 7.14005C11.8899 7.34005 11.8899 7.66005 12.0899 7.85005L16.6699 12.4L12.0899 16.95C11.8999 17.15 11.8899 17.46 12.0899 17.66Z" fill="#002341"/>
</svg>
