<svg width="24" height="24" viewBox="0 0 24 24" fill="none" xmlns="http://www.w3.org/2000/svg">
<path d="M6.2925 8.12258L10.1725 12.0026L6.2925 15.8826C5.9025 16.2726 5.9025 16.9026 6.2925 17.2926C6.6825 17.6826 7.3125 17.6826 7.7025 17.2926L12.2925 12.7026C12.6825 12.3126 12.6825 11.6826 12.2925 11.2926L7.7025 6.70258C7.3125 6.31258 6.6825 6.31258 6.2925 6.70258C5.9125 7.09258 5.9025 7.73258 6.2925 8.12258Z" fill="#1C3553"/>
<path d="M12.2925 8.12258L16.1725 12.0026L12.2925 15.8826C11.9025 16.2726 11.9025 16.9026 12.2925 17.2926C12.6825 17.6826 13.3125 17.6826 13.7025 17.2926L18.2925 12.7026C18.6825 12.3126 18.6825 11.6826 18.2925 11.2926L13.7025 6.70258C13.3125 6.31258 12.6825 6.31258 12.2925 6.70258C11.9125 7.09258 11.9025 7.73258 12.2925 8.12258Z" fill="#1C3553"/>
</svg>
