<svg width="24" height="24" viewBox="0 0 24 24" fill="none" xmlns="http://www.w3.org/2000/svg">
<path d="M5 14.99C6.92 14.03 7.88 12.81 7.88 10.93C7.78 10.96 7.69 10.96 7.59 10.96C6.22 10.96 5.13 10.06 5.13 8.62C5.13 7.02 6.15 6 7.59 6C9.54 6 10.6 7.54 10.6 10.19C10.6 13.2 9.1 15.53 6.02 17.04L5 14.99ZM12.58 14.99C14.5 14.03 15.46 12.81 15.46 10.93C15.36 10.96 15.27 10.96 15.17 10.96C13.79 10.96 12.71 10.06 12.71 8.62C12.71 7.02 13.73 6 15.17 6C17.12 6 18.18 7.54 18.18 10.19C18.18 13.2 16.68 15.53 13.6 17.04L12.58 14.99Z" fill="#002341"/>
</svg>
