<svg width="24" height="24" viewBox="0 0 24 24" fill="none" xmlns="http://www.w3.org/2000/svg">
<path d="M12.27 16.84C12.21 16.81 12.16 16.78 12.11 16.73H12.1L5.28 9.87C5.08 9.67 5.08 9.36 5.28 9.16C5.48 8.96 5.79 8.96 5.99 9.16L11.96 15.16V2.5C11.96 2.22 12.18 2 12.46 2C12.74 2 12.96 2.22 12.96 2.5V15.16L18.93 9.16C19.13 8.96 19.44 8.97 19.64 9.16C19.83 9.36 19.83 9.67 19.64 9.87L12.81 16.73C12.77 16.78 12.71 16.81 12.65 16.84C12.59 16.87 12.52 16.88 12.46 16.88C12.4 16.88 12.33 16.87 12.27 16.84Z" fill="#002341"/>
<path d="M21.93 16.13C21.93 15.85 22.15 15.63 22.43 15.63C22.71 15.63 22.93 15.85 22.93 16.13V20.73C22.93 21.01 22.71 21.23 22.43 21.23H2.5C2.22 21.23 2 21.01 2 20.73V16.13C2 15.85 2.22 15.63 2.5 15.63C2.78 15.63 3 15.85 3 16.13V20.23H21.93V16.13Z" fill="#002341"/>
</svg>
