<svg width="24" height="24" viewBox="0 0 24 24" fill="none" xmlns="http://www.w3.org/2000/svg">
<path fill-rule="evenodd" clip-rule="evenodd" d="M7 10V11C7 11.55 6.55 12 6 12C5.45 12 5 11.55 5 11V4.69C5 4.69 6.34 0.66 6.56 0H3C1.34315 0 0 1.34315 0 3V21C0 22.6569 1.34315 24 3 24H5V23.69C5 23.69 6.34 19.66 6.56 19C6.61 18.84 6.68 18.71 6.75 18.6C6.76 18.59 6.7675 18.58 6.775 18.57C6.7825 18.56 6.79 18.55 6.8 18.54C7.18 18.01 7.72 18 7.72 18H16.28C16.28 18 16.82 18.01 17.2 18.53C17.2054 18.538 17.21 18.5454 17.2143 18.5522L17.2143 18.5522C17.2261 18.5707 17.2354 18.5854 17.25 18.6C17.32 18.71 17.39 18.84 17.44 19C17.66 19.66 19 23.69 19 23.69V24H21C22.6569 24 24 22.6569 24 21V3C24 1.34315 22.6569 0 21 0H17.44C17.66 0.66 19 4.69 19 4.69V11C19 11.55 18.55 12 18 12C17.45 12 17 11.55 17 11V10H7ZM8 6.5C8 7.05 8.45 7.5 9 7.5C9.55 7.5 10 7.05 10 6.5C10 5.95 9.55 5.5 9 5.5C8.45 5.5 8 5.95 8 6.5ZM14 6.5C14 7.05 14.45 7.5 15 7.5C15.55 7.5 16 7.05 16 6.5C16 5.95 15.55 5.5 15 5.5C14.45 5.5 14 5.95 14 6.5ZM15.67 1H8.33L7.67 3H16.33L15.9 1.69L15.67 1ZM15.67 20H8.33L7.67 22H16.33L15.9 20.69L15.67 20ZM3 16C2.44772 16 2 15.5523 2 15C2 14.4477 2.44772 14 3 14H21C21.5523 14 22 14.4477 22 15C22 15.5523 21.5523 16 21 16H3Z" fill="#1C3553"/>
</svg>
