<svg width="24" height="24" viewBox="0 0 24 24" fill="none" xmlns="http://www.w3.org/2000/svg">
<path d="M10.12 7.18C10.59 7.18 10.98 6.8 10.98 6.32C10.98 5.84 10.6 5.46 10.12 5.46C9.64 5.46 9.26 5.84 9.26 6.32C9.26 6.8 9.64 7.18 10.12 7.18Z" fill="#002341"/>
<path d="M14.01 7.18C14.48 7.18 14.87 6.8 14.87 6.32C14.87 5.84 14.49 5.46 14.01 5.46C13.53 5.46 13.15 5.84 13.15 6.32C13.15 6.8 13.53 7.18 14.01 7.18Z" fill="#002341"/>
<path d="M19.4 12.01H4.73C4.45 12.01 4.23 12.23 4.23 12.51C4.23 12.79 4.45 13.01 4.73 13.01H19.4C19.68 13.01 19.9 12.79 19.9 12.51C19.9 12.23 19.68 12.01 19.4 12.01Z" fill="#002341"/>
<path d="M20.02 1.5H4.12C2.95 1.5 2 2.45 2 3.62V19.52C2 20.69 2.95 21.64 4.12 21.64H20.02C21.19 21.64 22.14 20.69 22.14 19.52V3.62C22.14 2.45 21.19 1.5 20.02 1.5ZM15.73 4.06H8.4L8.91 2.5H15.19L15.72 4.06H15.73ZM15.93 7.81C15.93 7.98 15.79 8.13 15.61 8.13H8.53C8.36 8.13 8.21 7.99 8.21 7.81V5.06H15.93V7.81ZM8.21 18.97H15.93V20.64H14.76C14.83 20.52 14.88 20.38 14.88 20.23C14.88 19.76 14.5 19.37 14.02 19.37C13.54 19.37 13.16 19.75 13.16 20.23C13.16 20.38 13.21 20.51 13.28 20.64H10.88C10.95 20.52 11 20.38 11 20.23C11 19.76 10.62 19.37 10.14 19.37C9.66 19.37 9.28 19.75 9.28 20.23C9.28 20.38 9.33 20.51 9.4 20.64H8.23V18.97H8.21ZM8.4 17.97L9 16.15C9.04 16.03 9.16 15.94 9.29 15.94H14.82C14.95 15.94 15.06 16.02 15.11 16.14L15.74 17.96H8.41L8.4 17.97ZM21.13 19.52C21.13 20.14 20.63 20.64 20.01 20.64H16.92V18.47C16.92 18.47 16.91 18.39 16.9 18.36C16.9 18.34 16.9 18.33 16.9 18.31L16.05 15.83C15.87 15.3 15.38 14.95 14.82 14.95H9.29C8.73 14.95 8.23 15.31 8.05 15.84L7.24 18.31C7.24 18.31 7.24 18.34 7.24 18.36C7.24 18.39 7.22 18.43 7.22 18.46V20.63H4.13C3.51 20.63 3.01 20.13 3.01 19.51V3.62C3.01 3 3.51 2.5 4.13 2.5H7.87L7.25 4.4C7.25 4.4 7.25 4.43 7.25 4.45C7.25 4.48 7.23 4.52 7.23 4.55V7.8C7.23 8.4 7.65 8.89 8.2 9.05V10.05C8.2 10.43 8.51 10.75 8.9 10.75C9.29 10.75 9.6 10.44 9.6 10.05V9.12H14.6V10.05C14.6 10.43 14.91 10.75 15.3 10.75C15.69 10.75 16 10.44 16 10.05V9.05C16.55 8.89 16.97 8.41 16.97 7.8V4.55C16.97 4.55 16.96 4.48 16.95 4.44C16.95 4.42 16.95 4.41 16.95 4.39L16.3 2.49H20.07C20.69 2.49 21.19 2.99 21.19 3.61V19.51L21.13 19.52Z" fill="#002341"/>
</svg>
