<svg width="24" height="24" viewBox="0 0 24 24" fill="none" xmlns="http://www.w3.org/2000/svg">
<path d="M21.8102 2.49C21.7702 2.05 21.5702 1.66 21.2302 1.38C20.5402 0.800004 19.5102 0.890004 18.9302 1.58L18.5102 2.08L18.4702 2.05C18.2602 1.88 17.9502 1.9 17.7702 2.11L5.58019 16.2C5.58019 16.2 5.53019 16.27 5.51019 16.31L3.08019 21.42C2.93019 21.75 3.01019 22.12 3.28019 22.36C3.43019 22.48 3.61019 22.55 3.78019 22.55C3.94019 22.55 4.10019 22.5 4.23019 22.4L8.85019 19.13C8.85019 19.13 8.91019 19.08 8.94019 19.05L19.8702 6.42C20.1002 6.56 20.3302 6.73 20.3702 6.74C19.8002 7.41 16.0702 11.72 16.0702 11.72L16.8302 12.38C16.8302 12.38 20.5802 8.07 21.1402 7.39C21.3202 7.17 21.3902 6.9 21.3402 6.63C21.2502 6.2 20.8502 5.86 20.5402 5.66L21.1402 4.97C21.2302 4.87 21.2702 4.74 21.2602 4.6C21.2602 4.47 21.1902 4.34 21.0802 4.26L21.0202 4.21L21.4402 3.71C21.7202 3.38 21.8602 2.95 21.8202 2.52L21.8102 2.49ZM8.22019 18.34L4.33019 21.1L6.38019 16.8L18.2102 3.13L20.0502 4.68L8.23019 18.34H8.22019ZM19.7002 2.23C19.9202 1.96 20.3302 1.93 20.6002 2.15C20.7302 2.26 20.8102 2.41 20.8202 2.58C20.8302 2.75 20.7802 2.91 20.6702 3.04L20.2602 3.53L19.2902 2.71L19.7002 2.22V2.23Z" fill="#002341"/>
</svg>
