<svg width="24" height="24" viewBox="0 0 24 24" fill="none" xmlns="http://www.w3.org/2000/svg">
<path fill-rule="evenodd" clip-rule="evenodd" d="M3 3C2.44772 3 2 3.44772 2 4V20C2 20.5523 2.44772 21 3 21H10C10.5523 21 11 20.5523 11 20V4C11 3.44772 10.5523 3 10 3H3ZM8.00024 8.29168V13.3379H9.16692C9.35025 13.3379 9.44609 13.5854 9.31275 13.7275L7.15025 16.0017C7.06692 16.0888 6.93775 16.0888 6.85442 16.0017L4.69192 13.7275C4.55858 13.5854 4.65025 13.3379 4.83775 13.3379H6.00024V8.29168C6.00024 8.03959 6.25513 7.5 7.00024 7.5C7.74536 7.5 8.00024 8.03959 8.00024 8.29168Z" fill="#1C3553"/>
<path fill-rule="evenodd" clip-rule="evenodd" d="M14 3C13.4477 3 13 3.44772 13 4V20C13 20.5523 13.4477 21 14 21H21C21.5523 21 22 20.5523 22 20V4C22 3.44772 21.5523 3 21 3H14ZM16.3748 15.2753L16.3748 10.2291H15.2081C15.0247 10.2291 14.9289 9.98156 15.0622 9.83948L17.2247 7.56531C17.3081 7.47823 17.4372 7.47823 17.5206 7.56531L19.6831 9.83948C19.8164 9.98156 19.7247 10.2291 19.5372 10.2291H18.3748V15.2753C18.3748 15.5274 18.1199 16.067 17.3748 16.067C16.6296 16.067 16.3748 15.5274 16.3748 15.2753Z" fill="#1C3553"/>
</svg>
