<svg width="24" height="24" viewBox="0 0 24 24" fill="none" xmlns="http://www.w3.org/2000/svg">
<path d="M10.58 3H2.5C2.22 3 2 3.22 2 3.5V19.57C2 19.85 2.22 20.07 2.5 20.07H10.58C10.86 20.07 11.08 19.85 11.08 19.57V3.5C11.08 3.22 10.86 3 10.58 3ZM10.08 19.07H3V4H10.08V19.07Z" fill="#002341"/>
<path d="M6.12 15.09C6.21 15.23 6.36 15.33 6.54 15.33C6.54 15.33 6.54 15.33 6.55 15.33C6.55 15.33 6.55 15.33 6.56 15.33C6.7 15.33 6.84 15.27 6.93 15.16L8.87 12.94C9.05 12.73 9.03 12.42 8.82 12.23C8.61 12.05 8.29 12.07 8.11 12.28L7.03 13.52V8.25C7.03 7.97 6.81 7.75 6.53 7.75C6.25 7.75 6.03 7.97 6.03 8.25V13.5L4.94 12.28C4.76 12.07 4.44 12.06 4.23 12.24C4.02 12.42 4.01 12.74 4.19 12.95L6.11 15.1L6.12 15.09Z" fill="#002341"/>
<path d="M20.69 3H12.61C12.33 3 12.11 3.22 12.11 3.5V19.57C12.11 19.85 12.33 20.07 12.61 20.07H20.69C20.97 20.07 21.19 19.85 21.19 19.57V3.5C21.19 3.22 20.97 3 20.69 3ZM20.19 19.07H13.11V4H20.19V19.07Z" fill="#002341"/>
<path d="M14.7 10.97C14.84 10.97 14.98 10.91 15.08 10.8L16.16 9.56V14.83C16.16 15.11 16.38 15.33 16.66 15.33C16.94 15.33 17.16 15.11 17.16 14.83V9.58L18.25 10.8C18.43 11 18.75 11.02 18.96 10.84C19.17 10.66 19.18 10.34 19 10.13L17.09 7.98C17 7.84 16.85 7.74 16.67 7.74C16.67 7.74 16.67 7.74 16.66 7.74C16.66 7.74 16.66 7.74 16.65 7.74C16.63 7.74 16.61 7.75 16.59 7.76C16.55 7.76 16.5 7.78 16.46 7.79C16.39 7.82 16.33 7.85 16.27 7.91L14.33 10.13C14.15 10.34 14.17 10.65 14.38 10.84C14.48 10.92 14.59 10.96 14.71 10.96L14.7 10.97Z" fill="#002341"/>
</svg>
