<svg width="24" height="24" viewBox="0 0 24 24" fill="none" xmlns="http://www.w3.org/2000/svg">
<path d="M13.9778 20.5512C10.2354 20.5512 7.62659 18.0107 6.98463 13.8995H5.25V12.5337H6.84805C6.84805 12.3015 6.83439 12.0556 6.83439 11.8098C6.83439 11.5093 6.83439 11.2088 6.86171 10.922H5.25V9.5561H7.01195C7.7222 5.51317 10.4266 3 14.3056 3C16.0539 3 17.7749 3.77854 19.0315 5.13073L18.0344 6.05951C17.0373 4.98049 15.6851 4.36585 14.3193 4.36585C11.2051 4.36585 9.07439 6.30537 8.41878 9.56976H17.8022V10.9356H8.2139C8.20024 11.2224 8.18659 11.5229 8.18659 11.8234C8.18659 12.0693 8.18659 12.3151 8.20024 12.5473H15.972V13.9132H8.36415C8.95146 17.2185 10.9866 19.199 13.9778 19.199C15.6578 19.199 17.01 18.5571 18.2256 17.1639L19.25 18.0654C17.7749 19.7454 16.0539 20.5649 13.9778 20.5649V20.5512Z" fill="#002341"/>
</svg>
