<svg width="24" height="24" viewBox="0 0 24 24" fill="none" xmlns="http://www.w3.org/2000/svg">
<path fill-rule="evenodd" clip-rule="evenodd" d="M9.69002 16.83H4.02002V11.17H9.69002V16.83ZM8.69002 12.17H5.02002V15.83H8.69002V12.17Z" fill="#002341"/>
<path fill-rule="evenodd" clip-rule="evenodd" d="M19.49 4.16H19.83V4.15C21.29 4.15 22.47 5.33 22.47 6.79V17.7C22.47 19.16 21.29 20.34 19.83 20.34H3.64C2.18 20.34 1 19.16 1 17.7V6.79C1 5.34 2.18 4.16 3.64 4.16H3.97V3H4.97V4.16H18.49V3H19.49V4.16ZM3.97 5.16H3.64C2.74 5.16 2 5.9 2 6.8V7.26H21.48V6.8C21.48 5.9 20.74 5.16 19.84 5.16H19.5V6.31H18.5V5.16H4.97V6.31H3.97V5.16ZM3.64 19.35H19.83V19.34C20.73 19.34 21.47 18.6 21.47 17.7V8.26H2V17.71C2 18.61 2.74 19.35 3.64 19.35Z" fill="#002341"/>
</svg>
