<svg width="24" height="24" viewBox="0 0 24 24" fill="none" xmlns="http://www.w3.org/2000/svg">
<path d="M19.5801 18.5047C21.0796 16.757 22 14.4819 22 12C22 6.48811 17.5222 2 12 2C9.33195 2 6.90176 3.06515 5.10238 4.77146L3.10652 2.87901C2.89969 2.68252 2.56877 2.69286 2.37229 2.89969C2.1758 3.10652 2.18614 3.43744 2.39297 3.63392L4.39917 5.53671C2.91003 7.27404 2 9.52844 2 12C2 17.5119 6.48811 22 12 22C14.6577 22 17.0776 20.9452 18.8666 19.2492L20.8935 21.1727C20.9969 21.2658 21.121 21.3175 21.2451 21.3175C21.3795 21.3175 21.514 21.2658 21.6174 21.152C21.8139 20.9452 21.8035 20.6143 21.5967 20.4178L19.5698 18.4943L19.5801 18.5047ZM12 20.9659C7.05688 20.9659 3.03413 16.9431 3.03413 12C3.03413 9.80765 3.8304 7.79111 5.14374 6.22958L8.5667 9.47673C8.07032 9.31127 7.6153 9.18718 7.36712 9.14581C7.00517 9.08376 5.75388 8.93899 4.86453 9.77663C4.15098 10.4488 3.87177 11.545 4.03723 13.0238C4.18201 14.2647 4.61634 15.0507 5.35057 15.3506C5.56774 15.4333 5.7849 15.4747 6.01241 15.4747C6.95346 15.4747 7.98759 14.8128 8.75284 14.1923C9.17684 13.8407 9.64219 13.6132 9.95243 13.4685C10.0248 13.5719 10.1075 13.6753 10.2006 13.7684C9.7456 14.6267 9.29059 16.1055 9.19752 16.6432C9.13547 17.0052 8.99069 18.2565 9.82834 19.1458C10.3764 19.7249 11.1934 20.0145 12.2792 20.0145C12.5274 20.0145 12.7963 19.9938 13.0755 19.9628C14.3164 19.818 15.1024 19.3837 15.4023 18.6494C15.8469 17.5636 15.0196 16.1986 14.2441 15.2472C13.9752 14.9162 13.7787 14.5543 13.6339 14.2544L18.122 18.515C16.5191 20.0145 14.3681 20.9452 12 20.9452V20.9659ZM11.3382 10.6556L11.4209 10.6246C11.576 10.5626 11.7208 10.5315 11.8656 10.5109C11.8966 10.5109 11.938 10.5109 11.969 10.5005C11.9897 10.5005 12.0207 10.5005 12.0414 10.5005C12.5998 10.5109 13.0858 10.8418 13.334 11.3071L13.3547 11.3588C13.5926 11.8759 13.4788 12.3516 13.3754 12.6101L11.3278 10.666C11.3278 10.666 11.3382 10.666 11.3485 10.6556H11.3382ZM10.666 8.08066C9.84902 7.07756 9.47673 6.19855 9.66287 5.72285C9.83868 5.27818 10.5729 5.11272 11.1417 5.05067C12.2792 4.91624 13.0755 5.09204 13.5202 5.55739C14.0269 6.10548 13.9338 6.93278 13.8925 7.18097C13.7994 7.70838 13.365 8.97001 13.0238 9.65253C12.7549 9.54912 12.4137 9.46639 12.031 9.46639C12.031 9.46639 12.0207 9.46639 12.0103 9.46639C12.0103 9.46639 12 9.46639 11.9897 9.46639C11.8242 9.46639 11.6691 9.48707 11.514 9.5181C11.3485 9.14581 11.0693 8.59772 10.6556 8.091L10.666 8.08066ZM14.4716 11.4312C14.8438 11.2658 15.3713 10.9866 15.878 10.5832C16.8811 9.76629 17.7704 9.394 18.2358 9.58014C18.6805 9.75595 18.8459 10.4902 18.908 11.0589C19.0321 12.1965 18.8666 13.0031 18.4012 13.4374C17.8532 13.9545 17.0259 13.8511 16.7777 13.8097C16.2296 13.7166 15.0093 13.3133 14.3371 12.9928C14.3785 12.8997 14.3992 12.7963 14.4302 12.7032C14.4302 12.6929 14.4302 12.6722 14.4405 12.6618C14.4716 12.5481 14.4922 12.424 14.5026 12.3102C14.5026 12.3102 14.5026 12.2896 14.5026 12.2792C14.5026 12.1861 14.5336 12.1034 14.5336 12.0103C14.5336 11.8139 14.5026 11.6277 14.4716 11.4519V11.4312ZM12.6412 13.3444C12.5481 13.3857 12.4654 13.4271 12.3723 13.4478C11.8552 13.5822 11.3899 13.365 11.2244 13.2823C11.2037 13.2823 11.1934 13.2616 11.1727 13.2513C11.1727 13.2513 11.1624 13.2513 11.152 13.2513C10.9349 13.1065 10.7694 12.91 10.6556 12.6722V12.6515C10.4385 12.1241 10.5212 11.7001 10.6143 11.4312L12.6412 13.3547V13.3444ZM13.4374 15.9297C14.2544 16.9328 14.6267 17.8118 14.4405 18.2875C14.2647 18.7322 13.5305 18.8976 12.9617 18.9597C11.8242 19.0941 11.0176 18.9183 10.5832 18.4529C10.0765 17.9049 10.1696 17.0776 10.211 16.8294C10.3144 16.2709 10.728 15.0196 11.0589 14.3475C11.3485 14.4612 11.6691 14.5336 12.0103 14.5336C12.0517 14.5336 12.0827 14.5336 12.1241 14.5233C12.1758 14.5233 12.2172 14.5129 12.2689 14.5129C12.3723 14.5026 12.4757 14.4922 12.5688 14.4716C12.5688 14.4716 12.5791 14.4716 12.5895 14.4716C12.7549 14.8645 13.0341 15.423 13.4478 15.9297H13.4374ZM9.52844 12.5377C9.14581 12.7032 8.60807 12.9824 8.10134 13.3961C7.09824 14.213 6.21923 14.5957 5.74354 14.3992C5.29886 14.2234 5.1334 13.4891 5.07135 12.9204C4.94726 11.7828 5.11272 10.9762 5.57808 10.5419C5.92968 10.211 6.40538 10.1386 6.75698 10.1386C6.95346 10.1386 7.10858 10.1593 7.19131 10.1799C7.74974 10.273 9.00103 10.697 9.67322 11.0279C9.65253 11.0796 9.64219 11.1417 9.62151 11.1934C9.61117 11.2451 9.59049 11.2865 9.58014 11.3382C9.5181 11.5553 9.47673 11.7725 9.47673 12.0103C9.47673 12.1965 9.49741 12.3723 9.53878 12.5481L9.52844 12.5377ZM18.8356 17.8014L15.3506 14.4922C15.8676 14.6577 16.333 14.7921 16.6019 14.8335C16.726 14.8542 16.9431 14.8852 17.212 14.8852C17.7601 14.8852 18.515 14.7611 19.1044 14.2027C19.818 13.5305 20.0972 12.4343 19.9317 10.9555C19.787 9.71458 19.3526 8.92865 18.6184 8.62875C17.5222 8.18407 16.1675 9.01138 15.2161 9.78697C14.7921 10.1282 14.3371 10.3661 14.0269 10.5005C13.9752 10.4281 13.9131 10.3557 13.8511 10.2834C14.3061 9.46639 14.8025 7.98759 14.9059 7.35677C14.9679 6.99483 15.1127 5.74354 14.2751 4.85419C13.6029 4.14064 12.5067 3.86143 11.0279 4.02689C9.78697 4.17166 9.00103 4.606 8.70114 5.34023C8.25646 6.42606 9.08376 7.79111 9.85936 8.7425C10.2006 9.15615 10.4281 9.60083 10.5626 9.91107C10.5626 9.91107 10.5419 9.93175 10.5315 9.93175L5.85729 5.48501C7.46019 3.96484 9.62151 3.03413 12 3.03413C16.9431 3.03413 20.9659 7.05688 20.9659 12C20.9659 14.213 20.1593 16.2296 18.8356 17.7911V17.8014Z" fill="#002341"/>
</svg>
