<svg width="24" height="24" viewBox="0 0 24 24" fill="none" xmlns="http://www.w3.org/2000/svg">
<path d="M12.2101 20.15L10.6101 18.71C5.93008 14.46 2.87008 11.68 3.00008 8.08002C3.06008 6.43002 3.91008 4.88002 5.26008 3.95002C7.70008 2.28002 10.5501 3.00002 12.2101 4.60002C13.8801 3.01002 16.7201 2.28002 19.1701 3.95002C20.5201 4.88002 21.3701 6.42002 21.4201 8.07002C21.5401 11.68 18.4701 14.47 13.8101 18.69L12.2101 20.15ZM8.29008 4.00002C7.47008 4.00002 6.62008 4.23002 5.83008 4.78002C4.74008 5.53002 4.05008 6.78002 4.01008 8.12002C3.90008 11.25 6.82008 13.91 11.2401 17.93L12.2201 18.81L13.1501 17.96C17.6001 13.92 20.5401 11.26 20.4301 8.11002C20.3801 6.79002 19.6901 5.52002 18.6101 4.78002C16.4501 3.31002 13.9001 4.13002 12.6001 5.65002L12.2201 6.09002L11.8401 5.65002C11.0201 4.69002 9.70008 4.00002 8.29008 4.00002Z" fill="#002341"/>
</svg>
