<svg width="24" height="24" viewBox="0 0 24 24" fill="none" xmlns="http://www.w3.org/2000/svg">
<path d="M12.5 22H2V11.5C2 5.71 6.71 1 12.5 1C18.29 1 23 5.71 23 11.5C23 17.29 18.29 22 12.5 22ZM3 21H12.5C17.74 21 22 16.74 22 11.5C22 6.26 17.74 2 12.5 2C7.26 2 3 6.26 3 11.5V21Z" fill="#002341"/>
<path d="M12.5 16.5C13.0523 16.5 13.5 16.0523 13.5 15.5C13.5 14.9477 13.0523 14.5 12.5 14.5C11.9477 14.5 11.5 14.9477 11.5 15.5C11.5 16.0523 11.9477 16.5 12.5 16.5Z" fill="#002341"/>
<path d="M12.5 13.25C12.09 13.25 11.75 12.91 11.75 12.5V6.5C11.75 6.09 12.09 5.75 12.5 5.75C12.91 5.75 13.25 6.09 13.25 6.5V12.5C13.25 12.91 12.91 13.25 12.5 13.25Z" fill="#002341"/>
</svg>
