<svg width="24" height="24" viewBox="0 0 24 24" fill="none" xmlns="http://www.w3.org/2000/svg">
<path d="M16.8387 5.76025C16.5219 5.12683 15.8763 4.72485 15.1698 4.72485H7.89766C7.19116 4.72485 6.54555 5.12683 6.22884 5.76025C5.91213 6.40586 5.98522 7.14891 6.42374 7.72143L10.9308 13.6293V18.6114C10.9308 18.9525 11.1988 19.2205 11.5398 19.2205C11.8809 19.2205 12.1489 18.9525 12.1489 18.6114V13.6293L16.6559 7.70925C17.0823 7.13673 17.1554 6.39368 16.8387 5.76025ZM15.6814 6.97837L11.5398 12.4234L7.38605 6.97837C7.23988 6.78348 7.21552 6.52767 7.32515 6.29623C7.43478 6.06478 7.65404 5.94297 7.89766 5.94297H15.1577C15.4135 5.94297 15.6205 6.07697 15.7302 6.29623C15.8398 6.51549 15.8154 6.77129 15.6693 6.96619L15.6814 6.97837Z" fill="#002341"/>
</svg>
