<svg width="24" height="24" viewBox="0 0 24 24" fill="none" xmlns="http://www.w3.org/2000/svg">
<path d="M21.4299 7.67959H20.5633V6.3455C20.5633 6.02623 20.3124 5.77537 19.9932 5.77537H11.2816L10.8255 5.21665C10.7229 5.07982 10.5519 5 10.3808 5H4.748C4.42873 5 4.17788 5.25086 4.17788 5.57013V5.77537H2V19.2075C2 20.0399 2.67275 20.7127 3.50513 20.7127H21.4413C21.7605 20.7127 22.0114 20.4618 22.0114 20.1425V8.24971C22.0114 7.93044 21.7605 7.67959 21.4413 7.67959H21.4299ZM19.423 6.91562V7.67959H12.821L12.2052 6.91562H19.423ZM3.66477 19.5724H3.50513C3.31129 19.5724 3.14025 19.4128 3.14025 19.2075V6.91562H4.17788V19.2075C4.17788 19.4014 4.01824 19.5724 3.813 19.5724H3.65336H3.66477ZM20.8711 19.5724H5.24971C5.28392 19.4584 5.31813 19.3444 5.31813 19.2075V6.14025H10.1072L12.1026 8.60319C12.2052 8.74002 12.3763 8.81984 12.5473 8.81984H20.8597V19.5724H20.8711Z" fill="#002341"/>
</svg>
