<svg width="24" height="24" viewBox="0 0 24 24" fill="none" xmlns="http://www.w3.org/2000/svg">
<path fill-rule="evenodd" clip-rule="evenodd" d="M5.5 9.98H9.49C9.77 9.98 9.99 9.76 9.99 9.48V5.5C9.99 5.22 9.77 5 9.49 5C9.21 5 8.99 5.22 8.99 5.5V8.98H5.5C5.22 8.98 5 9.2 5 9.48C5 9.76 5.22 9.98 5.5 9.98ZM14.5 9.98H18.49C18.77 9.98 18.99 9.76 18.99 9.48C18.99 9.2 18.77 8.98 18.49 8.98H15V5.5C15 5.22 14.78 5 14.5 5C14.22 5 14 5.22 14 5.5V9.48C14 9.76 14.22 9.98 14.5 9.98ZM9.49 18.73C9.21 18.73 8.99 18.51 8.99 18.23V14.75H5.5C5.22 14.75 5 14.53 5 14.25C5 13.97 5.22 13.75 5.5 13.75H9.49C9.77 13.75 9.99 13.97 9.99 14.25V18.23C9.99 18.51 9.77 18.73 9.49 18.73ZM14 18.24C14 18.52 14.22 18.74 14.5 18.74C14.78 18.74 15 18.52 15 18.24V14.75H18.48C18.76 14.75 18.98 14.53 18.98 14.25C18.98 13.97 18.76 13.75 18.48 13.75H14.5C14.22 13.75 14 13.97 14 14.25V18.24Z" fill="#002341"/>
</svg>
