<svg width="24" height="24" viewBox="0 0 24 24" fill="none" xmlns="http://www.w3.org/2000/svg">
<path fill-rule="evenodd" clip-rule="evenodd" d="M5 9.48C5 9.76 5.22 9.98 5.5 9.98C5.78 9.98 6 9.76 6 9.48V6H9.49C9.77 6 9.99 5.78 9.99 5.5C9.99 5.22 9.77 5 9.49 5H5.5C5.22 5 5 5.22 5 5.5V9.48ZM17.99 9.48C17.99 9.76 18.21 9.98 18.49 9.98C18.77 9.98 18.99 9.76 18.99 9.48V5.5C18.99 5.22 18.77 5 18.49 5H14.5C14.22 5 14 5.22 14 5.5C14 5.78 14.22 6 14.5 6H17.99V9.48ZM9.49 18.73H5.5C5.22 18.73 5 18.51 5 18.23V14.25C5 13.97 5.22 13.75 5.5 13.75C5.78 13.75 6 13.97 6 14.25V17.73H9.49C9.77 17.73 9.99 17.95 9.99 18.23C9.99 18.51 9.77 18.73 9.49 18.73ZM14.5 18.73H18.49C18.77 18.73 18.99 18.51 18.99 18.23V14.25C18.99 13.97 18.77 13.75 18.49 13.75C18.21 13.75 17.99 13.97 17.99 14.25V17.73H14.5C14.22 17.73 14 17.95 14 18.23C14 18.51 14.22 18.73 14.5 18.73Z" fill="#002341"/>
</svg>
