<svg width="24" height="24" viewBox="0 0 24 24" fill="none" xmlns="http://www.w3.org/2000/svg">
<path d="M18.73 9.16L17.52 5.63C17.29 4.97 16.67 4.52 15.97 4.52H8.11C7.4 4.52 6.78 4.97 6.55 5.65L5.4 9.17C5.4 9.17 5.4 9.2 5.4 9.22C5.4 9.25 5.38 9.29 5.38 9.32V13.94C5.38 14.68 5.87 15.3 6.55 15.52V17.14C6.55 17.69 6.99 18.13 7.54 18.13C8.09 18.13 8.53 17.69 8.53 17.14V15.6H15.63V17.14C15.63 17.69 16.07 18.13 16.62 18.13C17.17 18.13 17.61 17.69 17.61 17.14V15.52C18.28 15.31 18.78 14.69 18.78 13.94V9.32C18.78 9.32 18.77 9.24 18.76 9.21C18.76 9.19 18.76 9.18 18.76 9.16H18.73ZM7.5 5.96C7.59 5.7 7.83 5.52 8.11 5.52H15.97C16.24 5.52 16.49 5.69 16.57 5.95L17.55 8.82H6.56L7.5 5.96ZM17.76 13.94C17.76 14.3 17.46 14.6 17.1 14.6H7.03C6.67 14.6 6.37 14.3 6.37 13.94V9.82H17.76V13.94Z" fill="#002341"/>
<path d="M9.31 13.04C9.98 13.04 10.53 12.49 10.53 11.82C10.53 11.15 9.98 10.6 9.31 10.6C8.64 10.6 8.09 11.15 8.09 11.82C8.09 12.49 8.64 13.04 9.31 13.04Z" fill="#002341"/>
<path d="M14.83 13.04C15.5 13.04 16.05 12.49 16.05 11.82C16.05 11.15 15.5 10.6 14.83 10.6C14.16 10.6 13.61 11.15 13.61 11.82C13.61 12.49 14.16 13.04 14.83 13.04Z" fill="#002341"/>
<path d="M20.02 1.5H4.12C2.95 1.5 2 2.45 2 3.62V19.52C2 20.69 2.95 21.64 4.12 21.64H20.02C21.19 21.64 22.14 20.69 22.14 19.52V3.62C22.14 2.45 21.19 1.5 20.02 1.5ZM21.14 19.52C21.14 20.14 20.64 20.64 20.02 20.64H4.12C3.5 20.64 3 20.14 3 19.52V3.62C3 3 3.5 2.5 4.12 2.5H20.02C20.64 2.5 21.14 3 21.14 3.62V19.52Z" fill="#002341"/>
</svg>
