<svg width="24" height="24" viewBox="0 0 24 24" fill="none" xmlns="http://www.w3.org/2000/svg">
<path d="M19.57 17.66C19.05 16.63 17.88 15.28 15.98 15.14V12.95C16.8 12.59 18.64 11.64 18.85 10.42C18.91 10.06 18.85 9.50999 18.25 8.98999C17.65 8.46999 17.14 8.50999 16.81 8.63999C16.19 8.87999 15.77 9.64999 15.48 10.45C15.2 9.64999 14.77 8.86999 14.15 8.63999C13.82 8.51999 13.31 8.47999 12.71 8.98999C12.1 9.50999 12.05 10.06 12.11 10.42C12.32 11.64 14.15 12.59 14.98 12.95V15.16C14.48 15.24 14.02 15.41 13.59 15.67C13.09 15.41 12.49 15.23 11.74 15.23C10.91 15.23 10.24 15.45 9.69 15.75C9.25 15.47 8.78 15.28 8.27 15.18V10.41C9.3 9.96999 11.55 8.82999 11.76 7.34999C11.83 6.86999 11.71 6.14999 10.78 5.44999C9.99 4.85999 9.37 4.94999 8.99 5.11999C8.14 5.51999 7.68 6.74999 7.43 7.89999C6.99 6.88999 6.35 5.85999 5.48 5.60999C5.07 5.48999 4.42 5.49999 3.71 6.20999C3.03 6.88999 3.03 7.50999 3.14 7.90999C3.56 9.40999 6.31 10.28 7.28 10.55V15.11C5.31 15.21 4.16 16.59 3.67 17.64H2V18.64H21.8V17.64H19.57V17.66ZM18.41 17.66H15.31C15.17 17.24 14.9 16.76 14.49 16.33C14.85 16.18 15.24 16.1 15.66 16.1C17.09 16.1 17.95 16.97 18.41 17.65V17.66ZM17.16 9.56999C17.16 9.56999 17.2 9.55999 17.23 9.55999C17.33 9.55999 17.45 9.61999 17.59 9.74999C17.9 10.02 17.87 10.19 17.86 10.26C17.78 10.74 16.97 11.33 16.15 11.76C16.39 10.7 16.79 9.71999 17.17 9.56999H17.16ZM13.1 10.25C13.09 10.18 13.06 10.01 13.37 9.73999C13.51 9.61999 13.63 9.54999 13.73 9.54999C13.75 9.54999 13.78 9.54999 13.8 9.55999C14.18 9.69999 14.58 10.68 14.82 11.75C14 11.31 13.19 10.72 13.11 10.25H13.1ZM14.22 17.66H9.11C9.48 17.05 10.26 16.23 11.74 16.23C13.22 16.23 13.91 17.06 14.21 17.66H14.22ZM9.41 6.03999C9.41 6.03999 9.5 5.99999 9.58 5.99999C9.7 5.99999 9.9 6.04999 10.17 6.25999C10.83 6.74999 10.78 7.09999 10.76 7.21999C10.65 7.96999 9.33 8.81999 8.19 9.35999C8.36 7.95999 8.78 6.33999 9.4 6.03999H9.41ZM4.1 7.65999C4.08 7.57999 4.01 7.32999 4.42 6.92999C4.72 6.62999 4.94 6.56999 5.08 6.56999C5.14 6.56999 5.19 6.57999 5.21 6.58999C5.86 6.77999 6.52 8.15999 6.92 9.40999C5.67 8.98999 4.29 8.30999 4.11 7.65999H4.1ZM7.49 16.11C7.97 16.11 8.42 16.21 8.83 16.41C8.42 16.82 8.14 17.27 7.98 17.66H4.81C5.23 16.98 6.05 16.11 7.49 16.11Z" fill="#002341"/>
</svg>
