<svg width="24" height="24" viewBox="0 0 24 24" fill="none" xmlns="http://www.w3.org/2000/svg">
<path fill-rule="evenodd" clip-rule="evenodd" d="M7 14.5C7 13.5 7.5 12.5 8.5 12.5H9.5C10.5 12.5 11 13.5 11 14.5V13.5V11H10H8H7V13.5V14.5ZM14.5 12.5C13.5 12.5 13 13.5 13 14.5V13.5V11H14H16H17V13.5V14.5C17 13.5 16.5 12.5 15.5 12.5H14.5Z" fill="#1C3553"/>
<path fill-rule="evenodd" clip-rule="evenodd" d="M11.4744 2.32546C11.7968 2.12605 12.2042 2.12605 12.5265 2.32546L15.0713 3.8996C15.7824 4.33949 15.6442 5.32453 15.0005 5.64623V7.00004H9.00046V5.64623C8.35667 5.32453 8.21855 4.33949 8.92966 3.8996L11.4744 2.32546ZM12 7.9999C14.0719 8.04708 16.4733 8.01798 17.317 8.0051C17.5207 8.00199 17.7201 8.06046 17.8897 8.17345L20.5079 9.91766C21.3315 10.4663 20.9431 11.7499 19.9535 11.7499H3.86616C2.89294 11.7499 2.49317 10.5008 3.28553 9.93573L5.7478 8.17975C5.91206 8.06261 6.1071 7.99789 6.30883 7.99481C7.18846 7.98139 9.78617 7.94948 12 7.9999Z" fill="#1C3553"/>
<rect x="3" y="22" width="2" height="18" rx="1" transform="rotate(-90 3 22)" fill="#1C3553"/>
<path fill-rule="evenodd" clip-rule="evenodd" d="M5 11C5 10.4477 5.44772 10 6 10C6.55228 10 7 10.4477 7 11V18C7 18.5523 6.55228 19 6 19C5.44772 19 5 18.5523 5 18V11ZM11 11C11 10.4477 11.4477 10 12 10C12.5523 10 13 10.4477 13 11V18C13 18.5523 12.5523 19 12 19C11.4477 19 11 18.5523 11 18V11ZM18 10C17.4477 10 17 10.4477 17 11V18C17 18.5523 17.4477 19 18 19C18.5523 19 19 18.5523 19 18V11C19 10.4477 18.5523 10 18 10Z" fill="#1C3553"/>
</svg>
