<svg width="24" height="24" viewBox="0 0 24 24" fill="none" xmlns="http://www.w3.org/2000/svg">
<path d="M22.77 20.8899H1.5C1.22 20.8899 1 21.1099 1 21.3899C1 21.6699 1.22 21.8899 1.5 21.8899H22.77C23.05 21.8899 23.27 21.6699 23.27 21.3899C23.27 21.1099 23.05 20.8899 22.77 20.8899Z" fill="#002341"/>
<path d="M3.26 10.1599H4.33V19.1099C4.33 19.3899 4.55 19.6099 4.83 19.6099C5.11 19.6099 5.33 19.3899 5.33 19.1099V10.1599H7.99V19.1099C7.99 19.3899 8.21 19.6099 8.49 19.6099C8.77 19.6099 8.99 19.3899 8.99 19.1099V10.1599H15.3V19.1099C15.3 19.3899 15.52 19.6099 15.8 19.6099C16.08 19.6099 16.3 19.3899 16.3 19.1099V10.1599H18.96V19.1099C18.96 19.3899 19.18 19.6099 19.46 19.6099C19.74 19.6099 19.96 19.3899 19.96 19.1099V10.1599H21.02C21.35 10.1599 21.48 9.71994 21.2 9.53994L17.16 6.99994L14.91 5.58994H9.37L7.12 6.99994L3.08 9.53994C2.8 9.71994 2.92 10.1599 3.26 10.1599Z" fill="#002341"/>
<path d="M14.94 4.28994C15.26 4.28994 15.4 3.87994 15.14 3.68994L12.34 1.56994C12.22 1.47994 12.06 1.47994 11.94 1.56994L10.24 2.84994L9.13 3.68994C8.87 3.87994 9.01 4.28994 9.33 4.28994H14.94Z" fill="#002341"/>
</svg>
