<svg width="24" height="24" viewBox="0 0 24 24" fill="none" xmlns="http://www.w3.org/2000/svg">
<path fill-rule="evenodd" clip-rule="evenodd" d="M9.86271 21H14.2189L14.2292 20.9897C14.5168 20.9897 14.7428 20.7637 14.7428 20.476V18.2671C15.3285 18.0205 15.873 17.6918 16.3764 17.2911L18.3182 18.3082C18.4312 18.3699 18.575 18.3801 18.7086 18.339C18.8319 18.2979 18.9449 18.2055 19.0065 18.0822L21.0305 14.2295C21.1641 13.9829 21.0613 13.6747 20.8148 13.5411L18.9038 12.5445C18.9346 12.3596 18.9346 12.1747 18.9346 11.9897C18.9346 11.6712 18.9038 11.3527 18.8627 11.0342L20.712 9.92466C20.8353 9.85274 20.9175 9.73973 20.9483 9.60616C20.9792 9.4726 20.9586 9.32877 20.8867 9.21575L18.6367 5.4863C18.4826 5.23973 18.1744 5.16781 17.9278 5.31164L16.0579 6.44178C15.647 6.15411 15.2052 5.90753 14.7326 5.71233V3.5137C14.7326 3.22603 14.5065 3 14.2189 3H9.86271C9.57504 3 9.34901 3.22603 9.34901 3.5137V5.75342C8.78394 6 8.25997 6.32877 7.7771 6.71918L5.77367 5.67123C5.65038 5.60959 5.51682 5.59931 5.38326 5.64041C5.25997 5.68151 5.14696 5.77397 5.08531 5.89726L3.06134 9.75C2.92778 9.99658 3.03052 10.3048 3.2771 10.4384L5.30107 11.4966C5.28052 11.661 5.28052 11.8253 5.28052 11.9897C5.28052 12.2774 5.30107 12.5753 5.34216 12.8836L3.37984 14.0651C3.25655 14.137 3.17436 14.25 3.14353 14.3836C3.11271 14.5171 3.13326 14.661 3.20518 14.774L5.4449 18.5034C5.51682 18.6267 5.62984 18.7089 5.7634 18.7397C5.89696 18.7705 6.04079 18.75 6.15381 18.6781L8.09559 17.5068C8.486 17.7945 8.90723 18.0308 9.34901 18.226V20.4863C9.34901 20.774 9.57504 21 9.86271 21ZM13.7052 19.9726H10.3764V17.887C10.3764 17.6712 10.2428 17.476 10.0476 17.4041C9.46203 17.1781 8.92778 16.8699 8.45518 16.4897C8.29079 16.3562 8.05449 16.3356 7.86956 16.4486L6.07162 17.5274L4.35586 14.6815L6.17436 13.5822C6.35929 13.4692 6.45175 13.2637 6.41066 13.0479C6.33874 12.6884 6.30792 12.3288 6.30792 11.9897C6.30792 11.7432 6.32847 11.5068 6.35929 11.2705C6.39011 11.0651 6.2771 10.8596 6.09216 10.7568L4.21203 9.77055L5.75312 6.82192L7.61271 7.79795C7.80792 7.90069 8.04422 7.86986 8.19833 7.72603C8.74285 7.23288 9.36956 6.84247 10.0476 6.58562C10.2428 6.50342 10.3764 6.31849 10.3764 6.10274V4.0274H13.7052V6.06164C13.7052 6.2774 13.8387 6.4726 14.0442 6.54452C14.6504 6.76027 15.2052 7.06849 15.6983 7.4589C15.8627 7.59247 16.099 7.61301 16.2839 7.5L18.01 6.46233L19.7257 9.30822L18.0202 10.3356C17.8353 10.4384 17.7428 10.6541 17.7839 10.8699C17.8559 11.2397 17.897 11.6199 17.897 11.9897C17.897 12.2568 17.8661 12.5137 17.8353 12.7705L17.8353 12.7705C17.8045 12.9863 17.9072 13.1918 18.1024 13.2945L19.8696 14.2192L18.3285 17.1678L16.5408 16.2329C16.3456 16.1301 16.1196 16.161 15.9552 16.3048C15.4004 16.8082 14.7531 17.1884 14.0442 17.4452C13.8387 17.5171 13.7052 17.7123 13.7052 17.9281V19.9726ZM9.37988 11.9999C9.37988 13.4588 10.5614 14.6403 12.0203 14.6403C13.4792 14.6403 14.6607 13.4588 14.6607 11.9999C14.6607 10.541 13.4792 9.3595 12.0203 9.3595C10.5614 9.3595 9.37988 10.541 9.37988 11.9999ZM10.4073 11.9999C10.4073 11.1163 11.1265 10.3869 12.0203 10.3869C12.9039 10.3869 13.6333 11.1163 13.6333 11.9999C13.6333 12.8835 12.9039 13.6129 12.0203 13.6129C11.1367 13.6129 10.4073 12.8835 10.4073 11.9999Z" fill="#002341"/>
</svg>
