<svg width="24" height="24" viewBox="0 0 24 24" fill="none" xmlns="http://www.w3.org/2000/svg">
<path d="M12.0492 2C12.0492 2 12.0164 2 11.9945 2C11.9727 2 11.9618 2 11.9399 2C6.45658 2.03277 2 6.5112 2 12.0055C2 17.4997 6.48935 22 12.0055 22C17.5216 22 22 17.5107 22 12.0055C22 6.50027 17.5434 2.03277 12.0492 2ZM11.9945 20.8968C10.8913 20.8968 9.68979 18.6139 9.2201 15.0857H14.7581C14.2993 18.6248 13.0978 20.8968 11.9836 20.8968H11.9945ZM9.11087 13.9934C9.05625 13.3599 9.03441 12.6936 9.03441 11.9945C9.03441 11.2955 9.06718 10.6401 9.11087 9.99563H14.8891C14.9437 10.6292 14.9656 11.2955 14.9656 11.9945C14.9656 12.6936 14.9328 13.3599 14.8891 13.9934H9.11087ZM3.0923 11.9945C3.0923 11.3064 3.17968 10.6401 3.32168 9.99563H8.01857C7.96395 10.6619 7.93119 11.3282 7.93119 11.9945C7.93119 12.6608 7.96395 13.3381 8.01857 13.9934H3.32168C3.16876 13.349 3.0923 12.6827 3.0923 11.9945ZM11.9618 3.10322C11.9618 3.10322 11.9836 3.10322 11.9945 3.10322C12.0055 3.10322 12.0164 3.10322 12.0273 3.10322C13.1305 3.14691 14.3102 5.4189 14.769 8.91425H9.2201C9.67886 5.40797 10.8585 3.14691 11.9618 3.10322ZM15.9705 10.0066H20.6674C20.8203 10.651 20.8968 11.3173 20.8968 12.0055C20.8968 12.6936 20.8094 13.3599 20.6674 14.0044H15.9705C16.0251 13.3381 16.0579 12.6718 16.0579 12.0055C16.0579 11.3392 16.0251 10.6729 15.9705 10.0066ZM20.3397 8.91425H15.8613C15.5773 6.68596 14.9984 4.64336 14.1245 3.36537C16.9973 4.07537 19.3239 6.17258 20.3506 8.91425H20.3397ZM9.87548 3.36537C9.00164 4.64336 8.4118 6.68596 8.13872 8.91425H3.6603C4.67613 6.17258 7.00273 4.06445 9.87548 3.36537ZM3.6603 15.0967H8.13872C8.42272 17.3359 9.01256 19.3785 9.8864 20.6455C7.00273 19.9356 4.67613 17.8383 3.6603 15.0967ZM14.1245 20.6455C14.9984 19.3676 15.5882 17.325 15.8722 15.0967H20.3506C19.3348 17.8383 17.0082 19.9465 14.1245 20.6455Z" fill="#002341"/>
</svg>
