<svg width="24" height="24" viewBox="0 0 24 24" fill="none" xmlns="http://www.w3.org/2000/svg">
<path fill-rule="evenodd" clip-rule="evenodd" d="M15.5089 11.6337C13.6827 11.6337 12.1865 10.1485 12.1865 8.31135C12.1865 6.47416 13.6717 4.98901 15.5089 4.98901C17.346 4.98901 18.8202 6.47416 18.8202 8.31135C18.8202 10.1485 17.335 11.6337 15.5089 11.6337ZM15.5089 6.10012C14.2877 6.10012 13.2866 7.09022 13.2866 8.32235C13.2866 9.55447 14.2767 10.5446 15.5089 10.5446C16.741 10.5446 17.7201 9.55447 17.7201 8.32235C17.7201 7.09022 16.73 6.10012 15.5089 6.10012ZM8.50202 5C6.67584 5 5.17969 6.48515 5.17969 8.32233C5.17969 10.1595 6.66484 11.6447 8.50202 11.6447C10.3392 11.6447 11.8133 10.1595 11.8133 8.32233C11.8133 6.48515 10.3282 5 8.50202 5ZM8.50202 10.5336C7.2809 10.5336 6.2798 9.54345 6.2798 8.31133C6.2798 7.07921 7.2699 6.08911 8.50202 6.08911C9.73414 6.08911 10.7132 7.07921 10.7132 8.31133C10.7132 9.54345 9.72314 10.5336 8.50202 10.5336ZM12.022 12.9759C13.0781 12.4808 14.2662 12.2058 15.5093 12.2058C19.0847 12.2058 22 14.351 22 16.9913V17.5413H2V16.9913C2 14.351 4.91529 12.2058 8.50165 12.2058C9.79978 12.2058 11.0099 12.4918 12.022 12.9759ZM11.56 13.977C10.6909 13.5589 9.63476 13.3059 8.50165 13.3059H8.49065C5.78438 13.3059 3.54015 14.6701 3.15512 16.4412H13.8372C13.8372 16.4247 13.8317 16.4082 13.8262 16.3917C13.8207 16.3752 13.8152 16.3587 13.8152 16.3422C13.7822 16.1992 13.7272 16.0562 13.6722 15.9242C13.6392 15.8472 13.5952 15.7592 13.5512 15.6822C13.4851 15.5721 13.4081 15.4511 13.3201 15.3411C13.3121 15.331 13.3041 15.321 13.2962 15.3111C13.2178 15.213 13.146 15.123 13.0561 15.0331L13.0011 14.9781C12.6601 14.6371 12.253 14.329 11.758 14.076L11.56 13.977ZM14.9593 16.4082V16.4412H20.8559C20.4708 14.6701 18.2266 13.3059 15.5204 13.3059C14.7063 13.3059 13.9142 13.4379 13.1881 13.68C13.6612 14.043 14.0682 14.472 14.3652 14.9341C14.3762 14.9451 14.3872 14.9671 14.3872 14.9671C14.5303 15.1981 14.6513 15.4291 14.7503 15.6712C14.7613 15.6822 14.7613 15.6932 14.7613 15.7042C14.8493 15.9352 14.9153 16.1662 14.9593 16.4082Z" fill="#002341"/>
</svg>
