<svg width="24" height="24" viewBox="0 0 24 24" fill="none" xmlns="http://www.w3.org/2000/svg">
<path d="M5.5 20.5V14H5C4.45 14 4 13.55 4 13V8.5C4 7.4 4.9 6.5 6 6.5H9C10.1 6.5 11 7.4 11 8.5V13C11 13.55 10.55 14 10 14H9.5V20.5C9.5 21.05 9.05 21.5 8.5 21.5H6.5C5.95 21.5 5.5 21.05 5.5 20.5ZM18 20.5V15.5H19.61C20.29 15.5 20.77 14.83 20.56 14.18L18.46 7.87C18.18 7.05 17.42 6.5 16.56 6.5H16.44C15.58 6.5 14.81 7.05 14.54 7.87L12.44 14.18C12.22 14.83 12.7 15.5 13.39 15.5H15V20.5C15 21.05 15.45 21.5 16 21.5H17C17.55 21.5 18 21.05 18 20.5ZM7.5 5.5C8.61 5.5 9.5 4.61 9.5 3.5C9.5 2.39 8.61 1.5 7.5 1.5C6.39 1.5 5.5 2.39 5.5 3.5C5.5 4.61 6.39 5.5 7.5 5.5ZM16.5 5.5C17.61 5.5 18.5 4.61 18.5 3.5C18.5 2.39 17.61 1.5 16.5 1.5C15.39 1.5 14.5 2.39 14.5 3.5C14.5 4.61 15.39 5.5 16.5 5.5Z" fill="#1C3553"/>
</svg>
