<svg width="24" height="24" viewBox="0 0 24 24" fill="none" xmlns="http://www.w3.org/2000/svg">
<path d="M19.2898 15.95C18.9398 15.43 18.5298 14.76 18.4898 14.68V11.05C18.4898 10.35 18.2198 9.71 17.7998 9.21H18.4398L18.4598 8.73C18.4598 8.61 18.5598 5.7 17.1898 4.28C16.6798 3.77 16.0598 3.5 15.3198 3.5C14.5798 3.5 13.9598 3.76 13.4598 4.29C12.0998 5.71 12.2198 8.62 12.2298 8.74L12.2498 9.22H12.8498C12.4198 9.72 12.1598 10.35 12.1598 11.06V14.6C12.1198 14.76 11.7098 15.43 11.3598 15.96L11.0698 16.39L11.5098 16.66C11.5098 16.66 12.1498 17.05 13.1798 17.12V20.85H14.1798V16.11L13.6598 16.13C13.1798 16.15 12.7998 16.08 12.5198 16.01C13.1498 15.01 13.1498 14.81 13.1498 14.7V11.07C13.1498 10.06 13.9698 9.24 14.9798 9.24H15.6498C16.6598 9.24 17.4798 10.06 17.4798 11.07V14.7C17.4798 14.82 17.4798 15.02 18.1098 16.01C17.8298 16.09 17.4398 16.16 16.9698 16.13L16.4498 16.11V20.85H17.4498V17.12C18.4798 17.05 19.0898 16.68 19.1198 16.66L19.5598 16.39L19.2698 15.96L19.2898 15.95ZM14.1798 4.98C14.7898 4.34 15.8398 4.34 16.4598 4.98C17.2498 5.8 17.4198 7.41 17.4498 8.22H13.2198C13.2498 7.3 13.4498 5.74 14.1798 4.98Z" fill="#002341"/>
<path d="M8.93977 8.63C9.62977 8.11 10.0798 7.29 10.0798 6.36C10.0798 4.78 8.79977 3.5 7.21977 3.5C5.63977 3.5 4.35977 4.78 4.35977 6.36C4.35977 7.27 4.78977 8.07 5.45977 8.6C4.59977 9.09 4.00977 10 4.00977 11.06V14.69C4.00977 15.56 4.40977 16.37 5.07977 16.91V20.85H6.08977L6.06977 16.39L5.83977 16.24C5.30977 15.9 4.99977 15.32 4.99977 14.7V11.07C4.99977 10.06 5.81977 9.24 6.82977 9.24H7.49977C8.50977 9.24 9.32977 10.06 9.32977 11.07V14.7C9.32977 15.31 9.02977 15.88 8.51977 16.22L8.29977 16.37V20.86H9.29977V16.89C9.94977 16.35 10.3298 15.56 10.3298 14.7V11.07C10.3298 10.04 9.76977 9.14 8.93977 8.64V8.63ZM7.21977 4.5C8.24977 4.5 9.07977 5.33 9.07977 6.36C9.07977 7.39 8.24977 8.22 7.21977 8.22C6.18977 8.22 5.35977 7.39 5.35977 6.36C5.35977 5.33 6.18977 4.5 7.21977 4.5Z" fill="#002341"/>
</svg>
