<svg width="24" height="24" viewBox="0 0 24 24" fill="none" xmlns="http://www.w3.org/2000/svg">
<path d="M2.7 8.89H1.58C1.53582 8.89 1.5 8.92582 1.5 8.97V10.09C1.5 10.1342 1.53582 10.17 1.58 10.17H2.7C2.74418 10.17 2.78 10.1342 2.78 10.09V8.97C2.78 8.92582 2.74418 8.89 2.7 8.89Z" fill="#002341"/>
<path d="M3.52 3.5L21.42 20.48M5.45 8.76V15.22M8.11 8.76V15.22M10.76 8.76V15.22M13.41 8.76V15.22M16.01 8.76V15.22M18.62 8.76V15.22M22.88 8.08V9.43M22.77 9.43H21.42M5.54 17.41V18.97M4.02 6.61H20.21C20.8783 6.61 21.42 7.15174 21.42 7.82V16.09C21.42 16.7583 20.8783 17.3 20.21 17.3H4.02C3.35174 17.3 2.81 16.7583 2.81 16.09V7.82C2.81 7.15174 3.35174 6.61 4.02 6.61ZM1.58 8.89H2.7C2.74418 8.89 2.78 8.92582 2.78 8.97V10.09C2.78 10.1342 2.74418 10.17 2.7 10.17H1.58C1.53582 10.17 1.5 10.1342 1.5 10.09V8.97C1.5 8.92582 1.53582 8.89 1.58 8.89Z" stroke="#002341" stroke-miterlimit="10" stroke-linecap="round"/>
</svg>
