<svg width="24" height="24" viewBox="0 0 24 24" fill="none" xmlns="http://www.w3.org/2000/svg">
<path d="M11.89 14.12C11.38 14.12 10.99 14.52 10.99 15C10.99 15.48 11.38 15.9 11.89 15.9C12.4 15.9 12.76 15.51 12.76 15C12.76 14.49 12.4 14.12 11.89 14.12Z" fill="#002341"/>
<path d="M12.57 4.64C11.52 4.64 10.62 4.92 9.82 5.49V6.7C10.19 6.36 11.06 5.74 12.45 5.74C14.09 5.74 14.97 6.64 14.97 8.01C14.97 9.38 14.07 10.24 12.23 10.24H11.27V12.79H12.44V11.18H12.7C14.93 11.18 16.16 9.74 16.16 7.92C16.16 6 14.83 4.64 12.56 4.64H12.57Z" fill="#002341"/>
<path d="M12.33 2C7.74 2 4 5.74 4 10.33C4 14.92 7.74 18.66 12.33 18.66H12.78V20.9C12.78 21.11 12.91 21.29 13.1 21.37C13.16 21.39 13.22 21.4 13.28 21.4C13.42 21.4 13.55 21.34 13.65 21.24L18.65 15.72C18.65 15.72 18.65 15.72 18.65 15.71C19.96 14.16 20.66 12.31 20.66 10.34C20.66 5.74 16.92 2 12.33 2ZM17.89 15.05L13.77 19.6V18.16C13.77 17.88 13.55 17.66 13.27 17.66H12.32C8.28 17.66 4.99 14.37 4.99 10.33C4.99 6.29 8.29 3 12.33 3C16.37 3 19.66 6.29 19.66 10.33C19.66 12.06 19.05 13.69 17.89 15.05Z" fill="#002341"/>
</svg>
