<svg width="24" height="24" viewBox="0 0 24 24" fill="none" xmlns="http://www.w3.org/2000/svg">
<path d="M4.5002 21.4249C3.98353 21.4249 3.53353 21.2333 3.1502 20.85C2.76686 20.4666 2.5752 20.0166 2.5752 19.5V4.49995C2.5752 3.98328 2.76686 3.53328 3.1502 3.14995C3.53353 2.76662 3.98353 2.57495 4.5002 2.57495H19.5002C20.0169 2.57495 20.4669 2.76662 20.8502 3.14995C21.2335 3.53328 21.4252 3.98328 21.4252 4.49995V19.5C21.4252 20.0166 21.2335 20.4666 20.8502 20.85C20.4669 21.2333 20.0169 21.4249 19.5002 21.4249H4.5002ZM11.8752 18.05C12.1919 18.05 12.4544 17.9416 12.6627 17.725C12.871 17.5083 12.9752 17.25 12.9752 16.95C12.9752 16.65 12.8669 16.3958 12.6502 16.1875C12.4335 15.9791 12.1752 15.875 11.8752 15.875C11.5919 15.875 11.3419 15.9791 11.1252 16.1875C10.9085 16.3958 10.8002 16.65 10.8002 16.95C10.8002 17.25 10.9044 17.5083 11.1127 17.725C11.321 17.9416 11.5752 18.05 11.8752 18.05ZM12.7002 13.325C12.7502 13.075 12.8794 12.8041 13.0877 12.5125C13.296 12.2208 13.5585 11.9166 13.8752 11.6C14.3585 11.1166 14.7127 10.6541 14.9377 10.2125C15.1627 9.77078 15.2752 9.28328 15.2752 8.74995C15.2752 7.83328 14.9835 7.12078 14.4002 6.61245C13.8169 6.10412 13.0252 5.85828 12.0252 5.87495C11.2585 5.89162 10.5419 6.07078 9.8752 6.41245C9.20853 6.75412 8.8002 7.15828 8.6502 7.62495C8.58353 7.82495 8.56686 8.02495 8.6002 8.22495C8.63353 8.42495 8.7252 8.57495 8.8752 8.67495C9.10853 8.80828 9.34603 8.83328 9.5877 8.74995C9.82936 8.66662 10.0502 8.53329 10.2502 8.34995C10.5002 8.11662 10.7669 7.93328 11.0502 7.79995C11.3335 7.66662 11.6502 7.59995 12.0002 7.59995C12.4502 7.59995 12.8169 7.71662 13.1002 7.94995C13.3835 8.18328 13.5252 8.50829 13.5252 8.92495C13.5252 9.24162 13.4419 9.53745 13.2752 9.81245C13.1085 10.0875 12.8252 10.425 12.4252 10.825C11.9419 11.325 11.5835 11.7833 11.3502 12.2C11.1169 12.6166 11.0002 12.9916 11.0002 13.325C11.0002 13.575 11.071 13.7875 11.2127 13.9625C11.3544 14.1375 11.5335 14.225 11.7502 14.225C11.9835 14.225 12.1877 14.1416 12.3627 13.975C12.5377 13.8083 12.6502 13.5916 12.7002 13.325Z" fill="#1C3553"/>
</svg>
