<svg width="24" height="24" viewBox="0 0 24 24" fill="none" xmlns="http://www.w3.org/2000/svg">
<path d="M13.48 6.44C13.28 6.2 12.99 6.07 12.65 6.07C12.34 6.07 12.05 6.18 11.86 6.37L7.99 9.96C7.75 10.2 7.62 10.5 7.62 10.82V16.93C7.62 17.59 8.14 18.11 8.8 18.11H12.28C12.38 18.11 12.48 18.06 12.58 17.96L17.53 13.04C17.53 13.04 17.69 12.86 17.69 12.73V10.83C17.69 10.49 17.54 10.18 17.3 9.98L13.49 6.44H13.48ZM16.65 11.94H12.66C12.02 11.94 11.48 12.48 11.48 13.12V17.08H8.81C8.73 17.08 8.67 17.02 8.67 16.94V10.83C8.67 10.83 8.67 10.76 8.72 10.72L12.58 7.13C12.58 7.13 12.62 7.11 12.66 7.11L16.63 10.77C16.63 10.77 16.65 10.79 16.65 10.83V11.94ZM12.52 16.57V13.12C12.52 13.05 12.59 12.98 12.66 12.98H16.13L12.52 16.57Z" fill="#002341"/>
<path d="M12.24 2C6.59 2 2 6.59 2 12.24C2 17.89 6.59 22.48 12.24 22.48C17.89 22.48 22.48 17.89 22.48 12.24C22.48 6.59 17.89 2 12.24 2ZM12.24 21.48C7.14 21.48 3 17.33 3 12.24C3 7.15 7.15 3 12.24 3C17.33 3 21.48 7.15 21.48 12.24C21.48 17.33 17.33 21.48 12.24 21.48Z" fill="#002341"/>
</svg>
