<svg width="24" height="24" viewBox="0 0 24 24" fill="none" xmlns="http://www.w3.org/2000/svg">
<path fill-rule="evenodd" clip-rule="evenodd" d="M21 21H3V3H21V21ZM4.1889 19.8111H19.8111V4.1889H4.1889V19.8111ZM5.88901 15.6856H7.96959V8.98018H6.31701V8.21928C7.14924 8.07661 7.7437 7.85072 8.24304 7.55349H9.13471V15.6856H11.0132V16.6605H5.88901V15.6856ZM16.7084 10.1097C16.7084 11.5839 15.1628 13.2246 12.4284 15.9472V16.6367H18.3016V15.6262H15.6622C15.1985 15.6262 14.6397 15.6618 14.1404 15.7094C16.2923 13.4624 17.8498 11.7622 17.8498 10.0502C17.8498 8.44519 16.8154 7.37517 15.1272 7.37517C13.9502 7.37517 13.1417 7.92207 12.3808 8.7543L13.0466 9.42009C13.5697 8.81375 14.2236 8.3263 14.9845 8.3263C16.1377 8.3263 16.7084 9.06342 16.7084 10.1097Z" fill="#002341"/>
</svg>
