<svg width="24" height="24" viewBox="0 0 24 24" fill="none" xmlns="http://www.w3.org/2000/svg">
<path fill-rule="evenodd" clip-rule="evenodd" d="M11.9997 7.83245C12.7819 7.83245 13.4159 7.19838 13.4159 6.41622C13.4159 5.63406 12.7819 5 11.9997 5C11.2176 5 10.5835 5.63406 10.5835 6.41622C10.5835 7.19838 11.2176 7.83245 11.9997 7.83245ZM11.9998 13.2566C12.782 13.2566 13.416 12.6225 13.416 11.8403C13.416 11.0582 12.782 10.4241 11.9998 10.4241C11.2177 10.4241 10.5836 11.0582 10.5836 11.8403C10.5836 12.6225 11.2177 13.2566 11.9998 13.2566ZM13.416 17.1937C13.416 17.9758 12.782 18.6099 11.9998 18.6099C11.2177 18.6099 10.5836 17.9758 10.5836 17.1937C10.5836 16.4115 11.2177 15.7774 11.9998 15.7774C12.782 15.7774 13.416 16.4115 13.416 17.1937Z" fill="#002341"/>
</svg>
