<svg width="24" height="24" viewBox="0 0 24 24" fill="none" xmlns="http://www.w3.org/2000/svg">
<path d="M6.26006 11.0199C6.01006 11.0199 5.79006 11.1199 5.61006 11.2899C5.44006 11.4599 5.35006 11.6999 5.35006 11.9399C5.35006 12.1799 5.45006 12.4099 5.63006 12.5799C5.80006 12.7499 6.02006 12.8499 6.28006 12.8399C6.52006 12.8399 6.75006 12.7399 6.92006 12.5699C7.09006 12.3999 7.18006 12.1599 7.18006 11.9199C7.18006 11.6799 7.08006 11.4499 6.90006 11.2799C6.73006 11.1099 6.50006 11.0199 6.26006 11.0199Z" fill="white"/>
<path d="M9.88006 9.15995C9.11006 8.39995 8.09006 7.99995 7.01006 7.99995C5.93006 7.99995 4.92006 8.43995 4.16006 9.20995C2.60006 10.7999 2.62006 13.3699 4.21006 14.9299C4.97006 15.6799 5.98006 16.0899 7.04006 16.0899H7.08006C8.16006 16.0799 9.17006 15.6499 9.93006 14.8799C11.4901 13.2899 11.4701 10.7199 9.88006 9.15995ZM7.62006 13.2799C7.26006 13.6499 6.78006 13.8499 6.27006 13.8499H6.25006C5.74006 13.8499 5.27006 13.6599 4.91006 13.2999C4.54006 12.9399 4.34006 12.4599 4.34006 11.9499C4.34006 11.4399 4.53006 10.9499 4.89006 10.5899C5.25006 10.2199 5.73006 10.0199 6.24006 10.0199C6.76006 9.97995 7.24006 10.2099 7.60006 10.5699C7.97006 10.9299 8.17006 11.4099 8.17006 11.9199C8.17006 12.4299 7.98006 12.9199 7.62006 13.2799Z" fill="white"/>
<path d="M6.24006 10.0199C5.73006 10.0199 5.25006 10.2299 4.89006 10.5899C4.53006 10.9599 4.34006 11.4399 4.34006 11.9499C4.34006 12.4599 4.55006 12.9399 4.91006 13.2999C5.27006 13.6499 5.75006 13.8499 6.25006 13.8499H6.27006C6.78006 13.8499 7.26006 13.6399 7.62006 13.2799C7.98006 12.9099 8.17006 12.4299 8.17006 11.9199C8.17006 11.4099 7.96006 10.9299 7.60006 10.5699C7.24006 10.2099 6.76006 9.98995 6.24006 10.0199ZM6.91006 12.5799C6.74006 12.7499 6.51006 12.8499 6.27006 12.8499C6.01006 12.8599 5.79006 12.7599 5.62006 12.5899C5.44006 12.4199 5.35006 12.1899 5.34006 11.9399C5.34006 11.6899 5.43006 11.4599 5.60006 11.2899C5.77006 11.1199 6.00006 11.0199 6.25006 11.0199C6.49006 11.0199 6.72006 11.1099 6.89006 11.2799C7.07006 11.4499 7.16006 11.6799 7.17006 11.9199C7.17006 12.1699 7.08006 12.3999 6.91006 12.5699V12.5799Z" fill="#002341"/>
<path d="M19.5301 9.43995L11.4201 9.58995C11.1901 9.17995 10.9201 8.78995 10.5701 8.43995C9.62006 7.49995 8.36006 6.97995 7.00006 6.99995C5.65006 7.00995 4.39006 7.54995 3.45006 8.50995C1.50006 10.4999 1.53006 13.6999 3.52006 15.6499C4.47006 16.5799 5.72006 17.0999 7.05006 17.0999C7.07006 17.0999 7.08006 17.0999 7.10006 17.0999C8.45006 17.0899 9.71006 16.5499 10.6501 15.5899C11.1501 15.0799 11.5201 14.4799 11.7601 13.8499L14.8101 14.0999L16.3801 12.4999L19.2501 14.4599L21.9001 11.7599L19.5401 9.44995L19.5301 9.43995ZM7.04006 16.0999C5.97006 16.0999 4.97006 15.6899 4.21006 14.9399C2.62006 13.3799 2.59006 10.8099 4.16006 9.21995C4.92006 8.44995 5.93006 8.01995 7.01006 8.00995C8.09006 8.00995 9.11006 8.40995 9.88006 9.16995C11.4701 10.7299 11.5001 13.2999 9.93006 14.8899C9.17006 15.6599 8.16006 16.0899 7.08006 16.0999H7.04006ZM19.1101 13.1599L16.2401 11.1999L14.4101 13.0599L12.0001 12.8699C12.1201 12.1099 12.0601 11.3299 11.8301 10.5899L19.1101 10.4499L20.4601 11.7699L19.1001 13.1599H19.1101Z" fill="#002341"/>
</svg>
