<svg width="24" height="24" viewBox="0 0 24 24" fill="none" xmlns="http://www.w3.org/2000/svg">
<path fill-rule="evenodd" clip-rule="evenodd" d="M4 4H11V5H11.5C11.7761 5 12 5.22386 12 5.5C12 5.77614 11.7761 6 11.5 6H11V8C11 8.33357 10.8367 8.629 10.5856 8.81067H23.551C23.824 9.02794 23.9993 9.36022 23.9993 9.7309C23.9993 10.3814 23.4593 10.9136 22.7994 10.9136H21.5994V19.1926C21.5994 19.8431 21.0594 20.3753 20.3994 20.3753H3.5999C2.93992 20.3753 2.39993 19.8431 2.39993 19.1926V10.9136H1.19997C0.539985 10.9136 0 10.3814 0 9.7309C0 9.36022 0.175347 9.02794 0.448324 8.81067H4.41437C4.16333 8.629 4 8.33357 4 8V6H3.5C3.22386 6 3 5.77614 3 5.5C3 5.22386 3.22386 5 3.5 5H4V4ZM10.7997 18.0099H13.1996V10.9136H10.7997V18.0099Z" fill="#1C3553"/>
</svg>
