<svg width="24" height="24" viewBox="0 0 24 24" fill="none" xmlns="http://www.w3.org/2000/svg">
<path d="M1.5 12.89C1.22 12.89 1 13.11 1 13.39C1 13.67 1.22 13.89 1.5 13.89H2.61C2.6 13.96 2.57 14.03 2.57 14.11V20.75C2.57 21.42 3.12 21.97 3.79 21.97H20.45C21.12 21.97 21.67 21.42 21.67 20.75V14.11C21.67 14.03 21.64 13.96 21.63 13.89H22.74C23.02 13.89 23.24 13.67 23.24 13.39C23.24 13.11 23.02 12.89 22.74 12.89H1.5ZM8.98 15.33V13.89H15.45V15.33H8.98ZM7.98 13.89V15.33H3.57V14.11C3.57 13.99 3.67 13.89 3.79 13.89H7.99H7.98ZM3.79 20.97C3.67 20.97 3.57 20.87 3.57 20.75V16.33H20.67V20.75C20.67 20.87 20.57 20.97 20.45 20.97H3.79ZM20.66 14.11V15.33H16.45V13.89H20.44C20.56 13.89 20.66 13.99 20.66 14.11Z" fill="#002341"/>
<path d="M9.61 11.16C9.14 11.16 8.76 11.54 8.76 12.01V12.22H16.23V12.01C16.23 11.54 15.85 11.16 15.38 11.16H9.61Z" fill="#002341"/>
<path d="M17.03 12.01V12.22H21.62V12.01C21.62 11.54 21.24 11.16 20.77 11.16H17.88C17.41 11.16 17.03 11.54 17.03 12.01Z" fill="#002341"/>
<path d="M6.72 8.14H17.68C18.22 8.14 18.68 7.82 18.79 7.37C18.89 6.96 18.69 6.56 18.27 6.34L14.77 4.53V2.5H13.77V5.13L17.64 7.14H6.75L10.62 5.13V2.5H9.62V4.52L6.12 6.33C5.7 6.54 5.5 6.95 5.6 7.36C5.71 7.81 6.17 8.13 6.71 8.13L6.72 8.14Z" fill="#002341"/>
</svg>
