<svg width="24" height="24" viewBox="0 0 24 24" fill="none" xmlns="http://www.w3.org/2000/svg">
<path d="M9.55 16.005C9.35 16.185 9.34 16.5 9.57 16.662C11.14 17.742 13.4 17.634 14.83 16.347C16.26 15.06 16.38 13.026 15.18 11.613C15 11.406 14.65 11.406 14.45 11.595L9.55 16.005ZM18 3.009L6 3C4.89 3 4 3.801 4 4.8V19.2C4 20.199 4.89 21 6 21H18C19.11 21 20 20.199 20 19.2V4.8C20 3.801 19.11 3.009 18 3.009ZM10 4.8C10.55 4.8 11 5.205 11 5.7C11 6.195 10.55 6.6 10 6.6C9.45 6.6 9 6.195 9 5.7C9 5.205 9.45 4.8 10 4.8ZM7 4.8C7.55 4.8 8 5.205 8 5.7C8 6.195 7.55 6.6 7 6.6C6.45 6.6 6 6.195 6 5.7C6 5.205 6.45 4.8 7 4.8ZM12 19.2C8.69 19.2 6 16.779 6 13.8C6 10.821 8.69 8.4 12 8.4C15.31 8.4 18 10.821 18 13.8C18 16.779 15.31 19.2 12 19.2Z" fill="#1C3553"/>
</svg>
