<svg width="24" height="24" viewBox="0 0 24 24" fill="none" xmlns="http://www.w3.org/2000/svg">
<path fill-rule="evenodd" clip-rule="evenodd" d="M11.5155 16.04C11.517 16.0401 11.5185 16.0401 11.52 16.0401H11.51C11.5118 16.0401 11.5137 16.0401 11.5155 16.04ZM11.24 15.9601C11.3286 16.0093 11.4173 16.0392 11.5155 16.04C11.6137 16.0393 11.7115 16.019 11.79 15.9601L20.81 9.94006C20.95 9.84006 21.03 9.69006 21.03 9.52006C21.03 9.35006 20.95 9.19006 20.81 9.10006L11.79 3.08006C11.63 2.97006 11.41 2.97006 11.24 3.08006L2.22 9.10006C2.08 9.20006 2 9.35006 2 9.52006C2 9.69006 2.08 9.84006 2.22 9.93006L11.24 15.9601ZM11.52 14.9401L3.4 9.52006L11.52 4.10006L19.64 9.52006L11.52 14.9401ZM11.2398 19.63C11.3271 19.6785 11.4144 19.7082 11.5108 19.71C11.5072 19.71 11.5035 19.71 11.4998 19.71H11.5198C11.5168 19.71 11.5138 19.71 11.5108 19.71C11.6071 19.7085 11.7028 19.6878 11.7798 19.63L20.7998 13.61C21.0298 13.46 21.0898 13.15 20.9398 12.92C20.7898 12.69 20.4798 12.63 20.2498 12.78L11.5098 18.61L2.76984 12.78C2.53984 12.63 2.22984 12.69 2.07984 12.92C1.92984 13.15 1.98984 13.46 2.21984 13.61L11.2398 19.63Z" fill="#002341"/>
</svg>
