<svg width="24" height="24" viewBox="0 0 24 24" fill="none" xmlns="http://www.w3.org/2000/svg">
<path d="M3.83988 3.14001C3.64988 2.95001 3.32988 2.96001 3.13988 3.16001C2.94988 3.36001 2.95988 3.68001 3.15988 3.87001L7.14988 7.65001C7.21988 7.27001 7.30988 6.91001 7.45988 6.56001L3.83988 3.14001Z" fill="#002341"/>
<path d="M21.7399 20.11L15.3099 14.01C15.1799 14.37 15.0999 14.75 15.0499 15.14L21.0499 20.84C21.1499 20.93 21.2699 20.98 21.3899 20.98C21.5199 20.98 21.6499 20.93 21.7499 20.82C21.9399 20.62 21.9299 20.3 21.7299 20.11H21.7399Z" fill="#002341"/>
<path d="M8.23988 7.31001C8.12988 7.66001 8.05988 8.02001 8.03988 8.40001C8.03988 8.44001 8.03988 8.47001 8.03988 8.50001L14.1699 14.31C14.2599 13.95 14.3699 13.6 14.5199 13.26L8.23988 7.30001V7.31001Z" fill="#002341"/>
<path d="M16.3699 12.24C17.3199 11.24 17.8399 9.93001 17.8399 8.55001C17.8399 7.09001 17.2699 5.73001 16.2299 4.70001C15.1899 3.68001 13.7899 3.13001 12.3599 3.15001C10.1599 3.19001 8.24988 4.61001 7.45988 6.56001C7.31988 6.91001 7.21988 7.27001 7.14988 7.65001C7.10988 7.89001 7.05988 8.13001 7.04988 8.38001C7.00988 9.77001 7.48988 11.1 8.40988 12.13C9.36988 13.21 9.89988 14.56 9.89988 15.94V16.61H14.9799V15.94C14.9799 15.67 15.0099 15.4 15.0499 15.14C15.0999 14.75 15.1799 14.37 15.3099 14.01C15.5499 13.34 15.8999 12.74 16.3699 12.24ZM13.9899 15.62H10.8999C10.8199 14.11 10.2099 12.64 9.15988 11.47C8.42988 10.65 8.04988 9.61001 8.05988 8.52001C8.05988 8.49001 8.05988 8.45001 8.05988 8.42001C8.06988 8.04001 8.14988 7.68001 8.25988 7.33001C8.79988 5.54001 10.4499 4.20001 12.3799 4.17001C13.5599 4.17001 14.6899 4.60001 15.5399 5.43001C16.3899 6.26001 16.8499 7.38001 16.8499 8.56001C16.8499 9.68001 16.4299 10.75 15.6599 11.57C15.1899 12.07 14.8199 12.65 14.5499 13.29C14.3999 13.62 14.2899 13.97 14.1999 14.34C14.0999 14.76 14.0299 15.19 14.0099 15.64L13.9899 15.62Z" fill="#002341"/>
<path d="M14.6599 17.16H10.1699V18.16H14.6599V17.16Z" fill="#002341"/>
<path d="M14.6599 18.56H10.1699V19.56H14.6599V18.56Z" fill="#002341"/>
<path d="M13.9599 19.94H10.8599V20.94H13.9599V19.94Z" fill="#002341"/>
</svg>
