<svg width="24" height="24" viewBox="0 0 24 24" fill="none" xmlns="http://www.w3.org/2000/svg">
<path fill-rule="evenodd" clip-rule="evenodd" d="M8.24 9.09V19.34H5.24V19.33V9.09H8.24ZM8.48 5.85C8.48 4.83 7.7 4 6.74 4C5.78 4 5 4.83 5 5.85C5 6.87 5.78 7.7 6.74 7.7C7.7 7.7 8.48 6.87 8.48 5.85ZM12.9899 9.08997H10.1199H10.1099V19.34H13.0999V14.27C13.0999 12.93 13.3599 11.64 14.8999 11.64C16.4399 11.64 16.4599 13.17 16.4599 14.36V19.34H19.4499V13.72C19.4499 10.96 18.8899 8.83997 15.8599 8.83997C14.4099 8.83997 13.4299 9.68997 13.0299 10.49H12.9899V9.08997Z" fill="#002341"/>
</svg>
