<svg width="24" height="24" viewBox="0 0 24 24" fill="none" xmlns="http://www.w3.org/2000/svg">
<path fill-rule="evenodd" clip-rule="evenodd" d="M5.1263 8.16959H6.64677C6.97425 8.16959 7.23156 7.91228 7.23156 7.5848C7.23156 7.25731 6.97425 7 6.64677 7H5.1263C4.79881 7 4.5415 7.25731 4.5415 7.5848C4.5415 7.91228 4.79881 8.16959 5.1263 8.16959ZM9.11507 8.16959H18.542C18.8695 8.16959 19.1268 7.91228 19.1268 7.5848C19.1268 7.25731 18.8695 7 18.542 7H9.11507C8.78758 7 8.53027 7.25731 8.53027 7.5848C8.53027 7.91228 8.78758 8.16959 9.11507 8.16959ZM9.11507 12.5789H18.542C18.8695 12.5789 19.1268 12.3216 19.1268 11.9941C19.1268 11.6666 18.8695 11.4093 18.542 11.4093H9.11507C8.78758 11.4093 8.53027 11.6666 8.53027 11.9941C8.53027 12.3216 8.78758 12.5789 9.11507 12.5789ZM18.542 17H9.11507C8.78758 17 8.53027 16.7427 8.53027 16.4152C8.53027 16.0878 8.78758 15.8304 9.11507 15.8304H18.542C18.8695 15.8304 19.1268 16.0878 19.1268 16.4152C19.1268 16.7427 18.8695 17 18.542 17ZM6.64677 12.5789H5.1263C4.79881 12.5789 4.5415 12.3216 4.5415 11.9941C4.5415 11.6666 4.79881 11.4093 5.1263 11.4093H6.64677C6.97425 11.4093 7.23156 11.6666 7.23156 11.9941C7.23156 12.3216 6.97425 12.5789 6.64677 12.5789ZM5.1263 17H6.64677C6.97425 17 7.23156 16.7427 7.23156 16.4152C7.23156 16.0878 6.97425 15.8304 6.64677 15.8304H5.1263C4.79881 15.8304 4.5415 16.0878 4.5415 16.4152C4.5415 16.7427 4.79881 17 5.1263 17Z" fill="#002341"/>
</svg>
