<svg width="24" height="24" viewBox="0 0 24 24" fill="none" xmlns="http://www.w3.org/2000/svg">
<path fill-rule="evenodd" clip-rule="evenodd" d="M6.74516 13.9181L12.3687 22.5188V22.5302L17.8325 14.5797L18.1861 14.0322C19.11 12.6064 19.9769 11.2604 19.9997 9.40107C20.034 5.26044 16.7032 1.87265 12.574 1.82703C10.555 1.82703 8.67289 2.56846 7.24705 3.97148C5.82122 5.37451 5.02275 7.25661 4.99994 9.25278C4.97723 11.1035 5.86993 12.5247 6.73312 13.899L6.74516 13.9181ZM8.04552 4.78136C9.24323 3.60647 10.8174 2.9677 12.4941 2.9677L12.4713 2.95629H12.5398C16.053 2.99051 18.8705 5.8764 18.8363 9.37826C18.8249 10.9068 18.072 12.0702 17.2051 13.4048L12.3801 20.4656L8.09115 13.9181L7.70332 13.3022L7.68639 13.2749C6.84949 11.9292 6.12928 10.7711 6.14061 9.25278C6.15201 7.56459 6.83641 5.96766 8.04552 4.78136ZM9.72246 9.07028C9.72246 10.5988 10.9658 11.8421 12.4943 11.8421C14.0228 11.8421 15.2661 10.5988 15.2661 9.07028C15.2661 7.54178 14.0228 6.29845 12.4943 6.29845C10.9658 6.29845 9.72246 7.54178 9.72246 9.07028ZM10.8631 9.08169C10.8631 8.18056 11.5932 7.45053 12.4943 7.45053C13.3954 7.45053 14.1254 8.18056 14.1254 9.08169C14.1254 9.98281 13.3954 10.7128 12.4943 10.7128C11.5932 10.7128 10.8631 9.98281 10.8631 9.08169Z" fill="#002341"/>
</svg>
