<svg width="24" height="24" viewBox="0 0 24 24" fill="none" xmlns="http://www.w3.org/2000/svg">
<path fill-rule="evenodd" clip-rule="evenodd" d="M8.44909 8.59008H18.4334C19.3003 8.59008 20 9.28982 20 10.1567V20.8825C20 21.7493 19.3003 22.4491 18.4334 22.4491H5.56658C4.69974 22.4491 4 21.7493 4 20.8825V10.1567C4 9.28982 4.69974 8.59008 5.56658 8.59008H7.4047V6.78329C7.4047 4.14099 9.55614 2 12.1775 2C13.7755 2 15.2585 2.79373 16.1462 4.10966C16.3133 4.34987 16.2507 4.67363 16.0104 4.83029C15.7807 4.99739 15.4569 4.93473 15.2898 4.69452C14.5901 3.66057 13.4308 3.04439 12.188 3.04439C10.1305 3.04439 8.44909 4.72585 8.44909 6.78329V8.59008ZM18.4334 21.4047C18.7258 21.4047 18.9556 21.1749 18.9556 20.8825V10.1567C18.9556 9.86423 18.7258 9.63447 18.4334 9.63447H5.56658C5.27415 9.63447 5.04439 9.86423 5.04439 10.1567V20.8825C5.04439 21.1749 5.27415 21.4047 5.56658 21.4047H18.4334ZM11.4778 13.6867H12.5222V17.2272H11.4778V13.6867Z" fill="#002341"/>
</svg>
