<svg width="24" height="24" viewBox="0 0 24 24" fill="none" xmlns="http://www.w3.org/2000/svg">
<rect x="2" y="15" width="19" height="1.28571" rx="0.642857" fill="#1C3553"/>
<rect x="2" y="20.7856" width="19" height="1.28571" rx="0.642857" fill="#1C3553"/>
<rect x="4.46289" y="15" width="6.42857" height="1.47778" rx="0.738889" transform="rotate(90 4.46289 15)" fill="#1C3553"/>
<rect x="7.62988" y="15" width="6.42857" height="1.47778" rx="0.738889" transform="rotate(90 7.62988 15)" fill="#1C3553"/>
<rect x="10.7969" y="15" width="6.42857" height="1.47778" rx="0.738889" transform="rotate(90 10.7969 15)" fill="#1C3553"/>
<rect x="13.9629" y="15" width="6.42857" height="1.47778" rx="0.738889" transform="rotate(90 13.9629 15)" fill="#1C3553"/>
<rect x="17.1299" y="15" width="6.42857" height="1.47778" rx="0.738889" transform="rotate(90 17.1299 15)" fill="#1C3553"/>
<rect x="20.2959" y="15" width="6.42857" height="1.47778" rx="0.738889" transform="rotate(90 20.2959 15)" fill="#1C3553"/>
<path fill-rule="evenodd" clip-rule="evenodd" d="M5.42871 9.49946C5.42893 8.49964 6.03607 7.5 7.25014 7.5H8.4647C9.67899 7.5 10.2861 8.5 10.2861 9.5V8.5V6H9.07157H6.64328H5.42871V8.5V9.49946ZM14.5363 7.5C13.322 7.5 12.7148 8.5 12.7148 9.5V8.5V6H13.9294H16.3577H17.5723V8.5V9.5C17.5723 8.5 16.9651 7.5 15.7508 7.5H14.5363Z" fill="#1C3553"/>
<path fill-rule="evenodd" clip-rule="evenodd" d="M3 7C3 6.44772 3.44772 6 4 6H4.42857C4.98086 6 5.42857 6.44772 5.42857 7V13C5.42857 13.5523 4.98086 14 4.42857 14H4C3.44772 14 3 13.5523 3 13V7ZM10.2861 7C10.2861 6.44772 10.7338 6 11.2861 6H11.7147C12.267 6 12.7147 6.44772 12.7147 7V13C12.7147 13.5523 12.267 14 11.7147 14H11.2861C10.7338 14 10.2861 13.5523 10.2861 13V7ZM18.5713 6C18.019 6 17.5713 6.44772 17.5713 7V13C17.5713 13.5523 18.019 14 18.5713 14H18.9999C19.5521 14 19.9999 13.5523 19.9999 13V7C19.9999 6.44772 19.5521 6 18.9999 6H18.5713Z" fill="#1C3553"/>
<rect x="3" y="5" width="17" height="2" fill="#1C3553"/>
<rect x="3" y="5" width="1" height="9" fill="#1C3553"/>
<rect x="19" y="5" width="1" height="9" fill="#1C3553"/>
</svg>
