<svg width="24" height="24" viewBox="0 0 24 24" fill="none" xmlns="http://www.w3.org/2000/svg">
<path d="M16.84 11.49V5.37H6.17V11.49H7.17V6.37H11V11.49H12V6.37H15.84V11.49H16.84Z" fill="#002341"/>
<path d="M4.91 4.25H18.04V11.49H18.79V3.5H4.16V11.49H4.91V4.25Z" fill="#002341"/>
<path d="M0.5 12.25C0.22 12.25 0 12.47 0 12.75C0 13.03 0.22 13.25 0.5 13.25H2.02V15.79C1.66 15.98 1.4 16.34 1.4 16.78C1.4 17.22 1.66 17.58 2.02 17.77V20.81C2.02 21.09 2.24 21.31 2.52 21.31H20.5C20.78 21.31 21 21.09 21 20.81V17.77C21.36 17.58 21.62 17.22 21.62 16.78C21.62 16.34 21.36 15.98 21 15.79V13.25H22.52C22.8 13.25 23.02 13.03 23.02 12.75C23.02 12.47 22.8 12.25 22.52 12.25H0.5ZM16.4 15.79C16.04 15.98 15.78 16.34 15.78 16.78C15.78 17.22 16.04 17.58 16.4 17.77V20.31H13.8V17.77C14.16 17.58 14.42 17.22 14.42 16.78C14.42 16.34 14.16 15.98 13.8 15.79V13.25H16.4V15.79ZM6.61 17.77C6.97 17.58 7.23 17.22 7.23 16.78C7.23 16.34 6.97 15.98 6.61 15.79V13.25H9.21V15.79C8.85 15.98 8.59 16.34 8.59 16.78C8.59 17.22 8.85 17.58 9.21 17.77V20.31H6.61V17.77ZM10.21 17.77C10.57 17.58 10.83 17.22 10.83 16.78C10.83 16.34 10.57 15.98 10.21 15.79V13.25H12.81V15.79C12.45 15.98 12.19 16.34 12.19 16.78C12.19 17.22 12.45 17.58 12.81 17.77V20.31H10.21V17.77ZM5.61 13.25V15.79C5.25 15.98 4.99 16.34 4.99 16.78C4.99 17.22 5.25 17.58 5.61 17.77V20.31H3.01V17.77C3.37 17.58 3.63 17.22 3.63 16.78C3.63 16.34 3.37 15.98 3.01 15.79V13.25H5.61ZM19.99 15.79C19.63 15.98 19.37 16.34 19.37 16.78C19.37 17.22 19.63 17.58 19.99 17.77V20.31H17.39V17.77C17.75 17.58 18.01 17.22 18.01 16.78C18.01 16.34 17.75 15.98 17.39 15.79V13.25H19.99V15.79Z" fill="#002341"/>
</svg>
