<svg width="24" height="24" viewBox="0 0 24 24" fill="none" xmlns="http://www.w3.org/2000/svg">
<path fill-rule="evenodd" clip-rule="evenodd" d="M15.1463 14.2927L21.7805 19.9024C22.0366 20.1098 22.0732 20.5 21.8537 20.7561C21.7317 20.9024 21.561 20.9756 21.3902 20.9756C21.2561 20.9756 21.1098 20.9268 21 20.8293L14.3659 15.2317C13.061 16.5732 11.2317 17.4146 9.20732 17.4146C5.23171 17.4146 2 14.1829 2 10.2073C2 6.23171 5.2439 3 9.21951 3C13.1951 3 16.4268 6.23171 16.4268 10.2073C16.4268 11.7195 15.9512 13.1341 15.1463 14.2927ZM3.21951 10.2073C3.21951 13.5122 5.90244 16.1951 9.20732 16.1951C12.5122 16.1951 15.1951 13.5122 15.1951 10.2073C15.1951 6.90244 12.5122 4.21951 9.20732 4.21951C5.90244 4.21951 3.21951 6.90244 3.21951 10.2073ZM9.82938 9.59741H12.2196C12.5611 9.59741 12.8294 9.8657 12.8294 10.2072C12.8294 10.5486 12.5611 10.8169 12.2196 10.8169H9.82938V13.2072C9.82938 13.5486 9.56108 13.8169 9.21962 13.8169C8.87816 13.8169 8.60986 13.5486 8.60986 13.2072V10.8169H6.21962C5.87816 10.8169 5.60986 10.5486 5.60986 10.2072C5.60986 9.8657 5.87816 9.59741 6.21962 9.59741H8.60986V7.20717C8.60986 6.8657 8.87816 6.59741 9.21962 6.59741C9.56108 6.59741 9.82938 6.8657 9.82938 7.20717V9.59741Z" fill="#002341"/>
</svg>
