<svg width="24" height="24" viewBox="0 0 24 24" fill="none" xmlns="http://www.w3.org/2000/svg">
<path fill-rule="evenodd" clip-rule="evenodd" d="M15.0574 14.419L21.778 20.0914C22.037 20.3011 22.074 20.6957 21.852 20.9546C21.7287 21.1026 21.5561 21.1766 21.3834 21.1766C21.2478 21.1766 21.0998 21.1273 20.9888 21.0286L14.2805 15.3685C12.961 16.7249 11.1113 17.5758 9.06427 17.5758C5.04421 17.5758 1.77637 14.308 1.77637 10.2879C1.77637 6.26784 5.04421 3 9.06427 3C13.0843 3 16.3522 6.26784 16.3522 10.2879C16.3522 11.817 15.8713 13.2475 15.0574 14.419ZM3.00952 10.2879C3.00952 13.6297 5.72244 16.3427 9.06427 16.3427C12.4061 16.3427 15.119 13.6297 15.119 10.2879C15.119 6.94607 12.4061 4.23315 9.06427 4.23315C5.72244 4.23315 3.00952 6.94607 3.00952 10.2879ZM5.9071 9.67139H11.9865C12.3318 9.67139 12.6031 9.94268 12.6031 10.288C12.6031 10.6332 12.3318 10.9045 11.9865 10.9045H5.9071C5.56182 10.9045 5.29053 10.6332 5.29053 10.288C5.29053 9.94268 5.56182 9.67139 5.9071 9.67139Z" fill="#002341"/>
</svg>
