<svg width="24" height="24" viewBox="0 0 24 24" fill="none" xmlns="http://www.w3.org/2000/svg">
<path d="M21.778 20.0914L15.0574 14.419C15.8713 13.2475 16.3522 11.817 16.3522 10.2879C16.3522 6.26784 13.0843 3 9.06427 3C5.04421 3 1.77637 6.26784 1.77637 10.2879C1.77637 14.308 5.04421 17.5758 9.06427 17.5758C11.1113 17.5758 12.961 16.7249 14.2805 15.3685L20.9888 21.0286C21.0998 21.1273 21.2478 21.1766 21.3834 21.1766C21.5561 21.1766 21.7287 21.1026 21.852 20.9546C22.074 20.6957 22.037 20.3011 21.778 20.0914ZM9.06427 16.3427C5.72244 16.3427 3.00952 13.6297 3.00952 10.2879C3.00952 6.94607 5.72244 4.23315 9.06427 4.23315C12.4061 4.23315 15.119 6.94607 15.119 10.2879C15.119 13.6297 12.4061 16.3427 9.06427 16.3427Z" fill="#002341"/>
</svg>
