<svg width="24" height="24" viewBox="0 0 24 24" fill="none" xmlns="http://www.w3.org/2000/svg">
<path d="M21.22 3.09004C21.13 3.05004 20.96 2.99004 20.75 3.07004C20.67 3.10004 20.61 3.13004 20.56 3.16004L20.52 3.18004C20.52 3.18004 20.52 3.18004 20.5 3.18004L15.13 6.13004C13.6 5.42004 8.69 3.08004 8.63 3.06004C8.54 3.02004 8.37 2.96004 8.16 3.04004C7.95 3.12004 7.84 3.20004 7.84 3.20004L2.47 6.15004C2.18 6.31004 2 6.61004 2 6.94004V19.61C2 19.82 2.11 20.02 2.29 20.13C2.38 20.19 2.49 20.21 2.6 20.21C2.7 20.21 2.8 20.19 2.89 20.14L8.38 17.13L14.73 20.14C14.81 20.18 15.04 20.23 15.13 20.23C15.14 20.23 15.15 20.23 15.16 20.23C15.18 20.23 15.19 20.23 15.21 20.23C15.38 20.23 15.56 20.12 15.56 20.12L21.12 17.08C21.31 16.97 21.43 16.77 21.43 16.55V3.39004C21.41 3.19004 21.23 3.10004 21.22 3.09004ZM3 7.00004L7.84 4.34004V16.28L3 18.93V7.00004ZM8.84 4.27004L14.58 7.00004V18.97L8.84 16.24V4.27004ZM20.42 16.31L15.58 18.96V7.03004L20.42 4.38004V16.31Z" fill="#002341"/>
</svg>
