<svg width="24" height="24" viewBox="0 0 24 24" fill="none" xmlns="http://www.w3.org/2000/svg">
<path fill-rule="evenodd" clip-rule="evenodd" d="M17.97 9H6.5C6.22 9 6 8.78 6 8.5C6 8.22 6.22 8 6.5 8H17.97C18.25 8 18.47 8.22 18.47 8.5C18.47 8.78 18.25 9 17.97 9ZM17.97 12.77H6.5C6.22 12.77 6 12.55 6 12.27C6 11.99 6.22 11.77 6.5 11.77H17.97C18.25 11.77 18.47 11.99 18.47 12.27C18.47 12.55 18.25 12.77 17.97 12.77ZM6.5 16.55H17.97C18.25 16.55 18.47 16.33 18.47 16.05C18.47 15.77 18.25 15.55 17.97 15.55H6.5C6.22 15.55 6 15.77 6 16.05C6 16.33 6.22 16.55 6.5 16.55Z" fill="#002341"/>
</svg>
