<svg width="24" height="24" viewBox="0 0 24 24" fill="none" xmlns="http://www.w3.org/2000/svg">
<path d="M16.34 9.6L12.93 11.16L10.92 9.27C10.87 9.22 10.79 9.23 10.74 9.27L6.65 13.46C6.65 13.46 6.6 13.58 6.65 13.62C6.67 13.65 6.71 13.67 6.75 13.67C6.77 13.67 6.79 13.67 6.81 13.65L10.22 11.6L12.58 13.64C12.58 13.64 12.7 13.68 12.75 13.64L16.49 9.8C16.49 9.8 16.54 9.69 16.5 9.64C16.46 9.59 16.4 9.57 16.35 9.6H16.34Z" fill="#002341"/>
<path d="M11.57 4C6.84 4 3 7.39 3 11.55C3 13.78 4.12 15.87 6.09 17.32V20.9L9.04 18.74C9.92 18.99 10.75 19.11 11.58 19.11C16.31 19.11 20.15 15.72 20.15 11.55C20.15 7.38 16.3 4 11.57 4ZM11.57 18.11C10.77 18.11 9.96 17.98 9.08 17.72L8.84 17.65L7.08 18.94V16.81L6.86 16.66C5.03 15.4 3.99 13.54 3.99 11.56C4 7.94 7.4 5 11.57 5C15.74 5 19.14 7.94 19.14 11.55C19.14 15.16 15.74 18.11 11.57 18.11Z" fill="#002341"/>
</svg>
