<svg width="24" height="24" viewBox="0 0 24 24" fill="none" xmlns="http://www.w3.org/2000/svg">
<path d="M9.67 13.38C9.39 13.38 9.17 13.16 9.17 12.88V7.14C9.17 6.86 9.39 6.64 9.67 6.64C9.95 6.64 10.17 6.86 10.17 7.14V12.88C10.17 13.16 9.95 13.38 9.67 13.38Z" fill="#002341"/>
<path d="M12.19 13.38C11.91 13.38 11.69 13.16 11.69 12.88V7.14C11.69 6.86 11.91 6.64 12.19 6.64C12.47 6.64 12.69 6.86 12.69 7.14V12.88C12.69 13.16 12.47 13.38 12.19 13.38Z" fill="#002341"/>
<path d="M14.77 13.38C14.49 13.38 14.27 13.16 14.27 12.88V7.14C14.27 6.86 14.49 6.64 14.77 6.64C15.05 6.64 15.27 6.86 15.27 7.14V12.88C15.27 13.16 15.05 13.38 14.77 13.38Z" fill="#002341"/>
<path d="M12.22 19.94C7.69 19.94 4 16.25 4 11.72C4 7.19 7.69 3.5 12.22 3.5C16.75 3.5 20.44 7.19 20.44 11.72C20.44 16.25 16.75 19.94 12.22 19.94ZM12.22 4.5C8.24 4.5 5 7.74 5 11.72C5 15.7 8.24 18.94 12.22 18.94C16.2 18.94 19.44 15.7 19.44 11.72C19.44 7.74 16.2 4.5 12.22 4.5Z" fill="#002341"/>
<path d="M15.81 16.24H8.63C8.08 16.24 7.63 15.79 7.63 15.24C7.63 14.69 8.08 14.24 8.63 14.24H15.81C16.36 14.24 16.81 14.69 16.81 15.24C16.81 15.79 16.36 16.24 15.81 16.24Z" fill="#002341"/>
</svg>
