<svg width="24" height="24" viewBox="0 0 24 24" fill="none" xmlns="http://www.w3.org/2000/svg">
<path fill-rule="evenodd" clip-rule="evenodd" d="M20.0868 11.4438H21.4438C21.7553 11.4438 22 11.6885 22 12C22 12.3115 21.7553 12.5562 21.4438 12.5562H20.0756C19.7864 16.5606 16.5717 19.7642 12.5562 20.0423V21.4438C12.5562 21.7553 12.3115 22 12 22C11.6885 22 11.4438 21.7553 11.4438 21.4438V20.0423C7.42825 19.7753 4.21357 16.5717 3.92436 12.5562H2.55617C2.24472 12.5562 2 12.3115 2 12C2 11.6885 2.24472 11.4438 2.55617 11.4438H3.91324C4.1802 7.40601 7.40601 4.16908 11.4438 3.89099V2.55617C11.4438 2.24472 11.6885 2 12 2C12.3115 2 12.5562 2.24472 12.5562 2.55617V3.89099C16.6051 4.15795 19.8309 7.40601 20.0868 11.4438ZM5.01446 11.9666C5.01446 15.8265 8.15128 18.9633 12.0111 18.9633C15.871 18.9633 19.0078 15.8265 19.0078 11.9666C19.0078 8.10679 15.871 4.96997 12.0111 4.96997C8.15128 4.96997 5.01446 8.10679 5.01446 11.9666ZM8.20669 11.9778C8.20669 9.8755 9.9197 8.17361 12.0109 8.17361C14.1132 8.17361 15.8151 9.8755 15.8151 11.9778C15.8151 14.0802 14.1132 15.7821 12.0109 15.7821C9.90858 15.7821 8.20669 14.0802 8.20669 11.9778ZM9.31903 11.9667C9.31903 13.4573 10.5315 14.6586 12.0109 14.6586C13.5015 14.6586 14.7028 13.4573 14.7028 11.9667C14.7028 10.4762 13.5015 9.27484 12.0109 9.27484C10.5204 9.27484 9.31903 10.4762 9.31903 11.9667Z" fill="#002341"/>
</svg>
