<svg width="24" height="24" viewBox="0 0 24 24" fill="none" xmlns="http://www.w3.org/2000/svg">
<path fill-rule="evenodd" clip-rule="evenodd" d="M7.15 17.66C7.24 17.76 7.37 17.81 7.5 17.81V17.82C7.62 17.82 7.75 17.77 7.85 17.67L12.8 12.75C12.9 12.66 12.95 12.53 12.95 12.4C12.95 12.27 12.89 12.14 12.8 12.05L7.86 7.14005C7.66 6.94005 7.34 6.95005 7.15 7.14005C6.95 7.34005 6.95 7.66005 7.15 7.85005L11.73 12.4L7.15 16.95C6.96 17.15 6.95 17.46 7.15 17.66ZM15.6299 17.31C15.6299 17.59 15.8499 17.81 16.1299 17.81C16.4099 17.81 16.6299 17.59 16.6299 17.31V7.5C16.6299 7.22 16.4099 7 16.1299 7C15.8499 7 15.6299 7.22 15.6299 7.5V17.31Z" fill="#002341"/>
</svg>
