<svg width="24" height="24" viewBox="0 0 24 24" fill="none" xmlns="http://www.w3.org/2000/svg">
<path fill-rule="evenodd" clip-rule="evenodd" d="M13.5 10H24V14H22V18H21.5L18 14.5V14H17.5L13.5 10Z" fill="#1C3553"/>
<path fill-rule="evenodd" clip-rule="evenodd" d="M5.47972 6.02234C2.41267 6.28663 0 8.86529 0 12C0 15.31 2.69 18 6 18C8.61 18 10.83 16.33 11.65 14H13.125L5.47972 6.02234ZM4 12C4 13.1 4.9 14 6 14C7.1 14 8 13.1 8 12C8 10.9 7.1 10 6 10C4.9 10 4 10.9 4 12Z" fill="#1C3553"/>
<path d="M1.5 3L17.5 19" stroke="#1C3553" stroke-width="3" stroke-linecap="round" stroke-linejoin="round"/>
</svg>
