<svg width="24" height="24" viewBox="0 0 24 24" fill="none" xmlns="http://www.w3.org/2000/svg">
<path fill-rule="evenodd" clip-rule="evenodd" d="M12.0913 8.5H23.7507V12.5H21.8341V16.5H20.0004L18.0007 14.5003V12.5H16.0004L13.0004 9.49997L12.0913 8.5Z" fill="#1C3553"/>
<path fill-rule="evenodd" clip-rule="evenodd" d="M5.47972 6.02234C2.41267 6.28663 0 8.86529 0 12C0 15.31 2.69 18 6 18C8.61 18 10.83 16.33 11.65 14H13.125L5.47972 6.02234ZM4 12C4 13.1 4.9 14 6 14C7.1 14 8 13.1 8 12C8 10.9 7.1 10 6 10C4.9 10 4 10.9 4 12Z" fill="#1C3553"/>
<path fill-rule="evenodd" clip-rule="evenodd" d="M0.43934 1.93934C1.02513 1.35355 1.97487 1.35355 2.56066 1.93934L18.5607 17.9393C19.1464 18.5251 19.1464 19.4749 18.5607 20.0607C17.9749 20.6464 17.0251 20.6464 16.4393 20.0607L0.43934 4.06066C-0.146447 3.47487 -0.146447 2.52513 0.43934 1.93934Z" fill="#1C3553"/>
</svg>
