<svg width="24" height="24" viewBox="0 0 24 24" fill="none" xmlns="http://www.w3.org/2000/svg">
<path d="M6.45988 12.64C6.62988 12.81 6.83988 12.91 7.10988 12.9C7.34988 12.9 7.57988 12.8 7.74988 12.63C7.91988 12.46 8.00988 12.22 8.00988 11.98C8.00988 11.74 7.90988 11.51 7.72988 11.34C7.55988 11.17 7.32988 11.08 7.08988 11.08C6.84988 11.08 6.61988 11.18 6.43988 11.35C6.26988 11.52 6.17988 11.76 6.17988 12C6.17988 12.24 6.27988 12.47 6.44988 12.64H6.45988Z" fill="white"/>
<path d="M8.04988 8.06997L11.8999 11.73C11.8199 10.81 11.4299 9.90997 10.7199 9.20997C9.96988 8.47997 9.00988 8.10997 8.03988 8.06997H8.04988Z" fill="white"/>
<path d="M5.05988 14.99C6.64988 16.55 9.21988 16.53 10.7799 14.94C11.3199 14.39 11.6499 13.73 11.8199 13.03L6.76988 8.23997C6.11988 8.42997 5.50988 8.75997 5.00988 9.26997C3.44988 10.86 3.46988 13.43 5.05988 14.99ZM5.73988 10.65C6.09988 10.28 6.57988 10.08 7.08988 10.08H7.10988C7.61988 10.08 8.08988 10.27 8.44988 10.63C8.81988 10.99 9.01988 11.47 9.01988 11.98C9.01988 12.49 8.82988 12.98 8.46988 13.34C8.10988 13.71 7.62988 13.91 7.11988 13.91H7.09988C6.58988 13.91 6.11988 13.72 5.75988 13.36C5.38988 13 5.18988 12.52 5.18988 12.01C5.18988 11.5 5.37988 11.02 5.73988 10.65Z" fill="white"/>
<path d="M8.04988 8.06997C9.01988 8.10997 9.97988 8.47997 10.7299 9.20997C11.4399 9.90997 11.8199 10.81 11.9099 11.73L12.8899 12.66C12.9699 11.98 12.8999 11.29 12.6999 10.64L19.9799 10.5L21.3299 11.82L19.9699 13.21L17.0999 11.25L15.2699 13.11L13.1799 12.94L14.3399 14.04L15.6599 14.15L17.2299 12.55L20.0999 14.51L22.7499 11.81L20.3899 9.49997L12.2799 9.64997C12.0499 9.23997 11.7799 8.84997 11.4299 8.49997C10.2399 7.32997 8.59988 6.88997 7.05988 7.13997L8.03988 8.06997H8.04988Z" fill="#002341"/>
<path d="M7.09988 13.91H7.11988C7.62988 13.91 8.10988 13.7 8.46988 13.34C8.82988 12.97 9.01988 12.49 9.01988 11.98C9.01988 11.47 8.80988 10.99 8.44988 10.63C8.08988 10.28 7.60988 10.08 7.10988 10.08H7.08988C6.57988 10.08 6.09988 10.29 5.73988 10.65C5.37988 11.02 5.18988 11.5 5.18988 12.01C5.18988 12.52 5.39988 13 5.75988 13.36C6.11988 13.71 6.59988 13.91 7.09988 13.91ZM6.44988 11.35C6.61988 11.18 6.84988 11.08 7.09988 11.08C7.33988 11.08 7.56988 11.17 7.73988 11.34C7.91988 11.51 8.00988 11.74 8.01988 11.98C8.01988 12.23 7.92988 12.46 7.75988 12.63C7.58988 12.8 7.35988 12.9 7.11988 12.9C6.84988 12.91 6.63988 12.81 6.46988 12.64C6.29988 12.47 6.19988 12.24 6.19988 11.99C6.19988 11.74 6.28988 11.51 6.45988 11.34L6.44988 11.35Z" fill="#002341"/>
<path d="M11.8199 13.03C11.6599 13.73 11.3199 14.39 10.7799 14.94C9.21988 16.53 6.64988 16.56 5.05988 14.99C3.46988 13.43 3.43988 10.86 5.00988 9.26997C5.50988 8.75997 6.12988 8.41997 6.76988 8.23997L5.93988 7.44997C5.33988 7.69997 4.77988 8.06997 4.28988 8.56997C2.33988 10.56 2.36988 13.76 4.35988 15.71C5.33988 16.67 6.61988 17.15 7.89988 17.15C9.17988 17.15 10.5199 16.65 11.4999 15.64C11.9999 15.13 12.3699 14.53 12.6099 13.9H12.7599L11.8299 13.03H11.8199Z" fill="#002341"/>
<path d="M14.3399 14.04L13.1799 12.94L12.8799 12.66L11.8999 11.73L8.04988 8.06997L7.06988 7.13997L2.83988 3.13997C2.64988 2.94997 2.32988 2.94997 2.13988 3.15997C1.94988 3.36997 1.95988 3.67997 2.15988 3.86997L5.93988 7.45997L6.76988 8.24997L11.8199 13.04L12.7499 13.93L20.0499 20.86C20.1499 20.95 20.2699 21 20.3899 21C20.5199 21 20.6499 20.95 20.7499 20.84C20.9399 20.64 20.9299 20.32 20.7299 20.13L14.3299 14.06L14.3399 14.04Z" fill="#002341"/>
</svg>
