<svg width="24" height="24" viewBox="0 0 24 24" fill="none" xmlns="http://www.w3.org/2000/svg">
<path fill-rule="evenodd" clip-rule="evenodd" d="M20.4813 4.46916H14.8582C14.63 3.06859 13.4161 2 11.9533 2C10.4905 2 9.27666 3.06859 9.04841 4.46916H3.51873C3.22824 4.46916 3 4.69741 3 4.9879V21.1412C3 21.4317 3.22824 21.6599 3.51873 21.6599H20.4813C20.7718 21.6599 21 21.4317 21 21.1412V4.9879C21 4.69741 20.7718 4.46916 20.4813 4.46916ZM11.9533 3.03746C12.8455 3.03746 13.5821 3.64957 13.8 4.46916H10.1066C10.3245 3.64957 11.0611 3.03746 11.9533 3.03746ZM19.9625 20.6225H4.03746V5.50663H19.9625V20.6225ZM6.69314 18.8588H8.97556C9.11043 18.8588 9.2453 18.7965 9.33867 18.7032L16.0614 12.0011C16.1548 11.8974 16.2171 11.7625 16.2171 11.6277C16.2171 11.4928 16.1548 11.3579 16.0614 11.2542L13.7479 9.04436C13.5404 8.84725 13.2188 8.85762 13.0217 9.04436L6.35078 15.6945C6.2574 15.7879 6.19516 15.9228 6.19516 16.0576V18.3297C6.18478 18.4645 6.23666 18.5994 6.33003 18.7032C6.4234 18.8069 6.55827 18.8588 6.69314 18.8588ZM7.22225 16.2859L13.3848 10.1441L14.9514 11.638L8.75769 17.8109H7.21187V16.2859H7.22225ZM17.317 10.5279C17.1821 10.5279 17.0576 10.476 16.9539 10.3827V10.393L14.6404 8.18323C14.4329 7.98611 14.4225 7.65412 14.6196 7.44663C14.8167 7.23914 15.1487 7.22876 15.3562 7.42588L17.6698 9.63568C17.8772 9.8328 17.8876 10.1648 17.6905 10.3723C17.5868 10.476 17.4519 10.5279 17.317 10.5279Z" fill="#002341"/>
</svg>
