<svg width="24" height="24" viewBox="0 0 24 24" fill="none" xmlns="http://www.w3.org/2000/svg">
<path d="M5.63024 3.8L5.03024 3C5.03024 3 0.630243 6.36 2.44024 11.75L3.39024 11.43C1.81024 6.74 5.47024 3.92 5.63024 3.8Z" fill="#002341"/>
<path fill-rule="evenodd" clip-rule="evenodd" d="M19.9702 18.15C19.9402 17.46 19.4802 16.83 18.9802 16.16C18.5202 15.54 18.0502 14.9 18.0502 14.33V13.78C18.0802 12.23 18.1302 9.35 17.0902 7.51C16.2402 6.01 14.9202 5.43 14.2902 5.24C14.1202 4.45 13.5602 3.38 12.2402 3.38C10.9202 3.38 10.3302 4.45 10.1402 5.23C9.51024 5.43 8.18024 6 7.33024 7.51C6.29024 9.35 6.34024 12.23 6.37024 13.78V14.33C6.37024 14.9 5.90024 15.54 5.44024 16.16C4.94024 16.83 4.48024 17.46 4.45024 18.15L4.43024 18.67H9.38024C9.39024 18.75 9.42024 18.82 9.47024 18.89L9.47723 18.8986C9.58529 19.0319 10.6856 20.39 12.2102 20.39C13.7802 20.39 14.9902 18.97 15.0402 18.91C15.1002 18.84 15.1302 18.76 15.1402 18.67H19.9902L19.9702 18.15ZM12.2102 19.39C11.5702 19.39 11.0002 18.99 10.6502 18.67H13.8402C13.4502 18.99 12.8502 19.39 12.2102 19.39ZM5.62024 17.67C5.75261 17.4141 5.95507 17.1426 6.1589 16.8693L6.24024 16.76C6.77024 16.05 7.37024 15.24 7.37024 14.34V13.78C7.34024 12.33 7.30024 9.62 8.20024 8.02C9.08024 6.45 10.6002 6.16 10.6602 6.15L11.0302 6.08L11.0702 5.71C11.0802 5.58 11.2402 4.4 12.2402 4.4C13.2402 4.4 13.3302 5.56 13.3402 5.69L13.3702 6.08L13.7502 6.15C13.8102 6.16 15.3302 6.46 16.2202 8.02C17.1202 9.62 17.0802 12.33 17.0502 13.78V14.34C17.0502 15.24 17.6402 16.05 18.1702 16.76C18.4002 17.07 18.6303 17.38 18.7902 17.67H5.62024Z" fill="#002341"/>
<path d="M5.44024 10.35C4.74024 7.6 6.77024 5.84 6.86024 5.77L6.22024 5.01C6.11024 5.1 3.62024 7.24 4.48024 10.6L5.45024 10.35H5.44024Z" fill="#002341"/>
<path d="M17.7602 5.78L18.4002 5.01V5.02C18.5102 5.11 21.0002 7.24 20.1402 10.61L19.1702 10.36C19.8802 7.6 17.7602 5.78 17.7602 5.78Z" fill="#002341"/>
<path d="M18.9502 3.8L19.5502 3C19.6002 3.03 23.9602 6.36 22.1502 11.75L21.2002 11.43C22.7802 6.71 18.9502 3.8 18.9502 3.8Z" fill="#002341"/>
</svg>
