<svg width="24" height="24" viewBox="0 0 24 24" fill="none" xmlns="http://www.w3.org/2000/svg">
<path fill-rule="evenodd" clip-rule="evenodd" d="M11.7121 21.5834C12.0969 21.9947 12.6276 22.207 13.1583 22.207C13.6625 22.207 14.1666 22.0212 14.5779 21.6497L21.318 15.4536C21.7161 15.0821 21.9549 14.5779 21.9947 14.0472C22.0345 13.5033 21.8487 12.9858 21.4905 12.5878L11.9642 2.21229C11.8315 2.07961 11.659 2 11.4733 2H2.66339C2.29189 2 2 2.29189 2 2.66339V10.7568C2 10.9293 2.06634 11.0885 2.17248 11.2079L11.7121 21.5834ZM12.6806 20.6944L3.32679 10.5047V3.32679H11.1814L20.5087 13.5033C20.6281 13.6359 20.6679 13.7951 20.6679 13.9809C20.6546 14.1799 20.5618 14.3657 20.4158 14.4983L13.6757 20.6944C13.3838 20.9465 12.9195 20.9598 12.6806 20.6944ZM8.39458 6.9091C8.39458 7.61255 7.82431 8.18281 7.12086 8.18281C6.4174 8.18281 5.84714 7.61255 5.84714 6.9091C5.84714 6.20564 6.4174 5.63538 7.12086 5.63538C7.82431 5.63538 8.39458 6.20564 8.39458 6.9091Z" fill="#002341"/>
</svg>
