<svg width="24" height="24" viewBox="0 0 24 24" fill="none" xmlns="http://www.w3.org/2000/svg">
<path d="M12.4499 14.8C11.4699 14.8 10.6799 15.59 10.6799 16.57C10.6799 17.55 11.4699 18.34 12.4499 18.34C13.4299 18.34 14.2199 17.55 14.2199 16.57C14.2199 15.59 13.4299 14.8 12.4499 14.8Z" fill="#002341"/>
<path d="M12.4499 6.62997C15.4699 6.62997 18.2899 7.97997 20.1899 10.34C20.2899 10.46 20.4299 10.53 20.5799 10.53C20.6899 10.53 20.7999 10.49 20.8899 10.42C21.0999 10.25 21.1399 9.92997 20.9699 9.71997C18.8799 7.11997 15.7699 5.63997 12.4499 5.63997C10.7699 5.63997 9.16988 6.04997 7.70988 6.75997L8.48988 7.49997C9.72988 6.95997 11.0599 6.63997 12.4599 6.63997L12.4499 6.62997Z" fill="#002341"/>
<path d="M16.5399 14.52C15.8899 13.22 14.6999 12.34 13.3199 12.08L16.4699 15.07C16.5899 14.92 16.6299 14.71 16.5299 14.52H16.5399Z" fill="#002341"/>
<path d="M12.4499 9.86997C14.6099 9.86997 16.6499 10.93 17.9099 12.7C18.0699 12.92 18.3799 12.98 18.6099 12.82C18.8299 12.66 18.8899 12.35 18.7299 12.12C17.2899 10.09 14.9399 8.86997 12.4599 8.86997C11.7199 8.86997 10.9899 8.98997 10.2999 9.19997L11.1699 10.02C11.5899 9.92997 12.0299 9.86997 12.4699 9.86997H12.4499Z" fill="#002341"/>
<path d="M2.13988 3.15997C1.94988 3.35997 1.95988 3.67997 2.15988 3.86997L6.14988 7.65997C5.32988 8.23997 4.57988 8.91997 3.92988 9.72997C3.75988 9.93997 3.78988 10.26 4.00988 10.43C4.21988 10.6 4.53988 10.57 4.70988 10.35C5.33988 9.56997 6.07988 8.90997 6.88988 8.35997L8.56988 9.94997C7.63988 10.49 6.81988 11.22 6.17988 12.12C6.01988 12.35 6.06988 12.66 6.29988 12.82C6.38988 12.88 6.48988 12.91 6.58988 12.91C6.74988 12.91 6.89988 12.84 6.99988 12.7C7.61988 11.83 8.41988 11.14 9.32988 10.66L10.9899 12.24C9.86988 12.62 8.92988 13.42 8.36988 14.53C8.24988 14.78 8.33988 15.08 8.58988 15.2C8.82988 15.32 9.13988 15.23 9.25988 14.98C9.77988 13.94 10.7399 13.25 11.8399 13.05L20.0599 20.85C20.1599 20.94 20.2799 20.99 20.3999 20.99C20.5299 20.99 20.6599 20.94 20.7599 20.83C20.9499 20.63 20.9399 20.32 20.7399 20.13L2.83988 3.12997C2.63988 2.94997 2.32988 2.95997 2.13988 3.15997Z" fill="#002341"/>
</svg>
