<svg width="24" height="24" viewBox="0 0 24 24" fill="none" xmlns="http://www.w3.org/2000/svg">
<path d="M19.85 15.48C19.57 15.48 19.35 15.7 19.35 15.98V19.56H4V5H8.63C8.91 5 9.13 4.78 9.13 4.5C9.13 4.22 8.91 4 8.63 4H3.5C3.22 4 3 4.22 3 4.5V20.07C3 20.35 3.22 20.57 3.5 20.57H19.85C20.13 20.57 20.35 20.35 20.35 20.07V15.99C20.35 15.71 20.13 15.49 19.85 15.49V15.48Z" fill="#002341"/>
<path d="M20.43 4.36C20.41 4.3 20.37 4.24 20.32 4.2C20.27 4.15 20.22 4.12 20.16 4.09C20.11 4.07 20.06 4.06 20 4.06C19.99 4.06 19.98 4.06 19.97 4.06L12.38 4.01C12.1 4.01 11.88 4.23 11.88 4.51C11.88 4.79 12.1 5.01 12.38 5.01L18.76 5.05L9.74 13.93C9.54 14.12 9.54 14.44 9.74 14.64C9.84 14.74 9.97 14.79 10.1 14.79C10.23 14.79 10.35 14.74 10.45 14.65L19.45 5.76L19.37 12.18C19.37 12.46 19.59 12.68 19.86 12.69C20.13 12.69 20.36 12.47 20.36 12.2L20.45 4.56C20.45 4.5 20.44 4.43 20.41 4.37L20.43 4.36Z" fill="#002341"/>
</svg>
