<svg width="24" height="24" viewBox="0 0 24 24" fill="none" xmlns="http://www.w3.org/2000/svg">
<path d="M9.1 9.21C9.38 9.21 9.6 8.99 9.6 8.71V4.15C9.6 3.87 9.38 3.65 9.1 3.65C8.82 3.65 8.6 3.87 8.6 4.15V8.71C8.6 8.99 8.82 9.21 9.1 9.21Z" fill="#002341"/>
<path d="M12.29 3.65C12.01 3.65 11.79 3.87 11.79 4.15V9.99C11.79 10.3 11.54 10.55 11.23 10.55H8.56C8.25 10.55 8 10.3 8 9.99V4.15C8 3.87 7.78 3.65 7.5 3.65C7.22 3.65 7 3.87 7 4.15V9.99C7 10.85 7.7 11.55 8.56 11.55H9.39V20.59C9.39 20.87 9.61 21.09 9.89 21.09C10.17 21.09 10.39 20.87 10.39 20.59V11.55H11.22C12.08 11.55 12.78 10.85 12.78 9.99V4.15C12.78 3.87 12.56 3.65 12.28 3.65H12.29Z" fill="#002341"/>
<path d="M10.7 9.21C10.98 9.21 11.2 8.99 11.2 8.71V4.15C11.2 3.87 10.98 3.65 10.7 3.65C10.42 3.65 10.2 3.87 10.2 4.15V8.71C10.2 8.99 10.42 9.21 10.7 9.21Z" fill="#002341"/>
<path d="M17.23 3.1C16.5 3.23 15.1 3.91 14.95 5.57L14.29 13.05L16.82 14.36V20.59C16.82 20.87 17.04 21.09 17.32 21.09C17.6 21.09 17.82 20.87 17.82 20.59V3L17.23 3.1ZM15.34 12.46L15.94 5.65C16 4.92 16.43 4.52 16.81 4.31V13.23L15.34 12.47V12.46Z" fill="#002341"/>
</svg>
