<svg width="24" height="24" viewBox="0 0 24 24" fill="none" xmlns="http://www.w3.org/2000/svg">
<path fill-rule="evenodd" clip-rule="evenodd" d="M20.3021 21.9886H20.758V22L21.795 17.339C21.966 16.5413 21.4987 15.7435 20.7238 15.5156L16.5414 14.2506C15.436 13.9657 14.5357 14.433 14.1026 15.5042C12.3932 14.7065 10.98 13.5896 9.8974 12.2107C10.8433 11.5383 11.0826 10.5469 10.5356 9.5212L8.33612 5.77185C7.92585 5.06528 7.03695 4.80317 6.30759 5.15645L1.99983 7.26475L2.14798 7.73199C6.76344 21.8291 20.1654 21.9886 20.3021 21.9886ZM19.8349 20.8376C17.5329 20.7009 7.42442 19.4359 3.37877 7.85735H3.36737L6.79763 6.18211C6.99136 6.09094 7.21929 6.15932 7.33325 6.35305L9.52132 10.091C9.70366 10.4215 9.82902 10.8773 9.16804 11.3218C8.92872 11.4813 8.75778 11.7435 8.71219 12.0284C8.66661 12.3133 8.74638 12.6096 8.91732 12.8375C10.1367 14.4216 11.7436 15.6865 13.6923 16.5868C13.9544 16.7008 14.2621 16.7122 14.5357 16.5982C14.7978 16.4843 15.0143 16.2677 15.1169 15.9942C15.3904 15.2535 15.8576 15.2649 16.2109 15.3561L20.3819 16.6096C20.587 16.6666 20.7124 16.8831 20.6668 17.0883L19.8349 20.8376ZM18.2281 5.81729L18.7637 8.03955L18.7523 8.06234C18.8207 8.37004 18.6383 8.67774 18.3306 8.74611C18.2851 8.75751 18.2395 8.75751 18.1939 8.75751C17.9318 8.75751 17.6925 8.58657 17.6355 8.32445L17.3848 7.26461L13.7608 11.8687C13.6468 12.0054 13.4873 12.0852 13.3163 12.0852C13.191 12.0852 13.0656 12.0396 12.963 11.9598C12.7237 11.7661 12.6781 11.4128 12.8719 11.1621L16.4503 6.61502L15.3904 6.6834C15.1169 6.6948 14.8092 6.46687 14.7864 6.14778C14.775 5.84008 15.0029 5.56657 15.322 5.54378L17.6355 5.38423C17.8976 5.36144 18.1597 5.54378 18.2281 5.81729Z" fill="#002341"/>
</svg>
