<svg width="24" height="24" viewBox="0 0 24 24" fill="none" xmlns="http://www.w3.org/2000/svg">
<path d="M19.23 15.26L16.69 14.97C16.08 14.9 15.48 15.11 15.05 15.54L13.21 17.38C10.38 15.94 8.06004 13.63 6.62004 10.79L8.47004 8.94001C8.90004 8.51001 9.11004 7.91001 9.04004 7.30001L8.75004 4.78001C8.63004 3.77001 7.78004 3.01001 6.76004 3.01001H5.03004C3.90004 3.01001 2.96004 3.95001 3.03004 5.08001C3.56004 13.62 10.39 20.44 18.92 20.97C20.05 21.04 20.99 20.1 20.99 18.97V17.24C21 16.23 20.24 15.38 19.23 15.26Z" fill="#1C3553"/>
<path d="M15.0127 2.9875H19.0127C19.5627 2.9875 20.0127 3.4375 20.0127 3.9875V7.9875C20.0127 8.5375 19.5627 8.9875 19.0127 8.9875C18.4627 8.9875 18.0127 8.5375 18.0127 7.9875V6.3975L13.7027 10.7075C13.3127 11.0975 12.6827 11.0975 12.2927 10.7075C11.9027 10.3175 11.9027 9.6875 12.2927 9.2975L16.6027 4.9875L15.0127 4.9875C14.4627 4.9875 14.0127 4.5375 14.0127 3.9875C14.0127 3.4375 14.4627 2.9875 15.0127 2.9875Z" fill="#1C3553"/>
</svg>
