<svg width="24" height="24" viewBox="0 0 24 24" fill="none" xmlns="http://www.w3.org/2000/svg">
<path fill-rule="evenodd" clip-rule="evenodd" d="M11.9624 14.9523C10.0218 14.9523 8.44646 13.377 8.44646 11.4364C8.44646 9.49573 10.0218 7.92038 11.9624 7.92038C13.9031 7.92038 15.4784 9.49573 15.4784 11.4364C15.4784 13.377 13.9031 14.9523 11.9624 14.9523ZM11.9624 13.8108C13.2752 13.8108 14.3369 12.7492 14.3369 11.4364C14.3369 10.1236 13.2752 9.06194 11.9624 9.06194C10.6497 9.06194 9.58801 10.1236 9.58801 11.4364C9.58801 12.7492 10.6497 13.8108 11.9624 13.8108Z" fill="#002341"/>
<path fill-rule="evenodd" clip-rule="evenodd" d="M10.935 2.30407C11.5058 1.89311 12.419 1.89311 13.0469 2.33831L21.9624 7.11V21.2767H1.9624V7.11L10.935 2.30407ZM18.8231 20.1351H20.8208V7.79493L12.4533 3.30863C12.1679 3.11457 11.7683 3.11457 11.54 3.27439L3.10395 7.79493V20.1351H5.10167C5.46697 17.5895 8.40076 15.5917 11.9624 15.5917C15.524 15.5917 18.4578 17.5895 18.8231 20.1351ZM11.9624 16.7447C9.07427 16.7447 6.6656 18.2059 6.26606 20.1123H17.6587C17.2592 18.2173 14.8505 16.7447 11.9624 16.7447Z" fill="#002341"/>
</svg>
