<svg width="24" height="24" viewBox="0 0 24 24" fill="none" xmlns="http://www.w3.org/2000/svg">
<path fill-rule="evenodd" clip-rule="evenodd" d="M4 9.88668L4.00004 9.8688C3.99879 9.68206 4.02524 9.51098 4.07939 9.35213C4.16004 9.10751 4.30348 8.89301 4.51577 8.69683C5.79759 7.51207 7.07726 6.32385 8.35635 5.13617L8.35664 5.1359C9.32447 4.23724 10.2923 3.33857 11.2613 2.44115C11.5807 2.14541 11.8938 1.99938 12.2061 2C12.5185 1.99938 12.8316 2.14541 13.1509 2.44115C14.1197 3.33833 15.0873 4.23675 16.0548 5.13516L16.0569 5.13712L16.057 5.13716C17.3359 6.32469 18.6148 7.51221 19.8965 8.69683C20.1088 8.893 20.2522 9.1075 20.3329 9.35211C20.387 9.51096 20.4135 9.68204 20.4122 9.86878L20.4123 9.88668C20.4066 12.4373 20.4071 14.9881 20.4076 17.5388C20.4078 18.5799 20.408 19.621 20.4078 20.6621C20.4078 21.5084 19.9216 21.998 19.0773 21.999C18.385 22 17.6926 22.0002 17.0002 22H17.4999L17.5 21.3125V20.625C17.5 18.7962 13.8356 17.875 12 17.875C10.1644 17.875 6.5 18.7962 6.5 20.625V21.3125C6.5 21.688 6.50018 21.9958 6.50018 22C6.11177 21.9999 5.72336 21.9996 5.33498 21.999C4.49063 21.998 4.00449 21.5084 4.00449 20.6621C4.00427 19.621 4.00447 18.5799 4.00467 17.5388C4.00517 14.9881 4.00566 12.4373 4 9.88668ZM14.75 13.75C14.75 15.2694 13.5194 16.5 12 16.5C10.4806 16.5 9.25 15.2694 9.25 13.75C9.25 12.2306 10.4806 11 12 11C13.5194 11 14.75 12.2306 14.75 13.75Z" fill="#1C3553"/>
</svg>
