<svg width="24" height="24" viewBox="0 0 24 24" fill="none" xmlns="http://www.w3.org/2000/svg">
<path fill-rule="evenodd" clip-rule="evenodd" d="M12 21C16.9706 21 21 16.9706 21 12C21 7.02944 16.9706 3 12 3C7.02944 3 3 7.02944 3 12C3 16.9706 7.02944 21 12 21ZM9 8C9 7.47578 9.40337 7.04577 9.91667 7.00342V7H10H12.5903C14.6575 7 16.3333 8.51104 16.3333 10.375C16.3333 12.239 14.6575 13.75 12.5903 13.75H11V16C11 16.5523 10.5523 17 10 17C9.44772 17 9 16.5523 9 16V8ZM11 8.92859V11.8214H12.5902C13.4762 11.8214 14.1944 11.1739 14.1944 10.375C14.1944 9.57617 13.4762 8.92859 12.5902 8.92859H11Z" fill="#1C3553"/>
</svg>
