<svg width="24" height="24" viewBox="0 0 24 24" fill="none" xmlns="http://www.w3.org/2000/svg">
<path d="M12.79 2.99995H8C7.46957 2.99995 6.96086 3.21067 6.58579 3.58574C6.21071 3.96081 6 4.46952 6 4.99995V19C6 19.5304 6.21071 20.0391 6.58579 20.4142C6.96086 20.7892 7.46957 21 8 21C8.53043 21 9.03914 20.7892 9.41421 20.4142C9.78929 20.0391 10 19.5304 10 19V15H13C13.859 15.0074 14.7097 14.8304 15.4944 14.4807C16.2791 14.131 16.9795 13.6169 17.5484 12.9732C18.1172 12.3294 18.5412 11.571 18.7917 10.7493C19.0421 9.92751 19.1131 9.06155 19 8.20995C18.7724 6.73627 18.0172 5.39547 16.8748 4.43706C15.7325 3.47866 14.2808 2.96794 12.79 2.99995ZM13.2 11H10V6.99995H13.2C13.7304 6.99995 14.2391 7.21067 14.6142 7.58574C14.9893 7.96081 15.2 8.46952 15.2 8.99995C15.2 9.53039 14.9893 10.0391 14.6142 10.4142C14.2391 10.7892 13.7304 11 13.2 11Z" fill="#1C3553"/>
</svg>
