<svg width="24" height="24" viewBox="0 0 24 24" fill="none" xmlns="http://www.w3.org/2000/svg">
<path d="M2.86987 5H13.1299C13.9299 5 14.4099 5.89 13.9599 6.55L8.99987 14V18H9.99987C10.5499 18 10.9999 18.45 10.9999 19C10.9999 19.55 10.5499 20 9.99987 20H5.99987C5.44987 20 4.99987 19.55 4.99987 19C4.99987 18.45 5.44987 18 5.99987 18H6.99987V14L2.03987 6.55C1.58987 5.89 2.06987 5 2.86987 5ZM10.0999 9L11.4999 7H4.48987L5.88987 9H10.0999ZM18.9999 5H20.4999C21.3299 5 21.9999 5.67 21.9999 6.5C21.9999 7.33 21.3299 8 20.4999 8H18.9999V17C18.9999 18.84 17.3599 20.28 15.4599 19.95C14.2499 19.74 13.2599 18.75 13.0499 17.54C12.7199 15.64 14.1599 14 15.9999 14C16.3499 14 16.6899 14.06 16.9999 14.17V7C16.9999 5.9 17.8999 5 18.9999 5Z" fill="#1C3553"/>
</svg>
