<svg width="24" height="24" viewBox="0 0 24 24" fill="none" xmlns="http://www.w3.org/2000/svg">
<path d="M10.1702 17.41H8.38017V12.4L12.6702 6.31C12.7802 6.16 12.7902 5.96 12.7002 5.79C12.6102 5.62 12.4402 5.52 12.2602 5.52H3.50017C3.31017 5.52 3.14017 5.62 3.06017 5.79C2.98017 5.96 2.99017 6.16 3.09017 6.31L7.38017 12.41V17.42H5.60017C5.32017 17.42 5.10017 17.64 5.10017 17.92C5.10017 18.2 5.32017 18.42 5.60017 18.42H10.1702C10.4502 18.42 10.6702 18.2 10.6702 17.92C10.6702 17.64 10.4502 17.42 10.1702 17.42V17.41ZM11.3002 6.51L9.27017 9.4H6.50017L4.46017 6.52H11.3002V6.51Z" fill="#002341"/>
<path d="M18.8902 4.5C17.9102 4.5 17.1102 5.3 17.1102 6.28C17.1102 6.32 17.1102 6.35 17.1202 6.39C17.1202 6.41 17.1102 6.42 17.1102 6.44V13.48C16.5702 12.99 15.8702 12.69 15.0902 12.69C13.4202 12.69 12.0702 14.05 12.0702 15.71C12.0702 17.37 13.4302 18.73 15.0902 18.73C16.7502 18.73 18.1102 17.37 18.1102 15.71V7.88C18.3502 8 18.6102 8.07 18.8902 8.07C19.8702 8.07 20.6702 7.27 20.6702 6.29C20.6702 5.31 19.8702 4.51 18.8902 4.51V4.5ZM15.0802 17.73C13.9702 17.73 13.0602 16.82 13.0602 15.71C13.0602 14.6 13.9702 13.69 15.0802 13.69C16.1902 13.69 17.1002 14.6 17.1002 15.71C17.1002 16.82 16.1902 17.73 15.0802 17.73Z" fill="#002341"/>
</svg>
