<svg width="24" height="24" viewBox="0 0 24 24" fill="none" xmlns="http://www.w3.org/2000/svg">
<path fill-rule="evenodd" clip-rule="evenodd" d="M10.2197 6.09971C10.128 6.09971 10.0249 6.0768 9.9332 6.01954C9.65819 5.85919 9.56652 5.5156 9.72694 5.24073L11.6635 1.88499C11.8239 1.61012 12.1677 1.5185 12.4427 1.67884C12.7177 1.83918 12.8093 2.18277 12.6489 2.45764L10.7124 5.81338C10.6093 5.99663 10.4145 6.09971 10.2197 6.09971ZM10.7009 7.01602C10.804 7.21072 10.9988 7.32526 11.205 7.32526C11.2967 7.32526 11.3884 7.30235 11.4686 7.25654L14.9062 5.46986C15.1812 5.33243 15.2958 4.98884 15.1469 4.70251C15.0093 4.42764 14.6656 4.31311 14.3791 4.462L10.9415 6.24867C10.6665 6.38611 10.5519 6.7297 10.7009 7.01602ZM11.6753 8.77969H15.5483C15.8692 8.77969 16.1213 8.52773 16.1213 8.20704C16.1213 7.88636 15.8692 7.63439 15.5483 7.63439H11.6753C11.3544 7.63439 11.1023 7.88636 11.1023 8.20704C11.1023 8.52773 11.3544 8.77969 11.6753 8.77969ZM20.4522 22.0536H20.9106H20.922L21.9648 17.3694C22.1367 16.5676 21.6669 15.7659 20.8877 15.5369L16.6823 14.2656C15.5708 13.9793 14.6656 14.4488 14.2301 15.5254C12.5113 14.7237 11.0904 13.6013 10.0018 12.2155C10.9529 11.5398 11.1936 10.5433 10.6435 9.51257L8.43199 5.74452C8.01948 5.03444 7.1257 4.77102 6.39234 5.12606L2.04947 7.25632L2.19843 7.7259C6.83923 21.8933 20.3147 22.0536 20.4522 22.0536ZM3.43773 7.84543C7.50675 19.4771 17.6681 20.748 19.9824 20.8854L20.8189 17.1174C20.8647 16.9112 20.7387 16.6936 20.5324 16.6364L16.3385 15.3765C15.9604 15.2734 15.5135 15.2734 15.2385 16.0179C15.1354 16.2928 14.9176 16.5104 14.6541 16.6249C14.3791 16.7394 14.0697 16.728 13.8061 16.6135C11.8467 15.7087 10.231 14.4488 9.00493 12.8454C8.83305 12.6163 8.75284 12.3186 8.79867 12.0322C8.84451 11.7459 9.01639 11.4825 9.25702 11.3222C9.92163 10.8755 9.80704 10.4174 9.61225 10.0852L7.41216 6.34008C7.29758 6.14538 7.0684 6.07666 6.8736 6.16829L3.43773 7.84543Z" fill="#002341"/>
</svg>
