<svg width="24" height="24" viewBox="0 0 24 24" fill="none" xmlns="http://www.w3.org/2000/svg">
<path d="M4.14628 16.4665C3.6085 16.4665 3.09182 16.1608 2.84929 15.6546L0.930176 11.6793L1.2676 11.4157C1.3625 11.3419 11.2111 3.78141 22.6204 11.3946L23 11.6477L21.0703 15.6546C20.7435 16.3295 19.9315 16.6353 19.2461 16.3611L15.5028 14.8954C14.5222 14.4631 14.132 13.609 14.4272 12.5756C12.8456 12.1854 11.1901 12.196 9.48184 12.5861C9.77709 13.6195 9.38694 14.4736 8.42738 14.8954L4.66296 16.3716C4.49425 16.4455 4.31499 16.4771 4.13573 16.4771L4.14628 16.4665ZM2.25879 11.9956L3.7983 15.2012C3.88266 15.3805 4.09355 15.4648 4.28335 15.391L8.02668 13.9253C8.33248 13.7882 8.68045 13.5352 8.45901 12.8287C8.37466 12.5756 8.40629 12.2909 8.54337 12.0589C8.68045 11.8164 8.90188 11.6477 9.1655 11.5844C11.0952 11.1204 12.9826 11.1204 14.7858 11.5844C15.0388 11.6477 15.2603 11.8269 15.3868 12.0589C15.5133 12.2909 15.545 12.5756 15.4606 12.8392C15.2286 13.5457 15.5766 13.7988 15.9035 13.9464L19.6257 15.4121C19.8155 15.4859 20.0264 15.4121 20.1108 15.2223L21.6397 12.0378C12.0863 5.91141 4.0092 10.783 2.25879 11.9956Z" fill="#002341"/>
</svg>
