<svg width="24" height="24" viewBox="0 0 24 24" fill="none" xmlns="http://www.w3.org/2000/svg">
<g clip-path="url(#clip0_6191_4)">
<path d="M4.64154 14.9165L6.61458 13.2909C7.08868 12.9007 7.35441 12.3232 7.3438 11.7152L7.29839 9.11342C10.3001 8.078 13.5734 8.01379 16.6166 8.95077L16.6623 11.5667C16.6729 12.1747 16.9586 12.7425 17.4461 13.1159L19.4602 14.6579C20.2701 15.2731 21.4073 15.1896 22.1158 14.4559L23.3176 13.2115C24.1026 12.3986 24.0794 11.0695 23.2179 10.3348C16.7066 4.78371 7.05614 4.95923 0.749458 10.727C-0.08586 11.4913 -0.0626581 12.8204 0.750195 13.6054L1.99465 14.8071C2.71424 15.5159 3.85362 15.5597 4.64154 14.9165Z" fill="#1C3553"/>
</g>
<defs>
<clipPath id="clip0_6191_4">
<rect width="24" height="24" fill="white"/>
</clipPath>
</defs>
</svg>
