<svg width="24" height="24" viewBox="0 0 24 24" fill="none" xmlns="http://www.w3.org/2000/svg">
<path d="M17.0416 8.27842C15.9212 8.27842 15.0006 9.18802 15.0006 10.3195C15.0006 11.4509 15.9101 12.3605 17.0416 12.3605C18.173 12.3605 19.0826 11.4509 19.0826 10.3195C19.0826 9.18802 18.173 8.27842 17.0416 8.27842Z" fill="#002341"/>
<path d="M21.3788 5.41653H18.5835V2.62119C18.5835 2.27732 18.3062 2 17.9623 2H2.62119C2.27732 2 2 2.27732 2 2.62119V18.3062C2 18.65 2.27732 18.9273 2.62119 18.9273H5.41653V21.7227C5.41653 22.0666 5.69384 22.3439 6.03771 22.3439H21.3899C21.7338 22.3439 22.0111 22.0666 22.0111 21.7227V6.02662C22.0111 5.68275 21.7338 5.40544 21.3899 5.40544L21.3788 5.41653ZM5.41653 17.685H3.23128V3.23128H17.3522V5.41653H6.02662C5.93788 5.41653 5.86023 5.43871 5.78258 5.4609C5.63838 5.52745 5.51636 5.63838 5.44981 5.79368C5.41653 5.87133 5.40544 5.94897 5.40544 6.03771V17.685H5.41653ZM20.7687 18.65L15.8769 13.9246L14.2684 15.5108L10.0089 11.3622L6.6589 14.6456V6.6589H20.7798V18.6611L20.7687 18.65Z" fill="#002341"/>
</svg>
