<svg width="24" height="24" viewBox="0 0 24 24" fill="none" xmlns="http://www.w3.org/2000/svg">
<path d="M12.9002 20.56C12.7102 20.56 12.2802 20.56 11.7402 19.13C10.8902 19.2 9.73023 19.03 8.93023 18.8V19.73C8.93023 20.19 8.56023 20.56 8.10023 20.56H6.47023C6.19023 20.56 5.93023 20.42 5.77023 20.18C5.67023 20.04 5.54023 19.86 5.39023 19.66C4.79023 18.86 3.89023 17.65 3.49023 16.41C2.26023 12.61 3.38023 9.61 6.58023 8.18C9.95023 6.67 13.7702 7.58 15.4102 7.97L15.6102 8.02C16.6802 7.27 17.4102 7.17 18.3902 7.59C18.5202 7.65 18.6202 7.75 18.6602 7.88C18.7102 8.01 18.7002 8.16 18.6302 8.28L18.0202 9.41C18.6502 9.93 19.0602 10.36 19.3302 10.78H20.0702C20.4102 10.78 20.7402 10.93 20.9602 11.19C21.1802 11.45 21.2702 11.8 21.2102 12.14L20.7302 14.9C20.6602 15.3 20.3102 15.59 19.9102 15.59H18.9202C17.8902 16.68 16.7002 17.42 16.0202 17.75L15.7602 19.83C15.7102 20.24 15.3502 20.56 14.9402 20.56H12.9002ZM13.0502 19.56H14.7702L15.0502 17.35C15.0702 17.17 15.1902 17.02 15.3602 16.95C15.8002 16.77 17.1902 16.03 18.3202 14.76C18.4102 14.65 18.5502 14.59 18.6902 14.59H19.7602L20.2202 11.97C20.2302 11.91 20.2002 11.86 20.1802 11.84C20.1602 11.82 20.1202 11.78 20.0602 11.78H19.0302C18.8402 11.78 18.6702 11.67 18.5802 11.5C18.3602 11.06 17.9102 10.59 17.0602 9.93C16.8702 9.78 16.8102 9.51 16.9302 9.3L17.4502 8.33C17.1002 8.29 16.7002 8.43 16.0002 8.95C15.8802 9.03 15.7402 9.07 15.6002 9.04C15.4802 9.01 15.3402 8.98 15.1702 8.94C13.6302 8.57 10.0402 7.72 6.98023 9.09C3.32023 10.73 3.82023 14.18 4.44023 16.09C4.79023 17.17 5.63023 18.31 6.19023 19.06C6.33023 19.25 6.45023 19.41 6.55023 19.56H7.93023V18.07C7.93023 17.89 8.03023 17.72 8.19023 17.63C8.35023 17.54 8.54023 17.55 8.70023 17.64C9.11023 17.9 11.0902 18.29 11.9502 18.07C12.2002 18.01 12.4602 18.15 12.5502 18.4C12.7202 18.91 12.9302 19.37 13.0602 19.55L13.0502 19.56Z" fill="#002341"/>
<path d="M9.35023 7.15C9.19023 7.15 9.04023 7.08 8.94023 6.94C8.63023 6.51 8.47023 6.01 8.47023 5.49C8.47023 4.12 9.59023 3 10.9602 3C12.3302 3 13.4502 4.12 13.4502 5.49C13.4502 6.02 13.2902 6.52 12.9802 6.94C12.8202 7.16 12.5102 7.21 12.2802 7.05C12.0602 6.89 12.0102 6.58 12.1702 6.35C12.3502 6.1 12.4502 5.8 12.4502 5.48C12.4502 4.66 11.7802 3.99 10.9602 3.99C10.1402 3.99 9.47023 4.66 9.47023 5.48C9.47023 5.79 9.57023 6.09 9.75023 6.35C9.91023 6.57 9.86023 6.89 9.64023 7.05C9.55023 7.11 9.45023 7.14 9.35023 7.14V7.15Z" fill="#002341"/>
<path d="M15.9002 13.44C15.0902 13.44 14.4302 12.78 14.4302 11.97C14.4302 11.16 15.0902 10.5 15.9002 10.5C16.7102 10.5 17.3702 11.16 17.3702 11.97C17.3702 12.78 16.7102 13.44 15.9002 13.44ZM15.9002 11.49C15.6402 11.49 15.4302 11.7 15.4302 11.96C15.4302 12.22 15.6402 12.43 15.9002 12.43C16.1602 12.43 16.3702 12.22 16.3702 11.96C16.3702 11.7 16.1602 11.49 15.9002 11.49Z" fill="#002341"/>
</svg>
