<svg width="24" height="24" viewBox="0 0 24 24" fill="none" xmlns="http://www.w3.org/2000/svg">
<path d="M11 7C12.6569 7 14 5.65685 14 4C14 2.34315 12.6569 1 11 1C9.34315 1 8 2.34315 8 4C8 5.65685 9.34315 7 11 7Z" fill="#1C3553"/>
<path d="M8.47266 9.72791C8.82843 10.0372 10.0388 10.6208 12.0339 10.4813C14.029 10.3418 14.9568 9.27449 14.9568 9.27449" stroke="#1C3553" stroke-width="2" stroke-linecap="round"/>
<path d="M17 13.0263C17.5523 13.0263 18 12.5727 18 12.0132C18 11.4536 17.5523 11 17 11C16.4477 11 16 11.4536 16 12.0132C16 12.5727 16.4477 13.0263 17 13.0263Z" fill="#1C3553"/>
<path d="M1.55859 10.4211C1.55859 10.4211 1.60894 12.3624 3.74041 12.315" stroke="#1C3553" stroke-width="2" stroke-miterlimit="10" stroke-linecap="round" stroke-linejoin="round"/>
<path d="M7 7.25294C5.60867 8 3.74023 9.62136 3.74023 12.3987C3.74023 13.8982 4.43665 15.2953 5.60867 16.3858L7.8338 20.5263H10.1269V18.6009C10.8233 18.7202 11.5537 18.8054 12.318 18.8054C13.0654 18.8054 13.7958 18.7372 14.4922 18.6009V20.5263H16.7683L18.348 17.5786L22.4415 15.6702V13.1825C22.4415 13.1825 21.3544 12.7906 20.8619 11.9387C20.743 10.78 20.2334 9.70656 19.4011 8.80349L20.9808 7.25294C20.9808 7.25294 19.469 5.63424 17.2269 7.15071C16.5475 6.79289 16.2983 6.52026 15.5 6.3158" stroke="#1C3553" stroke-width="2" stroke-miterlimit="10" stroke-linecap="round" stroke-linejoin="round"/>
<path d="M20.8838 7.26318L19.0137 9.15792" stroke="#1C3553" stroke-width="2" stroke-miterlimit="10" stroke-linecap="round"/>
</svg>
