<svg width="24" height="24" viewBox="0 0 24 24" fill="none" xmlns="http://www.w3.org/2000/svg">
<path d="M12 3C7.032 3 3 7.032 3 12C3 16.968 7.032 21 12 21C16.968 21 21 16.968 21 12C21 7.032 16.968 3 12 3ZM12.9 5.97L14.115 5.115C15.753 5.619 17.148 6.699 18.057 8.121L17.706 9.327L16.491 9.741L12.9 7.23V5.97ZM9.885 5.115L11.1 5.97V7.23L7.509 9.741L6.294 9.327L5.943 8.121C6.852 6.708 8.247 5.628 9.885 5.115ZM7.572 16.599L6.546 16.689C5.457 15.429 4.8 13.791 4.8 12C4.8 11.892 4.809 11.793 4.818 11.685L5.718 11.028L6.96 11.46L8.274 15.366L7.572 16.599ZM14.25 18.831C13.539 19.065 12.783 19.2 12 19.2C11.217 19.2 10.461 19.065 9.75 18.831L9.129 17.49L9.705 16.5H14.304L14.88 17.499L14.25 18.831ZM14.043 14.7H9.957L8.742 11.082L12 8.796L15.267 11.082L14.043 14.7ZM17.454 16.689L16.428 16.599L15.717 15.366L17.031 11.46L18.282 11.037L19.182 11.694C19.191 11.793 19.2 11.892 19.2 12C19.2 13.791 18.543 15.429 17.454 16.689Z" fill="#1C3553"/>
</svg>
