<svg width="24" height="24" viewBox="0 0 24 24" fill="none" xmlns="http://www.w3.org/2000/svg">
<path fill-rule="evenodd" clip-rule="evenodd" d="M10.1085 16.4643C10.1862 16.5087 10.2749 16.5309 10.3636 16.5309L10.3747 16.5198C10.4857 16.5198 10.5966 16.4865 10.6853 16.42L16.2426 12.5931C16.3978 12.4933 16.4866 12.3158 16.4866 12.1384C16.4866 11.9609 16.3978 11.7834 16.2426 11.6836L10.6853 7.86781C10.5078 7.75689 10.286 7.73471 10.1085 7.83454C9.91994 7.92328 9.80902 8.11185 9.80902 8.3226V15.9763C9.80902 16.1759 9.91994 16.3645 10.1085 16.4643ZM10.9183 14.9114V9.37637L14.9448 12.1384L10.9183 14.9114Z" fill="#002341"/>
<path fill-rule="evenodd" clip-rule="evenodd" d="M2 12.1495C2 17.7511 6.55893 22.31 12.1605 22.31V22.2989C17.7511 22.2989 22.31 17.74 22.31 12.1495C22.31 6.55893 17.7622 2 12.1605 2C6.55893 2 2 6.54784 2 12.1495ZM3.10923 12.1495C3.10923 7.16901 7.16901 3.10923 12.1605 3.10923C17.141 3.10923 21.2008 7.16901 21.2008 12.1495C21.2008 17.1299 17.1521 21.1897 12.1605 21.1897C7.16901 21.1897 3.10923 17.1299 3.10923 12.1495Z" fill="#002341"/>
</svg>
