<svg width="24" height="24" viewBox="0 0 24 24" fill="none" xmlns="http://www.w3.org/2000/svg">
<path d="M21.5699 16.87C22.3899 15.49 22.8799 13.89 22.8799 12.17C22.8799 7.12 18.7599 3 13.6999 3C8.63991 3 4.51991 7.12 4.51991 12.18C4.51991 17.24 8.63991 21.36 13.6999 21.36C16.9799 21.36 19.8599 19.62 21.4799 17.03C21.5199 16.99 21.5499 16.94 21.5699 16.88V16.87ZM17.3299 17.04L16.4299 15.88L17.8899 12L19.3899 11.32L21.7599 13.53C21.5999 14.51 21.2599 15.43 20.7799 16.26L17.3399 17.04H17.3299ZM10.1899 17.04L6.70991 16.41C6.17991 15.54 5.80991 14.57 5.63991 13.53L8.00991 11.32L9.50991 12L10.9399 15.81L10.1999 17.04H10.1899ZM11.8999 15.47C11.8999 15.47 11.8699 15.44 11.8499 15.43L10.4899 11.81L13.6899 9.37L16.8899 11.81L15.5099 15.48H11.8899L11.8999 15.47ZM21.8599 12.27L20.0399 10.57L20.7799 8.11C21.4699 9.31 21.8699 10.69 21.8699 12.17C21.8699 12.2 21.8699 12.24 21.8699 12.27H21.8599ZM20.0499 7.05L19.0599 10.36L17.5499 11.05L14.1899 8.49V6.68L17.3299 4.86C18.3899 5.39 19.3199 6.14 20.0599 7.05H20.0499ZM16.1599 4.38L13.6899 5.81L11.2199 4.38C11.9999 4.13 12.8299 4 13.6899 4C14.5499 4 15.3799 4.14 16.1599 4.38ZM10.0499 4.86L13.1899 6.68V8.49L9.82991 11.05L8.31991 10.36L7.32991 7.05C8.06991 6.14 8.99991 5.39 10.0599 4.86H10.0499ZM6.59991 8.12L7.33991 10.58L5.51991 12.28C5.51991 12.28 5.51991 12.21 5.51991 12.18C5.51991 10.7 5.91991 9.32 6.60991 8.12H6.59991ZM7.57991 17.59L10.1199 18.05L11.2599 19.98C9.81991 19.53 8.55991 18.69 7.57991 17.58V17.59ZM12.5899 20.27L11.0199 17.6L11.6999 16.47H15.6199L16.5299 17.64L14.9999 20.24C14.5699 20.31 14.1399 20.35 13.6999 20.35C13.3199 20.35 12.9599 20.32 12.5999 20.27H12.5899ZM16.3499 19.9L17.4399 18.04L19.8899 17.48C18.9499 18.58 17.7299 19.42 16.3399 19.9H16.3499Z" fill="#002341"/>
<path d="M1.67991 18.19C1.77991 18.19 1.87991 18.16 1.96991 18.1L3.77991 16.83C4.00991 16.67 4.05991 16.36 3.89991 16.13C3.73991 15.9 3.42991 15.85 3.19991 16.01L1.38991 17.28C1.15991 17.44 1.10991 17.75 1.26991 17.98C1.36991 18.12 1.51991 18.19 1.67991 18.19Z" fill="#002341"/>
<path d="M4.43991 18.3C4.27991 18.07 3.96991 18.03 3.73991 18.18L1.20991 19.99C0.989908 20.15 0.929908 20.46 1.08991 20.69C1.18991 20.83 1.33991 20.9 1.49991 20.9C1.59991 20.9 1.69991 20.87 1.78991 20.81L4.31991 19C4.53991 18.84 4.59991 18.53 4.43991 18.3Z" fill="#002341"/>
<path d="M5.36991 19.63L3.55991 20.9C3.32991 21.06 3.27991 21.37 3.43991 21.6C3.53991 21.74 3.68991 21.81 3.84991 21.81C3.94991 21.81 4.04991 21.78 4.13991 21.72L5.94991 20.45C6.17991 20.29 6.22991 19.98 6.06991 19.75C5.90991 19.52 5.59991 19.47 5.36991 19.63Z" fill="#002341"/>
</svg>
