<svg width="24" height="24" viewBox="0 0 24 24" fill="none" xmlns="http://www.w3.org/2000/svg">
<path fill-rule="evenodd" clip-rule="evenodd" d="M10 4C10.5523 4 11 4.44772 11 5L11 16H13L13 5C13 4.44772 13.4477 4 14 4C14.5523 4 15 4.44772 15 5L15 16C15.5523 16 16 16.4477 16 17C16 17.5523 15.5523 18 15 18H14.0006C14.0004 18 14.0002 18 14 18C13.9998 18 13.9996 18 13.9994 18L10.0013 18L10 18L9.99873 18H9C8.44771 18 8 17.5523 8 17C8 16.4477 8.44772 16 9 16L9 5C9 4.44772 9.44772 4 10 4Z" fill="#1C3553"/>
<path fill-rule="evenodd" clip-rule="evenodd" d="M5 3C5.55229 3 6 3.44772 6 4L18 4C18 3.44772 18.4477 3 19 3C19.5523 3 20 3.44772 20 4V4.99965C20 4.99977 20 4.99988 20 5C20 5.00012 20 5.00023 20 5.00035L20 20C20 20.5523 19.5523 21 19 21C18.4477 21 18 20.5523 18 20L18 6H6L6 20C6 20.5523 5.55228 21 5 21C4.44771 21 4 20.5523 4 20V5V4C4 3.44772 4.44772 3 5 3Z" fill="#1C3553"/>
</svg>
