<svg width="24" height="24" viewBox="0 0 24 24" fill="none" xmlns="http://www.w3.org/2000/svg">
<path d="M3.01807 5V13.3807L13.3706 13.4276L13.3941 18.4748L21.0001 18.51V5H3.01807ZM19.8263 17.3362H18.6173L19.8263 15.9042V17.3362ZM19.8263 14.0849L17.0797 17.3245H15.0609L19.8263 11.6317V14.0849ZM19.8263 9.81242L14.5561 16.0803V13.7445L19.8263 7.4649V9.81242ZM10.7649 12.2538H8.80471L13.8871 6.17376H15.859L10.7649 12.2421V12.2538ZM4.19183 9.36639L6.87974 6.17376H8.85166L4.19183 11.7139V9.36639ZM10.3893 6.17376H12.3612L7.26708 12.2304H5.29516L10.3893 6.17376ZM5.34211 6.17376L4.19183 7.54706V6.17376H5.34211ZM12.2908 12.2538L17.3966 6.17376H19.3686L14.2627 12.2538H12.3025H12.2908Z" fill="#002341"/>
</svg>
