<svg width="24" height="24" viewBox="0 0 24 24" fill="none" xmlns="http://www.w3.org/2000/svg">
<path d="M12.5272 11.4829H16.3224C16.612 11.4829 16.8395 11.7104 16.8395 12C16.8395 12.2895 16.612 12.5171 16.3224 12.5171H12.5272V16.3226C12.5272 16.6122 12.2997 16.8397 12.0101 16.8397C11.7206 16.8397 11.4931 16.6122 11.4931 16.3226V12.5171H7.68747C7.39792 12.5171 7.17041 12.2895 7.17041 12C7.17041 11.7104 7.39792 11.4829 7.68747 11.4829H11.4931V7.67734C11.4931 7.38779 11.7206 7.16028 12.0101 7.16028C12.2997 7.16028 12.5272 7.38779 12.5272 7.67734V11.4829Z" fill="#002341"/>
<path fill-rule="evenodd" clip-rule="evenodd" d="M2 12C2 6.48811 6.48811 2 12 2C17.5222 2 22 6.48811 22 12C22 17.5119 17.5119 22 12 22C6.48811 22 2 17.5119 2 12ZM3.03413 12C3.03413 16.9431 7.05688 20.9659 12 20.9659C16.9431 20.9659 20.9659 16.9431 20.9659 12C20.9659 7.05688 16.9431 3.03413 12 3.03413C7.05688 3.03413 3.03413 7.05688 3.03413 12Z" fill="#002341"/>
</svg>
