<svg width="24" height="24" viewBox="0 0 24 24" fill="none" xmlns="http://www.w3.org/2000/svg">
<path d="M18.2513 11.2588H12.7561V5.74866C12.7561 5.32941 12.4267 5 12.0075 5C11.5882 5 11.2588 5.32941 11.2588 5.74866V11.2588H5.74866C5.32941 11.2588 5 11.5882 5 12.0075C5 12.4267 5.32941 12.7561 5.74866 12.7561H11.2588V18.2663C11.2588 18.6856 11.5882 19.015 12.0075 19.015C12.4267 19.015 12.7561 18.6856 12.7561 18.2663V12.7561H18.2513C18.6706 12.7561 19 12.4267 19 12.0075C19 11.5882 18.6706 11.2588 18.2513 11.2588Z" fill="#002341"/>
</svg>
