<svg width="24" height="24" viewBox="0 0 24 24" fill="none" xmlns="http://www.w3.org/2000/svg">
<path d="M14.5 12.4014L15.13 15.1314C15.1528 15.2277 15.1464 15.3286 15.1118 15.4213C15.0772 15.514 15.0159 15.5943 14.9356 15.6521C14.8553 15.71 14.7596 15.7427 14.6607 15.7461C14.5618 15.7495 14.4641 15.7235 14.38 15.6714L12 14.2314L9.61 15.6714C9.52589 15.7235 9.4282 15.7495 9.3293 15.7461C9.23041 15.7427 9.13475 15.71 9.05444 15.6521C8.97413 15.5943 8.91279 15.514 8.87818 15.4213C8.84356 15.3286 8.83724 15.2277 8.86 15.1314L9.5 12.4114L7.4 10.6014C7.32455 10.5376 7.26969 10.4529 7.24234 10.3579C7.21499 10.263 7.21638 10.1621 7.24634 10.0679C7.2763 9.97378 7.33348 9.89062 7.41066 9.82894C7.48784 9.76726 7.58156 9.72983 7.68 9.72137L10.46 9.48137L11.54 6.92137C11.5784 6.83117 11.6425 6.75426 11.7243 6.7002C11.8061 6.64615 11.902 6.61733 12 6.61733C12.098 6.61733 12.1939 6.64615 12.2757 6.7002C12.3575 6.75426 12.4216 6.83117 12.46 6.92137L13.54 9.47137L16.32 9.71137C16.4184 9.71982 16.5122 9.75726 16.5893 9.81894C16.6665 9.88062 16.7237 9.96378 16.7537 10.0579C16.7836 10.1521 16.785 10.253 16.7577 10.3479C16.7303 10.4429 16.6755 10.5276 16.6 10.5914L14.5 12.4014ZM4.19 4.28137C3.83568 4.43831 3.53458 4.69482 3.32332 5.0197C3.11206 5.34458 2.99974 5.72384 3 6.11137V10.8114C3 16.3614 6.84 21.5514 12 22.8114C17.16 21.5514 21 16.3614 21 10.8114V6.11137C21.0003 5.72384 20.8879 5.34458 20.6767 5.0197C20.4654 4.69482 20.1643 4.43831 19.81 4.28137L12.81 1.17137C12.5549 1.05837 12.279 1 12 1C11.721 1 11.4451 1.05837 11.19 1.17137L4.19 4.28137Z" fill="#1C3553"/>
</svg>
