<svg width="24" height="24" viewBox="0 0 24 24" fill="none" xmlns="http://www.w3.org/2000/svg">
<path d="M20.44 5.17005L13.27 2.15005C12.79 1.94005 12.22 1.94005 11.74 2.15005L4.56 5.17005C4.22 5.31005 4 5.63005 4 5.98005V10.7601C4 15.7101 7.63 20.3401 12.5 21.4601C17.37 20.3401 21 15.7101 21 10.7601V5.98005C21 5.63005 20.78 5.31005 20.44 5.17005ZM15.81 16.0901L12.5 14.3501L9.19 16.0901L9.82 12.4101L7.14 9.80005L10.84 9.26005L12.49 5.91005L14.14 9.26005L17.84 9.80005L15.17 12.4101L15.8 16.0901H15.81Z" fill="#002341"/>
</svg>
