<svg width="24" height="24" viewBox="0 0 24 24" fill="none" xmlns="http://www.w3.org/2000/svg">
<path d="M10.05 8.82L7.20002 11.67C7.47002 11.78 7.69002 11.9 7.87002 12.01C8.19002 12.21 8.39002 12.33 8.88002 12.33C9.37002 12.33 9.56002 12.21 9.89002 12.02C10.28 11.78 10.83 11.45 11.8 11.45C12.77 11.45 13.32 11.77 13.71 12.02C14.03 12.22 14.23 12.33 14.72 12.33C15.21 12.33 15.4 12.21 15.73 12.02C15.84 11.95 15.95 11.89 16.08 11.82L10.47 6.2C9.11002 4.83 7.86002 4.43 5.67002 4.44V6.63C7.26002 6.63 8.20002 6.97 9.17002 7.94L10.05 8.82Z" fill="#002341"/>
<path d="M2.50002 16.26C3.69002 16.26 4.36002 15.85 4.82002 15.58C5.15002 15.38 5.26002 15.32 5.64002 15.32C6.02002 15.32 6.15002 15.39 6.47002 15.59C6.92002 15.86 7.59002 16.26 8.78002 16.26C9.97002 16.26 10.65 15.85 11.1 15.58C11.42 15.39 11.54 15.32 11.93 15.32C12.32 15.32 12.44 15.39 12.75 15.58C13.17 15.83 13.86 16.26 15.06 16.26C16.26 16.26 16.92 15.85 17.37 15.58C17.69 15.39 17.81 15.32 18.2 15.32C18.59 15.32 18.7 15.39 19.02 15.58C19.44 15.83 20.13 16.26 21.33 16.26C21.61 16.26 21.83 16.04 21.83 15.76C21.83 15.48 21.61 15.26 21.33 15.26C20.41 15.26 19.93 14.96 19.53 14.72C19.17 14.5 18.85 14.32 18.19 14.32C17.53 14.32 17.22 14.51 16.85 14.73C16.45 14.97 15.96 15.26 15.06 15.26C14.16 15.26 13.66 14.96 13.27 14.73C12.91 14.51 12.6 14.32 11.93 14.32C11.26 14.32 10.96 14.51 10.59 14.73C10.19 14.97 9.69002 15.27 8.79002 15.27C7.89002 15.27 7.39002 14.98 7.00002 14.74C6.64002 14.52 6.32002 14.33 5.65002 14.33C4.98002 14.33 4.69002 14.51 4.31002 14.74C3.92002 14.98 3.43002 15.27 2.52002 15.27C2.24002 15.27 2.02002 15.49 2.02002 15.77C2.02002 16.05 2.24002 16.27 2.52002 16.27L2.50002 16.26Z" fill="#002341"/>
<path d="M21.33 19.5C20.41 19.5 19.93 19.2 19.53 18.96C19.17 18.74 18.85 18.56 18.2 18.56C17.55 18.56 17.23 18.75 16.86 18.97C16.46 19.21 15.97 19.5 15.07 19.5C14.17 19.5 13.67 19.2 13.28 18.96C12.86 18.71 12.57 18.55 11.94 18.55C11.31 18.55 10.97 18.74 10.6 18.96C10.2 19.2 9.70002 19.5 8.80002 19.5C7.90002 19.5 7.40002 19.21 7.01002 18.97C6.65002 18.75 6.33002 18.56 5.66002 18.56C4.99002 18.56 4.70002 18.74 4.32002 18.97C3.92002 19.21 3.43002 19.5 2.52002 19.5C2.24002 19.5 2.02002 19.72 2.02002 20C2.02002 20.28 2.24002 20.5 2.52002 20.5C3.71002 20.5 4.38002 20.09 4.84002 19.82C5.17002 19.62 5.28002 19.56 5.66002 19.56C6.04002 19.56 6.17002 19.63 6.49002 19.83C6.94002 20.1 7.61002 20.5 8.80002 20.5C9.99002 20.5 10.67 20.09 11.12 19.82C11.44 19.63 11.56 19.56 11.94 19.56C12.32 19.56 12.45 19.63 12.76 19.82C13.2 20.09 13.88 20.5 15.07 20.5C16.26 20.5 16.93 20.09 17.38 19.82C17.7 19.63 17.82 19.56 18.2 19.56C18.58 19.56 18.7 19.63 19.02 19.82C19.44 20.07 20.14 20.5 21.33 20.5C21.61 20.5 21.83 20.28 21.83 20C21.83 19.72 21.61 19.5 21.33 19.5Z" fill="#002341"/>
<path d="M15.28 8.38C16.49 8.38 17.47 7.4 17.47 6.19C17.48 4.98 16.5 4 15.29 4C14.08 4 13.1 4.98 13.1 6.19C13.1 7.4 14.08 8.38 15.29 8.38H15.28Z" fill="#002341"/>
</svg>
