<svg width="24" height="24" viewBox="0 0 24 24" fill="none" xmlns="http://www.w3.org/2000/svg">
<path d="M6.699 5.51434C7.77 5.65434 8.526 6.09434 9.3 6.95434L10.2 7.95434L7.275 11.2043C7.554 11.3243 7.779 11.4743 7.968 11.5943C8.301 11.8243 8.499 11.9543 9.003 11.9543C9.507 11.9543 9.705 11.8243 10.038 11.5943C10.452 11.3243 11.01 10.9543 12.009 10.9543C13.008 10.9543 13.566 11.3243 13.971 11.5943C14.304 11.8143 14.511 11.9543 15.006 11.9543C15.501 11.9543 15.708 11.8243 16.041 11.5943C16.149 11.5243 16.275 11.4443 16.41 11.3643L10.632 4.95434C9.498 3.69434 8.436 3.15434 6.87 3.00434C6.24 2.94434 5.7 3.51434 5.7 4.21434V4.30434C5.7 4.93434 6.141 5.43434 6.699 5.51434ZM20.415 18.8643C20.262 18.8043 20.127 18.7143 19.965 18.5943C19.56 18.3243 19.002 17.9543 18.003 17.9543C17.004 17.9543 16.446 18.3243 16.041 18.5943C15.708 18.8243 15.501 18.9543 15.006 18.9543C14.511 18.9543 14.304 18.8143 13.971 18.5943C13.566 18.3243 13.008 17.9543 12.009 17.9543C11.01 17.9543 10.452 18.3243 10.038 18.5943C9.705 18.8243 9.507 18.9543 9.003 18.9543C8.499 18.9543 8.301 18.8243 7.968 18.5943C7.563 18.3243 7.005 17.9543 6.006 17.9543C5.007 17.9543 4.449 18.3243 4.035 18.5943C3.873 18.7043 3.738 18.7943 3.585 18.8643C3.243 18.9943 3 19.3143 3 19.7143V19.8343C3 20.5043 3.594 20.9643 4.17 20.7443C4.503 20.6143 4.755 20.4443 4.971 20.3043C5.304 20.0843 5.511 19.9543 6.006 19.9543C6.501 19.9543 6.708 20.0843 7.041 20.3143C7.446 20.5843 8.004 20.9543 9.003 20.9543C10.002 20.9543 10.56 20.5843 10.974 20.3143C11.307 20.0843 11.505 19.9543 12.009 19.9543C12.504 19.9543 12.711 20.0943 13.044 20.3143C13.449 20.5843 14.007 20.9543 15.006 20.9543C16.005 20.9543 16.554 20.5843 16.968 20.3143C17.301 20.0843 17.499 19.9543 18.003 19.9543C18.498 19.9543 18.705 20.0943 19.038 20.3143C19.245 20.4543 19.497 20.6243 19.83 20.7543C20.397 20.9743 21 20.5143 21 19.8443V19.7243C21 19.3143 20.757 18.9943 20.415 18.8643ZM3.999 16.3043C4.422 16.1743 4.728 15.9743 4.98 15.8143C5.313 15.5843 5.52 15.4543 6.015 15.4543C6.51 15.4543 6.717 15.5943 7.05 15.8143C7.455 16.0843 8.013 16.4543 9.012 16.4543C10.011 16.4543 10.569 16.0843 10.974 15.8143C11.307 15.5843 11.505 15.4543 12.009 15.4543C12.504 15.4543 12.711 15.5943 13.044 15.8143C13.449 16.0843 14.007 16.4543 15.006 16.4543C16.005 16.4543 16.563 16.0843 16.968 15.8143C17.301 15.5843 17.499 15.4543 18.003 15.4543C18.498 15.4543 18.705 15.5943 19.038 15.8143C19.245 15.9543 19.488 16.1143 19.803 16.2443C20.37 16.4743 20.982 16.0043 20.982 15.3343V15.2143C20.982 14.8143 20.739 14.4943 20.406 14.3543C20.253 14.2943 20.118 14.2043 19.947 14.0943C19.542 13.8243 18.984 13.4543 17.985 13.4543C16.986 13.4543 16.428 13.8243 16.023 14.0943C15.69 14.3243 15.483 14.4543 14.988 14.4543C14.493 14.4543 14.286 14.3143 13.953 14.0943C13.548 13.8243 12.99 13.4543 11.991 13.4543C10.992 13.4543 10.434 13.8243 10.029 14.0943C9.696 14.3243 9.498 14.4543 8.994 14.4543C8.499 14.4543 8.292 14.3143 7.959 14.0943C7.554 13.8243 6.996 13.4543 5.997 13.4543C4.998 13.4543 4.44 13.8243 4.035 14.0943C3.873 14.2043 3.738 14.2943 3.585 14.3643C3.243 14.4943 3 14.8143 3 15.2143V15.4443C3 16.0243 3.495 16.4643 3.999 16.3043Z" fill="#1C3553"/>
<path d="M16.5 8C17.8807 8 19 6.88071 19 5.5C19 4.11929 17.8807 3 16.5 3C15.1193 3 14 4.11929 14 5.5C14 6.88071 15.1193 8 16.5 8Z" fill="#1C3553"/>
</svg>
