<svg width="24" height="24" viewBox="0 0 24 24" fill="none" xmlns="http://www.w3.org/2000/svg">
<path fill-rule="evenodd" clip-rule="evenodd" d="M6.04996 5.86004C9.16996 2.34004 14.56 2.03004 18.07 5.15004L18.08 5.13004C21.59 8.25004 21.91 13.65 18.79 17.16C17.28 18.86 15.19 19.88 12.92 20.01C12.75 20.02 12.58 20.02 12.41 20.02C10.32 20.02 8.32996 19.27 6.75996 17.87C5.29996 16.58 4.31996 14.8 4.00996 12.88C3.95996 12.61 4.14996 12.35 4.41996 12.31C4.67996 12.26 4.94996 12.45 4.98996 12.72C5.26996 14.42 6.12996 15.99 7.41996 17.13C8.91996 18.47 10.86 19.14 12.86 19.02C14.87 18.9 16.71 18.01 18.04 16.51C20.79 13.41 20.51 8.64004 17.41 5.89004C14.31 3.14004 9.54996 3.42004 6.79996 6.52004L5.88996 7.54004L7.59996 7.42004C7.85996 7.40004 8.11996 7.60004 8.13996 7.88004C8.15996 8.16004 7.95996 8.40004 7.67996 8.42004L4.80996 8.63004H4.76996C4.64996 8.63004 4.52996 8.59004 4.43996 8.51004C4.33996 8.42004 4.26996 8.29004 4.26996 8.16004L4.10996 5.26004C4.08996 4.98004 4.29996 4.74004 4.57996 4.73004C4.86996 4.70004 5.09996 4.92004 5.10996 5.20004L5.19996 6.82004L6.04996 5.86004ZM12.9599 11.87V11.89C12.9599 11.95 12.9499 11.99 12.9299 12.04C12.9272 12.0454 12.9245 12.05 12.922 12.0543C12.9152 12.0661 12.9099 12.0754 12.9099 12.09C12.8899 12.13 12.8699 12.17 12.8399 12.2L12.7899 12.25C12.7699 12.26 12.7399 12.29 12.7399 12.29L9.65989 14.29C9.57989 14.34 9.47989 14.37 9.38989 14.37C9.22989 14.37 9.06989 14.29 8.96989 14.14C8.81989 13.91 8.88989 13.6 9.11989 13.45L11.9599 11.6V7.16003C11.9599 6.88003 12.1799 6.66003 12.4599 6.66003C12.7399 6.66003 12.9599 6.88003 12.9599 7.16003V11.87Z" fill="#002341"/>
</svg>
