<svg width="24" height="24" viewBox="0 0 24 24" fill="none" xmlns="http://www.w3.org/2000/svg">
<g clip-path="url(#clip0_2894_5342)">
<path d="M20.3 8.2H17.06V4H6.74V8.2H3.5C3.22 8.2 3 8.42 3 8.7V16.19C3 16.47 3.22 16.69 3.5 16.69H6.74V19.69H17.06V16.69H20.3C20.58 16.69 20.8 16.47 20.8 16.19V8.7C20.8 8.42 20.58 8.2 20.3 8.2ZM7.74 5H16.06V8.2H7.74V5ZM16.06 18.69H7.74V13.46H16.06V18.69ZM19.8 15.69H17.06V12.46H6.74V15.69H4V9.2H19.8V15.69Z" fill="#002341"/>
<path d="M17.71 11.98C18.15 11.98 18.52 11.62 18.52 11.17C18.52 10.72 18.16 10.36 17.71 10.36C17.26 10.36 16.9 10.72 16.9 11.17C16.9 11.62 17.26 11.98 17.71 11.98Z" fill="#002341"/>
</g>
<defs>
<clipPath id="clip0_2894_5342">
<rect width="24" height="24" fill="white"/>
</clipPath>
</defs>
</svg>
