<svg width="24" height="24" viewBox="0 0 24 24" fill="none" xmlns="http://www.w3.org/2000/svg">
<path d="M6.46224 3.32235C7.42012 2.71355 8.47547 2.27382 9.58224 2.02235C9.72992 1.99059 9.88288 1.9927 10.0296 2.02852C10.1764 2.06434 10.3131 2.13294 10.4295 2.22917C10.546 2.3254 10.6391 2.44676 10.7019 2.58414C10.7647 2.72151 10.7956 2.87133 10.7922 3.02235C10.8 3.24812 10.731 3.46985 10.5967 3.65143C10.4623 3.83301 10.2704 3.96375 10.0522 4.02235C9.15654 4.2039 8.30001 4.54245 7.52224 5.02235C7.33015 5.13549 7.10576 5.18119 6.88472 5.1522C6.66368 5.12321 6.45866 5.02119 6.30224 4.86235C6.19784 4.75721 6.11812 4.63019 6.06882 4.49046C6.01953 4.35073 6.0019 4.2018 6.01721 4.05443C6.03253 3.90706 6.08039 3.76493 6.15736 3.63832C6.23432 3.51171 6.33846 3.40379 6.46224 3.32235ZM3.02224 10.7724C2.87122 10.7757 2.7214 10.7448 2.58402 10.682C2.44665 10.6192 2.32529 10.5261 2.22906 10.4096C2.13283 10.2932 2.06423 10.1565 2.02841 10.0097C1.99259 9.86299 1.99048 9.71003 2.02224 9.56235C2.27742 8.45677 2.7169 7.40203 3.32224 6.44235C3.4035 6.31687 3.51186 6.2112 3.63935 6.13313C3.76685 6.05505 3.91022 6.00655 4.05893 5.9912C4.20764 5.97585 4.35789 5.99404 4.49864 6.04442C4.63939 6.09481 4.76706 6.17611 4.87224 6.28235C5.03108 6.43878 5.1331 6.64379 5.16209 6.86483C5.19108 7.08587 5.14538 7.31026 5.03224 7.50235C4.53648 8.27753 4.18106 9.13394 3.98224 10.0324C3.92531 10.2438 3.80056 10.4307 3.62713 10.5644C3.45371 10.6981 3.2412 10.7711 3.02224 10.7724ZM4.89224 17.2624C4.78775 17.3691 4.66068 17.451 4.52035 17.5022C4.38003 17.5534 4.23003 17.5725 4.08136 17.5581C3.93269 17.5437 3.78913 17.4962 3.66123 17.4191C3.53333 17.342 3.42433 17.2371 3.34224 17.1124C2.73605 16.1567 2.29647 15.1051 2.04224 14.0024C2.01048 13.8547 2.01259 13.7017 2.04841 13.555C2.08423 13.4082 2.15283 13.2715 2.24906 13.1551C2.34529 13.0386 2.46665 12.9455 2.60402 12.8827C2.7414 12.8199 2.89122 12.789 3.04224 12.7924C3.268 12.7846 3.48973 12.8536 3.67132 12.9879C3.8529 13.1223 3.98364 13.3142 4.04224 13.5324C4.24551 14.4294 4.60062 15.285 5.09224 16.0624C5.1955 16.2565 5.23186 16.4793 5.19571 16.6963C5.15955 16.9132 5.05289 17.1122 4.89224 17.2624ZM10.7922 20.5424C10.7956 20.6934 10.7647 20.8432 10.7019 20.9806C10.6391 21.1179 10.546 21.2393 10.4295 21.3355C10.3131 21.4318 10.1764 21.5004 10.0296 21.5362C9.88288 21.572 9.72992 21.5741 9.58224 21.5424C8.47948 21.2881 7.42788 20.8485 6.47224 20.2424C6.34676 20.1611 6.24109 20.0527 6.16301 19.9252C6.08494 19.7977 6.03644 19.6544 6.02109 19.5057C6.00574 19.357 6.02393 19.2067 6.07431 19.0659C6.1247 18.9252 6.206 18.7975 6.31224 18.6924C6.46917 18.5374 6.6729 18.4387 6.89174 18.4116C7.11057 18.3845 7.33223 18.4304 7.52224 18.5424C8.29563 19.0415 9.15267 19.3972 10.0522 19.5924C10.262 19.6488 10.4478 19.7721 10.5813 19.9435C10.7148 20.1149 10.7888 20.3251 10.7922 20.5424ZM12.7922 20.5424C12.7889 20.6934 12.8197 20.8432 12.8826 20.9806C12.9454 21.1179 13.0385 21.2393 13.1549 21.3355C13.2714 21.4318 13.4081 21.5004 13.5549 21.5362C13.7016 21.572 13.8546 21.5741 14.0022 21.5424C16.2165 21.043 18.195 19.8052 19.6125 18.0324C21.03 16.2595 21.8022 14.0572 21.8022 11.7874C21.8022 9.51749 21.03 7.31517 19.6125 5.54235C18.195 3.76954 16.2165 2.53172 14.0022 2.03235C13.8546 2.00059 13.7016 2.0027 13.5549 2.03852C13.4081 2.07434 13.2714 2.14294 13.1549 2.23917C13.0385 2.3354 12.9454 2.45676 12.8826 2.59414C12.8197 2.73151 12.7889 2.88133 12.7922 3.03235C12.7856 3.26079 12.8574 3.48461 12.9957 3.66656C13.1339 3.84851 13.3304 3.9776 13.5522 4.03235C15.3197 4.43516 16.898 5.42631 18.0284 6.84342C19.1589 8.26053 19.7746 10.0196 19.7746 11.8324C19.7746 13.6451 19.1589 15.4042 18.0284 16.8213C16.898 18.2384 15.3197 19.2295 13.5522 19.6324C13.3451 19.6831 13.1596 19.7989 13.0228 19.9626C12.8861 20.1263 12.8053 20.3294 12.7922 20.5424Z" fill="#1C3553"/>
<path d="M17.0098 10.0023L11.3498 15.6623C11.1625 15.8486 10.909 15.9531 10.6448 15.9531C10.3807 15.9531 10.1272 15.8486 9.93984 15.6623L7.05984 12.8323C6.87358 12.6449 6.76904 12.3915 6.76904 12.1273C6.76904 11.8631 6.87358 11.6097 7.05984 11.4223C7.2472 11.2361 7.50065 11.1315 7.76484 11.1315C8.02902 11.1315 8.28247 11.2361 8.46984 11.4223L10.5898 13.5423L15.5398 8.59231C15.7272 8.40606 15.9806 8.30151 16.2448 8.30151C16.509 8.30151 16.7625 8.40606 16.9498 8.59231C17.1443 8.77162 17.2598 9.02066 17.271 9.28492C17.2822 9.54918 17.1883 9.80713 17.0098 10.0023Z" fill="#1C3553"/>
</svg>
