<svg width="24" height="24" viewBox="0 0 24 24" fill="none" xmlns="http://www.w3.org/2000/svg">
<path fill-rule="evenodd" clip-rule="evenodd" d="M10.4386 2.11494C10.9367 2.03831 11.4348 2 11.9425 2C17.4885 2 21.9999 6.52107 21.9999 12.067C21.9999 17.613 17.4885 22.1245 11.9425 22.1245C11.4444 22.1245 10.9367 22.0862 10.4386 22.0096C10.18 21.9713 9.99803 21.7222 10.0363 21.4636C10.0747 21.205 10.3141 21.023 10.5823 21.0613C11.0229 21.1284 11.4827 21.1667 11.9425 21.1667C16.9616 21.1667 21.0421 17.0862 21.0421 12.067C21.0421 7.04789 16.9616 2.96743 11.9425 2.96743C11.4923 2.96743 11.0325 3.00575 10.5823 3.0728H10.5057C10.2758 3.0728 10.0747 2.90038 10.0363 2.66092C9.99803 2.39272 10.18 2.15326 10.4386 2.11494ZM2.40251 13.092C2.66113 13.0537 2.91018 13.2357 2.94849 13.4943V13.4847C3.10175 14.433 3.39868 15.3525 3.83929 16.205C3.95424 16.4349 3.86803 16.7223 3.62857 16.8468C3.56152 16.8851 3.48489 16.9043 3.40826 16.9043C3.23585 16.9043 3.07301 16.8085 2.9868 16.6456C2.4983 15.6974 2.16305 14.6916 2.00021 13.638C1.9619 13.3794 2.14389 13.1303 2.40251 13.092ZM7.85255 20.1896C7.00006 19.7586 6.21462 19.1935 5.53454 18.5134C5.34297 18.3218 5.04604 18.3314 4.85446 18.5134C4.66289 18.705 4.67247 19.0019 4.85446 19.1935C5.61117 19.9406 6.47324 20.5632 7.42151 21.0421C7.48856 21.0805 7.56519 21.09 7.63224 21.09C7.80466 21.09 7.97707 20.9942 8.06328 20.8218C8.17822 20.5824 8.09201 20.295 7.85255 20.1801V20.1896ZM2.47887 11.0229H2.40224C2.13404 10.9846 1.96163 10.7356 1.99994 10.477C2.17236 9.4329 2.49803 8.41757 2.98653 7.4693C3.10148 7.22983 3.38883 7.14363 3.6283 7.25857C3.86776 7.37351 3.96354 7.66087 3.83902 7.90033C3.39841 8.75282 3.10148 9.67236 2.94822 10.6206C2.90991 10.8505 2.70876 11.0229 2.47887 11.0229ZM5.18968 5.74519C5.3142 5.74519 5.42914 5.6973 5.52493 5.60151C6.205 4.92144 6.99044 4.3563 7.84293 3.92527C8.0824 3.81033 8.16861 3.52297 8.05366 3.28351C7.93872 3.04404 7.64179 2.95784 7.4119 3.07278C6.46362 3.55171 5.60156 4.17431 4.84485 4.92144C4.65328 5.10343 4.65328 5.40994 4.84485 5.60151C4.94064 5.6973 5.06516 5.74519 5.1801 5.74519H5.18968ZM10.4673 16.2242C10.5535 16.3008 10.6589 16.3391 10.7738 16.3391L10.7642 16.3295H10.8217C10.9462 16.3104 11.0707 16.2433 11.1474 16.1379L16.8753 8.54216C17.0286 8.33143 16.9903 8.0345 16.7796 7.87166C16.5688 7.7184 16.2719 7.75672 16.1091 7.96745L10.6876 15.1609L7.67036 12.6609C7.46921 12.4981 7.17227 12.5268 6.99986 12.728C6.83702 12.9291 6.86576 13.2261 7.06691 13.3985L10.4673 16.2242Z" fill="#002341"/>
</svg>
