<svg width="24" height="24" viewBox="0 0 24 24" fill="none" xmlns="http://www.w3.org/2000/svg">
<path d="M17.01 6.7C15.8 3.94 13.04 2 9.83 2C5.51 2 2 5.51 2 9.83V17.66H6.91C8.31 20.1 10.87 21.61 13.69 21.61H21.52V13.78C21.52 10.74 19.75 7.99 17.01 6.7ZM3 16.67V9.84C3 6.07 6.07 3 9.83 3C12.64 3 15.07 4.71 16.11 7.15L16.14 7.23C16.14 7.23 16.17 7.31 16.18 7.35C16.25 7.52 16.31 7.69 16.36 7.87C16.38 7.93 16.39 7.99 16.4 8.04C16.44 8.19 16.48 8.35 16.51 8.5C16.53 8.61 16.54 8.71 16.56 8.82C16.58 8.93 16.6 9.04 16.61 9.15C16.63 9.37 16.64 9.6 16.64 9.83C16.64 13.6 13.57 16.66 9.81 16.66H3V16.67ZM20.52 20.62H13.69C11.42 20.62 9.34 19.51 8.07 17.67H9.83C14.15 17.67 17.66 14.16 17.66 9.84C17.66 9.56 17.64 9.27 17.61 9C17.61 8.92 17.59 8.85 17.57 8.77C17.54 8.57 17.51 8.36 17.47 8.17C17.47 8.15 17.47 8.13 17.46 8.11C19.35 9.36 20.51 11.49 20.51 13.8V20.63L20.52 20.62Z" fill="#002341"/>
</svg>
