<svg width="24" height="24" viewBox="0 0 24 24" fill="none" xmlns="http://www.w3.org/2000/svg">
<path d="M17.41 3H1.5C1.22 3 1 3.22 1 3.5V19.75C1 20.03 1.22 20.25 1.5 20.25H17.41C17.69 20.25 17.91 20.03 17.91 19.75V3.5C17.91 3.22 17.69 3 17.41 3ZM4.46 19.25C4.82 17.58 6.92 16.3 9.45 16.3C11.98 16.3 14.09 17.59 14.44 19.25H4.46ZM15.46 19.25C15.12 17.03 12.56 15.3 9.46 15.3C6.36 15.3 3.79 17.03 3.46 19.25H2.01V4H16.92V19.25H15.46Z" fill="#002341"/>
<path d="M9.46 14.74C11.16 14.74 12.54 13.36 12.54 11.66C12.54 9.96 11.16 8.58 9.46 8.58C7.76 8.58 6.38 9.96 6.38 11.66C6.38 13.36 7.76 14.74 9.46 14.74ZM9.46 9.58C10.61 9.58 11.54 10.51 11.54 11.66C11.54 12.81 10.61 13.74 9.46 13.74C8.31 13.74 7.38 12.81 7.38 11.66C7.38 10.51 8.31 9.58 9.46 9.58Z" fill="#002341"/>
<path d="M19.51 3C19.23 3 19.01 3.22 19.01 3.5V19.84C19.01 20.12 19.23 20.34 19.51 20.34C19.79 20.34 20.01 20.12 20.01 19.84V3.5C20.01 3.22 19.79 3 19.51 3Z" fill="#002341"/>
<path d="M21.61 3C21.33 3 21.11 3.22 21.11 3.5V19.84C21.11 20.12 21.33 20.34 21.61 20.34C21.89 20.34 22.11 20.12 22.11 19.84V3.5C22.11 3.22 21.89 3 21.61 3Z" fill="#002341"/>
</svg>
