<svg width="24" height="24" viewBox="0 0 24 24" fill="none" xmlns="http://www.w3.org/2000/svg">
<path d="M19.5499 11.61C19.2899 11.59 19.0399 11.8 19.0099 12.07C18.8899 13.78 18.1699 15.42 16.9799 16.67C14.1399 19.69 9.36991 19.83 6.34991 16.99C4.88991 15.61 4.04991 13.75 3.98991 11.74C3.92991 9.72997 4.65991 7.81997 6.02991 6.35997C8.88991 3.33997 13.6599 3.19997 16.6699 6.03997L17.6599 6.96997L15.9499 6.99997C15.6699 6.99997 15.4499 7.22997 15.4599 7.50997C15.4599 7.77997 15.6899 7.99997 15.9599 7.99997L18.8399 7.95997C18.9699 7.95997 19.0999 7.89997 19.1899 7.79997C19.1899 7.79997 19.1899 7.77997 19.1999 7.77997C19.1999 7.77997 19.2099 7.77997 19.2199 7.76997C19.3599 7.61997 19.3899 7.41997 19.3199 7.23997L19.2299 4.53997C19.2299 4.26997 18.9999 4.05997 18.7299 4.05997H18.7099C18.4299 4.05997 18.2199 4.29997 18.2299 4.57997L18.2799 6.19997L17.3399 5.31997C13.9399 2.08997 8.53991 2.24997 5.30991 5.66997C2.08991 9.08997 2.24991 14.49 5.66991 17.71C7.30991 19.26 9.40991 20.02 11.5099 20.02C13.7799 20.02 16.0399 19.12 17.7099 17.35C19.0499 15.93 19.8599 14.08 20.0099 12.13C20.0299 11.85 19.8199 11.62 19.5499 11.59V11.61Z" fill="#002341"/>
</svg>
