<svg width="24" height="24" viewBox="0 0 24 24" fill="none" xmlns="http://www.w3.org/2000/svg">
<path fill-rule="evenodd" clip-rule="evenodd" d="M16.5135 6.88887C16.5135 4.193 14.3797 2 11.7567 2C9.13373 2 7 4.193 7 6.88887V19.9258C7 20.8246 7.71109 21.5555 8.58555 21.5555H14.9279C15.8024 21.5555 16.5135 20.8246 16.5135 19.9258L16.5135 11.7777C16.5135 10.5016 14.6714 10.0106 13.1908 9.61595L13.1902 9.61579L13.1597 9.60764C12.8248 9.51813 12.5183 9.43624 12.2786 9.35438C10.3272 8.6856 9.37837 7.87913 9.37837 6.88887C9.37837 5.54091 10.4452 4.44443 11.7567 4.44443C13.0683 4.44443 14.1351 5.54091 14.1351 6.88887V7.29629C14.1351 7.97026 14.6685 8.5185 15.3243 8.5185C15.98 8.5185 16.5135 7.97026 16.5135 7.29629V6.88887ZM9.18026 16.5476L10.5676 17.935L14.4919 14.0107C14.6465 13.8561 14.8923 13.8561 15.0469 14.0107C15.2015 14.1653 15.2015 14.4111 15.0469 14.5657L10.8451 18.7635C10.6905 18.9181 10.4408 18.9181 10.2862 18.7635L8.62531 17.1026C8.47071 16.948 8.47071 16.7022 8.62531 16.5476C8.7799 16.3931 9.02567 16.3931 9.18026 16.5476Z" fill="#1C3553"/>
</svg>
