<svg width="24" height="24" viewBox="0 0 24 24" fill="none" xmlns="http://www.w3.org/2000/svg">
<path d="M14.7102 20.71H9.68023C8.76023 20.71 8.00023 20.01 8.00023 19.16V7.71C8.00023 7.71 8.00023 7.66 8.00023 7.64C8.00023 7.55 7.99023 7.45 7.99023 7.35C8.00023 5.5 9.65023 4 11.6902 4C13.7302 4 15.3802 5.5 15.3802 7.35C15.3802 7.63 15.1602 7.85 14.8802 7.85C14.6002 7.85 14.3802 7.63 14.3802 7.35C14.3802 6.05 13.1702 5 11.6902 5C10.2102 5 9.00023 6.05 9.00023 7.35C9.00023 8.49 9.96023 9.47 11.2802 9.67C11.8102 9.75 12.6302 9.88 13.8702 10.03C15.3002 10.21 16.3802 11.37 16.3802 12.71V19.14C16.3802 20 15.6302 20.69 14.7002 20.69L14.7102 20.71ZM9.01023 9.64V19.16C9.01023 19.46 9.31023 19.71 9.69023 19.71H14.7102C15.0802 19.71 15.3902 19.46 15.3902 19.16V12.73C15.3902 11.89 14.6802 11.16 13.7502 11.04C12.4902 10.88 11.6702 10.75 11.1302 10.67C10.2902 10.54 9.55023 10.17 9.01023 9.65V9.64Z" fill="#002341"/>
</svg>
