<svg width="24" height="24" viewBox="0 0 24 24" fill="none" xmlns="http://www.w3.org/2000/svg">
<path d="M11.7567 2C14.3797 2 16.5135 4.193 16.5135 6.88887V7.29629C16.5135 7.97026 15.98 8.5185 15.3243 8.5185C14.6685 8.5185 14.1351 7.97026 14.1351 7.29629V6.88887C14.1351 5.54092 13.0683 4.44443 11.7567 4.44443C10.4452 4.44443 9.37837 5.54091 9.37837 6.88887C9.37837 7.87913 10.3272 8.6856 12.2786 9.35438C12.5255 9.43872 12.8434 9.52309 13.1902 9.61579C14.6709 10.0104 16.5135 10.5014 16.5135 11.7777L16.5135 19.9258C16.5135 20.8246 15.8024 21.5555 14.9279 21.5555H8.58555C7.71109 21.5555 7 20.8246 7 19.9258L7 6.88887C7 4.193 9.13373 2 11.7567 2Z" fill="#1C3553"/>
</svg>
