<svg width="24" height="24" viewBox="0 0 24 24" fill="none" xmlns="http://www.w3.org/2000/svg">
<path d="M12.5202 3C7.82024 3 4.00023 6.82 4.00023 11.52V12.8L2.85023 11.65C2.66023 11.45 2.34023 11.45 2.14023 11.65C1.94023 11.84 1.94023 12.16 2.14023 12.36L4.04023 14.28C4.12023 14.45 4.29023 14.57 4.49023 14.57H4.51023H4.53023C4.62023 14.57 4.79023 14.51 4.89023 14.42L6.89023 12.36C7.08023 12.16 7.08023 11.85 6.89023 11.65C6.70023 11.45 6.38023 11.46 6.18023 11.65L4.99023 12.88V11.52C4.99023 7.37 8.36023 4 12.5102 4C16.6602 4 20.0302 7.37 20.0302 11.52C20.0302 15.67 16.6602 19.04 12.5102 19.04C10.7902 19.04 9.10023 18.44 7.77023 17.36C7.56023 17.19 7.24023 17.22 7.07023 17.43C6.90023 17.64 6.93023 17.96 7.14023 18.13C8.65023 19.36 10.5602 20.04 12.5102 20.04C17.2102 20.04 21.0302 16.22 21.0302 11.52C21.0302 6.82 17.2202 3 12.5202 3Z" fill="#002341"/>
</svg>
