<svg width="24" height="24" viewBox="0 0 24 24" fill="none" xmlns="http://www.w3.org/2000/svg">
<path d="M6.79 20.59C6.88 20.59 6.97 20.58 7.06 20.57C7.15 20.57 7.24 20.59 7.33 20.59C8.31 20.59 9.44 20.05 10.37 19.12C11.42 18.07 11.98 16.76 11.82 15.71L11.77 15.35L11.41 15.3C10.67 15.18 9.81 15.43 8.99 15.95C8.88 14.41 8.29 13.08 7.39 12.42L7.09 12.2L6.79 12.42C5.89 13.09 5.3 14.43 5.19 15.98C4.36 15.44 3.48 15.18 2.73 15.3L2.37 15.35L2.32 15.71C2.16 16.76 2.71 18.07 3.76 19.12C4.69 20.05 5.82 20.59 6.8 20.59H6.79ZM9.66 18.41C9.03 19.04 8.26 19.46 7.61 19.56C7.7 19.02 7.96 18.19 8.74 17.41L8.97 17.21C9.57 16.69 10.26 16.34 10.84 16.28C10.77 16.95 10.33 17.75 9.67 18.41H9.66ZM7.08 13.49C7.64 14.13 8 15.27 8 16.48C8 16.56 8 16.65 8 16.73C7.62 17.11 7.31 17.52 7.07 17.94C6.84 17.54 6.55 17.15 6.19 16.79C6.19 16.69 6.19 16.59 6.19 16.49C6.19 15.28 6.55 14.14 7.11 13.5L7.08 13.49ZM5.4 17.43C5.53 17.56 5.65 17.69 5.75 17.83C6.25 18.48 6.44 19.12 6.51 19.56C5.86 19.46 5.09 19.05 4.45 18.41C3.79 17.75 3.36 16.94 3.28 16.28C3.94 16.35 4.74 16.78 5.4 17.43Z" fill="#002341"/>
<path d="M18.61 7.39C20.23 7.39 21.55 6.07 21.55 4.44C21.55 2.81 20.23 1.5 18.61 1.5C17.23 1.5 16.07 2.45 15.75 3.74C15.49 3.62 15.21 3.55 14.91 3.55C13.85 3.55 12.99 4.41 12.99 5.47C12.99 6.53 13.85 7.39 14.91 7.39H18.61ZM14.92 4.54C15.28 4.54 15.61 4.76 15.76 5.09C15.86 5.32 16.13 5.44 16.36 5.36C16.6 5.28 16.75 5.04 16.7 4.79C16.68 4.67 16.66 4.56 16.66 4.44C16.66 3.37 17.53 2.5 18.6 2.5C19.67 2.5 20.54 3.37 20.54 4.44C20.54 5.51 19.67 6.39 18.6 6.39H14.91C14.4 6.39 13.99 5.98 13.99 5.47C13.99 4.96 14.4 4.55 14.91 4.55L14.92 4.54Z" fill="#002341"/>
<path d="M22.19 21.38H1.5C1.22 21.38 1 21.6 1 21.88C1 22.16 1.22 22.38 1.5 22.38H22.19C22.47 22.38 22.69 22.16 22.69 21.88C22.69 21.6 22.47 21.38 22.19 21.38Z" fill="#002341"/>
<path d="M20.91 9.24L19.45 14.67H14.79C14.66 14.67 14.53 14.72 14.44 14.81C14.35 14.9 14.29 15.03 14.29 15.16V20.09C14.29 20.37 14.51 20.59 14.79 20.59C15.07 20.59 15.29 20.37 15.29 20.09V15.66H19.22V20.09C19.22 20.37 19.44 20.59 19.72 20.59C20 20.59 20.22 20.37 20.22 20.09V15.64L21.88 9.5C21.95 9.23 21.79 8.96 21.53 8.89C21.27 8.82 20.99 8.98 20.92 9.24H20.91Z" fill="#002341"/>
</svg>
