<svg width="24" height="24" viewBox="0 0 24 24" fill="none" xmlns="http://www.w3.org/2000/svg">
<g clip-path="url(#clip0_8798_36134)">
<path d="M6.4743 13.4961C8.32213 13.2483 9.75 11.665 9.75 9.75C7.83498 9.75 6.25172 11.1779 6.00395 13.0257C5.96615 13.2945 6.20553 13.5338 6.4743 13.4961Z" fill="#1C3553"/>
<path d="M5.5257 13.4961C3.67787 13.2483 2.25 11.665 2.25 9.75C4.16502 9.75 5.74828 11.1779 5.99605 13.0257C6.03385 13.2945 5.79447 13.5338 5.5257 13.4961Z" fill="#1C3553"/>
<path d="M5.5431 12.8208C3.98883 10.7852 4.13977 7.86021 6 5.99997C7.86023 7.86021 8.01117 10.7852 6.4569 12.8208C6.23253 13.1186 5.76747 13.1186 5.5431 12.8208Z" fill="#1C3553"/>
<rect x="1" y="12.25" width="10" height="1.25" fill="#1C3553"/>
<path d="M1.2795 15.9728C1.1364 15.3467 1.61213 14.75 2.25436 14.75H9.74564C10.3879 14.75 10.8636 15.3467 10.7205 15.9728L9.74907 20.2228C9.64513 20.6775 9.24065 21 8.77421 21H3.22579C2.75935 21 2.35487 20.6775 2.25093 20.2228L1.2795 15.9728Z" fill="#1C3553"/>
<rect x="1" y="20" width="24" height="2" rx="1" fill="#1C3553"/>
<rect x="15" y="11" width="24" height="2" rx="1" fill="#1C3553"/>
<path d="M12.7958 3.22502H12.9487L12.9888 3.07754C13.2425 2.1452 14.049 1.47502 15 1.47502C16.1471 1.47502 17.0917 2.45242 17.0917 3.68127V3.90002V4.10002H17.2917H17.9167C18.4888 4.10002 18.9667 4.58742 18.9667 5.21252C18.9667 5.83763 18.4888 6.32502 17.9167 6.32502H12.5C11.6987 6.32502 11.0333 5.64075 11.0333 4.77502C11.0333 3.9093 11.6987 3.22502 12.5 3.22502H12.7958ZM20.2 5.21252C20.2 4.01247 19.3486 3.01814 18.2284 2.85927C17.8769 1.3369 16.5715 0.200024 15 0.200024C13.7503 0.200024 12.6659 0.923159 12.0992 1.98308C10.7901 2.18505 9.8 3.36661 9.8 4.77502C9.8 6.3243 11.0013 7.60002 12.5 7.60002H17.9167C19.1862 7.60002 20.2 6.52117 20.2 5.21252Z" fill="#1C3553" stroke="#1C3553" stroke-width="0.4"/>
<rect x="16" y="12" width="8" height="9" fill="#1C3553"/>
</g>
<defs>
<clipPath id="clip0_8798_36134">
<rect width="24" height="24" fill="white"/>
</clipPath>
</defs>
</svg>
