<svg width="24" height="24" viewBox="0 0 24 24" fill="none" xmlns="http://www.w3.org/2000/svg">
<path d="M18 4L19.82 7.64C19.9 7.8 19.78 8 19.6 8H17.62C17.24 8 16.89 7.79 16.73 7.45L15 4H13L14.82 7.64C14.9 7.8 14.78 8 14.6 8H12.62C12.24 8 11.89 7.79 11.73 7.45L10 4H8L9.82 7.64C9.9 7.8 9.78 8 9.6 8H7.62C7.24 8 6.89 7.79 6.72 7.45L5 4H4C2.9 4 2 4.9 2 6V18C2 19.1 2.9 20 4 20H20C21.1 20 22 19.1 22 18V5C22 4.45 21.55 4 21 4H18Z" fill="#1C3553"/>
</svg>
4999C21.3299 5 21.9999 5.67 21.9999 6.5C21.9999 7.33 21.3299 8 20.4999 8H18.9999V17C18.9999 18.84 17.3599 20.28 15.4599 19.95C14.2499 19.74 13.2599 18.75 13.0499 17.54C12.7199 15.64 14.1599 14 15.9999 14C16.3499 14 16.6899 14.06 16.9999 14.17V7C16.9999 5.9 17.8999 5 18.9999 5Z" fill="#1C3553"/>
</svg>
