<svg width="24" height="24" viewBox="0 0 24 24" fill="none" xmlns="http://www.w3.org/2000/svg">
<path d="M18.66 5H5.67C4.2 5 3 6.2 3 7.67V16.33C3 17.8 4.2 19 5.67 19H18.66C19.65 19 20.45 18.2 20.45 17.21V6.79C20.45 5.8 19.65 5 18.66 5ZM19.45 17.2C19.45 17.63 19.1 17.99 18.66 17.99H5.67C4.75 17.99 4 17.24 4 16.32V7.67C4 6.75 4.75 6 5.67 6H6.76L8.48 8.98H10.21L8.49 6H10.5L12.22 8.98H13.95L12.23 6H14.24L15.96 8.98H17.69L15.97 6H18.65C19.08 6 19.44 6.35 19.44 6.79V17.21L19.45 17.2Z" fill="#002341"/>
</svg>
