<svg width="24" height="24" viewBox="0 0 24 24" fill="none" xmlns="http://www.w3.org/2000/svg">
<path d="M21.4798 10.64L21.4198 10.28L21.0598 10.22C19.4698 9.98 17.4798 10.67 15.7098 12.02C15.6798 8.66 14.4698 5.61 12.6098 4.22L12.3098 4L12.0098 4.22C10.1298 5.62 8.91981 8.7 8.90981 12.09C7.11981 10.7 5.07981 9.97 3.46981 10.22L3.10981 10.28L3.04981 10.64C2.74981 12.6 3.84981 15.16 5.85981 17.17C7.64981 18.96 9.87981 20.03 11.7298 20.03C11.9098 20.03 12.0898 20.01 12.2598 19.99C12.4298 20.01 12.6098 20.03 12.7898 20.03C14.6398 20.03 16.8698 18.96 18.6598 17.17C20.6698 15.16 21.7698 12.6 21.4698 10.64H21.4798ZM9.93981 12.98C9.91981 12.7 9.90981 12.42 9.90981 12.13C9.90981 9.22 10.8398 6.58 12.3098 5.26C13.7798 6.58 14.7098 9.22 14.7098 12.13C14.7098 12.39 14.6998 12.64 14.6798 12.88C14.6298 12.93 14.5698 12.97 14.5198 13.02C13.5198 14.02 12.7398 15.16 12.2498 16.3C11.7598 15.16 10.9798 14.02 9.97981 13.02C9.96981 13.01 9.94981 12.99 9.93981 12.98C9.93981 12.98 9.93981 12.98 9.92981 12.97L9.93981 12.98ZM3.99981 11.17C5.49981 11.12 7.37981 11.97 8.96981 13.44L9.10981 13.58C9.14981 13.61 9.17981 13.64 9.23981 13.69C10.5898 15.04 11.4598 16.78 11.6998 18.51C11.6898 18.68 11.6798 18.85 11.6898 19.02C10.1098 19.02 8.16981 18.06 6.56981 16.46C4.91981 14.8 3.93981 12.78 3.99981 11.17ZM17.9598 16.46C16.3598 18.06 14.4098 19.01 12.8398 19.02C12.8398 18.87 12.8398 18.72 12.8398 18.56C12.9998 17.4 13.5498 15.45 15.3798 13.63C15.4298 13.59 15.4798 13.55 15.5298 13.51L15.6698 13.38V13.35C17.2398 11.94 19.0798 11.12 20.5398 11.17C20.5998 12.78 19.6298 14.8 17.9698 16.46H17.9598Z" fill="#002341"/>
</svg>
