<svg width="24" height="24" viewBox="0 0 24 24" fill="none" xmlns="http://www.w3.org/2000/svg">
<path d="M21.96 2.74L22.06 2.49L21.96 2.39C21.94 2.33 21.9 2.27 21.85 2.21C21.79 2.16 21.73 2.12 21.66 2.1L21.55 2L20.71 2.37C9.82 7.11 3.3 9.94 2.35 10.33C2.15 10.41 2.02 10.59 2 10.81L2.02 11.19L8.9 15.24L12.58 22.11C12.68 22.3 12.87 22.41 13.08 22.41C13.08 22.41 13.1 22.41 13.11 22.41L13.48 22.35L21.93 2.84L21.96 2.77C21.96 2.77 21.96 2.75 21.97 2.74H21.96ZM19.3 4.07L9.19 14.25L3.53 10.91C5.57 10.04 10.95 7.7 19.3 4.07ZM13.03 20.86L9.88 14.97L19.99 4.8L13.04 20.86H13.03Z" fill="#002341"/>
</svg>
