<svg width="24" height="24" viewBox="0 0 24 24" fill="none" xmlns="http://www.w3.org/2000/svg">
<path d="M5.9902 9.71C5.9002 9.81 5.7702 9.86 5.6402 9.86L5.6302 9.87C5.5002 9.87 5.3802 9.82 5.2802 9.72C5.0902 9.52 5.0902 9.21 5.2802 9.01L12.1202 2.15C12.2102 2.06 12.3402 2 12.4702 2C12.6002 2 12.7302 2.06 12.8202 2.15L19.6502 9C19.8502 9.2 19.8502 9.51 19.6502 9.71C19.4502 9.91 19.1402 9.91 18.9402 9.71L12.9702 3.71V16.37C12.9702 16.65 12.7502 16.87 12.4702 16.87C12.1902 16.87 11.9702 16.65 11.9702 16.37V3.71L5.9902 9.71Z" fill="#002341"/>
<path d="M21.93 16.13C21.93 15.85 22.15 15.63 22.43 15.63C22.71 15.63 22.93 15.85 22.93 16.13V20.73C22.93 21.01 22.71 21.23 22.43 21.23H2.5C2.22 21.23 2 21.01 2 20.73V16.13C2 15.85 2.22 15.63 2.5 15.63C2.78 15.63 3 15.85 3 16.13V20.23H21.93V16.13Z" fill="#002341"/>
</svg>
