<svg width="24" height="24" viewBox="0 0 24 24" fill="none" xmlns="http://www.w3.org/2000/svg">
<path d="M19.38 16.96V9.23C19.8 8.93 20.08 8.44 20.08 7.88V6H4.37V7.89C4.37 8.45 4.65 8.94 5.07 9.24V16.96H3V17.96H21.45V16.96H19.38ZM19.08 7.88C19.08 8.25 18.78 8.55 18.41 8.55H18.29C17.92 8.55 17.62 8.25 17.62 7.88V7H19.07V7.88H19.08ZM15.17 7H16.62V7.88C16.62 8.25 16.33 8.55 15.97 8.55H15.83C15.47 8.55 15.18 8.26 15.18 7.9V7.01L15.17 7ZM14.17 7V7.88C14.17 8.25 13.87 8.55 13.5 8.55H13.38C13.01 8.55 12.71 8.25 12.71 7.88V7H14.17ZM11.72 7V7.88C11.72 8.25 11.42 8.55 11.05 8.55H10.93C10.56 8.55 10.26 8.25 10.26 7.88V7H11.72ZM7.82 7H9.27V7.88C9.27 8.25 8.98 8.55 8.62 8.55H8.48C8.12 8.55 7.83 8.26 7.83 7.9V7.01L7.82 7ZM6.82 7.89C6.82 8.25 6.53 8.54 6.17 8.54H6.03C5.67 8.54 5.38 8.25 5.38 7.89V7H6.83V7.89H6.82ZM16.04 16.95H14.16V12.7H16.04V16.95ZM13.16 16.95H8.39V12.7H13.16V16.95ZM17.04 11.69H7.4V16.95H6.07V9.55H6.17C6.62 9.55 7.03 9.37 7.32 9.08C7.62 9.37 8.03 9.55 8.47 9.55H8.61C9.06 9.55 9.47 9.37 9.77 9.07C10.07 9.36 10.48 9.55 10.93 9.55H11.05C11.5 9.55 11.92 9.37 12.22 9.07C12.52 9.37 12.93 9.55 13.39 9.55H13.51C13.96 9.55 14.37 9.37 14.67 9.07C14.97 9.36 15.38 9.55 15.83 9.55H15.97C16.42 9.55 16.83 9.37 17.13 9.07C17.43 9.36 17.84 9.55 18.29 9.55H18.38V16.96H17.04V11.69Z" fill="#002341"/>
<path d="M5.37 7.89C5.37 8.25 5.66 8.54 6.02 8.54H6.16C6.52 8.54 6.81 8.25 6.81 7.89V7H5.36V7.89H5.37Z" fill="white"/>
<path d="M17.63 7.88C17.63 8.25 17.93 8.55 18.3 8.55H18.42C18.79 8.55 19.09 8.25 19.09 7.88V7H17.64V7.88H17.63Z" fill="white"/>
</svg>
