<svg width="24" height="24" viewBox="0 0 24 24" fill="none" xmlns="http://www.w3.org/2000/svg">
<path fill-rule="evenodd" clip-rule="evenodd" d="M7.95009 23H15.9759C17.0467 23 17.926 22.1208 17.926 21.0499V3.18349C17.926 2.11263 17.0467 1.2334 15.9759 1.2334H7.95009C6.87923 1.2334 6 2.11263 6 3.18349V21.0499C6 22.1208 6.86796 23 7.95009 23ZM7.12722 3.18349C7.12722 2.7326 7.4992 2.36062 7.95009 2.36062H15.9759C16.4268 2.36062 16.7988 2.7326 16.7988 3.18349V21.0499C16.7988 21.5008 16.4268 21.8728 15.9759 21.8728H7.95009C7.4992 21.8728 7.12722 21.5008 7.12722 21.0499V3.18349ZM10.9142 20.723H13.0897C13.4054 20.723 13.6533 20.4751 13.6533 20.1594C13.6533 19.8438 13.4054 19.5958 13.0897 19.5958H10.9142C10.5986 19.5958 10.3506 19.8438 10.3506 20.1594C10.3506 20.4751 10.5986 20.723 10.9142 20.723Z" fill="#002341"/>
</svg>
