<svg width="24" height="24" viewBox="0 0 24 24" fill="none" xmlns="http://www.w3.org/2000/svg">
<path fill-rule="evenodd" clip-rule="evenodd" d="M18.5199 7.84168H4.60651C4.26686 7.84168 4 7.57482 4 7.23517C4 6.89553 4.26686 6.62866 4.60651 6.62866H18.5199C18.8595 6.62866 19.1264 6.89553 19.1264 7.23517C19.1264 7.57482 18.8595 7.84168 18.5199 7.84168ZM14.6989 12.4149H4.60651C4.26686 12.4149 4 12.1481 4 11.8084C4 11.4688 4.26686 11.2019 4.60651 11.2019H14.6989C15.0385 11.2019 15.3054 11.4688 15.3054 11.8084C15.3054 12.1481 15.0385 12.4149 14.6989 12.4149ZM4.60651 17.0001H10.4169C10.7565 17.0001 11.0234 16.7333 11.0234 16.3936C11.0234 16.054 10.7565 15.7871 10.4169 15.7871H4.60651C4.26686 15.7871 4 16.054 4 16.3936C4 16.7333 4.26686 17.0001 4.60651 17.0001Z" fill="#002341"/>
</svg>
