<svg width="24" height="24" viewBox="0 0 24 24" fill="none" xmlns="http://www.w3.org/2000/svg">
<path d="M15.1463 9.58109C15.0017 7.34896 14.2151 5.16295 12.7595 3.34589C12.3888 2.8847 11.7107 2.8847 11.34 3.34589C9.84827 5.17218 9.01649 7.35819 8.83567 9.58109C9.99292 10.2083 11.0598 11.02 11.991 12.0069C12.9222 11.0292 13.9891 10.2175 15.1463 9.58109ZM9.26964 12.0254C9.14306 11.9331 8.99841 11.8501 8.86279 11.7579C8.99841 11.8593 9.14306 11.9331 9.26964 12.0254ZM15.074 11.7948C14.9565 11.8778 14.8299 11.9424 14.7123 12.0346C14.8299 11.9424 14.9565 11.8778 15.074 11.7948ZM11.991 14.9493C10.228 12.2098 7.3439 10.3098 4.00775 9.97771C3.42913 9.92237 2.94995 10.4112 3.0042 11.0015C3.41104 15.4289 6.30418 19.0999 10.2189 20.5296C10.7885 20.7417 11.3852 20.8985 12 21C12.6148 20.8893 13.2025 20.7325 13.7811 20.5296C17.6959 19.0999 20.589 15.4381 20.9959 11.0015C21.0501 10.4112 20.5619 9.92237 19.9923 9.97771C16.6381 10.3098 13.754 12.2098 11.991 14.9493Z" fill="#1C3553"/>
</svg>
