<svg width="24" height="24" viewBox="0 0 24 24" fill="none" xmlns="http://www.w3.org/2000/svg">
<path d="M20.14 13.52C20.14 13.52 20.14 12.32 19.77 11.13C19.69 10.87 19.41 10.72 19.14 10.8C18.88 10.88 18.73 11.16 18.81 11.43C19.13 12.46 19.14 13.51 19.14 13.52C19.14 14.79 18.81 16.04 18.19 17.15H19.31C19.84 16.02 20.14 14.79 20.14 13.52Z" fill="#002341"/>
<path d="M4.1 13.52C4.1 9.37003 7.47 6.00003 11.62 6.00003C13.09 6.00003 14.51 6.42003 15.74 7.23003C15.97 7.38003 16.28 7.32003 16.43 7.09003C16.58 6.86003 16.52 6.55003 16.29 6.40003C14.9 5.49003 13.29 5.01003 11.62 5.01003C6.92 5.00003 3.1 8.82003 3.1 13.52C3.1 14.78 3.39 16.02 3.93 17.15H5.05C4.44 16.04 4.1 14.8 4.1 13.52Z" fill="#002341"/>
<path d="M21.34 17.15H19.31H18.19H5.05H3.93H2V18.15H21.34V17.15Z" fill="#002341"/>
<path d="M9.83 13.6C9.8 13.82 9.82 14.05 9.88 14.27C9.94 14.49 10.04 14.69 10.18 14.87C10.32 15.05 10.49 15.2 10.69 15.31C10.89 15.42 11.1 15.49 11.33 15.52C11.78 15.58 12.24 15.45 12.6 15.17L18.31 8.53003L10.48 12.47C10.12 12.75 9.89 13.16 9.83 13.61V13.6Z" fill="#002341"/>
</svg>
