<svg width="24" height="24" viewBox="0 0 24 24" fill="none" xmlns="http://www.w3.org/2000/svg">
<path fill-rule="evenodd" clip-rule="evenodd" d="M12.23 5.5C11.95 5.5 11.73 5.28 11.73 5V2.5C11.73 2.22 11.95 2 12.23 2C12.51 2 12.73 2.22 12.73 2.5V5C12.73 5.28 12.51 5.5 12.23 5.5ZM12.23 17.73C9.2 17.73 6.73 15.26 6.73 12.23C6.73 9.2 9.2 6.73 12.23 6.73C15.26 6.73 17.73 9.2 17.73 12.23C17.73 15.26 15.26 17.73 12.23 17.73ZM12.23 7.73C9.75 7.73 7.73 9.75 7.73 12.23C7.73 14.71 9.75 16.73 12.23 16.73C14.71 16.73 16.73 14.71 16.73 12.23C16.73 9.75 14.71 7.73 12.23 7.73ZM11.73 21.95C11.73 22.23 11.95 22.45 12.23 22.45C12.51 22.45 12.73 22.23 12.73 21.95V19.45C12.73 19.17 12.51 18.95 12.23 18.95C11.95 18.95 11.73 19.17 11.73 19.45V21.95ZM21.95 12.73H19.45C19.17 12.73 18.95 12.51 18.95 12.23C18.95 11.95 19.17 11.73 19.45 11.73H21.95C22.23 11.73 22.45 11.95 22.45 12.23C22.45 12.51 22.23 12.73 21.95 12.73ZM2.5 12.73H5C5.28 12.73 5.5 12.51 5.5 12.23C5.5 11.95 5.28 11.73 5 11.73H2.5C2.22 11.73 2 11.95 2 12.23C2 12.51 2.22 12.73 2.5 12.73ZM19.1 19.6C18.97 19.6 18.84 19.55 18.75 19.45L16.98 17.68C16.78 17.48 16.78 17.17 16.98 16.97C17.18 16.77 17.49 16.77 17.69 16.97L19.46 18.74C19.66 18.94 19.66 19.25 19.46 19.45C19.36 19.55 19.23 19.6 19.11 19.6H19.1ZM6.77 7.47C6.86 7.57 6.99 7.62 7.12 7.62H7.13C7.25 7.62 7.38 7.57 7.48 7.47C7.68 7.27 7.68 6.96 7.48 6.76L5.71 4.99C5.51 4.79 5.2 4.79 5 4.99C4.8 5.19 4.8 5.5 5 5.7L6.77 7.47ZM17.33 7.62C17.2 7.62 17.07 7.57 16.98 7.47C16.78 7.27 16.78 6.96 16.98 6.76L18.75 4.99C18.95 4.79 19.26 4.79 19.46 4.99C19.66 5.19 19.66 5.5 19.46 5.7L17.69 7.47C17.59 7.57 17.46 7.62 17.34 7.62H17.33ZM5 19.45C5.09 19.55 5.22 19.6 5.35 19.6H5.36C5.48 19.6 5.61 19.55 5.71 19.45L7.48 17.68C7.68 17.48 7.68 17.17 7.48 16.97C7.28 16.77 6.97 16.77 6.77 16.97L5 18.74C4.8 18.94 4.8 19.25 5 19.45Z" fill="#002341"/>
</svg>
