<svg width="24" height="24" viewBox="0 0 24 24" fill="none" xmlns="http://www.w3.org/2000/svg">
<path fill-rule="evenodd" clip-rule="evenodd" d="M12 22C17.5228 22 22 17.5228 22 12C22 6.47715 17.5228 2 12 2C6.47715 2 2 6.47715 2 12C2 17.5228 6.47715 22 12 22ZM11.9 18C12.4523 18 12.9 17.5523 12.9 17C12.9 16.4477 12.4523 16 11.9 16C11.3477 16 10.9 16.4477 10.9 17C10.9 17.5523 11.3477 18 11.9 18ZM12.5 14.5C12.7209 14.5 12.8957 14.3194 12.9335 14.1017C13.0823 13.2453 13.7044 12.7017 14.3408 12.1455C15.11 11.4733 15.9 10.7829 15.9 9.5C15.9 7.29 14.11 5.5 11.9 5.5C9.82481 5.5 8.11995 7.07827 7.91967 9.10056C7.8979 9.3204 8.07909 9.5 8.3 9.5H9.5C9.72091 9.5 9.89584 9.31909 9.93992 9.10261C10.1255 8.19127 10.936 7.5 11.9 7.5C13 7.5 13.9 8.4 13.9 9.5C13.9 10.3792 13.3202 10.8236 12.6704 11.3217C11.9059 11.9077 11.0444 12.568 10.9163 14.0983C10.8978 14.3185 11.0791 14.5 11.3 14.5H12.5Z" fill="#1C3553"/>
</svg>
