<svg width="24" height="24" viewBox="0 0 24 24" fill="none" xmlns="http://www.w3.org/2000/svg">
<path d="M12 2C6.48 2 2 6.48 2 12C2 17.52 6.48 22 12 22C17.52 22 22 17.52 22 12C22 6.48 17.52 2 12 2ZM11.14 16.78C10.51 16.78 10.06 16.31 10.06 15.73C10.06 15.15 10.52 14.7 11.14 14.7C11.76 14.7 12.18 15.14 12.18 15.73C12.18 16.32 11.75 16.78 11.14 16.78ZM11.97 12.79H11.88V13.84H10.32V11.69H11.23C12.56 11.69 13.17 11.1 13.17 10.17C13.17 9.3 12.61 8.65 11.41 8.65C10.3 8.65 9.54 9.12 9.17 9.44V7.92C9.85 7.46 10.67 7.22 11.66 7.22C13.7 7.22 14.83 8.4 14.83 10.03C14.83 11.57 13.82 12.79 11.97 12.79Z" fill="#002341"/>
</svg>
