<svg width="24" height="24" viewBox="0 0 24 24" fill="none" xmlns="http://www.w3.org/2000/svg">
<path d="M22.2099 19.38H15.0599C14.7799 19.38 14.5599 19.6 14.5599 19.88C14.5599 20.16 14.7799 20.38 15.0599 20.38H22.2099C22.4899 20.38 22.7099 20.16 22.7099 19.88C22.7099 19.6 22.4899 19.38 22.2099 19.38Z" fill="#002341"/>
<path d="M16.3599 15.28L20.5399 13.76C20.8799 13.64 21.1399 13.39 21.2899 13.07C21.4399 12.75 21.4599 12.38 21.3299 12.05L18.8999 5.39C18.7799 5.06 18.5299 4.79 18.2099 4.64C17.8899 4.49 17.5199 4.47 17.1899 4.6L4.02988 9.37C3.69988 9.49 3.42988 9.74 3.27988 10.06C3.12987 10.38 3.10988 10.75 3.23988 11.08L3.82987 12.71L1.83987 12.02C1.29987 11.93 0.859875 12.45 1.04988 12.96L2.77988 17.71C2.96988 18.22 3.63988 18.34 3.98988 17.92L5.06988 16.11L5.65987 17.74C5.85987 18.28 6.36987 18.62 6.91988 18.62C7.06988 18.62 7.21987 18.59 7.36987 18.54L11.5499 17.02C12.1399 18.15 13.4899 18.71 14.7199 18.26C15.9599 17.81 16.6299 16.52 16.3499 15.27L16.3599 15.28ZM7.02988 17.61C6.85988 17.67 6.65987 17.58 6.59987 17.41L4.17988 10.75C4.14988 10.67 4.14988 10.57 4.18988 10.49C4.22988 10.41 4.29988 10.35 4.37988 10.32L17.5399 5.52C17.5399 5.52 17.6199 5.5 17.6599 5.5C17.7099 5.5 17.7599 5.51 17.7999 5.53C17.8799 5.57 17.9399 5.64 17.9699 5.72L20.3999 12.38C20.4299 12.46 20.4299 12.56 20.3899 12.64C20.3499 12.72 20.2799 12.78 20.1999 12.81L7.02988 17.6V17.61Z" fill="#002341"/>
</svg>
