<svg width="30" height="24" viewBox="0 0 30 24" fill="none" xmlns="http://www.w3.org/2000/svg">
<path d="M5.42734 15.4274L6.63732 17.9083C6.82746 18.2981 7.302 18.4615 7.69184 18.2714L21.1369 11.8748C21.5267 11.6846 21.6901 11.2101 21.5 10.8202L18.0429 3.73216C17.8528 3.34231 17.3782 3.17892 16.9884 3.36906L3.54333 9.76565C3.15348 9.95579 2.99009 10.4303 3.18023 10.8202L4.39021 13.301L1.97536 12.4695C1.31101 12.2408 0.701071 12.9331 1.00875 13.5639L3.14178 17.9373C3.44946 18.5681 4.37054 18.5137 4.59929 17.8494L5.42734 15.4274Z" fill="#1C3553"/>
<circle cx="14.0265" cy="14.8882" r="2.36587" fill="#1C3553"/>
<path fill-rule="evenodd" clip-rule="evenodd" d="M14.2501 18.43C13.998 18.643 13.8428 18.9337 13.8428 19.2541C13.8428 19.7692 14.2441 20.2074 14.8042 20.3698V20.437H29.2212V18.0712H15.5973C15.1869 18.2741 14.7315 18.4001 14.2501 18.43Z" fill="#1C3553"/>
</svg>
