<svg width="24" height="24" viewBox="0 0 24 24" fill="none" xmlns="http://www.w3.org/2000/svg">
<path d="M22 12C22 10.0222 21.4135 8.08879 20.3147 6.4443C19.2159 4.79981 17.6541 3.51809 15.8268 2.76121C13.9996 2.00433 11.9889 1.8063 10.0491 2.19215C8.10929 2.578 6.32746 3.53041 4.92894 4.92894C3.53041 6.32746 2.578 8.10929 2.19215 10.0491C1.8063 11.9889 2.00433 13.9996 2.76121 15.8268C3.51809 17.6541 4.79981 19.2159 6.4443 20.3147C8.08879 21.4135 10.0222 22 12 22C14.6522 22 17.1957 20.9464 19.0711 19.0711C20.9464 17.1957 22 14.6522 22 12ZM15 6.5L18.15 9.65C18.1969 9.69649 18.2341 9.75179 18.2594 9.81272C18.2848 9.87365 18.2979 9.939 18.2979 10.005C18.2979 10.071 18.2848 10.1364 18.2594 10.1973C18.2341 10.2582 18.1969 10.3135 18.15 10.36L15 13.5V11H11V9H15V6.5ZM9 17.5L5.85 14.35C5.80314 14.3035 5.76594 14.2482 5.74056 14.1873C5.71517 14.1264 5.70211 14.061 5.70211 13.995C5.70211 13.929 5.71517 13.8636 5.74056 13.8027C5.76594 13.7418 5.80314 13.6865 5.85 13.64L9 10.5V13H13V15H9V17.5Z" fill="#1C3553"/>
</svg>
