<svg width="24" height="24" viewBox="0 0 24 24" fill="none" xmlns="http://www.w3.org/2000/svg">
<path fill-rule="evenodd" clip-rule="evenodd" d="M12 22C6.48571 22 2 17.5143 2 12C2 6.48571 6.48571 2 12 2C17.5143 2 22 6.48571 22 12C22 17.5143 17.5143 22 12 22ZM12 2.95238C7.00952 2.95238 2.95238 7.00952 2.95238 12C2.95238 16.9905 7.00952 21.0476 12 21.0476C16.9905 21.0476 21.0476 16.9905 21.0476 12C21.0476 7.00952 16.9905 2.95238 12 2.95238ZM16.2096 14.419H8.83813L9.91432 13.2095C10.0858 13.0095 10.0667 12.7142 9.87623 12.5333C9.67623 12.3619 9.38099 12.3714 9.20004 12.5714L7.40956 14.5904C7.25718 14.7619 7.24765 15.0285 7.39051 15.2095L9.05718 17.2857C9.15242 17.4 9.28575 17.4666 9.42861 17.4666C9.53337 17.4666 9.63813 17.4285 9.72385 17.3619C9.92385 17.2 9.96194 16.8952 9.80004 16.6952L8.74289 15.3809H16.2C16.4667 15.3809 16.6762 15.1714 16.6762 14.9047C16.6762 14.638 16.4667 14.4285 16.2 14.4285L16.2096 14.419ZM14.8002 6.69518L16.5906 8.71423L16.5811 8.7047C16.743 8.88565 16.743 9.1428 16.6002 9.32375L14.9335 11.3999C14.8383 11.5237 14.7049 11.5809 14.5621 11.5809C14.4573 11.5809 14.3525 11.5428 14.2668 11.4761C14.0573 11.3142 14.0287 11.019 14.1906 10.8095L15.2478 9.49518H7.79064C7.52398 9.49518 7.31445 9.28565 7.31445 9.01899C7.31445 8.75232 7.52398 8.5428 7.79064 8.5428H15.1621L14.0859 7.33327C13.9049 7.13327 13.924 6.82851 14.124 6.65708C14.324 6.47613 14.6287 6.49518 14.8002 6.69518Z" fill="#002341"/>
</svg>
