<svg width="24" height="24" viewBox="0 0 24 24" fill="none" xmlns="http://www.w3.org/2000/svg">
<path fill-rule="evenodd" clip-rule="evenodd" d="M3.51988 5.52893H5.68257C5.9737 5.52893 6.20245 5.75768 6.20245 6.04881V8.2115C6.20245 8.50263 5.9737 8.73138 5.68257 8.73138H3.51988C3.22875 8.73138 3 8.50263 3 8.2115V6.04881C3 5.75768 3.22875 5.52893 3.51988 5.52893ZM4.03976 7.69162H5.16269V6.56869H4.03976V7.69162Z" fill="#002341"/>
<path fill-rule="evenodd" clip-rule="evenodd" d="M8.18882 5.52893H19.4806C19.7717 5.52893 20.0004 5.75768 20.0004 6.04881V8.2115C20.0004 8.50263 19.7717 8.73138 19.4806 8.73138H8.18882C7.89769 8.73138 7.66895 8.50263 7.66895 8.2115V6.04881C7.66895 5.75768 7.89769 5.52893 8.18882 5.52893ZM8.7087 7.69162H18.9607V6.56869H8.7087V7.69162Z" fill="#002341"/>
<path fill-rule="evenodd" clip-rule="evenodd" d="M19.4806 10.083H8.18882C7.89769 10.083 7.66895 10.3118 7.66895 10.6029V12.7656C7.66895 13.0567 7.89769 13.2855 8.18882 13.2855H19.4806C19.7717 13.2855 20.0004 13.0567 20.0004 12.7656V10.6029C20.0004 10.3118 19.7717 10.083 19.4806 10.083ZM18.9607 12.2457H8.7087V11.1228H18.9607V12.2457Z" fill="#002341"/>
<path fill-rule="evenodd" clip-rule="evenodd" d="M3.51988 10.083H5.68257C5.9737 10.083 6.20245 10.3118 6.20245 10.6029V12.7656C6.20245 13.0567 5.9737 13.2855 5.68257 13.2855H3.51988C3.22875 13.2855 3 13.0567 3 12.7656V10.6029C3 10.3118 3.22875 10.083 3.51988 10.083ZM4.03976 12.2457H5.16269V11.1228H4.03976V12.2457Z" fill="#002341"/>
<path fill-rule="evenodd" clip-rule="evenodd" d="M19.4806 14.6476H8.18882C7.89769 14.6476 7.66895 14.8763 7.66895 15.1675V17.3302C7.66895 17.6213 7.89769 17.85 8.18882 17.85H19.4806C19.7717 17.85 20.0004 17.6213 20.0004 17.3302V15.1675C20.0004 14.8763 19.7717 14.6476 19.4806 14.6476ZM18.9607 16.8103H8.7087V15.6873H18.9607V16.8103Z" fill="#002341"/>
<path fill-rule="evenodd" clip-rule="evenodd" d="M3.51988 14.6476H5.68257C5.9737 14.6476 6.20245 14.8763 6.20245 15.1675V17.3302C6.20245 17.6213 5.9737 17.85 5.68257 17.85H3.51988C3.22875 17.85 3 17.6213 3 17.3302V15.1675C3 14.8763 3.22875 14.6476 3.51988 14.6476ZM4.03976 16.8103H5.16269V15.6873H4.03976V16.8103Z" fill="#002341"/>
</svg>
