<svg width="24" height="24" viewBox="0 0 24 24" fill="none" xmlns="http://www.w3.org/2000/svg">
<path d="M19.8381 9.1139C20.2948 9.1139 20.4812 8.52674 20.1084 8.26578L13.0718 3.33552C12.4287 2.88816 11.5713 2.88816 10.9376 3.33552L3.89165 8.26578C3.51885 8.52674 3.70525 9.1139 4.16193 9.1139H11.068V20.2979C11.068 20.8105 11.4874 21.2299 12 21.2299C12.5126 21.2299 12.932 20.8105 12.932 20.2979V9.1139H19.8381Z" fill="#1C3553"/>
<path d="M8.27201 15.6379H5.38282L4.85158 12.8233C4.75838 12.32 4.27374 11.9845 3.76115 12.0777C3.25787 12.1709 2.92235 12.6555 3.01555 13.1681L3.61203 16.3276V20.2979C3.61203 20.8105 4.03143 21.2299 4.54402 21.2299H4.55334C5.06594 21.2299 5.48534 20.8198 5.48534 20.3072L5.49466 17.5019H7.34001V20.2979C7.34001 20.8105 7.75941 21.2299 8.27201 21.2299C8.78461 21.2299 9.20401 20.8105 9.20401 20.2979V16.5699C9.20401 16.0573 8.78461 15.6379 8.27201 15.6379Z" fill="#1C3553"/>
<path d="M20.2388 12.0777C19.7355 11.9845 19.2508 12.32 19.1483 12.8233L18.6171 15.6379H15.7279C15.2153 15.6379 14.7959 16.0573 14.7959 16.5699V20.2979C14.7959 20.8105 15.2153 21.2299 15.7279 21.2299C16.2405 21.2299 16.6599 20.8105 16.6599 20.2979V17.5019H18.5052L18.5239 20.3072C18.5239 20.8198 18.9433 21.2299 19.4559 21.2299C19.9685 21.2299 20.3879 20.8105 20.3879 20.2979V16.3276L20.9844 13.1681C21.0776 12.6648 20.742 12.1709 20.2388 12.0777Z" fill="#1C3553"/>
</svg>
