<svg width="24" height="24" viewBox="0 0 24 24" fill="none" xmlns="http://www.w3.org/2000/svg">
<path d="M21.02 13.33C21.02 12.85 20.84 12.39 20.53 12.03C20.69 11.94 20.84 11.83 20.97 11.7C21.36 11.31 21.57 10.8 21.57 10.26C21.57 9.72 21.36 9.2 20.97 8.82C20.58 8.44 20.07 8.22 19.53 8.22H14.72C14.95 7.45 15.29 6.13 15.28 5.13C15.25 3.42 14.32 2.29 12.72 2.02C12.09 1.91 11.49 2.34 11.38 2.96C11.2 3.98 10.85 5.82 10.69 6.48C10.06 9.17 8.26 10.31 7.3 10.75V9.54H3V10.54H6.3V20.38H3V21.38H7.3V20.07L8.82 20.84C9.77 21.32 10.84 21.57 11.9 21.57H18.02C19.15 21.57 20.06 20.64 20.06 19.52C20.06 19.02 19.87 18.57 19.57 18.22C19.74 18.13 19.9 18.02 20.04 17.88C20.43 17.49 20.64 16.98 20.64 16.44C20.64 15.92 20.44 15.44 20.09 15.06C20.21 14.98 20.32 14.89 20.42 14.79C20.81 14.4 21.02 13.89 21.02 13.35V13.33ZM19.33 17.16C19.13 17.36 18.87 17.47 18.59 17.47L17.12 17.49H16.84V18.49L18.01 18.48C18.58 18.48 19.05 18.95 19.05 19.52C19.05 20.1 18.58 20.56 18 20.56H11.89C10.98 20.56 10.07 20.35 9.26 19.94L7.29 18.95V11.83C8.26 11.47 10.83 10.21 11.66 6.71C11.82 6.03 12.18 4.16 12.36 3.13C12.38 3.04 12.47 2.98 12.55 3C13.67 3.19 14.25 3.91 14.27 5.14C14.29 6.45 13.56 8.54 13.56 8.56L13.33 9.23H19.53V9.22C19.81 9.22 20.07 9.33 20.26 9.52C20.46 9.72 20.57 9.98 20.57 10.26C20.57 10.54 20.46 10.8 20.27 11C20.07 11.2 19.81 11.31 19.53 11.31H19.06C19.06 11.31 19 11.31 18.97 11.31L17.12 11.33V12.33H19.02C19.28 12.34 19.52 12.44 19.71 12.63C19.91 12.83 20.02 13.09 20.02 13.37C20.02 13.65 19.91 13.91 19.72 14.11C19.52 14.31 19.26 14.42 18.99 14.42H16.92L16.91 15.42L18.61 15.44C18.89 15.44 19.15 15.55 19.34 15.74C19.54 15.94 19.65 16.2 19.65 16.48C19.65 16.76 19.54 17.02 19.35 17.22L19.33 17.16Z" fill="#002341"/>
</svg>
