<svg width="24" height="24" viewBox="0 0 24 24" fill="none" xmlns="http://www.w3.org/2000/svg">
<path fill-rule="evenodd" clip-rule="evenodd" d="M2.00049 12.1495C2.00049 17.7511 6.55942 22.31 12.1499 22.31V22.2989C17.7405 22.2989 22.2994 17.74 22.2994 12.1495C22.2994 6.55893 17.7405 2 12.1499 2C6.55942 2 2.00049 6.54784 2.00049 12.1495ZM3.10972 12.1495C3.10972 7.16901 7.1695 3.10923 12.1499 3.10923C17.1415 3.10923 21.1902 7.16901 21.1902 12.1495C21.1902 17.1299 17.1304 21.1897 12.1499 21.1897C7.1695 21.1897 3.10972 17.1299 3.10972 12.1495ZM12.7045 11.9055L15.9656 14.7229C16.1986 14.9337 16.2208 15.2775 16.0211 15.5105C15.9102 15.6325 15.7549 15.699 15.5996 15.699C15.4665 15.699 15.3334 15.6547 15.2336 15.5659L11.7838 12.5821C11.7728 12.571 11.7728 12.571 11.7728 12.571C11.7395 12.5377 11.7173 12.5045 11.6951 12.4712C11.6729 12.449 11.6507 12.4268 11.6396 12.3935C11.6286 12.3603 11.6175 12.327 11.6175 12.2937C11.6064 12.2604 11.5953 12.2272 11.5953 12.1828V12.1606V6.21513C11.5953 5.90454 11.8393 5.66051 12.1499 5.66051C12.4605 5.66051 12.7045 5.90454 12.7045 6.21513V11.9055Z" fill="#002341"/>
</svg>
