<svg width="24" height="24" viewBox="0 0 24 24" fill="none" xmlns="http://www.w3.org/2000/svg">
<path d="M21.2515 6.16376C21.1533 6.06554 20.9569 5.98915 20.8587 6.00006L18.0649 6.0328C17.7593 6.0328 17.5192 6.28381 17.5192 6.57847C17.5192 6.87312 17.7702 7.12413 18.0649 7.12413H19.4727L12.2263 14.2068L9.34517 10.8346C9.24695 10.7146 9.09417 10.6491 8.93047 10.6491C8.76677 10.6491 8.6249 10.7146 8.51576 10.8346L2.54621 17.7646C2.34977 17.9937 2.37159 18.343 2.60077 18.5394C2.69899 18.6267 2.82995 18.6704 2.96091 18.6704C3.1137 18.6704 3.26648 18.6049 3.37561 18.4848L8.94138 12.0351L11.7897 15.3636C11.888 15.4837 12.0298 15.5492 12.1826 15.5492C12.3572 15.5492 12.4773 15.4946 12.5864 15.3964L20.313 7.82258V9.30678C20.3021 9.61235 20.5422 9.85245 20.8478 9.85245C21.1424 9.85245 21.3934 9.61235 21.3934 9.30678L21.4152 6.53481C21.4152 6.39294 21.3607 6.25107 21.2515 6.14194V6.16376Z" fill="#002341"/>
</svg>
