<svg width="24" height="24" viewBox="0 0 24 24" fill="none" xmlns="http://www.w3.org/2000/svg">
<path d="M21.9784 15.3529C21.9784 15.0582 21.7274 14.8072 21.4327 14.8072C21.1271 14.8072 20.8871 15.0582 20.8871 15.3529V16.8371L13.1714 9.26327C13.0622 9.15414 12.9204 9.11049 12.7676 9.11049C12.6148 9.11049 12.4729 9.18688 12.3747 9.29601L9.52634 12.6246L3.96057 6.18573C3.76414 5.95655 3.41491 5.93473 3.18573 6.13117C2.95655 6.32761 2.93473 6.67683 3.13117 6.90601L9.11164 13.8359C9.22077 13.956 9.36264 14.0215 9.52634 14.0215C9.69004 14.0215 9.83191 13.956 9.94105 13.8359L12.8221 10.4637L20.0686 17.5683H18.6607V17.5574C18.3661 17.5574 18.1151 17.7975 18.1151 18.103C18.1151 18.4086 18.3552 18.6487 18.6607 18.6487L21.4545 18.6814C21.5964 18.6814 21.7383 18.6269 21.8365 18.5177C21.9456 18.4195 22.0002 18.2776 22.0002 18.1248L21.9784 15.3529Z" fill="#002341"/>
</svg>
