<svg width="24" height="24" viewBox="0 0 24 24" fill="none" xmlns="http://www.w3.org/2000/svg">
<path fill-rule="evenodd" clip-rule="evenodd" d="M11.5278 11.8558C11.5278 12.1788 11.7816 12.4325 12.1045 12.4325C12.4275 12.4325 12.6812 12.1788 12.6812 11.8558V2.68628C12.6812 2.36332 12.4275 2.10958 12.1045 2.10958C11.7816 2.10958 11.5278 2.36332 11.5278 2.68628V11.8558ZM2.10441 11.9942C2.10441 17.5074 6.59114 21.9942 12.1044 21.9942V21.9826C17.6177 21.9826 22.1044 17.4959 22.1044 11.9826C22.1044 8.61471 20.4204 5.48899 17.5946 3.63201C17.3293 3.459 16.9718 3.52821 16.7988 3.79349C16.6257 4.05877 16.695 4.41633 16.9602 4.58934C19.4631 6.2387 20.951 8.99534 20.951 11.9826C20.951 16.8615 16.9833 20.8292 12.1044 20.8292C7.22552 20.8292 3.25781 16.8615 3.25781 11.9826C3.25781 9.04147 4.7111 6.29637 7.15631 4.64701C7.41006 4.474 7.4908 4.11644 7.30625 3.85116C7.13324 3.58588 6.77569 3.52821 6.51041 3.70122C3.75377 5.56973 2.10441 8.67238 2.10441 11.9942Z" fill="#002341"/>
</svg>
