<svg width="24" height="24" viewBox="0 0 24 24" fill="none" xmlns="http://www.w3.org/2000/svg">
<path fill-rule="evenodd" clip-rule="evenodd" d="M12.0102 4.76996C14.0302 4.83996 15.9002 5.67996 17.2902 7.14996L17.2702 7.12996C18.6602 8.60996 19.3902 10.53 19.3302 12.55C19.2902 13.88 18.9002 15.18 18.2002 16.31C18.1102 16.47 17.9502 16.55 17.7802 16.55C17.6902 16.55 17.6002 16.52 17.5202 16.47C17.2902 16.32 17.2102 16.02 17.3602 15.78C17.9702 14.8 18.3102 13.68 18.3402 12.52C18.3902 10.77 17.7602 9.09996 16.5502 7.81996C15.3402 6.53996 13.7102 5.80996 11.9602 5.75996L10.9102 5.72996L11.8602 6.70996C12.0502 6.90996 12.0502 7.22996 11.8502 7.41996C11.7502 7.50996 11.6302 7.55996 11.5002 7.55996C11.3702 7.55996 11.2402 7.50996 11.1402 7.40996L9.38023 5.58996C9.29023 5.48996 9.24023 5.35996 9.24023 5.22996V5.20996V5.18996C9.24023 5.00996 9.35023 4.85996 9.50023 4.77996L11.2702 3.12996C11.4802 2.93996 11.7902 2.93996 11.9802 3.14996C12.1702 3.35996 12.1602 3.66996 11.9602 3.85996L11.0202 4.73996L12.0102 4.76996ZM12.1998 17.4L13.9598 19.22L13.9698 19.23C14.0598 19.33 14.1098 19.46 14.1098 19.59V19.61V19.63C14.0998 19.83 13.9798 19.99 13.8098 20.07L12.0798 21.69C11.9898 21.78 11.8598 21.82 11.7398 21.82C11.5998 21.82 11.4698 21.77 11.3698 21.66C11.1798 21.45 11.1898 21.14 11.3898 20.95L12.3298 20.07L11.3398 20.04C7.16976 19.92 3.87976 16.42 3.99976 12.25C4.03976 10.91 4.42976 9.61004 5.13976 8.50004C5.28976 8.27004 5.59976 8.20004 5.82976 8.34004C6.05976 8.49004 6.13976 8.80004 5.98976 9.03004C5.37976 10 5.03976 11.13 5.00976 12.29C4.89976 15.91 7.75976 18.94 11.3798 19.05L12.4298 19.08L11.4798 18.1C11.2898 17.9 11.2898 17.58 11.4898 17.39C11.6898 17.2 12.0098 17.2 12.1998 17.4Z" fill="#002341"/>
</svg>
