<svg width="24" height="24" viewBox="0 0 24 24" fill="none" xmlns="http://www.w3.org/2000/svg">
<path fill-rule="evenodd" clip-rule="evenodd" d="M7.96151 8.05437C7.96151 10.2745 9.76964 12.0826 11.9898 12.0826C14.2099 12.0826 16.018 10.2745 16.018 8.05437C16.018 5.83426 14.2099 4.02612 11.9898 4.02612C9.76964 4.02612 7.96151 5.83426 7.96151 8.05437ZM9.1059 8.05437C9.1059 6.46367 10.3991 5.17051 11.9898 5.17051C13.5805 5.17051 14.8736 6.46367 14.8736 8.05437C14.8736 9.64507 13.5805 10.9382 11.9898 10.9382C10.3991 10.9382 9.1059 9.64507 9.1059 8.05437ZM3.99023 18.8917V19.4639H19.9888V18.8917C19.9888 15.6531 16.3954 13.021 11.9895 13.021C7.58362 13.021 3.99023 15.6531 3.99023 18.8917ZM12.001 14.1654C15.5028 14.1654 18.3981 15.985 18.8101 18.3195H5.19184C5.60382 15.985 8.49913 14.1654 12.001 14.1654Z" fill="#002341"/>
</svg>
