<svg width="24" height="24" viewBox="0 0 24 24" fill="none" xmlns="http://www.w3.org/2000/svg">
<path fill-rule="evenodd" clip-rule="evenodd" d="M2 12C2 6.4918 6.4918 2 12 2C17.5191 2 22 6.4918 22 12C22 17.5082 17.5082 22 12 22C6.4918 22 2 17.5082 2 12ZM20.9071 12C20.9071 7.0929 16.918 3.0929 12 3.0929C7.0929 3.0929 3.0929 7.0929 3.08197 12C3.08197 13.9344 3.70492 15.7158 4.7541 17.1803C5.71585 14.8525 8.71038 13.2131 12.0656 13.2131C15.4208 13.2131 18.306 14.8087 19.3224 17.0601C20.3169 15.6175 20.9071 13.8798 20.9071 12ZM5.60656 18.1967C7.22404 19.8689 9.49727 20.918 12 20.918V20.9071C14.5683 20.9071 16.8743 19.8142 18.5027 18.0656C17.9672 15.9126 15.3005 14.306 12.0656 14.306C8.8306 14.306 6.06557 16 5.60656 18.1967ZM15.9237 8.48091C15.9237 10.6011 14.1969 12.3279 12.0767 12.3279C9.9565 12.3279 8.22972 10.6011 8.22972 8.48091C8.22972 6.36069 9.9565 4.63392 12.0767 4.63392C14.1969 4.63392 15.9237 6.36069 15.9237 8.48091ZM14.8308 8.48091C14.8308 6.96179 13.5958 5.72681 12.0767 5.72681C10.5576 5.72681 9.32262 6.96179 9.32262 8.48091C9.32262 10 10.5576 11.235 12.0767 11.235C13.5958 11.235 14.8308 10 14.8308 8.48091Z" fill="#002341"/>
</svg>
