<svg width="24" height="24" viewBox="0 0 24 24" fill="none" xmlns="http://www.w3.org/2000/svg">
<path d="M21.8169 11.3905L22 11.0967L21.7864 10.8323C18.8362 7.21856 15.6216 5.3872 12.234 5.3872C12.1933 5.3872 12.1424 5.3872 12.1017 5.3872C10.4334 5.40679 8.9176 5.87687 7.59512 6.52323L4.96033 4.13365C4.75687 3.94757 4.43133 3.95737 4.23805 4.15323C4.04476 4.3491 4.05493 4.66249 4.25839 4.84856L6.64903 7.03249C3.9939 8.57984 2.32553 10.705 2.2238 10.8421L2 11.1359L2.2238 11.4297C5.3469 15.5331 8.64293 17.5995 12.0407 17.5995C12.1526 17.5995 12.2645 17.5995 12.3764 17.5995C14.0142 17.531 15.4893 16.9924 16.7609 16.2481L19.6195 18.8629C19.7213 18.951 19.8433 19 19.9654 19C20.0977 19 20.2299 18.951 20.3316 18.8433C20.5249 18.6474 20.5148 18.3341 20.3113 18.148L17.6256 15.6898C20.1689 13.927 21.7152 11.5472 21.8169 11.3905ZM12.3255 16.6104C9.28382 16.7279 6.2116 14.8966 3.27162 11.1457C3.82096 10.5091 5.33672 8.90302 7.43235 7.72782L9.10071 9.24579C8.58189 9.86277 8.26653 10.6365 8.26653 11.4885C8.26653 13.4765 9.94507 15.0924 12.0102 15.0924C12.9664 15.0924 13.8311 14.7399 14.4924 14.1621L15.9878 15.5234C14.8993 16.1207 13.6684 16.5419 12.3357 16.6006L12.3255 16.6104ZM14.3906 12.7322L10.586 9.25559C11.0031 9.01075 11.4812 8.86385 12.0102 8.86385C13.5158 8.86385 14.7365 10.0391 14.7365 11.4885C14.7365 11.939 14.6043 12.3601 14.3906 12.7322ZM13.7497 13.4961C13.2716 13.8781 12.6714 14.1131 12.0102 14.1131C10.5046 14.1131 9.28383 12.9379 9.28383 11.4885C9.28383 10.9009 9.49746 10.3622 9.83316 9.92154L13.7497 13.4961ZM16.8728 14.9945L15.1638 13.4276C15.5402 12.8693 15.764 12.2034 15.764 11.4885C15.764 9.50042 14.0855 7.88451 12.0203 7.88451C11.2065 7.88451 10.4537 8.13914 9.84334 8.57005L8.39878 7.24794C9.52798 6.73869 10.7894 6.38612 12.1322 6.36654C12.1729 6.36654 12.2035 6.36654 12.2442 6.36654C15.2248 6.36654 18.0936 7.98245 20.7691 11.1653C20.2808 11.8508 18.8871 13.6528 16.883 15.0043L16.8728 14.9945Z" fill="#002341"/>
</svg>
