<svg width="24" height="24" viewBox="0 0 24 24" fill="none" xmlns="http://www.w3.org/2000/svg">
<path fill-rule="evenodd" clip-rule="evenodd" d="M2.22 12.17C5.29 16.35 8.53 18.47 11.87 18.47L11.86 18.46H12.19C17.68 18.23 21.32 12.38 21.47 12.13L21.65 11.83L21.44 11.56C18.54 7.87 15.38 6 12.05 6H11.92C6.34 6.08 2.38 11.35 2.22 11.57L2 11.87L2.22 12.17ZM12.15 17.46C9.16 17.59 6.14 15.71 3.25 11.88C4.14 10.8 7.57 7.06 11.94 7C14.96 6.95 17.77 8.61 20.43 11.89C19.64 13.05 16.45 17.28 12.15 17.46ZM8.16 12.24C8.16 14.27 9.81 15.92 11.84 15.92C13.87 15.92 15.52 14.27 15.52 12.24C15.52 10.21 13.87 8.56 11.84 8.56C9.81 8.56 8.16 10.21 8.16 12.24ZM9.16 12.23C9.16 10.75 10.36 9.55 11.84 9.55C13.32 9.55 14.52 10.75 14.52 12.23C14.52 13.71 13.32 14.91 11.84 14.91C10.36 14.91 9.16 13.71 9.16 12.23Z" fill="#002341"/>
</svg>
