<svg width="24" height="24" viewBox="0 0 24 24" fill="none" xmlns="http://www.w3.org/2000/svg">
<path fill-rule="evenodd" clip-rule="evenodd" d="M8.08008 12.32C8.08008 14.39 9.76008 16.07 11.8301 16.07C13.9001 16.07 15.5801 14.39 15.5801 12.32V6.75C15.5801 4.68 13.8901 3 11.8301 3C9.77008 3 8.08008 4.68 8.08008 6.75V12.32ZM9.08008 6.75C9.08008 5.23 10.3101 4 11.8301 4C13.3501 4 14.5801 5.23 14.5801 6.75V12.32C14.5801 13.84 13.3501 15.07 11.8301 15.07C10.3101 15.07 9.08008 13.84 9.08008 12.32V6.75Z" fill="#002341"/>
<path d="M17.3 12.16C17.58 12.16 17.8 12.38 17.8 12.66H17.78C17.78 15.77 15.37 18.32 12.32 18.54V21.05H15.4V22.05H8.25V21.05H11.33V18.53C8.35 18.25 6 15.72 6 12.66C6 12.38 6.22 12.16 6.5 12.16C6.78 12.16 7 12.38 7 12.66C7 15.36 9.2 17.56 11.9 17.56C14.6 17.56 16.8 15.36 16.8 12.66C16.8 12.38 17.02 12.16 17.3 12.16Z" fill="#002341"/>
</svg>
