<svg width="24" height="25" viewBox="0 0 24 25" fill="none" xmlns="http://www.w3.org/2000/svg">
<path d="M17.28 4H6.75C5.79 4 5 4.79 5 5.75V19.68C5 20.65 5.79 21.43 6.75 21.43H17.28C18.25 21.43 19.03 20.64 19.03 19.68V5.75C19.03 4.78 18.24 4 17.28 4ZM18.03 19.69C18.03 20.11 17.69 20.44 17.28 20.44H6.75C6.33 20.44 6 20.1 6 19.69V5.75C6 5.33 6.34 5 6.75 5H17.28C17.7 5 18.03 5.34 18.03 5.75V19.69Z" fill="#002341"/>
<path d="M12.02 9.09C9.13 9.09 6.77 11.44 6.77 14.34C6.77 17.24 9.12 19.59 12.02 19.59C14.92 19.59 17.27 17.24 17.27 14.34C17.27 11.44 14.92 9.09 12.02 9.09ZM12.02 18.58C9.68 18.58 7.77 16.67 7.77 14.33C7.77 11.99 9.68 10.08 12.02 10.08C14.36 10.08 16.27 11.99 16.27 14.33C16.27 16.67 14.36 18.58 12.02 18.58Z" fill="#002341"/>
<path d="M9.59 16.77C10.93 18.11 13.1 18.11 14.44 16.77C15.78 15.43 15.78 13.26 14.44 11.92L9.59 16.77Z" fill="#002341"/>
<path d="M10.25 7.8C10.7305 7.8 11.12 7.41049 11.12 6.93C11.12 6.44951 10.7305 6.06 10.25 6.06C9.76951 6.06 9.38 6.44951 9.38 6.93C9.38 7.41049 9.76951 7.8 10.25 7.8Z" fill="#002341"/>
<path d="M7.81 7.8C8.29049 7.8 8.68 7.41049 8.68 6.93C8.68 6.44951 8.29049 6.06 7.81 6.06C7.32951 6.06 6.94 6.44951 6.94 6.93C6.94 7.41049 7.32951 7.8 7.81 7.8Z" fill="#002341"/>
</svg>
