<svg width="24" height="25" viewBox="0 0 24 25" fill="none" xmlns="http://www.w3.org/2000/svg">
<path d="M9.55 16.3829C9.35 16.5808 9.34 16.9271 9.57 17.1052C11.14 18.2927 13.4 18.174 14.83 16.7589C16.26 15.3438 16.38 13.1073 15.18 11.5537C15 11.3261 14.65 11.3261 14.45 11.5339L9.55 16.3829ZM18 2.09327L6 2.08337C4.89 2.08337 4 2.9641 4 4.06254V19.8959C4 20.9943 4.89 21.875 6 21.875H18C19.11 21.875 20 20.9943 20 19.8959V4.06254C20 2.9641 19.11 2.09327 18 2.09327ZM10 4.06254C10.55 4.06254 11 4.50785 11 5.05212C11 5.59639 10.55 6.04171 10 6.04171C9.45 6.04171 9 5.59639 9 5.05212C9 4.50785 9.45 4.06254 10 4.06254ZM7 4.06254C7.55 4.06254 8 4.50785 8 5.05212C8 5.59639 7.55 6.04171 7 6.04171C6.45 6.04171 6 5.59639 6 5.05212C6 4.50785 6.45 4.06254 7 4.06254ZM12 19.8959C8.69 19.8959 6 17.2339 6 13.9584C6 10.6829 8.69 8.02087 12 8.02087C15.31 8.02087 18 10.6829 18 13.9584C18 17.2339 15.31 19.8959 12 19.8959Z" fill="#1C3553"/>
</svg>
