<svg width="24" height="24" viewBox="0 0 24 24" fill="none" xmlns="http://www.w3.org/2000/svg">
<path d="M16.62 14.21C16.56 14.12 16.41 14.06 16.18 13.95C15.95 13.84 14.84 13.29 14.63 13.21C14.42 13.13 14.27 13.1 14.12 13.32C13.97 13.55 13.53 14.06 13.4 14.21C13.27 14.36 13.14 14.38 12.91 14.27C12.68 14.16 11.95 13.92 11.09 13.14C10.42 12.54 9.96 11.8 9.83 11.57C9.7 11.34 9.82 11.22 9.93 11.11C10.03 11.01 10.16 10.85 10.27 10.71C10.39 10.58 10.42 10.48 10.5 10.33C10.58 10.18 10.54 10.05 10.48 9.93C10.42 9.82 9.97 8.7 9.78 8.25C9.6 7.81 9.41 7.87 9.27 7.86H8.83C8.68 7.86 8.43 7.91 8.23 8.14C8.03 8.37 7.44 8.92 7.44 10.03C7.44 11.14 8.25 12.23 8.37 12.38C8.48 12.53 9.97 14.82 12.24 15.81C12.78 16.04 13.2 16.18 13.53 16.29C14.07 16.46 14.57 16.44 14.96 16.38C15.4 16.32 16.3 15.83 16.49 15.3C16.68 14.77 16.68 14.32 16.62 14.22V14.21Z" fill="#002341"/>
<path d="M12.04 20.1C10.55 20.1 9.29 19.75 7.85 18.92L4.36 19.84L5.29 16.43C4.39 14.93 4 13.61 4 12.04C4 7.61 7.61 4 12.05 4C14.2 4 16.22 4.84 17.74 6.36C19.26 7.88 20.09 9.9 20.09 12.05C20.09 16.49 16.48 20.1 12.04 20.1ZM8 17.85L8.18 17.96C9.55 18.77 10.67 19.1 12.04 19.1C15.92 19.1 19.09 15.94 19.09 12.05C19.09 10.17 18.36 8.4 17.03 7.06C15.7 5.73 13.93 4.99 12.05 4.99C8.17 4.99 5 8.15 5 12.03C5 13.47 5.36 14.64 6.26 16.07L6.38 16.26L5.79 18.42L8.01 17.84L8 17.85Z" fill="#002341"/>
</svg>
