<svg width="24" height="24" viewBox="0 0 24 24" fill="none" xmlns="http://www.w3.org/2000/svg">
<path d="M13 7C14.1046 7 15 6.10457 15 5C15 3.89543 14.1046 3 13 3C11.8954 3 11 3.89543 11 5C11 6.10457 11.8954 7 13 7Z" fill="#1C3553"/>
<path fill-rule="evenodd" clip-rule="evenodd" d="M17.9945 10.8978C18.406 10.9672 18.7145 11.3142 18.7145 11.7392C18.7145 12.2857 18.2174 12.6933 17.686 12.5806C16.486 12.3377 15.286 11.7219 14.4288 11.0019V13.9945H17.0002C17.9431 13.9945 18.7145 14.7751 18.7145 15.7293C18.7145 15.966 18.7036 16.263 18.6929 16.4952V19.6807C18.6929 20.3159 18.2226 20.8307 17.6424 20.8307C17.0622 20.8307 16.5919 20.3159 16.5919 19.6807V16.163H12.7145C11.7717 16.163 11.0002 15.3823 11.0002 14.4282V9.31047C11.0002 8.41704 11.626 7.61903 12.5002 7.51494C12.9031 7.46289 13.2545 7.54963 13.5717 7.73179H13.5802C13.5845 7.73179 13.5867 7.73396 13.5888 7.73613C13.591 7.73829 13.5931 7.74046 13.5974 7.74046C13.7945 7.83588 13.9745 7.96599 14.1202 8.13079L15.226 9.37118C15.9117 10.1345 16.9231 10.7157 17.9945 10.8978ZM12.7116 17.5304C12.3602 18.5366 11.4088 19.2652 10.2859 19.2652C8.86307 19.2652 7.71451 18.1029 7.71451 16.663C7.71451 15.5267 8.43451 14.5725 9.42879 14.2082V11.5019C7.47451 11.9009 5.36328 13.5 5.36328 16.663C5.36328 19.057 7.00024 21.663 10.149 21.663C12.2233 21.663 14.5002 20.5 15.0002 17.5L12.7116 17.5304Z" fill="#1C3553"/>
</svg>
