<svg width="24" height="24" viewBox="0 0 24 24" fill="none" xmlns="http://www.w3.org/2000/svg">
<path d="M13 7C14.1046 7 15 6.10457 15 5C15 3.89543 14.1046 3 13 3C11.8954 3 11 3.89543 11 5C11 6.10457 11.8954 7 13 7Z" fill="#1C3553"/>
<path fill-rule="evenodd" clip-rule="evenodd" d="M17.9943 10.8978C18.4057 10.9672 18.7143 11.3142 18.7143 11.7392C18.7143 12.2857 18.2171 12.6933 17.6857 12.5806C16.4857 12.3377 15.2857 11.7219 14.4286 11.0019V13.9945H17C17.9429 13.9945 18.7143 14.7751 18.7143 15.7293C18.7143 15.9097 18.7079 16.125 18.7002 16.32V19.6808C18.7002 20.3159 18.1406 20.8308 17.4502 20.8308C16.7598 20.8308 16.2002 20.3159 16.2002 19.6808V16.163H12.7143C11.7714 16.163 11 15.3823 11 14.4282V9.31047C11 8.41704 11.6257 7.61903 12.5 7.51494C12.9029 7.46289 13.2543 7.54963 13.5714 7.73179H13.58C13.5843 7.73179 13.5864 7.73396 13.5886 7.73613C13.5907 7.73829 13.5929 7.74046 13.5971 7.74046C13.7943 7.83588 13.9743 7.96599 14.12 8.13079L15.2257 9.37118C15.9114 10.1345 16.9229 10.7157 17.9943 10.8978Z" fill="#1C3553"/>
<path fill-rule="evenodd" clip-rule="evenodd" d="M10.2082 19.6402C11.2463 19.6402 12.1433 19.071 12.5844 18.2465C12.6822 18.0638 12.8622 17.9312 13.0693 17.9286L14.497 17.9106C14.8102 17.9067 15.0514 18.1901 14.9662 18.4916C14.2545 21.0087 12.0693 22 10.0662 22C6.79874 22 5.1001 19.4353 5.1001 17.0793C5.1001 14.2659 6.88955 12.7098 8.73097 12.1465C9.03149 12.0545 9.31878 12.2918 9.31878 12.6061V14.3078C9.31878 14.5207 9.18173 14.7063 8.99122 14.8013C8.13261 15.2294 7.53991 16.0832 7.53991 17.0793C7.53991 18.4963 8.73175 19.6402 10.2082 19.6402Z" fill="#1C3553"/>
</svg>
