<svg width="24" height="24" viewBox="0 0 24 24" fill="none" xmlns="http://www.w3.org/2000/svg">
<path d="M18.02 13.08H14.18C14.23 12.93 14.26 12.77 14.26 12.61V8.78C14.26 8.78 14.27 8.79 14.28 8.8C15.32 9.77 16.62 10.98 18.02 10.98C18.3 10.98 18.52 10.76 18.52 10.48C18.52 10.2 18.3 9.98 18.02 9.98C17.02 9.98 15.88 8.92 14.97 8.07C14.54 7.67 14.16 7.32 13.8 7.06C13.53 6.81 13.17 6.65 12.77 6.65C11.94 6.65 11.27 7.32 11.27 8.15V12.61C11.27 13.44 11.94 14.11 12.77 14.11C12.86 14.11 12.94 14.1 13.02 14.08H17.52V18.77C17.52 19.05 17.74 19.27 18.02 19.27C18.3 19.27 18.52 19.05 18.52 18.77V13.58C18.52 13.3 18.3 13.08 18.02 13.08Z" fill="#002341"/>
<path d="M12.77 6.12C13.63 6.12 14.33 5.42 14.33 4.56C14.33 3.7 13.63 3 12.77 3C11.91 3 11.21 3.7 11.21 4.56C11.21 5.42 11.91 6.12 12.77 6.12Z" fill="#002341"/>
<path d="M10.3 20.21C7.93 20.21 6 18.28 6 15.91C6 13.54 7.93 11.61 10.3 11.61V10.61C7.38 10.61 5 12.99 5 15.91C5 18.83 7.38 21.21 10.3 21.21C13.22 21.21 15.6 18.83 15.6 15.91H14.6C14.6 18.28 12.67 20.21 10.3 20.21Z" fill="#002341"/>
</svg>
