<svg width="24" height="24" viewBox="0 0 24 24" fill="none" xmlns="http://www.w3.org/2000/svg">
<path d="M20.53 9.72L12.59 5.06C12.45 4.98 12.29 4.98 12.15 5.06L4.21997 9.72C3.83997 9.94 3.99997 10.53 4.43997 10.53H5.47997V18.63C5.47997 18.91 5.69997 19.13 5.97997 19.13C6.25997 19.13 6.47997 18.91 6.47997 18.63V10.53H11.88V18.63C11.88 18.91 12.1 19.13 12.38 19.13C12.66 19.13 12.88 18.91 12.88 18.63V10.53H18.27V18.63C18.27 18.91 18.49 19.13 18.77 19.13C19.05 19.13 19.27 18.91 19.27 18.63V10.53H20.31C20.75 10.53 20.91 9.94 20.53 9.72Z" fill="#002341"/>
<path d="M9.99997 14.11H8.35997C8.07997 14.11 7.85997 14.33 7.85997 14.61C7.85997 14.89 8.07997 15.11 8.35997 15.11H9.99997C10.28 15.11 10.5 14.89 10.5 14.61C10.5 14.33 10.28 14.11 9.99997 14.11Z" fill="#002341"/>
</svg>
