<svg width="24" height="24" viewBox="0 0 24 24" fill="none" xmlns="http://www.w3.org/2000/svg">
<path d="M20.3666 5.40649H15.4339C15.2705 3.98002 14.6172 3 13.757 3H10.0002C9.13998 3 8.47575 3.98002 8.3233 5.40649H3.40143C2.49764 5.40649 1.76807 6.13606 1.76807 7.03985V17.7874C1.76807 18.6912 2.49764 19.4208 3.40143 19.4208H20.3666C21.2704 19.4208 22 18.6912 22 17.7874V7.03985C22 6.13606 21.2704 5.40649 20.3666 5.40649ZM10.0111 4.08891H13.7678C13.8985 4.08891 14.2252 4.55714 14.345 5.40649H9.43399C9.55377 4.55714 9.88044 4.08891 10.0111 4.08891ZM20.922 17.7874C20.922 18.0923 20.6824 18.3318 20.3775 18.3318H3.40143C3.09654 18.3318 2.85698 18.0923 2.85698 17.7874V7.03985C2.85698 6.73496 3.09654 6.4954 3.40143 6.4954H20.3666C20.6715 6.4954 20.9111 6.73496 20.9111 7.03985V17.7874H20.922Z" fill="#002341"/>
</svg>
