<svg width="96" height="96" viewBox="0 0 96 96" fill="none" xmlns="http://www.w3.org/2000/svg">
<path d="M28.54 46.8495H25.09C24.54 46.8495 24.09 47.2995 24.09 47.8495C24.09 48.3995 24.54 48.8495 25.09 48.8495H28.54C29.09 48.8495 29.54 48.3995 29.54 47.8495C29.54 47.2995 29.09 46.8495 28.54 46.8495Z" fill="#002341"/>
<path d="M75.59 65.6995V27.9995H51.59V65.6995H44.4V27.9995H20.41V65.6995H10V67.6995H86V65.6995H75.59ZM22.4 65.6995V29.9995H42.4V65.6995H22.4ZM53.59 65.6995V29.9995H73.59V65.6995H53.59Z" fill="#002341"/>
<path d="M59.72 46.8495H56.27C55.72 46.8495 55.27 47.2995 55.27 47.8495C55.27 48.3995 55.72 48.8495 56.27 48.8495H59.72C60.27 48.8495 60.72 48.3995 60.72 47.8495C60.72 47.2995 60.27 46.8495 59.72 46.8495Z" fill="#002341"/>
</svg>
