<svg width="96" height="96" viewBox="0 0 96 96" fill="none" xmlns="http://www.w3.org/2000/svg">
<path fill-rule="evenodd" clip-rule="evenodd" d="M58 72H66V62H58V72ZM60 64H64V70H60V64Z" fill="#002341"/>
<path fill-rule="evenodd" clip-rule="evenodd" d="M38 72H30V62H38V72ZM36 64H32V70H36V64Z" fill="#002341"/>
<path fill-rule="evenodd" clip-rule="evenodd" d="M58 52H66V42H58V52ZM60 44H64V50H60V44Z" fill="#002341"/>
<path fill-rule="evenodd" clip-rule="evenodd" d="M52 52H44V42H52V52ZM50 44H46V50H50V44Z" fill="#002341"/>
<path fill-rule="evenodd" clip-rule="evenodd" d="M30 52H38V42H30V52ZM32 44H36V50H32V44Z" fill="#002341"/>
<path d="M58 24H66V34H58V24Z" fill="#002341"/>
<path d="M52 24H44V34H52V24Z" fill="#002341"/>
<path d="M30 24H38V34H30V24Z" fill="#002341"/>
<path fill-rule="evenodd" clip-rule="evenodd" d="M74 80V22.36L66.27 11.28C65.71 10.48 64.79 10 63.81 10H32.2C31.22 10 30.3 10.48 29.74 11.28L22.01 22.36V80H12V82H84V80H74ZM52 80H44V64H52V80ZM54 80V62H42V80H24V22.99L31.37 12.43C31.56 12.16 31.86 12 32.19 12H63.8C64.13 12 64.43 12.16 64.62 12.43L71.99 22.99V80H54Z" fill="#002341"/>
</svg>
