<svg width="96" height="96" viewBox="0 0 96 96" fill="none" xmlns="http://www.w3.org/2000/svg">
<path d="M31.2 27.52H38.2V36.52H31.2V27.52Z" fill="#002341"/>
<path d="M51.46 27.52H44.46V36.52H51.46V27.52Z" fill="#002341"/>
<path d="M57.8 27.52H64.8V36.52H57.8V27.52Z" fill="#002341"/>
<path fill-rule="evenodd" clip-rule="evenodd" d="M57.8 73.78H64.8V64.78H57.8V73.78ZM59.8 66.78H62.8V71.78H59.8V66.78Z" fill="#002341"/>
<path fill-rule="evenodd" clip-rule="evenodd" d="M38.2 73.78H31.2V64.78H38.2V73.78ZM36.2 66.78H33.2V71.78H36.2V66.78Z" fill="#002341"/>
<path fill-rule="evenodd" clip-rule="evenodd" d="M31.2 57.15H38.2V48.15H31.2V57.15ZM33.2 50.15H36.2V55.15H33.2V50.15Z" fill="#002341"/>
<path fill-rule="evenodd" clip-rule="evenodd" d="M51.46 57.15H44.46V48.15H51.46V57.15ZM49.46 50.15H46.46V55.15H49.46V50.15Z" fill="#002341"/>
<path fill-rule="evenodd" clip-rule="evenodd" d="M57.8 57.15H64.8V48.15H57.8V57.15ZM59.8 50.15H62.8V55.15H59.8V50.15Z" fill="#002341"/>
<path fill-rule="evenodd" clip-rule="evenodd" d="M76.43 81.86V39.93L70.66 39.97V24.36L64.04 13.44C63.5 12.55 62.52 11.99 61.47 11.99H34.54C33.5 11.99 32.52 12.54 31.97 13.44L25.35 24.36V39.97L19.55 39.93V81.86H10V83.86H86V81.86H76.43ZM33.69 14.48C33.87 14.18 34.2 14 34.55 14H61.48C61.83 14 62.15 14.18 62.33 14.48L68.66 24.93V39.99H27.36V24.93L33.69 14.48ZM43.97 81.82V66.82H51.97V81.82H43.97ZM53.97 81.85V64.82H41.97V81.86H21.57V41.95L26.29 41.98H68.71L74.43 41.94V81.85H53.97Z" fill="#002341"/>
</svg>
