<svg width="96" height="96" viewBox="0 0 96 96" fill="none" xmlns="http://www.w3.org/2000/svg">
<path fill-rule="evenodd" clip-rule="evenodd" d="M31 66.1999H23V56.1999H31V66.1999ZM29 58.1999H25V64.1999H29V58.1999Z" fill="#002341"/>
<path fill-rule="evenodd" clip-rule="evenodd" d="M37 66.1999H44.9999V56.1999H37V66.1999ZM39 58.1999H42.9999V64.1999H39V58.1999Z" fill="#002341"/>
<path fill-rule="evenodd" clip-rule="evenodd" d="M58.9999 66.1999H50.9999V56.1999H58.9999V66.1999ZM56.9999 58.1999H52.9999V64.1999H56.9999V58.1999Z" fill="#002341"/>
<path d="M31 40.1999H23V50.1999H31V40.1999Z" fill="#002341"/>
<path d="M37 40.1999H44.9999V50.1999H37V40.1999Z" fill="#002341"/>
<path d="M58.9999 40.1999H50.9999V50.1999H58.9999V40.1999Z" fill="#002341"/>
<path d="M64.9999 40.1999H72.9999V50.1999H64.9999V40.1999Z" fill="#002341"/>
<path fill-rule="evenodd" clip-rule="evenodd" d="M80.9999 70.1999H86.9999V72.1999H8.99999V70.1999H15V30.1999H23.63L37.36 19.2199C37.66 18.9799 38.07 18.9299 38.42 19.0999C38.77 19.2699 38.99 19.6199 38.99 19.9999V29.1199L51.3699 19.2199C51.6699 18.9799 52.0799 18.9299 52.4299 19.0999C52.7799 19.2699 52.9999 19.6199 52.9999 19.9999V30.1999H80.9999V70.1999ZM40.8499 30.1999H50.9999V22.0799L40.8499 30.1999ZM37 30.1999V22.0799L26.85 30.1999H37ZM72.9999 58.1999H64.9999V70.1999H72.9999V58.1999ZM74.9999 56.1999V70.1999H78.9999V32.1999H17V70.1999H62.9999V56.1999H74.9999Z" fill="#002341"/>
</svg>
