<svg width="96" height="96" viewBox="0 0 96 96" fill="none" xmlns="http://www.w3.org/2000/svg">
<path d="M64.8 45.84H57.8V36.84H64.8V45.84ZM59.8 43.84H62.8V38.84H59.8V43.84Z" fill="#002341"/>
<path d="M38.2 45.84H31.2V36.84H38.2V45.84ZM33.2 43.84H36.2V38.84H33.2V43.84Z" fill="#002341"/>
<path d="M38.2 29.22H31.2V20.22H38.2V29.22ZM33.2 27.22H36.2V22.22H33.2V27.22Z" fill="#002341"/>
<path d="M51.46 29.22H44.46V20.22H51.46V29.22ZM46.46 27.22H49.46V22.22H46.46V27.22Z" fill="#002341"/>
<path d="M51.46 45.84H44.46V36.84H51.46V45.84ZM46.46 43.84H49.46V38.84H46.46V43.84Z" fill="#002341"/>
<path d="M64.8 29.22H57.8V20.22H64.8V29.22ZM59.8 27.22H62.8V22.22H59.8V27.22Z" fill="#002341"/>
<path d="M51.98 82.8H43.98V82.84H51.98V82.8Z" fill="#002341"/>
<path d="M76.43 61.14C78.14 60.23 79.31 58.43 79.31 56.35V50.89H76.43V12L69.71 12.05H26.3L19.57 12V50.9H16.69V56.41C16.69 58.47 17.87 60.24 19.57 61.14V82.85H10V84.85H86V82.85H76.43V61.14ZM77.31 56.36C77.31 58.25 75.78 59.78 73.89 59.78H72.63C70.74 59.78 69.21 58.25 69.21 56.36V52.9H77.31V56.36ZM21.57 14.01L26.29 14.04H69.71L74.43 14.01V50.89H21.57V14.01ZM59.11 52.89H67.21V56.4C67.21 58.26 65.7 59.77 63.84 59.77H62.48C60.62 59.77 59.11 58.26 59.11 56.4V52.89ZM49.01 52.89H57.11V56.35C57.11 58.24 55.58 59.77 53.69 59.77H52.43C50.54 59.77 49.01 58.24 49.01 56.35V52.89ZM47.01 56.35C47.01 58.24 45.48 59.77 43.59 59.77H42.33C40.44 59.77 38.91 58.24 38.91 56.35V52.89H47.01V56.35ZM36.91 56.4C36.91 58.26 35.4 59.77 33.54 59.77H32.18C30.32 59.77 28.81 58.26 28.81 56.4V52.89H36.91V56.4ZM18.7 52.89H26.8V56.4C26.8 58.26 25.29 59.77 23.43 59.77H22.07C20.21 59.77 18.7 58.26 18.7 56.4V52.89ZM41.99 82.79H33.99V67.79H41.99V82.79ZM51.99 82.83H43.99V67.79H51.99V82.83ZM61.99 82.79H53.99V67.79H61.99V82.79ZM63.99 82.83V65.79H31.98V82.83H21.57V61.72C21.73 61.74 21.89 61.77 22.06 61.77H23.42C25.23 61.77 26.82 60.87 27.79 59.5C28.76 60.87 30.36 61.77 32.16 61.77H33.52C35.33 61.77 36.93 60.86 37.9 59.49C38.88 60.87 40.49 61.77 42.31 61.77H43.57C45.39 61.77 47.01 60.86 47.99 59.48C48.97 60.87 50.59 61.77 52.41 61.77H53.67C55.49 61.77 57.1 60.87 58.08 59.49C59.05 60.87 60.65 61.77 62.46 61.77H63.82C65.63 61.77 67.23 60.86 68.2 59.49C69.18 60.87 70.79 61.77 72.61 61.77H73.87C74.05 61.77 74.23 61.77 74.41 61.74V82.83H63.95H63.99Z" fill="#002341"/>
</svg>
