<svg width="96" height="96" viewBox="0 0 96 96" fill="none" xmlns="http://www.w3.org/2000/svg">
<path fill-rule="evenodd" clip-rule="evenodd" d="M30 33H38V23H30V33ZM32 25H36V31H32V25Z" fill="#002341"/>
<path fill-rule="evenodd" clip-rule="evenodd" d="M44 23H52V33H44V23ZM46 31H50V25H46V31Z" fill="#002341"/>
<path fill-rule="evenodd" clip-rule="evenodd" d="M66 23H58V33H66V23ZM64 31H60V25H64V31Z" fill="#002341"/>
<path fill-rule="evenodd" clip-rule="evenodd" d="M38 49H30V39H38V49ZM36 41H32V47H36V41Z" fill="#002341"/>
<path fill-rule="evenodd" clip-rule="evenodd" d="M52 39H44V49H52V39ZM50 47H46V41H50V47Z" fill="#002341"/>
<path fill-rule="evenodd" clip-rule="evenodd" d="M58 39H66V49H58V39ZM60 47H64V41H60V47Z" fill="#002341"/>
<path fill-rule="evenodd" clip-rule="evenodd" d="M30 65H38V55H30V65ZM32 57H36V63H32V57Z" fill="#002341"/>
<path fill-rule="evenodd" clip-rule="evenodd" d="M58 55H66V65H58V55ZM60 63H64V57H60V63Z" fill="#002341"/>
<path fill-rule="evenodd" clip-rule="evenodd" d="M84 69H74V23.02L66.26 12.25C65.7 11.47 64.79 11 63.82 11H32.17C31.21 11 30.3 11.47 29.73 12.25L21.99 23.02V69H12V71H22V81H74V71H84V69ZM24 23.66L31.36 13.41C31.55 13.15 31.85 12.99 32.17 12.99H63.82C64.14 12.99 64.44 13.15 64.63 13.41L71.99 23.66V69H53.99V55H41.99V69H24V23.66ZM52 69H44V57H52V69ZM72 79H24V71H72V79Z" fill="#002341"/>
</svg>
