<svg width="96" height="96" viewBox="0 0 96 96" fill="none" xmlns="http://www.w3.org/2000/svg">
<path fill-rule="evenodd" clip-rule="evenodd" d="M41.68 32.67H34.68V23.67H41.68V32.67ZM39.68 25.67H36.68V30.67H39.68V25.67Z" fill="#002341"/>
<path fill-rule="evenodd" clip-rule="evenodd" d="M48.84 32.67H55.84V23.67H48.84V32.67ZM50.84 25.67H53.84V30.67H50.84V25.67Z" fill="#002341"/>
<path fill-rule="evenodd" clip-rule="evenodd" d="M41.68 51.82H34.68V42.82H41.68V51.82ZM39.68 44.82H36.68V49.82H39.68V44.82Z" fill="#002341"/>
<path fill-rule="evenodd" clip-rule="evenodd" d="M48.84 51.82H55.84V42.82H48.84V51.82ZM50.84 44.82H53.84V49.82H50.84V44.82Z" fill="#002341"/>
<path d="M48.42 62.92H55.42V71.92H48.42V62.92Z" fill="#002341"/>
<path fill-rule="evenodd" clip-rule="evenodd" d="M85.06 73.19V80H92V82H16V80H24.27V22.42L30.34 11.54C30.87 10.59 31.87 10 32.96 10H57.57C58.66 10 59.66 10.59 60.19 11.54L66.26 22.42V71.19H76.61V66.24H74.09C73.79 66.24 73.5 66.1 73.31 65.86C73.12 65.62 73.05 65.31 73.12 65.01L76.64 50.05C76.74 49.6 77.15 49.28 77.61 49.28C78.07 49.28 78.47 49.6 78.58 50.05L82.1 65.01C82.17 65.31 82.1 65.62 81.91 65.86C81.72 66.1 81.44 66.24 81.13 66.24H78.61V71.19H87.21C87.76 71.19 88.21 71.64 88.21 72.19C88.21 72.74 87.76 73.19 87.21 73.19H85.06ZM79.86 64.25L77.61 54.66H77.6L75.35 64.25H79.86ZM83.06 80V73.19H78.61V80H83.06ZM72.16 80H76.61V73.19H72.16V80ZM34.18 64.96V79.96H42.18V64.96H34.18ZM44.18 62.96V80H64.25V22.94L58.43 12.52C58.26 12.21 57.92 12.01 57.56 12.01H32.95C32.59 12.01 32.26 12.2 32.08 12.52L26.26 22.94V80H32.18V62.96H44.18ZM70.16 73.19H66.26V80H70.16V73.19Z" fill="#002341"/>
</svg>
