<svg width="96" height="96" viewBox="0 0 96 96" fill="none" xmlns="http://www.w3.org/2000/svg">
<path fill-rule="evenodd" clip-rule="evenodd" d="M42 52H54V68H42V52ZM44 66H52V54H44V66Z" fill="#002341"/>
<path fill-rule="evenodd" clip-rule="evenodd" d="M58 62H66V52H58V62ZM60 54H64V60H60V54Z" fill="#002341"/>
<path fill-rule="evenodd" clip-rule="evenodd" d="M30 52H38V62H30V52ZM32 60H36V54H32V60Z" fill="#002341"/>
<path d="M66 36H58V46H66V36Z" fill="#002341"/>
<path d="M44 36H52V46H44V36Z" fill="#002341"/>
<path d="M38 36H30V46H38V36Z" fill="#002341"/>
<path fill-rule="evenodd" clip-rule="evenodd" d="M66 32H58V22H66V32ZM64 24H60V30H64V24Z" fill="#002341"/>
<path fill-rule="evenodd" clip-rule="evenodd" d="M52 22H44V32H52V22ZM50 30H46V24H50V30Z" fill="#002341"/>
<path fill-rule="evenodd" clip-rule="evenodd" d="M30 22H38V32H30V22ZM32 30H36V24H32V30Z" fill="#002341"/>
<path d="M56 70H40V72H56V70Z" fill="#002341"/>
<path d="M36 75.54H60V77.54H36V75.54Z" fill="#002341"/>
<path fill-rule="evenodd" clip-rule="evenodd" d="M74 22.36V80H84V82H12V80H22.01V22.36L29.74 11.28C30.3 10.48 31.22 10 32.2 10H63.81C64.79 10 65.71 10.48 66.27 11.28L74 22.36ZM24 22.99V80H71.99V22.99L64.62 12.43C64.43 12.16 64.13 12 63.8 12H32.19C31.86 12 31.56 12.16 31.37 12.43L24 22.99Z" fill="#002341"/>
</svg>
