<svg width="96" height="96" viewBox="0 0 96 96" fill="none" xmlns="http://www.w3.org/2000/svg">
<path d="M67 52L66 68H53V62H41V56H29V52L20 50.5L48 22L75.5 50.5L67 52Z" fill="#8FC1FF"/>
<path fill-rule="evenodd" clip-rule="evenodd" d="M67.2891 82.2483C67.2891 83.3528 66.3936 84.2483 65.2891 84.2483H53.2891C52.1845 84.2483 51.2891 83.3528 51.2891 82.2483C51.2891 81.1437 52.1845 80.2483 53.2891 80.2483H65.2891C66.3936 80.2483 67.2891 81.1437 67.2891 82.2483Z" fill="#0F1D2E"/>
<path fill-rule="evenodd" clip-rule="evenodd" d="M55.2881 76.2483C55.2881 75.1437 54.3927 74.2483 53.2881 74.2483H41.2881C40.1835 74.2483 39.2881 75.1437 39.2881 76.2483C39.2881 77.3528 40.1835 78.2483 41.2881 78.2483H51.2881V82.2483C51.2881 83.3528 52.1835 84.2483 53.2881 84.2483C54.3927 84.2483 55.2881 83.3528 55.2881 82.2483V76.2483Z" fill="#0F1D2E"/>
<path fill-rule="evenodd" clip-rule="evenodd" d="M43.2905 70.2483C43.2905 69.1437 42.3951 68.2483 41.2905 68.2483H27.2905C26.186 68.2483 25.2905 69.1437 25.2905 70.2483C25.2905 71.3528 26.186 72.2483 27.2905 72.2483H39.2905V76.2483C39.2905 77.3528 40.186 78.2483 41.2905 78.2483C42.3951 78.2483 43.2905 77.3528 43.2905 76.2483V70.2483Z" fill="#0F1D2E"/>
<path fill-rule="evenodd" clip-rule="evenodd" d="M41.9777 34.8275C44.3357 32.3908 48.2429 32.3908 50.6009 34.8275L74.4451 59.4664C76.9013 62.0046 75.1028 66.2481 71.5707 66.2481H67.2887V82.248C67.2887 83.3526 66.3933 84.248 65.2887 84.248C64.1842 84.248 63.2887 83.3526 63.2887 82.248V65.2481C63.2887 63.5912 64.6319 62.2481 66.2887 62.2481L71.5707 62.2481L47.7265 37.6092C46.9405 36.7969 45.6381 36.7969 44.8521 37.6092L21.008 62.2481H26.2887C27.9456 62.2481 29.2887 63.5912 29.2887 65.2481V70.248C29.2887 71.3526 28.3933 72.248 27.2887 72.248C26.1842 72.248 25.2887 71.3526 25.2887 70.248V66.2481H21.008C17.4759 66.2481 15.6773 62.0046 18.1336 59.4664L41.9777 34.8275Z" fill="#0F1D2E"/>
<path d="M42.2891 56.2481C42.2891 55.1435 43.1845 54.2481 44.2891 54.2481H48.2891C49.3936 54.2481 50.2891 55.1435 50.2891 56.2481V60.2481C50.2891 61.3527 49.3936 62.2481 48.2891 62.2481H44.2891C43.1845 62.2481 42.2891 61.3527 42.2891 60.2481V56.2481Z" fill="#0F1D2E"/>
</svg>
