<svg width="96" height="96" viewBox="0 0 96 96" fill="none" xmlns="http://www.w3.org/2000/svg">
<path d="M73 68.89V34.32L49.53 21.75C48.07 20.75 45.92 20.75 44.46 21.75L21 34.32V68.88H11V70.88H83V68.88H73V68.89ZM23 35.52L45.46 23.48L45.57 23.41C46.36 22.85 47.64 22.85 48.43 23.41L69.82 34.88H45V42.88H37V48.88H29V56.88H23V35.52ZM23 68.89V58.89H31V50.89H39V44.89H47V36.89H71V68.89H23Z" fill="#002341"/>
<path d="M63.07 52.88L62.99 44.8L54.99 44.89L55.01 46.89L59.13 46.84L43.28 63.19L44.72 64.58L61.02 47.77L61.07 52.9L63.07 52.88Z" fill="#002341"/>
</svg>
