<svg width="96" height="96" viewBox="0 0 96 96" fill="none" xmlns="http://www.w3.org/2000/svg">
<path d="M67 52L66 68H53V62H41V56H29V52L20 50.5L48 22L75.5 50.5L67 52Z" fill="#8FC1FF"/>
<path fill-rule="evenodd" clip-rule="evenodd" d="M68.2891 69.2483C68.2891 70.3529 67.3936 71.2483 66.2891 71.2483H54.2891C53.1845 71.2483 52.2891 70.3529 52.2891 69.2483C52.2891 68.1437 53.1845 67.2483 54.2891 67.2483H66.2891C67.3936 67.2483 68.2891 68.1437 68.2891 69.2483Z" fill="#0F1D2E"/>
<path fill-rule="evenodd" clip-rule="evenodd" d="M56.2881 63.2483C56.2881 62.1437 55.3927 61.2483 54.2881 61.2483H42.2881C41.1835 61.2483 40.2881 62.1437 40.2881 63.2483C40.2881 64.3529 41.1835 65.2483 42.2881 65.2483H52.2881V69.2483C52.2881 70.3529 53.1835 71.2483 54.2881 71.2483C55.3927 71.2483 56.2881 70.3529 56.2881 69.2483V63.2483Z" fill="#0F1D2E"/>
<path fill-rule="evenodd" clip-rule="evenodd" d="M44.2905 57.2483C44.2905 56.1437 43.3951 55.2483 42.2905 55.2483H28.2905C27.186 55.2483 26.2905 56.1437 26.2905 57.2483C26.2905 58.3529 27.186 59.2483 28.2905 59.2483H40.2905V63.2483C40.2905 64.3529 41.186 65.2483 42.2905 65.2483C43.3951 65.2483 44.2905 64.3529 44.2905 63.2483V57.2483Z" fill="#0F1D2E"/>
<path fill-rule="evenodd" clip-rule="evenodd" d="M42.9777 21.8275C45.3357 19.3908 49.2429 19.3908 51.6009 21.8275L75.4451 46.4664C77.9013 49.0046 76.1028 53.2481 72.5707 53.2481H68.2887V69.248C68.2887 70.3526 67.3933 71.248 66.2887 71.248C65.1842 71.248 64.2887 70.3526 64.2887 69.248V52.2481C64.2887 50.5912 65.6319 49.2481 67.2887 49.2481L72.5707 49.2481L48.7265 24.6092C47.9405 23.7969 46.6381 23.7969 45.8521 24.6092L22.008 49.2481H27.2887C28.9456 49.2481 30.2887 50.5912 30.2887 52.2481V57.248C30.2887 58.3526 29.3933 59.248 28.2887 59.248C27.1842 59.248 26.2887 58.3526 26.2887 57.248V53.2481H22.008C18.4759 53.2481 16.6773 49.0046 19.1336 46.4664L42.9777 21.8275Z" fill="#0F1D2E"/>
<path d="M43.2891 43.2481C43.2891 42.1435 44.1845 41.2481 45.2891 41.2481H49.2891C50.3936 41.2481 51.2891 42.1435 51.2891 43.2481V47.2481C51.2891 48.3526 50.3936 49.2481 49.2891 49.2481H45.2891C44.1845 49.2481 43.2891 48.3526 43.2891 47.2481V43.2481Z" fill="#0F1D2E"/>
</svg>
