<svg width="96" height="96" viewBox="0 0 96 96" fill="none" xmlns="http://www.w3.org/2000/svg">
<path d="M81 54V52H54V20H24V52H15V54H18V64.18C16.84 64.59 16 65.69 16 67C16 68.31 16.84 69.4 18 69.82V78H78V69.82C79.16 69.41 80 68.31 80 67C80 65.69 79.16 64.6 78 64.18V54H81ZM52 22V52H40V46H44C44.55 46 45 45.55 45 45C45 44.45 44.55 44 44 44H40V22H52ZM26 22H38V52H26V22ZM20 76V69.82C21.16 69.41 22 68.31 22 67C22 65.69 21.16 64.6 20 64.18V54H30V64.18C28.84 64.59 28 65.69 28 67C28 68.31 28.84 69.4 30 69.82V76H20ZM32 76V69.82C33.16 69.41 34 68.31 34 67C34 65.69 33.16 64.6 32 64.18V54H40V64.18C38.84 64.59 38 65.69 38 67C38 68.31 38.84 69.4 40 69.82V76H32ZM42 76V69.82C43.16 69.41 44 68.31 44 67C44 65.69 43.16 64.6 42 64.18V54H52V64.18C50.84 64.59 50 65.69 50 67C50 68.31 50.84 69.4 52 69.82V76H42ZM54 76V69.82C55.16 69.41 56 68.31 56 67C56 65.69 55.16 64.6 54 64.18V54H64V64.18C62.84 64.59 62 65.69 62 67C62 68.31 62.84 69.4 64 69.82V76H54ZM76 64.18C74.84 64.59 74 65.69 74 67C74 68.31 74.84 69.4 76 69.82V76H66V69.82C67.16 69.41 68 68.31 68 67C68 65.69 67.16 64.6 66 64.18V54H76V64.18Z" fill="#002341"/>
</svg>
