<svg width="96" height="96" viewBox="0 0 96 96" fill="none" xmlns="http://www.w3.org/2000/svg">
<path d="M57.44 42.14C57.44 42.6481 57.0281 43.06 56.52 43.06C56.0119 43.06 55.6 42.6481 55.6 42.14C55.6 41.6319 56.0119 41.22 56.52 41.22C57.0281 41.22 57.44 41.6319 57.44 42.14Z" fill="#002341"/>
<path d="M61.21 43.06C61.7181 43.06 62.13 42.6481 62.13 42.14C62.13 41.6319 61.7181 41.22 61.21 41.22C60.7019 41.22 60.29 41.6319 60.29 42.14C60.29 42.6481 60.7019 43.06 61.21 43.06Z" fill="#002341"/>
<path d="M66.82 42.14C66.82 42.65 66.41 43.06 65.9 43.06C65.39 43.06 64.98 42.65 64.98 42.14C64.98 41.63 65.39 41.22 65.9 41.22C66.41 41.22 66.82 41.63 66.82 42.14Z" fill="#002341"/>
<path d="M56.52 47.5C57.03 47.5 57.44 47.09 57.44 46.58C57.44 46.07 57.03 45.66 56.52 45.66C56.01 45.66 55.6 46.07 55.6 46.58C55.6 47.09 56.01 47.5 56.52 47.5Z" fill="#002341"/>
<path d="M62.13 46.58C62.13 47.09 61.72 47.5 61.21 47.5C60.7 47.5 60.29 47.09 60.29 46.58C60.29 46.07 60.7 45.66 61.21 45.66C61.72 45.66 62.13 46.07 62.13 46.58Z" fill="#002341"/>
<path d="M65.9 47.5C66.41 47.5 66.82 47.09 66.82 46.58C66.82 46.07 66.41 45.66 65.9 45.66C65.39 45.66 64.98 46.07 64.98 46.58C64.98 47.09 65.39 47.5 65.9 47.5Z" fill="#002341"/>
<path d="M57.44 51.02C57.44 51.53 57.03 51.94 56.52 51.94C56.01 51.94 55.6 51.53 55.6 51.02C55.6 50.51 56.01 50.1 56.52 50.1C57.03 50.1 57.44 50.51 57.44 51.02Z" fill="#002341"/>
<path d="M61.21 51.94C61.72 51.94 62.13 51.53 62.13 51.02C62.13 50.51 61.72 50.1 61.21 50.1C60.7 50.1 60.29 50.51 60.29 51.02C60.29 51.53 60.7 51.94 61.21 51.94Z" fill="#002341"/>
<path d="M66.82 51.02C66.82 51.53 66.41 51.94 65.9 51.94C65.39 51.94 64.98 51.53 64.98 51.02C64.98 50.51 65.39 50.1 65.9 50.1C66.41 50.1 66.82 50.51 66.82 51.02Z" fill="#002341"/>
<path d="M56.52 56.38C57.0281 56.38 57.44 55.9681 57.44 55.46C57.44 54.9519 57.0281 54.54 56.52 54.54C56.0119 54.54 55.6 54.9519 55.6 55.46C55.6 55.9681 56.0119 56.38 56.52 56.38Z" fill="#002341"/>
<path d="M62.13 55.46C62.13 55.9681 61.7181 56.38 61.21 56.38C60.7019 56.38 60.29 55.9681 60.29 55.46C60.29 54.9519 60.7019 54.54 61.21 54.54C61.7181 54.54 62.13 54.9519 62.13 55.46Z" fill="#002341"/>
<path d="M65.9 56.38C66.41 56.38 66.82 55.97 66.82 55.46C66.82 54.95 66.41 54.54 65.9 54.54C65.39 54.54 64.98 54.95 64.98 55.46C64.98 55.97 65.39 56.38 65.9 56.38Z" fill="#002341"/>
<path fill-rule="evenodd" clip-rule="evenodd" d="M50.37 21H79.29C80.94 21 82.29 22.35 82.29 24V79.88H47.37V24C47.37 22.35 48.72 21 50.37 21ZM74.9 77.88H80.29V24C80.29 23.45 79.84 23 79.29 23H50.37C49.82 23 49.37 23.45 49.37 24V77.88H72.9V31.02C72.9 30.66 72.64 30.37 72.33 30.37H62.77C62.46 30.37 62.2 30.66 62.2 31.02V35.69H68.4V37.69H54.27V35.69H60.2V31.02C60.2 29.56 61.35 28.37 62.77 28.37H72.33C73.75 28.37 74.9 29.56 74.9 31.02V77.88Z" fill="#002341"/>
<path fill-rule="evenodd" clip-rule="evenodd" d="M38.59 51.19H40.93C42.35 51.19 43.5 52.34 43.5 53.76V70.46H38.01V79.88H27.55V73.58C23.16 73.41 19.72 72.12 17.34 69.73C14.06 66.45 14.04 62.32 14.04 62.15V61.72H14.01C14.0098 61.7168 14.0095 61.7132 14.0093 61.709C13.996 61.506 13.9095 60.1783 14.87 59.11C15.6 58.3 16.69 57.89 18.11 57.89H36.02V53.76C36.02 52.34 37.17 51.19 38.59 51.19ZM36.01 59.89H18.11V59.88C17.29 59.88 16.71 60.07 16.37 60.43C16.16 60.66 16.07 60.93 16.03 61.15L36.01 61.2V59.89ZM29.55 77.88H36.02V63.2L16.14 63.15C16.53 65.59 18.51 71.6 28.55 71.6H29.55V77.88ZM38.01 68.46H41.5V53.76C41.5 53.45 41.24 53.19 40.93 53.19H38.58C38.27 53.19 38.01 53.45 38.01 53.76V68.46Z" fill="#002341"/>
</svg>
