<svg width="96" height="96" viewBox="0 0 96 96" fill="none" xmlns="http://www.w3.org/2000/svg">
<path d="M24.4004 17.6L23.2104 16C23.0604 16.11 8.39045 27.29 14.4804 45.46L16.3804 44.83C10.7504 28.05 23.8404 18.02 24.4004 17.6Z" fill="#002341"/>
<path fill-rule="evenodd" clip-rule="evenodd" d="M73.7405 67.88C73.6605 65.71 72.1105 63.62 70.4705 61.41C68.8105 59.18 67.0905 56.86 67.0905 54.65C67.0905 54.1729 67.0983 53.6177 67.107 52.9982L67.1105 52.75C67.2005 47.46 67.3605 37.62 63.8704 31.43C60.8405 26.06 56.0104 24.28 54.1704 23.77C53.7704 21.26 52.0605 17.51 47.7205 17.51C43.3805 17.51 41.5604 21.27 41.0805 23.76C39.2504 24.26 34.3904 26.04 31.3504 31.43C27.8604 37.61 28.0204 47.46 28.1104 52.75L28.1139 52.9976C28.1226 53.6171 28.1304 54.1729 28.1304 54.65C28.1304 56.8694 26.4114 59.1787 24.7518 61.4082L24.7504 61.41L24.7217 61.4487C23.0923 63.6444 21.55 65.7227 21.4704 67.88L21.4304 68.92H38.9504C39.8604 69.99 43.2104 73.53 47.5905 73.53C51.9705 73.53 55.6505 69.93 56.5905 68.92H73.7505L73.7104 67.88H73.7405ZM47.6105 71.53C45.2104 71.53 43.1104 70.1 41.7804 68.92H53.6805C52.2405 70.1 50.0205 71.53 47.6105 71.53ZM26.2974 62.6987C25.1895 64.195 24.1321 65.6231 23.6972 66.9H71.5304C71.082 65.5946 69.998 64.1302 68.8623 62.5961L68.8504 62.58L68.8424 62.5691C66.9949 60.0825 65.0805 57.5058 65.0805 54.63C65.0805 54.133 65.0883 53.5651 65.0971 52.9334L65.1004 52.69C65.1904 47.59 65.3405 38.1 62.1204 32.39C58.8605 26.61 53.1405 25.54 53.0805 25.54L52.3105 25.41L52.2604 24.63L52.2591 24.6154C52.2269 24.2555 51.8006 19.49 47.7205 19.49C43.5704 19.49 42.9804 24.46 42.9604 24.67L42.8804 25.42L42.1404 25.55L42.1387 25.5503C42.0146 25.5746 36.319 26.688 33.1004 32.4C29.8912 38.091 30.0394 47.5368 30.1196 52.6489L30.1204 52.7L30.1242 52.9734C30.1328 53.601 30.1404 54.1588 30.1404 54.64C30.1404 57.5056 28.2397 60.0741 26.3983 62.5624L26.2974 62.6987Z" fill="#002341"/>
<path d="M23.4604 41.04C20.9318 31.1144 28.2151 24.7767 28.5859 24.454L28.5904 24.45L27.3004 22.92C26.944 23.2255 18.6616 30.3247 21.5104 41.53L23.4504 41.04H23.4604Z" fill="#002341"/>
<path d="M68.5663 22.9249L68.5704 22.92H68.5605L68.5663 22.9249Z" fill="#002341"/>
<path d="M68.5663 22.9249L67.2804 24.45L67.285 24.454C67.6558 24.7766 74.9391 31.1144 72.4105 41.04L74.3504 41.53C77.1865 30.375 69.0014 23.2897 68.5663 22.9249Z" fill="#002341"/>
<path d="M71.3904 17.6L72.5805 16C72.7305 16.11 87.4005 27.29 81.3204 45.45L79.4204 44.82C85.0504 28.01 71.5304 17.7 71.3904 17.6Z" fill="#002341"/>
</svg>
