<svg width="96" height="96" viewBox="0 0 96 96" fill="none" xmlns="http://www.w3.org/2000/svg">
<path fill-rule="evenodd" clip-rule="evenodd" d="M46.97 46.38H47.08C47.25 46.4 47.43 46.41 47.62 46.41H47.87C47.9213 46.41 47.97 46.4047 48.0173 46.3996C48.0623 46.3947 48.1062 46.39 48.15 46.39C53.58 46.17 57.93 41.7 57.93 36.22C57.93 30.74 53.36 26.03 47.74 26.03C42.12 26.03 37.55 30.6 37.55 36.22C37.55 41.84 41.71 45.97 46.97 46.37V46.38ZM48.92 38.28C49.07 38.53 49.33 38.71 49.62 38.75C50.15 38.84 50.86 38.76 51.47 38.41L51.65 38.88C51.91 39.62 51.95 40.44 51.76 41.24C51.64 41.77 51.43 42.33 51.09 42.84C50.93 42.27 50.62 41.71 50.15 41.23C48.62 39.67 48.72 38.56 48.73 38.47C48.8 38.07 48.62 37.66 48.27 37.44C47.91 37.22 47.45 37.25 47.12 37.51C44.32 39.77 44.09 42.42 44.09 42.47C44.09 42.4833 44.0878 42.5044 44.0848 42.5326C44.0789 42.5889 44.07 42.6733 44.07 42.78C43.475 41.7243 43.6444 40.4753 43.659 40.3674L43.66 40.36C43.79 39.65 44.06 38.98 44.5 38.32C44.7982 37.8682 45.1699 37.3673 45.5561 36.847L45.68 36.68C46.46 35.64 47.21 34.63 47.71 33.69C48.5 34.8 49.24 36.29 48.85 37.44C48.75 37.72 48.79 38.03 48.94 38.28H48.92ZM46.39 44.01C46.04 43.62 46.04 42.96 46.07 42.68C46.07 42.67 46.18 41.59 47.13 40.34C47.42 41.01 47.91 41.79 48.73 42.62C49.13 43.02 49.31 43.53 49.17 43.86C49.03 44.19 48.5 44.38 47.75 44.41C47.5292 44.41 47.3361 44.3916 47.1352 44.3724L47.11 44.37C46.8 44.31 46.56 44.19 46.4 44.01H46.39ZM47.74 28.03C52.26 28.03 55.93 31.7 55.93 36.22C55.93 38.42 55.05 40.41 53.64 41.89C53.65 41.855 53.66 41.8225 53.67 41.79C53.68 41.7575 53.69 41.725 53.7 41.69C53.97 40.52 53.92 39.32 53.52 38.19L52.67 35.99C52.51 35.57 52.08 35.3 51.65 35.35C51.31 35.38 51.02 35.58 50.86 35.87C50.42 33.42 48.32 31.25 48.02 30.95C47.73 30.66 47.3 30.58 46.92 30.74C46.55 30.9 46.31 31.27 46.31 31.68C46.32 32.42 44.96 34.26 44.05 35.48L43.996 35.5528C43.5557 36.1462 43.1366 36.7108 42.81 37.22C42.22 38.12 41.85 39.03 41.67 40C41.67 40.0072 41.6673 40.028 41.6631 40.0612C41.6377 40.2603 41.5557 40.9031 41.65 41.7C40.34 40.25 39.54 38.33 39.54 36.23C39.54 31.71 43.21 28.04 47.73 28.04L47.74 28.03Z" fill="#002341"/>
<path fill-rule="evenodd" clip-rule="evenodd" d="M36.9 58.98H58.36C58.91 58.98 59.36 59.43 59.36 59.98V65.32C59.36 65.87 58.91 66.32 58.36 66.32H36.9C36.35 66.32 35.9 65.87 35.9 65.32V59.98C35.9 59.43 36.35 58.98 36.9 58.98ZM37.9 64.32H57.36V60.98H37.9V64.32Z" fill="#002341"/>
<path fill-rule="evenodd" clip-rule="evenodd" d="M62.48 18H33C31.35 18 30 19.35 30 21V77.85H65.48V21C65.48 19.35 64.13 18 62.48 18ZM32 75.85V21C32 20.45 32.45 20 33 20H62.48C63.03 20 63.48 20.45 63.48 21V75.85H32Z" fill="#002341"/>
</svg>
