<svg width="96" height="96" viewBox="0 0 96 96" fill="none" xmlns="http://www.w3.org/2000/svg">
<path d="M30.7692 79.1177V78.7101C30.7692 76.8277 29.2665 75.2896 27.3846 75.2459C25.5028 75.2022 24 73.6641 24 71.7817V30.0395V30.0357V18C24 15.2386 26.2386 13 29 13H67C69.7614 13 72 15.2386 72 18V71.9399C72 73.8092 70.4847 75.3246 68.6154 75.3246C66.7461 75.3246 65.2308 76.8399 65.2308 78.7092V79.1623C65.2308 81.2818 63.5126 83 61.3931 83H34.6515C32.5074 83 30.7692 81.2618 30.7692 79.1177Z" fill="#8FC1FF"/>
<path d="M24 30.0357V71.7817C24 73.6641 25.5028 75.2022 27.3846 75.2459V75.2459C29.2665 75.2896 30.7692 76.8277 30.7692 78.7101V79.1177C30.7692 81.2618 32.5074 83 34.6515 83H61.3931C63.5126 83 65.2308 81.2818 65.2308 79.1623V78.7092C65.2308 76.8399 66.7461 75.3246 68.6154 75.3246V75.3246C70.4847 75.3246 72 73.8092 72 71.9399V18C72 15.2386 69.7614 13 67 13H29C26.2386 13 24 15.2386 24 18L24 30.0395" stroke="#1C3553" stroke-width="4" stroke-linecap="round"/>
<circle cx="48" cy="25" r="7" fill="white" stroke="#1C3553" stroke-width="4"/>
<path d="M48 25.2308L49.2308 24" stroke="#1C3553" stroke-width="4" stroke-linecap="round"/>
</svg>
