<svg width="96" height="96" viewBox="0 0 96 96" fill="none" xmlns="http://www.w3.org/2000/svg">
<path d="M29.3333 79.1211V78.9921C29.3333 76.954 27.7043 75.2896 25.6667 75.2459C23.629 75.2022 22 73.5379 22 71.4998V30.0395V30.0357V18C22 15.2386 24.2386 13 27 13H69C71.7614 13 74 15.2386 74 18V71.6579C74 73.6829 72.3584 75.3246 70.3333 75.3246C68.3083 75.3246 66.6667 76.9662 66.6667 78.9912V79.1623C66.6667 81.2818 64.9485 83 62.829 83H33.2122C31.07 83 29.3333 81.2634 29.3333 79.1211Z" fill="#8FC1FF"/>
<path d="M22 30.0357V71.4998C22 73.5379 23.629 75.2022 25.6667 75.2459V75.2459C27.7043 75.2896 29.3333 76.954 29.3333 78.9921V79.1211C29.3333 81.2634 31.07 83 33.2122 83H62.829C64.9485 83 66.6667 81.2818 66.6667 79.1623V78.9912C66.6667 76.9662 68.3083 75.3246 70.3333 75.3246V75.3246C72.3584 75.3246 74 73.6829 74 71.6579V18C74 15.2386 71.7614 13 69 13H27C24.2386 13 22 15.2386 22 18L22 30.0395" stroke="#1C3553" stroke-width="4" stroke-linecap="round"/>
<circle cx="48" cy="27" r="7" fill="white" stroke="#1C3553" stroke-width="4"/>
<path d="M48 27.2308L49.2308 26" stroke="#1C3553" stroke-width="4" stroke-linecap="round"/>
<circle cx="48" cy="57.5385" r="17" fill="white" stroke="#1C3553" stroke-width="4"/>
<path d="M40.2715 63.7103C39.5845 66.0129 40.2711 68.7432 41.5464 70.4537C42.8217 72.1642 44.9478 73.0195 47.4982 73.0195C49.9361 73.0195 51.3699 73.0195 53.2385 71.2725C53.4149 71.1076 53.5749 70.9236 53.7104 70.7238C54.8003 69.1167 55 67.5343 55 65.5195C55 63.995 54.6028 61.2164 52.3927 57.0904C52.1533 56.6434 51.5393 56.818 51.5996 57.3215C51.7604 58.663 52.0107 58.9921 51.5 60.0195C50.9949 61.0356 50.1277 61.6594 49.5068 61.9984C49.1813 62.1761 48.8332 61.8992 48.8711 61.5303C48.9706 60.5632 49.0717 58.9522 48.7735 58.0524C48.2068 56.3419 46.4251 53.9471 46 53.5195C45.7897 53.3079 45.6125 53.18 45.4686 53.1041C45.1954 52.9601 44.9666 53.1969 44.9105 53.5006C44.7903 54.1522 44.571 55.3582 44.3917 56.4405C44.2557 57.2614 43.9776 57.8822 42.822 59.3353C41.1216 61.4734 40.6764 62.3529 40.2715 63.7103Z" fill="#8FC1FF" stroke="#1C3553" stroke-width="4"/>
</svg>
