<svg width="96" height="96" viewBox="0 0 96 96" fill="none" xmlns="http://www.w3.org/2000/svg">
<path fill-rule="evenodd" clip-rule="evenodd" d="M29.3333 78.9921V79.1211C29.3333 81.2634 31.07 83 33.2122 83H62.829C64.9485 83 66.6667 81.2818 66.6667 79.1623V78.9912C66.6667 76.9662 68.3083 75.3246 70.3333 75.3246C72.3584 75.3246 74 73.6829 74 71.6579V18C74 15.2386 71.7614 13 69 13H27C24.2386 13 22 15.2386 22 18V30.0357V30.0395V71.4998C22 73.5379 23.629 75.2022 25.6667 75.2459C27.7043 75.2896 29.3333 76.954 29.3333 78.9921ZM55 27C55 30.866 51.866 34 48 34C44.134 34 41 30.866 41 27C41 23.134 44.134 20 48 20C51.866 20 55 23.134 55 27ZM48 74.5385C57.3888 74.5385 65 66.9273 65 57.5385C65 48.1496 57.3888 40.5385 48 40.5385C38.6112 40.5385 31 48.1496 31 57.5385C31 66.9273 38.6112 74.5385 48 74.5385ZM41.5464 70.4537C40.2711 68.7432 39.5845 66.0129 40.2715 63.7103C40.6764 62.3529 41.1216 61.4735 42.822 59.3353C43.9776 57.8823 44.2557 57.2614 44.3917 56.4406C44.571 55.3582 44.7903 54.1522 44.9105 53.5006C44.9666 53.1969 45.1954 52.9601 45.4686 53.1041C45.6125 53.18 45.7897 53.3079 46 53.5195C46.4251 53.9471 48.2068 56.3419 48.7735 58.0524C49.0717 58.9523 48.9706 60.5632 48.8711 61.5303C48.8332 61.8992 49.1813 62.1761 49.5068 61.9984C50.1277 61.6594 50.9949 61.0356 51.5 60.0195C51.8958 59.2233 51.8345 58.8465 51.7121 58.0928C51.6765 57.874 51.6358 57.6234 51.5996 57.3215C51.5393 56.818 52.1533 56.6434 52.3927 57.0904C54.6029 61.2164 55 63.9951 55 65.5195C55 67.5343 54.8003 69.1167 53.7104 70.7238C53.5749 70.9237 53.4149 71.1076 53.2385 71.2725C51.3699 73.0195 49.9361 73.0195 47.4982 73.0195C44.9478 73.0195 42.8217 72.1642 41.5464 70.4537Z" fill="#8FC1FF"/>
<path fill-rule="evenodd" clip-rule="evenodd" d="M20 18C20 14.134 23.134 11 27 11H69C72.866 11 76 14.134 76 18V71.6579C76 74.7875 73.4629 77.3246 70.3333 77.3246C69.4129 77.3246 68.6667 78.0708 68.6667 78.9912V79.1623C68.6667 82.3864 66.053 85 62.829 85H33.2122C29.9654 85 27.3333 82.3679 27.3333 79.1211V78.9921C27.3333 78.0418 26.5738 77.2658 25.6238 77.2455C22.4985 77.1784 20 74.6257 20 71.4998V18ZM27 15C25.3431 15 24 16.3431 24 18V71.4998C24 72.45 24.7595 73.226 25.7096 73.2464C28.8348 73.3134 31.3333 75.8661 31.3333 78.9921V79.1211C31.3333 80.1588 32.1745 81 33.2122 81H62.829C63.8439 81 64.6667 80.1772 64.6667 79.1623V78.9912C64.6667 75.8616 67.2037 73.3246 70.3333 73.3246C71.2538 73.3246 72 72.5784 72 71.6579V18C72 16.3431 70.6569 15 69 15H27Z" fill="#1C3553"/>
<path fill-rule="evenodd" clip-rule="evenodd" d="M48 22C45.2386 22 43 24.2386 43 27C43 29.7614 45.2386 32 48 32C50.7614 32 53 29.7614 53 27C53 24.2386 50.7614 22 48 22ZM39 27C39 22.0294 43.0294 18 48 18C52.9706 18 57 22.0294 57 27C57 31.9706 52.9706 36 48 36C43.0294 36 39 31.9706 39 27Z" fill="#1C3553"/>
<path fill-rule="evenodd" clip-rule="evenodd" d="M50.645 24.5858C51.426 25.3668 51.426 26.6332 50.645 27.4142L49.4142 28.645C48.6332 29.426 47.3668 29.426 46.5858 28.645C45.8047 27.8639 45.8047 26.5976 46.5858 25.8166L47.8166 24.5858C48.5976 23.8047 49.8639 23.8047 50.645 24.5858Z" fill="#1C3553"/>
<path fill-rule="evenodd" clip-rule="evenodd" d="M48 42.5385C39.7157 42.5385 33 49.2542 33 57.5385C33 65.8227 39.7157 72.5385 48 72.5385C56.2843 72.5385 63 65.8227 63 57.5385C63 49.2542 56.2843 42.5385 48 42.5385ZM29 57.5385C29 47.045 37.5066 38.5385 48 38.5385C58.4934 38.5385 67 47.045 67 57.5385C67 68.0319 58.4934 76.5385 48 76.5385C37.5066 76.5385 29 68.0319 29 57.5385Z" fill="#1C3553"/>
<path fill-rule="evenodd" clip-rule="evenodd" d="M46.2425 57.3465C45.9717 58.382 45.4382 59.259 44.3875 60.5801C42.7769 62.6053 42.4939 63.2571 42.1881 64.282C41.7056 65.8992 42.1994 67.9834 43.1499 69.2582C43.9403 70.3183 45.3749 71.0195 47.4982 71.0195C48.7819 71.0195 49.4911 71.0083 50.1087 70.8579C50.6236 70.7325 51.151 70.4863 51.8727 69.8115L53.2386 71.2725L51.8727 69.8115C51.9488 69.7405 52.0095 69.6687 52.0552 69.6012C52.8094 68.4892 53.0001 67.3928 53.0001 65.5195C53.0001 64.8552 52.9023 63.7572 52.4216 62.2037C51.7563 62.9645 51.0053 63.4589 50.4653 63.7538C49.5783 64.238 48.5647 64.1084 47.8454 63.5637C47.1587 63.0438 46.792 62.197 46.8817 61.3256C46.9277 60.8779 46.9711 60.3072 46.9715 59.7647C46.9719 59.171 46.9183 58.8119 46.8751 58.6814C46.7523 58.3108 46.5262 57.8446 46.2425 57.3465ZM50.0057 55.8927C50.312 55.4358 50.7728 55.0884 51.3297 54.9278C52.4284 54.611 53.599 55.1065 54.1558 56.146C56.5001 60.5224 57.0001 63.6229 57.0001 65.5195C57.0001 67.6757 56.7913 69.7442 55.3658 71.8463C55.1405 72.1785 54.8813 72.4747 54.6044 72.7335C53.4575 73.8057 52.3337 74.433 51.0551 74.7443C49.9217 75.0203 48.7412 75.0199 47.6238 75.0195C47.5819 75.0195 47.54 75.0195 47.4982 75.0195C44.5209 75.0195 41.7034 74.0101 39.9431 71.6491C38.343 69.5029 37.4636 66.1266 38.355 63.1385C38.8591 61.4488 39.4665 60.3416 41.2568 58.0904C41.8097 57.3951 42.0758 56.9926 42.2189 56.7204C42.3355 56.4985 42.3799 56.3477 42.4186 56.1136C42.601 55.0129 42.823 53.7925 42.9438 53.1377C43.0338 52.6503 43.288 52.0321 43.8542 51.5764C44.5405 51.024 45.5217 50.871 46.4015 51.335C46.7635 51.5258 47.1001 51.7892 47.4185 52.1095C47.7791 52.4722 48.4206 53.3176 49.0048 54.206C49.3293 54.6995 49.6875 55.2833 50.0057 55.8927Z" fill="#1C3553"/>
</svg>
