<svg width="96" height="96" viewBox="0 0 96 96" fill="none" xmlns="http://www.w3.org/2000/svg">
<path d="M33.0362 64.7431C33.1239 64.4428 33.2112 64.1436 33.31 63.8597L34.55 60.3797H36.47V68.1997H34.86V65.3297C34.86 64.7236 34.9553 63.8759 35.0346 63.172C35.0547 62.9932 35.0738 62.8236 35.09 62.6697H35.04L34.4 64.5297L33.28 67.5197H32.31L31.19 64.5297L30.57 62.6697H30.52L30.5287 62.7426C30.6187 63.492 30.75 64.5843 30.75 65.3297V68.1997H29.17V60.3797H31.1L32.36 63.8597C32.4484 64.1139 32.5307 64.3803 32.6136 64.6488L32.614 64.6499C32.681 64.8669 32.7485 65.0853 32.82 65.2997H32.87C32.9273 65.116 32.9819 64.9292 33.0362 64.7431Z" fill="#002341"/>
<path fill-rule="evenodd" clip-rule="evenodd" d="M41.0999 62.1097C39.5899 62.1097 38.2 63.2497 38.2 65.2297C38.2 67.2097 39.5899 68.3497 41.0999 68.3497C42.6099 68.3497 43.9899 67.2097 43.9899 65.2297C43.9899 63.2497 42.5999 62.1097 41.0999 62.1097ZM41.0999 66.9197C40.3699 66.9197 40.0099 66.2597 40.0099 65.2297C40.0099 64.1997 40.3699 63.5397 41.0999 63.5397C41.8299 63.5397 42.1899 64.1997 42.1899 65.2297C42.1899 66.2597 41.8199 66.9197 41.0999 66.9197Z" fill="#002341"/>
<path d="M47.1799 63.0097C47.6899 62.5297 48.2899 62.1097 49.0899 62.1097L49.0699 62.1197C50.3699 62.1197 50.9199 63.0297 50.9199 64.5197V68.2097H49.1599V64.7397C49.1599 63.8697 48.9299 63.6097 48.4299 63.6097C47.9899 63.6097 47.7099 63.8197 47.3299 64.1897V68.2097H45.5699V62.2597H47.0099L47.1299 63.0097H47.1799Z" fill="#002341"/>
<path fill-rule="evenodd" clip-rule="evenodd" d="M55.2799 62.1097C54.3399 62.1097 53.4899 62.4297 52.7399 62.8897L53.3799 64.0497C53.9599 63.7097 54.4499 63.5097 54.9499 63.5097C55.5999 63.5097 55.8499 63.8497 55.8899 64.3697C53.5399 64.6097 52.5399 65.2897 52.5399 66.5397C52.5399 67.5497 53.2199 68.3397 54.3099 68.3397C54.9799 68.3397 55.5299 68.0297 56.0399 67.5897H56.0899L56.2099 68.1997H57.6499V64.7897C57.6499 62.9697 56.8099 62.0997 55.2899 62.0997L55.2799 62.1097ZM55.8799 66.4797C55.5699 66.7897 55.2999 66.9797 54.9099 66.9797C54.4899 66.9797 54.2299 66.7997 54.2299 66.4197C54.2299 65.9597 54.6399 65.5997 55.8899 65.4397V66.4797H55.8799Z" fill="#002341"/>
<path d="M61.2899 66.0097C61.2899 66.6797 61.5899 66.9597 62.0599 66.9597L62.0699 66.9497C62.2599 66.9497 62.4699 66.8897 62.6299 66.8297L62.9099 68.1097C62.5999 68.2097 62.1699 68.3297 61.5899 68.3297C60.1199 68.3297 59.5399 67.4097 59.5399 66.0297V63.6197H58.7199V62.3097L59.6299 62.2397L59.8299 60.6597H61.2899V62.2397H62.7199V63.6197H61.2899V66.0097Z" fill="#002341"/>
<path fill-rule="evenodd" clip-rule="evenodd" d="M66.4999 62.1097C65.0699 62.1097 63.6899 63.2997 63.6899 65.2297C63.6899 67.1597 64.9999 68.3497 66.6999 68.3497C67.4099 68.3497 68.1999 68.0997 68.8099 67.6797L68.2199 66.6097C67.7899 66.8697 67.3799 67.0097 66.9399 67.0097C66.1499 67.0097 65.5499 66.6097 65.3899 65.7497H68.9499C68.9899 65.6097 69.0199 65.2797 69.0199 64.9697C69.0199 63.3497 68.1799 62.1197 66.4899 62.1197L66.4999 62.1097ZM65.3799 64.5797C65.4999 63.8197 65.9799 63.4497 66.5299 63.4497C67.2399 63.4497 67.5299 63.9197 67.5299 64.5797H65.3799Z" fill="#002341"/>
<path d="M39.78 54.2697H42.3999L42.3899 54.2797V56.8997H33.5V54.2797H36.54V46.1997H33.92V44.1997C35.44 43.9097 36.41 43.5097 37.4 42.9197H39.78V54.2697Z" fill="#002341"/>
<path d="M53.1999 50.2897H44.5299V52.3597H53.1999V50.2897Z" fill="#002341"/>
<path d="M56.1199 53.1297C56.9588 53.9486 57.9872 54.5382 59.1753 54.5397C60.5423 54.5382 61.4399 53.9483 61.4399 52.8897C61.4399 51.6597 60.7199 50.8897 57.6799 50.8897V48.5997C60.1899 48.5997 60.9799 47.8497 60.9799 46.7297C60.9799 45.7597 60.3599 45.1897 59.2599 45.1897C58.2699 45.1897 57.5199 45.6497 56.6399 46.4197L55.0099 44.4397C56.2899 43.3397 57.6899 42.6597 59.4099 42.6597C62.2899 42.6597 64.2299 44.0497 64.2299 46.4897C64.2299 47.9397 63.3999 48.9497 61.8999 49.5897V49.6797C63.4999 50.1397 64.6699 51.2897 64.6699 53.0897C64.6699 55.6897 62.2999 57.1597 59.4799 57.1597C57.2199 57.1597 55.6299 56.3697 54.6199 55.1797L56.1199 53.1297Z" fill="#002341"/>
<path fill-rule="evenodd" clip-rule="evenodd" d="M71.9999 26.9997H74.7199C77.6299 26.9997 79.9999 29.3697 79.9999 32.2797V69.7197C79.9999 72.6297 77.6299 74.9997 74.7199 74.9997H21.28C18.37 74.9997 16 72.6297 16 69.7197V32.2797C16 29.3697 18.37 26.9997 21.28 26.9997H26V24.9997H28V26.9997H69.9999V24.9997H71.9999V26.9997ZM26 28.9997H21.28C19.47 28.9997 18 30.4697 18 32.2797V36.3997H77.9999V32.2797C77.9999 30.4697 76.5299 28.9997 74.7199 28.9997H71.9999V34.9997H69.9999V28.9997H28V34.9997H26V28.9997ZM21.28 72.9997H74.7199C76.5299 72.9997 77.9999 71.5297 77.9999 69.7197V38.3997H18V69.7197C18 71.5297 19.47 72.9997 21.28 72.9997Z" fill="#002341"/>
</svg>
