<svg width="96" height="96" viewBox="0 0 96 96" fill="none" xmlns="http://www.w3.org/2000/svg">
<path d="M33.0362 64.7433C33.1239 64.443 33.2112 64.1438 33.31 63.8599L34.55 60.3799H36.47V68.1999H34.86V65.3299C34.86 64.7239 34.9553 63.8762 35.0346 63.1722C35.0547 62.9934 35.0738 62.8238 35.09 62.6699H35.04L34.4 64.5299L33.28 67.5199H32.31L31.19 64.5299L30.57 62.6699H30.52L30.5287 62.7428C30.6187 63.4922 30.75 64.5845 30.75 65.3299V68.1999H29.17V60.3799H31.1L32.36 63.8599C32.4484 64.1141 32.5307 64.3805 32.6136 64.649L32.614 64.6502C32.681 64.8672 32.7485 65.0855 32.82 65.2999H32.87C32.9273 65.1163 32.9819 64.9295 33.0362 64.7433Z" fill="#002341"/>
<path fill-rule="evenodd" clip-rule="evenodd" d="M41.0999 62.1099C39.5899 62.1099 38.2 63.2499 38.2 65.2299C38.2 67.2099 39.5899 68.3499 41.0999 68.3499C42.6099 68.3499 43.9899 67.2099 43.9899 65.2299C43.9899 63.2499 42.5999 62.1099 41.0999 62.1099ZM41.0999 66.9199C40.3699 66.9199 40.0099 66.2599 40.0099 65.2299C40.0099 64.1999 40.3699 63.5399 41.0999 63.5399C41.8299 63.5399 42.1899 64.1999 42.1899 65.2299C42.1899 66.2599 41.8199 66.9199 41.0999 66.9199Z" fill="#002341"/>
<path d="M47.1799 63.0099C47.6899 62.5299 48.2899 62.1099 49.0899 62.1099L49.0699 62.1199C50.3699 62.1199 50.9199 63.0299 50.9199 64.5199V68.2099H49.1599V64.7399C49.1599 63.8699 48.9299 63.6099 48.4299 63.6099C47.9899 63.6099 47.7099 63.8199 47.3299 64.1899V68.2099H45.5699V62.2599H47.0099L47.1299 63.0099H47.1799Z" fill="#002341"/>
<path fill-rule="evenodd" clip-rule="evenodd" d="M55.2799 62.1099C54.3399 62.1099 53.4899 62.4299 52.7399 62.8899L53.3799 64.0499C53.9599 63.7099 54.4499 63.5099 54.9499 63.5099C55.5999 63.5099 55.8499 63.8499 55.8899 64.3699C53.5399 64.6099 52.5399 65.2899 52.5399 66.5399C52.5399 67.5499 53.2199 68.3399 54.3099 68.3399C54.9799 68.3399 55.5299 68.0299 56.0399 67.5899H56.0899L56.2099 68.1999H57.6499V64.7899C57.6499 62.9699 56.8099 62.0999 55.2899 62.0999L55.2799 62.1099ZM55.8799 66.4799C55.5699 66.7899 55.2999 66.9799 54.9099 66.9799C54.4899 66.9799 54.2299 66.7999 54.2299 66.4199C54.2299 65.9599 54.6399 65.5999 55.8899 65.4399V66.4799H55.8799Z" fill="#002341"/>
<path d="M61.2899 66.0099C61.2899 66.6799 61.5899 66.9599 62.0599 66.9599L62.0699 66.9499C62.2599 66.9499 62.4699 66.8899 62.6299 66.8299L62.9099 68.1099C62.5999 68.2099 62.1699 68.3299 61.5899 68.3299C60.1199 68.3299 59.5399 67.4099 59.5399 66.0299V63.6199H58.7199V62.3099L59.6299 62.2399L59.8299 60.6599H61.2899V62.2399H62.7199V63.6199H61.2899V66.0099Z" fill="#002341"/>
<path fill-rule="evenodd" clip-rule="evenodd" d="M66.4999 62.1099C65.0699 62.1099 63.6899 63.2999 63.6899 65.2299C63.6899 67.1599 64.9999 68.3499 66.6999 68.3499C67.4099 68.3499 68.1999 68.0999 68.8099 67.6799L68.2199 66.6099C67.7899 66.8699 67.3799 67.0099 66.9399 67.0099C66.1499 67.0099 65.5499 66.6099 65.3899 65.7499H68.9499C68.9899 65.6099 69.0199 65.2799 69.0199 64.9699C69.0199 63.3499 68.1799 62.1199 66.4899 62.1199L66.4999 62.1099ZM65.3799 64.5799C65.4999 63.8199 65.9799 63.4499 66.5299 63.4499C67.2399 63.4499 67.5299 63.9199 67.5299 64.5799H65.3799Z" fill="#002341"/>
<path fill-rule="evenodd" clip-rule="evenodd" d="M32.33 53.5499H38.38V56.8799H41.3899V53.5399H42.9999V51.0799H41.3899V42.9199H37.43L32.33 51.3299V53.5499ZM38.38 48.8199V51.0899H35.43L37.28 48.0499C37.3575 47.8928 37.4355 47.7356 37.5134 47.5786L37.5144 47.5767C37.8277 46.9452 38.1399 46.3161 38.42 45.6999H38.51C38.4989 45.9432 38.484 46.2216 38.4683 46.5162C38.4271 47.2871 38.38 48.1689 38.38 48.8199Z" fill="#002341"/>
<path d="M44.4699 50.2899H53.1399V52.3599H44.4699V50.2899Z" fill="#002341"/>
<path fill-rule="evenodd" clip-rule="evenodd" d="M56.7499 53.5399L55.0299 55.4799L55.0399 55.4699C55.9199 56.3499 57.2799 57.1399 59.1299 57.1399C62.0499 57.1399 64.7799 54.7799 64.7799 49.5699C64.7799 44.6599 62.1899 42.6399 59.4799 42.6399C56.9499 42.6399 54.8399 44.3799 54.8399 47.3299C54.8399 50.2799 56.6199 51.6399 58.9999 51.6399C59.8499 51.6399 61.0599 51.0899 61.7899 50.1699C61.6799 53.4299 60.4699 54.5299 58.9099 54.5299C58.0899 54.5299 57.2099 54.0699 56.7499 53.5399ZM59.5399 45.0799C60.5299 45.0799 61.4299 45.7799 61.7199 47.9799C61.1699 48.9699 60.3599 49.3699 59.6299 49.3699C58.5699 49.3699 57.7799 48.8199 57.7799 47.3499C57.7799 45.7599 58.5499 45.0799 59.5399 45.0799Z" fill="#002341"/>
<path fill-rule="evenodd" clip-rule="evenodd" d="M71.9999 27H74.7199C77.6299 27 79.9999 29.37 79.9999 32.28V69.7199C79.9999 72.6299 77.6299 74.9999 74.7199 74.9999H21.28C18.37 74.9999 16 72.6299 16 69.7199V32.28C16 29.37 18.37 27 21.28 27H26V25H28V27H69.9999V25H71.9999V27ZM26 29H21.28C19.47 29 18 30.47 18 32.28V36.4H77.9999V32.28C77.9999 30.47 76.5299 29 74.7199 29H71.9999V35H69.9999V29H28V35H26V29ZM21.28 72.9999H74.7199C76.5299 72.9999 77.9999 71.5299 77.9999 69.7199V38.4H18V69.7199C18 71.5299 19.47 72.9999 21.28 72.9999Z" fill="#002341"/>
</svg>
