<svg width="96" height="96" viewBox="0 0 96 96" fill="none" xmlns="http://www.w3.org/2000/svg">
<path d="M34.0362 64.7434C33.9819 64.9295 33.9273 65.1163 33.87 65.2999H33.82C33.7485 65.0855 33.681 64.8672 33.614 64.6502L33.6136 64.649C33.5307 64.3805 33.4484 64.1141 33.36 63.8599L32.1 60.3799H30.17V68.1999H31.75V65.3299C31.75 64.5845 31.6187 63.4922 31.5287 62.7428L31.52 62.6699H31.57L32.19 64.5299L33.31 67.5199H34.28L35.4 64.5299L36.04 62.6699H36.09C36.0738 62.8238 36.0547 62.9933 36.0346 63.1721C35.9554 63.8761 35.86 64.7239 35.86 65.3299V68.1999H37.47V60.3799H35.55L34.31 63.8599C34.2112 64.1438 34.1238 64.4431 34.0362 64.7434Z" fill="#002341"/>
<path fill-rule="evenodd" clip-rule="evenodd" d="M39.2 65.2299C39.2 63.2499 40.5899 62.1099 42.0999 62.1099C43.5999 62.1099 44.9899 63.2499 44.9899 65.2299C44.9899 67.2099 43.6099 68.3499 42.0999 68.3499C40.5899 68.3499 39.2 67.2099 39.2 65.2299ZM41.0099 65.2299C41.0099 66.2599 41.3699 66.9199 42.0999 66.9199C42.8199 66.9199 43.1899 66.2599 43.1899 65.2299C43.1899 64.1999 42.8299 63.5399 42.0999 63.5399C41.3699 63.5399 41.0099 64.1999 41.0099 65.2299Z" fill="#002341"/>
<path d="M50.0899 62.1099C49.2899 62.1099 48.6899 62.5299 48.1799 63.0099H48.1299L48.0099 62.2599H46.5699V68.2099H48.3299V64.1899C48.7099 63.8199 48.9899 63.6099 49.4299 63.6099C49.9299 63.6099 50.1599 63.8699 50.1599 64.7399V68.2099H51.9199V64.5199C51.9199 63.0299 51.3699 62.1199 50.0699 62.1199L50.0899 62.1099Z" fill="#002341"/>
<path fill-rule="evenodd" clip-rule="evenodd" d="M53.7399 62.8899C54.4899 62.4299 55.3399 62.1099 56.2799 62.1099L56.2899 62.0999C57.8099 62.0999 58.6499 62.9699 58.6499 64.7899V68.1999H57.2099L57.0899 67.5899H57.0399C56.5299 68.0299 55.9799 68.3399 55.3099 68.3399C54.2199 68.3399 53.5399 67.5499 53.5399 66.5399C53.5399 65.2899 54.5399 64.6099 56.8899 64.3699C56.8499 63.8499 56.5999 63.5099 55.9499 63.5099C55.4499 63.5099 54.9599 63.7099 54.3799 64.0499L53.7399 62.8899ZM55.9099 66.9799C56.2999 66.9799 56.5699 66.7899 56.8799 66.4799H56.8899V65.4399C55.6399 65.5999 55.2299 65.9599 55.2299 66.4199C55.2299 66.7999 55.4899 66.9799 55.9099 66.9799Z" fill="#002341"/>
<path d="M63.0599 66.9599C62.5899 66.9599 62.2899 66.6799 62.2899 66.0099V63.6199H63.7199V62.2399H62.2899V60.6599H60.8299L60.6299 62.2399L59.7199 62.3099V63.6199H60.5399V66.0299C60.5399 67.4099 61.1199 68.3299 62.5899 68.3299C63.1699 68.3299 63.5999 68.2099 63.9099 68.1099L63.6299 66.8299C63.4699 66.8899 63.2599 66.9499 63.0699 66.9499L63.0599 66.9599Z" fill="#002341"/>
<path fill-rule="evenodd" clip-rule="evenodd" d="M64.6899 65.2299C64.6899 63.2999 66.0699 62.1099 67.4999 62.1099L67.4899 62.1199C69.1799 62.1199 70.0199 63.3499 70.0199 64.9699C70.0199 65.2799 69.9899 65.6099 69.9499 65.7499H66.3899C66.5499 66.6099 67.1499 67.0099 67.9399 67.0099C68.3799 67.0099 68.7899 66.8699 69.2199 66.6099L69.8099 67.6799C69.1999 68.0999 68.4099 68.3499 67.6999 68.3499C65.9999 68.3499 64.6899 67.1599 64.6899 65.2299ZM67.5299 63.4499C66.9799 63.4499 66.4999 63.8199 66.3799 64.5799H68.5299C68.5299 63.9199 68.2399 63.4499 67.5299 63.4499Z" fill="#002341"/>
<path d="M38.92 54.4899H38.93V57.0999H47.8199V54.4799H45.1999V43.1299H42.8199C41.8299 43.7299 40.8599 44.1199 39.34 44.4099V46.4099H41.9599V54.4899H38.93V54.4799L38.92 54.4899Z" fill="#002341"/>
<path d="M55.8799 47.5099C55.8799 49.4999 53.3699 51.8899 49.8099 55.2599H49.7999V57.1099H59.6399V54.3799H56.8199C56.1599 54.3799 55.1899 54.4699 54.4899 54.5599C56.7599 52.1799 58.9599 49.6699 58.9599 47.3199C58.9599 44.6299 57.0899 42.8699 54.3399 42.8699C52.3299 42.8699 51.0399 43.6199 49.6499 45.0899L51.4099 46.8299C52.1199 46.0799 52.8899 45.3999 53.8999 45.3999C55.1099 45.3999 55.8799 46.1499 55.8799 47.5099Z" fill="#002341"/>
<path fill-rule="evenodd" clip-rule="evenodd" d="M75.7199 27H72.9999V25H70.9999V27H29V25H27V27H22.28C19.37 27 17 29.37 17 32.28V69.7199C17 72.6299 19.37 74.9999 22.28 74.9999H75.7199C78.6299 74.9999 80.9999 72.6299 80.9999 69.7199V32.28C80.9999 29.37 78.6299 27 75.7199 27ZM22.28 29H27V35H29V29H70.9999V35H72.9999V29H75.7199C77.5299 29 78.9999 30.47 78.9999 32.28V36.4H19V32.28C19 30.47 20.47 29 22.28 29ZM75.7199 72.9999H22.28C20.47 72.9999 19 71.5299 19 69.7199V38.4H78.9999V69.7199C78.9999 71.5299 77.5299 72.9999 75.7199 72.9999Z" fill="#002341"/>
</svg>
