<svg width="96" height="96" viewBox="0 0 96 96" fill="none" xmlns="http://www.w3.org/2000/svg">
<path d="M33.0362 64.7432C32.9819 64.9293 32.9273 65.116 32.87 65.2997H32.82C32.7485 65.0853 32.681 64.8669 32.614 64.6499L32.6136 64.6488C32.5307 64.3803 32.4484 64.1139 32.36 63.8597L31.1 60.3797H29.17V68.1997H30.75V65.3297C30.75 64.5843 30.6188 63.4922 30.5287 62.7428L30.52 62.6697H30.57L31.19 64.5297L32.31 67.5197H33.28L34.4 64.5297L35.04 62.6697H35.09C35.0738 62.8236 35.0547 62.9932 35.0346 63.172C34.9553 63.8759 34.86 64.7236 34.86 65.3297V68.1997H36.47V60.3797H34.55L33.31 63.8597C33.2112 64.1436 33.1238 64.4429 33.0362 64.7432Z" fill="#002341"/>
<path fill-rule="evenodd" clip-rule="evenodd" d="M38.2 65.2297C38.2 63.2497 39.5899 62.1097 41.0999 62.1097C42.5999 62.1097 43.9899 63.2497 43.9899 65.2297C43.9899 67.2097 42.6099 68.3497 41.0999 68.3497C39.5899 68.3497 38.2 67.2097 38.2 65.2297ZM40.0099 65.2297C40.0099 66.2597 40.3699 66.9197 41.0999 66.9197C41.8199 66.9197 42.1899 66.2597 42.1899 65.2297C42.1899 64.1997 41.8299 63.5397 41.0999 63.5397C40.3699 63.5397 40.0099 64.1997 40.0099 65.2297Z" fill="#002341"/>
<path d="M49.0899 62.1097C48.2899 62.1097 47.6899 62.5297 47.1799 63.0097H47.1299L47.0099 62.2597H45.5699V68.2097H47.3299V64.1897C47.7099 63.8197 47.9899 63.6097 48.4299 63.6097C48.9299 63.6097 49.1599 63.8697 49.1599 64.7397V68.2097H50.9199V64.5197C50.9199 63.0297 50.3699 62.1197 49.0699 62.1197L49.0899 62.1097Z" fill="#002341"/>
<path fill-rule="evenodd" clip-rule="evenodd" d="M52.7399 62.8897C53.4899 62.4297 54.3399 62.1097 55.2799 62.1097L55.2899 62.0997C56.8099 62.0997 57.6499 62.9697 57.6499 64.7897V68.1997H56.2099L56.0899 67.5897H56.0399C55.5299 68.0297 54.9799 68.3397 54.3099 68.3397C53.2199 68.3397 52.5399 67.5497 52.5399 66.5397C52.5399 65.2897 53.5399 64.6097 55.8899 64.3697C55.8499 63.8497 55.5999 63.5097 54.9499 63.5097C54.4499 63.5097 53.9599 63.7097 53.3799 64.0497L52.7399 62.8897ZM54.9099 66.9797C55.2999 66.9797 55.5699 66.7897 55.8799 66.4797H55.8899V65.4397C54.6399 65.5997 54.2299 65.9597 54.2299 66.4197C54.2299 66.7997 54.4899 66.9797 54.9099 66.9797Z" fill="#002341"/>
<path d="M62.0599 66.9597C61.5899 66.9597 61.2899 66.6797 61.2899 66.0097V63.6197H62.7199V62.2397H61.2899V60.6597H59.8299L59.6299 62.2397L58.7199 62.3097V63.6197H59.5399V66.0297C59.5399 67.4097 60.1199 68.3297 61.5899 68.3297C62.1699 68.3297 62.5999 68.2097 62.9099 68.1097L62.6299 66.8297C62.4699 66.8897 62.2599 66.9497 62.0699 66.9497L62.0599 66.9597Z" fill="#002341"/>
<path fill-rule="evenodd" clip-rule="evenodd" d="M63.6899 65.2297C63.6899 63.2997 65.0699 62.1097 66.4999 62.1097L66.4899 62.1197C68.1799 62.1197 69.0199 63.3497 69.0199 64.9697C69.0199 65.2797 68.9899 65.6097 68.9499 65.7497H65.3899C65.5499 66.6097 66.1499 67.0097 66.9399 67.0097C67.3799 67.0097 67.7899 66.8697 68.2199 66.6097L68.8099 67.6797C68.1999 68.0997 67.4099 68.3497 66.6999 68.3497C64.9999 68.3497 63.6899 67.1597 63.6899 65.2297ZM66.5299 63.4497C65.9799 63.4497 65.4999 63.8197 65.3799 64.5797H67.5299C67.5299 63.9197 67.2399 63.4497 66.5299 63.4497Z" fill="#002341"/>
<path d="M48.1199 48.4597L38 44.5697V47.2297L41.8699 48.5097L44.8399 49.5397V49.6297L41.8699 50.6697L38 51.9397V54.5997L48.1199 50.7097V48.4597Z" fill="#002341"/>
<path fill-rule="evenodd" clip-rule="evenodd" d="M52.7399 49.6297C53.4599 48.7097 54.6699 48.1597 55.5299 48.1597V48.1497C57.9299 48.1497 59.6899 49.5497 59.6899 52.4597C59.6899 55.3697 57.5799 57.1497 55.0499 57.1497C52.3399 57.1497 49.7699 55.1297 49.7699 50.2197C49.7699 44.9997 52.4699 42.6497 55.4199 42.6497C57.2699 42.6497 58.6099 43.4197 59.4899 44.3197L57.7999 46.2597C57.3099 45.7297 56.4299 45.2697 55.6199 45.2697C54.0799 45.2697 52.8499 46.3697 52.7399 49.6297ZM52.7999 51.8397C53.0899 54.0397 54.0099 54.7397 54.9799 54.7397C55.9499 54.7397 56.7399 54.0497 56.7399 52.4697C56.7399 50.9997 55.9699 50.4497 54.9099 50.4497C54.1899 50.4497 53.3699 50.8497 52.7999 51.8397Z" fill="#002341"/>
<path fill-rule="evenodd" clip-rule="evenodd" d="M74.7199 26.9997H71.9999V24.9997H69.9999V26.9997H28V24.9997H26V26.9997H21.28C18.37 26.9997 16 29.3697 16 32.2797V69.7197C16 72.6297 18.37 74.9997 21.28 74.9997H74.7199C77.6299 74.9997 79.9999 72.6297 79.9999 69.7197V32.2797C79.9999 29.3697 77.6299 26.9997 74.7199 26.9997ZM21.28 28.9997H26V34.9997H28V28.9997H69.9999V34.9997H71.9999V28.9997H74.7199C76.5299 28.9997 77.9999 30.4697 77.9999 32.2797V36.3997H18V32.2797C18 30.4697 19.47 28.9997 21.28 28.9997ZM74.7199 72.9997H21.28C19.47 72.9997 18 71.5297 18 69.7197V38.3997H77.9999V69.7197C77.9999 71.5297 76.5299 72.9997 74.7199 72.9997Z" fill="#002341"/>
</svg>
