<svg width="96" height="96" viewBox="0 0 96 96" fill="none" xmlns="http://www.w3.org/2000/svg">
<path d="M17 37.9998H78.9999V71.9998C78.9999 74.2089 77.209 75.9998 74.9999 75.9998H21C18.7908 75.9998 17 74.2089 17 71.9998V37.9998Z" fill="#8FC1FF"/>
<path fill-rule="evenodd" clip-rule="evenodd" d="M15 37.9998C15 36.8953 15.8954 35.9998 17 35.9998H78.9999C80.1045 35.9998 80.9999 36.8953 80.9999 37.9998V71.9998C80.9999 75.3135 78.3136 77.9998 74.9999 77.9998H21C17.6863 77.9998 15 75.3135 15 71.9998V37.9998ZM19 39.9998V71.9998C19 73.1044 19.8954 73.9998 21 73.9998H74.9999C76.1045 73.9998 76.9999 73.1044 76.9999 71.9998V39.9998H19Z" fill="#0F1D2E"/>
<path fill-rule="evenodd" clip-rule="evenodd" d="M15 30C15 27.7908 16.7908 26 19 26H76.9999C79.209 26 80.9999 27.7908 80.9999 30V38C80.9999 39.1045 80.1045 39.9999 78.9999 39.9999H17C15.8954 39.9999 15 39.1045 15 38V30ZM76.9999 30H19V36H76.9999V30Z" fill="#0F1D2E"/>
<path fill-rule="evenodd" clip-rule="evenodd" d="M25 22C26.1045 22 27 22.8954 27 24V30C27 31.1045 26.1045 32 25 32C23.8954 32 23 31.1045 23 30V24C23 22.8954 23.8954 22 25 22Z" fill="#0F1D2E"/>
<path fill-rule="evenodd" clip-rule="evenodd" d="M70.9999 22C72.1045 22 72.9999 22.8954 72.9999 24V30C72.9999 31.1045 72.1045 32 70.9999 32C69.8953 32 68.9999 31.1045 68.9999 30V24C68.9999 22.8954 69.8953 22 70.9999 22Z" fill="#0F1D2E"/>
<path fill-rule="evenodd" clip-rule="evenodd" d="M31.1026 49.3675C31.3748 48.5508 32.1391 47.9999 33 47.9999H38C39.1045 47.9999 40 48.8954 40 49.9999V56.9999C41.1045 56.9999 42 57.8954 42 58.9999C42 60.1045 41.1045 60.9999 40 60.9999V63.9999C40 65.1045 39.1045 65.9999 38 65.9999C36.8954 65.9999 36 65.1045 36 63.9999V60.9999H30C29.3571 60.9999 28.7534 60.6909 28.3775 60.1693C28.0016 59.6478 27.8993 58.9774 28.1026 58.3675L31.1026 49.3675ZM36 56.9999V51.9999H34.4415L32.7748 56.9999H36Z" fill="#0F1D2E"/>
<path fill-rule="evenodd" clip-rule="evenodd" d="M43.9999 56.9999C43.9999 55.8954 44.8954 54.9999 45.9999 54.9999H49.9999C51.1045 54.9999 51.9999 55.8954 51.9999 56.9999C51.9999 58.1045 51.1045 58.9999 49.9999 58.9999H45.9999C44.8954 58.9999 43.9999 58.1045 43.9999 56.9999Z" fill="#0F1D2E"/>
<path fill-rule="evenodd" clip-rule="evenodd" d="M62.3967 61.1864C62.6924 60.7667 63 59.9976 62.9999 58.632L62.9999 53.6318C62.9999 52.5272 63.8953 51.6318 64.9999 51.6318C66.1045 51.6318 66.9999 52.5272 66.9999 53.6318L66.9999 58.6316C66.9999 58.6316 66.9999 58.6315 66.9999 58.6316C67.0001 60.585 66.5579 62.2256 65.6662 63.4907C64.7613 64.7747 63.5093 65.5055 62.2171 65.8158C59.7923 66.398 57.0792 65.5393 55.5857 64.0459C54.8047 63.2648 54.8047 61.9985 55.5857 61.2174C56.3668 60.4364 57.6331 60.4364 58.4141 61.2175C58.9207 61.724 60.2079 62.1845 61.2832 61.9264C61.7411 61.8164 62.1142 61.5872 62.3967 61.1864Z" fill="#0F1D2E"/>
<path fill-rule="evenodd" clip-rule="evenodd" d="M62.5824 55.1685C62.7766 54.9592 62.9999 54.5186 62.9999 53.6318C62.9999 52.745 62.7766 52.3044 62.5824 52.0951C62.413 51.9126 62.013 51.6318 60.9999 51.6318C59.9868 51.6318 59.5868 51.9126 59.4175 52.0951C59.2232 52.3044 58.9999 52.745 58.9999 53.6318C58.9999 54.5186 59.2232 54.9592 59.4175 55.1685C59.5868 55.3509 59.9868 55.6318 60.9999 55.6318C62.013 55.6318 62.413 55.3509 62.5824 55.1685ZM65.5141 57.8897C64.3823 59.109 62.7823 59.6318 60.9999 59.6318C59.2176 59.6318 57.6176 59.1091 56.4858 57.8897C55.3789 56.6972 54.9999 55.1378 54.9999 53.6318C54.9999 52.1257 55.3789 50.5663 56.4858 49.3739C57.6176 48.1545 59.2175 47.6318 60.9999 47.6318C62.7823 47.6318 64.3823 48.1545 65.5141 49.3739C66.6209 50.5663 66.9999 52.1257 66.9999 53.6318C66.9999 55.1378 66.6209 56.6972 65.5141 57.8897Z" fill="#0F1D2E"/>
</svg>
