<svg width="96" height="96" viewBox="0 0 96 96" fill="none" xmlns="http://www.w3.org/2000/svg">
<path d="M33.0362 64.7433C33.1239 64.443 33.2112 64.1438 33.31 63.8599L34.55 60.3799H36.47V68.1999H34.86V65.3299C34.86 64.7239 34.9553 63.8762 35.0346 63.1722C35.0547 62.9934 35.0738 62.8238 35.09 62.6699H35.04L34.4 64.5299L33.28 67.5199H32.31L31.19 64.5299L30.57 62.6699H30.52L30.5287 62.7428C30.6187 63.4922 30.75 64.5845 30.75 65.3299V68.1999H29.17V60.3799H31.1L32.36 63.8599C32.4484 64.1141 32.5307 64.3805 32.6136 64.649L32.614 64.6502C32.681 64.8672 32.7485 65.0855 32.82 65.2999H32.87C32.9273 65.1163 32.9819 64.9295 33.0362 64.7433Z" fill="#002341"/>
<path fill-rule="evenodd" clip-rule="evenodd" d="M41.0999 62.1099C39.5899 62.1099 38.2 63.2499 38.2 65.2299C38.2 67.2099 39.5899 68.3499 41.0999 68.3499C42.6099 68.3499 43.9899 67.2099 43.9899 65.2299C43.9899 63.2499 42.5999 62.1099 41.0999 62.1099ZM41.0999 66.9199C40.3699 66.9199 40.0099 66.2599 40.0099 65.2299C40.0099 64.1999 40.3699 63.5399 41.0999 63.5399C41.8299 63.5399 42.1899 64.1999 42.1899 65.2299C42.1899 66.2599 41.8199 66.9199 41.0999 66.9199Z" fill="#002341"/>
<path d="M47.1799 63.0099C47.6899 62.5299 48.2899 62.1099 49.0899 62.1099L49.0699 62.1199C50.3699 62.1199 50.9199 63.0299 50.9199 64.5199V68.2099H49.1599V64.7399C49.1599 63.8699 48.9299 63.6099 48.4299 63.6099C47.9899 63.6099 47.7099 63.8199 47.3299 64.1899V68.2099H45.5699V62.2599H47.0099L47.1299 63.0099H47.1799Z" fill="#002341"/>
<path fill-rule="evenodd" clip-rule="evenodd" d="M55.2799 62.1099C54.3399 62.1099 53.4899 62.4299 52.7399 62.8899L53.3799 64.0499C53.9599 63.7099 54.4499 63.5099 54.9499 63.5099C55.5999 63.5099 55.8499 63.8499 55.8899 64.3699C53.5399 64.6099 52.5399 65.2899 52.5399 66.5399C52.5399 67.5499 53.2199 68.3399 54.3099 68.3399C54.9799 68.3399 55.5299 68.0299 56.0399 67.5899H56.0899L56.2099 68.1999H57.6499V64.7899C57.6499 62.9699 56.8099 62.0999 55.2899 62.0999L55.2799 62.1099ZM55.8799 66.4799C55.5699 66.7899 55.2999 66.9799 54.9099 66.9799C54.4899 66.9799 54.2299 66.7999 54.2299 66.4199C54.2299 65.9599 54.6399 65.5999 55.8899 65.4399V66.4799H55.8799Z" fill="#002341"/>
<path d="M61.2899 66.0099C61.2899 66.6799 61.5899 66.9599 62.0599 66.9599L62.0699 66.9499C62.2599 66.9499 62.4699 66.8899 62.6299 66.8299L62.9099 68.1099C62.5999 68.2099 62.1699 68.3299 61.5899 68.3299C60.1199 68.3299 59.5399 67.4099 59.5399 66.0299V63.6199H58.7199V62.3099L59.6299 62.2399L59.8299 60.6599H61.2899V62.2399H62.7199V63.6199H61.2899V66.0099Z" fill="#002341"/>
<path fill-rule="evenodd" clip-rule="evenodd" d="M66.4999 62.1099C65.0699 62.1099 63.6899 63.2999 63.6899 65.2299C63.6899 67.1599 64.9999 68.3499 66.6999 68.3499C67.4099 68.3499 68.1999 68.0999 68.8099 67.6799L68.2199 66.6099C67.7899 66.8699 67.3799 67.0099 66.9399 67.0099C66.1499 67.0099 65.5499 66.6099 65.3899 65.7499H68.9499C68.9899 65.6099 69.0199 65.2799 69.0199 64.9699C69.0199 63.3499 68.1799 62.1199 66.4899 62.1199L66.4999 62.1099ZM65.3799 64.5799C65.4999 63.8199 65.9799 63.4499 66.5299 63.4499C67.2399 63.4499 67.5299 63.9199 67.5299 64.5799H65.3799Z" fill="#002341"/>
<path fill-rule="evenodd" clip-rule="evenodd" d="M46.1999 49.6299C46.9199 48.7099 48.1299 48.1599 48.9899 48.1599V48.1499C51.3899 48.1499 53.1499 49.5499 53.1499 52.4599C53.1499 55.3699 51.0399 57.1499 48.5099 57.1499C45.7999 57.1499 43.2299 55.1299 43.2299 50.2199C43.2299 44.9999 45.9299 42.6499 48.8799 42.6499C50.7299 42.6499 52.0699 43.4199 52.9499 44.3199L51.2599 46.2599C50.7699 45.7299 49.8899 45.2699 49.0799 45.2699C47.5399 45.2699 46.3099 46.3699 46.1999 49.6299ZM46.2599 51.8399C46.5499 54.0399 47.4699 54.7399 48.4399 54.7399C49.4099 54.7399 50.1999 54.0499 50.1999 52.4699C50.1999 50.9999 49.4299 50.4499 48.3699 50.4499C47.6499 50.4499 46.8299 50.8499 46.2599 51.8399Z" fill="#002341"/>
<path fill-rule="evenodd" clip-rule="evenodd" d="M71.9999 27H74.7199C77.6299 27 79.9999 29.37 79.9999 32.28V69.7199C79.9999 72.6299 77.6299 74.9999 74.7199 74.9999H21.28C18.37 74.9999 16 72.6299 16 69.7199V32.28C16 29.37 18.37 27 21.28 27H26V25H28V27H69.9999V25H71.9999V27ZM26 29H21.28C19.47 29 18 30.47 18 32.28V36.4H77.9999V32.28C77.9999 30.47 76.5299 29 74.7199 29H71.9999V35H69.9999V29H28V35H26V29ZM21.28 72.9999H74.7199C76.5299 72.9999 77.9999 71.5299 77.9999 69.7199V38.4H18V69.7199C18 71.5299 19.47 72.9999 21.28 72.9999Z" fill="#002341"/>
</svg>
