<svg width="96" height="96" viewBox="0 0 96 96" fill="none" xmlns="http://www.w3.org/2000/svg">
<path fill-rule="evenodd" clip-rule="evenodd" d="M29.6 50.9999H23.6V44.9999H29.6V50.9999ZM27.6 46.9999H25.6V48.9999H27.6V46.9999Z" fill="#002341"/>
<path fill-rule="evenodd" clip-rule="evenodd" d="M29.6 58.9999H23.6V52.9999H29.6V58.9999ZM27.6 54.9999H25.6V56.9999H27.6V54.9999Z" fill="#002341"/>
<path fill-rule="evenodd" clip-rule="evenodd" d="M23.6 66.9999H29.6V60.9999H23.6V66.9999ZM25.6 62.9999H27.6V64.9999H25.6V62.9999Z" fill="#002341"/>
<path fill-rule="evenodd" clip-rule="evenodd" d="M51.5999 50.9999H45.5999V44.9999H51.5999V50.9999ZM49.5999 46.9999H47.5999V48.9999H49.5999V46.9999Z" fill="#002341"/>
<path fill-rule="evenodd" clip-rule="evenodd" d="M45.5999 58.9999H51.5999V52.9999H45.5999V58.9999ZM47.5999 54.9999H49.5999V56.9999H47.5999V54.9999Z" fill="#002341"/>
<path fill-rule="evenodd" clip-rule="evenodd" d="M51.5999 66.9999H45.5999V60.9999H51.5999V66.9999ZM49.5999 62.9999H47.5999V64.9999H49.5999V62.9999Z" fill="#002341"/>
<path fill-rule="evenodd" clip-rule="evenodd" d="M56.5999 50.9999H62.5999V44.9999H56.5999V50.9999ZM58.5999 46.9999H60.5999V48.9999H58.5999V46.9999Z" fill="#002341"/>
<path fill-rule="evenodd" clip-rule="evenodd" d="M62.5999 58.9999H56.5999V52.9999H62.5999V58.9999ZM60.5999 54.9999H58.5999V56.9999H60.5999V54.9999Z" fill="#002341"/>
<path fill-rule="evenodd" clip-rule="evenodd" d="M56.5999 66.9999H62.5999V60.9999H56.5999V66.9999ZM58.5999 62.9999H60.5999V64.9999H58.5999V62.9999Z" fill="#002341"/>
<path fill-rule="evenodd" clip-rule="evenodd" d="M73.5999 50.9999H67.5999V44.9999H73.5999V50.9999ZM71.5999 46.9999H69.5999V48.9999H71.5999V46.9999Z" fill="#002341"/>
<path fill-rule="evenodd" clip-rule="evenodd" d="M67.5999 58.9999H73.5999V52.9999H67.5999V58.9999ZM69.5999 54.9999H71.5999V56.9999H69.5999V54.9999Z" fill="#002341"/>
<path fill-rule="evenodd" clip-rule="evenodd" d="M73.5999 66.9999H67.5999V60.9999H73.5999V66.9999ZM71.5999 62.9999H69.5999V64.9999H71.5999V62.9999Z" fill="#002341"/>
<path fill-rule="evenodd" clip-rule="evenodd" d="M34.6 50.9999H40.5999V44.9999H34.6V50.9999ZM36.6 46.9999H38.6V48.9999H36.6V46.9999Z" fill="#002341"/>
<path fill-rule="evenodd" clip-rule="evenodd" d="M40.5999 58.9999H34.6V52.9999H40.5999V58.9999ZM38.6 54.9999H36.6V56.9999H38.6V54.9999Z" fill="#002341"/>
<path fill-rule="evenodd" clip-rule="evenodd" d="M34.6 66.9999H40.5999V60.9999H34.6V66.9999ZM36.6 62.9999H38.6V64.9999H36.6V62.9999Z" fill="#002341"/>
<path fill-rule="evenodd" clip-rule="evenodd" d="M71.9999 27H74.7199C77.6299 27 79.9999 29.37 79.9999 32.28V69.7199C79.9999 72.6299 77.6299 74.9999 74.7199 74.9999H21.28C18.37 74.9999 16 72.6299 16 69.7199V32.28C16 29.37 18.37 27 21.28 27H26V25H28V27H69.9999V25H71.9999V27ZM26 29H21.28C19.47 29 18 30.47 18 32.28V36.4H77.9999V32.28C77.9999 30.47 76.5299 29 74.7199 29H71.9999V35H69.9999V29H28V35H26V29ZM21.28 72.9999H74.7199C76.5299 72.9999 77.9999 71.5299 77.9999 69.7199V38.4H18V69.7199C18 71.5299 19.47 72.9999 21.28 72.9999Z" fill="#002341"/>
</svg>
