<svg width="96" height="96" viewBox="0 0 96 96" fill="none" xmlns="http://www.w3.org/2000/svg">
<path fill-rule="evenodd" clip-rule="evenodd" d="M31.19 33.96H38.75V26.4H31.19V33.96ZM36.75 31.96H33.19V28.4H36.75V31.96Z" fill="#002341"/>
<path fill-rule="evenodd" clip-rule="evenodd" d="M38.75 47H31.19V39.44H38.75V47ZM33.19 45H36.75V41.44H33.19V45Z" fill="#002341"/>
<path fill-rule="evenodd" clip-rule="evenodd" d="M31.19 60.03H38.75V52.47H31.19V60.03ZM36.75 58.03H33.19V54.47H36.75V58.03Z" fill="#002341"/>
<path d="M63.35 29.18H43.43V31.18H63.35V29.18Z" fill="#002341"/>
<path d="M43.56 42.21H63.48V44.21H43.56V42.21Z" fill="#002341"/>
<path d="M63.48 55.25H43.56V57.25H63.48V55.25Z" fill="#002341"/>
<path d="M43.56 68.28H63.48V70.28H43.56V68.28Z" fill="#002341"/>
<path fill-rule="evenodd" clip-rule="evenodd" d="M38.75 73.06H31.19V65.5H38.75V73.06ZM33.19 71.06H36.75V67.5H33.19V71.06Z" fill="#002341"/>
<path fill-rule="evenodd" clip-rule="evenodd" d="M35.88 13.91V12.99C35.88 11.34 37.22 10 38.87 10H56.8C58.45 10 59.79 11.34 59.79 12.99V13.91H73.68V83.21H22V13.91H35.88ZM38.87 19.82H56.8C58.45 19.82 59.79 18.48 59.79 16.83V15.91H71.68V81.21H24V15.91H35.88V16.83C35.88 18.48 37.22 19.82 38.87 19.82ZM37.88 12.99C37.88 12.44 38.32 12 38.87 12H56.8C57.35 12 57.79 12.44 57.79 12.99V16.83C57.79 17.38 57.35 17.82 56.8 17.82H38.87C38.32 17.82 37.88 17.38 37.88 16.83V12.99Z" fill="#002341"/>
</svg>
