<svg width="96" height="96" viewBox="0 0 96 96" fill="none" xmlns="http://www.w3.org/2000/svg">
<path d="M85 27.9995V21.9995H11V27.9995H17V77.9995H11V79.9995H85V77.9995H79V27.9995H85ZM13 25.9995V23.9995H83V25.9995H13ZM50.15 65.2895C50.3 65.5395 50.56 65.7195 50.85 65.7595C51.83 65.9195 53.2 65.6995 54.19 64.7695L54.83 66.4395C55.31 67.8195 55.38 69.3395 55.04 70.8295C54.7 72.2895 54.02 73.8995 52.7 75.0695C52.82 73.7395 52.27 72.2895 51.14 71.1295C48.22 68.1495 48.52 65.9695 48.54 65.8495C48.62 65.4395 48.43 65.0295 48.08 64.8095C47.72 64.5895 47.26 64.6195 46.93 64.8795C42.41 68.5195 42.05 72.7195 42.04 72.8395C42.04 72.9095 41.89 74.0695 42.28 75.3395C41.89 75.0695 41.54 74.7595 41.25 74.4095C39.4 72.1995 39.93 69.0795 39.94 69.0495C40.17 67.7595 40.67 66.5395 41.47 65.3295C42.03 64.4795 42.74 63.5295 43.49 62.5095C45.02 60.4595 46.58 58.3495 47.35 56.5295C48.97 58.5595 50.95 61.8795 50.06 64.4495C49.96 64.7295 50 65.0395 50.15 65.2895ZM44.74 75.8195C43.82 74.7795 44.02 73.1295 44.03 73.0595C44.04 72.9395 44.29 70.4095 46.77 67.7595C47.11 69.0195 47.91 70.6895 49.71 72.5295C50.58 73.4195 50.94 74.5695 50.6 75.3795C50.25 76.2195 49.16 76.6995 47.55 76.7395C47.35 76.7395 47.15 76.7295 46.96 76.7195C45.98 76.6595 45.22 76.3595 44.74 75.8195ZM51.72 77.9995C54.37 76.8895 56.22 74.5695 56.99 71.2795C57.42 69.4195 57.33 67.5195 56.71 65.7495L55.27 62.0195C55.11 61.5995 54.68 61.3395 54.25 61.3795C53.8 61.4195 53.44 61.7495 53.36 62.1895C53.19 63.0795 52.73 63.4795 52.26 63.6695C52.7 58.9095 47.78 53.9495 47.55 53.7195C47.26 53.4295 46.83 53.3495 46.45 53.5095C46.08 53.6695 45.84 54.0395 45.84 54.4495C45.87 55.9495 43.66 58.9195 41.88 61.3095C41.11 62.3495 40.38 63.3295 39.79 64.2295C38.84 65.6695 38.24 67.1295 37.96 68.6895C37.93 68.8495 37.25 72.7395 39.69 75.6795C40.55 76.7195 41.68 77.4895 43.06 77.9995H26.99V46.9895C28.51 45.8595 33.33 41.8595 33.83 35.9995H62.16C62.74 41.7495 67.5 45.8295 68.99 46.9695V77.9995H51.71H51.72ZM77 77.9995H71V45.9395L70.57 45.6395C70.51 45.5995 64.2 41.1495 64.11 34.9795V33.9895H31.89V34.9895C31.89 41.2895 25.52 45.5795 25.45 45.6195L25 45.9195V77.9895H19V27.9995H77V77.9995Z" fill="#002341"/>
</svg>
