<svg width="96" height="96" viewBox="0 0 96 96" fill="none" xmlns="http://www.w3.org/2000/svg">
<path d="M48.09 28.34C48.64 28.34 49.09 27.89 49.09 27.34V10C49.09 9.45 48.64 9 48.09 9C47.54 9 47.09 9.45 47.09 10V27.34C47.09 27.89 47.54 28.34 48.09 28.34Z" fill="#002341"/>
<path d="M37.41 27.34C37.41 27.89 36.96 28.34 36.41 28.34C35.86 28.34 35.41 27.89 35.41 27.34V14.46C35.41 13.91 35.86 13.46 36.41 13.46C36.96 13.46 37.41 13.91 37.41 14.46V27.34Z" fill="#002341"/>
<path d="M60.84 27.34C60.84 27.89 60.39 28.34 59.84 28.34C59.29 28.34 58.84 27.89 58.84 27.34V14.46C58.84 13.91 59.29 13.46 59.84 13.46C60.39 13.46 60.84 13.91 60.84 14.46V27.34Z" fill="#002341"/>
<path fill-rule="evenodd" clip-rule="evenodd" d="M72.82 36.29V37.28L72.81 37.27C72.82 37.96 72.93 53.99 64.72 62.54L63.3 79.75H32.73L29 32.43H67.22L66.9 36.29H72.82ZM65.02 59.03C69.96 52.02 70.7 41.53 70.8 38.29H66.74L65.02 59.03ZM31.16 34.43L34.58 77.75H61.46L65.05 34.43H31.16Z" fill="#002341"/>
</svg>
