<svg width="96" height="96" viewBox="0 0 96 96" fill="none" xmlns="http://www.w3.org/2000/svg">
<path d="M64.1441 67.3048L67.4049 42.5221C67.7202 40.1263 65.8555 38.0002 63.4391 38.0002H28.5607C26.1443 38.0002 24.2797 40.1263 24.5949 42.5221L27.8558 67.3048C28.5105 72.2805 32.7517 76.0002 37.7703 76.0002H54.2295C59.2481 76.0002 63.4894 72.2805 64.1441 67.3048Z" fill="#8FC1FF"/>
<path fill-rule="evenodd" clip-rule="evenodd" d="M37.1981 14.0601C38.2695 13.7913 39.3559 14.4419 39.6247 15.5133C40.034 17.1447 40.0859 18.513 39.8913 19.7123C39.6969 20.9102 39.2742 21.8236 38.9065 22.5231L38.9056 22.5247C37.7729 24.6744 37.9147 26.2285 38.2071 27.1781C38.3619 27.6808 38.5754 28.0636 38.7414 28.311C38.8239 28.4339 38.8924 28.5201 38.932 28.5672C38.9484 28.5867 38.9596 28.5992 38.9644 28.6045C39.7258 29.3857 39.7211 30.6363 38.9485 31.4116C38.1688 32.1941 36.9025 32.1964 36.1201 31.4168L37.5317 30C36.1201 31.4168 36.1192 31.4159 36.1183 31.415L36.1164 31.4131L36.1124 31.4091L36.1036 31.4002L36.0825 31.3785C36.0669 31.3624 36.0484 31.3428 36.0272 31.3198C35.9849 31.274 35.9318 31.2144 35.8703 31.1413C35.7477 30.9955 35.5906 30.7943 35.4197 30.5395C35.0789 30.0315 34.6744 29.2977 34.3843 28.3553C33.7868 26.415 33.7307 23.7657 35.3663 20.661C35.643 20.1347 35.8475 19.6596 35.9429 19.0717C36.0381 18.4852 36.0419 17.6703 35.7449 16.4867C35.4761 15.4154 36.1267 14.3289 37.1981 14.0601Z" fill="#0F1D2E"/>
<path fill-rule="evenodd" clip-rule="evenodd" d="M54.1981 14.0601C55.2695 13.7913 56.3559 14.4419 56.6247 15.5133C57.034 17.1447 57.0859 18.513 56.8913 19.7123C56.6969 20.9102 56.2742 21.8236 55.9065 22.5231L55.9056 22.5247C54.7729 24.6744 54.9147 26.2285 55.2071 27.1781C55.3619 27.6808 55.5754 28.0636 55.7414 28.311C55.8239 28.4339 55.8924 28.5201 55.932 28.5672C55.9484 28.5867 55.9596 28.5992 55.9644 28.6045C56.7258 29.3857 56.7211 30.6363 55.9485 31.4116C55.1688 32.1941 53.9025 32.1964 53.1201 31.4168L54.5317 30C53.1201 31.4168 53.1192 31.4159 53.1183 31.415L53.1164 31.4131L53.1124 31.4091L53.1036 31.4002L53.0825 31.3785C53.0669 31.3624 53.0484 31.3428 53.0272 31.3198C52.9849 31.274 52.9318 31.2144 52.8703 31.1413C52.7477 30.9955 52.5906 30.7943 52.4197 30.5395C52.0789 30.0315 51.6744 29.2977 51.3843 28.3553C50.7868 26.415 50.7307 23.7656 52.3664 20.6608C52.643 20.1345 52.8475 19.6595 52.9429 19.0717C53.0381 18.4852 53.0419 17.6703 52.7449 16.4867C52.4761 15.4154 53.1267 14.3289 54.1981 14.0601Z" fill="#0F1D2E"/>
<path fill-rule="evenodd" clip-rule="evenodd" d="M44.8843 10.275C45.837 9.71604 47.0625 10.0353 47.6214 10.988C49.183 13.6498 49.1906 16.372 48.7483 18.5016C48.3103 20.6099 47.4133 22.2501 46.9828 22.9506L46.9818 22.9523C45.741 24.9671 45.921 26.3562 46.2146 27.1721C46.3773 27.6241 46.6051 27.9765 46.7901 28.2124C46.8814 28.3288 46.958 28.4115 47.0036 28.4578C47.0237 28.4783 47.0373 28.4912 47.0427 28.4963C47.8638 29.216 47.9566 30.464 47.2461 31.2975C46.5295 32.1381 45.2671 32.2386 44.4266 31.522L45.724 30C44.4266 31.522 44.4256 31.5212 44.4246 31.5204L44.4227 31.5187L44.4184 31.5151L44.4089 31.5068L44.386 31.4867C44.369 31.4716 44.3486 31.4532 44.3252 31.4315C44.2785 31.3882 44.2193 31.3314 44.1506 31.2615C44.0136 31.1221 43.8363 30.928 43.6424 30.6807C43.257 30.1892 42.7891 29.4663 42.451 28.5267C41.743 26.5596 41.7003 23.9008 43.5754 20.8556C43.8707 20.3748 44.5223 19.1782 44.8319 17.6881C45.1371 16.2184 45.0907 14.5792 44.1713 13.0121C43.6124 12.0593 43.9316 10.8339 44.8843 10.275Z" fill="#0F1D2E"/>
<path fill-rule="evenodd" clip-rule="evenodd" d="M22.6123 42.7829C22.1395 39.1893 24.9364 36.0002 28.561 36.0002H63.4394C67.064 36.0002 69.861 39.1893 69.3882 42.7829L66.1273 67.5656C65.3416 73.5365 60.2521 78.0002 54.2298 78.0002H37.7706C31.7483 78.0002 26.6588 73.5365 25.8732 67.5656L22.6123 42.7829ZM28.561 40.0002C27.3528 40.0002 26.4205 41.0632 26.5781 42.2611L29.839 67.0438C30.3628 71.0244 33.7558 74.0002 37.7706 74.0002H54.2298C58.2447 74.0002 61.6377 71.0244 62.1615 67.0438L65.4224 42.2611C65.58 41.0632 64.6476 40.0002 63.4394 40.0002H28.561Z" fill="#0F1D2E"/>
<path fill-rule="evenodd" clip-rule="evenodd" d="M65 45.9999C65 44.8953 65.8954 43.9999 67 43.9999H70.7674C76.5567 43.9999 80.4292 49.9587 78.0779 55.249L75.9391 60.0613C74.3341 63.6725 70.7529 65.9999 66.801 65.9999H65C63.8954 65.9999 63 65.1044 63 63.9999C63 62.8953 63.8954 61.9999 65 61.9999H66.801C69.1721 61.9999 71.3209 60.6035 72.2839 58.4367L74.4227 53.6244C75.5983 50.9793 73.6621 47.9999 70.7674 47.9999H67C65.8954 47.9999 65 47.1044 65 45.9999Z" fill="#0F1D2E"/>
</svg>
