<svg width="96" height="96" viewBox="0 0 96 96" fill="none" xmlns="http://www.w3.org/2000/svg">
<path d="M72 71V36.32L48.53 23.75C47.07 22.75 44.92 22.75 43.46 23.75L20 36.32V70.99H8V72.99H84V70.99H72V71ZM22 71V37.52L44.46 25.48L44.57 25.41C45.36 24.85 46.64 24.85 47.43 25.41L70 37.51V70.99H22V71Z" fill="#002341"/>
<path d="M60.79 51.87C60.84 51.75 60.87 51.62 60.87 51.48C60.87 51.34 60.84 51.22 60.79 51.09C60.74 50.97 60.67 50.86 60.57 50.77L46.86 37.12C46.47 36.73 45.84 36.73 45.45 37.12C45.06 37.51 45.06 38.14 45.45 38.53L57.45 50.47H32.13C31.58 50.47 31.13 50.92 31.13 51.48C31.13 52.04 31.58 52.48 32.13 52.48H57.45L45.44 64.42C45.05 64.81 45.05 65.44 45.44 65.83C45.64 66.03 45.89 66.12 46.15 66.12C46.41 66.12 46.66 66.02 46.86 65.83L60.59 52.17C60.68 52.08 60.76 51.97 60.81 51.85L60.79 51.87Z" fill="#002341"/>
</svg>
