<svg width="96" height="96" viewBox="0 0 96 96" fill="none" xmlns="http://www.w3.org/2000/svg">
<path fill-rule="evenodd" clip-rule="evenodd" d="M41.89 45.58C41.89 43.33 40.45 41.91 38.13 41.91V41.92H33.84V53.12H35.92V49.23H37.89C40.45 49.23 41.89 47.83 41.89 45.58ZM39.76 45.57C39.76 46.87 39.01 47.59 37.57 47.59H35.91V43.68H37.77C39.01 43.68 39.76 44.27 39.76 45.57Z" fill="#002341"/>
<path d="M51.4 41.91H53.33V53.11H50.71L45.68 44.13V53.11H43.73V41.91H46.6L51.4 50.59V41.91Z" fill="#002341"/>
<path d="M66.52 46.78H59.82L59.45 48.49H64.54C64.41 50.4 63.31 51.52 61.34 51.52C59.1 51.52 57.64 49.83 57.64 47.57C57.64 45.31 58.93 43.55 61.72 43.55C63.48 43.55 64.76 44.24 65.53 44.88V42.82C64.65 42.14 63.34 41.6 61.56 41.6C57.62 41.6 55.46 44.21 55.46 47.55C55.46 50.89 57.8 53.44 61.29 53.44C64.52 53.44 66.52 51.44 66.52 47.77V46.78Z" fill="#002341"/>
<path fill-rule="evenodd" clip-rule="evenodd" d="M24 82.3H75.68V13H24V82.3ZM73.68 80.3H26V15H73.68V80.3Z" fill="#002341"/>
</svg>
