<svg width="96" height="96" viewBox="0 0 96 96" fill="none" xmlns="http://www.w3.org/2000/svg">
<path fill-rule="evenodd" clip-rule="evenodd" d="M20 81.3H71.68V12H20V81.3ZM69.68 79.3H22V14H69.68V79.3ZM41.97 21.18H61.89V23.18H41.97V21.18ZM61.89 30.54H41.97V32.54H61.89V30.54ZM29.78 40.61H61.9V42.61H29.78V40.61ZM37.16 25.96H29.6V18.4H37.16V25.96ZM31.6 23.96H35.16V20.4H31.6V23.96ZM29.6 35.32H37.16V27.76H29.6V35.32ZM35.16 33.32H31.6V29.76H35.16V33.32ZM59.47 71.12H31.99C30.1 71.12 28.57 69.58 28.57 67.7V52.55C28.57 50.66 30.11 49.13 31.99 49.13H59.47C61.36 49.13 62.89 50.67 62.89 52.55V67.7C62.89 69.59 61.35 71.12 59.47 71.12ZM31.99 51.12C31.21 51.12 30.57 51.76 30.57 52.54V67.69C30.57 68.47 31.21 69.11 31.99 69.11H59.47C60.26 69.11 60.89 68.47 60.89 67.69V52.54C60.89 51.76 60.25 51.12 59.47 51.12H31.99ZM38.97 57.67L43.2 66.82L47.73 62.19L51.58 65.54L58.26 58.59L56.82 57.2L51.46 62.79L47.62 59.45L43.8 63.35L38.99 52.94L33.23 65.16L35.04 66.01L38.97 57.67Z" fill="#002341"/>
</svg>
