<svg width="96" height="96" viewBox="0 0 96 96" fill="none" xmlns="http://www.w3.org/2000/svg">
<path fill-rule="evenodd" clip-rule="evenodd" d="M72 30.3214V78H24V18H58.3636L72 30.3214ZM61.7932 62H33.2997C32.3167 62 31.7304 60.9044 32.2757 60.0865L39 50L46.5 55L53.5 45L62.8403 60.1225C63.3468 60.9424 62.757 62 61.7932 62ZM37 39C39.2091 39 41 37.2091 41 35C41 32.7909 39.2091 31 37 31C34.7909 31 33 32.7909 33 35C33 37.2091 34.7909 39 37 39Z" fill="#8FC1FF"/>
<path fill-rule="evenodd" clip-rule="evenodd" d="M22 20C22 17.7909 23.7909 16 26 16H59C59.5304 16 60.0391 16.2107 60.4142 16.5858L73.4142 29.5858C73.7893 29.9609 74 30.4696 74 31V76C74 78.2091 72.2091 80 70 80H26C23.7909 80 22 78.2091 22 76V20ZM57 20L26 20V76H70V33H61C58.7909 33 57 31.2091 57 29V20ZM61 22.8284L67.1716 29H61V22.8284Z" fill="#0F1D2E"/>
<path fill-rule="evenodd" clip-rule="evenodd" d="M53.3428 43C53.9987 43.0031 54.6114 43.3275 54.9825 43.8683L65.3265 58.9411C66.7978 61.085 65.2629 64 62.6627 64H33.3531C30.7448 64 29.2116 61.0687 30.6994 58.9264L37.6907 48.8592C37.9959 48.4197 38.4644 48.1209 38.9916 48.0294C39.5187 47.938 40.0606 48.0616 40.4959 48.3725L45.8529 52.1989L51.695 43.8531C52.0712 43.3157 52.6869 42.997 53.3428 43ZM53.3172 48.5108L47.9719 56.1469C47.6658 56.5842 47.1977 56.8809 46.6716 56.9712C46.1456 57.0615 45.6053 56.9377 45.171 56.6275L39.8201 52.8054L34.8238 60H61.2019L53.3172 48.5108Z" fill="#0F1D2E"/>
<path fill-rule="evenodd" clip-rule="evenodd" d="M37 33C35.8954 33 35 33.8954 35 35C35 36.1046 35.8954 37 37 37C38.1046 37 39 36.1046 39 35C39 33.8954 38.1046 33 37 33ZM31 35C31 31.6863 33.6863 29 37 29C40.3137 29 43 31.6863 43 35C43 38.3137 40.3137 41 37 41C33.6863 41 31 38.3137 31 35Z" fill="#0F1D2E"/>
</svg>
