<svg width="96" height="96" viewBox="0 0 96 96" fill="none" xmlns="http://www.w3.org/2000/svg">
<path d="M72 30.3214V78H24V18H58.3636L72 30.3214Z" fill="#8FC1FF"/>
<path fill-rule="evenodd" clip-rule="evenodd" d="M22 20C22 17.7909 23.7909 16 26 16H59C59.5304 16 60.0391 16.2107 60.4142 16.5858L73.4142 29.5858C73.7893 29.9609 74 30.4696 74 31V76C74 78.2091 72.2091 80 70 80H26C23.7909 80 22 78.2091 22 76V20ZM57 20L26 20V76H70V33H61C58.7909 33 57 31.2091 57 29V20ZM61 22.8284L67.1716 29H61V22.8284Z" fill="#0F1D2E"/>
<path fill-rule="evenodd" clip-rule="evenodd" d="M30 26C30 24.8954 30.8954 24 32 24H42C43.1046 24 44 24.8954 44 26C44 27.1046 43.1046 28 42 28H32C30.8954 28 30 27.1046 30 26Z" fill="#0F1D2E"/>
<path fill-rule="evenodd" clip-rule="evenodd" d="M30 50C30 48.8954 30.8954 48 32 48H56C57.1046 48 58 48.8954 58 50C58 51.1046 57.1046 52 56 52H32C30.8954 52 30 51.1046 30 50Z" fill="#0F1D2E"/>
<path fill-rule="evenodd" clip-rule="evenodd" d="M30 58C30 56.8954 30.8954 56 32 56H56C57.1046 56 58 56.8954 58 58C58 59.1046 57.1046 60 56 60H32C30.8954 60 30 59.1046 30 58Z" fill="#0F1D2E"/>
<path fill-rule="evenodd" clip-rule="evenodd" d="M30 66C30 64.8954 30.8954 64 32 64H44C45.1046 64 46 64.8954 46 66C46 67.1046 45.1046 68 44 68H32C30.8954 68 30 67.1046 30 66Z" fill="#0F1D2E"/>
</svg>
