<svg width="96" height="96" viewBox="0 0 96 96" fill="none" xmlns="http://www.w3.org/2000/svg">
<path d="M75 32H61V34H75V32Z" fill="#002341"/>
<path d="M53 37.88H75V39.88H53V37.88Z" fill="#002341"/>
<path d="M75 60H61V62H75V60Z" fill="#002341"/>
<path d="M53 44H75V46H53V44Z" fill="#002341"/>
<path d="M75 52H61V54H75V52Z" fill="#002341"/>
<path fill-rule="evenodd" clip-rule="evenodd" d="M53 28H59V34H53V28ZM55 32H57V30H55V32Z" fill="#002341"/>
<path fill-rule="evenodd" clip-rule="evenodd" d="M83 20H77V16H41V43.25L37.34 45.29C35.61 46.33 33.4 48.67 32.43 50.2C31.9586 50.9421 31.4109 51.8365 30.827 52.7903L30.57 53.21L30.5347 53.2679C28.7546 56.188 26.0929 60.5545 25.03 61.23C23.55 62.17 21.85 62.55 21 62.68V60H13V62H19V82H13V84H21V80H30.79C33.47 80 36.03 79.1 38.1 77.45C38.96 78.22 40.64 79.47 42.4 79.47C42.7 79.47 43 79.43 43.3 79.35C44.59 79 45.55 77.94 46.17 76.17C47.03 76.43 48.24 76.57 49.42 75.92C51.3 74.88 52.28 72.2 52.36 67.99H83V20ZM43 18H75V20H47V57.47L43 60.79V18ZM21 78V64.7C21.89 64.58 24.12 64.17 26.1 62.91C27.46 62.05 29.51 58.77 32.27 54.24C32.94 53.14 33.57 52.11 34.11 51.27C35.03 49.82 37.07 47.79 38.34 47.02L41 45.54V62.45L39.51 63.69C39.09 64.04 39.03 64.68 39.39 65.1C39.75 65.52 40.38 65.58 40.8 65.22L52.39 55.6C55.42 53.07 56.89 53.89 57.13 54.06C57.51 54.54 57.54 55.33 54.52 58.41L48.9 64.33L37.57 75.26C35.74 77.02 33.34 78 30.8 78H21ZM48.46 74.17C47.4 74.77 46.07 73.97 46.06 73.96C45.79 73.79 45.45 73.76 45.15 73.88C44.85 74 44.63 74.26 44.56 74.58C44.29 75.73 43.77 77.15 42.8 77.42C41.8 77.69 40.44 76.79 39.6 76.08L47.98 67.99H50.38C50.29 72.45 49.16 73.78 48.47 74.16L48.46 74.17ZM80.99 66H50.04L50.3 65.75L55.94 59.81C58.41 57.29 60.47 54.85 58.51 52.63L58.5078 52.628C58.3701 52.5024 55.7926 50.1528 51.09 54.07L48.99 55.81V22H80.99V66Z" fill="#002341"/>
</svg>
