<svg width="96" height="96" viewBox="0 0 96 96" fill="none" xmlns="http://www.w3.org/2000/svg">
<path fill-rule="evenodd" clip-rule="evenodd" d="M43.41 45.58C43.41 43.34 41.97 41.92 39.65 41.92V41.93H35.36V53.12H37.44V49.23H39.41C41.97 49.23 43.41 47.82 43.41 45.58ZM41.28 45.58C41.28 46.88 40.53 47.6 39.09 47.6L39.1 47.59H37.45V43.69H39.3C40.53 43.69 41.28 44.28 41.28 45.58Z" fill="#002341"/>
<path fill-rule="evenodd" clip-rule="evenodd" d="M45.25 53.12V41.93H49.36C52.93 41.93 54.81 44.2 54.81 47.48C54.81 50.76 52.83 53.12 49.09 53.12H45.25ZM49.07 51.25C51.47 51.25 52.65 49.76 52.65 47.51C52.65 45.26 51.58 43.8 49.19 43.8H47.32V51.25H49.07Z" fill="#002341"/>
<path d="M59.04 43.73H64.17V41.92H56.96V53.11H59.04V48.17H63.84V46.46H59.04V43.73Z" fill="#002341"/>
<path fill-rule="evenodd" clip-rule="evenodd" d="M24 82.3H75.68V13H24V82.3ZM73.68 80.3H26V15H73.68V80.3Z" fill="#002341"/>
</svg>
