<svg width="32" height="32" viewBox="0 0 32 32" fill="none" xmlns="http://www.w3.org/2000/svg">
<path fill-rule="evenodd" clip-rule="evenodd" d="M2.5 29H18.5C19.3284 29 20 28.3284 20 27.5V24.2963V12.4615V11.5C20 10.6716 19.3284 10 18.5 10H15.5C14.6716 10 14 9.32843 14 8.5V5.5C14 4.67157 13.3284 4 12.5 4H2.5C1.67157 4 1 4.67157 1 5.5V27.5C1 28.3284 1.67157 29 2.5 29ZM9.625 12.5146C9.625 13.9033 8.50612 15.0293 7.12467 15.0293C5.74388 15.0293 4.625 13.9033 4.625 12.5146C4.625 11.126 5.74388 10 7.12467 10C8.50612 10 9.625 11.126 9.625 12.5146ZM3.98135 22.3058C3.67025 22.3058 3.49582 21.9474 3.68776 21.7026L7.22899 17.1857C7.37978 16.9933 7.6717 16.9955 7.81958 17.1901L8.99302 18.734C9.13933 18.9265 9.42729 18.9311 9.57967 18.7434L12.7259 14.8671C12.878 14.6798 13.1653 14.6839 13.3119 14.8756L18.5362 21.7061C18.7239 21.9516 18.5489 22.3058 18.2399 22.3058H3.98135Z" fill="#D6DDE6"/>
<path fill-rule="evenodd" clip-rule="evenodd" d="M3 3.5C2.72386 3.5 2.5 3.72386 2.5 4V27C2.5 27.2761 2.72386 27.5 3 27.5H20C20.2761 27.5 20.5 27.2761 20.5 27V9.41421C20.5 9.28161 20.4473 9.15443 20.3536 9.06066L14.9393 3.64645C14.8456 3.55268 14.7184 3.5 14.5858 3.5H3ZM1.5 4C1.5 3.17157 2.17157 2.5 3 2.5H14.5858C14.9836 2.5 15.3651 2.65804 15.6464 2.93934L21.0607 8.35355C21.342 8.63486 21.5 9.01639 21.5 9.41421V27C21.5 27.8284 20.8284 28.5 20 28.5H3C2.17157 28.5 1.5 27.8284 1.5 27V4Z" fill="#788FAB"/>
<path fill-rule="evenodd" clip-rule="evenodd" d="M15 3C15.2761 3 15.5 3.22386 15.5 3.5V8C15.5 8.27614 15.7239 8.5 16 8.5H20.5C20.7761 8.5 21 8.72386 21 9C21 9.27614 20.7761 9.5 20.5 9.5H16C15.1716 9.5 14.5 8.82843 14.5 8V3.5C14.5 3.22386 14.7239 3 15 3Z" fill="#788FAB"/>
<path fill-rule="evenodd" clip-rule="evenodd" d="M6.65467 11.5557C5.83971 11.5557 5.17511 12.2209 5.17511 13.0466C5.17511 13.8723 5.83971 14.5375 6.65467 14.5375C7.4702 14.5375 8.13472 13.8722 8.13472 13.0466C8.13472 12.221 7.4702 11.5557 6.65467 11.5557ZM4.34473 13.0466C4.34473 11.7671 5.37635 10.7253 6.65467 10.7253C7.93342 10.7253 8.96511 11.767 8.96511 13.0466C8.96511 14.3262 7.93342 15.3679 6.65467 15.3679C5.37635 15.3679 4.34473 14.3262 4.34473 13.0466Z" fill="#788FAB"/>
<path fill-rule="evenodd" clip-rule="evenodd" d="M12.4062 14.6055C12.7275 14.2096 13.3345 14.2183 13.6443 14.6234L18.8703 21.4561C19.267 21.9748 18.8972 22.7232 18.2442 22.7232H3.98112C3.32377 22.7232 2.95521 21.966 3.36079 21.4487L6.90327 16.9302C7.22188 16.5238 7.83869 16.5284 8.15116 16.9395L9.29264 18.4414L12.4062 14.6055ZM13.0172 15.1703L9.90357 19.0064C9.5816 19.403 8.97313 19.3933 8.66399 18.9866L7.52308 17.4854L4.0677 21.8929H18.1589L13.0172 15.1703Z" fill="#788FAB"/>
</svg>
