<svg width="96" height="96" viewBox="0 0 96 96" fill="none" xmlns="http://www.w3.org/2000/svg">
<path d="M72 30.3214V78H24V18H58.3636L72 30.3214Z" fill="#8FC1FF"/>
<path fill-rule="evenodd" clip-rule="evenodd" d="M22 20C22 17.7909 23.7909 16 26 16H59C59.5304 16 60.0391 16.2107 60.4142 16.5858L73.4142 29.5858C73.7893 29.9609 74 30.4696 74 31V76C74 78.2091 72.2091 80 70 80H26C23.7909 80 22 78.2091 22 76V20ZM57 20L26 20V76H70V33H61C58.7909 33 57 31.2091 57 29V20ZM61 22.8284L67.1716 29H61V22.8284Z" fill="#0F1D2E"/>
</svg>
