<svg width="96" height="96" viewBox="0 0 96 96" fill="none" xmlns="http://www.w3.org/2000/svg">
<path fill-rule="evenodd" clip-rule="evenodd" d="M51.34 41.9301C51.34 43.86 49.77 45.4301 47.84 45.4301C45.91 45.4301 44.34 43.86 44.34 41.9301C44.34 40 45.91 38.4301 47.84 38.4301C49.77 38.4301 51.34 40 51.34 41.9301ZM49.34 41.92C49.34 41.09 48.67 40.42 47.84 40.42C47.01 40.42 46.34 41.09 46.34 41.92C46.34 42.75 47.01 43.42 47.84 43.42C48.67 43.42 49.34 42.75 49.34 41.92Z" fill="#002341"/>
<path fill-rule="evenodd" clip-rule="evenodd" d="M33.44 59.6899H62.24C63.89 59.6899 65.24 58.3401 65.24 56.6899V38.61C65.24 36.96 63.89 35.61 62.24 35.61H33.44C31.79 35.61 30.44 36.96 30.44 38.61V56.6899C30.44 58.3401 31.79 59.6899 33.44 59.6899ZM62.24 57.6899H33.44C33.01 57.6899 32.65 57.4199 32.51 57.04L41.19 47.89L47.91 54.25L56.11 44.75L63.24 53.1801V56.7C63.24 57.25 62.79 57.7 62.24 57.7V57.6899ZM33.44 37.61H62.24C62.79 37.61 63.24 38.0601 63.24 38.61V50.0699L56.12 41.66L47.76 51.35L41.11 45.0601L32.44 54.21V38.61C32.44 38.0601 32.89 37.61 33.44 37.61Z" fill="#002341"/>
<path fill-rule="evenodd" clip-rule="evenodd" d="M22 13V82.3H73.68V13H22ZM71.68 80.3H24V15H71.68V80.3Z" fill="#002341"/>
</svg>
