<svg width="96" height="96" viewBox="0 0 96 96" fill="none" xmlns="http://www.w3.org/2000/svg">
<path d="M26 68H62V76H18V20H49.5L62 31.5V40H26V68Z" fill="#8FC1FF"/>
<path fill-rule="evenodd" clip-rule="evenodd" d="M16 22C16 19.7909 17.7909 18 20 18H50C50.5304 18 51.0391 18.2107 51.4142 18.5858L63.4142 30.5858C63.7893 30.9609 64 31.4696 64 32V40C64 41.1046 63.1046 42 62 42C60.8954 42 60 41.1046 60 40V34H52C49.7909 34 48 32.2091 48 30V22L20 22V74H60V68C60 66.8954 60.8954 66 62 66C63.1046 66 64 66.8954 64 68V74C64 76.2091 62.2091 78 60 78H20C17.7909 78 16 76.2091 16 74V22ZM52 24.8284L57.1716 30H52V24.8284Z" fill="#0F1D2E"/>
<path fill-rule="evenodd" clip-rule="evenodd" d="M24 44C24 40.6863 26.6863 38 30 38H72C75.3137 38 78 40.6863 78 44V64C78 67.3137 75.3137 70 72 70H30C26.6863 70 24 67.3137 24 64V44ZM30 42C28.8954 42 28 42.8954 28 44V64C28 65.1046 28.8954 66 30 66H72C73.1046 66 74 65.1046 74 64V44C74 42.8954 73.1046 42 72 42H30Z" fill="#0F1D2E"/>
<path fill-rule="evenodd" clip-rule="evenodd" d="M33.8908 46.3359C34.8099 45.7232 36.0516 45.9715 36.6643 46.8906L39.0002 50.3944L41.3361 46.8906C41.9488 45.9715 43.1906 45.7232 44.1096 46.3359C45.0287 46.9486 45.277 48.1903 44.6643 49.1094L41.4039 54L44.6643 58.8906C45.277 59.8097 45.0287 61.0514 44.1096 61.6641C43.1906 62.2768 41.9488 62.0285 41.3361 61.1094L39.0002 57.6056L36.6643 61.1094C36.0516 62.0285 34.8099 62.2768 33.8908 61.6641C32.9718 61.0514 32.7234 59.8097 33.3361 58.8906L36.5965 54L33.3361 49.1094C32.7234 48.1903 32.9718 46.9486 33.8908 46.3359Z" fill="#0F1D2E"/>
<path fill-rule="evenodd" clip-rule="evenodd" d="M49 46C50.1046 46 51 46.8954 51 48V58H55C56.1046 58 57 58.8954 57 60C57 61.1046 56.1046 62 55 62H49C47.8954 62 47 61.1046 47 60V48C47 46.8954 47.8954 46 49 46Z" fill="#0F1D2E"/>
<path fill-rule="evenodd" clip-rule="evenodd" d="M60.1 47.3735C61.133 46.4389 62.5132 46 63.9994 46C66.083 46 68.2015 46.6963 69.6643 48.8906C70.277 49.8097 70.0287 51.0514 69.1096 51.6641C68.1906 52.2768 66.9488 52.0285 66.3361 51.1094C65.799 50.3037 65.1149 50 63.9995 50C63.2869 50 62.9342 50.2035 62.7838 50.3396C62.6468 50.4635 62.5335 50.6566 62.5335 50.9979C62.5335 51.2389 62.6268 51.4491 62.8349 51.6292C63.0555 51.8202 63.4437 52 63.9995 52C65.5757 52 67.0442 52.405 68.167 53.2801C69.3247 54.1823 70.0002 55.5067 70.0002 57C70.0002 58.5659 69.3761 59.9497 68.1139 60.8675C66.9506 61.7134 65.4697 62 63.9995 62C62.0525 62 59.8101 61.3204 58.3361 59.1094C57.7234 58.1903 57.9718 56.9486 58.8908 56.3359C59.8099 55.7232 61.0516 55.9715 61.6643 56.8906C62.1903 57.6796 62.97 58 63.9995 58C65.0299 58 65.5495 57.7866 65.7614 57.6325C65.8513 57.5671 65.8944 57.5082 65.9232 57.4482C65.9547 57.3825 66.0002 57.2479 66.0002 57C66.0002 56.7802 65.9257 56.6046 65.7082 56.4351C65.4558 56.2384 64.9239 56 63.9995 56C61.2009 56 58.5335 54.0768 58.5335 50.9979C58.5335 49.6261 59.0538 48.3203 60.1 47.3735Z" fill="#0F1D2E"/>
</svg>
