<svg width="96" height="96" viewBox="0 0 96 96" fill="none" xmlns="http://www.w3.org/2000/svg">
<path d="M31 68H62V76H18V20H49.5L62 31.5V40H31V68Z" fill="#8FC1FF"/>
<path fill-rule="evenodd" clip-rule="evenodd" d="M16 22C16 19.7909 17.7909 18 20 18H50C50.5304 18 51.0391 18.2107 51.4142 18.5858L63.4142 30.5858C63.7893 30.9609 64 31.4696 64 32V40C64 41.1046 63.1046 42 62 42C60.8954 42 60 41.1046 60 40V34H52C49.7909 34 48 32.2091 48 30V22L20 22V74H60V68C60 66.8954 60.8954 66 62 66C63.1046 66 64 66.8954 64 68V74C64 76.2091 62.2091 78 60 78H20C17.7909 78 16 76.2091 16 74V22ZM52 24.8284L57.1716 30H52V24.8284Z" fill="#0F1D2E"/>
<path fill-rule="evenodd" clip-rule="evenodd" d="M29 44C29 40.6863 31.6863 38 35 38H70C73.3137 38 76 40.6863 76 44V64C76 67.3137 73.3137 70 70 70H35C31.6863 70 29 67.3137 29 64V44ZM35 42C33.8954 42 33 42.8954 33 44V64C33 65.1046 33.8954 66 35 66H70C71.1046 66 72 65.1046 72 64V44C72 42.8954 71.1046 42 70 42H35Z" fill="#0F1D2E"/>
<path fill-rule="evenodd" clip-rule="evenodd" d="M61 50.0359V52.9789C61.245 52.9705 61.4816 52.9589 61.7103 52.9427C62.5187 52.8854 63.0887 52.7785 63.4755 52.6312C63.8313 52.4956 63.9129 52.3735 63.9417 52.3229C63.9815 52.253 64.1065 51.9768 64.0154 51.2481C63.9766 50.9374 63.8792 50.8073 63.7877 50.7197C63.6617 50.5989 63.412 50.4421 62.9383 50.3073C62.3887 50.151 61.7353 50.0738 61 50.0359ZM61 56.9808C61.3361 56.9708 61.6688 56.9556 61.9928 56.9327C62.9501 56.8649 63.9738 56.7218 64.8995 56.3691C65.8562 56.0046 66.8059 55.3766 67.4177 54.3022C68.0185 53.247 68.1435 52.0233 67.9846 50.7519C67.8373 49.5741 67.3417 48.5849 66.5546 47.831C65.802 47.1101 64.8874 46.7031 64.0326 46.4599C62.4143 45.9996 60.4997 45.9998 59.0792 46C59.0527 46 59.0262 46 59 46C57.8954 46 57 46.8954 57 48V60C57 61.1046 57.8954 62 59 62C60.1046 62 61 61.1046 61 60V56.9808Z" fill="#0F1D2E"/>
<path fill-rule="evenodd" clip-rule="evenodd" d="M52 46C53.1046 46 54 46.8954 54 48V59.9998C54 61.1043 53.1046 61.9998 52 61.9998C50.8954 61.9998 50 61.1043 50 59.9998V48C50 46.8954 50.8954 46 52 46Z" fill="#0F1D2E"/>
<path fill-rule="evenodd" clip-rule="evenodd" d="M38 48C38 46.8954 38.8954 46 40 46H45C45.6687 46 46.2932 46.3342 46.6641 46.8906C47.035 47.447 47.1034 48.152 46.8462 48.7692L43 57.9999L46.0001 58C47.1047 58 48 58.8955 48 60.0001C48 61.1046 47.1045 62 45.9999 62L39.9999 61.9998C39.3312 61.9997 38.7068 61.6655 38.3359 61.1091C37.965 60.5527 37.8967 59.8478 38.1539 59.2305L42 50H40C38.8954 50 38 49.1046 38 48Z" fill="#0F1D2E"/>
</svg>
