<svg width="96" height="96" viewBox="0 0 96 96" fill="none" xmlns="http://www.w3.org/2000/svg">
<path d="M26 68H62V76H18V20H49.5L62 31.5V40H26V68Z" fill="#8FC1FF"/>
<path fill-rule="evenodd" clip-rule="evenodd" d="M16 22C16 19.7909 17.7909 18 20 18H50C50.5304 18 51.0391 18.2107 51.4142 18.5858L63.4142 30.5858C63.7893 30.9609 64 31.4696 64 32V40C64 41.1046 63.1046 42 62 42C60.8954 42 60 41.1046 60 40V34H52C49.7909 34 48 32.2091 48 30V22L20 22V74H60V68C60 66.8954 60.8954 66 62 66C63.1046 66 64 66.8954 64 68V74C64 76.2091 62.2091 78 60 78H20C17.7909 78 16 76.2091 16 74V22ZM52 24.8284L57.1716 30H52V24.8284Z" fill="#0F1D2E"/>
<path fill-rule="evenodd" clip-rule="evenodd" d="M65 48C65 46.8954 65.8954 46 67 46H74C75.1046 46 76 46.8954 76 48C76 49.1046 75.1046 50 74 50H69V51.9999H72C73.1046 51.9999 74 52.8953 74 53.9999C74 55.1045 73.1046 55.9999 72 55.9999H69V59.9998C69 61.1043 68.1046 61.9998 67 61.9998C65.8954 61.9998 65 61.1043 65 59.9998V48Z" fill="#0F1D2E"/>
<path fill-rule="evenodd" clip-rule="evenodd" d="M52 48C52 46.8954 52.8954 46 54 46H61C62.1046 46 63 46.8954 63 48C63 49.1046 62.1046 50 61 50H56V51.9999H59C60.1046 51.9999 61 52.8953 61 53.9999C61 55.1045 60.1046 55.9999 59 55.9999H56V59.9998C56 61.1043 55.1046 61.9998 54 61.9998C52.8954 61.9998 52 61.1043 52 59.9998V48Z" fill="#0F1D2E"/>
<path fill-rule="evenodd" clip-rule="evenodd" d="M47 46C48.1046 46 49 46.8954 49 48V59.9998C49 61.1043 48.1046 61.9998 47 61.9998C45.8954 61.9998 45 61.1043 45 59.9998V48C45 46.8954 45.8954 46 47 46Z" fill="#0F1D2E"/>
<path fill-rule="evenodd" clip-rule="evenodd" d="M31 48C31 46.8954 31.8954 46 33 46H41C42.1046 46 43 46.8954 43 48C43 49.1046 42.1046 50 41 50H39V59.9998C39 61.1043 38.1046 61.9998 37 61.9998C35.8954 61.9998 35 61.1043 35 59.9998V50H33C31.8954 50 31 49.1046 31 48Z" fill="#0F1D2E"/>
<path fill-rule="evenodd" clip-rule="evenodd" d="M24 44C24 40.6863 26.6863 38 30 38H78C81.3137 38 84 40.6863 84 44V64C84 67.3137 81.3137 70 78 70H30C26.6863 70 24 67.3137 24 64V44ZM30 42C28.8954 42 28 42.8954 28 44V64C28 65.1046 28.8954 66 30 66H78C79.1046 66 80 65.1046 80 64V44C80 42.8954 79.1046 42 78 42H30Z" fill="#0F1D2E"/>
</svg>
