<svg width="96" height="96" viewBox="0 0 96 96" fill="none" xmlns="http://www.w3.org/2000/svg">
<path d="M31 68H62V76H18V20H49.5L62 31.5V40H31V68Z" fill="#8FC1FF"/>
<path fill-rule="evenodd" clip-rule="evenodd" d="M16 22C16 19.7909 17.7909 18 20 18H50C50.5304 18 51.0391 18.2107 51.4142 18.5858L63.4142 30.5858C63.7893 30.9609 64 31.4696 64 32V40C64 41.1046 63.1046 42 62 42C60.8954 42 60 41.1046 60 40V34H52C49.7909 34 48 32.2091 48 30V22L20 22V74H60V68C60 66.8954 60.8954 66 62 66C63.1046 66 64 66.8954 64 68V74C64 76.2091 62.2091 78 60 78H20C17.7909 78 16 76.2091 16 74V22ZM52 24.8284L57.1716 30H52V24.8284Z" fill="#0F1D2E"/>
<path fill-rule="evenodd" clip-rule="evenodd" d="M67.0954 46.7885C69.5514 45.5429 72.5518 45.7932 75.0709 47.3904C76.0038 47.9818 76.2806 49.2176 75.6891 50.1504C75.0977 51.0833 73.8619 51.3601 72.9291 50.7686C71.4482 49.8297 69.9486 49.8265 68.9046 50.3559C67.919 50.8558 67 52.0055 67 54.1508C67 56.0375 67.7922 57.079 68.7435 57.5793C69.543 57.9998 70.6802 58.1527 72 57.8159V57.0639H71C69.8954 57.0639 69 56.1685 69 55.0639C69 53.9594 69.8954 53.0639 71 53.0639H74C75.1046 53.0639 76 53.9594 76 55.0639V59.2227C76 60.0093 75.539 60.7228 74.8219 61.046C72.1389 62.2555 69.2275 62.3534 66.8815 61.1195C64.4578 59.8448 63 57.3361 63 54.1508C63 50.7177 64.581 48.0637 67.0954 46.7885Z" fill="#0F1D2E"/>
<path fill-rule="evenodd" clip-rule="evenodd" d="M29 44C29 40.6863 31.6863 38 35 38H77C80.3137 38 83 40.6863 83 44V64C83 67.3137 80.3137 70 77 70H35C31.6863 70 29 67.3137 29 64V44ZM35 42C33.8954 42 33 42.8954 33 44V64C33 65.1046 33.8954 66 35 66H77C78.1046 66 79 65.1046 79 64V44C79 42.8954 78.1046 42 77 42H35Z" fill="#0F1D2E"/>
<path fill-rule="evenodd" clip-rule="evenodd" d="M54 50.0359V52.9789C54.245 52.9705 54.4816 52.9589 54.7103 52.9427C55.5187 52.8854 56.0887 52.7785 56.4755 52.6312C56.8313 52.4956 56.9129 52.3735 56.9417 52.3229C56.9815 52.253 57.1065 51.9768 57.0154 51.2481C56.9766 50.9374 56.8792 50.8073 56.7877 50.7197C56.6617 50.5989 56.412 50.4421 55.9383 50.3073C55.3887 50.151 54.7353 50.0738 54 50.0359ZM54 56.9808C54.3361 56.9708 54.6688 56.9556 54.9928 56.9327C55.9501 56.8649 56.9738 56.7218 57.8995 56.3691C58.8562 56.0046 59.8059 55.3766 60.4177 54.3022C61.0185 53.247 61.1435 52.0233 60.9846 50.7519C60.8373 49.5741 60.3417 48.5849 59.5546 47.831C58.802 47.1101 57.8874 46.7031 57.0326 46.4599C55.4143 45.9996 53.4997 45.9998 52.0792 46C52.0527 46 52.0262 46 52 46C50.8954 46 50 46.8954 50 48V60C50 61.1046 50.8954 62 52 62C53.1046 62 54 61.1046 54 60V56.9808Z" fill="#0F1D2E"/>
<path fill-rule="evenodd" clip-rule="evenodd" d="M43.9999 46C45.1045 46 45.9999 46.8954 45.9999 48H43.9999H41.9999C41.9999 46.8954 42.8953 46 43.9999 46ZM43.9999 48H41.9999V57.2308C41.9999 57.5597 41.8985 57.7117 41.8341 57.7763C41.7788 57.8317 41.576 58 40.9999 58C40.651 58 40.4447 57.9594 40.3333 57.926C40.232 57.8955 40.1935 57.8666 40.1784 57.8546C40.1119 57.802 40.0358 57.7133 39.7585 57.2013C39.2324 56.23 38.0186 55.8692 37.0473 56.3953C36.0761 56.9214 35.7152 58.1352 36.2413 59.1064C36.2528 59.1276 36.2648 59.1499 36.2773 59.1732C36.5087 59.6029 36.9296 60.3848 37.6964 60.9915C38.576 61.6874 39.6775 62 40.9999 62C42.4238 62 43.7209 61.5484 44.6657 60.6015C45.6013 59.6638 45.9999 58.4312 45.9999 57.2308V48H43.9999Z" fill="#0F1D2E"/>
</svg>
