<svg width="96" height="96" viewBox="0 0 96 96" fill="none" xmlns="http://www.w3.org/2000/svg">
<path d="M31.81 70.54V68.54H63.93V70.54H31.81Z" fill="#002341"/>
<path d="M63.93 61.78V59.78H31.81V61.78H63.93Z" fill="#002341"/>
<path d="M56.31 31.29H39.42V33.29H56.31V31.29Z" fill="#002341"/>
<path d="M39.42 36.82H56.31V38.82H39.42V36.82Z" fill="#002341"/>
<path fill-rule="evenodd" clip-rule="evenodd" d="M47.86 18.56C56.95 18.56 64.35 25.96 64.35 35.05H64.36C64.36 44.14 56.96 51.54 47.87 51.54H31.38V35.05C31.38 25.96 38.77 18.56 47.86 18.56ZM47.87 20.56C39.88 20.56 33.38 27.06 33.38 35.05V49.54H47.87C55.86 49.54 62.36 43.04 62.36 35.05C62.36 27.06 55.86 20.56 47.87 20.56Z" fill="#002341"/>
<path fill-rule="evenodd" clip-rule="evenodd" d="M22 79.3V10H73.68V79.3H22ZM24 77.3H71.68V12H24V77.3Z" fill="#002341"/>
</svg>
