<svg width="32" height="32" viewBox="0 0 32 32" fill="none" xmlns="http://www.w3.org/2000/svg">
<path d="M7.5 29H23.5C24.3284 29 25 28.3284 25 27.5V24.2963V12.4615V11.5C25 10.6716 24.3284 10 23.5 10H20.5C19.6716 10 19 9.32843 19 8.5V5.5C19 4.67157 18.3284 4 17.5 4H7.5C6.67157 4 6 4.67157 6 5.5V27.5C6 28.3284 6.67157 29 7.5 29Z" fill="#D6DDE6"/>
<path fill-rule="evenodd" clip-rule="evenodd" d="M8 3.5C7.72386 3.5 7.5 3.72386 7.5 4V27C7.5 27.2761 7.72386 27.5 8 27.5H25C25.2761 27.5 25.5 27.2761 25.5 27V9.41421C25.5 9.28161 25.4473 9.15443 25.3536 9.06066L19.9393 3.64645C19.8456 3.55268 19.7184 3.5 19.5858 3.5H8ZM6.5 4C6.5 3.17157 7.17157 2.5 8 2.5H19.5858C19.9836 2.5 20.3651 2.65804 20.6464 2.93934L26.0607 8.35355C26.342 8.63486 26.5 9.01639 26.5 9.41421V27C26.5 27.8284 25.8284 28.5 25 28.5H8C7.17157 28.5 6.5 27.8284 6.5 27V4Z" fill="#788FAB"/>
<path fill-rule="evenodd" clip-rule="evenodd" d="M20 3C20.2761 3 20.5 3.22386 20.5 3.5V8C20.5 8.27614 20.7239 8.5 21 8.5H25.5C25.7761 8.5 26 8.72386 26 9C26 9.27614 25.7761 9.5 25.5 9.5H21C20.1716 9.5 19.5 8.82843 19.5 8V3.5C19.5 3.22386 19.7239 3 20 3Z" fill="#788FAB"/>
</svg>
