<svg width="96" height="96" viewBox="0 0 96 96" fill="none" xmlns="http://www.w3.org/2000/svg">
<path fill-rule="evenodd" clip-rule="evenodd" d="M20 12V81.3H71.68V12H20ZM69.68 79.3H22V14H69.68V79.3ZM61.9 70.91H29.78V72.91H61.9V70.91ZM29.78 62.16H61.9V64.16H29.78V62.16ZM36.53 53.98H55.15C56.8 53.98 58.15 52.63 58.15 50.98V34.56C58.15 32.91 56.8 31.56 55.15 31.56H41.02C41.1 30.1 41.46 27.33 43 25.72C43.79 24.9 44.78 24.51 46.02 24.51C50.53 24.51 50.69 29.28 50.69 29.82H52.69C52.69 27.29 51.3 22.51 46.02 22.51C44.22 22.51 42.72 23.13 41.55 24.34C39.52 26.46 39.09 29.86 39.01 31.56H36.53C34.88 31.56 33.53 32.91 33.53 34.56V50.98C33.53 52.63 34.88 53.98 36.53 53.98ZM35.53 34.56C35.53 34.01 35.98 33.56 36.53 33.56H55.15C55.7 33.56 56.15 34.01 56.15 34.56V50.98C56.15 51.53 55.7 51.98 55.15 51.98H36.53C35.98 51.98 35.53 51.53 35.53 50.98V34.56ZM44.84 39.46H46.84V46.09H44.84V39.46Z" fill="#002341"/>
</svg>
