<svg width="32" height="32" viewBox="0 0 32 32" fill="none" xmlns="http://www.w3.org/2000/svg">
<path d="M11.8301 14H14.0301C14.3901 14 14.7201 14.0333 15.0201 14.1C15.3267 14.1667 15.5901 14.28 15.8101 14.44C16.0301 14.6 16.2034 14.81 16.3301 15.07C16.4567 15.3233 16.5201 15.64 16.5201 16.02C16.5201 16.38 16.4567 16.6933 16.3301 16.96C16.2034 17.2267 16.0267 17.45 15.8001 17.63C15.5801 17.8033 15.3167 17.9333 15.0101 18.02C14.7101 18.1 14.3834 18.14 14.0301 18.14H12.9901V20.54H11.8301V14ZM13.9401 17.21C14.9001 17.21 15.3801 16.8133 15.3801 16.02C15.3801 15.6067 15.2601 15.3233 15.0201 15.17C14.7801 15.01 14.4201 14.93 13.9401 14.93H12.9901V17.21H13.9401Z" fill="#788FAB"/>
<path d="M17.748 14H19.498C20.498 14 21.278 14.27 21.838 14.81C22.398 15.35 22.678 16.16 22.678 17.24C22.678 17.78 22.6047 18.2567 22.458 18.67C22.318 19.0833 22.1114 19.43 21.838 19.71C21.5714 19.9833 21.2447 20.19 20.858 20.33C20.478 20.47 20.0447 20.54 19.558 20.54H17.748V14ZM19.418 19.6C20.0847 19.6 20.5947 19.41 20.948 19.03C21.308 18.6433 21.488 18.0467 21.488 17.24C21.488 16.44 21.308 15.8567 20.948 15.49C20.588 15.1233 20.078 14.94 19.418 14.94H18.908V19.6H19.418Z" fill="#788FAB"/>
<path d="M23.998 14H27.948V14.98H25.158V16.83H27.538V17.81H25.158V20.54H23.998V14Z" fill="#788FAB"/>
<path d="M2.5 29H19.5C20.3284 29 21 28.3284 21 27.5V25.6324C21 24.7946 20.3137 24.1192 19.4759 24.1326L9.31353 24.2956C8.4758 24.309 7.78947 23.6336 7.78947 22.7957V13.3C7.78947 12.4716 8.46105 11.8 9.28947 11.8H19.5C20.3284 11.8 21 11.1284 21 10.3V9.86663C21 9.46567 20.8395 9.08139 20.5542 8.79959L15.1224 3.43296C14.8417 3.15556 14.4629 3 14.0682 3H11H2.5C1.67157 3 1 3.67157 1 4.5V27.5C1 28.3284 1.67157 29 2.5 29Z" fill="#D6DDE6"/>
<path fill-rule="evenodd" clip-rule="evenodd" d="M8.5 13C8.5 12.1716 9.17157 11.5 10 11.5H29C29.8284 11.5 30.5 12.1716 30.5 13V22C30.5 22.8284 29.8284 23.5 29 23.5H10C9.17157 23.5 8.5 22.8284 8.5 22V13ZM10 12.5C9.72386 12.5 9.5 12.7239 9.5 13V22C9.5 22.2761 9.72386 22.5 10 22.5H29C29.2761 22.5 29.5 22.2761 29.5 22V13C29.5 12.7239 29.2761 12.5 29 12.5H10Z" fill="#788FAB"/>
<path fill-rule="evenodd" clip-rule="evenodd" d="M3 3.5C2.72386 3.5 2.5 3.72386 2.5 4V27C2.5 27.2761 2.72386 27.5 3 27.5H20C20.2761 27.5 20.5 27.2761 20.5 27V24.2963C20.5 24.0202 20.7239 23.7963 21 23.7963C21.2761 23.7963 21.5 24.0202 21.5 24.2963V27C21.5 27.8284 20.8284 28.5 20 28.5H3C2.17157 28.5 1.5 27.8284 1.5 27V4C1.5 3.17157 2.17157 2.5 3 2.5H14.5858C14.9836 2.5 15.3651 2.65804 15.6464 2.93934L21.0607 8.35355C21.342 8.63486 21.5 9.01639 21.5 9.41421V10.5C21.5 10.7761 21.2761 11 21 11C20.7239 11 20.5 10.7761 20.5 10.5V9.41421C20.5 9.2816 20.4473 9.15443 20.3536 9.06066L14.9393 3.64645C14.8456 3.55268 14.7184 3.5 14.5858 3.5H3Z" fill="#788FAB"/>
<path fill-rule="evenodd" clip-rule="evenodd" d="M15 3C15.2761 3 15.5 3.22386 15.5 3.5V8C15.5 8.27614 15.7239 8.5 16 8.5H20.5C20.7761 8.5 21 8.72386 21 9C21 9.27614 20.7761 9.5 20.5 9.5H16C15.1716 9.5 14.5 8.82843 14.5 8V3.5C14.5 3.22386 14.7239 3 15 3Z" fill="#788FAB"/>
</svg>
