<svg width="96" height="96" viewBox="0 0 96 96" fill="none" xmlns="http://www.w3.org/2000/svg">
<path d="M31 68H62V76H18V20H49.5L62 31.5V40H31V68Z" fill="#8FC1FF"/>
<path fill-rule="evenodd" clip-rule="evenodd" d="M16 22C16 19.7909 17.7909 18 20 18H50C50.5304 18 51.0391 18.2107 51.4142 18.5858L63.4142 30.5858C63.7893 30.9609 64 31.4696 64 32V40C64 41.1046 63.1046 42 62 42C60.8954 42 60 41.1046 60 40V34H52C49.7909 34 48 32.2091 48 30V22L20 22V74H60V68C60 66.8954 60.8954 66 62 66C63.1046 66 64 66.8954 64 68V74C64 76.2091 62.2091 78 60 78H20C17.7909 78 16 76.2091 16 74V22ZM52 24.8284L57.1716 30H52V24.8284Z" fill="#0F1D2E"/>
<path fill-rule="evenodd" clip-rule="evenodd" d="M29 44C29 40.6863 31.6863 38 35 38H77C80.3137 38 83 40.6863 83 44V64C83 67.3137 80.3137 70 77 70H35C31.6863 70 29 67.3137 29 64V44ZM35 42C33.8954 42 33 42.8954 33 44V64C33 65.1046 33.8954 66 35 66H77C78.1046 66 79 65.1046 79 64V44C79 42.8954 78.1046 42 77 42H35Z" fill="#0F1D2E"/>
<path fill-rule="evenodd" clip-rule="evenodd" d="M50.8908 46.3359C51.8099 45.7232 53.0516 45.9715 53.6643 46.8906L56.0002 50.3944L58.3361 46.8906C58.9488 45.9715 60.1906 45.7232 61.1096 46.3359C62.0287 46.9486 62.277 48.1903 61.6643 49.1094L58.4039 54L61.6643 58.8906C62.277 59.8097 62.0287 61.0514 61.1096 61.6641C60.1906 62.2768 58.9488 62.0285 58.3361 61.1094L56.0002 57.6056L53.6643 61.1094C53.0516 62.0285 51.8099 62.2768 50.8908 61.6641C49.9718 61.0514 49.7234 59.8097 50.3361 58.8906L53.5965 54L50.3361 49.1094C49.7234 48.1903 49.9718 46.9486 50.8908 46.3359Z" fill="#0F1D2E"/>
<path fill-rule="evenodd" clip-rule="evenodd" d="M63 48C63 46.8954 63.8954 46 65 46H73C74.1046 46 75 46.8954 75 48C75 49.1046 74.1046 50 73 50H71V59.9998C71 61.1043 70.1046 61.9998 69 61.9998C67.8954 61.9998 67 61.1043 67 59.9998V50H65C63.8954 50 63 49.1046 63 48Z" fill="#0F1D2E"/>
<path fill-rule="evenodd" clip-rule="evenodd" d="M37 48C37 46.8954 37.8954 46 39 46H47C48.1046 46 49 46.8954 49 48C49 49.1046 48.1046 50 47 50H45V59.9998C45 61.1043 44.1046 61.9998 43 61.9998C41.8954 61.9998 41 61.1043 41 59.9998V50H39C37.8954 50 37 49.1046 37 48Z" fill="#0F1D2E"/>
</svg>
