<svg width="32" height="32" viewBox="0 0 32 32" fill="none" xmlns="http://www.w3.org/2000/svg">
<path d="M11.8301 14H15.7701V14.98H12.9901V16.65H15.3401V17.63H12.9901V19.56H15.8701V20.54H11.8301V14Z" fill="#788FAB"/>
<path d="M18.3709 17.17L16.6309 14H17.9209L18.6409 15.45C18.7209 15.6033 18.7976 15.76 18.8709 15.92C18.9509 16.08 19.0409 16.2567 19.1409 16.45H19.1809C19.2609 16.2567 19.3343 16.08 19.4009 15.92C19.4743 15.76 19.5476 15.6033 19.6209 15.45L20.3109 14H21.5409L19.8009 17.22L21.6609 20.54H20.3709L19.5709 19C19.4843 18.8267 19.3976 18.6567 19.3109 18.49C19.2309 18.3167 19.1409 18.13 19.0409 17.93H19.0009C18.9143 18.13 18.8309 18.3167 18.7509 18.49C18.6776 18.6567 18.6009 18.8267 18.5209 19L17.7409 20.54H16.5109L18.3709 17.17Z" fill="#788FAB"/>
<path d="M22.6211 14H26.5611V14.98H23.7811V16.65H26.1311V17.63H23.7811V19.56H26.6611V20.54H22.6211V14Z" fill="#788FAB"/>
<path d="M2.5 29H19.5C20.3284 29 21 28.3284 21 27.5V25.6324C21 24.7946 20.3137 24.1192 19.4759 24.1326L9.31353 24.2956C8.4758 24.309 7.78947 23.6336 7.78947 22.7957V13.3C7.78947 12.4716 8.46105 11.8 9.28947 11.8H19.5C20.3284 11.8 21 11.1284 21 10.3V9.86663C21 9.46567 20.8395 9.08139 20.5542 8.79959L15.1224 3.43296C14.8417 3.15556 14.4629 3 14.0682 3H11H2.5C1.67157 3 1 3.67157 1 4.5V27.5C1 28.3284 1.67157 29 2.5 29Z" fill="#D6DDE6"/>
<path fill-rule="evenodd" clip-rule="evenodd" d="M8.5 13C8.5 12.1716 9.17157 11.5 10 11.5H29C29.8284 11.5 30.5 12.1716 30.5 13V22C30.5 22.8284 29.8284 23.5 29 23.5H10C9.17157 23.5 8.5 22.8284 8.5 22V13ZM10 12.5C9.72386 12.5 9.5 12.7239 9.5 13V22C9.5 22.2761 9.72386 22.5 10 22.5H29C29.2761 22.5 29.5 22.2761 29.5 22V13C29.5 12.7239 29.2761 12.5 29 12.5H10Z" fill="#788FAB"/>
<path fill-rule="evenodd" clip-rule="evenodd" d="M3 3.5C2.72386 3.5 2.5 3.72386 2.5 4V27C2.5 27.2761 2.72386 27.5 3 27.5H20C20.2761 27.5 20.5 27.2761 20.5 27V24.2963C20.5 24.0202 20.7239 23.7963 21 23.7963C21.2761 23.7963 21.5 24.0202 21.5 24.2963V27C21.5 27.8284 20.8284 28.5 20 28.5H3C2.17157 28.5 1.5 27.8284 1.5 27V4C1.5 3.17157 2.17157 2.5 3 2.5H14.5858C14.9836 2.5 15.3651 2.65804 15.6464 2.93934L21.0607 8.35355C21.342 8.63486 21.5 9.01639 21.5 9.41421V10.5C21.5 10.7761 21.2761 11 21 11C20.7239 11 20.5 10.7761 20.5 10.5V9.41421C20.5 9.2816 20.4473 9.15443 20.3536 9.06066L14.9393 3.64645C14.8456 3.55268 14.7184 3.5 14.5858 3.5H3Z" fill="#788FAB"/>
<path fill-rule="evenodd" clip-rule="evenodd" d="M15 3C15.2761 3 15.5 3.22386 15.5 3.5V8C15.5 8.27614 15.7239 8.5 16 8.5H20.5C20.7761 8.5 21 8.72386 21 9C21 9.27614 20.7761 9.5 20.5 9.5H16C15.1716 9.5 14.5 8.82843 14.5 8V3.5C14.5 3.22386 14.7239 3 15 3Z" fill="#788FAB"/>
</svg>
