<svg width="96" height="96" viewBox="0 0 96 96" fill="none" xmlns="http://www.w3.org/2000/svg">
<path d="M43.27 51.31H38.07V48.12H42.87V46.42H38.07V43.73H43.21V41.92H35.99V53.12H43.27V51.31Z" fill="#002341"/>
<path d="M54.12 53.12H51.66L49.18 48.69L46.68 53.12H44.28L47.82 47.21L44.46 41.91H46.84L49.18 45.86L51.6 41.91H54L50.57 47.21L54.12 53.12Z" fill="#002341"/>
<path d="M62.96 51.31H57.76V48.12H62.56V46.42H57.76V43.73H62.9V41.92H55.68V53.12H62.96V51.31Z" fill="#002341"/>
<path fill-rule="evenodd" clip-rule="evenodd" d="M24 82.3H75.68V13H24V82.3ZM73.68 80.3H26V15H73.68V80.3Z" fill="#002341"/>
</svg>
