<svg width="32" height="32" viewBox="0 0 32 32" fill="none" xmlns="http://www.w3.org/2000/svg">
<path d="M12.0402 19.08C12.1736 19.32 12.3269 19.4967 12.5002 19.61C12.6736 19.7167 12.8602 19.77 13.0602 19.77C13.3669 19.77 13.5969 19.6767 13.7502 19.49C13.9036 19.3033 13.9802 18.9767 13.9802 18.51V14.12H15.1402V18.61C15.1402 18.91 15.1036 19.1933 15.0302 19.46C14.9569 19.72 14.8402 19.95 14.6802 20.15C14.5202 20.3433 14.3169 20.4967 14.0702 20.61C13.8236 20.7233 13.5302 20.78 13.1902 20.78C12.7302 20.78 12.3402 20.6867 12.0202 20.5C11.7069 20.3133 11.4469 20.0367 11.2402 19.67L12.0402 19.08Z" fill="#788FAB"/>
<path d="M16.7716 14.12H18.9716C19.3316 14.12 19.6616 14.1533 19.9616 14.22C20.2683 14.2867 20.5316 14.4 20.7516 14.56C20.9716 14.72 21.145 14.93 21.2716 15.19C21.3983 15.4433 21.4616 15.76 21.4616 16.14C21.4616 16.5 21.3983 16.8133 21.2716 17.08C21.145 17.3467 20.9683 17.57 20.7416 17.75C20.5216 17.9233 20.2583 18.0533 19.9516 18.14C19.6516 18.22 19.325 18.26 18.9716 18.26H17.9316V20.66H16.7716V14.12ZM18.8816 17.33C19.8416 17.33 20.3216 16.9333 20.3216 16.14C20.3216 15.7267 20.2016 15.4433 19.9616 15.29C19.7216 15.13 19.3616 15.05 18.8816 15.05H17.9316V17.33H18.8816Z" fill="#788FAB"/>
<path d="M22.3496 17.41C22.3496 16.8767 22.4296 16.4 22.5896 15.98C22.7496 15.5533 22.9696 15.1933 23.2496 14.9C23.5296 14.6067 23.8596 14.3833 24.2396 14.23C24.6196 14.0767 25.0296 14 25.4696 14C25.6963 14 25.9063 14.0233 26.0996 14.07C26.2929 14.1167 26.4696 14.18 26.6296 14.26C26.7896 14.3333 26.9363 14.42 27.0696 14.52C27.2029 14.62 27.3196 14.7233 27.4196 14.83L26.7796 15.55C26.6129 15.39 26.4296 15.26 26.2296 15.16C26.0363 15.06 25.7863 15.01 25.4796 15.01C25.1863 15.01 24.9196 15.0667 24.6796 15.18C24.4463 15.2867 24.2429 15.4433 24.0696 15.65C23.9029 15.85 23.7729 16.0967 23.6796 16.39C23.5863 16.6833 23.5396 17.0133 23.5396 17.38C23.5396 18.1267 23.7063 18.7133 24.0396 19.14C24.3796 19.56 24.8796 19.77 25.5396 19.77C25.7263 19.77 25.9029 19.7467 26.0696 19.7C26.2363 19.6467 26.3729 19.5733 26.4796 19.48V18.07H25.2396V17.12H27.5196V20C27.2929 20.22 26.9963 20.4067 26.6296 20.56C26.2629 20.7067 25.8529 20.78 25.3996 20.78C24.9663 20.78 24.5629 20.7067 24.1896 20.56C23.8163 20.4133 23.4929 20.1967 23.2196 19.91C22.9463 19.6233 22.7329 19.27 22.5796 18.85C22.4263 18.43 22.3496 17.95 22.3496 17.41Z" fill="#788FAB"/>
<path d="M2.5 29H19.5C20.3284 29 21 28.3284 21 27.5V25.6324C21 24.7946 20.3137 24.1192 19.4759 24.1326L9.31353 24.2956C8.4758 24.309 7.78947 23.6336 7.78947 22.7957V13.3C7.78947 12.4716 8.46105 11.8 9.28947 11.8H19.5C20.3284 11.8 21 11.1284 21 10.3V9.86663C21 9.46567 20.8395 9.08139 20.5542 8.79959L15.1224 3.43296C14.8417 3.15556 14.4629 3 14.0682 3H11H2.5C1.67157 3 1 3.67157 1 4.5V27.5C1 28.3284 1.67157 29 2.5 29Z" fill="#D6DDE6"/>
<path fill-rule="evenodd" clip-rule="evenodd" d="M8.5 13C8.5 12.1716 9.17157 11.5 10 11.5H29C29.8284 11.5 30.5 12.1716 30.5 13V22C30.5 22.8284 29.8284 23.5 29 23.5H10C9.17157 23.5 8.5 22.8284 8.5 22V13ZM10 12.5C9.72386 12.5 9.5 12.7239 9.5 13V22C9.5 22.2761 9.72386 22.5 10 22.5H29C29.2761 22.5 29.5 22.2761 29.5 22V13C29.5 12.7239 29.2761 12.5 29 12.5H10Z" fill="#788FAB"/>
<path fill-rule="evenodd" clip-rule="evenodd" d="M3 3.5C2.72386 3.5 2.5 3.72386 2.5 4V27C2.5 27.2761 2.72386 27.5 3 27.5H20C20.2761 27.5 20.5 27.2761 20.5 27V24.2963C20.5 24.0202 20.7239 23.7963 21 23.7963C21.2761 23.7963 21.5 24.0202 21.5 24.2963V27C21.5 27.8284 20.8284 28.5 20 28.5H3C2.17157 28.5 1.5 27.8284 1.5 27V4C1.5 3.17157 2.17157 2.5 3 2.5H14.5858C14.9836 2.5 15.3651 2.65804 15.6464 2.93934L21.0607 8.35355C21.342 8.63486 21.5 9.01639 21.5 9.41421V10.5C21.5 10.7761 21.2761 11 21 11C20.7239 11 20.5 10.7761 20.5 10.5V9.41421C20.5 9.2816 20.4473 9.15443 20.3536 9.06066L14.9393 3.64645C14.8456 3.55268 14.7184 3.5 14.5858 3.5H3Z" fill="#788FAB"/>
<path fill-rule="evenodd" clip-rule="evenodd" d="M15 3C15.2761 3 15.5 3.22386 15.5 3.5V8C15.5 8.27614 15.7239 8.5 16 8.5H20.5C20.7761 8.5 21 8.72386 21 9C21 9.27614 20.7761 9.5 20.5 9.5H16C15.1716 9.5 14.5 8.82843 14.5 8V3.5C14.5 3.22386 14.7239 3 15 3Z" fill="#788FAB"/>
</svg>
