<svg width="32" height="32" viewBox="0 0 32 32" fill="none" xmlns="http://www.w3.org/2000/svg">
<path d="M9.86 17.29L8.12 14.12H9.41L10.13 15.57C10.21 15.7233 10.2867 15.88 10.36 16.04C10.44 16.2 10.53 16.3767 10.63 16.57H10.67C10.75 16.3767 10.8233 16.2 10.89 16.04C10.9633 15.88 11.0367 15.7233 11.11 15.57L11.8 14.12H13.03L11.29 17.34L13.15 20.66H11.86L11.06 19.12C10.9733 18.9467 10.8867 18.7767 10.8 18.61C10.72 18.4367 10.63 18.25 10.53 18.05H10.49C10.4033 18.25 10.32 18.4367 10.24 18.61C10.1667 18.7767 10.09 18.9467 10.01 19.12L9.23 20.66H8L9.86 17.29Z" fill="#788FAB"/>
<path d="M14.1102 14.12H15.2702V19.68H17.9902V20.66H14.1102V14.12Z" fill="#788FAB"/>
<path d="M19.1058 19.03C19.3391 19.25 19.6058 19.43 19.9058 19.57C20.2058 19.7033 20.5058 19.77 20.8058 19.77C21.1791 19.77 21.4624 19.6933 21.6558 19.54C21.8491 19.3867 21.9458 19.1833 21.9458 18.93C21.9458 18.7967 21.9191 18.6833 21.8658 18.59C21.8191 18.4967 21.7491 18.4167 21.6558 18.35C21.5691 18.2767 21.4624 18.21 21.3358 18.15C21.2158 18.09 21.0824 18.03 20.9358 17.97L20.0358 17.58C19.8758 17.5133 19.7158 17.43 19.5558 17.33C19.4024 17.23 19.2624 17.11 19.1358 16.97C19.0091 16.83 18.9058 16.6667 18.8258 16.48C18.7524 16.2933 18.7158 16.08 18.7158 15.84C18.7158 15.58 18.7691 15.34 18.8758 15.12C18.9891 14.8933 19.1424 14.6967 19.3358 14.53C19.5291 14.3633 19.7591 14.2333 20.0258 14.14C20.2991 14.0467 20.5958 14 20.9158 14C21.2958 14 21.6624 14.0767 22.0158 14.23C22.3691 14.3767 22.6724 14.5767 22.9258 14.83L22.3358 15.57C22.1224 15.3967 21.9024 15.26 21.6758 15.16C21.4491 15.06 21.1958 15.01 20.9158 15.01C20.6024 15.01 20.3524 15.08 20.1658 15.22C19.9791 15.3533 19.8858 15.54 19.8858 15.78C19.8858 15.9067 19.9124 16.0167 19.9658 16.11C20.0258 16.1967 20.1024 16.2767 20.1958 16.35C20.2958 16.4167 20.4091 16.48 20.5358 16.54C20.6624 16.5933 20.7924 16.6467 20.9258 16.7L21.8158 17.07C22.0091 17.15 22.1858 17.2433 22.3458 17.35C22.5058 17.4567 22.6424 17.58 22.7558 17.72C22.8758 17.86 22.9691 18.0233 23.0358 18.21C23.1024 18.39 23.1358 18.6 23.1358 18.84C23.1358 19.1067 23.0824 19.3567 22.9758 19.59C22.8691 19.8233 22.7124 20.03 22.5058 20.21C22.3058 20.3833 22.0591 20.5233 21.7658 20.63C21.4791 20.73 21.1524 20.78 20.7858 20.78C20.3458 20.78 19.9191 20.6967 19.5058 20.53C19.0991 20.3633 18.7391 20.1267 18.4258 19.82L19.1058 19.03Z" fill="#788FAB"/>
<path d="M25.485 17.29L23.745 14.12H25.035L25.755 15.57C25.835 15.7233 25.9117 15.88 25.985 16.04C26.065 16.2 26.155 16.3767 26.255 16.57H26.295C26.375 16.3767 26.4483 16.2 26.515 16.04C26.5883 15.88 26.6617 15.7233 26.735 15.57L27.425 14.12H28.655L26.915 17.34L28.775 20.66H27.485L26.685 19.12C26.5983 18.9467 26.5117 18.7767 26.425 18.61C26.345 18.4367 26.255 18.25 26.155 18.05H26.115C26.0283 18.25 25.945 18.4367 25.865 18.61C25.7917 18.7767 25.715 18.9467 25.635 19.12L24.855 20.66H23.625L25.485 17.29Z" fill="#788FAB"/>
<path d="M2.5 29H19.5C20.3284 29 21 28.3284 21 27.5V25.6292C21 24.7926 20.3156 24.1177 19.4791 24.1293L7.31036 24.2988C6.47385 24.3105 5.78947 23.6356 5.78947 22.799V13.3C5.78947 12.4716 6.46105 11.8 7.28947 11.8H19.5C20.3284 11.8 21 11.1284 21 10.3V9.86663C21 9.46567 20.8395 9.08139 20.5542 8.79959L15.1224 3.43296C14.8417 3.15556 14.4629 3 14.0682 3H11H2.5C1.67157 3 1 3.67157 1 4.5V27.5C1 28.3284 1.67157 29 2.5 29Z" fill="#D6DDE6"/>
<path fill-rule="evenodd" clip-rule="evenodd" d="M6.5 13C6.5 12.1716 7.17157 11.5 8 11.5H29C29.8284 11.5 30.5 12.1716 30.5 13V22C30.5 22.8284 29.8284 23.5 29 23.5H8C7.17157 23.5 6.5 22.8284 6.5 22V13ZM8 12.5C7.72386 12.5 7.5 12.7239 7.5 13V22C7.5 22.2761 7.72386 22.5 8 22.5H29C29.2761 22.5 29.5 22.2761 29.5 22V13C29.5 12.7239 29.2761 12.5 29 12.5H8Z" fill="#788FAB"/>
<path fill-rule="evenodd" clip-rule="evenodd" d="M3 3.5C2.72386 3.5 2.5 3.72386 2.5 4V27C2.5 27.2761 2.72386 27.5 3 27.5H20C20.2761 27.5 20.5 27.2761 20.5 27V24.2963C20.5 24.0202 20.7239 23.7963 21 23.7963C21.2761 23.7963 21.5 24.0202 21.5 24.2963V27C21.5 27.8284 20.8284 28.5 20 28.5H3C2.17157 28.5 1.5 27.8284 1.5 27V4C1.5 3.17157 2.17157 2.5 3 2.5H14.5858C14.9836 2.5 15.3651 2.65804 15.6464 2.93934L21.0607 8.35355C21.342 8.63486 21.5 9.01639 21.5 9.41421V10.5C21.5 10.7761 21.2761 11 21 11C20.7239 11 20.5 10.7761 20.5 10.5V9.41421C20.5 9.2816 20.4473 9.15443 20.3536 9.06066L14.9393 3.64645C14.8456 3.55268 14.7184 3.5 14.5858 3.5H3Z" fill="#788FAB"/>
<path fill-rule="evenodd" clip-rule="evenodd" d="M15 3C15.2761 3 15.5 3.22386 15.5 3.5V8C15.5 8.27614 15.7239 8.5 16 8.5H20.5C20.7761 8.5 21 8.72386 21 9C21 9.27614 20.7761 9.5 20.5 9.5H16C15.1716 9.5 14.5 8.82843 14.5 8V3.5C14.5 3.22386 14.7239 3 15 3Z" fill="#788FAB"/>
</svg>
