<svg width="96" height="96" viewBox="0 0 96 96" fill="none" xmlns="http://www.w3.org/2000/svg">
<path d="M31 68H62V76H18V20H49.5L62 31.5V40H31V68Z" fill="#8FC1FF"/>
<path fill-rule="evenodd" clip-rule="evenodd" d="M16 22C16 19.7909 17.7909 18 20 18H50C50.5304 18 51.0391 18.2107 51.4142 18.5858L63.4142 30.5858C63.7893 30.9609 64 31.4696 64 32V40C64 41.1046 63.1046 42 62 42C60.8954 42 60 41.1046 60 40V34H52C49.7909 34 48 32.2091 48 30V22L20 22V74H60V68C60 66.8954 60.8954 66 62 66C63.1046 66 64 66.8954 64 68V74C64 76.2091 62.2091 78 60 78H20C17.7909 78 16 76.2091 16 74V22ZM52 24.8284L57.1716 30H52V24.8284Z" fill="#0F1D2E"/>
<path fill-rule="evenodd" clip-rule="evenodd" d="M29 44C29 40.6863 31.6863 38 35 38H77C80.3137 38 83 40.6863 83 44V64C83 67.3137 80.3137 70 77 70H35C31.6863 70 29 67.3137 29 64V44ZM35 42C33.8954 42 33 42.8954 33 44V64C33 65.1046 33.8954 66 35 66H77C78.1046 66 79 65.1046 79 64V44C79 42.8954 78.1046 42 77 42H35Z" fill="#0F1D2E"/>
<path fill-rule="evenodd" clip-rule="evenodd" d="M41 50.0359V52.9789C41.245 52.9705 41.4816 52.9589 41.7103 52.9427C42.5187 52.8854 43.0887 52.7785 43.4755 52.6312C43.8313 52.4956 43.9129 52.3735 43.9417 52.3229C43.9815 52.253 44.1065 51.9768 44.0154 51.2481C43.9766 50.9374 43.8792 50.8073 43.7877 50.7197C43.6617 50.5989 43.412 50.4421 42.9383 50.3073C42.3887 50.151 41.7353 50.0738 41 50.0359ZM41 56.9808C41.3361 56.9708 41.6688 56.9556 41.9928 56.9327C42.9501 56.8649 43.9738 56.7218 44.8995 56.3691C45.8562 56.0046 46.8059 55.3766 47.4177 54.3022C48.0185 53.247 48.1435 52.0233 47.9846 50.7519C47.8373 49.5741 47.3417 48.5849 46.5546 47.831C45.802 47.1101 44.8874 46.7031 44.0326 46.4599C42.4143 45.9996 40.4997 45.9998 39.0792 46C39.0527 46 39.0262 46 39 46C37.8954 46 37 46.8954 37 48V60C37 61.1046 37.8954 62 39 62C40.1046 62 41 61.1046 41 60V56.9808Z" fill="#0F1D2E"/>
<path fill-rule="evenodd" clip-rule="evenodd" d="M50 48C50 46.8954 50.8954 46 52 46C53.3972 46 55.6313 46.0369 57.6077 46.8599C58.6328 47.2868 59.65 47.9478 60.4481 48.9697C61.2533 50.0007 61.7468 51.2859 61.8904 52.8128C62.169 55.7759 62.053 58.5581 59.9812 60.286C58.9985 61.1055 57.7763 61.5055 56.5054 61.7217C55.231 61.9385 53.7178 62 52 62C50.8954 62 50 61.1046 50 60V48ZM54 50.0814V57.9586C54.7183 57.9237 55.323 57.8654 55.8345 57.7784C56.7677 57.6196 57.2028 57.3946 57.4192 57.2142C57.7453 56.9422 58.1935 56.2244 57.9079 53.1873C57.8266 52.3225 57.5729 51.7868 57.2956 51.4318C57.0113 51.0678 56.6108 50.7777 56.07 50.5525C55.4547 50.2964 54.7446 50.1563 54 50.0814Z" fill="#0F1D2E"/>
<path fill-rule="evenodd" clip-rule="evenodd" d="M64 48C64 46.8954 64.8954 46 66 46H73C74.1046 46 75 46.8954 75 48C75 49.1046 74.1046 50 73 50H68V51.9999H71C72.1046 51.9999 73 52.8953 73 53.9999C73 55.1045 72.1046 55.9999 71 55.9999H68V59.9998C68 61.1043 67.1046 61.9998 66 61.9998C64.8954 61.9998 64 61.1043 64 59.9998V48Z" fill="#0F1D2E"/>
</svg>
8.5 21 8.72386 21 9C21 9.27614 20.7761 9.5 20.5 9.5H16C15.1716 9.5 14.5 8.82843 14.5 8V3.5C14.5 3.22386 14.7239 3 15 3Z" fill="#788FAB"/>
</svg>
