<svg width="32" height="32" viewBox="0 0 32 32" fill="none" xmlns="http://www.w3.org/2000/svg">
<path d="M10.89 14.98H9V14H13.94V14.98H12.05V20.54H10.89V14.98Z" fill="#788FAB"/>
<path d="M15.029 14H16.189V20.54H15.029V14Z" fill="#788FAB"/>
<path d="M17.8512 14H21.8012V14.98H19.0112V16.83H21.3912V17.81H19.0112V20.54H17.8512V14Z" fill="#788FAB"/>
<path d="M22.9489 14H26.8989V14.98H24.1089V16.83H26.4889V17.81H24.1089V20.54H22.9489V14Z" fill="#788FAB"/>
<path d="M2.5 29H19.5C20.3284 29 21 28.3284 21 27.5V25.6292C21 24.7926 20.3156 24.1177 19.4791 24.1293L7.31036 24.2988C6.47385 24.3105 5.78947 23.6356 5.78947 22.799V13.3C5.78947 12.4716 6.46105 11.8 7.28947 11.8H19.5C20.3284 11.8 21 11.1284 21 10.3V9.86663C21 9.46567 20.8395 9.08139 20.5542 8.79959L15.1224 3.43296C14.8417 3.15556 14.4629 3 14.0682 3H11H2.5C1.67157 3 1 3.67157 1 4.5V27.5C1 28.3284 1.67157 29 2.5 29Z" fill="#D6DDE6"/>
<path fill-rule="evenodd" clip-rule="evenodd" d="M6.5 13C6.5 12.1716 7.17157 11.5 8 11.5H29C29.8284 11.5 30.5 12.1716 30.5 13V22C30.5 22.8284 29.8284 23.5 29 23.5H8C7.17157 23.5 6.5 22.8284 6.5 22V13ZM8 12.5C7.72386 12.5 7.5 12.7239 7.5 13V22C7.5 22.2761 7.72386 22.5 8 22.5H29C29.2761 22.5 29.5 22.2761 29.5 22V13C29.5 12.7239 29.2761 12.5 29 12.5H8Z" fill="#788FAB"/>
<path fill-rule="evenodd" clip-rule="evenodd" d="M3 3.5C2.72386 3.5 2.5 3.72386 2.5 4V27C2.5 27.2761 2.72386 27.5 3 27.5H20C20.2761 27.5 20.5 27.2761 20.5 27V24.2963C20.5 24.0202 20.7239 23.7963 21 23.7963C21.2761 23.7963 21.5 24.0202 21.5 24.2963V27C21.5 27.8284 20.8284 28.5 20 28.5H3C2.17157 28.5 1.5 27.8284 1.5 27V4C1.5 3.17157 2.17157 2.5 3 2.5H14.5858C14.9836 2.5 15.3651 2.65804 15.6464 2.93934L21.0607 8.35355C21.342 8.63486 21.5 9.01639 21.5 9.41421V10.5C21.5 10.7761 21.2761 11 21 11C20.7239 11 20.5 10.7761 20.5 10.5V9.41421C20.5 9.2816 20.4473 9.15443 20.3536 9.06066L14.9393 3.64645C14.8456 3.55268 14.7184 3.5 14.5858 3.5H3Z" fill="#788FAB"/>
<path fill-rule="evenodd" clip-rule="evenodd" d="M15 3C15.2761 3 15.5 3.22386 15.5 3.5V8C15.5 8.27614 15.7239 8.5 16 8.5H20.5C20.7761 8.5 21 8.72386 21 9C21 9.27614 20.7761 9.5 20.5 9.5H16C15.1716 9.5 14.5 8.82843 14.5 8V3.5C14.5 3.22386 14.7239 3 15 3Z" fill="#788FAB"/>
</svg>
