<svg width="32" height="32" viewBox="0 0 32 32" fill="none" xmlns="http://www.w3.org/2000/svg">
<path d="M10.8301 14.12H13.0301C13.3901 14.12 13.7201 14.1533 14.0201 14.22C14.3267 14.2867 14.5901 14.4 14.8101 14.56C15.0301 14.72 15.2034 14.93 15.3301 15.19C15.4567 15.4433 15.5201 15.76 15.5201 16.14C15.5201 16.5 15.4567 16.8133 15.3301 17.08C15.2034 17.3467 15.0267 17.57 14.8001 17.75C14.5801 17.9233 14.3167 18.0533 14.0101 18.14C13.7101 18.22 13.3834 18.26 13.0301 18.26H11.9901V20.66H10.8301V14.12ZM12.9401 17.33C13.9001 17.33 14.3801 16.9333 14.3801 16.14C14.3801 15.7267 14.2601 15.4433 14.0201 15.29C13.7801 15.13 13.4201 15.05 12.9401 15.05H11.9901V17.33H12.9401Z" fill="#1C3553"/>
<path d="M16.748 14.12H17.938L19.978 17.8L20.648 19.19H20.688C20.6614 18.85 20.628 18.4867 20.588 18.1C20.5547 17.7067 20.538 17.3267 20.538 16.96V14.12H21.648V20.66H20.458L18.418 16.98L17.748 15.59H17.708C17.7347 15.9367 17.7647 16.3 17.798 16.68C17.838 17.06 17.858 17.4333 17.858 17.8V20.66H16.748V14.12Z" fill="#1C3553"/>
<path d="M22.9705 17.41C22.9705 16.8767 23.0505 16.4 23.2105 15.98C23.3705 15.5533 23.5905 15.1933 23.8705 14.9C24.1505 14.6067 24.4805 14.3833 24.8605 14.23C25.2405 14.0767 25.6505 14 26.0905 14C26.3172 14 26.5272 14.0233 26.7205 14.07C26.9139 14.1167 27.0905 14.18 27.2505 14.26C27.4105 14.3333 27.5572 14.42 27.6905 14.52C27.8239 14.62 27.9405 14.7233 28.0405 14.83L27.4005 15.55C27.2339 15.39 27.0505 15.26 26.8505 15.16C26.6572 15.06 26.4072 15.01 26.1005 15.01C25.8072 15.01 25.5405 15.0667 25.3005 15.18C25.0672 15.2867 24.8639 15.4433 24.6905 15.65C24.5239 15.85 24.3939 16.0967 24.3005 16.39C24.2072 16.6833 24.1605 17.0133 24.1605 17.38C24.1605 18.1267 24.3272 18.7133 24.6605 19.14C25.0005 19.56 25.5005 19.77 26.1605 19.77C26.3472 19.77 26.5239 19.7467 26.6905 19.7C26.8572 19.6467 26.9939 19.5733 27.1005 19.48V18.07H25.8605V17.12H28.1405V20C27.9139 20.22 27.6172 20.4067 27.2505 20.56C26.8839 20.7067 26.4739 20.78 26.0205 20.78C25.5872 20.78 25.1839 20.7067 24.8105 20.56C24.4372 20.4133 24.1139 20.1967 23.8405 19.91C23.5672 19.6233 23.3539 19.27 23.2005 18.85C23.0472 18.43 22.9705 17.95 22.9705 17.41Z" fill="#1C3553"/>
<path d="M2.5 29H19.5C20.3284 29 21 28.3284 21 27.5V25.6324C21 24.7946 20.3137 24.1192 19.4759 24.1326L9.31353 24.2956C8.4758 24.309 7.78947 23.6336 7.78947 22.7957V13.3C7.78947 12.4716 8.46105 11.8 9.28947 11.8H19.5C20.3284 11.8 21 11.1284 21 10.3V9.86663C21 9.46567 20.8395 9.08139 20.5542 8.79959L15.1224 3.43296C14.8417 3.15556 14.4629 3 14.0682 3H11H2.5C1.67157 3 1 3.67157 1 4.5V27.5C1 28.3284 1.67157 29 2.5 29Z" fill="#8FC1FF"/>
<path fill-rule="evenodd" clip-rule="evenodd" d="M8.5 13C8.5 12.1716 9.17157 11.5 10 11.5H29C29.8284 11.5 30.5 12.1716 30.5 13V22C30.5 22.8284 29.8284 23.5 29 23.5H10C9.17157 23.5 8.5 22.8284 8.5 22V13ZM10 12.5C9.72386 12.5 9.5 12.7239 9.5 13V22C9.5 22.2761 9.72386 22.5 10 22.5H29C29.2761 22.5 29.5 22.2761 29.5 22V13C29.5 12.7239 29.2761 12.5 29 12.5H10Z" fill="#1C3553"/>
<path fill-rule="evenodd" clip-rule="evenodd" d="M3 3.5C2.72386 3.5 2.5 3.72386 2.5 4V27C2.5 27.2761 2.72386 27.5 3 27.5H20C20.2761 27.5 20.5 27.2761 20.5 27V24.2963C20.5 24.0202 20.7239 23.7963 21 23.7963C21.2761 23.7963 21.5 24.0202 21.5 24.2963V27C21.5 27.8284 20.8284 28.5 20 28.5H3C2.17157 28.5 1.5 27.8284 1.5 27V4C1.5 3.17157 2.17157 2.5 3 2.5H14.5858C14.9836 2.5 15.3651 2.65804 15.6464 2.93934L21.0607 8.35355C21.342 8.63486 21.5 9.01639 21.5 9.41421V10.5C21.5 10.7761 21.2761 11 21 11C20.7239 11 20.5 10.7761 20.5 10.5V9.41421C20.5 9.2816 20.4473 9.15443 20.3536 9.06066L14.9393 3.64645C14.8456 3.55268 14.7184 3.5 14.5858 3.5H3Z" fill="#1C3553"/>
<path fill-rule="evenodd" clip-rule="evenodd" d="M15 3C15.2761 3 15.5 3.22386 15.5 3.5V8C15.5 8.27614 15.7239 8.5 16 8.5H20.5C20.7761 8.5 21 8.72386 21 9C21 9.27614 20.7761 9.5 20.5 9.5H16C15.1716 9.5 14.5 8.82843 14.5 8V3.5C14.5 3.22386 14.7239 3 15 3Z" fill="#1C3553"/>
</svg>
