<svg width="32" height="32" viewBox="0 0 32 32" fill="none" xmlns="http://www.w3.org/2000/svg">
<path d="M12.9909 17.63L11.2509 14.46H12.5409L13.2609 15.91C13.3409 16.0634 13.4175 16.22 13.4909 16.38C13.5709 16.54 13.6609 16.7167 13.7609 16.91H13.8009C13.8809 16.7167 13.9542 16.54 14.0209 16.38C14.0942 16.22 14.1675 16.0634 14.2409 15.91L14.9309 14.46H16.1609L14.4209 17.68L16.2809 21H14.9909L14.1909 19.46C14.1042 19.2867 14.0175 19.1167 13.9309 18.95C13.8509 18.7767 13.7609 18.59 13.6609 18.39H13.6209C13.5342 18.59 13.4509 18.7767 13.3709 18.95C13.2975 19.1167 13.2209 19.2867 13.1409 19.46L12.3609 21H11.1309L12.9909 17.63Z" fill="#1C3553"/>
<path d="M17.241 14.46H18.401V20.02H21.121V21H17.241V14.46Z" fill="#1C3553"/>
<path d="M22.2366 19.37C22.47 19.59 22.7366 19.77 23.0366 19.91C23.3366 20.0434 23.6366 20.11 23.9366 20.11C24.31 20.11 24.5933 20.0334 24.7866 19.88C24.98 19.7267 25.0766 19.5234 25.0766 19.27C25.0766 19.1367 25.05 19.0234 24.9966 18.93C24.95 18.8367 24.88 18.7567 24.7866 18.69C24.7 18.6167 24.5933 18.55 24.4666 18.49C24.3466 18.43 24.2133 18.37 24.0666 18.31L23.1666 17.92C23.0066 17.8534 22.8466 17.77 22.6866 17.67C22.5333 17.57 22.3933 17.45 22.2666 17.31C22.14 17.17 22.0366 17.0067 21.9566 16.82C21.8833 16.6334 21.8466 16.42 21.8466 16.18C21.8466 15.92 21.9 15.68 22.0066 15.46C22.12 15.2334 22.2733 15.0367 22.4666 14.87C22.66 14.7034 22.89 14.5734 23.1566 14.48C23.43 14.3867 23.7266 14.34 24.0466 14.34C24.4266 14.34 24.7933 14.4167 25.1466 14.57C25.5 14.7167 25.8033 14.9167 26.0566 15.17L25.4666 15.91C25.2533 15.7367 25.0333 15.6 24.8066 15.5C24.58 15.4 24.3266 15.35 24.0466 15.35C23.7333 15.35 23.4833 15.42 23.2966 15.56C23.11 15.6934 23.0166 15.88 23.0166 16.12C23.0166 16.2467 23.0433 16.3567 23.0966 16.45C23.1566 16.5367 23.2333 16.6167 23.3266 16.69C23.4266 16.7567 23.54 16.82 23.6666 16.88C23.7933 16.9334 23.9233 16.9867 24.0566 17.04L24.9466 17.41C25.14 17.49 25.3166 17.5834 25.4766 17.69C25.6366 17.7967 25.7733 17.92 25.8866 18.06C26.0066 18.2 26.1 18.3634 26.1666 18.55C26.2333 18.73 26.2666 18.94 26.2666 19.18C26.2666 19.4467 26.2133 19.6967 26.1066 19.93C26 20.1634 25.8433 20.37 25.6366 20.55C25.4366 20.7234 25.19 20.8634 24.8966 20.97C24.61 21.07 24.2833 21.12 23.9166 21.12C23.4766 21.12 23.05 21.0367 22.6366 20.87C22.23 20.7034 21.87 20.4667 21.5566 20.16L22.2366 19.37Z" fill="#1C3553"/>
<path d="M2.5 29H19.5C20.3284 29 21 28.3284 21 27.5V25.6292C21 24.7926 20.3156 24.1177 19.4791 24.1293L7.31036 24.2988C6.47385 24.3105 5.78947 23.6356 5.78947 22.799V13.3C5.78947 12.4716 6.46105 11.8 7.28947 11.8H19.5C20.3284 11.8 21 11.1284 21 10.3V9.86663C21 9.46567 20.8395 9.08139 20.5542 8.79959L15.1224 3.43296C14.8417 3.15556 14.4629 3 14.0682 3H11H2.5C1.67157 3 1 3.67157 1 4.5V27.5C1 28.3284 1.67157 29 2.5 29Z" fill="#8FC1FF"/>
<path fill-rule="evenodd" clip-rule="evenodd" d="M6.5 13C6.5 12.1716 7.17157 11.5 8 11.5H29C29.8284 11.5 30.5 12.1716 30.5 13V22C30.5 22.8284 29.8284 23.5 29 23.5H8C7.17157 23.5 6.5 22.8284 6.5 22V13ZM8 12.5C7.72386 12.5 7.5 12.7239 7.5 13V22C7.5 22.2761 7.72386 22.5 8 22.5H29C29.2761 22.5 29.5 22.2761 29.5 22V13C29.5 12.7239 29.2761 12.5 29 12.5H8Z" fill="#1C3553"/>
<path fill-rule="evenodd" clip-rule="evenodd" d="M3 3.5C2.72386 3.5 2.5 3.72386 2.5 4V27C2.5 27.2761 2.72386 27.5 3 27.5H20C20.2761 27.5 20.5 27.2761 20.5 27V24.2963C20.5 24.0202 20.7239 23.7963 21 23.7963C21.2761 23.7963 21.5 24.0202 21.5 24.2963V27C21.5 27.8284 20.8284 28.5 20 28.5H3C2.17157 28.5 1.5 27.8284 1.5 27V4C1.5 3.17157 2.17157 2.5 3 2.5H14.5858C14.9836 2.5 15.3651 2.65804 15.6464 2.93934L21.0607 8.35355C21.342 8.63486 21.5 9.01639 21.5 9.41421V10.5C21.5 10.7761 21.2761 11 21 11C20.7239 11 20.5 10.7761 20.5 10.5V9.41421C20.5 9.2816 20.4473 9.15443 20.3536 9.06066L14.9393 3.64645C14.8456 3.55268 14.7184 3.5 14.5858 3.5H3Z" fill="#1C3553"/>
<path fill-rule="evenodd" clip-rule="evenodd" d="M15 3C15.2761 3 15.5 3.22386 15.5 3.5V8C15.5 8.27614 15.7239 8.5 16 8.5H20.5C20.7761 8.5 21 8.72386 21 9C21 9.27614 20.7761 9.5 20.5 9.5H16C15.1716 9.5 14.5 8.82843 14.5 8V3.5C14.5 3.22386 14.7239 3 15 3Z" fill="#1C3553"/>
</svg>
