<svg width="96" height="96" viewBox="0 0 96 96" fill="none" xmlns="http://www.w3.org/2000/svg">
<path d="M42.68 51.28H36.73V51.27L42.49 43.64V41.91H34.45V43.72H39.94L34.34 51.26V53.12H42.68V51.28Z" fill="#002341"/>
<path d="M44.72 53.12V41.92H46.8V53.12H44.72Z" fill="#002341"/>
<path fill-rule="evenodd" clip-rule="evenodd" d="M57.66 45.58C57.66 43.33 56.22 41.91 53.9 41.91V41.92H49.61V53.12H51.69V49.23H53.66C56.22 49.23 57.66 47.83 57.66 45.58ZM55.53 45.57C55.53 46.87 54.78 47.59 53.34 47.59H51.68V43.68H53.54C54.78 43.68 55.53 44.27 55.53 45.57Z" fill="#002341"/>
<path fill-rule="evenodd" clip-rule="evenodd" d="M20 82.3H71.68V13H20V82.3ZM69.68 80.3H22V15H69.68V80.3Z" fill="#002341"/>
</svg>
