<svg width="96" height="96" viewBox="0 0 96 96" fill="none" xmlns="http://www.w3.org/2000/svg">
<path d="M36.04 50.84V52.81C36.49 53.14 37.35 53.43 38.31 53.43C40.31 53.43 41.7 52.25 41.7 49.75V41.91H39.64V49.51C39.64 50.86 38.97 51.48 37.96 51.48C37.01 51.48 36.46 51.16 36.04 50.84Z" fill="#002341"/>
<path fill-rule="evenodd" clip-rule="evenodd" d="M48.7 41.92C51.02 41.92 52.46 43.34 52.46 45.58C52.46 47.82 51.02 49.23 48.46 49.23H46.49V53.12H44.41V41.93H48.7V41.92ZM48.14 47.6C49.58 47.6 50.33 46.88 50.33 45.58C50.33 44.28 49.58 43.69 48.35 43.69H46.49V47.59H48.14V47.6Z" fill="#002341"/>
<path d="M64.65 46.78H57.96L57.59 48.49H62.67C62.54 50.39 61.44 51.51 59.47 51.51C57.23 51.51 55.77 49.81 55.77 47.56C55.77 45.31 57.07 43.55 59.85 43.55C61.61 43.55 62.89 44.24 63.66 44.88V42.82C62.78 42.14 61.47 41.6 59.69 41.6C55.76 41.6 53.6 44.21 53.6 47.55C53.6 50.89 55.93 53.43 59.42 53.43C62.65 53.43 64.65 51.43 64.65 47.77V46.78Z" fill="#002341"/>
<path fill-rule="evenodd" clip-rule="evenodd" d="M24 82.3H75.68V13H24V82.3ZM73.68 80.3H26V15H73.68V80.3Z" fill="#002341"/>
</svg>
