<svg width="96" height="96" viewBox="0 0 96 96" fill="none" xmlns="http://www.w3.org/2000/svg">
<path d="M27 68H62V76H18V20H49.5L62 31.5V40H27V68Z" fill="#8FC1FF"/>
<path fill-rule="evenodd" clip-rule="evenodd" d="M16 22C16 19.7909 17.7909 18 20 18H50C50.5304 18 51.0391 18.2107 51.4142 18.5858L63.4142 30.5858C63.7893 30.9609 64 31.4696 64 32V40C64 41.1046 63.1046 42 62 42C60.8954 42 60 41.1046 60 40V34H52C49.7909 34 48 32.2091 48 30V22L20 22V74H60V68C60 66.8954 60.8954 66 62 66C63.1046 66 64 66.8954 64 68V74C64 76.2091 62.2091 78 60 78H20C17.7909 78 16 76.2091 16 74V22ZM52 24.8284L57.1716 30H52V24.8284Z" fill="#0F1D2E"/>
<path fill-rule="evenodd" clip-rule="evenodd" d="M24 44C24 40.6863 26.6863 38 30 38H84C87.3137 38 90 40.6863 90 44V64C90 67.3137 87.3137 70 84 70H30C26.6863 70 24 67.3137 24 64V44ZM30 42C28.8954 42 28 42.8954 28 44V64C28 65.1046 28.8954 66 30 66H84C85.1046 66 86 65.1046 86 64V44C86 42.8954 85.1046 42 84 42H30Z" fill="#0F1D2E"/>
<path fill-rule="evenodd" clip-rule="evenodd" d="M32.8908 46.3359C33.8099 45.7232 35.0516 45.9715 35.6643 46.8906L38.0002 50.3944L40.3361 46.8906C40.9488 45.9715 42.1906 45.7232 43.1096 46.3359C44.0287 46.9486 44.277 48.1903 43.6643 49.1094L40.4039 54L43.6643 58.8906C44.277 59.8097 44.0287 61.0514 43.1096 61.6641C42.1906 62.2768 40.9488 62.0285 40.3361 61.1094L38.0002 57.6056L35.6643 61.1094C35.0516 62.0285 33.8099 62.2768 32.8908 61.6641C31.9718 61.0514 31.7234 59.8097 32.3361 58.8906L35.5965 54L32.3361 49.1094C31.7234 48.1903 31.9718 46.9486 32.8908 46.3359Z" fill="#0F1D2E"/>
<path fill-rule="evenodd" clip-rule="evenodd" d="M70.8908 46.3359C71.8099 45.7232 73.0516 45.9715 73.6643 46.8906L76.0002 50.3944L78.3361 46.8906C78.9488 45.9715 80.1906 45.7232 81.1096 46.3359C82.0287 46.9486 82.277 48.1903 81.6643 49.1094L78.4039 54L81.6643 58.8906C82.277 59.8097 82.0287 61.0514 81.1096 61.6641C80.1906 62.2768 78.9488 62.0285 78.3361 61.1094L76.0002 57.6056L73.6643 61.1094C73.0516 62.0285 71.8099 62.2768 70.8908 61.6641C69.9718 61.0514 69.7234 59.8097 70.3361 58.8906L73.5965 54L70.3361 49.1094C69.7234 48.1903 69.9718 46.9486 70.8908 46.3359Z" fill="#0F1D2E"/>
<path fill-rule="evenodd" clip-rule="evenodd" d="M48 46C49.1046 46 50 46.8954 50 48V58H54C55.1046 58 56 58.8954 56 60C56 61.1046 55.1046 62 54 62H48C46.8954 62 46 61.1046 46 60V48C46 46.8954 46.8954 46 48 46Z" fill="#0F1D2E"/>
<path fill-rule="evenodd" clip-rule="evenodd" d="M59.1 47.3735C60.133 46.4389 61.5132 46 62.9994 46C65.083 46 67.2015 46.6963 68.6643 48.8906C69.277 49.8097 69.0287 51.0514 68.1096 51.6641C67.1906 52.2768 65.9488 52.0285 65.3361 51.1094C64.799 50.3037 64.1149 50 62.9995 50C62.2869 50 61.9342 50.2035 61.7838 50.3396C61.6468 50.4635 61.5335 50.6566 61.5335 50.9979C61.5335 51.2389 61.6268 51.4491 61.8349 51.6292C62.0555 51.8202 62.4437 52 62.9995 52C64.5757 52 66.0442 52.405 67.167 53.2801C68.3247 54.1823 69.0002 55.5067 69.0002 57C69.0002 58.5659 68.3761 59.9497 67.1139 60.8675C65.9506 61.7134 64.4697 62 62.9995 62C61.0525 62 58.8101 61.3204 57.3361 59.1094C56.7234 58.1903 56.9718 56.9486 57.8908 56.3359C58.8099 55.7232 60.0516 55.9715 60.6643 56.8906C61.1903 57.6796 61.97 58 62.9995 58C64.0299 58 64.5495 57.7866 64.7614 57.6325C64.8513 57.5671 64.8944 57.5082 64.9232 57.4482C64.9547 57.3825 65.0002 57.2479 65.0002 57C65.0002 56.7802 64.9257 56.6046 64.7082 56.4351C64.4558 56.2384 63.9239 56 62.9995 56C60.2009 56 57.5335 54.0768 57.5335 50.9979C57.5335 49.6261 58.0538 48.3203 59.1 47.3735Z" fill="#0F1D2E"/>
</svg>
