<svg width="96" height="96" viewBox="0 0 96 96" fill="none" xmlns="http://www.w3.org/2000/svg">
<path d="M29.4361 48.2324L61.0682 42.6548L61.4155 44.6244L29.7834 50.202L29.4361 48.2324Z" fill="#002341"/>
<path d="M58.9607 30.6946L39.3433 34.1537L39.6906 36.1233L59.308 32.6642L58.9607 30.6946Z" fill="#002341"/>
<path d="M31.5509 60.1943L63.1829 54.6167L63.5302 56.5863L31.8982 62.1639L31.5509 60.1943Z" fill="#002341"/>
<path d="M56.8568 18.7349L37.24 22.1974L37.5876 24.167L57.2044 20.7045L56.8568 18.7349Z" fill="#002341"/>
<path d="M33.6557 72.1562L65.2877 66.5786L65.635 68.5482L34.003 74.1258L33.6557 72.1562Z" fill="#002341"/>
<path fill-rule="evenodd" clip-rule="evenodd" d="M34.11 32.27L26.66 33.58L27.97 41.03L35.42 39.72L34.11 32.27ZM29.6 38.71L28.98 35.2L32.49 34.58L33.11 38.09L29.6 38.71Z" fill="#002341"/>
<path fill-rule="evenodd" clip-rule="evenodd" d="M24.56 21.57L32.01 20.26L33.32 27.71L25.87 29.02L24.56 21.57ZM26.88 23.19L27.5 26.7L31.01 26.08L30.39 22.57L26.88 23.19Z" fill="#002341"/>
<path fill-rule="evenodd" clip-rule="evenodd" d="M66.19 15.33H77.76V84.63H29.4L26.03 85.22L14 16.98L64.9 8L66.19 15.33ZM75.76 69.62V17.33H66.54L75.76 69.62ZM16.32 18.6L27.66 82.9L74.61 74.62L63.27 10.32L16.32 18.6ZM40.74 82.62H75.75V76.44L40.74 82.62Z" fill="#002341"/>
</svg>
