<svg width="96" height="96" viewBox="0 0 96 96" fill="none" xmlns="http://www.w3.org/2000/svg">
<path d="M38.75 53.12H36.29L33.81 48.69L31.31 53.12H28.91L32.45 47.21L29.09 41.91H31.47L33.81 45.86L36.23 41.91H38.63L35.2 47.21L38.75 53.12Z" fill="#002341"/>
<path d="M47.35 51.2H42.4V41.92H40.32V53.12H47.35V51.2Z" fill="#002341"/>
<path d="M48.41 52.21V52.2074C49.5478 53.0522 50.8738 53.43 52.18 53.43C54.63 53.43 56.15 52.08 56.15 50.02C56.15 48.5 55.32 47.54 53.32 46.77L52.18 46.32C51.14 45.89 50.6 45.51 50.6 44.74C50.6 43.9 51.23 43.44 52.47 43.44C53.71 43.44 54.74 43.91 55.65 44.66V42.63C54.93 42.09 53.8 41.59 52.31 41.59C49.88 41.59 48.44 42.89 48.44 44.86C48.44 46.35 49.27 47.34 51.05 48.01L52.22 48.46C53.53 49.02 53.9 49.37 53.9 50.11C53.9 51.04 53.28 51.57 52 51.57C50.64 51.57 49.39 51 48.41 50.18V52.2074L48.4 52.2L48.41 52.21Z" fill="#002341"/>
<path d="M64.23 53.12H66.69L63.14 47.21L66.57 41.91H64.17L61.75 45.86L59.41 41.91H57.03L60.39 47.21L56.85 53.12H59.25L61.75 48.69L64.23 53.12Z" fill="#002341"/>
<path fill-rule="evenodd" clip-rule="evenodd" d="M73.68 82.3H22V13H73.68V82.3ZM24 80.3H71.68V15H24V80.3Z" fill="#002341"/>
</svg>
