<svg width="96" height="96" viewBox="0 0 96 96" fill="none" xmlns="http://www.w3.org/2000/svg">
<path d="M40.41 53.12H42.87L39.32 47.21L42.75 41.91H40.35L37.93 45.86L35.59 41.91H33.21L36.57 47.21L33.03 53.12H35.43L37.93 48.69L40.41 53.12Z" fill="#002341"/>
<path d="M46.51 51.2H51.46V53.12H44.43V41.92H46.51V51.2Z" fill="#002341"/>
<path d="M52.53 52.2074V52.21L52.52 52.2C52.5233 52.2025 52.5267 52.205 52.53 52.2074Z" fill="#002341"/>
<path d="M52.53 52.2074C53.6678 53.0522 54.9938 53.43 56.3 53.43C58.75 53.43 60.27 52.08 60.27 50.02C60.27 48.5 59.44 47.54 57.44 46.77L56.3 46.32C55.26 45.89 54.72 45.51 54.72 44.74C54.72 43.9 55.35 43.44 56.59 43.44C57.83 43.44 58.86 43.91 59.77 44.66V42.63C59.05 42.09 57.92 41.59 56.43 41.59C54 41.59 52.56 42.89 52.56 44.86C52.56 46.35 53.39 47.34 55.17 48.01L56.34 48.46C57.65 49.02 58.02 49.37 58.02 50.11C58.02 51.04 57.4 51.57 56.12 51.57C54.76 51.57 53.51 51 52.53 50.18V52.2074Z" fill="#002341"/>
<path fill-rule="evenodd" clip-rule="evenodd" d="M21 82.3H72.68V13H21V82.3ZM70.68 80.3H23V15H70.68V80.3Z" fill="#002341"/>
</svg>
