<svg width="96" height="96" viewBox="0 0 96 96" fill="none" xmlns="http://www.w3.org/2000/svg">
<path d="M64.9 68.91H32.78V70.91H64.9V68.91Z" fill="#002341"/>
<path d="M32.78 60.16H64.9V62.16H32.78V60.16Z" fill="#002341"/>
<path fill-rule="evenodd" clip-rule="evenodd" d="M55.75 34.45C57.86 34.45 59.58 32.73 59.58 30.62C59.58 28.51 57.86 26.79 55.75 26.79C53.64 26.79 51.92 28.51 51.92 30.62C51.92 32.73 53.64 34.45 55.75 34.45ZM55.75 28.78C56.76 28.78 57.58 29.6 57.58 30.61C57.58 31.62 56.76 32.44 55.75 32.44C54.74 32.44 53.92 31.62 53.92 30.61C53.92 29.6 54.74 28.78 55.75 28.78Z" fill="#002341"/>
<path fill-rule="evenodd" clip-rule="evenodd" d="M46.85 45.85H42.38L41.15 52.68H33.59V46.07L45.13 34.75C44.86 33.84 44.71 32.89 44.71 31.9C44.71 26.33 49.24 21.8 54.81 21.8C60.38 21.8 64.91 26.33 64.91 31.9C64.91 37.47 60.38 42 54.81 42C53.37 42 52.01 41.69 50.77 41.15L46.85 45.85ZM62.9 31.91C62.9 27.44 59.26 23.81 54.8 23.81C50.33 23.81 46.7 27.44 46.7 31.91C46.7 36.38 50.33 40.01 54.8 40.01C59.27 40.01 62.9 36.38 62.9 31.91ZM35.58 50.68H39.47L40.7 43.85H45.92L49 40.15C47.74 39.27 46.69 38.11 45.95 36.75L35.58 46.92V50.68Z" fill="#002341"/>
<path fill-rule="evenodd" clip-rule="evenodd" d="M23 10V79.3H74.68V10H23ZM72.68 77.3H25V12H72.68V77.3Z" fill="#002341"/>
</svg>
