<svg width="32" height="32" viewBox="0 0 32 32" fill="none" xmlns="http://www.w3.org/2000/svg">
<path d="M13.1498 14.98H11.2598V14H16.1998V14.98H14.3098V20.54H13.1498V14.98Z" fill="#788FAB"/>
<path d="M18.2534 17.17L16.5134 14H17.8034L18.5234 15.45C18.6034 15.6033 18.6801 15.76 18.7534 15.92C18.8334 16.08 18.9234 16.2567 19.0234 16.45H19.0634C19.1434 16.2567 19.2168 16.08 19.2834 15.92C19.3568 15.76 19.4301 15.6033 19.5034 15.45L20.1934 14H21.4234L19.6834 17.22L21.5434 20.54H20.2534L19.4534 19C19.3668 18.8267 19.2801 18.6567 19.1934 18.49C19.1134 18.3167 19.0234 18.13 18.9234 17.93H18.8834C18.7968 18.13 18.7134 18.3167 18.6334 18.49C18.5601 18.6567 18.4834 18.8267 18.4034 19L17.6234 20.54H16.3934L18.2534 17.17Z" fill="#788FAB"/>
<path d="M23.6283 14.98H21.7383V14H26.6783V14.98H24.7883V20.54H23.6283V14.98Z" fill="#788FAB"/>
<path d="M2.5 29H19.5C20.3284 29 21 28.3284 21 27.5V25.6324C21 24.7946 20.3137 24.1192 19.4759 24.1326L9.31353 24.2956C8.4758 24.309 7.78947 23.6336 7.78947 22.7957V13.3C7.78947 12.4716 8.46105 11.8 9.28947 11.8H19.5C20.3284 11.8 21 11.1284 21 10.3V9.86663C21 9.46567 20.8395 9.08139 20.5542 8.79959L15.1224 3.43296C14.8417 3.15556 14.4629 3 14.0682 3H11H2.5C1.67157 3 1 3.67157 1 4.5V27.5C1 28.3284 1.67157 29 2.5 29Z" fill="#D6DDE6"/>
<path fill-rule="evenodd" clip-rule="evenodd" d="M8.5 13C8.5 12.1716 9.17157 11.5 10 11.5H29C29.8284 11.5 30.5 12.1716 30.5 13V22C30.5 22.8284 29.8284 23.5 29 23.5H10C9.17157 23.5 8.5 22.8284 8.5 22V13ZM10 12.5C9.72386 12.5 9.5 12.7239 9.5 13V22C9.5 22.2761 9.72386 22.5 10 22.5H29C29.2761 22.5 29.5 22.2761 29.5 22V13C29.5 12.7239 29.2761 12.5 29 12.5H10Z" fill="#788FAB"/>
<path fill-rule="evenodd" clip-rule="evenodd" d="M3 3.5C2.72386 3.5 2.5 3.72386 2.5 4V27C2.5 27.2761 2.72386 27.5 3 27.5H20C20.2761 27.5 20.5 27.2761 20.5 27V24.2963C20.5 24.0202 20.7239 23.7963 21 23.7963C21.2761 23.7963 21.5 24.0202 21.5 24.2963V27C21.5 27.8284 20.8284 28.5 20 28.5H3C2.17157 28.5 1.5 27.8284 1.5 27V4C1.5 3.17157 2.17157 2.5 3 2.5H14.5858C14.9836 2.5 15.3651 2.65804 15.6464 2.93934L21.0607 8.35355C21.342 8.63486 21.5 9.01639 21.5 9.41421V10.5C21.5 10.7761 21.2761 11 21 11C20.7239 11 20.5 10.7761 20.5 10.5V9.41421C20.5 9.2816 20.4473 9.15443 20.3536 9.06066L14.9393 3.64645C14.8456 3.55268 14.7184 3.5 14.5858 3.5H3Z" fill="#788FAB"/>
<path fill-rule="evenodd" clip-rule="evenodd" d="M15 3C15.2761 3 15.5 3.22386 15.5 3.5V8C15.5 8.27614 15.7239 8.5 16 8.5H20.5C20.7761 8.5 21 8.72386 21 9C21 9.27614 20.7761 9.5 20.5 9.5H16C15.1716 9.5 14.5 8.82843 14.5 8V3.5C14.5 3.22386 14.7239 3 15 3Z" fill="#788FAB"/>
</svg>
