<svg width="96" height="96" viewBox="0 0 96 96" fill="none" xmlns="http://www.w3.org/2000/svg">
<path d="M43.97 22.18H63.89V24.18H43.97V22.18Z" fill="#002341"/>
<path d="M63.89 34.32H43.97V36.32H63.89V34.32Z" fill="#002341"/>
<path d="M31.78 46.47H63.9V48.47H31.78V46.47Z" fill="#002341"/>
<path d="M63.9 58.61H31.78V60.61H63.9V58.61Z" fill="#002341"/>
<path d="M31.78 70.75H63.9V72.75H31.78V70.75Z" fill="#002341"/>
<path fill-rule="evenodd" clip-rule="evenodd" d="M39.16 26.96H31.6V19.4H39.16V26.96ZM33.6 24.96H37.16V21.4H33.6V24.96Z" fill="#002341"/>
<path fill-rule="evenodd" clip-rule="evenodd" d="M31.59 39.11H39.15V31.55H31.59V39.11ZM37.15 37.11H33.59V33.55H37.15V37.11Z" fill="#002341"/>
<path fill-rule="evenodd" clip-rule="evenodd" d="M22 82.3H73.68V13H22V82.3ZM71.68 80.3H24V15H71.68V80.3Z" fill="#002341"/>
</svg>
