<svg width="32" height="32" viewBox="0 0 32 32" fill="none" xmlns="http://www.w3.org/2000/svg">
<path d="M2.5 29H18.5C19.3284 29 20 28.3284 20 27.5V24.2963V12.4615V11.5C20 10.6716 19.3284 10 18.5 10H15.5C14.6716 10 14 9.32843 14 8.5V5.5C14 4.67157 13.3284 4 12.5 4H2.5C1.67157 4 1 4.67157 1 5.5V27.5C1 28.3284 1.67157 29 2.5 29Z" fill="#8FC1FF"/>
<path fill-rule="evenodd" clip-rule="evenodd" d="M3 3.5C2.72386 3.5 2.5 3.72386 2.5 4V27C2.5 27.2761 2.72386 27.5 3 27.5H20C20.2761 27.5 20.5 27.2761 20.5 27V9.41421C20.5 9.28161 20.4473 9.15443 20.3536 9.06066L14.9393 3.64645C14.8456 3.55268 14.7184 3.5 14.5858 3.5H3ZM1.5 4C1.5 3.17157 2.17157 2.5 3 2.5H14.5858C14.9836 2.5 15.3651 2.65804 15.6464 2.93934L21.0607 8.35355C21.342 8.63486 21.5 9.01639 21.5 9.41421V27C21.5 27.8284 20.8284 28.5 20 28.5H3C2.17157 28.5 1.5 27.8284 1.5 27V4Z" fill="#1C3553"/>
<path fill-rule="evenodd" clip-rule="evenodd" d="M15 3C15.2761 3 15.5 3.22386 15.5 3.5V8C15.5 8.27614 15.7239 8.5 16 8.5H20.5C20.7761 8.5 21 8.72386 21 9C21 9.27614 20.7761 9.5 20.5 9.5H16C15.1716 9.5 14.5 8.82843 14.5 8V3.5C14.5 3.22386 14.7239 3 15 3Z" fill="#1C3553"/>
<path fill-rule="evenodd" clip-rule="evenodd" d="M4.5 18C4.5 17.7239 4.72386 17.5 5 17.5H18.5C18.7761 17.5 19 17.7239 19 18C19 18.2761 18.7761 18.5 18.5 18.5H5C4.72386 18.5 4.5 18.2761 4.5 18ZM4.5 20.5C4.5 20.2239 4.72386 20 5 20H18.5C18.7761 20 19 20.2239 19 20.5C19 20.7761 18.7761 21 18.5 21H5C4.72386 21 4.5 20.7761 4.5 20.5ZM4.5 23.5C4.5 23.2239 4.72386 23 5 23H18.5C18.7761 23 19 23.2239 19 23.5C19 23.7761 18.7761 24 18.5 24H5C4.72386 24 4.5 23.7761 4.5 23.5Z" fill="#1C3553"/>
</svg>
