<svg width="96" height="96" viewBox="0 0 96 96" fill="none" xmlns="http://www.w3.org/2000/svg">
<path d="M31 68H62V76H18V20H49.5L62 31.5V40H31V68Z" fill="#8FC1FF"/>
<path fill-rule="evenodd" clip-rule="evenodd" d="M16 22C16 19.7909 17.7909 18 20 18H50C50.5304 18 51.0391 18.2107 51.4142 18.5858L63.4142 30.5858C63.7893 30.9609 64 31.4696 64 32V40C64 41.1046 63.1046 42 62 42C60.8954 42 60 41.1046 60 40V34H52C49.7909 34 48 32.2091 48 30V22L20 22V74H60V68C60 66.8954 60.8954 66 62 66C63.1046 66 64 66.8954 64 68V74C64 76.2091 62.2091 78 60 78H20C17.7909 78 16 76.2091 16 74V22ZM52 24.8284L57.1716 30H52V24.8284Z" fill="#0F1D2E"/>
<path fill-rule="evenodd" clip-rule="evenodd" d="M67.0954 46.7885C69.5514 45.5429 72.5518 45.7932 75.0709 47.3904C76.0038 47.9818 76.2806 49.2176 75.6891 50.1504C75.0977 51.0833 73.8619 51.3601 72.9291 50.7686C71.4482 49.8297 69.9486 49.8265 68.9046 50.3559C67.919 50.8558 67 52.0055 67 54.1508C67 56.0375 67.7922 57.079 68.7435 57.5793C69.543 57.9998 70.6802 58.1527 72 57.8159V57.0639H71C69.8954 57.0639 69 56.1685 69 55.0639C69 53.9594 69.8954 53.0639 71 53.0639H74C75.1046 53.0639 76 53.9594 76 55.0639V59.2227C76 60.0093 75.539 60.7228 74.8219 61.046C72.1389 62.2555 69.2275 62.3534 66.8815 61.1195C64.4578 59.8448 63 57.3361 63 54.1508C63 50.7177 64.581 48.0637 67.0954 46.7885Z" fill="#0F1D2E"/>
<path fill-rule="evenodd" clip-rule="evenodd" d="M29 44C29 40.6863 31.6863 38 35 38H77C80.3137 38 83 40.6863 83 44V64C83 67.3137 80.3137 70 77 70H35C31.6863 70 29 67.3137 29 64V44ZM35 42C33.8954 42 33 42.8954 33 44V64C33 65.1046 33.8954 66 35 66H77C78.1046 66 79 65.1046 79 64V44C79 42.8954 78.1046 42 77 42H35Z" fill="#0F1D2E"/>
<path fill-rule="evenodd" clip-rule="evenodd" d="M41 50.0359V52.9789C41.245 52.9705 41.4816 52.9589 41.7103 52.9427C42.5187 52.8854 43.0887 52.7785 43.4755 52.6312C43.8313 52.4956 43.9129 52.3735 43.9417 52.3229C43.9815 52.253 44.1065 51.9768 44.0154 51.2481C43.9766 50.9374 43.8792 50.8073 43.7877 50.7197C43.6617 50.5989 43.412 50.4421 42.9383 50.3073C42.3887 50.151 41.7353 50.0738 41 50.0359ZM41 56.9808C41.3361 56.9708 41.6688 56.9556 41.9928 56.9327C42.9501 56.8649 43.9738 56.7218 44.8995 56.3691C45.8562 56.0046 46.8059 55.3766 47.4177 54.3022C48.0185 53.247 48.1435 52.0233 47.9846 50.7519C47.8373 49.5741 47.3417 48.5849 46.5546 47.831C45.802 47.1101 44.8874 46.7031 44.0326 46.4599C42.4143 45.9996 40.4997 45.9998 39.0792 46C39.0527 46 39.0262 46 39 46C37.8954 46 37 46.8954 37 48V60C37 61.1046 37.8954 62 39 62C40.1046 62 41 61.1046 41 60V56.9808Z" fill="#0F1D2E"/>
<path fill-rule="evenodd" clip-rule="evenodd" d="M59 46C60.1046 46 61 46.8954 61 48V60C61 60.9035 60.3942 61.6949 59.522 61.9307C58.6497 62.1665 57.7277 61.7882 57.2725 61.0078L54 55.3979V60C54 61.1046 53.1046 62 52 62C50.8954 62 50 61.1046 50 60V48.0002C50 47.0967 50.6058 46.3054 51.478 46.0695C52.3503 45.8337 53.2723 46.212 53.7275 46.9925L57 52.6023V48C57 46.8954 57.8954 46 59 46Z" fill="#0F1D2E"/>
</svg>
