<svg width="96" height="96" viewBox="0 0 96 96" fill="none" xmlns="http://www.w3.org/2000/svg">
<path fill-rule="evenodd" clip-rule="evenodd" d="M18 54.32H26V44.32H18V54.32ZM20 46.32H24V52.32H20V46.32Z" fill="#002341"/>
<path fill-rule="evenodd" clip-rule="evenodd" d="M38 54.32H46V44.32H38V54.32ZM40 46.32H44V52.32H40V46.32Z" fill="#002341"/>
<path fill-rule="evenodd" clip-rule="evenodd" d="M50 44.32H58V54.32H50V44.32ZM52 52.32H56V46.32H52V52.32Z" fill="#002341"/>
<path d="M70 44.32H78V54.32H70V44.32Z" fill="#002341"/>
<path fill-rule="evenodd" clip-rule="evenodd" d="M63.69 32.32H77.71L88 39.89V78.32H94V80.32H70L64 80.34V80.32L52 80.34V80.32H2V78.32H8V40.58L16.15 32.32H32.3L48.65 24L63.69 32.32ZM10 78.32H16V60.32H28V78.32H32V34.32H16.99L10 41.4V78.32ZM34 78.32H41.88L42.01 60.32H54V78.32H62V33.68L48.61 26.27L34 33.7V78.32ZM64 78.32H68V60.32H80V78.32H86V40.9L77.05 34.32H64V78.32ZM78 78.32V62.32H70V78.32H78ZM52 78.32V62.32H43.99L43.8744 78.32H52ZM26 78.32V62.32H18V78.32H26Z" fill="#002341"/>
</svg>
