<svg width="96" height="96" viewBox="0 0 96 96" fill="none" xmlns="http://www.w3.org/2000/svg">
<path d="M61.01 57.07C56.92 57.07 54.12 54.37 53.29 49.86H63.78V47.86H53.06C53.04 47.55 53.04 47.24 53.04 46.92C53.04 46.52 53.05 46.13 53.08 45.75H66.28V43.75H53.35C54.27 39.3 57.2 36.65 61.46 36.65C63.34 36.65 65.21 37.5 66.58 38.98L68.04 37.62C66.29 35.74 63.89 34.65 61.45 34.65C56.07 34.65 52.31 38.13 51.3 43.75H48.9V45.75H51.06C51.04 46.13 51.02 46.52 51.02 46.92C51.02 47.24 51.02 47.55 51.04 47.86H48.89V49.86H51.24C52.15 55.54 55.78 59.07 60.98 59.07C63.87 59.07 66.28 57.93 68.33 55.58L66.83 54.26C65.15 56.18 63.29 57.07 60.98 57.07H61.01Z" fill="#002341"/>
<path d="M59.96 19C44.48 19 31.88 31.6 31.88 47.08C31.88 62.56 44.48 75.16 59.96 75.16C75.44 75.16 88.04 62.56 88.04 47.08C88.04 31.6 75.44 19 59.96 19ZM59.96 73.15C45.58 73.15 33.88 61.45 33.88 47.07C33.88 32.69 45.58 21 59.96 21C74.34 21 86.04 32.7 86.04 47.08C86.04 61.46 74.34 73.16 59.96 73.16V73.15Z" fill="#002341"/>
<path d="M24.78 38.24H18.89V32.35C18.89 31.8 18.44 31.35 17.89 31.35C17.34 31.35 16.89 31.8 16.89 32.35V38.24H11C10.45 38.24 10 38.69 10 39.24C10 39.79 10.45 40.24 11 40.24H16.89V46.13C16.89 46.68 17.34 47.13 17.89 47.13C18.44 47.13 18.89 46.68 18.89 46.13V40.24H24.78C25.33 40.24 25.78 39.79 25.78 39.24C25.78 38.69 25.33 38.24 24.78 38.24Z" fill="#002341"/>
<path d="M24.78 58.53H11C10.45 58.53 10 58.98 10 59.53C10 60.08 10.45 60.53 11 60.53H24.78C25.33 60.53 25.78 60.08 25.78 59.53C25.78 58.98 25.33 58.53 24.78 58.53Z" fill="#002341"/>
</svg>
