<svg width="96" height="96" viewBox="0 0 96 96" fill="none" xmlns="http://www.w3.org/2000/svg">
<path fill-rule="evenodd" clip-rule="evenodd" d="M41.04 36.52C42.48 36.52 43.65 35.35 43.65 33.91C43.65 32.47 42.48 31.3 41.04 31.3C39.6 31.3 38.43 32.47 38.43 33.91C38.43 35.35 39.6 36.52 41.04 36.52ZM41.04 33.31C41.37 33.31 41.65 33.58 41.65 33.92C41.65 34.26 41.38 34.53 41.04 34.53C40.7 34.53 40.43 34.26 40.43 33.92C40.43 33.58 40.7 33.31 41.04 33.31Z" fill="#002341"/>
<path fill-rule="evenodd" clip-rule="evenodd" d="M51.61 47.08L31.88 41.12H31.87C31.45 40.99 31.16 40.6 31.16 40.16V27.26C31.16 26.94 31.31 26.65 31.56 26.46C31.81 26.27 32.13 26.21 32.43 26.29L52.17 31.8C52.6 31.92 52.9 32.31 52.9 32.76V46.12C52.9 46.43 52.75 46.73 52.5 46.92C52.32 47.05 52.11 47.12 51.9 47.12C51.8 47.12 51.7 47.11 51.61 47.08ZM37.2 37.45L34.29 39.76H34.3L49.66 44.4L45.39 37.52L40.89 41.33L37.2 37.45ZM50.9 33.5272V42.62L45.86 34.5L41.04 38.59L37.39 34.75L33.18 38.1V28.59L50.9 33.5272Z" fill="#002341"/>
<path fill-rule="evenodd" clip-rule="evenodd" d="M41.04 60.11C42.48 60.11 43.65 58.94 43.65 57.5C43.65 56.06 42.48 54.89 41.04 54.89C39.6 54.89 38.43 56.06 38.43 57.5C38.43 58.94 39.6 60.11 41.04 60.11ZM41.04 56.9C41.37 56.9 41.65 57.17 41.65 57.51C41.65 57.85 41.38 58.12 41.04 58.12C40.7 58.12 40.43 57.85 40.43 57.51C40.43 57.17 40.7 56.9 41.04 56.9Z" fill="#002341"/>
<path fill-rule="evenodd" clip-rule="evenodd" d="M51.58 71.12L31.85 64.7V64.69C31.44 64.56 31.16 64.17 31.16 63.74V50.84C31.16 50.53 31.31 50.23 31.56 50.04C31.82 49.86 32.15 49.8 32.45 49.89L52.18 55.85C52.6 55.98 52.89 56.37 52.89 56.81V70.17C52.89 70.49 52.74 70.79 52.48 70.98C52.31 71.1 52.1 71.17 51.89 71.17C51.79 71.17 51.68 71.15 51.58 71.12ZM37.18 61.03L34.24 63.37L49.67 68.39L45.35 61.11L40.87 64.91L37.18 61.03ZM50.89 66.52V57.54L33.16 52.19V61.67L37.37 58.33L41.02 62.17L45.86 58.06L50.89 66.52Z" fill="#002341"/>
<path fill-rule="evenodd" clip-rule="evenodd" d="M71.37 12L70.96 12.12L25.41 12.11V12.15L25 12.05V73.37L59.06 84.3V78.36L71.37 73.31V12ZM63.94 14.11L54.29 16.85V19.31L33.32 14.11H63.94ZM57.07 81.56L27 71.9V14.6L57.06 22.05V81.55L57.07 81.56ZM69.38 71.97L59.07 76.2V20.49L56.29 19.8V18.36L69.38 14.65V71.97Z" fill="#002341"/>
</svg>
