<svg width="96" height="96" viewBox="0 0 96 96" fill="none" xmlns="http://www.w3.org/2000/svg">
<path d="M44.4595 24.7501C45.9195 23.7501 48.0695 23.7501 49.5295 24.7501L72.9995 37.3301V73.0501H70.9995V38.5201L48.4295 26.4101C47.6395 25.8501 46.3595 25.8501 45.5695 26.4101L45.4595 26.4801L22.9995 38.5201L22.9995 73.0601H20.9995L20.9995 37.3301L44.4595 24.7501Z" fill="#002341"/>
<path fill-rule="evenodd" clip-rule="evenodd" d="M62.3495 57.6101C62.7095 57.4901 63.1095 57.5901 63.3795 57.8601H63.3695L65.7695 60.3301C66.1495 60.7201 66.1495 61.3401 65.7595 61.7301L59.5495 67.9401C59.3495 68.1301 59.0995 68.2301 58.8395 68.2301C58.5995 68.2301 58.3495 68.1401 58.1595 67.9601L55.2695 65.2801C54.9395 64.9701 54.8595 64.4901 55.0595 64.0901L55.8395 62.5801L55.1995 61.9601L53.3095 62.6101C52.9495 62.7301 52.5495 62.6401 52.2795 62.3701L51.4295 61.5301L31.2095 81.7501C31.0095 81.9401 30.7595 82.0401 30.4995 82.0401C30.2395 82.0401 29.9895 81.9501 29.7895 81.7501L26.6495 78.6101C26.4695 78.4201 26.3595 78.1701 26.3595 77.9001C26.3595 77.6301 26.4595 77.3801 26.6495 77.1901L46.8495 57.0101L45.7495 55.8601C45.4895 55.5901 45.3995 55.2001 45.5195 54.8501L46.5895 51.6501C45.5295 48.6701 39.8695 46.6601 37.7195 46.1201C37.3195 46.0201 37.0195 45.6801 36.9695 45.2601C36.9195 44.8501 37.1395 44.4501 37.5095 44.2601C37.6995 44.1601 42.3595 41.8401 47.4795 44.3201C51.9595 46.4866 59.428 53.9768 60.0315 54.5821C60.0437 54.5942 60.053 54.6036 60.0595 54.6101C60.3095 54.8701 60.3995 55.2401 60.3095 55.5801L59.6995 57.8101L60.2595 58.3101L62.3495 57.6101ZM57.1895 64.3401L58.8195 65.8501L58.8495 65.8401L63.6795 61.0101L62.3995 59.7001L60.3495 60.3801C60.0095 60.4901 59.6295 60.4101 59.3595 60.1701L57.9095 58.8601C57.6295 58.6001 57.5195 58.2201 57.6195 57.8501L58.2395 55.5901C56.5895 53.9601 50.3195 47.8901 46.6195 46.1001C44.7095 45.1701 42.8595 45.0601 41.4095 45.2201C44.1695 46.3401 47.8295 48.3501 48.6095 51.4001C48.6595 51.5901 48.6495 51.7901 48.5895 51.9701L47.6095 54.9001L48.7795 56.1201C48.8062 56.1535 48.824 56.1868 48.8417 56.2201C48.8506 56.2368 48.8595 56.2535 48.8695 56.2701C48.8795 56.2801 48.892 56.2876 48.9045 56.2951C48.917 56.3026 48.9295 56.3101 48.9395 56.3201C49.3295 56.7101 49.3295 57.3401 48.9395 57.7301L28.7795 77.8901L30.5095 79.6201L50.0195 60.1101L49.8995 59.9901C49.5095 59.6001 49.5095 58.9701 49.8995 58.5801C50.2895 58.1901 50.9195 58.1901 51.3095 58.5801L53.2595 60.5201L55.1395 59.8701C55.4895 59.7501 55.8895 59.8401 56.1595 60.1001L57.7695 61.6701C58.0795 61.9801 58.1595 62.4501 57.9595 62.8401L57.1895 64.3401Z" fill="#002341"/>
</svg>
