<svg width="96" height="96" viewBox="0 0 96 96" fill="none" xmlns="http://www.w3.org/2000/svg">
<path fill-rule="evenodd" clip-rule="evenodd" d="M77.09 56.14C77.27 56.72 78.63 58.96 79.83 60.76V60.77L80.4 61.63L79.52 62.17L79.5183 62.171C79.3981 62.2432 77.2715 63.5204 73.69 63.6V76.5H71.69V61.54L72.73 61.58C74.92 61.67 76.55 61.23 77.51 60.88C75.08 57.14 75.08 56.44 75.08 56.2V44.25C75.08 40.56 72.08 37.56 68.39 37.56H66.19C62.5 37.56 59.5 40.56 59.5 44.25V56.2C59.5 56.44 59.5 57.13 57.07 60.88C58.02 61.24 59.66 61.67 61.85 61.58L62.89 61.54V76.5H60.89V63.6C57.3066 63.5206 55.1913 62.2489 55.0625 62.1715L55.06 62.17L54.18 61.63L54.75 60.77C55.94 58.99 57.3 56.76 57.49 56.16V49.59C56.37 51.56 54.69 53.48 52.3 54.13C52.69 54.91 52.92 55.79 52.92 56.72V64.06C52.92 65.78 52.15 67.4 50.84 68.48V76.53H48.84V67.45L49.28 67.15C50.31 66.45 50.92 65.3 50.92 64.06V56.72C50.92 54.67 49.25 53 47.2 53H45.85C43.8 53 42.13 54.67 42.13 56.72V64.06C42.13 65.33 42.77 66.5 43.84 67.19L44.3 67.48L44.33 76.52H42.33L42.3 68.54C40.93 67.46 40.13 65.82 40.13 64.05V56.71C40.13 55.78 40.35 54.9 40.75 54.12C38.37 53.47 36.69 51.56 35.57 49.6V56.22C35.57 58.93 34.31 61.47 32.18 63.11V76.51H30.18V62.07L30.62 61.77C32.47 60.52 33.57 58.45 33.57 56.22V44.27C33.57 40.58 30.57 37.58 26.88 37.58H24.68C20.99 37.58 17.99 40.58 17.99 44.27V56.22C17.99 58.51 19.14 60.61 21.06 61.85L21.52 62.14L21.57 76.51H19.57L19.53 63.21C17.31 61.57 16 58.99 16 56.21V44.26C16 40.65 18.21 37.56 21.34 36.24C18.84 34.69 17.17 31.93 17.17 28.78C17.17 23.94 21.11 20 25.95 20C30.79 20 34.73 23.94 34.74 28.77C34.74 31.98 33 34.78 30.43 36.31C33.42 37.64 35.52 40.62 35.58 44.09C35.71 44.69 37.5 51.96 42.17 52.31C43.16 51.46 44.45 50.95 45.86 50.95H47.21C48.61 50.95 49.9 51.46 50.9 52.31C55.74 51.94 57.49 44.12 57.51 44.03C57.57 41.42 58.78 39.09 60.66 37.54H57.79L57.75 36.59C57.73 36.2 57.34 26.89 61.63 22.39C63.14 20.8 65.04 20 67.29 20C69.54 20 71.45 20.81 72.98 22.4C77.3 26.9 77 36.21 76.98 36.6L76.94 37.56H73.93C75.86 39.16 77.09 41.57 77.09 44.26V56.14ZM67.29 22.01C65.6 22.01 64.22 22.59 63.08 23.78H63.07C60.1 26.9 59.75 33.16 59.73 35.55H74.97C74.93 33.16 74.52 26.89 71.52 23.78C70.37 22.59 68.98 22.01 67.29 22.01ZM25.95 22C22.21 22 19.17 25.04 19.17 28.78C19.17 32.52 22.21 35.56 25.95 35.56C29.69 35.56 32.73 32.52 32.73 28.78C32.73 25.04 29.69 22 25.95 22Z" fill="#002341"/>
<path fill-rule="evenodd" clip-rule="evenodd" d="M52.42 44.29C52.42 47.48 49.83 50.07 46.64 50.07C43.45 50.07 40.86 47.48 40.86 44.29C40.86 41.1 43.45 38.51 46.64 38.51C49.83 38.51 52.42 41.1 52.42 44.29ZM50.42 44.29C50.42 42.21 48.72 40.51 46.64 40.51C44.56 40.51 42.86 42.21 42.86 44.29C42.86 46.37 44.56 48.07 46.64 48.07C48.72 48.07 50.42 46.37 50.42 44.29Z" fill="#002341"/>
</svg>
