<svg width="96" height="96" viewBox="0 0 96 96" fill="none" xmlns="http://www.w3.org/2000/svg">
<path d="M74 68.9998V34.3298L50.53 21.7498C49.07 20.7498 46.92 20.7498 45.46 21.7498L22 34.3298V68.9998H12V70.9998H84V68.9998H74ZM24 68.9998V35.5198L46.46 23.4798L46.57 23.4098C47.36 22.8498 48.64 22.8498 49.43 23.4098L72 35.5198V68.9998H24Z" fill="#002341"/>
<path d="M61.35 36.6098H32.91V38.6098H61.35V36.6098Z" fill="#002341"/>
<path d="M61.35 62.2898H32.91V64.2898H61.35V62.2898Z" fill="#002341"/>
<path d="M44.52 56.0498V52.0298H50.94V46.6598H58.16V40.5398H56.16V44.6598H48.94V50.0298H42.52V54.0498H36.11V60.4198H38.11V56.0498H44.52Z" fill="#002341"/>
</svg>
