<svg width="96" height="96" viewBox="0 0 96 96" fill="none" xmlns="http://www.w3.org/2000/svg">
<path fill-rule="evenodd" clip-rule="evenodd" d="M30 75H38V65H30V75ZM32 67H36V73H32V67Z" fill="#002341"/>
<path d="M58 65H66V75H58V65Z" fill="#002341"/>
<path d="M66 45H58V55H66V45Z" fill="#002341"/>
<path fill-rule="evenodd" clip-rule="evenodd" d="M52 55H44V45H52V55ZM50 47H46V53H50V47Z" fill="#002341"/>
<path fill-rule="evenodd" clip-rule="evenodd" d="M30 55H38V45H30V55ZM32 47H36V53H32V47Z" fill="#002341"/>
<path fill-rule="evenodd" clip-rule="evenodd" d="M66 37H58V27H66V37ZM64 29H60V35H64V29Z" fill="#002341"/>
<path fill-rule="evenodd" clip-rule="evenodd" d="M44 37H52V27H44V37ZM46 29H50V35H46V29Z" fill="#002341"/>
<path fill-rule="evenodd" clip-rule="evenodd" d="M38 37H30V27H38V37ZM36 29H32V35H36V29Z" fill="#002341"/>
<path fill-rule="evenodd" clip-rule="evenodd" d="M74 83V25.36L66.27 14.28C65.71 13.48 64.79 13 63.81 13H32.2C31.22 13 30.3 13.48 29.74 14.28L22.01 25.36V83H12V85H84V83H74ZM52 83H44V67H52V83ZM71.99 83H54V65H42V83H24V25.99L31.37 15.43C31.56 15.16 31.86 15 32.19 15H63.8C64.13 15 64.43 15.16 64.62 15.43L71.99 25.99V83Z" fill="#002341"/>
</svg>
