<svg width="96" height="96" viewBox="0 0 96 96" fill="none" xmlns="http://www.w3.org/2000/svg">
<path d="M63.99 47.8L64.07 55.88L62.07 55.9L62.02 50.77L45.72 67.58L44.28 66.19L60.13 49.84L56.01 49.89L55.99 47.89L63.99 47.8Z" fill="#002341"/>
<path fill-rule="evenodd" clip-rule="evenodd" d="M74 37.32V71.88H84V73.88H12V71.88H22V37.32L45.46 24.75C46.92 23.75 49.07 23.75 50.53 24.75L74 37.32ZM46.46 26.48L24 38.52V59.88H30V51.88H38V45.88H46V37.88H70.82L49.43 26.41C48.64 25.85 47.36 25.85 46.57 26.41L46.46 26.48ZM24 61.89V71.89H72V39.89H48V47.89H40V53.89H32V61.89H24Z" fill="#002341"/>
</svg>
