<svg width="96" height="96" viewBox="0 0 96 96" fill="none" xmlns="http://www.w3.org/2000/svg">
<path d="M84 71H74V25.02L66.26 14.25C65.7 13.47 64.79 13 63.82 13H32.17C31.21 13 30.3 13.47 29.73 14.25L21.99 25.02V71H12V73H22V83H74V73H84V71ZM24 25.66L31.36 15.41C31.55 15.15 31.85 14.99 32.17 14.99H63.82C64.14 14.99 64.44 15.15 64.63 15.41L71.99 25.66V71H53.99V57H41.99V71H24V25.66ZM52 71H44V59H52V71ZM72 81H24V73H72V81Z" fill="#002341"/>
<path d="M30 35H38V25H30V35ZM32 27H36V33H32V27Z" fill="#002341"/>
<path d="M52 25H44V35H52V25ZM50 33H46V27H50V33Z" fill="#002341"/>
<path d="M66 25H58V35H66V25ZM64 33H60V27H64V33Z" fill="#002341"/>
<path d="M30 51H38V41H30V51ZM32 43H36V49H32V43Z" fill="#002341"/>
<path d="M52 41H44V51H52V41ZM50 49H46V43H50V49Z" fill="#002341"/>
<path d="M66 41H58V51H66V41ZM64 49H60V43H64V49Z" fill="#002341"/>
<path d="M30 67H38V57H30V67ZM32 59H36V65H32V59Z" fill="#002341"/>
<path d="M66 57H58V67H66V57ZM64 65H60V59H64V65Z" fill="#002341"/>
</svg>
