<svg width="96" height="96" viewBox="0 0 96 96" fill="none" xmlns="http://www.w3.org/2000/svg">
<path d="M74.19 76.33V28.3L67.75 19.07C67.28 18.4 66.52 18 65.7 18H39.36C38.54 18 37.78 18.4 37.31 19.07L30.87 28.3V33.57C25.12 35.05 20.85 40.27 20.85 46.48C20.85 51.86 24.06 56.5 28.67 58.61C20.21 61.02 14 68.79 14 78H16C16 67.98 24.16 59.82 34.18 59.82C44.2 59.82 52.36 67.97 52.36 78H82.53V76.33H74.19ZM22.84 46.48C22.84 40.23 27.93 35.14 34.18 35.14C40.43 35.14 45.52 40.23 45.52 46.48C45.52 52.73 40.43 57.82 34.18 57.82C27.93 57.82 22.84 52.73 22.84 46.48ZM42.53 36.09C41.53 35.28 40.41 34.62 39.2 34.13V31.34H42.53V36.09ZM55.86 76.34H54.29C53.92 71.83 52.05 67.73 49.19 64.55V63H55.86V76.34ZM72.53 76.34H57.53V61.34H47.53V62.92C45.3 60.95 42.65 59.45 39.71 58.61C44.31 56.5 47.53 51.87 47.53 46.48C47.53 43.11 46.27 40.04 44.2 37.69V29.67H37.53V33.58C36.46 33.3 35.34 33.14 34.18 33.14C33.62 33.14 33.07 33.19 32.53 33.25V28.83L38.67 20.03C38.83 19.81 39.08 19.67 39.35 19.67H65.69C65.96 19.67 66.22 19.8 66.37 20.03L72.51 28.83V76.34H72.53Z" fill="#002341"/>
<path d="M60.86 69.67H67.53V61.34H60.86V69.67ZM62.53 63H65.86V68H62.53V63Z" fill="#002341"/>
<path d="M49.19 53H55.86V44.67H49.19V53ZM50.86 46.33H54.19V51.33H50.86V46.33Z" fill="#002341"/>
<path d="M60.86 38H67.53V29.67H60.86V38ZM62.53 31.33H65.86V36.33H62.53V31.33Z" fill="#002341"/>
<path d="M49.19 38H55.86V29.67H49.19V38ZM50.86 31.33H54.19V36.33H50.86V31.33Z" fill="#002341"/>
<path d="M67.53 44.67H60.86V53H67.53V44.67Z" fill="#002341"/>
<path d="M45.52 46.48C45.52 40.23 40.43 35.14 34.18 35.14C27.93 35.14 22.84 40.23 22.84 46.48C22.84 52.73 27.93 57.82 34.18 57.82C40.43 57.82 45.52 52.73 45.52 46.48Z" fill="white"/>
<path d="M34.18 59.82C24.16 59.82 16 67.97 16 78H52.36C52.36 67.98 44.2 59.82 34.18 59.82Z" fill="white"/>
</svg>
