<svg width="96" height="96" viewBox="0 0 96 96" fill="none" xmlns="http://www.w3.org/2000/svg">
<rect width="25" height="62" transform="matrix(-1 0 0 1 81 17)" fill="#8FC1FF"/>
<path fill-rule="evenodd" clip-rule="evenodd" d="M33 37C34.1046 37 35 37.8954 35 39V57C35 58.1046 34.1046 59 33 59C31.8954 59 31 58.1046 31 57V50L15 50C13.8954 50 13 49.1046 13 48C13 46.8954 13.8954 46 15 46L31 46L31 39C31 37.8954 31.8954 37 33 37Z" fill="#1C3553"/>
<path fill-rule="evenodd" clip-rule="evenodd" d="M17 19V56.9686C17 58.0731 16.1046 58.9686 15 58.9686C13.8954 58.9686 13 58.0731 13 56.9686V19C13 16.7909 14.7909 15 17 15L54 15C56.2091 15 58 16.7909 58 19V42.4615C58 43.5661 57.1046 44.4615 56 44.4615C54.8954 44.4615 54 43.5661 54 42.4615V19L35 19V27C35 28.1046 34.1046 29 33 29C31.8954 29 31 28.1046 31 27V19L17 19ZM56 53.2539C57.1046 53.2539 58 54.1493 58 55.2539V77C58 79.2091 56.2091 81 54 81H48.846C47.7414 81 46.846 80.1046 46.846 79C46.846 77.1358 46.4629 75.8298 45.9274 74.8977C45.3954 73.9719 44.6463 73.2983 43.7238 72.7976C42.3124 72.0316 40.5467 71.6955 38.7313 71.5704V79C38.7313 79.5304 38.5206 80.0391 38.1455 80.4142C37.7705 80.7893 37.2618 81 36.7313 81H17C14.7909 81 13 79.2091 13 77V70.0834C13 68.9788 13.8954 68.0834 15 68.0834C16.1046 68.0834 17 68.9788 17 70.0834V77L34.7313 77V69.507C34.7313 68.4025 35.6268 67.507 36.7313 67.507C39.2949 67.507 42.7623 67.7246 45.6318 69.282C47.1082 70.0833 48.4432 71.2473 49.3956 72.9049C50.0702 74.0789 50.5187 75.4408 50.7216 77H54V55.2539C54 54.1493 54.8954 53.2539 56 53.2539Z" fill="#1C3553"/>
<path fill-rule="evenodd" clip-rule="evenodd" d="M54 15H58.875C59.9796 15 60.875 15.8954 60.875 17C60.875 18.1046 59.9796 19 58.875 19H54V15ZM62.625 17C62.625 15.8954 63.5204 15 64.625 15H70.375C71.4796 15 72.375 15.8954 72.375 17C72.375 18.1046 71.4796 19 70.375 19H64.625C63.5204 19 62.625 18.1046 62.625 17ZM74.125 17C74.125 15.8954 75.0204 15 76.125 15H79C81.2091 15 83 16.7909 83 19V21.9C83 23.0046 82.1046 23.9 81 23.9C79.8954 23.9 79 23.0046 79 21.9V19H76.125C75.0204 19 74.125 18.1046 74.125 17ZM81 25.7C82.1046 25.7 83 26.5954 83 27.7V33.5C83 34.6046 82.1046 35.5 81 35.5C79.8954 35.5 79 34.6046 79 33.5V27.7C79 26.5954 79.8954 25.7 81 25.7ZM81 37.3C82.1046 37.3 83 38.1954 83 39.3V45.1C83 46.2046 82.1046 47.1 81 47.1C79.8954 47.1 79 46.2046 79 45.1V39.3C79 38.1954 79.8954 37.3 81 37.3ZM81 48.9C82.1046 48.9 83 49.7954 83 50.9V56.7C83 57.8046 82.1046 58.7 81 58.7C79.8954 58.7 79 57.8046 79 56.7V50.9C79 49.7954 79.8954 48.9 81 48.9ZM81 60.5C82.1046 60.5 83 61.3954 83 62.5V68.3C83 69.4046 82.1046 70.3 81 70.3C79.8954 70.3 79 69.4046 79 68.3V62.5C79 61.3954 79.8954 60.5 81 60.5ZM81 72.1C82.1046 72.1 83 72.9954 83 74.1V77C83 79.2091 81.2091 81 79 81H76.125C75.0204 81 74.125 80.1046 74.125 79C74.125 77.8954 75.0204 77 76.125 77H79V74.1C79 72.9954 79.8954 72.1 81 72.1ZM54 77H58.875C59.9796 77 60.875 77.8954 60.875 79C60.875 80.1046 59.9796 81 58.875 81H54V77ZM62.625 79C62.625 77.8954 63.5204 77 64.625 77H70.375C71.4796 77 72.375 77.8954 72.375 79C72.375 80.1046 71.4796 81 70.375 81H64.625C63.5204 81 62.625 80.1046 62.625 79Z" fill="#1C3553"/>
</svg>
