<svg width="96" height="96" viewBox="0 0 96 96" fill="none" xmlns="http://www.w3.org/2000/svg">
<path fill-rule="evenodd" clip-rule="evenodd" d="M20 56C20 58.76 22.24 61 25 61C27.76 61 30 58.76 30 56C30 53.24 27.76 51 25 51C22.24 51 20 53.24 20 56ZM22 56C22 54.35 23.35 53 25 53C26.65 53 28 54.35 28 56C28 57.65 26.65 59 25 59C23.35 59 22 57.65 22 56Z" fill="#002341"/>
<path fill-rule="evenodd" clip-rule="evenodd" d="M67 31C64.24 31 62 28.76 62 26C62 23.24 64.24 21 67 21C69.76 21 72 23.24 72 26C72 28.76 69.76 31 67 31ZM67 23C65.35 23 64 24.35 64 26C64 27.65 65.35 29 67 29C68.65 29 70 27.65 70 26C70 24.35 68.65 23 67 23Z" fill="#002341"/>
<path d="M76 73V71H78V77H76V75H20V77H18V71H20V73H76Z" fill="#002341"/>
<path d="M38.94 61.52H35.53V60.04H40.82V61.12C39.06 63.25 38.81 64.67 38.68 67.64H36.91C37.05 65.12 37.51 63.51 38.94 61.53V61.52Z" fill="#002341"/>
<path fill-rule="evenodd" clip-rule="evenodd" d="M44.89 59.88C43.29 59.88 41.82 61.16 41.82 64H41.81C41.81 66.67 43.21 67.77 44.68 67.77C46.05 67.77 47.2 66.83 47.2 65.22C47.2 63.61 46.24 62.87 44.94 62.87C44.47 62.87 43.81 63.17 43.42 63.67C43.48 61.9 44.15 61.3 44.99 61.3C45.44 61.3 45.92 61.55 46.18 61.84L47.1 60.79C46.62 60.3 45.9 59.88 44.89 59.88ZM44.62 64.12C45.19 64.12 45.61 64.42 45.61 65.22H45.62C45.62 66.08 45.19 66.45 44.66 66.45C44.13 66.45 43.63 66.07 43.47 64.87C43.78 64.34 44.23 64.12 44.62 64.12Z" fill="#002341"/>
<path d="M52.27 61.7L52.39 62.47H52.44C52.93 61.98 53.46 61.56 54.23 61.56C55.07 61.56 55.57 61.92 55.87 62.55C56.4 62.01 56.95 61.56 57.74 61.56C59.02 61.56 59.59 62.47 59.59 63.95V67.63H57.83V64.17C57.83 63.31 57.6 63.05 57.1 63.05C56.8 63.05 56.47 63.24 56.08 63.62V67.63H54.32V64.17C54.32 63.31 54.09 63.05 53.59 63.05C53.3 63.05 52.96 63.24 52.58 63.62V67.63H50.82V61.7H52.27Z" fill="#002341"/>
<path fill-rule="evenodd" clip-rule="evenodd" d="M68 39C68 41.21 69.79 43 72 43C74.21 43 76 41.21 76 39C76 36.79 74.21 35 72 35C69.79 35 68 36.79 68 39ZM70 39C70 37.9 70.9 37 72 37C73.1 37 74 37.9 74 39C74 40.1 73.1 41 72 41C70.9 41 70 40.1 70 39Z" fill="#002341"/>
<path fill-rule="evenodd" clip-rule="evenodd" d="M51.34 27.01L60 27.12L60.08 42.99H51.99L51.94 47L20 46.83V23H51.25L51.34 27.01ZM54.9968 40.98L58 37.4V34.29L52.3868 40.98H50.02L50.01 40.99L49.98 43.83L49.02 44.98L45.91 44.96L58.01 30.71V29.08L58.07 40.98H54.9968ZM48.29 25H45.05L28.37 44.88L31.58 44.9L48.29 25ZM22.54 44.84L25.75 44.86L42.44 25H39.21L22.54 44.84ZM49.38 28.98L49.33 26.85H49.32L34.15 44.9L37.37 44.92L50.75 29L49.38 28.98ZM53.3499 29.0301L56.77 29.07L43.29 44.95L39.99 44.93L53.3499 29.0301ZM24.92 24.99H22V28.46L24.92 24.99ZM27.53 24.99L22 31.57V35.42L30.76 24.99H27.53ZM33.37 25L22 38.53V42.38L36.6 25H33.37Z" fill="#002341"/>
<path fill-rule="evenodd" clip-rule="evenodd" d="M14 81H82V15H14V81ZM80 79H16V17H80V79Z" fill="#002341"/>
</svg>
