<svg width="96" height="96" viewBox="0 0 96 96" fill="none" xmlns="http://www.w3.org/2000/svg">
<path d="M48.23 73.89L83.35 51.88L77.08 48.29L47.74 66.08L19.66 48.36L13.39 51.92L48.23 73.89Z" fill="white"/>
<path d="M79.04 47.1L87.22 42.14L48.55 20L9 41.64L17.74 47.15L9.5 51.82L48.22 76.25L87.23 51.79L79.03 47.09L79.04 47.1ZM61.35 29.62L37.26 43.58L31.42 40.12L55.41 26.22L61.35 29.62ZM68.86 33.92L59.48 39.36L54.13 36.12L63.36 30.77L68.86 33.92ZM76.57 38.34L52.71 52.16L47.19 48.78L70.86 35.06L76.56 38.33L76.57 38.34ZM35.15 55.77L45.22 49.93L50.74 53.31L40.58 59.2L35.15 55.77ZM28 51.26L52.15 37.27L57.5 40.51L33.24 54.57L28 51.27V51.26ZM66.95 46.22L71.8 49.15L47.76 63.72L42.49 60.39L66.96 46.21L66.95 46.22ZM29.42 41.28L35.26 44.74L26.08 50.06L20.43 46.49L29.42 41.28ZM73.72 47.98L68.92 45.08L78.56 39.49L83.27 42.19L73.72 47.98ZM44.43 30.27L39.45 27.26L48.53 22.29L53.39 25.08L44.43 30.27ZM37.42 28.37L42.46 31.42L18.52 45.29L12.94 41.77L37.42 28.38V28.37ZM47.74 66.08L77.08 48.29L83.35 51.88L48.23 73.89L13.39 51.92L19.66 48.37L47.74 66.09V66.08Z" fill="#002341"/>
<path d="M83.28 42.19L78.57 39.49L68.93 45.08L73.73 47.98L83.28 42.19Z" fill="white"/>
<path d="M42.46 31.41L37.43 28.37L12.94 41.76L18.53 45.28L42.46 31.41Z" fill="white"/>
<path d="M39.45 27.26L44.44 30.27L53.4 25.08L48.54 22.29L39.45 27.26Z" fill="white"/>
<path d="M52.15 37.27L28 51.26L33.24 54.56L57.5 40.51L52.15 37.27Z" fill="white"/>
<path d="M71.8 49.15L66.96 46.22L42.49 60.4L47.76 63.73L71.8 49.15Z" fill="white"/>
<path d="M45.22 49.93L35.15 55.77L40.58 59.2L50.74 53.31L45.22 49.93Z" fill="white"/>
<path d="M47.19 48.79L52.71 52.17L76.56 38.34L70.86 35.08L47.19 48.79Z" fill="white"/>
<path d="M54.12 36.13L59.47 39.36L68.85 33.93L63.35 30.78L54.12 36.13Z" fill="white"/>
<path d="M31.41 40.13L37.25 43.59L61.35 29.63L55.41 26.23L31.41 40.13Z" fill="white"/>
<path d="M26.09 50.06L35.27 44.74L29.43 41.28L20.44 46.49L26.09 50.06Z" fill="white"/>
</svg>
