<svg width="96" height="96" viewBox="0 0 96 96" fill="none" xmlns="http://www.w3.org/2000/svg">
<path fill-rule="evenodd" clip-rule="evenodd" d="M85.9203 45.55C85.9203 51.72 84.2003 57.48 81.2103 62.4L81.2203 62.39C81.1803 62.47 81.1403 62.54 81.0803 62.61C75.3403 71.9 65.0703 78.1 53.3703 78.1C35.4203 78.1 20.8203 63.5 20.8203 45.55C20.8203 27.6 35.4203 13 53.3703 13C71.3203 13 85.9203 27.6 85.9203 45.55ZM62.3803 59.19L66.2503 64.16V64.15L79.6403 61.11C81.6003 57.82 82.9603 54.14 83.5603 50.21L74.2003 41.48L67.9603 44.32L62.3803 59.19ZM45.9903 57.85C46.1903 57.97 46.3203 58.15 46.4003 58.36V58.37H60.5603L65.9703 43.94L53.3603 34.33L40.7503 43.94L45.9703 57.85H45.9903ZM27.4403 61.7L41.0303 64.17L44.2203 58.86L38.7703 44.33L32.5303 41.49L23.1703 50.22C23.8103 54.38 25.2903 58.27 27.4403 61.7ZM75.5403 39.99L83.8303 47.73V47.74C83.8803 47.02 83.9203 46.29 83.9203 45.56C83.9203 39.37 82.0703 33.62 78.9003 28.8L75.5403 39.99ZM77.3803 26.86C77.3903 26.83 77.4303 26.77 77.4303 26.77H77.4403C74.5403 23.07 70.8203 20.04 66.5403 17.99C66.5179 18.0087 66.4968 18.0303 66.4756 18.052C66.4401 18.0882 66.4041 18.125 66.3603 18.15L54.3703 25.09V32.56L67.3003 42.42L73.5703 39.57L77.3803 26.86ZM53.3603 23.36L64.3003 17.03C60.9003 15.72 57.2203 15 53.3603 15C49.5003 15 45.8203 15.72 42.4203 17.03L53.3603 23.36ZM40.2259 18.0263C40.2143 18.0143 40.2025 18.0022 40.1903 17.99C35.9103 20.04 32.1903 23.07 29.2903 26.77C29.3103 26.8 29.3403 26.86 29.3403 26.86L33.1503 39.57L39.4203 42.42L52.3603 32.56V25.09L40.3703 18.15C40.3145 18.1181 40.2714 18.0735 40.2259 18.0263ZM31.2003 39.99L27.8403 28.8C24.6703 33.62 22.8203 39.38 22.8203 45.56C22.8203 46.29 22.8603 47.01 22.9103 47.73L31.2003 39.99ZM40.9103 66.18L29.0503 64.02C33.2503 69.54 39.2903 73.59 46.2503 75.26L40.9103 66.18ZM42.7003 65.28L48.8703 75.77L48.8603 75.78C50.3303 75.99 51.8303 76.11 53.3603 76.11C55.1503 76.11 56.8903 75.94 58.5903 75.65L64.6503 65.35L60.7703 60.36H45.6503L42.7003 65.28ZM66.4903 66.16L61.2503 75.07V75.08C68.0803 73.25 73.9803 69.11 78.0403 63.54L66.4903 66.16Z" fill="#002341"/>
<path d="M10.2303 66.42C10.0603 66.54 9.86034 66.6 9.66034 66.6C9.34034 66.6 9.03034 66.45 8.84034 66.17C8.53034 65.72 8.64034 65.1 9.09034 64.78L15.6603 60.18C16.1103 59.87 16.7303 59.98 17.0503 60.43C17.3603 60.88 17.2503 61.5 16.8003 61.82L10.2303 66.42Z" fill="#002341"/>
<path d="M19.0203 68.31C18.7003 67.86 18.0703 67.76 17.6303 68.08L8.42034 74.65C7.97034 74.97 7.87034 75.6 8.19034 76.04C8.39034 76.31 8.69034 76.46 9.00034 76.46C9.20034 76.46 9.40034 76.4 9.58034 76.27L18.7803 69.7C19.2303 69.38 19.3303 68.75 19.0103 68.31H19.0203Z" fill="#002341"/>
<path d="M16.9803 77.93L23.5503 73.33C24.0003 73.02 24.6203 73.13 24.9403 73.58C25.2503 74.03 25.1403 74.65 24.6903 74.97L18.1203 79.57C17.9503 79.69 17.7503 79.75 17.5503 79.75C17.2303 79.75 16.9203 79.6 16.7303 79.32C16.4203 78.87 16.5303 78.25 16.9803 77.93Z" fill="#002341"/>
</svg>
