<svg width="96" height="96" viewBox="0 0 96 96" fill="none" xmlns="http://www.w3.org/2000/svg">
<path d="M36 68.9995C36 69.5518 35.5523 69.9995 35 69.9995C34.4477 69.9995 34 69.5518 34 68.9995C34 68.4472 34.4477 67.9995 35 67.9995C35.5523 67.9995 36 68.4472 36 68.9995Z" fill="#002341"/>
<path d="M60 68.9995C60 69.5518 59.5523 69.9995 59 69.9995C58.4477 69.9995 58 69.5518 58 68.9995C58 68.4472 58.4477 67.9995 59 67.9995C59.5523 67.9995 60 68.4472 60 68.9995Z" fill="#002341"/>
<path d="M41 69.9995H55C55.55 69.9995 56 69.5495 56 68.9995C56 68.4495 55.55 67.9995 55 67.9995H41C40.45 67.9995 40 68.4495 40 68.9995C40 69.5495 40.45 69.9995 41 69.9995Z" fill="#002341"/>
<path fill-rule="evenodd" clip-rule="evenodd" d="M80 21.9995V77.9995H86V79.9995H10V77.9995H16V21.9995H80ZM30.9 58.4495C30.59 58.9595 30.35 59.7195 30.35 60.0395C30.47 60.1195 30.72 60.1895 31 60.2595C31.059 60.1023 31.1187 59.9419 31.1795 59.7788C31.3351 59.361 31.4974 58.9254 31.67 58.4795C31.35 58.4495 31.07 58.4295 30.9 58.4495ZM64.83 58.3595C64.63 58.3295 64.29 58.3495 63.9 58.3995H63.91C64.0897 58.8488 64.2599 59.2885 64.4238 59.7121C64.497 59.9013 64.569 60.0873 64.64 60.2695C64.97 60.1995 65.26 60.1095 65.4 60.0195C65.41 59.6995 65.15 58.8995 64.83 58.3595ZM32.34 62.4895C36.2 62.8595 48.73 63.8495 63.34 62.5095V62.4995C61.5 57.5095 59.17 52.2295 58.27 51.6495C56.45 50.7795 39.55 50.8195 37.5 51.7095C36.43 52.1795 34.07 57.4395 32.34 62.4895ZM64 64.4695C48.85 65.8895 35.81 64.8495 32 64.4695L31.99 64.4795V72.6595C31.99 73.4095 32.66 74.0095 33.47 74.0095H62.52C63.34 74.0095 64 73.3995 64 72.6595V64.4695ZM37.79 77.9995H58.23C58.09 77.6495 58.01 77.2695 58.01 76.8795V75.9995H38.01V76.8795C38.01 77.2795 37.92 77.6495 37.79 77.9995ZM32 76.8795C32 77.4995 32.5 77.9995 33.12 77.9995H34.88C35.5 77.9995 36 77.4995 36 76.8795V75.9995H33.48C32.95 75.9995 32.45 75.8795 32 75.6695V76.8795ZM60 76.8795C60 77.4995 60.5 77.9995 61.12 77.9995H62.88C63.5 77.9995 64 77.4995 64 76.8795V75.6695C63.55 75.8795 63.05 75.9995 62.52 75.9995H60V76.8795ZM66.01 76.8795C66.01 77.2795 65.92 77.6495 65.79 77.9995H72V43.9995H24V77.9895H30.22C30.08 77.6395 30 77.2595 30 76.8695V63.3495C30 63.2678 30.0248 63.186 30.0518 63.0967C30.0545 63.0877 30.0573 63.0787 30.06 63.0695H30.04C30.12 62.8095 30.22 62.4995 30.34 62.1495C29.72 61.9795 29.05 61.6795 28.68 61.1595C27.78 59.8795 29 57.6395 29.38 57.1095C29.84 56.4695 30.87 56.2795 32.45 56.5495C33.75 53.4795 35.32 50.4795 36.71 49.8795C39.36 48.7295 57.3 48.7795 59.28 49.9395C60.36 50.5695 61.82 53.4895 63.11 56.4895C64.78 56.1895 65.87 56.3695 66.35 57.0395C66.74 57.5795 67.98 59.8595 67.07 61.1595C66.7 61.6995 66 61.9995 65.35 62.1695C65.3633 62.2062 65.3767 62.244 65.39 62.2817C65.4167 62.3573 65.4433 62.4328 65.47 62.4995C65.4769 62.5025 65.484 62.5055 65.4911 62.5085C65.5556 62.5357 65.6259 62.5654 65.68 62.6195C65.89 62.8095 66.01 63.0795 66.01 63.3595V76.8795ZM24 35.9995H72V29.9995H24V35.9995ZM72.01 41.9995V37.9995H24V41.9995H72.01ZM74.01 27.9995V77.9995H78V23.9995H18V77.9995H22V27.9995H74.01Z" fill="#002341"/>
</svg>
