<svg width="96" height="96" viewBox="0 0 96 96" fill="none" xmlns="http://www.w3.org/2000/svg">
<path d="M75.34 62C74 59.23 70.04 52.9 62 52.72V43.66C63.8 42.86 68.56 40.51 69.05 37.55C69.19 36.72 69.06 35.47 67.65 34.25C66.27 33.05 65.09 33.14 64.34 33.42C62.72 34.03 61.66 36.21 60.99 38.35C60.32 36.21 59.26 34.03 57.64 33.42C56.9 33.14 55.72 33.05 54.33 34.25C52.92 35.47 52.79 36.72 52.93 37.55C53.43 40.51 58.18 42.87 59.98 43.66V52.81C57.86 53.04 55.91 53.72 54.16 54.85C52.43 53.85 50.23 53.15 47.39 53.15C44.25 53.15 41.81 53.99 39.92 55.16C38.12 53.93 36.13 53.15 33.98 52.86V41.68C36.33 40.72 43.56 37.45 44.18 33.15C44.44 31.35 43.56 29.69 41.58 28.2C39.53 26.66 37.94 26.88 36.97 27.33C34.43 28.52 33.17 32.75 32.55 36.21C31.38 33.11 29.48 29.48 26.84 28.72C25.29 28.28 23.76 28.81 22.27 30.29C20.51 32.05 20.48 33.65 20.77 34.68C21.86 38.62 29.41 41.05 31.98 41.77V52.72C31.98 52.72 31.95 52.72 31.93 52.72C23.61 52.72 19.85 59.17 18.59 62.01H12V64.01H84V62.01H75.34V62ZM37.83 29.14C37.94 29.09 38.15 28.99 38.48 28.99C38.91 28.99 39.53 29.16 40.39 29.8C41.76 30.83 42.36 31.83 42.21 32.86C41.83 35.49 37.11 38.12 34.12 39.45C34.53 35.44 35.74 30.11 37.83 29.14ZM22.71 34.15C22.63 33.87 22.4 33.01 23.7 31.71C24.65 30.76 25.36 30.57 25.82 30.57C26.04 30.57 26.2 30.62 26.3 30.64C28.49 31.27 30.51 35.92 31.58 39.56C27.95 38.43 23.32 36.33 22.71 34.14V34.15ZM65.05 35.29C65.05 35.29 65.18 35.24 65.3 35.24C65.51 35.24 65.85 35.33 66.34 35.76C67.11 36.42 67.13 36.91 67.07 37.22C66.84 38.61 64.44 40.23 62.3 41.31C62.85 38.66 63.87 35.73 65.05 35.28V35.29ZM54.91 37.22C54.86 36.91 54.88 36.42 55.64 35.76C56.13 35.33 56.47 35.24 56.68 35.24C56.8 35.24 56.88 35.27 56.93 35.29C58.11 35.74 59.13 38.67 59.68 41.32C57.53 40.23 55.14 38.62 54.91 37.23V37.22ZM61.64 54.72C68.18 54.72 71.63 59.31 73.1 62.01H59.75C59.35 60.73 58.3 58.17 55.96 56.12C57.65 55.2 59.56 54.72 61.64 54.72ZM57.66 62.01H36.45C37.5 59.72 40.46 55.16 47.41 55.16C54.34 55.16 56.85 59.77 57.66 62.01ZM31.94 54.72C34.24 54.72 36.34 55.3 38.22 56.43C35.92 58.44 34.76 60.83 34.29 62.01H20.81C22.16 59.33 25.43 54.72 31.94 54.72Z" fill="#002341"/>
</svg>
