<svg width="96" height="96" viewBox="0 0 96 96" fill="none" xmlns="http://www.w3.org/2000/svg">
<path d="M63.7298 66.48C63.7498 65.93 64.1898 65.5 64.7598 65.51L64.7298 65.54C65.2798 65.56 65.7198 66.02 65.6998 66.57L65.5298 72.13C65.5298 72.8 65.1898 73.46 64.6198 73.87L61.5498 76.07C61.4998 76.11 61.4798 76.17 61.4798 76.23L61.8298 79.77C61.8998 80.48 61.6198 81.18 61.0898 81.64C60.5598 82.1 59.8298 82.27 59.1398 82.1L56.3898 81.41C56.3598 81.4 56.2898 81.41 56.2898 81.41L51.5398 82.99C51.2698 83.08 50.9798 83.12 50.6998 83.1L42.8198 82.54C42.6498 82.53 42.4998 82.5 42.3498 82.46L37.0498 80.87C36.9998 80.85 36.9098 80.88 36.9098 80.88L32.3198 83.38C31.9998 83.56 31.6398 83.65 31.2798 83.65C30.9598 83.65 30.6298 83.58 30.3298 83.43C29.6898 83.12 29.2498 82.52 29.1298 81.83L28.2998 76.86C28.2098 76.31 28.3298 75.75 28.6398 75.29L31.9798 70.29C32.0198 70.23 32.0198 70.17 31.9898 70.11C31.9598 70.05 31.9098 70.01 31.8398 70.01L26.6898 69.61C26.1098 69.56 25.5698 69.28 25.1898 68.83L22.8398 66.01C22.4498 65.55 22.3198 64.99 22.4498 64.46V62.68C22.4285 62.6375 22.4085 62.5937 22.3898 62.5527C22.3556 62.4779 22.3256 62.4123 22.2998 62.38L21.0098 60.65C20.8198 60.4 20.7098 60.14 20.6198 59.92L20.5498 59.75C20.4898 59.62 20.4598 59.48 20.4598 59.34V56.41C20.4598 56.33 20.4698 56.24 20.4898 56.16L19.1398 52.55C18.8398 51.76 19.0398 50.85 19.6398 50.25L20.4798 49.41C20.4698 49.36 20.4698 49.3 20.4698 49.24V46.88C20.4698 46.76 20.4898 46.65 20.5298 46.54L20.1398 44.22C19.9898 43.32 20.4198 42.42 21.2098 41.97L24.1098 40.31C24.1598 40.29 24.1998 40.24 24.1998 40.18L24.6998 36.22C24.7298 36.01 24.7798 35.82 24.8598 35.63L26.3898 32.05V31.93L25.1198 27.69C24.9498 27.1 25.0298 26.46 25.3398 25.94C25.6598 25.42 26.1798 25.05 26.7798 24.93L30.9498 24.1C31.4798 24 32.0298 24.09 32.4998 24.37L34.1698 25.37C34.2398 25.41 34.3398 25.4 34.3998 25.33L35.5698 23.86C35.6198 23.8 35.6198 23.71 35.5798 23.65L34.3198 21.76C33.6798 20.8 33.9098 19.5 34.8298 18.81L35.5098 18.3C35.5798 18.25 35.5998 18.16 35.5598 18.08L34.0998 15.16C33.7298 14.42 33.7998 13.54 34.2998 12.88C34.7898 12.22 35.6098 11.89 36.4198 12.04L43.2798 13.19C44.2098 13.36 44.9298 14.1 45.0598 15.03L45.3998 17.4C45.4098 17.48 45.4798 17.55 45.5598 17.55L48.7698 17.91C49.3498 17.98 49.8798 18.27 50.2398 18.73C50.5998 19.19 50.7598 19.77 50.6898 20.35L50.5298 21.63C50.5298 21.6324 50.5297 21.6352 50.5296 21.6382C50.5288 21.6728 50.5271 21.7448 50.6098 21.8C50.6498 21.83 50.7298 21.83 50.7298 21.83L58.4098 14.97C58.4698 14.91 58.5398 14.87 58.6098 14.83C59.7598 14.22 62.0798 15.83 62.0998 15.85C62.3698 16.06 62.5098 16.39 62.4798 16.73L62.2598 19.31L65.7698 20.52C65.9698 20.6 66.1498 20.73 66.2698 20.91L69.4698 25.65C69.8998 26.25 70.7898 28.06 70.8498 28.49C70.8698 28.64 70.8498 28.79 70.8098 28.93L68.9198 34.93C68.7598 35.45 68.1898 35.74 67.6698 35.58C67.1498 35.42 66.8498 34.86 67.0198 34.33L68.8098 28.66C68.5898 28.16 68.0598 27.11 67.8898 26.86C67.8698 26.84 67.8298 26.78 67.8298 26.78L64.8198 22.32L60.8898 20.96C60.4598 20.81 60.1798 20.39 60.2198 19.93L60.4598 17.19C60.1298 17.02 59.7298 16.84 59.4598 16.75L51.9498 23.46C51.8898 23.52 51.8198 23.56 51.7498 23.6C51.0298 23.98 50.1598 23.93 49.4898 23.47C48.8198 23.01 48.4698 22.22 48.5698 21.41L48.7298 20.13C48.7298 20.07 48.7098 20.03 48.6898 20C48.6698 19.97 48.6298 19.93 48.5698 19.93L45.3598 19.57C44.3698 19.46 43.5798 18.69 43.4398 17.71L43.0998 15.34C43.0798 15.26 43.0298 15.2 42.9498 15.19L36.0898 13.98C36.0858 13.98 36.081 13.9796 36.0755 13.9792C36.0391 13.9766 35.9719 13.9718 35.9198 14.05C35.8498 14.14 35.8998 14.24 35.8998 14.24L37.3598 17.16C37.8298 18.1 37.5598 19.25 36.7198 19.88L36.0398 20.39C35.9698 20.45 35.9498 20.55 35.9998 20.63L37.2598 22.52C37.7898 23.31 37.7498 24.34 37.1498 25.09L35.9798 26.56C35.2998 27.41 34.0898 27.63 33.1598 27.07L31.4898 26.07C31.4498 26.05 31.3598 26.05 31.3598 26.05L27.1898 26.88C27.1198 26.89 27.0898 26.93 27.0698 26.96C27.0498 26.99 27.0298 27.04 27.0498 27.1L28.3198 31.34C28.4698 31.82 28.4398 32.35 28.2398 32.82L26.7098 36.4L26.1998 40.41C26.1198 41.09 25.7098 41.69 25.1198 42.03L22.2198 43.69C22.1498 43.72 22.1198 43.8 22.1298 43.87L22.5698 46.5C22.6198 46.75 22.5898 46.98 22.4898 47.19V49.07C22.6198 49.66 22.4398 50.28 21.9598 50.75L21.0798 51.63C21.0398 51.68 21.0198 51.76 21.0398 51.82L22.4698 55.62C22.6298 56.03 22.5898 56.37 22.4998 56.62V59.11C22.5168 59.1469 22.5331 59.1839 22.5485 59.219C22.5874 59.3074 22.6212 59.3842 22.6498 59.42L23.9398 61.15C24.1198 61.4 24.2298 61.64 24.3198 61.86L24.3998 62.04C24.4598 62.17 24.4898 62.31 24.4898 62.46V64.58C24.4898 64.65 24.4798 64.71 24.4698 64.77L26.7598 67.52C26.7898 67.55 26.8798 67.58 26.8798 67.58L32.0298 67.98C32.8098 68.04 33.4798 68.5 33.8198 69.2C34.1598 69.9 34.0998 70.71 33.6698 71.36L30.3298 76.36C30.2998 76.4 30.2998 76.49 30.2998 76.49L31.1298 81.46C31.1498 81.53 31.1898 81.57 31.2298 81.59C31.2798 81.62 31.3398 81.62 31.3898 81.59L35.9798 79.09C36.4898 78.82 37.0998 78.75 37.6498 78.92L42.9398 80.51L50.8598 81.08L55.6798 79.49C56.0698 79.36 56.4898 79.34 56.8898 79.44L59.6498 80.13C59.7098 80.14 59.7598 80.13 59.8098 80.09C59.8398 80.06 59.8698 80.02 59.8698 79.94L59.5198 76.4C59.4398 75.62 59.7898 74.86 60.4198 74.41L63.4898 72.21C63.5298 72.18 63.5598 72.13 63.5598 72.07L63.7298 66.48Z" fill="#002341"/>
<path fill-rule="evenodd" clip-rule="evenodd" d="M72.6498 56.78L85.2498 67.25H85.2598C86.8498 68.61 87.1998 70.8 86.0498 72.14C85.4698 72.81 84.6398 73.14 83.7398 73.14C82.8398 73.14 81.8898 72.8 81.0998 72.13L68.6498 61.73C65.8798 64.03 62.3298 65.41 58.4598 65.41C49.6398 65.41 42.4598 58.23 42.4598 49.41C42.4598 40.59 49.6398 33.41 58.4598 33.41C67.2798 33.41 74.4598 40.59 74.4598 49.41C74.4598 52.07 73.7998 54.57 72.6498 56.78ZM58.4598 35.41C50.7414 35.41 44.4625 41.6873 44.4598 49.405C44.4625 57.1227 50.7414 63.4 58.4598 63.4C63.4898 63.4 67.8998 60.73 70.3698 56.73C70.3998 56.59 70.4598 56.46 70.5598 56.34C70.5748 56.325 70.5898 56.315 70.6048 56.305C70.6198 56.295 70.6348 56.285 70.6498 56.27C71.7998 54.24 72.4598 51.9 72.4598 49.41C72.4598 41.69 66.1798 35.41 58.4598 35.41ZM82.3898 70.6C83.1198 71.23 84.0898 71.34 84.5198 70.84C84.9398 70.34 84.6898 69.4 83.9598 68.78L71.5998 58.51C71.1498 59.16 70.6498 59.77 70.1098 60.34L82.3898 70.6Z" fill="#002341"/>
</svg>
