<svg width="96" height="96" viewBox="0 0 96 96" fill="none" xmlns="http://www.w3.org/2000/svg">
<path d="M67.7298 66.57C67.1598 66.56 66.7198 66.99 66.6998 67.54L66.5598 72.07C66.5598 72.13 66.5298 72.18 66.4898 72.21L63.4198 74.41C62.7898 74.86 62.4398 75.62 62.5198 76.4L62.8698 79.94C62.8698 80 62.8598 80.05 62.8098 80.09C62.7598 80.13 62.7098 80.14 62.6498 80.13L59.8998 79.44C59.4998 79.34 59.0798 79.36 58.6798 79.49L53.8598 81.08L45.9398 80.51L40.6498 78.92C40.0898 78.75 39.4898 78.82 38.9798 79.09L34.3898 81.59C34.3198 81.63 34.2598 81.61 34.2298 81.59C34.1798 81.56 34.1398 81.52 34.1298 81.46L33.2998 76.49C33.2998 76.49 33.2998 76.4 33.3298 76.36L36.6698 71.36C37.0998 70.71 37.1598 69.9 36.8198 69.2C36.4798 68.5 35.8098 68.04 35.0298 67.98L29.8798 67.58C29.8798 67.58 29.7898 67.55 29.7598 67.52L27.3598 64.63C27.1998 64.42 27.0098 64.19 26.6598 63.96V63.06C26.8798 62.9 27.0898 62.67 27.1898 62.35C27.2698 62.07 27.2998 61.63 26.9398 61.15L25.6198 59.39C25.4098 59.08 25.1498 58.83 24.6698 58.61V57.19C24.9798 57.08 25.2398 56.91 25.3998 56.62C25.5198 56.41 25.6398 56.06 25.4698 55.62L24.0498 51.82C24.0298 51.75 24.0498 51.68 24.0898 51.63L24.9798 50.74C25.4798 50.23 25.4598 49.72 25.3898 49.46C25.2898 49.03 24.9798 48.74 24.6698 48.55V47.73C24.9698 47.66 25.1998 47.54 25.3798 47.32C25.5498 47.1 25.6398 46.77 25.5898 46.49L25.1498 43.86C25.1398 43.79 25.1698 43.71 25.2398 43.68L28.1398 42.02C28.7298 41.68 29.1398 41.08 29.2198 40.4L29.7298 36.39L31.2598 32.82C31.4598 32.35 31.4898 31.82 31.3498 31.34L30.0798 27.1C30.0598 27.04 30.0798 26.99 30.0998 26.96C30.1198 26.93 30.1498 26.89 30.2198 26.88L34.3898 26.05C34.3898 26.05 34.4798 26.05 34.5198 26.07L36.1898 27.07C37.1198 27.63 38.3298 27.41 39.0098 26.56L40.1898 25.09C40.7798 24.35 40.8298 23.31 40.2998 22.52L39.0398 20.63C38.9898 20.55 39.0098 20.45 39.0798 20.39L39.7598 19.88C40.5998 19.25 40.8698 18.11 40.3998 17.16L38.9398 14.24C38.9398 14.24 38.8898 14.14 38.9598 14.05C39.0128 13.9705 39.0892 13.9768 39.1201 13.9794C39.1242 13.9797 39.1274 13.98 39.1298 13.98L45.9998 15.19C46.0798 15.2 46.1298 15.26 46.1398 15.34L46.4798 17.71C46.6198 18.69 47.4098 19.46 48.3998 19.57L51.6098 19.93C51.6698 19.93 51.7098 19.97 51.7298 20C51.7498 20.03 51.7698 20.07 51.7698 20.13L51.6098 21.41C51.5098 22.22 51.8598 23.01 52.5298 23.47C53.1998 23.93 54.0698 23.98 54.7898 23.6C54.8598 23.56 54.9298 23.52 54.9898 23.46L62.4998 16.75C62.7698 16.84 63.1698 17.02 63.4998 17.19L63.2598 19.93C63.2198 20.39 63.4998 20.81 63.9298 20.96L67.8598 22.32L70.8698 26.78C70.8698 26.78 70.9098 26.84 70.9298 26.86C71.0998 27.11 71.6298 28.16 71.8498 28.67L70.5898 32.67C70.4198 33.2 70.7198 33.76 71.2398 33.92C71.7698 34.08 72.3298 33.79 72.4898 33.27L73.8498 28.95C73.8898 28.81 73.9098 28.66 73.8898 28.51C73.8298 28.08 72.9398 26.27 72.5198 25.67L69.3198 20.93C69.1998 20.75 69.0198 20.62 68.8198 20.54L65.3098 19.33L65.5298 16.75C65.5598 16.41 65.4198 16.08 65.1498 15.87C65.1298 15.85 62.8198 14.24 61.6598 14.85C61.5898 14.89 61.5198 14.93 61.4598 14.99L53.7798 21.85C53.7798 21.85 53.7098 21.85 53.6598 21.82C53.5998 21.78 53.5798 21.72 53.5798 21.65L53.7398 20.37C53.8098 19.79 53.6498 19.21 53.2898 18.75C52.9298 18.29 52.4098 18 51.8198 17.94L48.6098 17.58C48.5298 17.58 48.4698 17.51 48.4498 17.43L48.1098 15.06C47.9798 14.12 47.2598 13.39 46.3298 13.22L39.4198 12.04C38.5998 11.89 37.7898 12.22 37.2998 12.88C36.7998 13.54 36.7298 14.42 37.0998 15.16L38.5598 18.08C38.5998 18.16 38.5798 18.25 38.5098 18.3L37.8298 18.81C36.9098 19.5 36.6798 20.8 37.3198 21.76L38.5798 23.65C38.6198 23.71 38.6198 23.8 38.5798 23.86L37.3998 25.33C37.3398 25.4 37.2498 25.42 37.1698 25.37L35.4998 24.37C35.0398 24.09 34.4898 24 33.9498 24.1L29.7798 24.93C29.1798 25.05 28.6498 25.42 28.3398 25.94C28.0198 26.46 27.9498 27.1 28.1198 27.69L29.3898 31.93V32.05L27.8598 35.62C27.7798 35.81 27.7298 36.01 27.6998 36.21L27.1998 40.17C27.1998 40.22 27.1598 40.27 27.1098 40.3L24.2098 41.96C23.4198 42.41 22.9898 43.31 23.1398 44.21L23.4198 45.89C22.9698 45.99 22.6398 46.39 22.6398 46.87V49.23C22.6398 49.51 22.7498 49.76 22.9398 49.95L22.6398 50.24C22.0398 50.84 21.8398 51.75 22.1398 52.54L23.2398 55.48C22.8798 55.63 22.6298 55.99 22.6298 56.4V59.33C22.6298 59.78 22.9298 60.18 23.3698 60.3C23.7998 60.42 23.9098 60.5 23.9398 60.55C23.9398 60.55 23.9998 60.63 24.0098 60.64L24.8898 61.81C24.7298 61.99 24.6398 62.22 24.6398 62.48V64.6C24.6398 65.01 24.8898 65.38 25.2798 65.53C25.5998 65.66 25.6498 65.72 25.7398 65.84C25.7598 65.865 25.7798 65.8925 25.7998 65.92C25.8198 65.9475 25.8398 65.975 25.8598 66L28.2098 68.82C28.5798 69.27 29.1298 69.56 29.7198 69.6L34.8698 70C34.9398 70 34.9898 70.04 35.0198 70.1C35.0498 70.16 35.0498 70.22 35.0098 70.28L31.6698 75.28C31.3598 75.74 31.2398 76.3 31.3298 76.85L32.1598 81.82C32.2798 82.51 32.7198 83.11 33.3498 83.42C33.6498 83.57 33.9798 83.64 34.2998 83.64C34.6598 83.64 35.0198 83.55 35.3398 83.37L39.9298 80.86C39.9298 80.86 40.0198 80.83 40.0598 80.85L45.3498 82.44C45.5098 82.49 45.6698 82.52 45.8298 82.53L53.7198 83.09C54.0098 83.11 54.2898 83.07 54.5598 82.98L59.3098 81.4H59.4098L62.1598 82.09C62.8498 82.26 63.5798 82.09 64.1098 81.63C64.6498 81.17 64.9198 80.47 64.8498 79.77L64.4998 76.23C64.4998 76.17 64.5198 76.11 64.5698 76.07L67.6398 73.88C68.2098 73.47 68.5498 72.81 68.5498 72.14L68.6898 67.65C68.7098 67.1 68.2698 66.64 67.7198 66.62L67.7298 66.57Z" fill="#002341"/>
<path d="M58.7414 56.3244L66.0924 41.1181L67.893 41.9885L60.542 57.1949L58.7414 56.3244Z" fill="#002341"/>
<path fill-rule="evenodd" clip-rule="evenodd" d="M62.1098 46.82C62.4398 45.34 62.2198 43.89 61.5098 42.82C61.0098 42.06 60.2698 41.56 59.4398 41.41C57.4098 41.03 55.3498 42.79 54.7698 45.4C54.4398 46.88 54.6598 48.33 55.3698 49.4C55.8698 50.16 56.6098 50.66 57.4398 50.81C57.6198 50.84 57.8098 50.86 57.9898 50.86C59.8398 50.86 61.5798 49.19 62.0998 46.82H62.1098ZM60.1598 46.39C59.7998 48.02 58.6498 48.99 57.8098 48.85C57.5098 48.8 57.2598 48.61 57.0498 48.3C56.6498 47.7 56.5298 46.78 56.7398 45.84C57.0798 44.32 58.1198 43.37 58.9198 43.37C58.9798 43.37 59.0398 43.37 59.0898 43.38C59.3898 43.43 59.6398 43.62 59.8498 43.93C60.2498 44.53 60.3698 45.45 60.1598 46.39Z" fill="#002341"/>
<path fill-rule="evenodd" clip-rule="evenodd" d="M64.1498 52.9C64.7298 50.29 66.7898 48.53 68.8198 48.91H68.8098C69.6398 49.06 70.3798 49.56 70.8798 50.32C71.5898 51.39 71.8098 52.84 71.4798 54.32C70.9598 56.69 69.2198 58.36 67.3698 58.36C67.1898 58.36 66.9998 58.34 66.8198 58.31C65.9898 58.16 65.2498 57.66 64.7498 56.9C64.0398 55.83 63.8198 54.38 64.1498 52.9ZM67.1798 56.35C68.0198 56.49 69.1698 55.52 69.5298 53.89C69.7398 52.95 69.6198 52.03 69.2198 51.43C69.0098 51.12 68.7598 50.93 68.4598 50.88C68.4098 50.87 68.3498 50.87 68.2898 50.87C67.4898 50.87 66.4498 51.82 66.1098 53.34C65.8998 54.28 66.0198 55.2 66.4198 55.8C66.6298 56.11 66.8798 56.3 67.1798 56.35Z" fill="#002341"/>
<path fill-rule="evenodd" clip-rule="evenodd" d="M62.6298 33.41C53.8098 33.41 46.6298 40.59 46.6298 49.41C46.6298 58.23 53.8098 65.41 62.6298 65.41C71.4498 65.41 78.6298 58.23 78.6298 49.41C78.6298 40.59 71.4498 33.41 62.6298 33.41ZM62.6298 63.41C54.9098 63.41 48.6298 57.13 48.6298 49.41C48.6298 41.69 54.9098 35.41 62.6298 35.41C70.3498 35.41 76.6298 41.69 76.6298 49.41C76.6298 57.13 70.3498 63.41 62.6298 63.41Z" fill="#002341"/>
</svg>
