<svg width="96" height="96" viewBox="0 0 96 96" fill="none" xmlns="http://www.w3.org/2000/svg">
<path d="M49.25 27C49.25 27.55 48.8 28 48.25 28C47.7 28 47.25 27.55 47.25 27V21C47.25 20.45 47.7 20 48.25 20C48.8 20 49.25 20.45 49.25 21V27Z" fill="#002341"/>
<path d="M41.71 29.54C41.33 29.54 40.97 29.33 40.8 28.96L38.55 24.07C38.32 23.56 38.54 22.97 39.04 22.74C39.54 22.51 40.14 22.73 40.37 23.23L42.62 28.12C42.85 28.63 42.63 29.22 42.13 29.45C41.99 29.51 41.85 29.54 41.71 29.54Z" fill="#002341"/>
<path d="M56.29 29.45C56.42 29.51 56.57 29.54 56.71 29.54C57.09 29.54 57.45 29.32 57.62 28.96L59.87 24.07C60.1 23.57 59.88 22.97 59.38 22.74C58.88 22.51 58.29 22.73 58.05 23.23L55.8 28.12C55.57 28.62 55.79 29.22 56.29 29.45Z" fill="#002341"/>
<path fill-rule="evenodd" clip-rule="evenodd" d="M86.5 51.39L80.11 55.69L80.09 55.64L78.43 53.17C74.88 54.98 69.62 59.87 68.34 61.08C68.33 61.85 68.08 62.59 67.62 63.22C67.2 63.79 66.63 64.21 65.98 64.46C66.26 64.9 66.45 65.39 66.53 65.92C66.68 66.9 66.43 67.88 65.84 68.68C65.25 69.48 64.39 69.99 63.4 70.14C63.22 70.17 63.03 70.18 62.85 70.18C62.5 70.18 62.16 70.12 61.83 70.03C61.79 70.72 61.56 71.4 61.12 71.99C60.39 72.97 59.27 73.49 58.13 73.49C57.36 73.49 56.59 73.25 55.92 72.76L54.9 72.02C54.78 72.42 54.59 72.82 54.34 73.18C53.64 74.19 52.55 74.74 51.51 74.74C50.95 74.74 50.41 74.59 49.95 74.26L46.93 72.08L45.51 73.89C44.92 74.63 44.08 75.11 43.13 75.22C42.99 75.25 42.84 75.25 42.7 75.25C41.91 75.25 41.14 74.99 40.51 74.49C39.81 73.95 39.39 73.19 39.23 72.38C39.06 72.43 38.88 72.48 38.7 72.5C38.55 72.53 38.4 72.53 38.25 72.53C37.42 72.53 36.62 72.26 35.96 71.74C35.35 71.26 34.93 70.62 34.71 69.92C34.2 70.17 33.65 70.29 33.09 70.29C32.29 70.29 31.48 70.03 30.8 69.5C29.66 68.6 29.2 67.17 29.47 65.83C28.76 65.78 28.05 65.53 27.45 65.06C26.67 64.45 26.18 63.57 26.06 62.58C25.95 61.59 26.22 60.62 26.83 59.84L28.49 57.73C26.85 56.51 23.08 53.78 20.54 52.49L18.39 55.68L12 51.38L13.12 49.72L17.85 52.9L30.33 34.35L25.6 31.17L26.72 29.51L33.11 33.81L30.9 37.09L35.56 40.7C36.76 41.63 38.12 42.22 39.52 42.4C40.57 42.54 41.23 42.53 41.65 42.49C41.7273 42.4091 41.8049 42.3274 41.883 42.2453C42.2296 41.8807 42.5865 41.5054 42.97 41.13C43.57 40.53 44.34 40.09 45.14 39.89C47.71 39.25 54.43 38.21 61.88 42.25C63.07 41.56 66.2 39.65 68.08 37.82L65.39 33.82L71.78 29.52L72.9 31.18L68.17 34.36L80.65 52.91L85.38 49.73L86.5 51.39ZM28.4 61.09C28.12 61.45 27.99 61.9 28.05 62.36H28.06C28.11 62.82 28.34 63.23 28.7 63.51C29.32 64 30.18 63.99 30.79 63.53L33.62 59.92C33.74 59.65 33.79 59.35 33.75 59.04C33.7 58.58 33.47 58.17 33.11 57.89C32.8 57.64 32.42 57.52 32.05 57.52C31.54 57.52 31.03 57.75 30.69 58.18L28.4 61.09ZM31.75 65.53C31.16 66.28 31.29 67.36 32.04 67.95H32.05C32.8 68.54 33.88 68.41 34.47 67.66L35.34 66.55L39.21 61.63C39.8 60.88 39.67 59.8 38.92 59.21C38.17 58.62 37.09 58.75 36.5 59.5L35.33 60.99C35.22 61.19 35.11 61.37 34.97 61.55L32.68 64.46C32.6067 64.5533 32.5156 64.6378 32.4245 64.7222C32.3789 64.7644 32.3333 64.8067 32.29 64.85L31.75 65.53ZM37.2 70.2C37.56 70.48 38.01 70.6 38.47 70.55V70.56C38.93 70.51 39.34 70.28 39.62 69.92L39.91 69.54L42.01 66.87C42.29 66.51 42.41 66.06 42.36 65.6C42.31 65.14 42.08 64.73 41.72 64.45C41.41 64.2 41.03 64.08 40.66 64.08C40.15 64.08 39.65 64.3 39.31 64.73L36.91 67.79C36.32 68.54 36.46 69.61 37.2 70.2ZM43.94 72.7L45.38 70.87L45.37 70.86C45.91 70.19 45.79 69.2 45.11 68.67C44.83 68.45 44.49 68.34 44.15 68.34C43.69 68.34 43.23 68.55 42.92 68.94L41.48 70.77C40.95 71.44 41.07 72.43 41.75 72.96C42.07 73.22 42.48 73.33 42.9 73.28C43.31 73.23 43.68 73.03 43.94 72.7ZM64.9 62.76C65.36 62.7 65.76 62.46 66.03 62.09L66.04 62.11C66.32 61.74 66.42 61.29 66.36 60.83C66.3 60.37 66.06 59.97 65.69 59.7L56.93 53.29L56.95 53.26C55.04 52.69 53.54 51.84 53.54 51.84L48.09 48.02C47.92 47.9 47.72 47.92 47.59 48.06C44.49 51.42 40.25 55.05 37.61 53.2C37.37 53.04 36.76 52.55 36.61 51.47C36.37 49.75 37.48 47.41 39.9 44.48C39.69 44.46 39.4799 44.44 39.25 44.41C37.5 44.18 35.8 43.46 34.33 42.31L29.78 38.79L21.66 50.86C24.49 52.34 28.32 55.14 29.85 56.28C31.16 55.31 33.01 55.28 34.35 56.33C34.83 56.71 35.19 57.2 35.43 57.75C36.75 56.61 38.73 56.53 40.15 57.64C41.54 58.73 41.93 60.61 41.22 62.14C41.83 62.23 42.44 62.46 42.96 62.87C43.74 63.48 44.23 64.36 44.35 65.35C44.39 65.69 44.37 66.02 44.32 66.35C45.03 66.39 45.75 66.63 46.35 67.1C47.33 67.87 47.79 69.05 47.69 70.21L51.11 72.68C51.53 72.97 52.28 72.69 52.71 72.08C52.94 71.75 53.06 71.36 53.03 71.01C53.03 70.91 53 70.77 52.93 70.63L45.79 65.41L46.97 63.79L50.29 66.21L53.87 68.73C54.06 68.86 54.22 69.02 54.37 69.2L57.1 71.2C57.88 71.77 58.95 71.61 59.52 70.85C60.08 70.09 59.92 69.01 59.16 68.44L51.06 62.43L52.25 60.82L53.73 61.92L53.75 61.89L61.84 67.9C62.21 68.17 62.66 68.29 63.12 68.22C63.58 68.16 63.97 67.92 64.25 67.55C64.53 67.18 64.64 66.73 64.57 66.27C64.51 65.81 64.27 65.41 63.9 65.14L53.76 57.61L54.95 56L57 57.52L63.62 62.44C63.99 62.71 64.44 62.83 64.9 62.76ZM66.87 58.08C67.21 58.33 67.5 58.65 67.73 59V59.01C69.7 57.18 74.01 53.35 77.33 51.58L69.22 39.53C66.7524 41.8063 62.9126 43.9912 62.4165 44.2734C62.3939 44.2863 62.3783 44.2952 62.37 44.3C62.07 44.48 61.69 44.47 61.39 44.3C54.36 40.3 48.02 41.27 45.62 41.87C45.16 41.99 44.72 42.24 44.37 42.59C39.09 47.86 38.56 50.27 38.58 51.06C38.59 51.44 38.72 51.56 38.72 51.56C39.59 52.17 42.26 50.91 46.11 46.72C46.91 45.84 48.25 45.7 49.23 46.39L54.61 50.16C60.57 53.62 62.83 50.54 62.92 50.41C63.24 49.96 63.86 49.84 64.31 50.15C64.76 50.46 64.88 51.06 64.58 51.52C63.64 52.94 62.3 53.54 60.88 53.7L66.87 58.08Z" fill="#002341"/>
</svg>
