<svg width="96" height="96" viewBox="0 0 96 96" fill="none" xmlns="http://www.w3.org/2000/svg">
<path d="M35.8398 48.33C34.5698 45.72 33.9198 42.91 33.9198 39.97C33.9198 29.51 42.3298 21 52.6698 21C63.0098 21 71.4198 29.51 71.4198 39.97C71.4198 43.66 70.3698 47.23 68.3898 50.3L70.0698 51.38C72.2598 47.98 73.4098 44.03 73.4098 39.96C73.4398 28.41 64.1298 19 52.6798 19C41.2298 19 31.9298 28.41 31.9298 39.97C31.9298 43.21 32.6398 46.32 34.0498 49.21L35.8498 48.33H35.8398Z" fill="#002341"/>
<path d="M45.9698 41.03H47.2098C47.9898 44.37 50.2998 46.41 53.5498 46.41C55.4798 46.41 57.0798 45.65 58.4398 44.1L56.9398 42.78C55.9598 43.89 54.8898 44.41 53.5498 44.41C51.4498 44.41 49.9398 43.16 49.2898 41.03H55.2898V39.03H48.9498C48.9398 38.8301 48.9298 38.6299 48.9298 38.42V38.06H56.8498V36.06H49.2198C49.8598 33.73 51.5098 32.35 53.8298 32.35C54.8898 32.35 55.9898 32.85 56.7698 33.69L58.2298 32.33C57.0598 31.07 55.4598 30.35 53.8298 30.35C50.3598 30.35 47.8998 32.52 47.1598 36.06H45.9698V38.06H46.9398V38.42C46.9398 38.63 46.9398 38.83 46.9498 39.03H45.9698V41.03Z" fill="#002341"/>
<path fill-rule="evenodd" clip-rule="evenodd" d="M80.5298 50.24C81.0898 50.5 81.7998 51.08 82.0298 52.29L82.0398 52.3C82.7798 56.2 76.9998 60.29 71.8998 63.89C71.1898 64.39 70.4998 64.88 69.8698 65.34C67.4198 67.12 65.1498 68.5 62.9298 69.55L61.4198 70.26C57.8698 71.95 53.9198 72.76 50.0298 72.64C47.3498 72.55 44.5098 72.43 42.4798 72.34C38.6698 72.17 35.1498 72.69 32.0298 73.89L28.9598 75.09L30.8698 79.08L24.4398 82.17L23.5698 80.37L28.1998 78.15L18.5098 57.94L13.8798 60.16L13.0098 58.36L19.4498 55.28L20.9898 58.48C22.9698 57.49 26.8698 55.5 28.4698 54.36C32.7698 51.29 35.8098 49.45 41.3298 49.71C44.6298 49.87 47.6998 51.07 49.6998 52.04C50.9698 52.66 52.3598 52.97 53.8198 52.97H56.2798C56.6698 52.94 60.7998 52.71 62.7798 54.55C63.2598 55 63.5798 55.56 63.7298 56.17L74.5098 51.19C74.8598 51 78.3898 49.21 80.5298 50.24ZM70.2944 62.565C70.4417 62.4608 70.5903 62.3559 70.7398 62.25C74.6598 59.48 80.5698 55.3 80.0698 52.66C79.9898 52.24 79.8198 52.11 79.6598 52.03C78.7698 51.6 76.6298 52.32 75.3898 52.97L63.3998 58.5C63.2598 58.74 63.0998 58.97 62.8898 59.17C61.1998 60.84 57.6298 60.95 56.6998 60.95H45.2198V58.95H56.5298C57.9698 58.98 60.5398 58.68 61.4898 57.75C61.7198 57.51 61.8298 57.28 61.8298 56.97C61.8298 56.58 61.6998 56.27 61.4098 56C60.2798 54.94 57.2998 54.88 56.3398 54.95H53.8098C52.0598 54.95 50.3398 54.55 48.8098 53.81C46.9798 52.92 44.1798 51.82 41.2198 51.68C36.4898 51.44 33.9398 52.88 29.6198 55.96C27.8798 57.2 23.8498 59.26 21.8398 60.26L28.0798 73.27L31.2998 72.01C34.6798 70.71 38.4698 70.14 42.5598 70.33C44.5798 70.42 47.4098 70.54 50.0798 70.63C53.6698 70.75 57.2798 70 60.5498 68.45L62.0598 67.74C64.1698 66.75 66.3298 65.43 68.6798 63.72C69.1869 63.3476 69.7318 62.9625 70.2944 62.565Z" fill="#002341"/>
</svg>
