<svg width="96" height="96" viewBox="0 0 96 96" fill="none" xmlns="http://www.w3.org/2000/svg">
<path d="M23.79 34.08C23.24 34.08 22.79 34.53 22.79 35.08V65.49C22.79 66.04 23.24 66.49 23.79 66.49C24.34 66.49 24.79 66.04 24.79 65.49V35.08C24.79 34.53 24.34 34.08 23.79 34.08Z" fill="#002341"/>
<path d="M33.83 34.08C33.28 34.08 32.83 34.53 32.83 35.08V65.49C32.83 66.04 33.28 66.49 33.83 66.49C34.38 66.49 34.83 66.04 34.83 65.49V35.08C34.83 34.53 34.38 34.08 33.83 34.08Z" fill="#002341"/>
<path d="M43.87 34.08C43.32 34.08 42.87 34.53 42.87 35.08V65.49C42.87 66.04 43.32 66.49 43.87 66.49C44.42 66.49 44.87 66.04 44.87 65.49V35.08C44.87 34.53 44.42 34.08 43.87 34.08Z" fill="#002341"/>
<path d="M53.91 34.08C53.36 34.08 52.91 34.53 52.91 35.08V65.49C52.91 66.04 53.36 66.49 53.91 66.49C54.46 66.49 54.91 66.04 54.91 65.49V35.08C54.91 34.53 54.46 34.08 53.91 34.08Z" fill="#002341"/>
<path d="M63.75 34.08C63.2 34.08 62.75 34.53 62.75 35.08V65.49C62.75 66.04 63.2 66.49 63.75 66.49C64.3 66.49 64.75 66.04 64.75 65.49V35.08C64.75 34.53 64.3 34.08 63.75 34.08Z" fill="#002341"/>
<path d="M73.6 34.08C73.05 34.08 72.6 34.53 72.6 35.08V65.49C72.6 66.04 73.05 66.49 73.6 66.49C74.15 66.49 74.6 66.04 74.6 65.49V35.08C74.6 34.53 74.15 34.08 73.6 34.08Z" fill="#002341"/>
<path d="M90.59 35.46C90.59 34.91 90.14 34.46 89.59 34.46C89.04 34.46 88.59 34.91 88.59 35.46V39.5H84.87C84.75 39.5 84.65 39.53 84.54 39.57V34.55C84.54 31.49 82.05 29 78.99 29H18.41C15.35 29 12.86 31.49 12.86 34.55V37.81H9.19C8.53 37.81 8 38.34 8 39V43.08C8 43.74 8.53 44.27 9.19 44.27H12.86V66.03C12.86 69.09 15.35 71.58 18.41 71.58H22.88V76.63C22.88 77.18 23.33 77.63 23.88 77.63C24.43 77.63 24.88 77.18 24.88 76.63V71.58H72.66V76.63C72.66 77.18 73.11 77.63 73.66 77.63C74.21 77.63 74.66 77.18 74.66 76.63V71.58H78.99C82.05 71.58 84.54 69.09 84.54 66.03V41.43C84.64 41.47 84.75 41.5 84.87 41.5H89.59C90.14 41.5 90.59 41.05 90.59 40.5C90.59 40.44 90.57 40.39 90.56 40.34C90.56 40.29 90.59 40.24 90.59 40.18V35.46ZM10 42.27V39.81H12.86V42.27H10ZM82.54 66.03C82.54 67.99 80.95 69.58 78.99 69.58H18.41C16.45 69.58 14.86 67.99 14.86 66.03V34.55C14.86 32.59 16.45 31 18.41 31H78.99C80.95 31 82.54 32.59 82.54 34.55V66.03Z" fill="#002341"/>
</svg>
