<svg width="96" height="96" viewBox="0 0 96 96" fill="none" xmlns="http://www.w3.org/2000/svg">
<path d="M48 84C28.15 84 12 67.85 12 48C12 28.15 28.15 12 48 12C67.85 12 84 28.15 84 48C84 67.85 67.85 84 48 84ZM48 14C29.25 14 14 29.25 14 48C14 66.75 29.25 82 48 82C66.75 82 82 66.75 82 48C82 29.25 66.75 14 48 14Z" fill="#002341"/>
<path d="M66.24 42.11C66.24 41.15 65.82 40.25 65.1 39.65L51.17 26.72C50.62 26.07 49.79 25.71 48.84 25.71C47.94 25.71 47.1 26.04 46.56 26.58L32.53 39.61C31.81 40.32 31.44 41.19 31.44 42.12V64.32C31.44 66.23 32.93 67.72 34.84 67.72H47.47C47.6 67.72 47.79 67.57 47.93 67.43L65.93 49.53C66.07 49.39 66.24 49.14 66.24 49.04V42.11ZM34.84 65.71C34.04 65.71 33.44 65.11 33.44 64.31V42.11C33.44 41.72 33.61 41.36 33.92 41.04L47.95 28.01C48.14 27.82 48.48 27.7 48.84 27.7C49.09 27.7 49.44 27.76 49.66 28.03L63.76 41.14L63.82 41.19C64.1 41.41 64.25 41.73 64.25 42.11V47.01H48.85C47.01 47.01 45.45 48.57 45.45 50.41V65.71H34.84ZM47.44 65.09V50.41C47.44 49.66 48.09 49.01 48.84 49.01H63.61L47.44 65.09Z" fill="#002341"/>
</svg>
