<svg width="96" height="96" viewBox="0 0 96 96" fill="none" xmlns="http://www.w3.org/2000/svg">
<path fill-rule="evenodd" clip-rule="evenodd" d="M63.5098 32.32H56.9498V23.47H63.5098V32.32ZM61.5098 25.47H58.9498V30.32H61.5098V25.47Z" fill="#002341"/>
<path fill-rule="evenodd" clip-rule="evenodd" d="M74.9198 32.6H68.3598V41.45H74.9198V32.6ZM72.9198 39.45H70.3598V34.6H72.9198V39.45Z" fill="#002341"/>
<path fill-rule="evenodd" clip-rule="evenodd" d="M45.5298 41.45H52.0898V32.6H45.5298V41.45ZM47.5298 34.6H50.0898V39.45H47.5298V34.6Z" fill="#002341"/>
<path fill-rule="evenodd" clip-rule="evenodd" d="M63.7898 36.88H56.6598V48.3H40.9698V21.62L58.2498 12.57C59.3898 11.82 61.0698 11.82 62.2098 12.57L79.4798 21.62V48.29H63.7898V36.88ZM42.9698 46.29H54.6598L54.6698 46.3V34.89H65.7998V46.3H77.4898V22.83L61.1298 14.25C60.6398 13.91 59.8198 13.91 59.3298 14.25L59.2198 14.31L42.9698 22.83V46.29Z" fill="#002341"/>
<path fill-rule="evenodd" clip-rule="evenodd" d="M82.4698 55.62C82.2398 54.41 81.5298 53.83 80.9698 53.57C78.8198 52.54 75.2998 54.33 74.9498 54.52L64.1698 59.5C64.0198 58.89 63.6998 58.33 63.2198 57.88C61.2398 56.04 57.1098 56.27 56.7198 56.3H54.2598C52.7998 56.3 51.4098 55.99 50.1398 55.37C48.1398 54.4 45.0698 53.2 41.7698 53.04C36.1998 52.79 33.2098 54.62 28.9098 57.69C27.2798 58.86 23.2498 60.9 21.3098 61.87L19.4398 57.98L13.0098 61.07L13.8798 62.87L18.5098 60.65L28.1998 80.86L23.5698 83.08L24.4398 84.88L30.8698 81.8L29.2798 78.48L32.4798 77.23C35.5998 76.03 39.1198 75.51 42.9298 75.68C44.9598 75.77 47.7998 75.89 50.4798 75.98C54.3698 76.11 58.3198 75.29 61.8698 73.61L63.3798 72.9C65.5998 71.85 67.8698 70.47 70.3198 68.69C70.9498 68.23 71.6398 67.74 72.3598 67.24C77.4598 63.64 83.2398 59.55 82.4998 55.65L82.4698 55.62ZM71.1798 65.58C71.0303 65.6859 70.8817 65.7909 70.7343 65.895C70.1717 66.2926 69.6269 66.6776 69.1198 67.05C66.7698 68.76 64.6098 70.08 62.4998 71.07L60.9898 71.78C57.7198 73.33 54.1098 74.08 50.5198 73.96C47.8498 73.87 45.0198 73.75 42.9998 73.66C38.9198 73.48 35.1198 74.04 31.7398 75.34L28.3998 76.65L22.1698 63.65C24.1398 62.67 28.2898 60.56 30.0598 59.3C34.3798 56.22 36.9498 54.79 41.6598 55.02C44.6198 55.16 47.4198 56.26 49.2498 57.15C50.7798 57.89 52.4998 58.29 54.2498 58.29H56.7798C57.7398 58.22 60.7198 58.28 61.8498 59.34C62.1398 59.61 62.2698 59.92 62.2698 60.31C62.2698 60.61 62.1598 60.85 61.9298 61.09C60.9798 62.02 58.3798 62.33 56.9698 62.29H45.6598V64.29H57.1398C58.0698 64.29 61.6398 64.18 63.3298 62.51C63.5398 62.3 63.6998 62.08 63.8398 61.84L75.8298 56.31C77.0298 55.68 79.2098 54.94 80.0998 55.37C80.2598 55.45 80.4298 55.58 80.5098 56C81.0098 58.64 75.0998 62.82 71.1798 65.59V65.58Z" fill="#002341"/>
</svg>
