<svg width="96" height="96" viewBox="0 0 96 96" fill="none" xmlns="http://www.w3.org/2000/svg">
<path d="M42.18 54.21C43.009 58.7144 45.8031 61.4133 49.8849 61.42C52.188 61.4162 54.0436 60.5259 55.72 58.61L57.22 59.93C55.17 62.28 52.76 63.42 49.87 63.42C44.67 63.42 41.04 59.89 40.13 54.21H37.78V52.21H39.93C39.91 51.9 39.91 51.59 39.91 51.27C39.91 50.87 39.93 50.48 39.95 50.1H37.79V48.1H40.19C41.2 42.48 44.96 39 50.34 39C52.78 39 55.18 40.09 56.93 41.97L55.47 43.33C54.1 41.85 52.23 41 50.35 41C46.09 41 43.16 43.65 42.24 48.1H55.17V50.1H41.97C41.94 50.48 41.93 50.87 41.93 51.27C41.93 51.59 41.93 51.9 41.95 52.21H52.67V54.21H42.18Z" fill="#002341"/>
<path fill-rule="evenodd" clip-rule="evenodd" d="M78.88 35.31V75.35H87V77.35H11V75.35H19.43V35.31L46.32 20.84C47.95 19.72 50.36 19.72 51.99 20.84L78.88 35.31ZM21.43 36.5V75.35H76.88V36.5L50.89 22.51C49.94 21.83 48.39 21.83 47.43 22.51L47.32 22.58L21.43 36.5Z" fill="#002341"/>
</svg>
