<svg width="96" height="96" viewBox="0 0 96 96" fill="none" xmlns="http://www.w3.org/2000/svg">
<path fill-rule="evenodd" clip-rule="evenodd" d="M32.001 54.1979V42C32.001 41.4477 31.5533 41 31.001 41H24.619C24.2403 41 23.894 40.786 23.7246 40.4472L23.3361 39.6702C23.1375 39.273 23.2246 38.7924 23.5501 38.4902L50.3215 13.631C50.7048 13.2751 51.2976 13.2747 51.6814 13.63L77.6804 37.7032C77.8848 37.8924 78.001 38.1584 78.001 38.4369V40C78.001 40.5523 77.5533 41 77.001 41H71.001C70.4487 41 70.001 41.4477 70.001 42V62.2793C70.001 62.7097 69.7256 63.0918 69.3172 63.228L64.5873 64.8046C64.228 64.9244 63.8318 64.8308 63.564 64.563L61.2939 62.2929C61.1064 62.1054 60.852 62 60.5868 62H49.2878C49.1004 62 48.9167 61.9474 48.7578 61.848L41.1465 57.091C41.0502 57.0308 40.9443 56.9874 40.8335 56.9628L32.7841 55.174C32.3265 55.0724 32.001 54.6666 32.001 54.1979ZM42.5739 43.4696C38.3602 38.6713 43.1005 29.0746 51.001 37.0718C58.9015 29.0746 63.6417 38.6713 59.4282 43.4696C55.2146 48.2679 51.001 52 51.001 52C51.001 52 46.7875 48.268 42.5739 43.4696Z" fill="#8FC1FF"/>
<path fill-rule="evenodd" clip-rule="evenodd" d="M8.46243 50.721C8.84241 50.2642 9.40583 50 10 50H24C25.1046 50 26 50.8954 26 52V53.0277C28.6694 53.0927 32.2998 53.2964 35.9113 53.899C38.2228 54.2846 40.5799 54.8421 42.6977 55.6576C44.7981 56.4665 46.7925 57.5782 48.2488 59.1463C48.6906 59.622 49.0124 59.8027 49.2184 59.884C49.4268 59.9662 49.6493 60 50 60H59.0436L59.0444 62L59.0443 64H50C49.3828 64 48.6046 63.9419 47.7505 63.6049C46.8941 63.267 46.0915 62.7014 45.3178 61.8683C44.4347 60.9173 43.0598 60.0834 41.2602 59.3904C39.4779 58.7041 37.4042 58.2033 35.253 57.8444C31.928 57.2896 28.5456 57.0938 26 57.029V72.5564C26.3784 72.682 26.8254 72.8305 27.3287 72.9978C28.9819 73.5474 31.2428 74.3 33.673 75.1124C38.5264 76.7346 44.0774 78.6022 46.8024 79.5619C48.94 80.3147 51.4574 80.0568 53.8423 79.3738C56.1301 78.7186 58.0481 77.7468 59.0182 77.2552C59.0451 77.2416 59.0713 77.2284 59.0967 77.2155C60.3116 76.6004 67.01 72.8309 72.2015 69.9094C74.8887 68.3972 77.1722 67.1122 78.0825 66.6094C79.2735 65.9517 79.7066 65.476 79.86 65.1791C79.953 64.999 80.0647 64.6651 79.7526 63.8124C79.4512 62.9892 79.0999 62.7318 78.8465 62.6321C78.5397 62.5115 77.8936 62.4339 76.6911 62.8767C75.4152 63.3464 72.1832 64.5894 69.25 65.7229C67.7879 66.2879 66.4064 66.8232 65.3904 67.2173C65.2182 67.2841 65.0564 67.3469 64.9066 67.405C64.8125 67.9978 64.6241 68.6915 64.2477 69.3591C63.3451 70.9596 61.6297 72.005 59.0519 72.0146L59.0444 72.0146H43C41.8954 72.0146 41 71.1192 41 70.0146C41 68.91 41.8954 68.0146 43 68.0146H59.0403C59.7761 68.0114 60.1783 67.8708 60.3845 67.76C60.5771 67.6565 60.6847 67.534 60.7635 67.3944C60.9703 67.0276 61 66.5271 61 65.9999C61 65.4719 60.9701 64.9729 60.7644 64.6089C60.6865 64.4711 60.5804 64.3506 60.3896 64.2488C60.1847 64.1394 59.7824 64 59.0443 64L59.0444 62L59.0436 60C61.6214 60 63.3417 61.0394 64.2468 62.6409C64.3619 62.8447 64.4595 63.0509 64.5422 63.256C65.4738 62.8948 66.6141 62.4532 67.8082 61.9918C70.7278 60.8636 73.9958 59.6065 75.309 59.123C77.0103 58.4966 78.7449 58.2941 80.3102 58.9095C81.9288 59.546 82.9408 60.8857 83.5088 62.4374C84.066 63.9597 84.1816 65.5285 83.4139 67.0148C82.7065 68.3843 81.4144 69.3388 80.0163 70.1109C79.1906 70.5669 77.0468 71.7733 74.4732 73.2214C69.2262 76.1738 62.193 80.1313 60.9034 80.7842C60.8708 80.8007 60.8367 80.818 60.801 80.8361C59.8057 81.3408 57.604 82.4573 54.9436 83.2192C52.2216 83.9987 48.7494 84.4884 45.4736 83.3347C42.7852 82.3879 37.2672 80.5313 32.405 78.906C29.9774 78.0946 27.7187 77.3427 26.0669 76.7936C26.0445 76.7861 26.0222 76.7787 26 76.7713V77C26 79.2091 24.2092 81 22 81H18.3273C15.4349 81 12.9543 78.9365 12.4276 76.0925L8.03345 52.3642C7.92526 51.7799 8.08245 51.1778 8.46243 50.721ZM22 55.0014C22 55.0006 22 54.9998 22 54.999V54H12.4044L16.3607 75.3642C16.5363 76.3122 17.3632 77 18.3273 77H22V55.0014Z" fill="#0F1D2E"/>
<path fill-rule="evenodd" clip-rule="evenodd" d="M43.7877 36.7435C42.7674 37.9829 42.6133 40.4846 44.0757 42.15C46.137 44.4973 48.2041 46.5902 49.7591 48.0987C50.2243 48.5499 50.6426 48.9479 51 49.2837C51.3574 48.9479 51.7758 48.5499 52.2409 48.0987C53.7959 46.5902 55.8631 44.4973 57.9244 42.15C59.3867 40.4846 59.2326 37.9829 58.2123 36.7436C57.7768 36.2146 57.2107 35.9355 56.4426 36.0128C55.5861 36.0991 54.2154 36.6629 52.4228 38.4774C52.0471 38.8578 51.5347 39.0718 51 39.0718C50.4654 39.0718 49.953 38.8578 49.5772 38.4774C47.7846 36.6629 46.4139 36.0991 45.5574 36.0128C44.7893 35.9355 44.2232 36.2145 43.7877 36.7435ZM51 52L49.6739 53.4972C50.4309 54.1677 51.5691 54.1677 52.3261 53.4972L51 52ZM51 52C52.3261 53.4972 52.3259 53.4973 52.3261 53.4972L52.3308 53.493L52.3417 53.4834L52.3812 53.4481C52.4155 53.4175 52.4652 53.3729 52.5293 53.315C52.6577 53.1991 52.8439 53.0299 53.0798 52.8124C53.5515 52.3776 54.2223 51.7494 55.0261 50.9697C56.6313 49.4126 58.7777 47.2403 60.93 44.7893C63.6812 41.6563 63.572 36.9605 61.3004 34.2013C60.09 32.731 58.253 31.8104 56.042 32.033C54.3849 32.1998 52.6902 32.9893 51 34.3667C49.3098 32.9893 47.6151 32.1998 45.958 32.033C43.747 31.8104 41.91 32.7309 40.6996 34.2012C38.428 36.9605 38.3188 41.6563 41.0701 44.7893C43.2224 47.2403 45.3688 49.4126 46.974 50.9698C47.7777 51.7494 48.4485 52.3776 48.9202 52.8124C49.1561 53.0299 49.3423 53.1991 49.4707 53.315C49.5348 53.3729 49.5845 53.4175 49.6188 53.4481L49.6583 53.4834L49.6739 53.4972C49.6741 53.4973 49.6739 53.4972 51 52Z" fill="#0F1D2E"/>
<path fill-rule="evenodd" clip-rule="evenodd" d="M46.7573 13.4142C49.1004 11.0711 52.8994 11.0711 55.2425 13.4142L78.9999 37.1716C81.5198 39.6914 79.7351 44 76.1715 44H70.9993V63C70.9993 64.1046 70.1039 65 68.9993 65C67.8948 65 66.9993 64.1046 66.9993 63V43C66.9993 41.3432 68.3425 40 69.9993 40H76.1715L52.4141 16.2426C51.6331 15.4616 50.3667 15.4616 49.5857 16.2426L25.8283 40H31.9993C33.6562 40 34.9993 41.3432 34.9993 43V55C34.9993 56.1046 34.1039 57 32.9993 57C31.8948 57 30.9993 56.1046 30.9993 55V44H25.8283C22.2647 44 20.48 39.6914 22.9999 37.1716L46.7573 13.4142Z" fill="#0F1D2E"/>
</svg>
