<svg width="96" height="96" viewBox="0 0 96 96" fill="none" xmlns="http://www.w3.org/2000/svg">
<path d="M64.92 49.8L62.86 47.68C62.59 47.41 62.19 47.31 61.83 47.43L60.11 48L59.76 47.68L60.26 45.85C60.35 45.51 60.26 45.14 60.01 44.88C59.73 44.6 53.13 37.94 49.18 36.03C44.73 33.88 40.67 35.89 40.5 35.98C40.13 36.17 39.91 36.57 39.96 36.98C40.01 37.4 40.31 37.74 40.71 37.84C42.52 38.29 47.27 39.98 48.2 42.45L47.3 45.15C47.18 45.5 47.27 45.89 47.53 46.16L48.38 47.04L31.17 64.25C30.78 64.64 30.78 65.27 31.17 65.66L33.87 68.36C34.06 68.55 34.31 68.65 34.58 68.65C34.85 68.65 35.1 68.54 35.29 68.36L52.53 51.12L53.16 51.74C53.43 52.01 53.83 52.1 54.19 51.98L55.73 51.45L56.14 51.85L55.52 53.06C55.32 53.46 55.4 53.94 55.73 54.25L58.21 56.55C58.4 56.73 58.65 56.82 58.89 56.82C59.15 56.82 59.4 56.72 59.6 56.53L64.93 51.2C65.32 50.81 65.32 50.19 64.94 49.8H64.92ZM58.85 54.44L57.63 53.31L58.24 52.12C58.44 51.73 58.36 51.26 58.05 50.95L56.67 49.6C56.4 49.34 56 49.25 55.65 49.37L54.12 49.9L52.51 48.3C52.12 47.91 51.49 47.91 51.1 48.3C50.71 48.69 50.71 49.32 51.1 49.71L34.57 66.24L33.29 64.96L50.47 47.78C50.86 47.39 50.86 46.76 50.47 46.37C50.45 46.35 50.43 46.35 50.41 46.33C50.38 46.29 50.37 46.24 50.33 46.21L49.39 45.23L50.2 42.8C50.26 42.62 50.27 42.42 50.22 42.23C49.58 39.74 46.84 38.06 44.54 37.06C45.65 37.02 46.96 37.19 48.31 37.85C51.42 39.35 56.68 44.43 58.18 45.9L57.67 47.76C57.57 48.13 57.68 48.51 57.96 48.77L59.2 49.89C59.47 50.13 59.84 50.21 60.19 50.1L61.86 49.54L62.79 50.5L58.84 54.45L58.85 54.44Z" fill="#002341"/>
<path d="M77.88 74.35V34.31L50.99 19.84C49.36 18.72 46.95 18.72 45.32 19.84L18.43 34.31V74.35H10V76.35H86V74.35H77.88ZM20.43 74.35V35.5L46.32 21.58L46.43 21.51C47.39 20.83 48.94 20.83 49.89 21.51L75.88 35.5V74.35H20.43Z" fill="#002341"/>
</svg>
