<svg width="96" height="96" viewBox="0 0 96 96" fill="none" xmlns="http://www.w3.org/2000/svg">
<path d="M74 71V36.33L50.53 23.75C49.07 22.75 46.92 22.75 45.46 23.75L22 36.33V71H10V73H86V71H74ZM44.08 37.7L24 47.62V37.7H44.08ZM72 47.44L51.97 37.7H72V47.44ZM47 38.49V47.72H28.33L47 38.49ZM49 38.48L68 47.72H49V38.48ZM46.46 25.48L46.57 25.41C47.36 24.85 48.64 24.85 49.43 25.41L68.61 35.7H27.39L46.46 25.48ZM44.18 70.51V55.51H52.18V70.51H44.18ZM54.18 71V53.51H42.18V71H24V49.72H24.24V49.74L24.28 49.72H72V71H54.18Z" fill="#002341"/>
<path d="M68 54.01H60V64.01H68V54.01Z" fill="#002341"/>
<path d="M36 54.01H28V64.01H36V54.01Z" fill="#002341"/>
</svg>
