<svg width="96" height="96" viewBox="0 0 96 96" fill="none" xmlns="http://www.w3.org/2000/svg">
<path d="M60 52.05H68V62.05H60V52.05Z" fill="#002341"/>
<path d="M52 38.05H44V48.05H52V38.05Z" fill="#002341"/>
<path d="M28 52.05H36V62.05H28V52.05Z" fill="#002341"/>
<path fill-rule="evenodd" clip-rule="evenodd" d="M74 37.32V72.05H84V74.05H12V72.05H22V37.32L45.46 24.75C46.92 23.75 49.07 23.75 50.53 24.75L74 37.32ZM44 58.05V72.05H52V58.05H44ZM54 56.05V72.05H72V38.52L49.43 26.41C48.64 25.85 47.36 25.85 46.57 26.41L46.46 26.48L24 38.52V72.05H42V56.05H54Z" fill="#002341"/>
</svg>
