<svg width="96" height="96" viewBox="0 0 96 96" fill="none" xmlns="http://www.w3.org/2000/svg">
<path d="M42 41.0498H50V31.0498H42V41.0498ZM44 33.0498H48V39.0498H44V33.0498Z" fill="#002341"/>
<path d="M26 55.0498H34V45.0498H26V55.0498ZM28 47.0498H32V53.0498H28V47.0498Z" fill="#002341"/>
<path d="M86.55 60.3898C87.38 59.6098 87.9 58.5198 87.9 57.2998C87.9 54.9598 86 53.0498 83.65 53.0498C81.3 53.0498 79.4 54.9598 79.4 57.2998C79.4 58.4898 79.89 59.5598 80.69 60.3298C79.62 61.0898 78.92 62.3398 78.92 63.7498V65.0498H75.48C75.42 64.9398 75.37 64.8398 75.35 64.7698V57.6298C75.35 56.2298 74.84 54.9498 73.99 53.9598H75.25L75.29 52.9998C75.29 52.7498 75.49 46.9398 72.75 44.0998C72.52 43.8598 72.27 43.6498 72.01 43.4698V30.3298L48.53 17.7498C47.07 16.7498 44.92 16.7498 43.46 17.7498L20 30.3298V65.0598H10V67.0598H47.47C47.83 67.9398 48.41 68.7298 49.18 69.3398L49.21 77.2198H51.21L51.18 68.2798L50.72 67.9898C49.67 67.3098 49.04 66.1598 49.04 64.8998V57.6498C49.04 56.1598 49.94 54.8698 51.23 54.2998L51.37 54.2398C51.59 54.1498 51.81 54.0898 52.03 54.0498C52.25 54.0098 52.48 53.9798 52.71 53.9798H54.04C56.06 53.9798 57.71 55.6298 57.71 57.6498V64.8998C57.71 65.1998 57.67 65.4998 57.6 65.7898C57.38 66.6598 56.85 67.4198 56.09 67.9398L55.65 68.2398V77.2098H57.65V69.2698C58.37 68.6698 58.92 67.9098 59.27 67.0598H61.33C61.25 67.1898 61.16 67.3198 61.08 67.4398L60.5 68.2998L61.38 68.8398C61.44 68.8798 62.66 69.6198 64.73 69.7498V78.2098H73.28V69.7498C75.34 69.6198 76.57 68.8798 76.63 68.8398L77.51 68.2998L76.93 67.4398C76.85 67.3198 76.76 67.1898 76.68 67.0598H78.91V68.7498C78.91 69.9998 79.45 71.1598 80.39 71.9498L80.41 77.2198H82.41L82.39 70.9098L81.93 70.6198C81.29 70.2098 80.91 69.5198 80.91 68.7598V63.7698C80.91 62.5498 81.9 61.5598 83.12 61.5598H84.04C85.26 61.5598 86.25 62.5498 86.25 63.7698V68.7598C86.25 69.4998 85.89 70.1798 85.28 70.5898L84.84 70.8898V77.2198H86.84V71.8998C87.73 71.1098 88.25 69.9598 88.25 68.7498V63.7598C88.25 62.3798 87.57 61.1598 86.54 60.3898H86.55ZM73.27 51.9698H64.82C64.88 50.1298 65.28 47.0198 66.74 45.4898C67.35 44.8498 68.09 44.5398 69.01 44.5398C69.28 44.5398 69.53 44.5698 69.77 44.6298C69.8 44.6298 69.82 44.6498 69.84 44.6498C70.07 44.7098 70.29 44.7998 70.51 44.9098C70.79 45.0598 71.05 45.2398 71.29 45.4898C72.87 47.1298 73.2 50.3598 73.26 51.9698H73.27ZM47.04 57.6398V64.8898C47.04 64.9398 47.04 64.9998 47.04 65.0498H41.99V51.0498H48.48C48.84 51.6898 49.32 52.2598 49.9 52.7098C48.19 53.6898 47.03 55.5298 47.03 57.6298L47.04 57.6398ZM52.83 51.9098C52.75 51.8998 52.68 51.8798 52.6 51.8598C52.48 51.8298 52.37 51.7898 52.26 51.7498C52.01 51.6598 51.77 51.5498 51.53 51.4098L51.34 51.2998C50.78 50.8998 50.32 50.3598 50.05 49.7198V49.6898C50.05 49.6898 50.01 49.5998 50 49.5598C49.93 49.3698 49.87 49.1798 49.83 48.9898C49.78 48.7498 49.76 48.5098 49.76 48.2598C49.76 46.2098 51.43 44.5398 53.48 44.5398C55.53 44.5398 57.2 46.2098 57.2 48.2598C57.2 50.3098 55.53 51.9798 53.48 51.9798C53.26 51.9798 53.05 51.9498 52.84 51.9098H52.83ZM59.71 64.8998V57.6498C59.71 57.4198 59.69 57.1898 59.66 56.9598C59.66 56.8898 59.64 56.8298 59.63 56.7598C59.6 56.5998 59.57 56.4398 59.53 56.2798C59.51 56.2098 59.5 56.1498 59.48 56.0798C59.43 55.8898 59.36 55.7098 59.29 55.5298C59.29 55.5098 59.27 55.4798 59.26 55.4598C59.18 55.2598 59.08 55.0698 58.97 54.8798C58.94 54.8198 58.9 54.7698 58.87 54.7198C58.79 54.5798 58.7 54.4498 58.61 54.3298C58.57 54.2698 58.53 54.2198 58.49 54.1598C58.38 54.0198 58.26 53.8898 58.14 53.7598C58.11 53.7298 58.09 53.6998 58.06 53.6698C57.91 53.5198 57.75 53.3698 57.58 53.2398C57.54 53.1998 57.49 53.1698 57.44 53.1398C57.31 53.0398 57.18 52.9498 57.04 52.8598C57.01 52.8398 56.98 52.8198 56.95 52.7998C56.97 52.7798 56.99 52.7598 57.02 52.7398C57.12 52.6598 57.22 52.5698 57.32 52.4798C57.37 52.4398 57.42 52.3898 57.47 52.3498C57.61 52.2098 57.74 52.0698 57.87 51.9198C58 51.7598 58.12 51.5998 58.23 51.4298C58.26 51.3798 58.29 51.3298 58.32 51.2798C58.4 51.1598 58.47 51.0398 58.53 50.9098C58.56 50.8498 58.59 50.7798 58.62 50.7098C58.68 50.5898 58.73 50.4698 58.78 50.3498C58.81 50.2798 58.83 50.2098 58.86 50.1298C58.9 50.0098 58.94 49.8798 58.97 49.7498C58.99 49.6798 59.01 49.5998 59.03 49.5298C59.06 49.3898 59.08 49.2498 59.11 49.1098C59.11 49.0398 59.13 48.9798 59.14 48.9098C59.16 48.6998 59.18 48.4898 59.18 48.2698C59.18 45.1098 56.61 42.5498 53.46 42.5498C50.31 42.5498 47.74 45.1198 47.74 48.2698C47.74 48.5198 47.76 48.7598 47.79 48.9998C47.79 49.0298 47.79 49.0498 47.79 49.0798H39.98V65.0798H22V31.5198L44.46 19.4798L44.57 19.4098C45.36 18.8498 46.64 18.8498 47.43 19.4098L70 31.5198V42.6198C69.68 42.5598 69.35 42.5298 69.01 42.5298C67.54 42.5298 66.29 43.0598 65.29 44.0998C62.57 46.9498 62.81 52.7598 62.82 53.0098L62.86 53.9598H64.02C64.02 53.9598 64.01 53.9798 64 53.9798C63.81 54.1998 63.65 54.4398 63.5 54.6798C63.47 54.7198 63.45 54.7598 63.43 54.7998C63.29 55.0498 63.17 55.2998 63.06 55.5698C63.04 55.6198 63.03 55.6598 63.01 55.7098C62.91 55.9798 62.83 56.2698 62.78 56.5598C62.78 56.5998 62.77 56.6398 62.76 56.6698C62.71 56.9798 62.67 57.2898 62.67 57.6198V64.7598C62.65 64.8098 62.61 64.8998 62.54 65.0398H59.7C59.7 64.9898 59.7 64.9298 59.7 64.8798L59.71 64.8998ZM74.61 67.5198C74.06 67.6698 73.29 67.8098 72.33 67.7698L71.29 67.7298V76.2198H66.74V67.7298L65.7 67.7698C64.75 67.8098 63.97 67.6798 63.42 67.5198C63.53 67.3498 63.61 67.2098 63.7 67.0598L63.77 66.9298C63.95 66.6298 64.1 66.3798 64.21 66.1598C64.48 65.6698 64.6 65.3698 64.64 65.1398C64.66 65.0298 64.66 64.9598 64.66 64.8898V57.6398C64.66 55.6198 66.3 53.9698 68.33 53.9698H69.66C69.85 53.9698 70.02 53.9998 70.2 54.0198C70.36 54.0498 70.52 54.0798 70.69 54.1398L71.03 54.2398C72.37 54.7898 73.32 56.0998 73.32 57.6298V64.8798C73.32 65.0898 73.32 65.4498 74.26 66.9798V67.0398H74.3C74.39 67.1898 74.48 67.3298 74.58 67.4998L74.61 67.5198ZM83.66 55.0598C84.9 55.0598 85.91 56.0698 85.91 57.3098C85.91 58.5498 84.9 59.5598 83.66 59.5598C82.42 59.5598 81.41 58.5498 81.41 57.3098C81.41 56.0698 82.42 55.0598 83.66 55.0598Z" fill="#002341"/>
</svg>
