<svg width="96" height="96" viewBox="0 0 96 96" fill="none" xmlns="http://www.w3.org/2000/svg">
<path fill-rule="evenodd" clip-rule="evenodd" d="M74 76.05V41.32L50.53 28.75C49.07 27.75 46.92 27.75 45.46 28.75L22 41.32V76.05H12V78.05H84V76.05H74ZM34 76.05V62.05H42V76.05H34ZM54 76.05V62.05H62V76.05H54ZM64 76.05V60.05H52V76.05H44V60.05H32V76.05H24V42.52L46.46 30.48L46.57 30.41C47.36 29.85 48.64 29.85 49.43 30.41L72 42.52V76.05H64ZM34 54.05H42V44.05H34V54.05ZM36 46.05H40V52.05H36V46.05ZM54 44.05H62V54.05H54V44.05Z" fill="#002341"/>
</svg>
