<svg width="96" height="96" viewBox="0 0 96 96" fill="none" xmlns="http://www.w3.org/2000/svg">
<path d="M74 74V39.32L50.53 26.75C49.07 25.75 46.92 25.75 45.46 26.75L22 39.32V73.99H10V75.99H86V73.99H74V74ZM37.06 74C37.06 67.96 41.97 63.06 48 63.06C54.03 63.06 58.94 67.97 58.94 74H37.05H37.06ZM72 74H60.94C60.94 68.41 57.37 63.65 52.4 61.84C54.96 60.33 56.68 57.55 56.68 54.37C56.68 49.58 52.78 45.68 47.99 45.68C43.2 45.68 39.3 49.58 39.3 54.37C39.3 57.55 41.02 60.33 43.58 61.84C38.61 63.65 35.04 68.41 35.04 74H23.98V40.52L46.46 28.48L46.57 28.41C47.36 27.85 48.64 27.85 49.43 28.41L72 40.51V74ZM48 61.06C44.31 61.06 41.31 58.06 41.31 54.37C41.31 50.68 44.31 47.68 48 47.68C51.69 47.68 54.69 50.68 54.69 54.37C54.69 58.06 51.69 61.06 48 61.06Z" fill="#002341"/>
</svg>
