<svg width="96" height="96" viewBox="0 0 96 96" fill="none" xmlns="http://www.w3.org/2000/svg">
<path d="M80.65 80.5501V52.6101H75.65V24.6701H75.62L66.83 13.3601C66.45 12.8701 65.63 12.8701 65.25 13.3601L56.44 24.6601H56.41V29.3701H39.41V24.6601H39.38L30.61 13.3601C30.23 12.8701 29.41 12.8701 29.03 13.3601L20.22 24.6601H20.19V52.6001H15.3V80.5401H10V82.5401H86V80.5401H80.65V80.5501ZM58.43 26.6701H73.65V52.6101H58.43V26.6701ZM66.04 15.6001L73.11 24.6701H58.98L66.05 15.6001H66.04ZM56.43 31.3801V52.6001H39.43V31.3801H56.43ZM29.82 15.6101L36.89 24.6801H22.76L29.83 15.6101H29.82ZM22.21 26.6801H37.43V52.6201H22.21V26.6701V26.6801ZM43.48 80.5301V67.9801C43.48 65.5101 45.49 63.5001 47.96 63.5001H48.04C50.51 63.5001 52.52 65.5101 52.52 67.9801V80.5301H43.48ZM54.52 80.5501V67.9801C54.52 64.4101 51.61 61.5001 48.04 61.5001H47.96C44.39 61.5001 41.48 64.4101 41.48 67.9801V80.5501H17.32V54.6101H78.65V80.5501H54.51H54.52Z" fill="#002341"/>
<path d="M29.85 61.5001H29.81C27.49 61.5001 25.61 63.3801 25.61 65.7001V74.6101H34.05V65.7001C34.05 63.3901 32.17 61.5001 29.85 61.5001ZM32.05 72.6101H27.61V65.7001C27.61 64.4901 28.6 63.5001 29.81 63.5001H29.85C31.06 63.5001 32.05 64.4901 32.05 65.7001V72.6101Z" fill="#002341"/>
<path d="M29.85 39.8901H29.81C27.49 39.8901 25.61 41.7701 25.61 44.0901V49.0001H34.05V44.0901C34.05 41.7701 32.17 39.8901 29.85 39.8901ZM32.05 47.0001H27.61V44.0901C27.61 42.8801 28.6 41.8901 29.81 41.8901H29.85C31.06 41.8901 32.05 42.8801 32.05 44.0901V47.0001Z" fill="#002341"/>
<path d="M29.85 28.5301H29.81C27.49 28.5301 25.61 30.4101 25.61 32.7301V37.6401H34.05V32.7301C34.05 30.4201 32.17 28.5301 29.85 28.5301ZM32.05 35.6401H27.61V32.7301C27.61 31.5201 28.6 30.5301 29.81 30.5301H29.85C31.06 30.5301 32.05 31.5201 32.05 32.7301V35.6401Z" fill="#002341"/>
<path d="M66.07 39.8901H66.03C63.71 39.8901 61.83 41.7701 61.83 44.0901V49.0001H70.27V44.0901C70.27 41.7701 68.39 39.8901 66.07 39.8901ZM68.27 47.0001H63.83V44.0901C63.83 42.8801 64.82 41.8901 66.03 41.8901H66.07C67.28 41.8901 68.27 42.8801 68.27 44.0901V47.0001Z" fill="#002341"/>
<path d="M52.21 49.0001V44.0901C52.21 41.7701 50.33 39.8901 48.01 39.8901H47.97C45.65 39.8901 43.77 41.7701 43.77 44.0901V49.0001H52.21ZM45.77 44.0901C45.77 42.8801 46.76 41.8901 47.97 41.8901H48.01C49.22 41.8901 50.21 42.8801 50.21 44.0901V47.0001H45.77V44.0901Z" fill="#002341"/>
<path d="M66.07 28.5301H66.03C63.71 28.5301 61.83 30.4101 61.83 32.7301V37.6401H70.27V32.7301C70.27 30.4201 68.39 28.5301 66.07 28.5301ZM68.27 35.6401H63.83V32.7301C63.83 31.5201 64.82 30.5301 66.03 30.5301H66.07C67.28 30.5301 68.27 31.5201 68.27 32.7301V35.6401Z" fill="#002341"/>
<path d="M66.07 61.5001H66.03C63.71 61.5001 61.83 63.3801 61.83 65.7001V74.6101H70.27V65.7001C70.27 63.3901 68.39 61.5001 66.07 61.5001ZM68.27 72.6101H63.83V65.7001C63.83 64.4901 64.82 63.5001 66.03 63.5001H66.07C67.28 63.5001 68.27 64.4901 68.27 65.7001V72.6101Z" fill="#002341"/>
</svg>
