<svg width="96" height="96" viewBox="0 0 96 96" fill="none" xmlns="http://www.w3.org/2000/svg">
<path d="M34 45H26V55H34V45Z" fill="#002341"/>
<path d="M58 45H66V55H58V45Z" fill="#002341"/>
<path fill-rule="evenodd" clip-rule="evenodd" d="M72 63V39.29L64.12 31.82C63.56 31.29 62.83 31 62.06 31H29.95C29.18 31 28.45 31.29 27.89 31.82L20.01 39.29V63H12V65H84V63H72ZM42 63V47H50V63H42ZM52 63V45H40V63H22V40.15L29.26 33.27C29.45 33.09 29.69 33 29.95 33H62.06C62.32 33 62.56 33.1 62.75 33.27L70.01 40.15V63H52Z" fill="#002341"/>
</svg>
