<svg width="96" height="96" viewBox="0 0 96 96" fill="none" xmlns="http://www.w3.org/2000/svg">
<path d="M47.3503 30.3502C47.4003 28.9202 48.1403 27.5802 49.3003 26.7802H49.2903C51.4903 25.2702 54.2003 25.9802 55.6603 27.6902C57.1203 25.9802 59.8403 25.2802 62.0303 26.7802C63.2003 27.5802 63.9303 28.9302 63.9803 30.3402C64.0897 33.5532 61.2602 36.1231 56.9387 40.048L55.6603 41.2102L54.4603 40.1302L54.3895 40.0659C50.0594 36.1323 47.2309 33.5627 47.3503 30.3502Z" fill="#002341"/>
<path fill-rule="evenodd" clip-rule="evenodd" d="M74.6603 21.7402L57.6403 12.5802C56.5003 11.8102 54.8303 11.8102 53.7003 12.5802L36.6703 21.7402V48.6802H74.6703V21.7402H74.6603ZM72.6603 46.6802H38.6603V22.9302L54.6903 14.3102L54.8003 14.2402C55.2703 13.9102 56.0603 13.9102 56.5303 14.2402L72.6603 22.9302V46.6802Z" fill="#002341"/>
<path fill-rule="evenodd" clip-rule="evenodd" d="M82.0202 56.0102C81.7902 54.8002 81.0802 54.2202 80.5202 53.9602C78.3702 52.9302 74.8503 54.7202 74.5003 54.9102L63.7203 59.8902C63.5703 59.2802 63.2503 58.7202 62.7703 58.2702C60.7903 56.4302 56.6603 56.6602 56.2703 56.6902H53.8103C52.3503 56.6902 50.9603 56.3802 49.6903 55.7502C47.6903 54.7802 44.6203 53.5802 41.3203 53.4202C35.7903 53.1602 32.7603 55.0002 28.4603 58.0702C26.8603 59.2102 22.9603 61.2002 20.9803 62.1902L19.4403 58.9902L13.0103 62.0702L13.8803 63.8702L18.5103 61.6502L28.2003 81.8602L23.5703 84.0802L24.4403 85.8802L30.8703 82.8002L28.9503 78.8102C29.5824 78.5657 30.3533 78.2643 30.9659 78.0247L30.9755 78.021C31.3858 77.8605 31.724 77.7283 31.9003 77.6602L32.0303 77.6102C35.1503 76.4102 38.6603 75.8902 42.4803 76.0602C44.5103 76.1502 47.3503 76.2702 50.0303 76.3602C53.9403 76.4902 57.8703 75.6702 61.4203 73.9902L62.9303 73.2802C65.1503 72.2302 67.4203 70.8502 69.8703 69.0702C70.5003 68.6102 71.1903 68.1202 71.9103 67.6202C77.0103 64.0202 82.7903 59.9302 82.0503 56.0302L82.0202 56.0102ZM70.4373 66.1774L70.2847 66.2853C69.7223 66.6827 69.1772 67.0679 68.6703 67.4402C66.3203 69.1502 64.1603 70.4702 62.0503 71.4602L60.5403 72.1702C57.2703 73.7102 53.6503 74.4502 50.0703 74.3502C47.4003 74.2602 44.5703 74.1402 42.5503 74.0502C38.4603 73.8702 34.6703 74.4302 31.2903 75.7302L31.1603 75.7802C31.033 75.83 30.8223 75.9127 30.5613 76.0152C29.8786 76.2831 28.8515 76.6864 28.0703 76.9902L21.8303 63.9802C23.8403 62.9802 27.8703 60.9202 29.6103 59.6802C33.9303 56.6002 36.4803 55.1702 41.2103 55.4002C44.1703 55.5402 46.9703 56.6402 48.8003 57.5302C50.3503 58.2802 52.0303 58.6702 53.8003 58.6702H56.3303C57.2903 58.6002 60.2703 58.6602 61.4003 59.7202C61.6903 59.9902 61.8203 60.3002 61.8203 60.6902C61.8203 60.9902 61.7103 61.2302 61.4803 61.4702C60.5403 62.4002 57.9303 62.7102 56.5203 62.6702H45.2103V64.6702H56.6803C57.6103 64.6702 61.1803 64.5602 62.8803 62.8902C63.0903 62.6902 63.2503 62.4602 63.3903 62.2202L75.3803 56.6802C76.5803 56.0502 78.7603 55.3102 79.6503 55.7402C79.8102 55.8202 79.9802 55.9502 80.0602 56.3702C80.5602 59.0102 74.6503 63.1902 70.7303 65.9502V65.9702C70.6322 66.0396 70.5345 66.1087 70.4373 66.1774Z" fill="#002341"/>
</svg>
