<svg width="96" height="96" viewBox="0 0 96 96" fill="none" xmlns="http://www.w3.org/2000/svg">
<path d="M14.33 42.37V52.37H22.33V42.37H14.33ZM20.33 50.37H16.33V44.37H20.33V50.37Z" fill="#002341"/>
<path d="M32.34 52.37H40.34V42.37H32.34V52.37ZM34.34 44.37H38.34V50.37H34.34V44.37Z" fill="#002341"/>
<path d="M52.83 42.37H44.83V52.37H52.83V42.37ZM50.83 50.37H46.83V44.37H50.83V50.37Z" fill="#002341"/>
<path d="M57.31 42.37V52.37H65.31V42.37H57.31ZM63.31 50.37H59.31V44.37H63.31V50.37Z" fill="#002341"/>
<path d="M14.33 66.79H22.33V56.79H14.33V66.79ZM16.33 58.79H20.33V64.79H16.33V58.79Z" fill="#002341"/>
<path d="M32.34 66.79H40.34V56.79H32.34V66.79ZM34.34 58.79H38.34V64.79H34.34V58.79Z" fill="#002341"/>
<path d="M75.41 52.37H83.41V42.37H75.41V52.37ZM77.41 44.37H81.41V50.37H77.41V44.37Z" fill="#002341"/>
<path d="M75.41 66.79H83.41V56.79H75.41V66.79ZM77.41 58.79H81.41V64.79H77.41V58.79Z" fill="#002341"/>
<path d="M57.31 66.79H65.31V56.79H57.31V66.79ZM59.31 58.79H63.31V64.79H59.31V58.79Z" fill="#002341"/>
<path d="M89.65 77.26V35.33H71.17L49.81 27L26.65 35.32V35.34H8.14L8 77.26H2V79.26L56 79.28L70.37 79.26H94V77.26H89.65ZM28.65 36.72L49.78 29.13L69.17 36.7V77.25H28.65V36.72ZM10 77.25L10.13 37.33H26.65V77.25H10ZM71.17 77.25V37.33H87.65V77.25H71.17Z" fill="#002341"/>
<path d="M54.83 56.79H42.83V71.41H54.83V56.79ZM52.83 69.41H44.83V58.79H52.83V69.41Z" fill="#002341"/>
<path d="M56.83 73.34H40.83V75.34H56.83V73.34Z" fill="#002341"/>
</svg>
