<svg width="96" height="96" viewBox="0 0 96 96" fill="none" xmlns="http://www.w3.org/2000/svg">
<path d="M75.81 58.33H74.81C74.68 58.33 74.36 58.33 73.88 58.33V52.32H75.82V50.32H61.81V41.24H59.98V35.01H61.81V33.01H47.81V24H21.06V58.33H15.44V60.33H21.44L21.47 60.32L34.42 80.32H10V82.32H86V80.32H75.81V58.33ZM71.88 58.32C71.26 58.32 70.55 58.32 69.77 58.32V52.31H71.88V58.32ZM23.06 58.31V43.23H59.81V58.31H49.04C47.35 58.31 45.66 58.31 43.99 58.31H23.06ZM53.86 35V41.23H51.79V35H53.86ZM61.8 52.31H63.69V58.32C63.08 58.32 62.45 58.32 61.8 58.32V52.31ZM65.69 52.31H67.76V58.32C67.1 58.32 66.41 58.32 65.69 58.32V52.31ZM57.97 41.23H55.86V35H57.97V41.23ZM23.06 26H45.81V41H23.06V26ZM47.81 35H49.79V41.23H47.81V35ZM56.81 80.31V65.31H64.81V80.31H56.81ZM66.81 80.31V63.31H54.81V80.31H36.8L23.88 60.34C32.25 60.28 67.41 60.32 73.81 60.32V80.31H66.81Z" fill="#002341"/>
<path d="M30.93 55.3H37.93V46.3H30.93V55.3ZM32.93 48.3H35.93V53.3H32.93V48.3Z" fill="#002341"/>
<path d="M30.93 38.02H37.93V29.02H30.93V38.02ZM32.93 31.02H35.93V36.02H32.93V31.02Z" fill="#002341"/>
<path d="M45.81 55.3H52.81V46.3H45.81V55.3ZM47.81 48.3H50.81V53.3H47.81V48.3Z" fill="#002341"/>
<path d="M38.31 72.31H45.31V63.31H38.31V72.31ZM40.31 65.31H43.31V70.31H40.31V65.31Z" fill="#002341"/>
</svg>
