<svg width="96" height="96" viewBox="0 0 96 96" fill="none" xmlns="http://www.w3.org/2000/svg">
<path d="M93.93 66.4298C93.27 65.4398 92.5 64.1798 92.33 63.7698V56.6298C92.33 55.2298 91.82 53.9498 90.97 52.9598H92.23L92.27 51.9998C92.27 51.7498 92.47 45.9398 89.73 43.0998C88.73 42.0598 87.47 41.5298 86 41.5298C84.53 41.5298 83.28 42.0598 82.28 43.0998C79.56 45.9498 79.8 51.7598 79.81 52.0098L79.85 52.9598H81.01C80.16 53.9498 79.65 55.2298 79.65 56.6298V63.7698C79.62 63.8398 79.57 63.9298 79.52 64.0398H76.68C76.68 63.9898 76.68 63.9298 76.68 63.8798V56.6298C76.68 56.4098 76.66 56.1898 76.64 55.9698C76.64 55.8998 76.62 55.8298 76.61 55.7498C76.59 55.6098 76.56 55.4598 76.53 55.3198C76.51 55.2398 76.49 55.1598 76.47 55.0798C76.43 54.9498 76.39 54.8198 76.34 54.6898C76.31 54.6198 76.29 54.5398 76.26 54.4698C76.18 54.2798 76.09 54.0998 76 53.9198C75.97 53.8698 75.94 53.8298 75.92 53.7798C75.84 53.6398 75.75 53.4998 75.65 53.3598C75.62 53.3098 75.58 53.2698 75.54 53.2198C75.43 53.0698 75.31 52.9198 75.18 52.7898C75.17 52.7798 75.15 52.7598 75.14 52.7498C74.81 52.4098 74.45 52.0998 74.04 51.8498V51.6998C74.21 51.5698 74.36 51.4198 74.51 51.2698C74.51 51.2698 74.51 51.2598 74.52 51.2598C74.65 51.1198 74.78 50.9798 74.9 50.8298C74.94 50.7798 74.98 50.7198 75.02 50.6698C75.1 50.5698 75.18 50.4598 75.25 50.3498C75.29 50.2798 75.33 50.2198 75.37 50.1498C75.43 50.0498 75.49 49.9398 75.55 49.8298C75.59 49.7598 75.62 49.6898 75.65 49.6098C75.7 49.4998 75.75 49.3898 75.79 49.2698C75.82 49.1998 75.85 49.1198 75.87 49.0498C75.91 48.9298 75.94 48.7998 75.98 48.6798C76 48.6098 76.02 48.5398 76.03 48.4698C76.06 48.3298 76.08 48.1898 76.1 48.0498C76.1 47.9898 76.12 47.9298 76.13 47.8698C76.15 47.6698 76.16 47.4598 76.16 47.2498C76.16 47.0398 76.15 46.8298 76.13 46.6298C76.13 46.5698 76.11 46.5098 76.1 46.4498C76.08 46.3098 76.06 46.1698 76.03 46.0298C76.01 45.9598 75.99 45.8898 75.98 45.8198C75.95 45.6998 75.91 45.5698 75.87 45.4498C75.84 45.3698 75.82 45.2998 75.79 45.2298C75.75 45.1198 75.7 44.9998 75.65 44.8998C75.62 44.8198 75.58 44.7498 75.54 44.6798C75.49 44.5698 75.43 44.4698 75.37 44.3698C75.33 44.2998 75.29 44.2298 75.24 44.1598C75.17 44.0498 75.1 43.9498 75.02 43.8498C74.98 43.7898 74.94 43.7398 74.89 43.6798C74.78 43.5398 74.66 43.3998 74.53 43.2698C74.52 43.2598 74.51 43.2498 74.5 43.2298C74.35 43.0798 74.2 42.9398 74.03 42.8098V29.3398L50.58 16.7498C49.12 15.7498 46.97 15.7498 45.51 16.7498L22.04 29.3298V42.3898C20.41 43.3998 19.32 45.1998 19.32 47.2498C19.32 49.0998 20.2 50.7398 21.57 51.7798C19.92 52.7698 18.81 54.5698 18.81 56.6398V63.8898C18.81 63.9398 18.81 63.9998 18.81 64.0498H15.97C15.91 63.9398 15.87 63.8498 15.84 63.7798V56.6398C15.84 55.2398 15.33 53.9598 14.48 52.9698H15.64L15.68 52.0198C15.69 51.7698 15.93 45.9598 13.21 43.1098C12.21 42.0698 10.96 41.5398 9.48998 41.5398C8.01998 41.5398 6.75998 42.0698 5.75998 43.1098C3.01998 45.9598 3.20998 51.7698 3.21998 52.0098L3.25998 52.9698H4.51998C3.66998 53.9598 3.15998 55.2398 3.15998 56.6398V63.7798C2.99998 64.1798 2.22998 65.4398 1.55998 66.4398L0.97998 67.2998L1.85998 67.8398C1.91998 67.8798 3.13998 68.6198 5.20998 68.7498V76.2098H7.20998V66.7198L6.16998 66.7598C5.21998 66.7998 4.43998 66.6698 3.88998 66.5098C5.14998 64.5198 5.14998 64.1198 5.14998 63.8898V56.6398C5.14998 54.6198 6.79998 52.9698 8.81998 52.9698H10.15C12.17 52.9698 13.82 54.6198 13.82 56.6398V63.8898C13.82 64.1198 13.82 64.5198 15.08 66.5098C14.53 66.6598 13.75 66.7998 12.8 66.7598L11.76 66.7198V76.2098H13.76V68.7498C15.82 68.6198 17.05 67.8798 17.11 67.8398L17.99 67.2998L17.41 66.4398C17.33 66.3198 17.24 66.1898 17.16 66.0598H19.22C19.57 66.9098 20.12 67.6698 20.84 68.2698V76.2098H22.84V67.2398L22.4 66.9398C21.39 66.2598 20.78 65.1198 20.78 63.8998V56.6498C20.78 55.1498 21.69 53.8598 22.98 53.2898L23.32 53.1798C23.52 53.1198 23.7 53.0698 23.88 53.0398C24.07 53.0098 24.25 52.9798 24.45 52.9798H25.78C27.8 52.9798 29.45 54.6298 29.45 56.6498V63.8998C29.45 64.2098 29.41 64.5098 29.33 64.8198V64.8398C29.09 65.7198 28.55 66.4798 27.76 66.9898L27.3 67.2798L27.27 76.2098H29.27L29.3 68.3398C30.07 67.7298 30.65 66.9398 31.01 66.0598H64.42C64.42 66.0598 64.45 66.1198 64.46 66.1498C64.53 66.2998 64.6 66.4498 64.68 66.5998C64.71 66.6598 64.74 66.7198 64.78 66.7798C64.86 66.9198 64.95 67.0598 65.05 67.1898C65.09 67.2398 65.13 67.2998 65.17 67.3498C65.28 67.4898 65.39 67.6198 65.52 67.7498C65.56 67.7898 65.59 67.8298 65.62 67.8698C65.78 68.0298 65.95 68.1898 66.14 68.3398L66.17 76.2198H68.17L68.14 67.2898L67.68 66.9998C67.5 66.8898 67.35 66.7598 67.19 66.6198C67.15 66.5898 67.12 66.5498 67.09 66.5198C66.8 66.2298 66.55 65.8898 66.37 65.5198C66.35 65.4898 66.34 65.4498 66.32 65.4198C66.23 65.2298 66.16 65.0298 66.11 64.8298V64.7998C66.03 64.5098 65.99 64.2198 65.99 63.9098V56.6598C65.99 54.6398 67.64 52.9898 69.66 52.9898H70.99C71.47 52.9898 71.93 53.0898 72.35 53.2598L72.58 53.3698C72.87 53.5098 73.12 53.6798 73.36 53.8798C73.4 53.9098 73.44 53.9398 73.48 53.9798C73.56 54.0598 73.64 54.1398 73.72 54.2198C73.8 54.2998 73.87 54.3898 73.93 54.4798C73.98 54.5498 74.03 54.6098 74.08 54.6798C74.19 54.8498 74.29 55.0198 74.37 55.2098C74.39 55.2498 74.4 55.2998 74.42 55.3398C74.48 55.4998 74.53 55.6598 74.57 55.8298C74.58 55.8898 74.6 55.9498 74.61 56.0098C74.65 56.2198 74.68 56.4398 74.68 56.6698V63.9198C74.68 65.1398 74.08 66.2798 73.06 66.9598L72.62 67.2598V76.2298H74.62V68.2898C75.34 67.6898 75.89 66.9298 76.24 66.0798H78.3C78.22 66.2098 78.13 66.3398 78.05 66.4598L77.47 67.3198L78.35 67.8598C78.41 67.8998 79.63 68.6398 81.7 68.7698V76.2298H83.7V66.7398L82.66 66.7798C81.71 66.8198 80.93 66.6898 80.38 66.5298C81.64 64.5398 81.64 64.1398 81.64 63.9098V56.6598C81.64 54.6398 83.28 52.9898 85.31 52.9898H86.64C88.66 52.9898 90.31 54.6398 90.31 56.6598V63.9098C90.31 64.1398 90.31 64.5398 91.57 66.5298C91.02 66.6798 90.25 66.8198 89.29 66.7798L88.25 66.7398V76.2298H90.25V68.7698C92.31 68.6398 93.54 67.8998 93.6 67.8598L94.48 67.3198L93.9 66.4598L93.93 66.4298ZM83.73 44.4798C84.34 43.8398 85.08 43.5298 86 43.5298C86.92 43.5298 87.67 43.8398 88.29 44.4898C89.87 46.1298 90.2 49.3598 90.26 50.9698H81.81C81.87 49.1298 82.27 46.0198 83.73 44.4898V44.4798ZM7.21998 44.4798C7.83998 43.8398 8.58998 43.5198 9.50998 43.5198C10.43 43.5198 11.17 43.8298 11.78 44.4698C13.24 45.9998 13.64 49.1098 13.7 50.9498H5.23998C5.30998 49.1098 5.73998 46.0098 7.21998 44.4698V44.4798ZM66.73 47.2398C66.73 45.1898 68.4 43.5198 70.45 43.5198C71.2 43.5198 71.9 43.7498 72.49 44.1398C72.54 44.1698 72.59 44.2098 72.64 44.2498C72.76 44.3398 72.88 44.4398 72.99 44.5398C73.04 44.5798 73.09 44.6298 73.13 44.6798C73.27 44.8198 73.39 44.9698 73.51 45.1398C73.54 45.1798 73.56 45.2198 73.58 45.2498C73.68 45.3998 73.76 45.5598 73.84 45.7198C73.86 45.7598 73.88 45.7998 73.9 45.8398C73.98 46.0298 74.04 46.2298 74.09 46.4398C74.1 46.4898 74.11 46.5298 74.12 46.5798C74.16 46.7998 74.19 47.0198 74.19 47.2498C74.19 47.4798 74.16 47.6998 74.12 47.9198C74.12 47.9698 74.1 48.0098 74.09 48.0598C74.04 48.2698 73.98 48.4698 73.9 48.6598C73.88 48.6998 73.86 48.7398 73.84 48.7798C73.77 48.9398 73.68 49.0998 73.58 49.2498C73.56 49.2898 73.54 49.3298 73.51 49.3598C73.4 49.5198 73.27 49.6798 73.13 49.8198C73.08 49.8698 73.04 49.9098 72.99 49.9598C72.88 50.0598 72.76 50.1598 72.64 50.2498C72.59 50.2898 72.55 50.3298 72.49 50.3598C71.9 50.7498 71.2 50.9798 70.45 50.9798C68.4 50.9798 66.73 49.3098 66.73 47.2598V47.2398ZM23.47 50.5998H23.44C22.19 49.9798 21.33 48.7198 21.33 47.2398C21.33 45.7598 22.2 44.4998 23.44 43.8998H23.47C23.99 43.6398 24.52 43.5198 25.05 43.5198C27.1 43.5198 28.77 45.1898 28.77 47.2398C28.77 49.2898 27.1 50.9598 25.05 50.9598C24.52 50.9598 23.99 50.8398 23.47 50.5898V50.5998ZM44.04 64.0498V50.0498H52.04V64.0498H44.04ZM64.02 56.6298V63.8798C64.02 63.9298 64.02 63.9898 64.02 64.0398H54.03V48.0398H42.03V64.0398H31.47C31.47 63.9898 31.47 63.9298 31.47 63.8798V56.6298C31.47 56.3898 31.45 56.1598 31.42 55.9298C31.42 55.8598 31.4 55.7998 31.39 55.7298C31.36 55.5598 31.33 55.3898 31.29 55.2298C31.27 55.1698 31.26 55.1098 31.24 55.0498C31.18 54.8298 31.1 54.6198 31.02 54.4198C31.02 54.3998 31 54.3898 30.99 54.3698C30.91 54.1798 30.82 53.9998 30.71 53.8298C30.68 53.7698 30.64 53.7198 30.61 53.6598C30.52 53.5198 30.43 53.3798 30.33 53.2498C30.29 53.1998 30.26 53.1498 30.22 53.1098C30.08 52.9398 29.94 52.7798 29.78 52.6198C29.76 52.5998 29.73 52.5798 29.71 52.5498C29.57 52.4198 29.43 52.2998 29.29 52.1798C29.24 52.1398 29.18 52.0998 29.13 52.0598C29 51.9598 28.86 51.8698 28.71 51.7798C28.67 51.7598 28.64 51.7298 28.61 51.7098C28.62 51.7098 28.63 51.6898 28.64 51.6798C28.79 51.5598 28.94 51.4298 29.07 51.2898C29.21 51.1498 29.34 50.9998 29.47 50.8498C29.51 50.7998 29.54 50.7598 29.57 50.7098C29.65 50.5998 29.74 50.4898 29.81 50.3698C29.85 50.3098 29.89 50.2498 29.92 50.1798C29.99 50.0698 30.05 49.9598 30.11 49.8498C30.15 49.7798 30.18 49.7098 30.21 49.6398C30.26 49.5298 30.31 49.4098 30.36 49.2998C30.39 49.2298 30.42 49.1498 30.44 49.0798C30.48 48.9598 30.52 48.8398 30.55 48.7198C30.57 48.6398 30.59 48.5698 30.61 48.4898C30.64 48.3598 30.66 48.2198 30.68 48.0798C30.68 48.0098 30.7 47.9498 30.71 47.8798C30.73 47.6698 30.75 47.4598 30.75 47.2498C30.75 44.0898 28.18 41.5298 25.03 41.5298C24.69 41.5298 24.37 41.5598 24.04 41.6198C24.04 41.6198 24.03 41.6198 24.02 41.6198V30.5198L46.5 18.4798L46.61 18.4098C47.4 17.8498 48.68 17.8498 49.47 18.4098L72.04 30.5198V41.7498C71.54 41.5998 71 41.5198 70.45 41.5198C67.29 41.5198 64.73 44.0898 64.73 47.2398C64.73 49.0498 65.57 50.6598 66.89 51.7098C65.18 52.6898 64.02 54.5298 64.02 56.6298Z" fill="#002341"/>
<path d="M44.04 40.0498H52.04V30.0498H44.04V40.0498ZM46.04 32.0498H50.04V38.0498H46.04V32.0498Z" fill="#002341"/>
</svg>
