<svg width="96" height="96" viewBox="0 0 96 96" fill="none" xmlns="http://www.w3.org/2000/svg">
<path d="M44.56 44.035C44.5582 42.8979 43.9378 42.1792 42.44 41.6L41.59 41.26C40.81 40.94 40.4 40.65 40.4 40.07C40.4 39.45 40.87 39.1 41.8 39.1C42.73 39.1 43.5 39.45 44.19 40.01V38.49C43.65 38.08 42.8 37.71 41.68 37.71C39.86 37.71 38.78 38.68 38.78 40.16C38.78 41.28 39.4 42.02 40.74 42.52L41.62 42.86C42.6 43.28 42.88 43.54 42.88 44.09C42.88 44.79 42.41 45.18 41.45 45.18C40.43 45.18 39.49 44.75 38.76 44.14V45.66C39.61 46.29 40.61 46.58 41.59 46.58C43.428 46.58 44.5576 45.5722 44.56 44.035Z" fill="#002341"/>
<path d="M44.56 44.035L44.56 44.03V44.04L44.56 44.035Z" fill="#002341"/>
<path fill-rule="evenodd" clip-rule="evenodd" d="M51.69 43.35C51.69 45.21 50.43 46.53 48.59 46.53C46.77 46.53 45.51 45.23 45.51 43.35C45.51 41.47 46.74 40.14 48.59 40.14C50.44 40.14 51.69 41.49 51.69 43.35ZM50.17 43.34C50.17 42.21 49.57 41.43 48.59 41.43C47.61 41.43 47.03 42.22 47.03 43.34C47.03 44.46 47.61 45.24 48.59 45.24C49.57 45.24 50.17 44.47 50.17 43.34Z" fill="#002341"/>
<path d="M54.51 37.72H53.02V46.36H54.51V37.72Z" fill="#002341"/>
<path fill-rule="evenodd" clip-rule="evenodd" d="M60.52 45.24C60.2 45.93 59.55 46.53 58.48 46.53L58.49 46.54C56.87 46.54 55.85 45.2 55.85 43.37C55.85 41.54 56.98 40.14 58.62 40.14C59.47 40.14 60.1 40.52 60.51 41.29V37.72H62V46.36H60.52V45.24ZM60.53 43.31C60.53 42.21 59.93 41.43 58.95 41.43H58.94C57.98 41.43 57.36 42.21 57.36 43.36C57.36 44.51 57.99 45.23 58.91 45.23C59.91 45.23 60.53 44.41 60.53 43.31Z" fill="#002341"/>
<path fill-rule="evenodd" clip-rule="evenodd" d="M78.54 24L82.57 20.91L78.69 16H17V80H25V24H33V32H29V54H71V32H67V24H78.54ZM23 22V78H19V18H77.71L79.73 20.56L77.85 22H23ZM69 34V52H31V34H69ZM65 32H35V24H65V32Z" fill="#002341"/>
</svg>
