<svg width="96" height="96" viewBox="0 0 96 96" fill="none" xmlns="http://www.w3.org/2000/svg">
<path fill-rule="evenodd" clip-rule="evenodd" d="M18 52.3199H26V42.3199H18V52.3199ZM20 44.3199H24V50.3199H20V44.3199Z" fill="#002341"/>
<path d="M46 42.3199H38V52.3199H46V42.3199Z" fill="#002341"/>
<path d="M50 42.3199H58V52.3199H50V42.3199Z" fill="#002341"/>
<path fill-rule="evenodd" clip-rule="evenodd" d="M70 52.3199H78V42.3199H70V52.3199ZM72 44.3199H76V50.3199H72V44.3199Z" fill="#002341"/>
<path fill-rule="evenodd" clip-rule="evenodd" d="M88 37.89V76.32H94V78.32H63.14L52 78.34V78.32H2V76.32H8V38.58L16.15 30.32H32.3L48.65 22L63.69 30.32H77.71L88 37.89ZM18 60.32V76.32H26V60.32H18ZM28 58.32V76.32H32V32.32H16.99L10 39.4V76.32H16V58.32H28ZM34 31.7V76.33H41.88L42.01 58.33H54V76.33H62V31.68L48.61 24.27L34 31.7ZM43.99 60.32L43.88 76.32H52V60.32H43.99ZM70 60.32V76.32H78V60.32H70ZM80 58.32V76.32H86V38.9L77.05 32.32H64V76.32H68V58.32H80Z" fill="#002341"/>
</svg>
