<svg width="96" height="96" viewBox="0 0 96 96" fill="none" xmlns="http://www.w3.org/2000/svg">
<path fill-rule="evenodd" clip-rule="evenodd" d="M80 38H15.73C15.31 38 14.93 37.73 14.79 37.33C14.65 36.93 14.78 36.49 15.11 36.22L26 27.52V17C26 16.45 26.45 16 27 16H37C37.55 16 38 16.45 38 17V27.48L48 34.5V16H80V38ZM78 18H50V26H78V18ZM78 28H50V35.91L50.13 36H78V28ZM28 28C28 28.3 27.86 28.59 27.62 28.78L18.58 36H46.66L36.43 28.82C36.16 28.63 36 28.33 36 28V18H28V28Z" fill="#002341"/>
<path fill-rule="evenodd" clip-rule="evenodd" d="M22 76H44V64H22V76ZM24 66H42V74H24V66Z" fill="#002341"/>
<path d="M24 58C25.1046 58 26 57.1046 26 56C26 54.8954 25.1046 54 24 54C22.8954 54 22 54.8954 22 56C22 57.1046 22.8954 58 24 58Z" fill="#002341"/>
<path d="M32 56C32 57.1046 31.1046 58 30 58C28.8954 58 28 57.1046 28 56C28 54.8954 28.8954 54 30 54C31.1046 54 32 54.8954 32 56Z" fill="#002341"/>
<path d="M36 58C37.1046 58 38 57.1046 38 56C38 54.8954 37.1046 54 36 54C34.8954 54 34 54.8954 34 56C34 57.1046 34.8954 58 36 58Z" fill="#002341"/>
<path d="M58 66C58 67.1046 57.1046 68 56 68C54.8954 68 54 67.1046 54 66C54 64.8954 54.8954 64 56 64C57.1046 64 58 64.8954 58 66Z" fill="#002341"/>
<path fill-rule="evenodd" clip-rule="evenodd" d="M88 80H80V48H16V80H8V82H88V80ZM18 80V50H48V80H18ZM50 80V50H78V80H50Z" fill="#002341"/>
</svg>
