<svg width="96" height="96" viewBox="0 0 96 96" fill="none" xmlns="http://www.w3.org/2000/svg">
<path d="M52 27C52 24.7909 53.7909 23 56 23H74C76.2091 23 78 24.7909 78 27V76C78 77.1046 77.1046 78 76 78H54C52.8954 78 52 77.1046 52 76V27Z" fill="#8FC1FF"/>
<path d="M18 56C18 54.8954 18.8954 54 20 54H42C43.1046 54 44 54.8954 44 56V76C44 77.1046 43.1046 78 42 78H20C18.8954 78 18 77.1046 18 76V56Z" fill="#8FC1FF"/>
<path fill-rule="evenodd" clip-rule="evenodd" d="M50 27C50 23.6863 52.6863 21 56 21H74C77.3137 21 80 23.6863 80 27V76C80 78.2091 78.2091 80 76 80H54C51.7909 80 50 78.2091 50 76V27ZM56 25C54.8954 25 54 25.8954 54 27V76H76V27C76 25.8954 75.1046 25 74 25H56Z" fill="#0F1D2E"/>
<path fill-rule="evenodd" clip-rule="evenodd" d="M16 56C16 53.7909 17.7909 52 20 52H42C44.2091 52 46 53.7909 46 56V76C46 78.2091 44.2091 80 42 80H20C17.7909 80 16 78.2091 16 76V56ZM42 56L20 56V76H42V56Z" fill="#0F1D2E"/>
<path fill-rule="evenodd" clip-rule="evenodd" d="M16 23C16 21.8954 16.8954 21 18 21L44 21C45.1046 21 46 21.8954 46 23C46 24.1046 45.1046 25 44 25L18 25C16.8954 25 16 24.1046 16 23Z" fill="#0F1D2E"/>
<path fill-rule="evenodd" clip-rule="evenodd" d="M38.9985 18.0001C40.1031 17.9994 40.9991 18.8942 40.9998 19.9988L41.0094 34.9988C41.0101 36.1033 40.1153 36.9993 39.0107 37.0001C37.9061 37.0008 37.0101 36.1059 37.0094 35.0013L36.9998 20.0013C36.9991 18.8968 37.894 18.0008 38.9985 18.0001Z" fill="#0F1D2E"/>
<path fill-rule="evenodd" clip-rule="evenodd" d="M30.9985 18.0001C32.1031 17.9994 32.9991 18.8942 32.9998 19.9988L33.0069 30.9988C33.0076 32.1033 32.1127 32.9994 31.0081 33.0001C29.9036 33.0008 29.0076 32.1059 29.0069 31.0013L28.9998 20.0013C28.9991 18.8968 29.894 18.0008 30.9985 18.0001Z" fill="#0F1D2E"/>
<path d="M43 35.4001C43 37.6093 41.2091 39.4001 39 39.4001C36.7909 39.4001 35 37.6093 35 35.4001C35 33.191 36.7909 31.4001 39 31.4001C41.2091 31.4001 43 33.191 43 35.4001Z" fill="#0F1D2E"/>
<path fill-rule="evenodd" clip-rule="evenodd" d="M50 44C50 42.8954 50.8954 42 52 42L78 42C79.1046 42 80 42.8954 80 44C80 45.1046 79.1046 46 78 46L52 46C50.8954 46 50 45.1046 50 44Z" fill="#0F1D2E"/>
<path fill-rule="evenodd" clip-rule="evenodd" d="M58 48C59.1046 48 60 48.8954 60 50L60 60C60 61.1046 59.1046 62 58 62C56.8954 62 56 61.1046 56 60L56 50C56 48.8954 56.8954 48 58 48Z" fill="#0F1D2E"/>
<path fill-rule="evenodd" clip-rule="evenodd" d="M58 32C59.1046 32 60 32.8954 60 34L60 38C60 39.1046 59.1046 40 58 40C56.8954 40 56 39.1046 56 38L56 34C56 32.8954 56.8954 32 58 32Z" fill="#0F1D2E"/>
<path fill-rule="evenodd" clip-rule="evenodd" d="M29.2102 42.2183C29.0425 42.0632 28.8275 42 28.0002 42C27.2934 42 27.0634 42.1811 26.9451 42.3048C26.7548 42.5036 26.4929 42.9601 26.2997 43.9927C25.9709 45.7508 25.9809 48.2342 25.9947 51.6602C25.9977 52.3959 26.0008 53.1752 26.0008 54.0001H22.0008C22.0008 53.2601 21.9973 52.5358 21.9938 51.8305C21.977 48.4046 21.9624 45.4253 22.3679 43.2572C22.619 41.9148 23.0792 40.5588 24.0555 39.5389C25.1037 38.4438 26.4847 38 28.0002 38C28.028 38 28.0576 37.9999 28.0889 37.9998C28.8307 37.9972 30.5309 37.9912 31.9261 39.2816C33.362 40.6096 34.0008 42.8268 34.0008 46C34.0008 47.1045 33.1054 48 32.0008 48C30.8962 48 30.0008 47.1045 30.0008 46C30.0008 43.1731 29.3962 42.3902 29.2102 42.2183Z" fill="#0F1D2E"/>
</svg>
