<svg width="96" height="96" viewBox="0 0 96 96" fill="none" xmlns="http://www.w3.org/2000/svg">
<path d="M73.76 75.6C73.3 74.11 72.01 70.9 68.98 68.68L71.28 62.17L68.2 61.08L72.64 48.49L74.44 49.15L75.13 47.27L69.62 45.25L68.93 47.13L70.76 47.8L66.31 60.41L63.23 59.32L60.75 66.35C52.27 66.63 49.11 73.32 48.27 75.6H35.99V51.29C38 53.02 40.82 53.93 44.32 53.93C50.84 53.93 56.15 48.19 56.15 41.13C56.15 35.15 52.39 30.08 47.08 28.72C47.11 28.42 47.13 28.11 47.13 27.79C47.13 20.73 41.82 14.99 35.3 14.99C28.78 14.99 23.47 20.73 23.47 27.79C23.47 28.11 23.49 28.42 23.52 28.72C18.21 30.08 14.45 35.14 14.45 41.13C14.45 48.19 19.76 53.93 26.28 53.93C29.55 53.93 32.09 53.08 34 51.36V75.6H10V77.6H86V75.6H73.76ZM26.28 51.93C20.86 51.93 16.45 47.09 16.45 41.13C16.45 35.78 19.96 31.31 24.8 30.5L25.76 30.34L25.61 29.26C25.54 28.75 25.48 28.27 25.48 27.8C25.48 21.85 29.89 17 35.31 17C40.73 17 45.14 21.84 45.14 27.8C45.14 28.28 45.08 28.76 45.01 29.26L44.86 30.34L45.82 30.5C50.66 31.31 54.17 35.78 54.17 41.13C54.17 47.08 49.76 51.93 44.34 51.93C41.54 51.93 37.8 51.26 35.87 48.08L35.02 46.68L34.17 48.08C32.57 50.71 30.07 51.93 26.31 51.93H26.28ZM64.45 61.87L68.73 63.38L67.24 67.61C66 67 64.55 66.57 62.85 66.4L64.45 61.86V61.87ZM61.31 68.33C68.3 68.33 70.86 73.27 71.67 75.6H50.41C51.4 73.23 54.28 68.33 61.31 68.33Z" fill="#002341"/>
</svg>
