<svg width="96" height="96" viewBox="0 0 96 96" fill="none" xmlns="http://www.w3.org/2000/svg">
<path fill-rule="evenodd" clip-rule="evenodd" d="M84.06 67.51V21H13.34V67.51H8L11.06 73.65C11.55 74.62 12.62 75.25 13.79 75.25H83.83C85.05 75.25 86.14 74.58 86.6 73.55L89.32 67.51H84.06ZM15.34 23H82.06V67.51H79.48V25.73H17.92V67.52H15.34V23ZM77.48 67.51H19.92V27.73H77.48V67.51ZM84.79 72.73C84.65 73.04 84.26 73.25 83.84 73.25H13.8C13.38 73.25 13.01 73.05 12.86 72.75L11.24 69.51H86.24L84.79 72.73ZM52.03 70.38H45.42V72.38H52.03V70.38ZM48.47 34.68C55.64 34.68 61.47 40.51 61.47 47.68C61.47 54.85 55.64 60.68 48.47 60.68H35.47V47.68C35.47 40.51 41.3 34.68 48.47 34.68ZM48.47 36.68C42.4 36.68 37.47 41.61 37.47 47.68V58.68H48.47C54.54 58.68 59.47 53.75 59.47 47.68C59.47 41.61 54.54 36.68 48.47 36.68ZM54.33 44.2H42.61V46.2H54.33V44.2ZM42.61 49.15H54.33V51.15H42.61V49.15Z" fill="#002341"/>
</svg>
