<svg width="96" height="96" viewBox="0 0 96 96" fill="none" xmlns="http://www.w3.org/2000/svg">
<path d="M85.06 67.51V21H14.34V67.51H9L12.06 73.64C12.55 74.61 13.62 75.24 14.79 75.24H84.83C86.05 75.24 87.14 74.57 87.6 73.54L90.32 67.5H85.05L85.06 67.51ZM16.34 23H83.06V67.51H80.48V25.73H18.92V67.52H16.34V23ZM78.48 27.73V67.52H20.92V27.73H78.48ZM85.79 72.74C85.65 73.05 85.26 73.26 84.84 73.26H14.8C14.38 73.26 14.01 73.06 13.86 72.76L12.24 69.52H87.24L85.79 72.74Z" fill="#002341"/>
<path d="M53.03 70.38H46.42V72.38H53.03V70.38Z" fill="#002341"/>
<path d="M63.07 42.05L51.25 35.69C50.36 35.09 49.11 35.1 48.22 35.69L36.4 42.05V61.01H63.07V42.05ZM61.07 59.01H38.4V43.24L49.22 37.42L49.33 37.35C49.54 37.2 49.94 37.2 50.15 37.35L61.07 43.24V59.01Z" fill="#002341"/>
</svg>
