<svg width="96" height="96" viewBox="0 0 96 96" fill="none" xmlns="http://www.w3.org/2000/svg">
<path d="M47.9298 20.82C48.4798 20.82 48.9298 20.37 48.9298 19.82V13C48.9298 12.45 48.4798 12 47.9298 12C47.3798 12 46.9298 12.45 46.9298 13V19.82C46.9298 20.37 47.3798 20.82 47.9298 20.82Z" fill="#002341"/>
<path d="M67.6498 19.41C67.2898 18.99 66.6598 18.94 66.2398 19.29L61.0398 23.7C60.6198 24.06 60.5698 24.69 60.9198 25.11C61.1198 25.34 61.3998 25.46 61.6798 25.46C61.9098 25.46 62.1398 25.38 62.3298 25.22L67.5298 20.81C67.9498 20.45 67.9998 19.82 67.6498 19.4V19.41Z" fill="#002341"/>
<path d="M34.9598 25.07C34.7698 25.3 34.4798 25.42 34.1998 25.42L34.2098 25.43C33.9798 25.43 33.7498 25.35 33.5598 25.19L28.3598 20.78C27.9398 20.42 27.8798 19.79 28.2398 19.37C28.5998 18.95 29.2298 18.89 29.6498 19.25L34.8398 23.66C35.2598 24.02 35.3198 24.65 34.9598 25.07Z" fill="#002341"/>
<path fill-rule="evenodd" clip-rule="evenodd" d="M47.6298 24.13C38.5198 24.28 30.8898 31.8 30.5998 40.9C30.4598 45.35 32.0198 49.63 34.9798 52.95C38.2998 56.67 40.1198 61.34 40.1198 66.11V67.69H55.6998V66.11C55.6998 61.15 57.4098 56.6 60.5198 53.3C63.5598 50.08 65.2298 45.87 65.2298 41.45C65.2298 36.77 63.3898 32.39 60.0598 29.11C56.7298 25.83 52.2898 24.07 47.6298 24.14V24.13ZM59.0698 51.93C55.6998 55.5 53.8098 60.37 53.7098 65.69H42.1198C42.0198 60.58 40.0198 55.59 36.4698 51.62C33.8498 48.69 32.4798 44.9 32.5998 40.96C32.8498 32.91 39.5998 26.26 47.6598 26.13C51.8298 26.04 55.7098 27.63 58.6598 30.53C61.6098 33.43 63.2298 37.31 63.2298 41.45C63.2298 45.36 61.7498 49.09 59.0698 51.93Z" fill="#002341"/>
<path d="M40.3598 70.21H55.3198V72.21H40.3598V70.21Z" fill="#002341"/>
<path d="M55.3198 74.41H40.3598V76.41H55.3198V74.41Z" fill="#002341"/>
<path d="M42.6598 78.62H52.9798V80.62H42.6598V78.62Z" fill="#002341"/>
</svg>
