<svg width="96" height="96" viewBox="0 0 96 96" fill="none" xmlns="http://www.w3.org/2000/svg">
<path d="M70.2 42.65C66.89 42.65 64.2 45.34 64.2 48.65C64.2 51.96 66.89 54.65 70.2 54.65C73.51 54.65 76.2 51.96 76.2 48.65C76.2 45.34 73.51 42.65 70.2 42.65ZM70.2 52.65C67.9909 52.65 66.2 50.8591 66.2 48.65C66.2 46.4409 67.9909 44.65 70.2 44.65C72.4091 44.65 74.2 46.4409 74.2 48.65C74.2 50.8591 72.4091 52.65 70.2 52.65Z" fill="#002341"/>
<path d="M41 43.05H49V33.05H41V43.05ZM43 35.05H47V41.05H43V35.05Z" fill="#002341"/>
<path d="M25 57.05H33V47.05H25V57.05ZM27 49.05H31V55.05H27V49.05Z" fill="#002341"/>
<path d="M70.2 31.27C69.84 31.27 69.48 31.3 69.12 31.32L47.53 19.75C46.07 18.75 43.92 18.75 42.46 19.75L19 32.32V67.05H9V69.05H64.89L70.2 76.97L75.53 69.05H81V67.05H76.88L82.06 59.36C82.32 58.94 82.58 58.53 82.84 58.12C84.86 54.93 86.77 51.92 86.77 47.82C86.77 38.69 79.34 31.26 70.21 31.26L70.2 31.27ZM49 67.06H41V53.06H49V67.06ZM51 67.06V51.06H39V67.06H21V33.52L43.46 21.48L43.57 21.41C44.36 20.85 45.64 20.85 46.43 21.41L65.89 31.85C58.84 33.75 53.64 40.18 53.64 47.82C53.64 51.92 55.57 54.93 57.61 58.12C57.9 58.57 58.18 59.02 58.49 59.5L63.55 67.04H51V67.06ZM81.14 57.06C80.88 57.47 80.62 57.89 80.37 58.28L70.2 73.4L60.17 58.43C59.88 57.97 59.59 57.51 59.3 57.06C57.34 53.99 55.64 51.35 55.64 47.84C55.64 39.81 62.17 33.28 70.2 33.28C78.23 33.28 84.76 39.81 84.76 47.84C84.76 51.35 83.08 54 81.14 57.07V57.06Z" fill="#002341"/>
</svg>
