<svg width="96" height="96" viewBox="0 0 96 96" fill="none" xmlns="http://www.w3.org/2000/svg">
<path fill-rule="evenodd" clip-rule="evenodd" d="M47.9998 26.27C52.4098 26.27 55.9998 29.86 55.9998 34.27C55.9998 38.68 52.4098 42.27 47.9998 42.27C43.5898 42.27 39.9998 38.68 39.9998 34.27C39.9998 29.86 43.5898 26.27 47.9998 26.27ZM47.9998 28.27C44.6898 28.27 41.9998 30.96 41.9998 34.27C41.9998 37.58 44.6898 40.27 47.9998 40.27C51.3098 40.27 53.9998 37.58 53.9998 34.27C53.9998 30.96 51.3098 28.27 47.9998 28.27Z" fill="#002341"/>
<path fill-rule="evenodd" clip-rule="evenodd" d="M64.2898 51.35L57.5598 61.15L57.5698 61.16C66.3898 62.86 72.0098 66.75 72.0098 71.27C72.0098 77.44 61.4698 82.27 48.0098 82.27C34.5498 82.27 24.0098 77.44 24.0098 71.27C24.0098 66.83 29.5098 62.96 38.1398 61.22L31.5898 51.24C31.1698 50.56 30.7698 49.92 30.3698 49.28L30.3543 49.2553C27.54 44.7644 24.8799 40.5196 24.9398 34.84C24.9998 28.67 27.4498 22.91 31.8498 18.59C36.2598 14.28 42.0698 11.96 48.2298 12C54.3898 12.06 60.1598 14.52 64.4698 18.91C68.7798 23.31 71.1198 29.13 71.0598 35.29C71.0098 40.97 68.2898 45.17 65.4098 49.61C65.1723 49.9758 64.9348 50.3458 64.6947 50.7199C64.5607 50.9286 64.4259 51.1387 64.2898 51.35ZM32.0598 48.21V48.22C32.1346 48.3397 32.2097 48.4597 32.2851 48.5801C32.6128 49.1035 32.9446 49.6334 33.2698 50.17L47.6298 72.06L62.6198 50.26C62.8269 49.9321 63.0406 49.6008 63.2553 49.2682C63.4137 49.0226 63.5726 48.7763 63.7298 48.53L63.7352 48.5216C66.5629 44.1552 69.0098 40.3768 69.0598 35.28C69.1198 29.65 66.9798 24.34 63.0398 20.32C59.0998 16.3 53.8398 14.06 48.2098 14H47.9998C42.4498 14 37.2298 16.13 33.2598 20.02C29.2398 23.96 26.9998 29.22 26.9398 34.85C26.8898 39.9497 29.4 43.9603 32.0598 48.21ZM25.9998 71.26C25.9998 75.61 34.8398 80.26 47.9998 80.26H47.9898C61.1498 80.26 69.9898 75.61 69.9898 71.26C69.9898 67.73 64.3998 64.35 56.3098 62.95L47.5898 75.64L39.3098 63.02C31.4398 64.45 25.9998 67.8 25.9998 71.26Z" fill="#002341"/>
</svg>
