<svg width="96" height="96" viewBox="0 0 96 96" fill="none" xmlns="http://www.w3.org/2000/svg">
<path d="M77.69 72.41C77.49 71.38 76.91 70.41 76.03 69.66L59.68 56.08C61.15 53.38 61.99 50.29 61.99 47C62 36.52 53.48 28 43 28C32.52 28 24 36.52 24 47C24 57.48 32.52 66 43 66C47.54 66 51.71 64.4 54.98 61.73C55.01 61.76 55.02 61.79 55.05 61.82L71.21 75.33C72.14 76.12 73.26 76.52 74.31 76.52C75.36 76.52 76.31 76.13 76.97 75.36C77.63 74.58 77.89 73.51 77.68 72.41H77.69ZM26 47C26 37.63 33.63 30 43 30C52.37 30 60 37.63 60 47C60 56.37 52.37 64 43 64C33.63 64 26 56.37 26 47ZM75.45 74.06C74.84 74.77 73.5 74.65 72.5 73.8L56.46 60.39C57.25 59.59 57.97 58.72 58.61 57.79L74.73 71.19C75.24 71.63 75.6 72.21 75.71 72.79C75.77 73.08 75.81 73.63 75.44 74.06H75.45Z" fill="#002341"/>
</svg>
