<svg width="96" height="96" viewBox="0 0 96 96" fill="none" xmlns="http://www.w3.org/2000/svg">
<path fill-rule="evenodd" clip-rule="evenodd" d="M40.7602 23.04H34.2702V29.53H40.7602V23.04ZM38.7602 27.53H36.2702V25.04H38.7602V27.53Z" fill="#002341"/>
<path d="M44.0002 23.04H60.0802V25.04H44.0002V23.04Z" fill="#002341"/>
<path d="M44.0002 31.24H60.0802V33.24H44.0002V31.24Z" fill="#002341"/>
<path d="M52.2502 47.63H34.6102V49.63H52.2502V47.63Z" fill="#002341"/>
<path d="M34.6102 39.43H60.5302V41.43H34.6102V39.43Z" fill="#002341"/>
<path fill-rule="evenodd" clip-rule="evenodd" d="M75.1002 42.12C75.1202 42.16 75.1202 42.24 75.1202 42.24L75.1102 42.23C75.1102 42.26 75.1202 42.33 75.1202 42.33V77.85C75.1202 79.73 73.5302 81.25 71.5702 81.25H23.5402C21.5802 81.25 19.9902 79.72 19.9902 77.85V42.33C19.9902 42.315 19.9927 42.2975 19.9952 42.28C19.9977 42.2625 20.0002 42.245 20.0002 42.23C20.002 42.2231 20.0037 42.2166 20.0053 42.2102C20.0134 42.1794 20.0202 42.1531 20.0202 42.12C20.0224 42.1123 20.0246 42.1045 20.0268 42.0966C20.0449 42.0326 20.0646 41.9623 20.1002 41.9C20.1121 41.8802 20.1225 41.8603 20.1325 41.8411C20.1477 41.8119 20.1621 41.7841 20.1802 41.76C20.2302 41.69 20.2802 41.63 20.3502 41.57C20.3702 41.56 20.4002 41.52 20.4002 41.52L26.5202 37V6H68.6202V36.95L74.7402 41.53C74.7532 41.5365 74.7619 41.5471 74.7719 41.5592C74.7773 41.5658 74.7831 41.5729 74.7902 41.58C74.7992 41.589 74.8082 41.6 74.8181 41.6121C74.8302 41.627 74.8437 41.6435 74.8602 41.66C74.9302 41.74 74.9902 41.82 75.0302 41.92C75.0602 41.98 75.0802 42.05 75.1002 42.12ZM72.5902 42.38L68.6102 39.4V45.99L72.5902 42.38ZM66.6102 8H28.5102V47.42L43.6502 60.29H52.8202L66.6102 47.8V8ZM52.8202 62.32H43.6702L26.0402 79.25H69.2302L52.8202 62.32ZM26.5202 45.72V39.46L22.5802 42.37L26.5202 45.72ZM22.0002 44.5V77.85C22.0002 78.51 22.5102 79.06 23.1902 79.21L41.8002 61.34L26.5302 48.35H26.5202L22.0002 44.5ZM71.9602 79.2C72.6402 79.05 73.1402 78.5 73.1402 77.85H73.1302V44.59L54.6502 61.34L71.9602 79.2Z" fill="#002341"/>
</svg>
