<svg width="96" height="96" viewBox="0 0 96 96" fill="none" xmlns="http://www.w3.org/2000/svg">
<path d="M34.9702 19.43H59.7802V21.43H34.9702V19.43Z" fill="#002341"/>
<path fill-rule="evenodd" clip-rule="evenodd" d="M44.9802 41.4C44.8302 41.4 44.6702 41.37 44.5202 41.29H44.5302C44.2002 41.11 43.9902 40.77 43.9902 40.4V31.39C43.9902 31.02 44.1902 30.68 44.5202 30.51C44.8502 30.34 45.2402 30.36 45.5502 30.57L52.0902 35.07C52.3602 35.25 52.5202 35.57 52.5202 35.89C52.5202 36.21 52.3602 36.52 52.0902 36.71L45.5502 41.22C45.3802 41.34 45.1802 41.4 44.9802 41.4ZM49.7602 35.9L45.9802 33.3V38.51L49.7602 35.9Z" fill="#002341"/>
<path fill-rule="evenodd" clip-rule="evenodd" d="M57.3502 44.57H37.3902C35.5102 44.57 33.9702 43.04 33.9702 41.15V30.65C33.9702 28.77 35.5002 27.23 37.3902 27.23H57.3502C59.2302 27.23 60.7702 28.76 60.7702 30.65V41.15C60.7702 43.03 59.2402 44.57 57.3502 44.57ZM37.3902 29.23C36.6102 29.23 35.9702 29.87 35.9702 30.65V41.15C35.9702 41.93 36.6102 42.57 37.3902 42.57H57.3502C58.1302 42.57 58.7702 41.93 58.7702 41.15V30.65C58.7702 29.87 58.1302 29.23 57.3502 29.23H37.3902Z" fill="#002341"/>
<path fill-rule="evenodd" clip-rule="evenodd" d="M75.1202 37.6C75.1202 37.6 75.1202 37.53 75.1002 37.49C75.0802 37.4 75.0502 37.31 75.0002 37.22C75.0002 37.2 74.9902 37.18 74.9802 37.17C74.9202 37.07 74.8402 36.99 74.7402 36.91C74.7402 36.91 74.7302 36.89 74.7202 36.88L68.7202 32.6C68.7202 32.6 68.6502 32.57 68.6202 32.55V11H26.5202V32.54L20.4202 36.89L20.3902 36.92C20.3002 36.99 20.2102 37.08 20.1502 37.18C20.1502 37.19 20.1402 37.21 20.1302 37.22C20.0802 37.31 20.0502 37.4 20.0302 37.5C20.0302 37.53 20.0202 37.57 20.0102 37.6C20.0102 37.62 20.0052 37.6375 20.0002 37.655C19.9952 37.6725 19.9902 37.69 19.9902 37.71V73.23C19.9902 75.1 21.5802 76.63 23.5402 76.63H71.5702C73.5302 76.63 75.1202 75.11 75.1202 73.23V37.71C75.1202 37.71 75.1102 37.64 75.1002 37.61L75.1202 37.6ZM72.5402 37.8L68.6102 41.36V35L72.5402 37.8ZM66.6102 13V43.17L52.8202 55.66H43.6502L28.5102 42.79V13H66.6102ZM43.7002 57.66H52.7902L69.2202 74.62H26.0402L43.7002 57.66ZM26.5202 41.09L22.6202 37.78L26.5202 35V41.09ZM22.0002 73.22V39.87L41.8002 56.71L23.1902 74.58C22.5102 74.43 22.0002 73.88 22.0002 73.22ZM73.1402 73.22C73.1402 73.87 72.6402 74.42 71.9602 74.57L54.6502 56.71L73.1302 39.96V73.22H73.1402Z" fill="#002341"/>
</svg>
