<svg width="96" height="96" viewBox="0 0 96 96" fill="none" xmlns="http://www.w3.org/2000/svg">
<path fill-rule="evenodd" clip-rule="evenodd" d="M78.2 28V60H86V62H10V60H17.4V50H25.4V60H30.6V28H38.6V60H43.8V36H51.8V60H57V20H65V60H70.2V28H78.2ZM19.4 52V60H23.4V52H19.4ZM32.6 30V60H36.6V30H32.6ZM45.8 38V60H49.8V38H45.8ZM59 22V60H63V22H59ZM72.2 30V60H76.2V30H72.2Z" fill="#002341"/>
<path fill-rule="evenodd" clip-rule="evenodd" d="M25.4 77.6H17.4V69.6H25.4V77.6ZM23.4 71.6H19.4V75.6H23.4V71.6Z" fill="#002341"/>
<path fill-rule="evenodd" clip-rule="evenodd" d="M30.6 77.6H38.6V64.06H30.6V77.6ZM32.6 66.06H36.6V75.6H32.6V66.06Z" fill="#002341"/>
<path fill-rule="evenodd" clip-rule="evenodd" d="M51.8 77.6H43.8V69.6H51.8V77.6ZM49.8 71.6H45.8V75.6H49.8V71.6Z" fill="#002341"/>
<path fill-rule="evenodd" clip-rule="evenodd" d="M57 77.6H65V67.6H57V77.6ZM59 69.6H63V75.6H59V69.6Z" fill="#002341"/>
<path fill-rule="evenodd" clip-rule="evenodd" d="M78.2 77.6H70.2V69.6H78.2V77.6ZM76.2 71.6H72.2V75.6H76.2V71.6Z" fill="#002341"/>
</svg>
