<svg width="96" height="96" viewBox="0 0 96 96" fill="none" xmlns="http://www.w3.org/2000/svg">
<path fill-rule="evenodd" clip-rule="evenodd" d="M15 38.37L65.73 24.04L65.72 24.03C66.03 23.95 66.35 24.01 66.6 24.2C66.85 24.39 67 24.69 67 25V71.82C67 72.14 66.85 72.43 66.6 72.62C66.43 72.75 66.22 72.82 66 72.82C65.91 72.82 65.82 72.81 65.73 72.78L15 58.45V62.41H13V34.41H15V38.37ZM15 56.38L65 70.51V26.32L15 40.45V56.38Z" fill="#002341"/>
<path d="M76 48.42H86C86.55 48.42 87 48.87 87 49.42C87 49.97 86.55 50.42 86 50.42H76C75.45 50.42 75 49.97 75 49.42C75 48.87 75.45 48.42 76 48.42Z" fill="#002341"/>
<path d="M75.24 36.51C75.37 36.51 75.51 36.48 75.64 36.43L83.89 32.82C84.4 32.6 84.63 32.01 84.41 31.5C84.19 30.99 83.6 30.76 83.09 30.98L74.84 34.59C74.33 34.81 74.1 35.4 74.32 35.91C74.48 36.29 74.85 36.51 75.24 36.51Z" fill="#002341"/>
<path d="M75.63 60.48L83.88 64.09C84.4 64.31 84.62 64.9 84.4 65.41C84.23 65.79 83.87 66.01 83.48 66.01C83.35 66.01 83.21 65.99 83.08 65.93L74.83 62.32C74.31 62.1 74.09 61.51 74.31 61C74.53 60.48 75.12 60.26 75.63 60.48Z" fill="#002341"/>
</svg>
