<svg width="96" height="96" viewBox="0 0 96 96" fill="none" xmlns="http://www.w3.org/2000/svg">
<path d="M47.4098 23C47.9598 23 48.4098 22.55 48.4098 22V12C48.4098 11.45 47.9598 11 47.4098 11C46.8598 11 46.4098 11.45 46.4098 12V22C46.4098 22.55 46.8598 23 47.4098 23Z" fill="#002341"/>
<path d="M39.1998 24.76C38.8198 24.76 38.4598 24.55 38.2898 24.18L34.3898 15.72C34.1598 15.21 34.3798 14.62 34.8798 14.39C35.3798 14.16 35.9798 14.38 36.2098 14.88L40.1098 23.34C40.3398 23.85 40.1198 24.44 39.6198 24.67C39.4798 24.73 39.3398 24.76 39.1998 24.76Z" fill="#002341"/>
<path fill-rule="evenodd" clip-rule="evenodd" d="M47.4098 25.46C41.3398 25.46 36.4098 30.39 36.4098 36.46V53.6C36.4098 59.67 41.3398 64.6 47.4098 64.6C53.4798 64.6 58.4098 59.67 58.4098 53.6V36.46C58.4098 30.39 53.4798 25.46 47.4098 25.46ZM56.4098 53.6C56.4098 58.56 52.3698 62.6 47.4098 62.6C42.4498 62.6 38.4098 58.56 38.4098 53.6V36.46C38.4098 31.5 42.4498 27.46 47.4098 27.46C52.3698 27.46 56.4098 31.5 56.4098 36.46V53.6Z" fill="#002341"/>
<path d="M65.2298 54.65C65.2298 54.1 64.7798 53.65 64.2298 53.65C63.6798 53.65 63.2298 54.1 63.2298 54.65C63.2298 63.26 56.2298 70.26 47.6198 70.26C39.0098 70.26 32.0098 63.26 32.0098 54.65C32.0098 54.1 31.5598 53.65 31.0098 53.65C30.4598 53.65 30.0098 54.1 30.0098 54.65C30.0098 63.96 37.2698 71.58 46.4198 72.2V81H36.4098V83H58.4098V81H48.4098V72.22C57.7498 71.8 65.2198 64.09 65.2198 54.65H65.2298Z" fill="#002341"/>
<path d="M56.0298 24.76C55.8898 24.76 55.7398 24.73 55.6098 24.67C55.1098 24.44 54.8898 23.84 55.1198 23.34L59.0198 14.88C59.2498 14.38 59.8498 14.16 60.3498 14.39C60.8498 14.62 61.0698 15.22 60.8398 15.72L56.9398 24.18C56.7698 24.54 56.4098 24.76 56.0298 24.76Z" fill="#002341"/>
</svg>
