<svg width="96" height="96" viewBox="0 0 96 96" fill="none" xmlns="http://www.w3.org/2000/svg">
<path d="M36.16 24.77L32.58 29.52L30.89 28.11C30.46 27.76 29.83 27.82 29.48 28.24C29.13 28.66 29.19 29.3 29.61 29.65L32.11 31.73C32.29 31.88 32.52 31.96 32.75 31.96H32.87C33.14 31.93 33.39 31.79 33.55 31.57L37.76 25.99C38.09 25.55 38 24.92 37.56 24.59C37.12 24.26 36.49 24.35 36.16 24.79V24.77Z" fill="#002341"/>
<path d="M36.15 37.45L32.57 42.2L30.88 40.79C30.45 40.44 29.82 40.5 29.47 40.92C29.12 41.34 29.18 41.98 29.6 42.33L32.1 44.41C32.28 44.56 32.51 44.64 32.74 44.64H32.86C33.13 44.61 33.38 44.47 33.54 44.25L37.75 38.67C38.08 38.23 37.99 37.6 37.55 37.27C37.11 36.94 36.48 37.03 36.15 37.47V37.45Z" fill="#002341"/>
<path fill-rule="evenodd" clip-rule="evenodd" d="M64.96 48.97C65.65 48.48 66.48 48.2 67.37 48.2V48.22C69.77 48.22 71.73 50.29 71.73 52.84V70.74C71.73 74.48 69.75 77.98 66.56 79.87C63.58 81.64 60.54 82.25 57.78 82.25C55.41 82.25 53.24 81.81 51.47 81.26C51 81.11 50.56 80.94 50.12 80.74L49.76 80.56C49.44 80.4 49.12 80.23 48.82 80.05C48.7 79.98 48.58 79.91 48.46 79.83C48.14 79.62 47.84 79.4 47.54 79.16C47.5 79.125 47.46 79.095 47.42 79.065C47.38 79.035 47.34 79.005 47.3 78.97C46.94 78.66 46.59 78.34 46.27 78C46.22 77.945 46.175 77.89 46.13 77.835C46.085 77.78 46.04 77.725 45.99 77.67C45.79 77.44 45.59 77.2 45.4 76.95C45.2907 76.8115 45.192 76.6678 45.0923 76.5226C45.0552 76.4685 45.018 76.4143 44.98 76.36C44.87 76.19 44.76 76.02 44.66 75.85C44.51 75.6 44.36 75.35 44.23 75.09C44.21 75.06 44.18 75.01 44.18 75.01H29.24C26.35 75.01 24 72.66 24 69.77V14.24C24 11.35 26.35 9 29.24 9H52.78C55.67 9 58.02 11.35 58.02 14.24V46.1C58.078 46.0484 58.1402 46.0093 58.2038 45.9693C58.2389 45.9472 58.2745 45.9249 58.31 45.9C58.34 45.88 58.37 45.8589 58.4 45.8378C58.46 45.7956 58.52 45.7533 58.58 45.72C58.6651 45.6704 58.7552 45.6308 58.8468 45.5905C58.8844 45.5741 58.9222 45.5574 58.96 45.54C58.9985 45.5229 59.0351 45.504 59.0722 45.4848C59.122 45.4591 59.1727 45.4329 59.23 45.41C59.3384 45.3666 59.4521 45.3389 59.5634 45.3118C59.6061 45.3014 59.6484 45.2911 59.69 45.28C59.73 45.27 59.77 45.2575 59.81 45.245C59.85 45.2325 59.89 45.22 59.93 45.21C60.17 45.16 60.42 45.14 60.67 45.14C60.94 45.14 61.2 45.17 61.46 45.22C61.5528 45.2343 61.6405 45.2639 61.7304 45.2942C61.7664 45.3063 61.8028 45.3186 61.84 45.33C61.87 45.3375 61.9 45.3444 61.93 45.3512C62.02 45.3719 62.11 45.3925 62.2 45.43C62.35 45.49 62.49 45.57 62.63 45.65C62.67 45.675 62.7125 45.695 62.755 45.715C62.7975 45.735 62.84 45.755 62.88 45.78C62.983 45.8462 63.0807 45.9233 63.1768 45.9993C63.2114 46.0265 63.2457 46.0536 63.28 46.08C63.315 46.11 63.35 46.135 63.385 46.16C63.42 46.185 63.455 46.21 63.49 46.24C63.5658 46.3082 63.6359 46.388 63.7046 46.4662C63.7265 46.4911 63.7482 46.5158 63.77 46.54C63.8019 46.5759 63.8354 46.6102 63.8686 46.6442C63.9186 46.6954 63.9679 46.7459 64.01 46.8C64.035 46.835 64.0575 46.87 64.08 46.905C64.1025 46.94 64.125 46.975 64.15 47.01C64.1723 47.0435 64.1947 47.0765 64.2169 47.1094C64.2942 47.2235 64.3701 47.3357 64.44 47.46C64.45 47.48 64.46 47.51 64.47 47.53C64.7 47.97 64.88 48.46 64.96 48.97ZM51.57 44.12C52.25 43.65 53.06 43.38 53.93 43.38C54.68 43.38 55.38 43.59 56 43.95V20.4H26V64.39H39.15C37.47 62.28 34.99 59.75 31.25 56.97C30.61 56.49 30.25 55.69 30.29 54.83C30.33 53.93 30.81 53.09 31.54 52.65C33 51.77 36.24 52.04 38.55 52.74C40.55 53.34 41.92 54.12 42.85 54.87V37.76C42.85 35.21 44.81 33.14 47.21 33.14C49.61 33.14 51.57 35.21 51.57 37.76V44.12ZM52.77 11H29.24C27.45 11 26 12.46 26 14.24V18.4H56.01V14.24C56.01 12.45 54.55 11 52.77 11ZM26 69.76C26 71.55 27.45 73 29.24 73H43.39C43.365 72.91 43.335 72.82 43.305 72.73C43.275 72.64 43.245 72.55 43.22 72.46C42.98 71.49 42.67 70.28 42.44 69.77C42.11 69.05 41.57 67.89 40.6 66.4H26V69.76ZM65.54 78.13C68.12 76.59 69.73 73.75 69.73 70.72H69.69V52.82C69.69 51.37 68.63 50.2 67.33 50.2C67.18 50.2 67.03 50.22 66.88 50.25L66.7 50.31C66.62 50.33 66.54 50.36 66.46 50.39C66.43 50.405 66.4 50.4225 66.37 50.44C66.34 50.4575 66.31 50.475 66.28 50.49C66.2567 50.5033 66.2333 50.5156 66.21 50.5278C66.1633 50.5522 66.1167 50.5767 66.07 50.61C66.045 50.63 66.0225 50.65 66 50.67C65.9775 50.69 65.955 50.71 65.93 50.73C65.9117 50.7457 65.8933 50.7607 65.8752 50.7756C65.824 50.8176 65.7743 50.8583 65.73 50.91C65.715 50.93 65.7 50.9475 65.685 50.965C65.67 50.9825 65.655 51 65.64 51.02C65.56 51.11 65.49 51.19 65.43 51.29C65.42 51.31 65.4 51.34 65.39 51.36C65.32 51.48 65.25 51.6 65.2 51.73V51.75C65.08 52.05 65 52.37 64.98 52.72V59.49C64.98 60.04 64.53 60.49 63.98 60.49C63.43 60.49 62.98 60.04 62.98 59.49V52.83C62.98 52.77 62.9825 52.7125 62.985 52.655C62.9875 52.5975 62.99 52.54 62.99 52.48V49.78C62.99 48.33 61.93 47.16 60.63 47.16C59.33 47.16 58.27 48.34 58.27 49.78V56.51C58.27 57.06 57.82 57.51 57.27 57.51C56.72 57.51 56.27 57.06 56.27 56.51V48.02C56.27 47.65 56.2 47.29 56.06 46.95C55.69 46.04 54.87 45.4 53.91 45.4C52.61 45.4 51.55 46.58 51.55 48.02V54.55C51.55 55.1 51.1 55.55 50.55 55.55C50 55.55 49.55 55.1 49.55 54.55V37.78C49.55 36.33 48.49 35.16 47.19 35.16C45.89 35.16 44.83 36.34 44.83 37.78V57.78C44.83 58.28 44.45 58.71 43.95 58.77C43.45 58.82 42.98 58.5 42.86 58.01C42.86 58.01 42.19 55.95 37.95 54.66C36.68 54.28 35.31 54.1 34.25 54.1C33.47 54.1 32.85 54.19 32.56 54.37C32.4 54.47 32.28 54.7 32.27 54.94C32.27 55.01 32.27 55.26 32.43 55.38C40.9066 61.6752 43.2913 66.869 44.1993 68.8467L44.21 68.87C44.53 69.57 44.8 70.6 45.15 71.98C45.3 72.56 45.5 73.11 45.74 73.64C46.12 74.51 46.62 75.31 47.21 76.03C47.257 76.0848 47.3024 76.1412 47.3482 76.1979C47.4192 76.2859 47.4909 76.3748 47.57 76.46C47.6433 76.54 47.7255 76.62 47.8077 76.7C47.8489 76.74 47.89 76.78 47.93 76.82C48.11 77 48.28 77.17 48.47 77.33C48.4868 77.3437 48.5037 77.3577 48.5209 77.3718C48.6166 77.4502 48.7183 77.5337 48.82 77.61C49.03 77.77 49.25 77.93 49.47 78.08C49.53 78.115 49.5875 78.1525 49.645 78.19C49.7025 78.2275 49.76 78.265 49.82 78.3C50.07 78.45 50.33 78.59 50.59 78.72C50.6294 78.7397 50.6687 78.7609 50.7087 78.7825C50.7703 78.8157 50.8333 78.8497 50.9 78.88C51.27 79.05 51.66 79.2 52.05 79.32C52.91 79.58 53.88 79.82 54.92 79.99C55.7 80.12 56.53 80.2 57.38 80.22C59.37 80.26 61.53 79.97 63.69 79.06C64.31 78.8 64.93 78.49 65.54 78.13Z" fill="#002341"/>
</svg>
