<svg width="96" height="96" viewBox="0 0 96 96" fill="none" xmlns="http://www.w3.org/2000/svg">
<path d="M48 51.95L57.01 42.94L58.42 44.35L49.41 53.36L58.42 62.37L57.01 63.78L48 54.77L38.99 63.78L37.58 62.37L46.59 53.36L37.58 44.35L38.99 42.94L48 51.95Z" fill="#002341"/>
<path fill-rule="evenodd" clip-rule="evenodd" d="M74 37.32V71.99H86V73.99H10V71.99H22V37.32L45.46 24.75C46.92 23.75 49.07 23.75 50.53 24.75L74 37.32ZM24 38.52V71.99H72V38.51L49.43 26.41C48.64 25.85 47.36 25.85 46.57 26.41L46.46 26.48L24 38.52Z" fill="#002341"/>
</svg>
