<svg width="96" height="96" viewBox="0 0 96 96" fill="none" xmlns="http://www.w3.org/2000/svg">
<path d="M74 71V36.32L50.53 23.75C49.07 22.75 46.92 22.75 45.46 23.75L22 36.32V70.99H10V72.99H86V70.99H74V71ZM24 71V37.52L46.46 25.48L46.57 25.41C47.36 24.85 48.64 24.85 49.43 25.41L72 37.51V70.99H24V71Z" fill="#002341"/>
<path d="M56.6 45.5C56.6 49.78 53.79 53.2 48.61 53.2H48.18V56.33H44.87V50.54H47.25C51.32 50.54 53.19 48.67 53.19 45.75C53.19 42.83 51.46 40.89 47.9 40.89C44.66 40.89 42.61 42.33 41.64 43.23V39.81C43.55 38.48 45.71 37.79 48.23 37.79C53.59 37.79 56.62 41.03 56.62 45.49L56.6 45.5ZM49.04 61.59C49.04 62.99 48.03 64.07 46.63 64.07C45.23 64.07 44.15 62.95 44.15 61.59C44.15 60.23 45.19 59.14 46.63 59.14C48.07 59.14 49.04 60.22 49.04 61.59Z" fill="#002341"/>
</svg>
