<svg width="96" height="96" viewBox="0 0 96 96" fill="none" xmlns="http://www.w3.org/2000/svg">
<path d="M52.73 42.07H31.15C31.21 40.04 31.65 35.25 34.26 32.54C35.53 31.22 37.12 30.58 39.12 30.58C46.45 30.58 46.57 38.65 46.57 38.99H48.57C48.57 35.39 46.59 28.58 39.12 28.58C36.58 28.58 34.46 29.45 32.81 31.16C29.68 34.42 29.2 39.81 29.14 42.07H24.98C22.78 42.07 21 43.86 21 46.05V70.52C21 72.72 22.79 74.5 24.98 74.5H52.73C54.93 74.5 56.71 72.71 56.71 70.52V46.05C56.71 43.85 54.92 42.07 52.73 42.07ZM54.71 70.53C54.71 71.62 53.82 72.51 52.73 72.51H24.98C23.89 72.51 23 71.62 23 70.53V46.06C23 44.97 23.89 44.08 24.98 44.08H52.73C53.82 44.08 54.71 44.97 54.71 46.06V70.53Z" fill="#002341"/>
<path d="M39.85 53.35H37.85V63.23H39.85V53.35Z" fill="#002341"/>
<path d="M71.42 30.77C71.16 30.28 70.55 30.1 70.07 30.36L58.12 36.78C57.63 37.04 57.45 37.65 57.71 38.13C57.89 38.47 58.24 38.66 58.59 38.66C58.75 38.66 58.91 38.62 59.06 38.54L71.01 32.12C71.5 31.86 71.68 31.25 71.42 30.77Z" fill="#002341"/>
<path d="M53.53 34.61C53.69 34.7 53.86 34.74 54.03 34.74C54.38 34.74 54.71 34.56 54.9 34.24L61.68 22.49C61.96 22.01 61.79 21.4 61.31 21.12C60.83 20.84 60.22 21.01 59.94 21.49L53.16 33.24C52.88 33.72 53.05 34.33 53.53 34.61Z" fill="#002341"/>
<path d="M73.72 42.71H60.16C59.61 42.71 59.16 43.16 59.16 43.71C59.16 44.26 59.61 44.71 60.16 44.71H73.72C74.27 44.71 74.72 44.26 74.72 43.71C74.72 43.16 74.27 42.71 73.72 42.71Z" fill="#002341"/>
</svg>
