<svg width="96" height="96" viewBox="0 0 96 96" fill="none" xmlns="http://www.w3.org/2000/svg">
<path fill-rule="evenodd" clip-rule="evenodd" d="M70.17 26C70.17 27.18 69.72 28.16 68.89 28.82H68.9C67.52 29.92 65.37 29.89 64.01 29.73V35C64.01 35.55 63.56 36 63.01 36C62.46 36 62.01 35.55 62.01 35V22.87C62.01 22.37 62.38 21.95 62.87 21.88C63.28 21.82 66.92 21.38 68.92 23.12C69.74 23.84 70.17 24.82 70.17 26ZM67.6 24.63C66.75 23.9 65.11 23.77 64 23.8H64.01V27.71C65.11 27.85 66.83 27.91 67.66 27.25C67.88 27.08 68.17 26.75 68.17 26C68.17 25.4 67.99 24.97 67.6 24.63Z" fill="#002341"/>
<path d="M27 68C27.5523 68 28 67.5523 28 67C28 66.4477 27.5523 66 27 66C26.4477 66 26 66.4477 26 67C26 67.5523 26.4477 68 27 68Z" fill="#002341"/>
<path d="M33 68H47C47.55 68 48 67.55 48 67C48 66.45 47.55 66 47 66H33C32.45 66 32 66.45 32 67C32 67.55 32.45 68 33 68Z" fill="#002341"/>
<path d="M52 67C52 67.5523 51.5523 68 51 68C50.4477 68 50 67.5523 50 67C50 66.4477 50.4477 66 51 66C51.5523 66 52 66.4477 52 67Z" fill="#002341"/>
<path fill-rule="evenodd" clip-rule="evenodd" d="M66 75.99V40H77C77.55 40 78 39.55 78 39V19C78 18.45 77.55 18 77 18H55C54.45 18 54 18.45 54 19V39C54 39.55 54.45 40 55 40H64V76H57.78C57.91 75.65 58 75.28 58 74.88V61.36C58 61.19 57.94 61.02 57.86 60.88C58.35 60.7 58.82 60.43 59.11 60.03C60.01 58.75 58.79 56.5 58.41 55.97C57.95 55.32 56.89 55.13 55.26 55.42C53.97 52.39 52.48 49.43 51.4 48.79C49.42 47.63 31.48 47.59 28.82 48.73C27.43 49.33 25.85 52.34 24.56 55.41C22.99 55.15 21.96 55.33 21.5 55.97C21.12 56.5 19.9 58.73 20.8 60.01C21.1 60.44 21.6 60.71 22.11 60.89C22.04 61.03 21.99 61.18 21.99 61.35V74.87C21.99 75.26 22.07 75.64 22.21 75.99H10V77.99H86V75.99H66ZM56 20H76V38H56V20ZM56.88 57.29C57.19 57.81 57.44 58.57 57.43 58.88C57.3 58.96 57.04 59.04 56.75 59.11C56.6621 58.8861 56.5725 58.6559 56.4807 58.4198L56.48 58.4179C56.3424 58.0642 56.1998 57.6975 56.05 57.32C56.4 57.28 56.7 57.27 56.88 57.29ZM29.61 50.56C31.66 49.67 48.56 49.64 50.38 50.5C51.23 51.05 53.35 55.79 55.14 60.52C41.09 61.79 28.98 60.92 24.74 60.52C26.44 55.73 28.6 50.99 29.62 50.55L29.61 50.56ZM23.02 57.3C23.19 57.28 23.47 57.3 23.78 57.33C23.54 57.95 23.32 58.54 23.12 59.1C22.85 59.04 22.6 58.96 22.48 58.88C22.48 58.57 22.72 57.81 23.02 57.3ZM23.99 62.52L24.05 62.54C24.05 62.54 24.06 62.5 24.07 62.48C27.96 62.86 40.85 63.88 55.85 62.48C55.86 62.5099 55.87 62.5401 55.88 62.58L55.99 62.54V70.66C55.99 71.4 55.33 72.01 54.51 72.01H25.48C24.67 72.01 24 71.41 24 70.66V62.53L23.99 62.52ZM29.78 76C29.91 75.65 30 75.28 30 74.88V74H50V74.88C50 75.27 50.08 75.65 50.22 76H29.78ZM25.11 76C24.49 76 23.99 75.5 23.99 74.88V73.67C24.44 73.88 24.94 74 25.47 74H27.99V74.88C27.99 75.5 27.49 76 26.87 76H25.11ZM53.11 76C52.49 76 51.99 75.5 51.99 74.88V74H54.51C55.04 74 55.54 73.88 55.99 73.67V74.88C55.99 75.5 55.49 76 54.87 76H53.11Z" fill="#002341"/>
</svg>
