<svg width="96" height="96" viewBox="0 0 96 96" fill="none" xmlns="http://www.w3.org/2000/svg">
<path fill-rule="evenodd" clip-rule="evenodd" d="M41.6698 28.09C41.4998 28.09 41.3298 28.05 41.1698 27.96C40.6898 27.68 40.5298 27.07 40.7998 26.59L47.2098 15.5C47.4898 15.02 48.0998 14.86 48.5798 15.13C49.0598 15.4 49.2198 16.02 48.9498 16.5L42.5398 27.59C42.3498 27.91 42.0198 28.09 41.6698 28.09ZM43.4998 30.57C43.6798 30.91 44.0298 31.11 44.3898 31.11V31.1C44.5398 31.1 44.6998 31.07 44.8498 30.99L56.2098 25.07C56.6998 24.81 56.8798 24.21 56.6298 23.72C56.3698 23.23 55.7698 23.04 55.2798 23.3L43.9198 29.22C43.4298 29.48 43.2498 30.08 43.4998 30.57ZM45.5898 35.17H58.3998C58.9498 35.17 59.3998 34.72 59.3998 34.17C59.3998 33.62 58.9498 33.17 58.3998 33.17H45.5898C45.0398 33.17 44.5898 33.62 44.5898 34.17C44.5898 34.72 45.0398 35.17 45.5898 35.17ZM75.7398 78.74H76.5398L76.5498 78.72L79.7698 64.18C80.2498 62.03 78.9698 59.86 76.8598 59.24L63.2298 55.13C59.9698 54.28 57.4098 55.68 56.1798 58.97C56.1098 59.16 55.9498 59.25 55.8598 59.29C55.7098 59.36 55.5398 59.36 55.3898 59.29C49.4598 56.56 44.5698 52.73 40.8798 47.91C40.7598 47.75 40.7698 47.58 40.7798 47.49C40.8098 47.33 40.8998 47.18 41.0398 47.09C43.9598 45.12 44.7298 42.29 43.1098 39.29L35.9398 27.05C34.8398 25.15 32.4198 24.41 30.4498 25.38L17.0098 31.96L17.2798 32.79C32.1398 78.21 75.3098 78.74 75.7398 78.74ZM74.9398 76.71C69.1098 76.41 32.9798 72.9 19.4498 33H19.4598L31.3298 27.19C32.3698 26.68 33.6298 27.06 34.2098 28.07L41.3698 40.28L41.3779 40.2955C41.7864 41.0711 42.9989 43.374 39.9198 45.44C39.3198 45.84 38.9198 46.47 38.7998 47.18C38.6898 47.88 38.8598 48.58 39.2898 49.14C43.1798 54.22 48.3198 58.25 54.5498 61.12C55.1998 61.42 55.9498 61.43 56.6198 61.16C57.2798 60.89 57.7998 60.35 58.0498 59.69C59.3498 56.21 61.8798 56.87 62.6798 57.08L76.2798 61.18C77.3898 61.51 78.0598 62.64 77.8098 63.77L74.9398 76.71Z" fill="#002341"/>
</svg>
