<svg width="96" height="96" viewBox="0 0 96 96" fill="none" xmlns="http://www.w3.org/2000/svg">
<path fill-rule="evenodd" clip-rule="evenodd" d="M75.39 66.67H16C14.35 66.67 13 65.32 13 63.67V25C13 23.35 14.35 22 16 22H75.39C77.04 22 78.39 23.35 78.39 25V63.67C78.39 65.32 77.04 66.67 75.39 66.67ZM16 24C15.45 24 15 24.45 15 25V59.3367L32.73 40.65L45.62 52.84L61.7 34.2L76.39 51.5601V25C76.39 24.45 75.94 24 75.39 24H16ZM32.8 43.48L15 62.2552V63.67C15 64.22 15.45 64.67 16 64.67H75.39C75.94 64.67 76.39 64.22 76.39 63.67V54.6583L61.68 37.28L45.77 55.73L32.8 43.48ZM39.85 33.28C39.85 36.5 42.47 39.12 45.69 39.12C48.91 39.12 51.53 36.5 51.53 33.28C51.53 30.06 48.91 27.44 45.69 27.44C42.47 27.44 39.85 30.06 39.85 33.28ZM41.85 33.29C41.85 31.17 43.57 29.45 45.69 29.45C47.81 29.45 49.53 31.17 49.53 33.29C49.53 35.41 47.81 37.13 45.69 37.13C43.57 37.13 41.85 35.41 41.85 33.29Z" fill="#002341"/>
</svg>
