<svg width="96" height="96" viewBox="0 0 96 96" fill="none" xmlns="http://www.w3.org/2000/svg">
<path d="M37.2995 28.5C37.7495 28.18 37.8495 27.55 37.5295 27.1C36.7495 26.01 36.3295 24.72 36.3295 23.38C36.3295 19.86 39.1895 17 42.7095 17C46.2295 17 49.0896 19.86 49.0896 23.38C49.0896 24.73 48.6796 26.01 47.8895 27.1C47.5695 27.55 47.6695 28.17 48.1195 28.5C48.2995 28.63 48.4995 28.69 48.6996 28.69C49.0096 28.69 49.3195 28.55 49.5095 28.27C50.5395 26.84 51.0796 25.15 51.0796 23.38C51.0796 18.76 47.3195 15 42.6995 15C38.0795 15 34.3195 18.76 34.3195 23.38C34.3195 25.15 34.8595 26.84 35.8895 28.27C36.2095 28.72 36.8395 28.82 37.2895 28.5H37.2995Z" fill="#002341"/>
<path fill-rule="evenodd" clip-rule="evenodd" d="M57.5396 47.99C57.5396 45.74 59.3695 43.91 61.6195 43.91C63.8695 43.91 65.6996 45.74 65.6996 47.99C65.6996 50.24 63.8695 52.07 61.6195 52.07C59.3695 52.07 57.5396 50.24 57.5396 47.99ZM59.5396 47.98C59.5396 49.13 60.4795 50.06 61.6195 50.06C62.7696 50.06 63.6996 49.13 63.6996 47.98C63.6996 46.83 62.7696 45.9 61.6195 45.9C60.4695 45.9 59.5396 46.83 59.5396 47.98Z" fill="#002341"/>
<path fill-rule="evenodd" clip-rule="evenodd" d="M79.1796 45.14C78.5196 44.36 77.5595 43.91 76.5295 43.91H73.2795C72.2795 42.2 70.5896 40.43 67.8096 38.19L70.3996 33.35C70.5296 33.1 70.5495 32.81 70.4595 32.55C70.3696 32.29 70.1696 32.07 69.9095 31.96C66.8696 30.65 64.4796 30.56 60.1096 33.71C59.7896 33.64 59.4196 33.55 59.0095 33.45C53.0295 32.02 39.0095 28.68 26.7595 34.16C15.3395 39.27 11.3295 50.03 15.7695 63.67C17.2195 68.14 20.5195 72.59 22.7095 75.52C23.2795 76.28 23.7695 76.94 24.1295 77.48C24.5695 78.12 25.2795 78.5 26.0395 78.5H32.0995C33.3295 78.5 34.3295 77.5 34.3295 76.27V71.65C37.3095 72.7 42.7996 73.58 46.1996 73.1C48.1196 78.49 49.4795 78.49 49.9395 78.49H57.4696C58.5896 78.49 59.5396 77.65 59.6796 76.54L60.7095 68.34C63.1395 67.23 67.9095 64.4 71.9195 60.04H75.9796C77.0695 60.04 77.9896 59.26 78.1796 58.19L79.9595 47.94C80.1295 46.93 79.8596 45.9 79.1995 45.12L79.1796 45.14ZM77.9696 47.62L76.1896 57.87C76.1695 57.98 76.0695 58.06 75.9595 58.06H71.4595C71.1796 58.06 70.8996 58.18 70.7095 58.39C66.8596 62.7 61.8296 65.75 59.3895 66.74C59.0596 66.88 58.8195 67.18 58.7795 67.54L57.6796 76.3C57.6696 76.41 57.5696 76.5 57.4496 76.5H50.0896C49.6196 76.07 48.6096 74.07 47.7995 71.65C47.6296 71.15 47.1096 70.87 46.6096 71C43.1796 71.85 35.5095 70.33 33.8495 69.28C33.5395 69.09 33.1495 69.07 32.8295 69.25C32.5095 69.43 32.3095 69.76 32.3095 70.13V76.28C32.3095 76.41 32.2095 76.51 32.0795 76.51H26.0195C25.9295 76.51 25.8295 76.45 25.7695 76.36C25.4326 75.8723 24.9934 75.2745 24.4939 74.5945L24.2995 74.33C22.1895 71.5 19.0095 67.21 17.6595 63.05C13.5195 50.3 17.0395 40.69 27.5795 35.97C39.2125 30.7632 52.753 33.9961 58.539 35.3775L58.5495 35.38C59.1696 35.53 59.7096 35.66 60.1296 35.75C60.4096 35.81 60.7095 35.75 60.9395 35.58C64.5196 32.93 66.2796 32.79 68.1096 33.4L65.6595 37.98C65.4296 38.41 65.5396 38.94 65.9195 39.24C69.1695 41.79 70.9296 43.62 71.7996 45.36C71.9696 45.7 72.3195 45.91 72.6896 45.91H76.5295C76.9595 45.91 77.3696 46.1 77.6496 46.43C77.9296 46.76 78.0496 47.19 77.9696 47.62Z" fill="#002341"/>
</svg>
