<svg width="96" height="96" viewBox="0 0 96 96" fill="none" xmlns="http://www.w3.org/2000/svg">
<path fill-rule="evenodd" clip-rule="evenodd" d="M29.1525 72.9547C27.1634 70.0739 24.0702 65.5942 22.6372 61.1843C18.7049 49.0835 21.7139 39.0836 33.2102 33.9406C45.5492 28.4207 57.1475 30.9759 61.9227 32.028C62.1816 32.085 62.4205 32.1376 62.6383 32.1843C66.9946 27.586 74.8147 28.9742 77.6383 30.1843L71.6383 37.1843C75.0265 39.8465 76.7307 41.3692 77.6383 43.1843H80.0262C82.4604 43.1843 84.3303 45.3403 83.986 47.75L82.8836 55.4672C82.7428 56.4525 81.899 57.1843 80.9037 57.1843H76.6383C72.524 61.7827 67.8568 65.2768 65.6383 66.1843L63.9863 73.6182C63.783 74.5333 62.9713 75.1843 62.0339 75.1843H55.6383C54.6702 75.1843 53.2433 71.9995 52.6383 70.1843C49.0097 71.0919 41.5542 69.3944 39.6383 68.1843V73.1843C39.6383 74.2889 38.7428 75.1843 37.6383 75.1843L31.7795 75.1843C31.0722 75.1843 30.4174 74.8122 30.0229 74.2252C29.7698 73.8486 29.4757 73.4228 29.1525 72.9547ZM67.455 52.0868C69.3631 52.0868 70.9099 50.5004 70.9099 48.5434C70.9099 46.5864 69.3631 45 67.455 45C65.5468 45 64 46.5864 64 48.5434C64 50.5004 65.5468 52.0868 67.455 52.0868Z" fill="#8FC1FF"/>
<path fill-rule="evenodd" clip-rule="evenodd" d="M71.0214 26.8225C74.161 26.7384 77.1091 27.4422 78.788 28.1617C79.3731 28.4124 79.8039 28.9267 79.9481 29.5467C80.0924 30.1666 79.933 30.8183 79.5187 31.3016L74.8673 36.7282C76.7747 38.2818 78.1725 39.5803 79.1383 41H80.3882C84.0394 41 86.8442 44.2339 86.3279 47.8485L85.2254 55.5657C84.9439 57.5363 83.2562 59 81.2656 59H77.884C75.9282 61.1117 73.8852 62.9732 72.0362 64.4477C70.4774 65.6908 68.9794 66.7208 67.7419 67.3818L66.3006 73.8677C65.8939 75.6979 64.2706 77 62.3959 77H56.0002C55.3318 77 54.8115 76.7304 54.491 76.5117C54.1606 76.2863 53.8932 76.0138 53.6876 75.7732C53.2759 75.2914 52.9102 74.6966 52.6049 74.1321C52.276 73.524 51.9663 72.8552 51.6986 72.2129C49.7369 72.3592 47.4701 72.1179 45.5022 71.7622C44.2569 71.5371 43.0506 71.2511 42.0002 70.9403V73C42.0002 75.2091 40.2093 77 38.0002 77L32.1415 77C30.7237 77 29.4655 76.2584 28.7249 75.1565C28.4917 74.8095 28.213 74.4067 27.9012 73.956C25.9296 71.1064 22.6311 66.3389 21.097 61.6181C19.0408 55.2906 18.7243 49.2846 20.6209 44.0837C22.5346 38.8361 26.6016 34.6836 32.7554 31.9307C45.4555 26.2492 57.3998 28.7193 62.3953 29.8197C64.9658 27.6232 68.1972 26.8982 71.0214 26.8225ZM71.1286 30.8211C68.5679 30.8897 66.1287 31.6057 64.4521 33.3755C63.9723 33.8819 63.2633 34.1018 62.5811 33.9556C62.3659 33.9095 62.1323 33.8581 61.881 33.8029C57.1365 32.7607 46.1101 30.3383 34.3888 35.582C29.0464 37.9719 25.8607 41.3908 24.3789 45.4542C22.88 49.5642 23.0251 54.6085 24.9012 60.3819C26.234 64.4834 29.1243 68.6774 31.1278 71.5846C31.4618 72.0693 31.7713 72.5183 32.0447 72.9252C32.0661 72.957 32.0916 72.9781 32.1125 72.9896C32.1318 73.0003 32.1414 73 32.1415 73L38.0002 73V68C38.0002 67.2712 38.3966 66.6002 39.0348 66.2484C39.673 65.8967 40.452 65.9199 41.0682 66.309C41.3135 66.464 41.9284 66.7349 42.9172 67.0389C43.8586 67.3283 45.0055 67.6076 46.2137 67.826C48.7234 68.2796 51.1375 68.4043 52.5149 68.0598C53.5288 67.8062 54.5671 68.376 54.8976 69.3675C55.1714 70.1891 55.636 71.3284 56.1232 72.2292C56.3029 72.5615 56.4628 72.8183 56.5932 73H62.3959L64.0478 65.5661C64.19 64.9265 64.6364 64.397 65.2429 64.1489C66.0833 63.8051 67.6259 62.8486 69.5423 61.3204C71.418 59.8246 73.5311 57.8778 75.5097 55.6664C75.8891 55.2423 76.4312 55 77.0002 55H81.2656L82.3681 47.2828C82.5402 46.078 81.6053 45 80.3882 45H78.0002C77.2426 45 76.5501 44.572 76.2113 43.8944C75.5389 42.5496 74.2243 41.291 70.7646 38.5726C70.3358 38.2358 70.0632 37.7385 70.0098 37.1959C69.9564 36.6533 70.1269 36.1124 70.4817 35.6984L74.4463 31.073C73.4483 30.8984 72.3087 30.7895 71.1286 30.8211Z" fill="#0F1D2E"/>
<path fill-rule="evenodd" clip-rule="evenodd" d="M14.7681 34.394C13.4824 32.1099 13.3334 29.9372 14.3063 28.0774C14.9454 26.8558 15.9737 26.0121 17.0236 25.5193C18.0508 25.0373 19.266 24.8137 20.3924 25.039C23.0027 25.561 24.8658 27.704 24.7702 30.4563C24.6998 32.4847 23.5914 34.4893 21.5852 36.2251C21.6708 36.2977 21.7589 36.3706 21.8492 36.4434C23.0472 37.4101 24.1995 38 25.0005 38.0001C26.105 38.0003 27.0004 38.8958 27.0002 40.0004C27.0001 41.1049 26.1045 42.0003 25 42.0001C22.7158 41.9998 20.6181 40.5898 19.3375 39.5565C18.816 39.1358 18.3588 38.718 17.9914 38.3609C16.1119 38.8489 14.1001 38.4255 12.6113 37.9398C10.5701 37.2738 8.75168 36.2381 7.89081 35.6642C6.97175 35.0515 6.72341 33.8098 7.33611 32.8907C7.94882 31.9717 9.19056 31.7233 10.1096 32.336C10.7487 32.7621 12.2388 33.6107 13.8519 34.137C14.1753 34.2425 14.4808 34.3277 14.7681 34.394ZM18.8279 33.3226C20.3496 32.0616 20.751 30.9398 20.7726 30.3175C20.7956 29.6551 20.4297 29.1256 19.608 28.9613C19.4845 28.9366 19.1424 28.9436 18.723 29.1404C18.3263 29.3266 18.0188 29.61 17.8506 29.9315C17.6651 30.2862 17.3529 31.3525 18.8279 33.3226Z" fill="#0F1D2E"/>
<path fill-rule="evenodd" clip-rule="evenodd" d="M49 20C45.6863 20 43 22.6863 43 26C43 27.3087 43.4167 28.5142 44.1249 29.4987C44.77 30.3954 44.566 31.6452 43.6693 32.2902C42.7727 32.9353 41.5229 32.7313 40.8778 31.8346C39.6963 30.1922 39 28.1745 39 26C39 20.4772 43.4772 16 49 16C54.5228 16 59 20.4772 59 26C59 28.1745 58.3037 30.1922 57.1222 31.8346C56.4771 32.7313 55.2273 32.9353 54.3307 32.2902C53.434 31.6452 53.23 30.3954 53.8751 29.4987C54.5833 28.5142 55 27.3087 55 26C55 22.6863 52.3137 20 49 20Z" fill="#0F1D2E"/>
<path fill-rule="evenodd" clip-rule="evenodd" d="M67 46C65.8954 46 65 46.8954 65 48C65 49.1046 65.8954 50 67 50C68.1046 50 69 49.1046 69 48C69 46.8954 68.1046 46 67 46ZM61 48C61 44.6863 63.6863 42 67 42C70.3137 42 73 44.6863 73 48C73 51.3137 70.3137 54 67 54C63.6863 54 61 51.3137 61 48Z" fill="#0F1D2E"/>
</svg>
