<svg width="96" height="96" viewBox="0 0 96 96" fill="none" xmlns="http://www.w3.org/2000/svg">
<path d="M73.7598 76.5998C73.2998 75.1098 72.0098 71.8998 68.9798 69.6798L71.2798 63.1698L68.1998 62.0799L72.6398 49.4899L74.4398 50.1499L75.1298 48.2699L69.6198 46.2499L68.9298 48.1299L70.7598 48.7999L66.3099 61.4099L63.2299 60.3199L60.7499 67.3498C52.2699 67.6298 49.1099 74.3198 48.2699 76.5998H35.9899V52.2899C37.9999 54.0199 40.8199 54.9299 44.3199 54.9299C50.8399 54.9299 56.1499 49.1899 56.1499 42.1299C56.1499 36.1499 52.3899 31.0799 47.0799 29.7199C47.1099 29.4199 47.1299 29.1099 47.1299 28.7899C47.1299 21.7299 41.8199 15.99 35.2999 15.99C28.7799 15.99 23.4699 21.7299 23.4699 28.7899C23.4699 29.1099 23.4899 29.4199 23.5199 29.7199C18.21 31.0799 14.45 36.1399 14.45 42.1299C14.45 49.1899 19.76 54.9299 26.2799 54.9299C29.5499 54.9299 32.0899 54.0799 33.9999 52.3599V76.5998H9.99998V78.5998H85.9998V76.5998H73.7598ZM35.8499 49.0799L34.9999 47.6799L34.1499 49.0799C32.5499 51.7099 30.0499 52.9299 26.2899 52.9299C20.87 52.9299 16.46 48.0899 16.46 42.1299C16.46 36.7799 19.97 32.3099 24.8099 31.4999L25.7699 31.3399L25.6199 30.2599C25.5499 29.7499 25.4899 29.2699 25.4899 28.7999C25.4899 22.8499 29.8999 18 35.3199 18C40.7399 18 45.1499 22.8399 45.1499 28.7999C45.1499 29.2799 45.0899 29.7599 45.0199 30.2599L44.8699 31.3399L45.8299 31.4999C50.6699 32.3099 54.1799 36.7799 54.1799 42.1299C54.1799 48.0799 49.7699 52.9299 44.3499 52.9299C41.5499 52.9299 37.8099 52.2599 35.8799 49.0799H35.8499ZM64.4499 62.8698L68.7298 64.3798L67.2399 68.6098C65.9999 67.9998 64.5499 67.5698 62.8499 67.3998L64.4499 62.8598V62.8698ZM50.4099 76.5998C51.3999 74.2298 54.2799 69.3298 61.3099 69.3298C68.2999 69.3298 70.8598 74.2698 71.6698 76.5998H50.4099Z" fill="#002341"/>
</svg>
