<svg width="96" height="96" viewBox="0 0 96 96" fill="none" xmlns="http://www.w3.org/2000/svg">
<path fill-rule="evenodd" clip-rule="evenodd" d="M54.7586 16.414C57.1017 14.0708 60.9007 14.0708 63.2439 16.414L85.0013 38.1713C87.5212 40.6912 85.7365 44.9998 82.1729 44.9998H79.0013V60.9998C79.0013 64.3135 76.3149 66.9998 73.0012 66.9998H62.0012C60.8967 66.9998 60.0012 66.1043 60.0012 64.9998C60.0012 63.8952 60.8967 62.9998 62.0012 62.9998H73.0012C74.1058 62.9998 75.0013 62.1043 75.0013 60.9998V43.9998C75.0013 42.3429 76.3444 40.9998 78.0013 40.9998L82.1729 40.9998L60.4154 19.2424C59.6344 18.4614 58.3681 18.4614 57.587 19.2424L42.5002 34.3289C41.7191 35.11 40.4528 35.11 39.6717 34.3289C38.8907 33.5479 38.8907 32.2816 39.6717 31.5005L54.7586 16.414Z" fill="#0F1D2E"/>
<path d="M31 45.5H23.5V68H54V45.5H46.5L42.5 41H35L31 45.5Z" fill="#8FC1FF" stroke="black"/>
<circle cx="38.5" cy="56.5" r="6.5" fill="white"/>
<path d="M42.1215 42.8333L45.2478 46.25H52.1665V66.75H24.8332V46.25H31.7519L34.8782 42.8333H42.1215ZM43.6248 39.4166H33.3748L30.2486 42.8333H24.8332C22.954 42.8333 21.4165 44.3708 21.4165 46.25V66.75C21.4165 68.6291 22.954 70.1666 24.8332 70.1666H52.1665C54.0457 70.1666 55.5832 68.6291 55.5832 66.75V46.25C55.5832 44.3708 54.0457 42.8333 52.1665 42.8333H46.7511L43.6248 39.4166ZM38.4998 51.375C41.3186 51.375 43.6248 53.6812 43.6248 56.5C43.6248 59.3187 41.3186 61.625 38.4998 61.625C35.6811 61.625 33.3748 59.3187 33.3748 56.5C33.3748 53.6812 35.6811 51.375 38.4998 51.375ZM38.4998 47.9583C33.7848 47.9583 29.9582 51.785 29.9582 56.5C29.9582 61.215 33.7848 65.0416 38.4998 65.0416C43.2148 65.0416 47.0415 61.215 47.0415 56.5C47.0415 51.785 43.2148 47.9583 38.4998 47.9583Z" fill="black"/>
</svg>
