<svg width="96" height="96" viewBox="0 0 96 96" fill="none" xmlns="http://www.w3.org/2000/svg">
<path d="M49.0102 19.34C35.3902 19.34 24.3102 30.42 24.3102 44.04C24.3102 57.66 35.3902 68.74 49.0102 68.74C62.6302 68.74 73.7102 57.66 73.7102 44.04C73.7102 30.42 62.6302 19.34 49.0102 19.34ZM49.0102 66.74C36.4902 66.74 26.3102 56.56 26.3102 44.04C26.3102 31.52 36.4902 21.34 49.0102 21.34C61.5302 21.34 71.7102 31.52 71.7102 44.04C71.7102 56.56 61.5302 66.74 49.0102 66.74Z" fill="#002341"/>
<path d="M54.1102 35.33L37.9302 39.9V38.04H35.9302V50.25H37.9302V48.39L54.1102 52.96C54.2002 52.99 54.2902 53 54.3802 53C54.6002 53 54.8102 52.93 54.9802 52.8C55.2302 52.61 55.3802 52.32 55.3802 52V36.29C55.3802 35.98 55.2302 35.68 54.9802 35.49C54.7302 35.3 54.4102 35.24 54.1002 35.33H54.1102ZM53.3802 50.68L37.9302 46.31V41.97L53.3802 37.6V50.68Z" fill="#002341"/>
<path d="M61.2202 43.02H57.8602C57.3102 43.02 56.8602 43.47 56.8602 44.02C56.8602 44.57 57.3102 45.02 57.8602 45.02H61.2202C61.7702 45.02 62.2202 44.57 62.2202 44.02C62.2202 43.47 61.7702 43.02 61.2202 43.02Z" fill="#002341"/>
<path d="M57.6102 40.81C57.7402 40.81 57.8802 40.78 58.0102 40.73L60.7802 39.52C61.2902 39.3 61.5202 38.71 61.2902 38.2C61.0702 37.7 60.4802 37.46 59.9702 37.69L57.2002 38.9C56.6902 39.12 56.4602 39.71 56.6902 40.22C56.8502 40.6 57.2202 40.82 57.6102 40.82V40.81Z" fill="#002341"/>
<path d="M60.7802 48.79L58.0102 47.58C57.5002 47.35 56.9102 47.58 56.6902 48.1C56.4702 48.61 56.6902 49.2 57.2102 49.42L59.9802 50.63C60.1102 50.69 60.2502 50.71 60.3802 50.71C60.7702 50.71 61.1302 50.49 61.3002 50.11C61.5202 49.6 61.3002 49.01 60.7802 48.79Z" fill="#002341"/>
<path d="M69.0702 25.04C69.2702 25.24 69.5202 25.33 69.7802 25.33C70.0402 25.33 70.2902 25.23 70.4902 25.04L77.5102 18.02L77.4902 24.22C77.4902 24.77 77.9402 25.22 78.4902 25.22C79.0402 25.22 79.4902 24.77 79.4902 24.22L79.5102 15.6C79.5102 15.47 79.4902 15.34 79.4402 15.22C79.3902 15.1 79.3202 14.99 79.2202 14.89C79.1202 14.79 79.0102 14.72 78.8902 14.67C78.7702 14.62 78.6402 14.59 78.5102 14.59L69.9002 14.61C69.3502 14.61 68.9002 15.06 68.9002 15.61C68.9002 16.16 69.3502 16.61 69.9002 16.61L76.0902 16.59L69.0702 23.61C68.6802 24 68.6802 24.63 69.0702 25.02V25.04Z" fill="#002341"/>
<path d="M18.5402 24.17C18.5402 24.72 18.9902 25.17 19.5402 25.17C20.0902 25.17 20.5402 24.72 20.5402 24.17L20.5202 17.97L27.5402 24.99C27.7402 25.19 27.9902 25.28 28.2502 25.28C28.5102 25.28 28.7602 25.18 28.9602 24.99C29.3502 24.6 29.3502 23.97 28.9602 23.58L21.9402 16.56L28.1302 16.58C28.6802 16.58 29.1302 16.13 29.1302 15.58C29.1302 15.03 28.6802 14.58 28.1302 14.58L19.5202 14.56C19.2602 14.56 19.0102 14.66 18.8102 14.85C18.7202 14.94 18.6402 15.06 18.5902 15.18C18.5402 15.3 18.5202 15.43 18.5202 15.56L18.5402 24.18V24.17Z" fill="#002341"/>
<path d="M81.3602 61.92C81.3602 61.37 80.9102 60.92 80.3602 60.92C79.8102 60.92 79.3602 61.37 79.3602 61.92L79.3802 68.12L72.3602 61.1C71.9702 60.71 71.3402 60.71 70.9502 61.1C70.5602 61.49 70.5602 62.12 70.9502 62.51L77.9702 69.53L71.7802 69.51C71.2302 69.51 70.7802 69.96 70.7802 70.51C70.7802 71.06 71.2302 71.51 71.7802 71.51L80.3902 71.53C80.5202 71.53 80.6502 71.5 80.7702 71.45C80.8902 71.4 81.0002 71.33 81.1002 71.23C81.2002 71.13 81.2702 71.02 81.3202 70.9C81.3702 70.78 81.3902 70.65 81.3902 70.52L81.3702 61.9L81.3602 61.92Z" fill="#002341"/>
<path d="M28.0902 62.28C27.7002 61.89 27.0702 61.89 26.6802 62.28L19.6602 69.3L19.6802 63.1C19.6802 62.55 19.2302 62.1 18.6802 62.1C18.1302 62.1 17.6802 62.55 17.6802 63.1L17.6602 71.72C17.6602 71.85 17.6802 71.98 17.7302 72.1C17.7802 72.22 17.8502 72.33 17.9502 72.43C18.0502 72.53 18.1602 72.6 18.2802 72.65C18.4002 72.7 18.5302 72.73 18.6602 72.73L27.2702 72.71C27.8202 72.71 28.2702 72.26 28.2702 71.71C28.2702 71.16 27.8202 70.71 27.2702 70.71L21.0802 70.73L28.1002 63.71C28.4902 63.32 28.4902 62.69 28.1002 62.3L28.0902 62.28Z" fill="#002341"/>
<path d="M10.4202 43.61H20.3502C20.9002 43.61 21.3502 43.17 21.3502 42.61C21.3502 42.05 20.9002 41.61 20.3502 41.61H10.4202L14.8102 37.24C15.2002 36.85 15.2002 36.22 14.8102 35.83C14.4202 35.44 13.7902 35.44 13.4002 35.83L7.29023 41.9C7.20023 41.99 7.12023 42.1 7.07023 42.22C7.02023 42.34 6.99023 42.47 6.99023 42.61C6.99023 42.75 7.02023 42.87 7.07023 43C7.12023 43.12 7.19023 43.23 7.29023 43.32L13.4002 49.4C13.6002 49.59 13.8502 49.69 14.1102 49.69C14.3702 49.69 14.6202 49.59 14.8202 49.4C15.2102 49.01 15.2102 48.38 14.8202 47.99L10.4302 43.62L10.4202 43.61Z" fill="#002341"/>
<path d="M90.9602 42.99C91.0102 42.87 91.0402 42.74 91.0402 42.6C91.0402 42.46 91.0102 42.34 90.9602 42.21C90.9102 42.09 90.8402 41.98 90.7402 41.89L84.6402 35.82C84.2502 35.43 83.6202 35.43 83.2302 35.82C82.8402 36.21 82.8402 36.84 83.2302 37.23L87.6202 41.6H77.6902C77.1402 41.6 76.6902 42.05 76.6902 42.6C76.6902 43.15 77.1402 43.6 77.6902 43.6H87.6202L83.2302 47.97C82.8402 48.36 82.8402 48.99 83.2302 49.38C83.4302 49.58 83.6802 49.67 83.9402 49.67C84.2002 49.67 84.4502 49.57 84.6502 49.38L90.7602 43.3C90.8502 43.21 90.9302 43.1 90.9802 42.98L90.9602 42.99Z" fill="#002341"/>
<path d="M43.6502 9.80999L48.0202 5.41999V15.35C48.0202 15.9 48.4702 16.35 49.0202 16.35C49.5702 16.35 50.0202 15.9 50.0202 15.35V5.41999L54.3902 9.80999C54.5902 10.01 54.8402 10.1 55.1002 10.1C55.3602 10.1 55.6102 9.99999 55.8102 9.80999C56.2002 9.41999 56.2002 8.78999 55.8102 8.39999L49.7202 2.28999C49.6302 2.19999 49.5202 2.11999 49.4002 2.06999C49.2802 2.01999 49.1502 1.98999 49.0102 1.98999C48.8702 1.98999 48.7502 2.01999 48.6202 2.06999C48.5002 2.11999 48.3902 2.18999 48.3002 2.28999L42.2302 8.38999C41.8402 8.77999 41.8402 9.40999 42.2302 9.79999C42.6202 10.19 43.2602 10.19 43.6402 9.79999L43.6502 9.80999Z" fill="#002341"/>
<path d="M54.3802 78.29L50.0102 82.68V72.75C50.0102 72.2 49.5702 71.75 49.0102 71.75C48.4502 71.75 48.0102 72.2 48.0102 72.75V82.68L43.6402 78.29C43.2502 77.9 42.6202 77.9 42.2302 78.29C41.8402 78.68 41.8402 79.31 42.2302 79.7L48.3002 85.8C48.3902 85.89 48.5002 85.97 48.6202 86.02C48.7402 86.07 48.8702 86.1 49.0102 86.1C49.1502 86.1 49.2702 86.07 49.4002 86.02C49.5202 85.97 49.6302 85.9 49.7202 85.8L55.8002 79.69C56.1902 79.3 56.1902 78.67 55.8002 78.28C55.4102 77.89 54.7802 77.89 54.3902 78.28L54.3802 78.29Z" fill="#002341"/>
</svg>
