<svg width="96" height="96" viewBox="0 0 96 96" fill="none" xmlns="http://www.w3.org/2000/svg">
<path d="M77.88 71.35V31.31L50.99 16.84C49.36 15.72 46.95 15.72 45.32 16.84L18.43 31.31V71.35H10V73.35H86V71.35H77.88ZM75.88 71.35H20.43V32.5L46.32 18.58L46.43 18.51C47.39 17.83 48.94 17.83 49.89 18.51L75.88 32.5V71.35Z" fill="#002341"/>
<path d="M27.97 41.03V60.8C27.97 61.35 28.42 61.8 28.97 61.8H59.21C59.76 61.8 60.21 61.35 60.21 60.8V55.84L66.81 60.07C66.97 60.18 67.16 60.23 67.35 60.23C67.52 60.23 67.68 60.19 67.83 60.11C68.15 59.94 68.35 59.6 68.35 59.23V42.61C68.35 42.24 68.15 41.91 67.83 41.73C67.51 41.56 67.12 41.57 66.81 41.77L60.21 46V41.04C60.21 40.49 59.76 40.04 59.21 40.04H28.97C28.42 40.04 27.97 40.49 27.97 41.04V41.03ZM66.35 44.44V57.4L60.21 53.47V48.37L66.35 44.44ZM29.97 42.03H58.21V59.8H29.97V42.03Z" fill="#002341"/>
<path d="M48.02 49.65L42.26 46.32C41.95 46.14 41.57 46.14 41.26 46.32C40.95 46.5 40.76 46.83 40.76 47.19V53.86C40.76 54.22 40.95 54.55 41.26 54.73C41.41 54.82 41.59 54.86 41.76 54.86C41.93 54.86 42.11 54.82 42.26 54.73L48.02 51.4C48.33 51.22 48.52 50.89 48.52 50.53C48.52 50.17 48.33 49.84 48.02 49.66V49.65ZM42.76 52.11V48.91L45.52 50.51L42.76 52.11Z" fill="#002341"/>
</svg>
