<svg width="96" height="96" viewBox="0 0 96 96" fill="none" xmlns="http://www.w3.org/2000/svg">
<path fill-rule="evenodd" clip-rule="evenodd" d="M54.7586 16.414C57.1017 14.0708 60.9007 14.0708 63.2439 16.414L85.0013 38.1713C87.5212 40.6912 85.7365 44.9998 82.1729 44.9998H79.0013V60.9998C79.0013 64.3135 76.3149 66.9998 73.0012 66.9998H62.0012C60.8967 66.9998 60.0012 66.1043 60.0012 64.9998C60.0012 63.8952 60.8967 62.9998 62.0012 62.9998H73.0012C74.1058 62.9998 75.0013 62.1043 75.0013 60.9998V43.9998C75.0013 42.3429 76.3444 40.9998 78.0013 40.9998L82.1729 40.9998L60.4154 19.2424C59.6344 18.4614 58.3681 18.4614 57.587 19.2424L42.5002 34.3289C41.7191 35.11 40.4528 35.11 39.6717 34.3289C38.8907 33.5479 38.8907 32.2816 39.6717 31.5005L54.7586 16.414Z" fill="#0F1D2E"/>
<path fill-rule="evenodd" clip-rule="evenodd" d="M27.0415 53.6665H47.7258C48.278 53.6665 48.7258 54.1142 48.7258 54.6665V66.6632C48.7258 67.2155 48.278 67.6632 47.7258 67.6632H27.0415C26.4892 67.6632 26.0415 67.2155 26.0415 66.6632V54.6665C26.0415 54.1142 26.4892 53.6665 27.0415 53.6665ZM43.4165 62.3541C44.4827 62.3541 45.3471 61.4897 45.3471 60.4235C45.3471 59.3573 44.4827 58.4929 43.4165 58.4929C42.3503 58.4929 41.4859 59.3573 41.4859 60.4235C41.4859 61.4897 42.3503 62.3541 43.4165 62.3541Z" fill="#8FC1FF"/>
<path d="M50.0391 47.3922C50.0391 50.3243 47.6621 52.7013 44.73 52.7013C43.4125 52.7013 42.2071 52.2214 41.2791 51.4269C40.1417 50.4532 39.4209 49.0069 39.4209 47.3922C39.4209 46.016 39.9446 44.762 40.8035 43.8188C41.7745 42.7524 43.1741 42.0831 44.73 42.0831C47.6621 42.0831 50.0391 44.4601 50.0391 47.3922Z" fill="#8FC1FF"/>
<path d="M34.1705 48.8402C34.1705 50.9726 32.4418 52.7013 30.3094 52.7013C29.3512 52.7013 28.4746 52.3523 27.7996 51.7745C26.9725 51.0663 26.4482 50.0144 26.4482 48.8402C26.4482 47.8393 26.8291 46.9273 27.4538 46.2413C28.16 45.4658 29.1778 44.979 30.3094 44.979C32.4418 44.979 34.1705 46.7077 34.1705 48.8402Z" fill="#8FC1FF"/>
<path d="M49.6909 62.7201V58.1269C49.6909 57.6853 49.9806 57.2959 50.4036 57.1691L52.7474 56.4659C53.389 56.2734 54.0347 56.7539 54.0347 57.4237V63.4233C54.0347 64.0931 53.389 64.5736 52.7474 64.3811L50.4036 63.678C49.9806 63.5511 49.6909 63.1617 49.6909 62.7201Z" fill="#8FC1FF"/>
<path fill-rule="evenodd" clip-rule="evenodd" d="M25.0762 55.1146C25.0762 53.5153 26.3727 52.2188 27.972 52.2188H47.2778C48.8771 52.2188 50.1737 53.5153 50.1737 55.1146V65.7328C50.1737 67.3321 48.8771 68.6286 47.2778 68.6286H27.972C26.3727 68.6286 25.0762 67.3321 25.0762 65.7328V55.1146ZM27.972 54.1493C27.4389 54.1493 27.0067 54.5815 27.0067 55.1146V65.7328C27.0067 66.2659 27.4389 66.6981 27.972 66.6981H47.2778C47.8109 66.6981 48.2431 66.2659 48.2431 65.7328V55.1146C48.2431 54.5815 47.8109 54.1493 47.2778 54.1493H27.972Z" fill="#0F1D2E" stroke="#0F1D2E" stroke-linecap="round" stroke-linejoin="round"/>
<path fill-rule="evenodd" clip-rule="evenodd" d="M51.2696 54.9387C53.1281 54.3794 54.9999 55.7709 54.9999 57.7117V62.8953C54.9999 64.7227 53.3281 66.0933 51.5362 65.7349L49.0189 65.2315C48.4961 65.1269 48.1571 64.6184 48.2617 64.0956C48.3662 63.5728 48.8748 63.2338 49.3975 63.3384L51.9148 63.8418C52.5121 63.9613 53.0694 63.5044 53.0694 62.8953V57.7117C53.0694 57.0648 52.4454 56.601 51.8259 56.7874L49.4864 57.4914C48.9759 57.645 48.4375 57.3557 48.2839 56.8452C48.1303 56.3347 48.4196 55.7964 48.9301 55.6427L51.2696 54.9387Z" fill="#0F1D2E" stroke="#0F1D2E" stroke-linecap="round" stroke-linejoin="round"/>
<path fill-rule="evenodd" clip-rule="evenodd" d="M23.1455 59.9411C23.1455 59.408 23.5777 58.9758 24.1108 58.9758H26.0414C26.5745 58.9758 27.0067 59.408 27.0067 59.9411C27.0067 60.1169 26.9597 60.2818 26.8775 60.4238C26.9597 60.5657 27.0067 60.7306 27.0067 60.9064C27.0067 61.4395 26.5745 61.8717 26.0414 61.8717H24.1108C23.5777 61.8717 23.1455 61.4395 23.1455 60.9064V59.9411Z" fill="#0F1D2E" stroke="#0F1D2E" stroke-linecap="round" stroke-linejoin="round"/>
<path fill-rule="evenodd" clip-rule="evenodd" d="M43.4169 59.4584C42.8837 59.4584 42.4516 59.8906 42.4516 60.4237C42.4516 60.9568 42.8837 61.389 43.4169 61.389C43.95 61.389 44.3821 60.9568 44.3821 60.4237C44.3821 59.8906 43.95 59.4584 43.4169 59.4584ZM40.521 60.4237C40.521 58.8244 41.8175 57.5278 43.4169 57.5278C45.0162 57.5278 46.3127 58.8244 46.3127 60.4237C46.3127 62.023 45.0162 63.3196 43.4169 63.3196C41.8175 63.3196 40.521 62.023 40.521 60.4237Z" fill="#0F1D2E"/>
<path fill-rule="evenodd" clip-rule="evenodd" d="M37.9354 66.6981C38.216 66.7 38.4818 66.8239 38.6637 67.0375L43.1863 72.3465C43.532 72.7524 43.4832 73.3616 43.0774 73.7073C42.6716 74.053 42.0623 74.0043 41.7166 73.5984L37.9189 69.1403L34.0075 73.6083C33.6564 74.0094 33.0465 74.0499 32.6454 73.6988C32.2443 73.3476 32.2038 72.7378 32.5549 72.3367L37.2026 67.0276C37.3874 66.8165 37.6549 66.6962 37.9354 66.6981Z" fill="#0F1D2E" stroke="#0F1D2E" stroke-linecap="round" stroke-linejoin="round"/>
<path fill-rule="evenodd" clip-rule="evenodd" d="M30.3091 45.4618C29.319 45.4618 28.4295 45.8865 27.8102 46.5665C27.263 47.1675 26.9306 47.964 26.9306 48.8403C26.9306 50.7062 28.4432 52.2188 30.3091 52.2188C32.175 52.2188 33.6876 50.7062 33.6876 48.8403C33.6876 46.9744 32.175 45.4618 30.3091 45.4618ZM26.3828 45.2667C27.3525 44.2018 28.7532 43.5312 30.3091 43.5312C33.2412 43.5312 35.6182 45.9082 35.6182 48.8403C35.6182 51.7725 33.2412 54.1494 30.3091 54.1494C27.377 54.1494 25 51.7725 25 48.8403C25 47.4647 25.5245 46.2092 26.3828 45.2667Z" fill="#0F1D2E" stroke="#0F1D2E" stroke-linecap="round" stroke-linejoin="round"/>
<path fill-rule="evenodd" clip-rule="evenodd" d="M44.757 42.566C43.3426 42.566 42.0714 43.1731 41.1873 44.144C40.4058 45.0022 39.9306 46.1407 39.9306 47.3924C39.9306 48.86 40.5845 50.1739 41.6202 51.0606C42.4643 51.7833 43.5586 52.2188 44.757 52.2188C47.4226 52.2188 49.5835 50.058 49.5835 47.3924C49.5835 44.7268 47.4226 42.566 44.757 42.566ZM39.7598 42.8442C40.9944 41.4885 42.7768 40.6354 44.757 40.6354C48.4888 40.6354 51.514 43.6606 51.514 47.3924C51.514 51.1242 48.4888 54.1494 44.757 54.1494C43.081 54.1494 41.5453 53.5379 40.3646 52.5271C38.9188 51.2893 38 49.4476 38 47.3924C38 45.6414 38.6673 44.044 39.7598 42.8442Z" fill="#0F1D2E" stroke="#0F1D2E" stroke-linecap="round" stroke-linejoin="round"/>
<path fill-rule="evenodd" clip-rule="evenodd" d="M30.3853 60.4238C30.3853 59.8907 30.8174 59.4585 31.3505 59.4585L36.177 59.4585C36.7101 59.4585 37.1423 59.8907 37.1423 60.4238C37.1423 60.9569 36.7101 61.3891 36.177 61.3891L31.3505 61.3891C30.8174 61.3891 30.3853 60.9569 30.3853 60.4238Z" fill="#0F1D2E"/>
</svg>
