<svg width="96" height="96" viewBox="0 0 96 96" fill="none" xmlns="http://www.w3.org/2000/svg">
<path d="M77.88 77.35V37.31L50.99 22.84C49.36 21.72 46.95 21.72 45.32 22.84L18.43 37.31V77.35H10V79.35H86V77.35H77.88ZM75.88 77.35H20.43V38.5L46.32 24.58L46.43 24.51C47.39 23.83 48.94 23.83 49.89 24.51L75.88 38.5V77.35Z" fill="#002341"/>
<path d="M31.92 51.45C31.92 58.54 37.69 64.32 44.79 64.32C47.76 64.32 50.49 63.3 52.66 61.61L63.16 70.39C63.79 70.93 64.56 71.24 65.32 71.26C65.35 71.26 65.39 71.26 65.42 71.26C66.22 71.26 66.95 70.94 67.44 70.37C67.95 69.78 68.15 68.97 67.99 68.14C67.85 67.39 67.42 66.68 66.78 66.13L56.21 57.35C57.13 55.58 57.65 53.58 57.65 51.46C57.65 44.37 51.88 38.59 44.78 38.59C37.68 38.59 31.91 44.36 31.91 51.46L31.92 51.45ZM65.49 67.66C65.77 67.9 65.96 68.21 66.02 68.52C66.05 68.65 66.07 68.9 65.92 69.07C65.77 69.24 65.53 69.26 65.39 69.26C65.08 69.25 64.74 69.11 64.45 68.86L54.15 60.25C54.5 59.87 54.83 59.48 55.14 59.06L65.49 67.66ZM55.65 51.45C55.65 57.44 50.77 62.32 44.78 62.32C38.79 62.32 33.91 57.44 33.91 51.45C33.91 45.46 38.79 40.58 44.78 40.58C50.77 40.58 55.65 45.46 55.65 51.45Z" fill="#002341"/>
</svg>
