<svg width="96" height="96" viewBox="0 0 96 96" fill="none" xmlns="http://www.w3.org/2000/svg">
<path d="M77.88 74.35V34.31L50.99 19.84C49.36 18.72 46.95 18.72 45.32 19.84L18.43 34.31V74.35H10V76.35H86V74.35H77.88ZM20.43 74.35V35.5L46.32 21.58L46.43 21.51C47.39 20.83 48.94 20.83 49.89 21.51L75.88 35.5V74.35H20.43Z" fill="#002341"/>
<path d="M62.47 68.43H33.75V46.72H40.87L44.37 42.78H51.84L55.34 46.72H62.46V68.43H62.47ZM35.75 66.43H60.47V48.72H54.45L50.95 44.78H45.28L41.78 48.72H35.76V66.43H35.75Z" fill="#002341"/>
<path d="M47.89 64.04C44.2 64.04 41.2 61.04 41.2 57.35C41.2 53.66 44.2 50.66 47.89 50.66C51.58 50.66 54.58 53.66 54.58 57.35C54.58 61.04 51.58 64.04 47.89 64.04ZM47.89 52.65C45.3 52.65 43.2 54.76 43.2 57.34C43.2 59.92 45.31 62.03 47.89 62.03C50.47 62.03 52.58 59.92 52.58 57.34C52.58 54.76 50.47 52.65 47.89 52.65Z" fill="#002341"/>
<path d="M42.22 39.95C42.46 40.28 42.85 40.42 43.22 40.34C43.36 40.31 43.49 40.26 43.61 40.17C44.06 39.85 44.16 39.22 43.83 38.77L40.68 34.41C40.36 33.96 39.73 33.86 39.28 34.19C38.83 34.51 38.73 35.14 39.06 35.59L42.21 39.95H42.22Z" fill="#002341"/>
<path d="M47.89 39.31C48.44 39.31 48.89 38.86 48.89 38.31V32.31C48.89 31.76 48.44 31.31 47.89 31.31C47.34 31.31 46.89 31.76 46.89 32.31V38.31C46.89 38.86 47.34 39.31 47.89 39.31Z" fill="#002341"/>
<path d="M52.38 40.21C52.51 40.29 52.64 40.34 52.78 40.35C53.16 40.4 53.54 40.23 53.75 39.89L56.59 35.32C56.88 34.85 56.74 34.23 56.27 33.94C55.8 33.65 55.19 33.79 54.89 34.26L52.05 38.83C51.76 39.3 51.9 39.92 52.37 40.21H52.38Z" fill="#002341"/>
</svg>
