<svg width="96" height="96" viewBox="0 0 96 96" fill="none" xmlns="http://www.w3.org/2000/svg">
<path d="M27.9653 74L24.2412 56H69.9998L64.8274 74H27.9653Z" fill="#8FC1FF"/>
<path fill-rule="evenodd" clip-rule="evenodd" d="M43.6779 17.6048C46.038 15.1539 49.9616 15.1539 52.3217 17.6048L72.1786 38.2253C74.6254 40.7661 72.8247 44.9999 69.2973 44.9999H65.9998V47.9999C65.9998 49.1044 65.1044 49.9999 63.9998 49.9999C62.8953 49.9999 61.9998 49.1044 61.9998 47.9999V43.9999C61.9998 42.343 63.343 40.9999 64.9998 40.9999L69.2973 40.9999L49.4405 20.3794C48.6538 19.5624 47.3459 19.5624 46.5592 20.3794L26.7023 40.9999H30.9998C32.6567 40.9999 33.9998 42.343 33.9998 43.9999V47.9999C33.9998 49.1044 33.1044 49.9999 31.9998 49.9999C30.8953 49.9999 29.9998 49.1044 29.9998 47.9999V44.9999H26.7023C23.175 44.9999 21.3743 40.7661 23.821 38.2253L43.6779 17.6048Z" fill="#0F1D2E"/>
<path fill-rule="evenodd" clip-rule="evenodd" d="M16 50C16 48.8954 16.8954 48 18 48H23C23.9484 48 24.7664 48.6661 24.9585 49.5948L25.8699 54H70C70.6281 54 71.2197 54.2951 71.5976 54.7968C71.9755 55.2986 72.0957 55.9487 71.9222 56.5524L66.7498 74.5524C66.5035 75.4095 65.7194 76 64.8276 76H27.9655C27.0171 76 26.1991 75.3339 26.007 74.4052L22.2914 56.4463C22.2855 56.4204 22.2801 56.3944 22.2752 56.3682L21.3714 52H18C16.8954 52 16 51.1046 16 50ZM26.6975 58L29.5941 72H63.3214L67.3444 58H26.6975Z" fill="#0F1D2E"/>
<path d="M39 84C39 86.2091 37.2091 88 35 88C32.7909 88 31 86.2091 31 84C31 81.7909 32.7909 80 35 80C37.2091 80 39 81.7909 39 84Z" fill="#0F1D2E"/>
<path d="M65 83.9999C65 86.209 63.2091 87.9999 61 87.9999C58.7909 87.9999 57 86.209 57 83.9999C57 81.7907 58.7909 79.9999 61 79.9999C63.2091 79.9999 65 81.7907 65 83.9999Z" fill="#0F1D2E"/>
<path d="M50 41.9994C50 40.8948 50.8954 39.9994 52 39.9994H56C57.1046 39.9994 58 40.8948 58 41.9994V47.9994C58 49.104 57.1046 49.9994 56 49.9994H52C50.8954 49.9994 50 49.104 50 47.9994V41.9994Z" fill="#0F1D2E"/>
<path d="M38 39.9994C38 38.8948 38.8954 37.9994 40 37.9994H44C45.1046 37.9994 46 38.8948 46 39.9994V43.9994C46 45.104 45.1046 45.9994 44 45.9994H40C38.8954 45.9994 38 45.104 38 43.9994V39.9994Z" fill="#0F1D2E"/>
</svg>
