<svg width="96" height="96" viewBox="0 0 96 96" fill="none" xmlns="http://www.w3.org/2000/svg">
<path d="M61.0444 63C65 63 65 65.9997 65 66.9999C65 66.9999 75.411 62.9531 78 61.9999C80.9039 60.9306 82.7613 61.75 83.6307 64.1249C84.5 66.4999 83.6384 67.9303 81.0494 69.3602C78.4604 70.7901 63.8829 79.0466 62 79.9999C60.1171 80.9531 53.5514 84.3548 48.138 82.4483C42.7246 80.5418 26 75 26 75V78C26 79.1046 25.1046 80 24 80H20.3273C18.399 80 16.7453 78.6243 16.3941 76.7284L12 53H26V56C31.187 56.0196 44.1044 56.4691 48.7833 61.5073C49.9988 62.8161 51.032 63 52 63H61.0444Z" fill="#8FC1FF"/>
<path fill-rule="evenodd" clip-rule="evenodd" d="M10.4624 51.721C10.8424 51.2642 11.4058 51 12 51H26C27.1046 51 28 51.8954 28 53V54.0277C30.6694 54.0927 34.2998 54.2964 37.9113 54.899C40.2228 55.2846 42.5799 55.8421 44.6977 56.6576C46.7981 57.4665 48.7925 58.5782 50.2488 60.1463C50.6906 60.622 51.0124 60.8027 51.2184 60.884C51.4268 60.9662 51.6493 61 52 61H61.0436L61.0444 63L61.0443 65H52C51.3828 65 50.6046 64.9419 49.7505 64.6049C48.8941 64.267 48.0915 63.7014 47.3178 62.8683C46.4347 61.9173 45.0598 61.0834 43.2602 60.3904C41.4779 59.7041 39.4042 59.2033 37.253 58.8444C33.928 58.2896 30.5456 58.0938 28 58.029V73.5564C28.3784 73.682 28.8254 73.8305 29.3287 73.9978C30.9819 74.5474 33.2428 75.3 35.673 76.1124C40.5264 77.7346 46.0774 79.6022 48.8024 80.5619C50.94 81.3147 53.4574 81.0568 55.8423 80.3738C58.12091 37.2091 88 35 88C32.7909 88 31 86.2091 31 84C31 81.7909 32.7909 80 35 80C37.2091 80 39 81.7909 39 84Z" fill="#0F1D2E"/>
<path d="M65 83.9999C65 86.209 63.2091 87.9999 61 87.9999C58.7909 87.9999 57 86.209 57 83.9999C57 81.7907 58.7909 79.9999 61 79.9999C63.2091 79.9999 65 81.7907 65 83.9999Z" fill="#0F1D2E"/>
<path d="M50 41.9994C50 40.8948 50.8954 39.9994 52 39.9994H56C57.1046 39.9994 58 40.8948 58 41.9994V47.9994C58 49.104 57.1046 49.9994 56 49.9994H52C50.8954 49.9994 50 49.104 50 47.9994V41.9994Z" fill="#0F1D2E"/>
<path d="M38 39.9994C38 38.8948 38.8954 37.9994 40 37.9994H44C45.1046 37.9994 46 38.8948 46 39.9994V43.9994C46 45.104 45.1046 45.9994 44 45.9994H40C38.8954 45.9994 38 45.104 38 43.9994V39.9994Z" fill="#0F1D2E"/>
</svg>
845 68.76C62.5771 68.6565 62.6847 68.534 62.7635 68.3944C62.9703 68.0276 63 67.5271 63 66.9999C63 66.4719 62.9701 65.9729 62.7644 65.6089C62.6865 65.4711 62.5804 65.3506 62.3896 65.2488C62.1847 65.1394 61.7824 65 61.0443 65L61.0444 63L61.0436 61C63.6214 61 65.3417 62.0394 66.2468 63.6409C66.3619 63.8447 66.4595 64.0509 66.5422 64.256C67.4738 63.8948 68.6141 63.4532 69.8082 62.9918C72.7278 61.8636 75.9958 60.6065 77.309 60.123C79.0103 59.4966 80.7449 59.2941 82.3102 59.9095C83.9288 60.546 84.9408 61.8857 85.5088 63.4374C86.066 64.9597 86.1816 66.5285 85.4139 68.0148C84.7065 69.3843 83.4144 70.3388 82.0163 71.1109C81.1906 71.5669 79.0468 72.7733 76.4732 74.2214C71.2262 77.1738 64.193 81.1313 62.9034 81.7842C62.8708 81.8007 62.8367 81.818 62.801 81.8361C61.8057 82.3408 59.604 83.4573 56.9436 84.2192C54.2216 84.9987 50.7494 85.4884 47.4736 84.3347C44.7852 83.3879 39.2672 81.5313 34.405 79.906C31.9774 79.0946 29.7187 78.3427 28.0669 77.7936C28.0445 77.7861 28.0222 77.7787 28 77.7713V78C28 80.2091 26.2092 82 24 82H20.3273C17.4349 82 14.9543 79.9365 14.4276 77.0925L10.0335 53.3642C9.92526 52.7799 10.0824 52.1778 10.4624 51.721ZM24 56.0014C24 56.0006 24 55.9998 24 55.999V55H14.4044L18.3607 76.3642C18.5363 77.3122 19.3632 78 20.3273 78H24V56.0014Z" fill="#0F1D2E"/>
<path fill-rule="evenodd" clip-rule="evenodd" d="M43.6779 17.6048C46.038 15.1539 49.9616 15.1539 52.3217 17.6048L72.1786 38.2253C74.6254 40.7661 72.8247 44.9999 69.2973 44.9999H65.9998V54.9999C65.9998 56.1044 65.1044 56.9999 63.9998 56.9999C62.8953 56.9999 61.9998 56.1044 61.9998 54.9999V43.9999C61.9998 42.343 63.343 40.9999 64.9998 40.9999L69.2973 40.9999L49.4405 20.3794C48.6538 19.5624 47.3459 19.5624 46.5592 20.3794L26.7023 40.9999H30.9998C32.6567 40.9999 33.9998 42.343 33.9998 43.9999V47.9999C33.9998 49.1044 33.1044 49.9999 31.9998 49.9999C30.8953 49.9999 29.9998 49.1044 29.9998 47.9999V44.9999H26.7023C23.175 44.9999 21.3743 40.7661 23.821 38.2253L43.6779 17.6048Z" fill="#0F1D2E"/>
<path d="M50 43.9994C50 42.8948 50.8954 41.9994 52 41.9994H56C57.1046 41.9994 58 42.8948 58 43.9994V54.9994C58 56.104 57.1046 56.9994 56 56.9994H52C50.8954 56.9994 50 56.104 50 54.9994V43.9994Z" fill="#0F1D2E"/>
<path d="M38 41.9994C38 40.8948 38.8954 39.9994 40 39.9994H44C45.1046 39.9994 46 40.8948 46 41.9994V45.9994C46 47.104 45.1046 47.9994 44 47.9994H40C38.8954 47.9994 38 47.104 38 45.9994V41.9994Z" fill="#0F1D2E"/>
</svg>
