<svg width="96" height="96" viewBox="0 0 96 96" fill="none" xmlns="http://www.w3.org/2000/svg">
<path d="M57.3598 28.7295C56.5829 27.8929 55.4887 27.3936 54.4327 27.3895C52.1118 27.3963 50.4782 28.7752 49.8398 31.0995H57.4698V33.0995H49.5498V33.4595C49.5498 33.6994 49.5598 33.9293 49.5698 34.1593L55.8998 34.1595V36.1595H49.9298C50.5998 38.2395 52.0998 39.4495 54.1698 39.4495C55.4998 39.4495 56.5798 38.9295 57.5498 37.8195L59.0498 39.1395C57.6898 40.6895 56.0898 41.4495 54.1598 41.4495C50.9398 41.4495 48.6298 39.4495 47.8398 36.1595H46.5798V34.1595H47.5598C47.5398 33.9295 47.5398 33.6995 47.5398 33.4595V33.0995H46.5698V31.0995H47.7598C48.4998 27.5595 50.9598 25.3895 54.4298 25.3895C56.0598 25.3895 57.6598 26.1095 58.8298 27.3695L57.3598 28.7295Z" fill="#002341"/>
<path fill-rule="evenodd" clip-rule="evenodd" d="M73.2098 22.7395L56.1898 13.5795C55.0498 12.8095 53.3798 12.8095 52.2498 13.5795L35.2198 22.7395V49.6795H73.2198V22.7395H73.2098ZM37.2098 47.6795V23.9295L53.2398 15.3095L53.3498 15.2395C53.8198 14.9095 54.6098 14.9095 55.0898 15.2395L71.2198 23.9295V47.6795H37.2098Z" fill="#002341"/>
<path fill-rule="evenodd" clip-rule="evenodd" d="M82.0198 57.0095C81.7898 55.7995 81.0798 55.2195 80.5198 54.9595C78.3798 53.9295 74.8498 55.7195 74.4998 55.9095L63.7198 60.8895C63.5698 60.2795 63.2498 59.7195 62.7698 59.2695C60.7898 57.4295 56.6598 57.6595 56.2698 57.6895H53.8098C52.3498 57.6895 50.9598 57.3795 49.6898 56.7595C47.6898 55.7895 44.6198 54.5895 41.3198 54.4295C35.7798 54.1595 32.7598 56.0095 28.4598 59.0795C26.8598 60.2195 22.9598 62.2095 20.9798 63.1995L19.4398 59.9995L13.0098 63.0795L13.8698 64.8795L18.4998 62.6595L28.1898 82.8695L23.5598 85.0895L24.4198 86.8895L30.8498 83.7995L28.9398 79.8095L32.0198 78.6095C35.1398 77.4095 38.6598 76.8895 42.4698 77.0595C44.4998 77.1495 47.3398 77.2695 50.0198 77.3595C53.9198 77.4895 57.8598 76.6695 61.4098 74.9895L62.9198 74.2795C65.1398 73.2295 67.4098 71.8495 69.8598 70.0695C70.4898 69.6095 71.1798 69.1195 71.8898 68.6195C76.9898 65.0195 82.7698 60.9295 82.0298 57.0195L82.0198 57.0095ZM70.285 67.284L70.2842 67.2846C69.7219 67.682 69.1767 68.0672 68.6698 68.4395C66.3198 70.1495 64.1598 71.4695 62.0498 72.4595L60.5398 73.1695C57.2698 74.7195 53.6398 75.4695 50.0698 75.3495C47.3998 75.2595 44.5698 75.1395 42.5498 75.0495C38.4598 74.8695 34.6698 75.4295 31.2898 76.7295L28.0698 77.9895L21.8298 64.9795C23.8398 63.9795 27.8698 61.9195 29.6098 60.6795C33.9298 57.5995 36.4798 56.1695 41.2098 56.3995C44.1698 56.5395 46.9698 57.6395 48.7998 58.5295C50.3498 59.2795 52.0298 59.6695 53.7998 59.6695H56.3298C57.2798 59.5995 60.2598 59.6495 61.3998 60.7195C61.6898 60.9895 61.8198 61.2995 61.8198 61.6895C61.8198 61.9995 61.7098 62.2295 61.4798 62.4695C60.5398 63.3995 57.9498 63.6995 56.5198 63.6695H45.2098V65.6695H56.6798C57.6098 65.6695 61.1798 65.5595 62.8798 63.8895C63.0898 63.6795 63.2498 63.4595 63.3898 63.2195L75.3698 57.6895C76.6098 57.0395 78.7398 56.3195 79.6398 56.7495C79.7998 56.8295 79.9698 56.9595 80.0498 57.3795C80.5498 60.0195 74.6398 64.1995 70.7198 66.9695H70.7298C70.5805 67.0752 70.4322 67.1801 70.285 67.284Z" fill="#002341"/>
</svg>
