<svg width="96" height="96" viewBox="0 0 96 96" fill="none" xmlns="http://www.w3.org/2000/svg">
<path fill-rule="evenodd" clip-rule="evenodd" d="M27.84 55.4195L37.02 60.2395L37.03 60.2495L35.28 50.0295L42.7 42.7895L32.44 41.2995L27.85 31.9995L23.26 41.2995L13 42.7895L20.41 50.0195L18.66 60.2395L27.84 55.4195ZM22.57 49.3195L17.3 44.1795H17.28L24.57 43.1195L27.83 36.5195L31.09 43.1195L38.38 44.1795L33.11 49.3195L34.36 56.5795L27.84 53.1495L21.32 56.5795L22.57 49.3195Z" fill="#002341"/>
<path fill-rule="evenodd" clip-rule="evenodd" d="M69.09 55.4195L78.27 60.2395L78.28 60.2495L76.53 50.0295L83.95 42.7895L73.69 41.2995L69.1 31.9995L64.5 41.2895L54.24 42.7795L61.66 50.0195L59.91 60.2395L69.09 55.4195ZM75.61 56.5895L69.09 53.1595L62.57 56.5895L63.81 49.3295L58.54 44.1895L65.83 43.1295L69.09 36.5295L72.35 43.1295L79.64 44.1895L74.37 49.3295L75.61 56.5895Z" fill="#002341"/>
</svg>
