<svg width="96" height="96" viewBox="0 0 96 96" fill="none" xmlns="http://www.w3.org/2000/svg">
<path d="M48.5398 20.9995C48.5398 21.5495 48.0898 21.9995 47.5398 21.9995C46.9898 21.9995 46.5398 21.5495 46.5398 20.9995V12.9995C46.5398 12.4495 46.9898 11.9995 47.5398 11.9995C48.0898 11.9995 48.5398 12.4495 48.5398 12.9995V20.9995Z" fill="#002341"/>
<path fill-rule="evenodd" clip-rule="evenodd" d="M79.0598 47.6895C79.0398 47.7595 79.0198 47.8195 78.9898 47.8795L78.9498 47.8595C78.9398 47.8895 78.9298 47.9195 78.9198 47.9395C78.8798 48.0195 78.8198 48.0895 78.7598 48.1595L48.2198 79.2095C48.2098 79.2295 48.1898 79.2395 48.1698 79.2495C48.1601 79.2567 48.1511 79.264 48.1423 79.2712C48.1329 79.279 48.1239 79.2867 48.1149 79.2944C48.0974 79.3094 48.0798 79.3245 48.0598 79.3395C48.0578 79.3415 48.0558 79.3439 48.0538 79.3464C48.0525 79.3481 48.0511 79.3499 48.0498 79.3517C48.0479 79.3542 48.0461 79.3567 48.0442 79.359C48.0427 79.3608 48.0412 79.3625 48.0397 79.364C48.0382 79.3655 48.0366 79.3669 48.035 79.3678C48.0333 79.3689 48.0315 79.3695 48.0298 79.3695C47.9898 79.3895 47.9598 79.3995 47.9298 79.4095C47.9243 79.4123 47.9188 79.4158 47.9131 79.4194C47.898 79.429 47.8815 79.4395 47.8598 79.4395C47.8498 79.4395 47.8398 79.4445 47.8298 79.4495C47.8198 79.4545 47.8098 79.4595 47.7998 79.4595C47.6998 79.4895 47.6098 79.5095 47.5098 79.5095C47.4098 79.5095 47.3198 79.4895 47.2198 79.4595C47.2098 79.4595 47.1998 79.4545 47.1898 79.4495C47.1798 79.4445 47.1698 79.4395 47.1598 79.4395C47.1398 79.4295 47.1098 79.4195 47.0898 79.4095C47.0498 79.3995 47.0198 79.3895 46.9898 79.3695C46.9882 79.368 46.9866 79.3661 46.9851 79.3642L46.9798 79.3573C46.9731 79.3484 46.9664 79.3395 46.9598 79.3395C46.9357 79.3275 46.9152 79.3082 46.894 79.2882C46.88 79.275 46.8657 79.2614 46.8498 79.2495C46.8398 79.2295 46.7998 79.2095 46.7998 79.2095L16.2598 48.1595C16.1998 48.0995 16.1398 48.0195 16.0998 47.9395L16.0698 47.8495C16.0653 47.8384 16.0603 47.8267 16.0552 47.8147C16.0374 47.7727 16.0175 47.7261 16.0098 47.6795V47.4095C16.0098 47.3895 16.0148 47.372 16.0198 47.3545C16.0248 47.337 16.0298 47.3195 16.0298 47.2995L16.034 47.278C16.0428 47.2329 16.0526 47.1825 16.0698 47.1395C16.0798 47.1295 16.0798 47.1095 16.0798 47.0995C16.0848 47.0895 16.0922 47.0771 16.0997 47.0646C16.1072 47.0521 16.1148 47.0395 16.1198 47.0295C16.1298 46.9995 16.1598 46.9395 16.1598 46.9395L26.3598 31.4895C26.3898 31.4495 26.4198 31.4095 26.4598 31.3695C26.4698 31.3495 26.4898 31.3295 26.4998 31.3195C26.5798 31.2495 26.6698 31.1895 26.7698 31.1395C26.7745 31.1372 26.7798 31.1342 26.7853 31.1312C26.8034 31.1212 26.8245 31.1095 26.8398 31.1095C26.9498 31.0695 27.0698 31.0395 27.1898 31.0395H67.8898C68.0098 31.0395 68.1298 31.0695 68.2398 31.1095C68.2498 31.1145 68.2623 31.1195 68.2748 31.1245L68.2786 31.126C68.2898 31.1305 68.3008 31.135 68.3098 31.1395C68.4198 31.1895 68.5098 31.2495 68.5898 31.3295C68.6037 31.3365 68.6128 31.3483 68.6204 31.3582C68.6237 31.3625 68.6267 31.3665 68.6298 31.3695C68.6698 31.4095 68.7398 31.4895 68.7398 31.4895L78.9098 46.9295C78.9198 46.9445 78.9272 46.9595 78.9347 46.9745C78.9422 46.9894 78.9498 47.0045 78.9598 47.0195C78.9648 47.0345 78.9723 47.0445 78.9798 47.0545C78.9873 47.0645 78.9948 47.0745 78.9998 47.0895V47.1295C79.0198 47.1895 79.0298 47.2395 79.0398 47.2995L79.0449 47.3193C79.0529 47.3501 79.0598 47.3764 79.0598 47.4095C79.0664 47.4495 79.0642 47.4895 79.062 47.5295L79.061 47.5472C79.0603 47.5613 79.0598 47.5754 79.0598 47.5895V47.6895ZM56.1698 48.4895H38.8898L47.5298 75.2795L56.1698 48.4895ZM47.5498 33.8695L39.2198 46.4895H55.8598L47.5498 33.8695ZM66.0598 33.0495H49.4198L57.7298 45.6695L66.0598 33.0495ZM29.0498 33.0495L37.3598 45.6695H37.3698L45.6998 33.0495H29.0498ZM76.2198 46.4795L67.9098 33.8595H67.8998L59.5698 46.4795H76.2198ZM35.4998 46.4795L27.1898 33.8595H27.1798L18.8498 46.4795H35.4998ZM36.7998 48.4795H19.3798V48.4895L45.2898 74.8195L36.7998 48.4795ZM58.2698 48.4795L49.7798 74.8195L75.6898 48.4795H58.2698Z" fill="#002341"/>
<path d="M37.5798 24.7295C37.7598 24.8795 37.9798 24.9495 38.1998 24.9495C38.4898 24.9495 38.7898 24.8195 38.9798 24.5695C39.3198 24.1395 39.2498 23.5095 38.8198 23.1595L32.5598 18.1795C32.1298 17.8395 31.4998 17.9095 31.1498 18.3395C30.8098 18.7695 30.8798 19.3995 31.3098 19.7495L37.5698 24.7295H37.5798Z" fill="#002341"/>
<path d="M57.4898 24.7295C57.3098 24.8795 57.0898 24.9495 56.8698 24.9495H56.8598C56.5698 24.9495 56.2798 24.8195 56.0798 24.5695C55.7398 24.1295 55.8098 23.4995 56.2398 23.1595L62.4998 18.1795C62.9398 17.8395 63.5698 17.9095 63.9098 18.3395C64.2498 18.7795 64.1798 19.4095 63.7498 19.7495L57.4898 24.7295Z" fill="#002341"/>
</svg>
