<svg width="96" height="96" viewBox="0 0 96 96" fill="none" xmlns="http://www.w3.org/2000/svg">
<path fill-rule="evenodd" clip-rule="evenodd" d="M37.02 46.2395L27.84 41.4195L18.66 46.2395L20.41 36.0195L13 28.7895L23.26 27.2995L27.85 17.9995L32.44 27.2995L42.7 28.7895L35.28 36.0295L37.03 46.2495L37.02 46.2395ZM17.3 30.1795L22.57 35.3195L21.32 42.5795L27.84 39.1495L34.36 42.5795L33.11 35.3195L38.38 30.1795L31.09 29.1195L27.83 22.5195L24.57 29.1195L17.28 30.1795H17.3Z" fill="#002341"/>
<path fill-rule="evenodd" clip-rule="evenodd" d="M47.78 70.0695L38.6 74.8895L40.35 64.6695L32.93 57.4295L43.19 55.9395L47.78 46.6395L52.37 55.9395L62.63 57.4295L55.21 64.6695L56.96 74.8895L47.78 70.0695ZM47.78 67.8095L54.3 71.2395L53.06 63.9795L58.33 58.8395L51.04 57.7795L47.78 51.1695L44.52 57.7795L37.23 58.8395L42.5 63.9795L41.26 71.2395L47.78 67.8095Z" fill="#002341"/>
<path fill-rule="evenodd" clip-rule="evenodd" d="M69.09 41.4195L78.27 46.2395L78.28 46.2495L76.53 36.0295L83.95 28.7895L73.69 27.2995L69.1 17.9995L64.5 27.2895L54.24 28.7795L61.66 36.0195L59.91 46.2395L69.09 41.4195ZM75.61 42.5895L69.09 39.1595H69.07L62.55 42.5895L63.8 35.3295L58.53 30.1895L65.82 29.1295L69.08 22.5295L72.34 29.1295L79.63 30.1895L74.36 35.3295L75.61 42.5895Z" fill="#002341"/>
</svg>
