<svg width="96" height="96" viewBox="0 0 96 96" fill="none" xmlns="http://www.w3.org/2000/svg">
<path fill-rule="evenodd" clip-rule="evenodd" d="M42.08 48.71H44.86L42.66 46.19C44.04 44.85 44.84 42.93 44.84 40.69C44.84 36.43 41.9 33.29 37.7 33.29C33.5 33.29 30.56 36.43 30.56 40.69C30.56 44.95 33.52 48.09 37.7 48.09C38.9 48.09 39.98 47.83 40.94 47.37L42.08 48.71ZM37.7 45.63C34.98 45.63 33.28 43.53 33.28 40.71C33.28 37.89 34.96 35.75 37.7 35.75C40.44 35.75 42.14 37.89 42.14 40.71C42.14 42.11 41.72 43.35 40.96 44.23L39.2 42.21H36.5L39.22 45.39C38.76 45.55 38.26 45.63 37.7 45.63Z" fill="#002341"/>
<path fill-rule="evenodd" clip-rule="evenodd" d="M62.03 55.14L57.45 69.14H60.11L61.15 65.82H66.43L67.47 69.14H70.19L65.57 55.14H62.03ZM61.77 63.78L63.77 57.4L65.77 63.78H61.77Z" fill="#002341"/>
<path fill-rule="evenodd" clip-rule="evenodd" d="M38 15C52.03 15 63.5 26.18 63.98 40.09H63.97C74.68 41.04 83.11 50.05 83.11 61V82H62.11C52.66 82 44.42 75.66 41.9 66.71C41.855 66.715 41.8125 66.72 41.77 66.725C41.7275 66.73 41.685 66.735 41.64 66.74C41.61 66.75 41.57 66.75 41.54 66.75C41.18 66.8 40.81 66.85 40.44 66.88C40.35 66.89 40.25 66.9 40.16 66.9C39.86 66.93 39.55 66.96 39.24 66.97C38.83 66.99 38.41 67 38 67H12V41C12 26.66 23.97 15 38 15ZM14 41V65H38C38.72 65 39.46 64.97 40.19 64.9H40.25C40.97 64.83 41.7 64.72 42.42 64.59C53.54 62.51 61.99 52.74 62 41.03V41C62 29.42 53.75 19.73 42.83 17.49C41.27 17.17 39.65 17 38 17C24.77 17 14 27.77 14 41ZM62.12 80H81.13V61C81.13 51.15 73.59 43.03 63.98 42.09C63.49 53.92 55.05 63.73 43.88 66.32C46.21 74.34 53.63 80 62.12 80Z" fill="#002341"/>
</svg>
