<svg width="96" height="96" viewBox="0 0 96 96" fill="none" xmlns="http://www.w3.org/2000/svg">
<path d="M63.9 57.18H31.86V59.18H63.9V57.18Z" fill="#002341"/>
<path d="M31.78 68.49H63.9V70.49H31.78V68.49Z" fill="#002341"/>
<path d="M46.2365 29.8143L46.2203 38.2643L48.2203 38.2681L48.2365 29.8181L46.2365 29.8143Z" fill="#002341"/>
<path d="M48.52 41.39C48.52 42.0748 47.9648 42.63 47.28 42.63C46.5952 42.63 46.04 42.0748 46.04 41.39C46.04 40.7052 46.5952 40.15 47.28 40.15C47.9648 40.15 48.52 40.7052 48.52 41.39Z" fill="#002341"/>
<path fill-rule="evenodd" clip-rule="evenodd" d="M63.9 47.87H31.78C31.42 47.87 31.09 47.68 30.91 47.37C30.73 47.06 30.73 46.68 30.91 46.37L46.41 20.12C46.59 19.82 46.91 19.63 47.26 19.63C47.59 19.64 47.93 19.8 48.12 20.09L64.74 46.34C64.94 46.65 64.95 47.04 64.77 47.36C64.59 47.68 64.26 47.88 63.89 47.88L63.9 47.87ZM33.53 45.87H62.08L47.3 22.54L33.53 45.87Z" fill="#002341"/>
<path fill-rule="evenodd" clip-rule="evenodd" d="M73.68 79.3H22V10H73.68V79.3ZM24 77.3H71.68V12H24V77.3Z" fill="#002341"/>
</svg>
