<svg width="96" height="96" viewBox="0 0 96 96" fill="none" xmlns="http://www.w3.org/2000/svg">
<path fill-rule="evenodd" clip-rule="evenodd" d="M67.23 28.9C68.33 30.02 69.8 30.59 71.26 30.59C72.72 30.59 74.11 30.05 75.21 28.98C77.43 26.8 77.47 23.22 75.29 21C74.24 19.93 72.83 19.33 71.32 19.32C69.82 19.35 68.39 19.88 67.31 20.93C65.09 23.11 65.05 26.69 67.23 28.91V28.9ZM68.71 22.35C69.39 21.68 70.3 21.31 71.26 21.31H71.3C72.28 21.31 73.19 21.7 73.87 22.39C75.28 23.82 75.26 26.14 73.82 27.54C72.39 28.95 70.07 28.92 68.67 27.49C67.26 26.06 67.29 23.74 68.72 22.34L68.71 22.35Z" fill="#002341"/>
<path d="M58.08 36.62C58.47 36.23 59.1 36.23 59.49 36.63C59.88 37.02 59.87 37.65 59.48 38.04L43.2 54.01C43.01 54.2 42.75 54.3 42.5 54.3C42.25 54.3 41.99 54.2 41.79 54C41.4 53.61 41.41 52.98 41.8 52.59L58.08 36.62Z" fill="#002341"/>
<path fill-rule="evenodd" clip-rule="evenodd" d="M82.5 13.84C88.21 19.65 78.23 37.31 73.02 43.01V43.02C73.0085 43.0353 72.9999 43.0522 72.9914 43.0688C72.9779 43.0954 72.9646 43.1215 72.94 43.14C72.93 43.15 72.9175 43.1575 72.905 43.165C72.8925 43.1725 72.88 43.18 72.87 43.19C72.7874 43.2726 72.7074 43.3552 72.6302 43.435C72.5578 43.5098 72.4876 43.5823 72.42 43.65L67.9 48.09L66.98 57.84C66.95 58.28 66.77 58.72 66.47 59.08L58.43 68.71C58 69.2299 57.39 69.51 56.75 69.51C56.47 69.51 56.19 69.45 55.91 69.34C55.01 68.98 54.47 68.11 54.53 67.14L54.95 60.81L46.91 68.71L44.17 65.92L35.37 68.13L27.21 59.82L29.69 51.17L26.94 48.37L34.94 40.54L28.72 40.84H28.61C27.68 40.84 26.88 40.29 26.55 39.41C26.2 38.5 26.47 37.51 27.23 36.9L37.01 29.05C37.38 28.75 37.82 28.58 38.29 28.56L47.93 27.84L52.52 23.35C52.625 23.2375 52.7469 23.125 52.8687 23.0125C52.9094 22.975 52.95 22.9375 52.99 22.9C53 22.89 53.005 22.88 53.01 22.87C53.015 22.86 53.02 22.85 53.03 22.84C53.04 22.83 53.055 22.8225 53.07 22.815C53.085 22.8075 53.1 22.8 53.11 22.79C56.3 19.92 61.97 16.55 67.27 14.4C72.42 12.31 79.24 10.52 82.5 13.84ZM29.46 59.25L36 65.91L42.38 64.31L31.26 52.98L29.46 59.25ZM81.07 15.24C79.16 13.29 74.41 13.66 68.02 16.25L68.01 16.26C62.86 18.35 58.02 21.33 55.2 23.64L72.19 40.95C77.92 34.32 85.05 19.3 81.07 15.24ZM28.42 38.7C28.48 38.84 28.63 38.84 28.63 38.84V38.83L37.1 38.42L45.71 30L38.42 30.55C38.35 30.56 38.27 30.6 38.27 30.6L28.49 38.46C28.45 38.49 28.37 38.56 28.42 38.7ZM53.72 24.97L29.78 48.4L46.94 65.88L70.83 42.4L53.72 24.97ZM64.94 57.79C64.97 57.76 64.99 57.67 64.99 57.67L65.69 50.26L57.1 58.7L56.53 67.27C56.52 67.31 56.52 67.42 56.66 67.48C56.8 67.54 56.9 67.42 56.9 67.42L64.94 57.79Z" fill="#002341"/>
<path d="M23.21 63.65C23.6 63.26 24.23 63.26 24.62 63.66V63.65C25.01 64.04 25 64.67 24.61 65.06L17.7 71.84C17.51 72.04 17.25 72.13 17 72.13C16.75 72.13 16.49 72.03 16.29 71.83C15.9 71.44 15.91 70.81 16.3 70.42L23.21 63.65Z" fill="#002341"/>
<path d="M29.98 70.54L23.07 77.32C22.68 77.71 22.67 78.34 23.06 78.73C23.26 78.93 23.52 79.03 23.77 79.03C24.02 79.03 24.28 78.93 24.47 78.74L31.38 71.96C31.77 71.57 31.78 70.94 31.39 70.55C31 70.15 30.37 70.15 29.98 70.54Z" fill="#002341"/>
<path d="M27.93 68.45L24.01 72.29C23.82 72.49 23.56 72.58 23.31 72.58C23.06 72.58 22.8 72.48 22.6 72.28C22.21 71.89 22.22 71.26 22.61 70.87L26.53 67.03C26.92 66.64 27.55 66.64 27.94 67.04C28.33 67.43 28.32 68.06 27.93 68.45Z" fill="#002341"/>
</svg>
