<svg width="96" height="96" viewBox="0 0 96 96" fill="none" xmlns="http://www.w3.org/2000/svg">
<path d="M44.46 27.7502C45.92 26.7502 48.07 26.7502 49.53 27.7502L73 40.3202V54.0502L71 54.0502V41.5202L48.43 29.4102C47.64 28.8502 46.36 28.8502 45.57 29.4102L45.46 29.4802L23 41.5302L23 54.0602H21L21 40.3302L44.46 27.7502Z" fill="#002341"/>
<path fill-rule="evenodd" clip-rule="evenodd" d="M60.33 55.9802C60.6867 55.8613 61.0827 55.9584 61.3525 56.2229L63.75 58.6902C64.13 59.0802 64.13 59.7002 63.74 60.0902L57.53 66.3002C57.33 66.4902 57.08 66.5902 56.82 66.5902C56.58 66.5902 56.33 66.5002 56.14 66.3202L53.25 63.6402C52.92 63.3302 52.84 62.8502 53.04 62.4502L53.82 60.9402L53.18 60.3202L51.29 60.9702C50.93 61.0902 50.53 61.0002 50.26 60.7302L49.41 59.8902L29.19 80.1102C29 80.2902 28.75 80.4002 28.48 80.4002C28.21 80.4002 27.96 80.3002 27.77 80.1102L24.63 76.9702C24.24 76.5802 24.24 75.9502 24.63 75.5602L44.83 55.3902L43.73 54.2402C43.47 53.9702 43.38 53.5802 43.5 53.2302L44.57 50.0202C43.51 47.0402 37.85 45.0302 35.7 44.4902C35.3 44.3902 35 44.0502 34.95 43.6302C34.9 43.2202 35.12 42.8202 35.49 42.6302C35.68 42.5302 40.34 40.2102 45.46 42.6902C50.03 44.9002 57.72 52.6502 58.04 52.9802C58.29 53.2402 58.38 53.6102 58.29 53.9502L57.68 56.1802L58.24 56.6802L60.33 55.9802ZM55.17 62.7102L56.8 64.2202H56.81L61.64 59.3902L60.36 58.0802L58.31 58.7602C57.96 58.8702 57.59 58.7902 57.32 58.5502L55.87 57.2402C55.59 56.9802 55.48 56.6002 55.58 56.2302L56.2 53.9702C54.55 52.3402 48.28 46.2702 44.58 44.4802C42.69 43.5602 40.85 43.4502 39.39 43.6102C42.15 44.7302 45.8 46.7402 46.58 49.7802C46.63 49.9702 46.62 50.1702 46.56 50.3502L45.58 53.2802L46.75 54.5002C46.7767 54.5336 46.7944 54.5669 46.8122 54.6002C46.8211 54.6169 46.83 54.6336 46.84 54.6502C46.85 54.6602 46.8625 54.6677 46.875 54.6752C46.8875 54.6827 46.9 54.6902 46.91 54.7002C47.3 55.0902 47.3 55.7202 46.91 56.1102L26.75 76.2702L28.48 78.0002L48 58.4802L47.88 58.3602C47.49 57.9702 47.49 57.3402 47.88 56.9502C48.27 56.5602 48.9 56.5602 49.29 56.9502L51.24 58.8902L53.12 58.2402C53.47 58.1202 53.87 58.2102 54.14 58.4702L55.75 60.0402C56.06 60.3502 56.14 60.8202 55.94 61.2102L55.17 62.7102Z" fill="#002341"/>
<path d="M61.3525 56.2229C61.355 56.2253 61.3575 56.2277 61.3599 56.2301L61.35 56.2202L61.3525 56.2229Z" fill="#002341"/>
</svg>
