<svg width="96" height="96" viewBox="0 0 96 96" fill="none" xmlns="http://www.w3.org/2000/svg">
<path fill-rule="evenodd" clip-rule="evenodd" d="M28 49.9999H22V43.9999H28V49.9999ZM24 47.9999H26V45.9999H24V47.9999Z" fill="#002341"/>
<path fill-rule="evenodd" clip-rule="evenodd" d="M47.9999 49.9999H41.9999V43.9999H47.9999V49.9999ZM43.9999 47.9999H45.9999V45.9999H43.9999V47.9999Z" fill="#002341"/>
<path fill-rule="evenodd" clip-rule="evenodd" d="M32 49.9999H38V43.9999H32V49.9999ZM36 47.9999H34V45.9999H36V47.9999Z" fill="#002341"/>
<path fill-rule="evenodd" clip-rule="evenodd" d="M28 57.9999H22V51.9999H28V57.9999ZM24 55.9999H26V53.9999H24V55.9999Z" fill="#002341"/>
<path fill-rule="evenodd" clip-rule="evenodd" d="M41.9999 57.9999H47.9999V51.9999H41.9999V57.9999ZM45.9999 55.9999H43.9999V53.9999H45.9999V55.9999Z" fill="#002341"/>
<path fill-rule="evenodd" clip-rule="evenodd" d="M38 57.9999H32V51.9999H38V57.9999ZM34 55.9999H36V53.9999H34V55.9999Z" fill="#002341"/>
<path fill-rule="evenodd" clip-rule="evenodd" d="M22 65.9999H28V59.9999H22V65.9999ZM26 63.9999H24V61.9999H26V63.9999Z" fill="#002341"/>
<path fill-rule="evenodd" clip-rule="evenodd" d="M47.9999 65.9999H41.9999V59.9999H47.9999V65.9999ZM43.9999 63.9999H45.9999V61.9999H43.9999V63.9999Z" fill="#002341"/>
<path fill-rule="evenodd" clip-rule="evenodd" d="M32 65.9999H38V59.9999H32V65.9999ZM36 63.9999H34V61.9999H36V63.9999Z" fill="#002341"/>
<path d="M65.4699 61.6499C66.1199 63.7799 67.6299 65.0299 69.7299 65.0299C71.0699 65.0299 72.1399 64.5099 73.1199 63.3999L74.6199 64.7199C73.2599 66.2699 71.6599 67.0299 69.7299 67.0299C66.4799 67.0299 64.1699 64.9899 63.3899 61.6499H62.1499V59.6499H63.1299C63.1199 59.4499 63.1199 59.2499 63.1199 59.0399V58.6799H62.1499V56.6799H63.3399C64.0799 53.1399 66.5399 50.9699 70.0099 50.9699C71.6399 50.9699 73.2399 51.6899 74.4099 52.9499L72.9499 54.3099C72.1699 53.4699 71.0699 52.9699 70.0099 52.9699C67.6899 52.9699 66.0399 54.3499 65.3999 56.6799H73.0299V58.6799H65.1099V59.0399C65.1099 59.2498 65.1199 59.4498 65.1299 59.6497L71.4699 59.6499V61.6499H65.4699Z" fill="#002341"/>
<path fill-rule="evenodd" clip-rule="evenodd" d="M77.9999 44.5999V33.28C77.9999 30.37 75.6299 28 72.7199 28H67.9999V22H65.9999V28H26V22H24V28H19.28C16.37 28 14 30.37 14 33.28V68.7199C14 71.6299 16.37 73.9999 19.28 73.9999H61.0199C63.3999 75.2699 66.1199 75.9999 68.9999 75.9999C78.3699 75.9999 85.9999 68.3699 85.9999 58.9999C85.9999 52.9299 82.7999 47.6099 77.9999 44.5999ZM19.28 30H24V32H26V30H65.9999V32H67.9999V30H72.7199C74.5299 30 75.9999 31.47 75.9999 33.28V34.6H16V33.28C16 31.47 17.47 30 19.28 30ZM19.28 71.9999C17.47 71.9999 16 70.5299 16 68.7199V36.6H75.9999V43.5299C73.8599 42.5599 71.4999 41.9999 68.9999 41.9999C59.6299 41.9999 51.9999 49.6299 51.9999 58.9999C51.9999 64.2099 54.3599 68.8799 58.0699 71.9999H19.28ZM68.9999 73.9999C60.7299 73.9999 53.9999 67.2699 53.9999 58.9999C53.9999 50.7299 60.7299 43.9999 68.9999 43.9999C77.2699 43.9999 83.9999 50.7299 83.9999 58.9999C83.9999 67.2699 77.2699 73.9999 68.9999 73.9999Z" fill="#002341"/>
</svg>
