<svg width="96" height="96" viewBox="0 0 96 96" fill="none" xmlns="http://www.w3.org/2000/svg">
<path d="M26 77.3H73.68V49.93H75.68V79.3H24V10H75.68V23.47H73.68V12H26V77.3Z" fill="#002341"/>
<path d="M45.97 19.18H65.89V21.18H45.97V19.18Z" fill="#002341"/>
<path d="M65.89 30.45H45.97V32.45H65.89V30.45Z" fill="#002341"/>
<path d="M33.78 41.72H50.61V43.72H33.78V41.72Z" fill="#002341"/>
<path d="M65.9 67.75H33.78V69.75H65.9V67.75Z" fill="#002341"/>
<path fill-rule="evenodd" clip-rule="evenodd" d="M33.6 16.4H41.16V23.96H33.6V16.4ZM35.6 21.96H39.16V18.4H35.6V21.96Z" fill="#002341"/>
<path fill-rule="evenodd" clip-rule="evenodd" d="M33.6 35.21H41.16V27.65H33.6V35.21ZM35.6 29.65H39.16V33.21H35.6V29.65Z" fill="#002341"/>
<path fill-rule="evenodd" clip-rule="evenodd" d="M83.52 23.52C84.19 24.08 84.59 24.87 84.67 25.74V25.75C84.75 26.62 84.48 27.47 83.92 28.14L83.08 29.14L83.21 29.25C83.41 29.43 83.54 29.67 83.56 29.94C83.58 30.2 83.5 30.47 83.32 30.67L82.18 31.98C82.75 32.39 83.37 33 83.52 33.74C83.63 34.28 83.49 34.81 83.12 35.25C81.99 36.59 74.8 44.88 74.49 45.23C74.3 45.45 74.02 45.57 73.74 45.57C73.5 45.57 73.27 45.48 73.08 45.32C72.66 44.96 72.62 44.33 72.98 43.91C73.05 43.83 80.16 35.64 81.51 34.05C81.4 33.9 81.14 33.69 80.86 33.49L58.93 58.84C58.88 58.9 58.82 58.95 58.75 59L49.52 65.54C49.24 65.73 48.92 65.83 48.61 65.83C48.25 65.83 47.89 65.71 47.6 65.46C47.04 65 46.88 64.24 47.19 63.59L52.05 53.37C52.09 53.29 52.14 53.22 52.2 53.15L76.59 24.96C76.95 24.55 77.57 24.5 77.99 24.85L78.07 24.92L78.91 23.92C80.07 22.54 82.14 22.36 83.52 23.52ZM49.72 62.95L57.5 57.44L81.14 30.11L77.46 27.01L53.81 54.35L49.72 62.95ZM82.23 25.05C81.7 24.6 80.89 24.66 80.44 25.2L79.62 26.17L81.56 27.81L82.38 26.84C82.84 26.3 82.77 25.5 82.23 25.05Z" fill="#002341"/>
</svg>
