<svg width="96" height="96" viewBox="0 0 96 96" fill="none" xmlns="http://www.w3.org/2000/svg">
<path d="M63 16C63.55 16 64 15.55 64 15V10C64 9.45 63.55 9 63 9C62.45 9 62 9.45 62 10V15C62 15.55 62.45 16 63 16Z" fill="#002341"/>
<path fill-rule="evenodd" clip-rule="evenodd" d="M44 75V67H67.35C67.63 67 67.91 66.88 68.1 66.67C68.29 66.46 68.38 66.17 68.35 65.89L65.52 40.71C70.42 39.56 74 35.12 74 30C74 23.93 69.07 19 63 19C56.93 19 52 23.93 52 30C52 31.01 52.14 32.01 52.41 32.97L22.71 33C22.21 33 21.78 33.37 21.72 33.87L17.57 65.87C17.53 66.16 17.62 66.44 17.81 66.66C18 66.88 18.27 67 18.56 67H41.99V75H12V77H88V75H44ZM44 34.98H53.12L54.25 49H44V34.98ZM42 49H32.16L33.29 34.99H42V49ZM63.45 40.15L64.44 49H56.25L55.12 34.97H62.86L63.41 39.9C63.41 39.9171 63.4077 39.9329 63.4054 39.9485C63.401 39.9785 63.3968 40.0071 63.41 40.04C63.41 40.0633 63.4202 40.0832 63.4307 40.1037C63.4382 40.1184 63.4458 40.1333 63.45 40.15ZM54.41 51L55.53 65H44V51H54.41ZM57.54 65L56.42 51H64.67L66.24 65H57.54ZM54 30C54 25.04 58.04 21 63 21C67.96 21 72 25.04 72 30C72 34.11 69.18 37.67 65.3 38.7L64.76 33.85C64.7 33.34 64.28 32.96 63.77 32.96H54.52C54.19 32.02 54.01 31.02 54.01 30H54ZM31.28 35L30.15 49H21.77L23.58 35H31.28ZM30 51L28.88 65H19.7L21.51 51H30ZM30.88 65L32 51H42V65H30.88Z" fill="#002341"/>
<path d="M78 31C77.45 31 77 30.55 77 30C77 29.45 77.45 29 78 29H83C83.55 29 84 29.45 84 30C84 30.55 83.55 31 83 31H78Z" fill="#002341"/>
<path d="M43 31L47.81 30.97C48.36 30.97 48.81 30.52 48.8 29.96C48.8 29.41 48.35 28.92 47.79 28.97L42.98 29C42.43 29 41.98 29.45 41.99 30.01C41.99 30.56 42.44 31 42.99 31H43Z" fill="#002341"/>
<path d="M73.29 40.94C72.89 40.57 72.86 39.93 73.24 39.53C73.61 39.13 74.25 39.1 74.65 39.48L78.31 42.88C78.71 43.25 78.74 43.89 78.36 44.29C78.17 44.5 77.9 44.61 77.63 44.61C77.39 44.61 77.14 44.52 76.95 44.34L73.29 40.94Z" fill="#002341"/>
<path d="M51.21 20.37C51.4 20.55 51.64 20.63 51.89 20.63C52.16 20.63 52.43 20.52 52.63 20.31C53 19.9 52.98 19.27 52.57 18.9L49.03 15.64C48.62 15.27 47.99 15.29 47.62 15.7C47.25 16.11 47.27 16.74 47.68 17.11L51.22 20.37H51.21Z" fill="#002341"/>
<path d="M74.25 20.01C74.06 20.21 73.8 20.31 73.54 20.31V20.3C73.29 20.3 73.03 20.2 72.84 20.01C72.46 19.63 72.45 18.99 72.84 18.6L76.35 15.04C76.73 14.66 77.37 14.65 77.76 15.04C78.14 15.42 78.15 16.06 77.76 16.45L74.25 20.01Z" fill="#002341"/>
</svg>
