<svg width="96" height="96" viewBox="0 0 96 96" fill="none" xmlns="http://www.w3.org/2000/svg">
<path d="M74 78.7V70.67L77.97 55.96C78.11 55.43 77.8 54.88 77.26 54.73C76.73 54.58 76.18 54.9 76.03 55.44L72.45 68.71H62.99V68.7C62.72 68.7 62.47 68.8 62.28 68.99C62.09 69.18 61.99 69.43 61.99 69.7V78.7H59.52L54.16 70.67L59.44 62.7H64.99C65.54 62.7 65.99 62.25 65.99 61.7C65.99 61.15 65.54 60.7 64.99 60.7H58.43L58.39 60.67L58.37 60.7H53.99V39.76C57.06 39.86 60.43 40.49 63.78 42.07C63.83 42.09 63.87 42.09 63.92 42.1C63.96 42.11 64 42.14 64.04 42.15C64.09 42.15 64.15 42.16 64.2 42.16C64.31 42.16 64.42 42.14 64.52 42.1C64.55 42.09 64.58 42.07 64.61 42.06C64.68 42.03 64.75 41.98 64.82 41.93C64.84 41.92 64.86 41.91 64.87 41.9C68.61 38.47 80.51 38.78 84.77 39.19C85.25 39.23 85.68 38.95 85.82 38.5C85.96 38.05 85.77 37.56 85.36 37.33L53.2 19.12C53.2 19.12 53.19 19.12 53.18 19.12C53.13 19.09 53.07 19.08 53.01 19.06C52.97 19.05 52.92 19.03 52.88 19.02C52.82 19.02 52.77 19.02 52.71 19.02C52.66 19.02 52.61 19.02 52.57 19.02C52.52 19.02 52.47 19.05 52.42 19.06C52.37 19.08 52.31 19.09 52.26 19.11C52.26 19.11 52.25 19.11 52.24 19.11L20.06 36.23C19.65 36.45 19.44 36.92 19.56 37.37C19.68 37.82 20.06 38.13 20.55 38.11C20.7 38.11 35.76 37.74 40.3 41.9C40.33 41.92 40.36 41.93 40.39 41.95C40.46 42 40.54 42.06 40.63 42.09C40.67 42.11 40.72 42.11 40.77 42.12C40.84 42.14 40.91 42.16 40.98 42.16C40.98 42.16 41 42.16 41.01 42.16C41.02 42.16 41.03 42.16 41.04 42.16C41.07 42.16 41.11 42.16 41.14 42.16C41.18 42.16 41.21 42.13 41.24 42.12C41.29 42.1 41.35 42.1 41.4 42.08C41.47 42.05 45.94 39.99 51.99 39.77V60.71H47.51L47.49 60.68L47.44 60.71H40.99C40.44 60.71 39.99 61.16 39.99 61.71C39.99 62.26 40.44 62.71 40.99 62.71H46.44L51.77 70.69L46.46 78.71H42V69.71C42 69.44 41.89 69.19 41.71 69C41.52 68.81 41.27 68.71 41 68.71H31.76L29.99 55.58C29.92 55.03 29.41 54.65 28.87 54.72C28.32 54.79 27.94 55.3 28.01 55.84L30 70.61V78.7H12V80.7H88V78.7H74ZM52.7 22.07L62 39.19C54.24 36.51 46.93 38.06 43.17 39.26L52.7 22.07ZM80.68 36.97C75.93 36.85 68.47 37.14 64.53 39.67L55.25 22.58L80.68 36.97ZM50.2 22.46L40.67 39.67C36.69 37.03 29.12 36.33 24.46 36.15L50.2 22.46ZM64 70.7H72V78.7H64V70.7ZM48.85 62.7H57.05L52.97 68.87L48.85 62.7ZM52.98 72.48L57.13 78.7H48.86L52.98 72.48ZM32 70.71H40V78.7H32V70.71Z" fill="#002341"/>
</svg>
