<svg width="96" height="96" viewBox="0 0 96 96" fill="none" xmlns="http://www.w3.org/2000/svg">
<path d="M74.04 22.57V20.57H61.89V24.7L56.76 22.11C54.03 20.73 50.98 20.01 47.93 20.01H32.42L29.98 20.04C28.51 20.04 27.12 20.62 26.08 21.67C25.04 22.72 24.46 24.11 24.46 25.58C24.46 27.05 25.04 28.44 26.09 29.48C26.11 29.5 26.14 29.52 26.16 29.54C24.16 30.37 22.74 32.35 22.75 34.65C22.75 36.31 23.49 37.79 24.65 38.8C22.86 39.72 21.63 41.58 21.64 43.72C21.64 45.28 22.29 46.68 23.33 47.68C22.7 47.95 22.12 48.34 21.63 48.84C20.57 49.88 20 51.27 20 52.74C20 54.21 20.58 55.6 21.63 56.64C22.68 57.68 24.06 58.26 25.53 58.26L40.26 58.23C39.59 60.37 38.42 64.63 38.47 67.79C38.55 72.63 41.08 75.71 45.59 76.46C45.75 76.49 45.92 76.5 46.08 76.5C47.48 76.5 48.74 75.49 48.99 74.08C49.53 71.04 50.57 65.63 51.02 63.72C53.08 54.98 59.24 51.65 61.9 50.59V54.39H74.05V52.39H63.9V22.57H74.05H74.04ZM49.07 63.26C48.59 65.28 47.56 70.73 47.02 73.73C46.93 74.24 46.44 74.58 45.92 74.49C42.37 73.9 40.54 71.63 40.48 67.76C40.42 63.82 42.57 57.63 42.6 57.56L43.07 56.23L25.54 56.27C24.61 56.27 23.72 55.9 23.05 55.24C22.38 54.57 22.01 53.69 22.01 52.75C22.01 51.81 22.38 50.93 23.04 50.26C23.71 49.59 24.59 49.22 25.53 49.22H26.66C26.83 49.23 27 49.24 27.17 49.24L30.61 49.21H30.63L32.59 49.19L32.57 47.19L30.58 47.21H26.88C25.06 47.08 23.61 45.57 23.61 43.72C23.61 41.78 25.19 40.19 27.12 40.19L32.05 40.23H33.2L33.22 38.23L28.25 38.17C26.31 38.17 24.73 36.59 24.72 34.65C24.72 32.71 26.3 31.12 28.25 31.12L32.57 31.07H33.4L33.38 29.07L29.96 29.1C29.02 29.1 28.14 28.73 27.47 28.07C26.8 27.4 26.43 26.52 26.43 25.58C26.43 24.64 26.8 23.76 27.46 23.09C28.13 22.42 29.01 22.05 29.96 22.05L47.9 22.02C50.64 22.02 53.39 22.67 55.83 23.91L61.87 26.95V48.47C59.37 49.33 51.51 52.8 49.04 63.27L49.07 63.26Z" fill="#002341"/>
</svg>
