<svg width="96" height="96" viewBox="0 0 96 96" fill="none" xmlns="http://www.w3.org/2000/svg">
<path d="M73.04 43.76C73.04 40.72 70.56 38.24 67.51 38.24L52.78 38.27C53.45 36.13 54.62 31.87 54.57 28.71C54.49 23.87 51.96 20.79 47.45 20.04C45.85 19.77 44.33 20.84 44.05 22.42C43.51 25.41 42.48 30.82 42.02 32.78C39.96 41.52 33.8 44.85 31.14 45.91V42.11H19V44.11H29.15V73.93H19V75.93H31.14V71.8L36.28 74.39C39 75.77 42.06 76.49 45.11 76.49H60.62L63.06 76.46C64.53 76.46 65.92 75.88 66.96 74.83C68 73.78 68.58 72.39 68.58 70.92C68.58 69.36 67.93 67.96 66.89 66.96C68.89 66.13 70.3 64.15 70.3 61.85C70.3 60.38 69.72 58.99 68.67 57.95C68.58 57.86 68.46 57.79 68.36 57.7C68.88 57.44 69.37 57.11 69.8 56.68C70.84 55.63 71.42 54.24 71.42 52.77C71.42 51.3 70.84 49.91 69.79 48.87C69.77 48.85 69.74 48.84 69.72 48.82C71.68 47.97 73.04 46.01 73.04 43.75V43.76ZM67.52 47.3H66.15C66.06 47.3 65.97 47.28 65.88 47.28L60.45 47.33L60.47 49.33L62.42 49.31H66.16C66.99 49.37 67.78 49.71 68.38 50.31C69.05 50.98 69.42 51.86 69.42 52.8C69.42 53.74 69.05 54.62 68.39 55.29C67.72 55.96 66.84 56.33 65.91 56.33L60.98 56.29H59.83L59.81 58.29L64.78 58.35C65.72 58.35 66.6 58.72 67.27 59.38C67.94 60.05 68.31 60.93 68.31 61.87C68.31 63.81 66.73 65.4 64.78 65.4L60.46 65.45H59.63L59.65 67.45L63.07 67.42C65.01 67.42 66.59 69 66.6 70.94C66.6 71.88 66.23 72.76 65.57 73.43C64.9 74.1 64.02 74.47 63.07 74.47L45.13 74.5C42.39 74.5 39.64 73.85 37.2 72.61L31.16 69.56V48.04C33.66 47.19 41.52 43.71 43.99 33.24C44.46 31.24 45.5 25.78 46.04 22.77C46.13 22.26 46.62 21.92 47.14 22.01C50.69 22.6 52.52 24.87 52.58 28.74C52.64 32.68 50.49 38.87 50.46 38.94L49.99 40.27L67.52 40.23C69.46 40.23 71.04 41.81 71.05 43.75C71.05 45.69 69.47 47.28 67.53 47.28L67.52 47.3Z" fill="#002341"/>
</svg>
