<svg width="96" height="96" viewBox="0 0 96 96" fill="none" xmlns="http://www.w3.org/2000/svg">
<path fill-rule="evenodd" clip-rule="evenodd" d="M77.9997 48C77.9997 31.4315 64.5682 18 47.9997 18C37.7427 18 28.688 23.1474 23.2779 31H25.9997C27.1042 31 27.9997 31.8954 27.9997 33V35C30.0267 35 33.4372 33.4976 36.1054 32.1399C38.6979 30.8207 41.5365 30 44.4454 30H54.9997C58.563 31.0181 71.5 55.5001 58.9997 55H49.9997C52.3108 57.6793 52.4423 59.9096 51.9997 65.0001C51.8088 67.1946 49.8822 67.8343 48.0685 67.8014C46.061 67.765 45.192 65.7666 44.7566 63.8065C44.4601 62.4715 43.8942 61.1575 42.9241 60.5192C41.2429 59.413 36.8959 55.31 34.6154 52.7239C34.2174 52.2725 33.6503 52 33.0485 52H27.9997V56H19.0781C22.5791 68.6847 34.2015 78 47.9997 78C64.5682 78 77.9997 64.5685 77.9997 48Z" fill="#8FC1FF"/>
<path fill-rule="evenodd" clip-rule="evenodd" d="M44.2056 68.673C45.0226 69.8143 46.3172 70.7468 48.1267 70.7098C49.2112 70.6876 50.4906 70.4713 51.6077 69.8171C52.8001 69.1188 53.7421 67.9477 53.9799 66.2831C54.349 63.6993 54.4685 61.5959 54.1001 59.7222C53.9801 59.112 53.8118 58.5421 53.5969 58.0002H59C60.8612 58.0002 62.487 57.5091 63.7994 56.5277C65.101 55.5542 65.9457 54.21 66.4522 52.7491C67.4424 49.8926 67.2371 46.3348 66.4448 43.0335C65.6427 39.6915 64.1699 36.3203 62.3106 33.7379C60.5359 31.2731 58.0146 29.0002 55 29.0002H44.4434C41.1576 29.0002 38.0116 29.9263 35.1987 31.3576C33.8976 32.0197 32.4492 32.6994 31.1039 33.209C29.6983 33.7415 28.6274 34.0002 28 34.0002C26.8954 34.0002 26 34.8957 26 36.0002V53.0002C26 54.1048 26.8954 55.0002 28 55.0002H33.0485C33.05 55.0004 33.0546 55.0014 33.0627 55.0051C33.076 55.0113 33.0957 55.0242 33.1157 55.0468C34.311 56.4024 36.0158 58.121 37.6249 59.6338C39.1982 61.113 40.8211 62.5295 41.8251 63.1902C42.1104 63.3779 42.5324 64.0152 42.8046 65.2404C43.0432 66.3146 43.4456 67.6113 44.2056 68.673ZM50 56.0002V54.0002C49.2178 54.0002 48.5074 54.4562 48.1817 55.1674C47.8559 55.8785 47.9747 56.7143 48.4856 57.3066C49.4764 58.4553 49.9569 59.384 50.1752 60.494C50.4096 61.686 50.3736 63.243 50.0201 65.7174C49.9724 66.0516 49.8388 66.2176 49.5862 66.3655C49.2583 66.5575 48.7234 66.6968 48.0449 66.7106C47.847 66.7147 47.6949 66.6755 47.4582 66.3447C47.1645 65.9345 46.9062 65.2589 46.7094 64.373C46.3884 62.9282 45.6787 60.9375 44.0238 59.8487C43.3466 59.4031 41.9554 58.215 40.3648 56.7196C38.8099 55.2578 37.201 53.6319 36.1159 52.4013C35.3631 51.5476 34.2613 51.0002 33.0488 51.0002H30V37.7404C30.8462 37.5441 31.7099 37.2568 32.5209 36.9496C34.0547 36.3686 35.6456 35.6183 37.0127 34.9226C39.385 33.7155 41.9114 33.0002 44.4434 33.0002H55C55.9854 33.0002 57.4641 33.8524 59.0644 36.0751C60.5801 38.1802 61.8573 41.059 62.5552 43.967C63.2629 46.9157 63.3076 49.6079 62.6728 51.4389C62.3668 52.3217 61.9303 52.9306 61.4038 53.3244C60.888 53.7101 60.1388 54.0002 59 54.0002H50.001L50 56.0002Z" fill="#0F1D2E"/>
<path fill-rule="evenodd" clip-rule="evenodd" d="M13.5305 31.6434C13.9091 31.2333 14.4419 31.0001 15 31.0001H28C29.1046 31.0001 30 31.8955 30 33.0001V56.0001C30 58.2092 28.2091 60.0001 26 60.0001H20.6928C17.5646 60.0001 14.9614 57.5967 14.7119 54.4785L13.0064 33.1596C12.9619 32.6032 13.1519 32.0535 13.5305 31.6434ZM17.1664 35.0001L18.6992 54.1596C18.7823 55.199 19.6501 56.0001 20.6928 56.0001H26V35.0001H17.1664Z" fill="#0F1D2E"/>
<path fill-rule="evenodd" clip-rule="evenodd" d="M49.6026 75.985C36.9739 76.7087 25.8162 68.9448 21.6924 57.6393C21.3139 56.6016 20.1658 56.0672 19.1282 56.4457C18.0905 56.8242 17.5561 57.9723 17.9346 59.01C22.6464 71.9274 35.3923 80.8059 49.8314 79.9785C67.4756 78.9673 80.9593 63.8442 79.9482 46.2001C78.9371 28.5559 63.814 15.0722 46.1698 16.0833C35.2452 16.7093 25.9166 22.7471 20.6375 31.4345C20.0639 32.3785 20.3642 33.6087 21.3081 34.1823C22.2521 34.7559 23.4823 34.4557 24.0559 33.5117C28.6809 25.9007 36.843 20.6243 46.3987 20.0767C61.8373 19.192 75.07 30.9903 75.9548 46.4289C76.8395 61.8676 65.0412 75.1003 49.6026 75.985Z" fill="#0F1D2E"/>
</svg>
