<svg width="96" height="96" viewBox="0 0 96 96" fill="none" xmlns="http://www.w3.org/2000/svg">
<path fill-rule="evenodd" clip-rule="evenodd" d="M77.9997 48C77.9997 64.5685 64.5682 78 47.9997 78C37.7427 78 28.688 72.8526 23.2779 65H25.9997C27.1042 65 27.9997 64.1046 27.9997 63V61C30.0267 61 33.4372 62.5024 36.1054 63.8601C38.6979 65.1793 41.5365 66 44.4454 66H54.9997C58.563 64.9819 71.5 40.4999 58.9997 41H49.9997C52.3108 38.3207 52.4423 36.0904 51.9997 30.9999C51.8088 28.8054 49.8822 28.1657 48.0685 28.1986C46.061 28.235 45.192 30.2334 44.7566 32.1935C44.4601 33.5285 43.8942 34.8425 42.9241 35.4808C41.2429 36.587 36.8959 40.69 34.6154 43.2761C34.2174 43.7275 33.6503 44 33.0485 44H27.9997V40H19.0781C22.5791 27.3153 34.2015 18 47.9997 18C64.5682 18 77.9997 31.4315 77.9997 48Z" fill="#8FC1FF"/>
<path fill-rule="evenodd" clip-rule="evenodd" d="M44.2056 27.3272C45.0226 26.1859 46.3172 25.2534 48.1267 25.2904C49.2112 25.3125 50.4906 25.5289 51.6077 26.1831C52.8001 26.8814 53.7421 28.0524 53.9799 29.7171C54.349 32.3009 54.4685 34.4043 54.1001 36.278C53.9801 36.8882 53.8118 37.4581 53.5969 38H59C60.8612 38 62.487 38.491 63.7994 39.4725C65.101 40.446 65.9457 41.7901 66.4522 43.2511C67.4424 46.1076 67.2371 49.6654 66.4448 52.9667C65.6427 56.3087 64.1699 59.6799 62.3106 62.2623C60.5359 64.7271 58.0146 67 55 67H44.4434C41.1576 67 38.0116 66.0739 35.1987 64.6426C33.8976 63.9805 32.4492 63.3008 31.1039 62.7912C29.6983 62.2587 28.6274 62 28 62C26.8954 62 26 61.1045 26 60V43C26 41.8954 26.8954 41 28 41H33.0485C33.05 40.9998 33.0546 40.9988 33.0627 40.9951C33.076 40.9888 33.0957 40.976 33.1157 40.9534C34.311 39.5978 36.0158 37.8791 37.6249 36.3663C39.1982 34.8872 40.8211 33.4706 41.8251 32.81C42.1104 32.6223 42.5324 31.9849 42.8046 30.7598C43.0432 29.6856 43.4456 28.3889 44.2056 27.3272ZM50 40V42C49.2178 42 48.5074 41.544 48.1817 40.8328C47.8559 40.1217 47.9747 39.2859 48.4856 38.6936C49.4764 37.5449 49.9569 36.6162 50.1752 35.5061C50.4096 34.3142 50.3736 32.7572 50.0201 30.2828C49.9724 29.9486 49.8388 29.7826 49.5862 29.6347C49.2583 29.4426 48.7234 29.3034 48.0449 29.2895C47.847 29.2855 47.6949 29.3247 47.4582 29.6554C47.1645 30.0657 46.9062 30.7413 46.7094 31.6272C46.3884 33.072 45.6787 35.0626 44.0238 36.1515C43.3466 36.5971 41.9554 37.7852 40.3648 39.2806C38.8099 40.7424 37.201 42.3683 36.1159 43.5989C35.3631 44.4526 34.2613 45 33.0488 45H30V58.2598C30.8462 58.4561 31.7099 58.7434 32.5209 59.0506C34.0547 59.6316 35.6456 60.3819 37.0127 61.0775C39.385 62.2846 41.9114 63 44.4434 63H55C55.9854 63 57.4641 62.1478 59.0644 59.9251C60.5801 57.82 61.8573 54.9412 62.5552 52.0332C63.2629 49.0845 63.3076 46.3923 62.6728 44.5613C62.3668 43.6785 61.9303 43.0696 61.4038 42.6758C60.888 42.2901 60.1388 42 59 42H50.001L50 40Z" fill="#0F1D2E"/>
<path fill-rule="evenodd" clip-rule="evenodd" d="M13.5305 38.6433C13.9091 38.2332 14.4419 37.9999 15 37.9999H28C29.1046 37.9999 30 38.8954 30 39.9999V62.9999C30 65.2091 28.2091 66.9999 26 66.9999H20.6928C17.5646 66.9999 14.9614 64.5966 14.7119 61.4784L13.0064 40.1594C12.9619 39.6031 13.1519 39.0534 13.5305 38.6433ZM17.1664 41.9999L18.6992 61.1594C18.7823 62.1988 19.6501 62.9999 20.6928 62.9999H26V41.9999H17.1664Z" fill="#0F1D2E"/>
<path fill-rule="evenodd" clip-rule="evenodd" d="M47.9998 20.0001C35.1244 20.0001 24.2741 28.6922 21.0062 40.5322L17.1504 39.468C20.8845 25.9384 33.279 16.0001 47.9998 16.0001C65.673 16.0001 79.9998 30.327 79.9998 48.0001C79.9998 65.6732 65.673 80.0001 47.9998 80.0001C37.0573 80.0001 27.3985 74.5059 21.6311 66.1348L24.925 63.8654C29.9779 71.1994 38.4285 76.0001 47.9998 76.0001C63.4638 76.0001 75.9998 63.464 75.9998 48.0001C75.9998 32.5361 63.4638 20.0001 47.9998 20.0001Z" fill="#0F1D2E"/>
</svg>
