<svg width="96" height="96" viewBox="0 0 96 96" fill="none" xmlns="http://www.w3.org/2000/svg">
<path fill-rule="evenodd" clip-rule="evenodd" d="M48.76 51.4C50.83 50.94 52.39 49.09 52.39 46.88C52.39 44.33 50.31 42.25 47.76 42.25C45.21 42.25 43.13 44.33 43.13 46.88C43.13 49.09 44.69 50.94 46.76 51.4V62.22H48.76V51.4ZM45.13 46.88C45.13 45.43 46.31 44.25 47.76 44.25C49.21 44.25 50.39 45.43 50.39 46.88C50.39 48.33 49.21 49.51 47.76 49.51C46.31 49.51 45.13 48.33 45.13 46.88Z" fill="#002341"/>
<path d="M47.76 26.46V24.46C60.12 24.46 70.18 34.52 70.18 46.88C70.18 59.24 60.12 69.3 47.76 69.3V67.3C59.02 67.3 68.18 58.14 68.18 46.88C68.18 35.62 59.02 26.46 47.76 26.46Z" fill="#002341"/>
<path fill-rule="evenodd" clip-rule="evenodd" d="M48.76 20.15V17H50.8V15H44.72V17H46.76V20.15C32.47 20.68 21 32.46 21 46.88C21 61.3 33 73.64 47.76 73.64C62.52 73.64 74.52 61.64 74.52 46.88C74.52 32.12 63.05 20.68 48.76 20.15ZM47.76 71.64C34.11 71.64 23 60.53 23 46.88C23 33.23 34.11 22.12 47.76 22.12C61.41 22.12 72.52 33.23 72.52 46.88C72.52 60.53 61.41 71.64 47.76 71.64Z" fill="#002341"/>
</svg>
