<svg width="96" height="96" viewBox="0 0 96 96" fill="none" xmlns="http://www.w3.org/2000/svg">
<path fill-rule="evenodd" clip-rule="evenodd" d="M48.76 40.36V28.93H46.76V40.36C44.69 40.82 43.13 42.67 43.13 44.88C43.13 47.43 45.21 49.51 47.76 49.51C50.31 49.51 52.39 47.43 52.39 44.88C52.39 42.67 50.83 40.82 48.76 40.36ZM47.76 47.51C46.31 47.51 45.13 46.33 45.13 44.88C45.13 43.43 46.31 42.25 47.76 42.25C49.21 42.25 50.39 43.43 50.39 44.88C50.39 46.33 49.21 47.51 47.76 47.51Z" fill="#002341"/>
<path fill-rule="evenodd" clip-rule="evenodd" d="M25.34 44.88C25.34 32.52 35.4 22.46 47.76 22.46C60.12 22.46 70.18 32.52 70.18 44.88C70.18 57.24 60.12 67.3 47.76 67.3C35.4 67.3 25.34 57.24 25.34 44.88ZM27.34 44.87C27.34 56.13 36.5 65.29 47.76 65.29V65.3C59.02 65.3 68.18 56.14 68.18 44.88C68.18 33.62 59.02 24.46 47.76 24.46C36.5 24.46 27.34 33.61 27.34 44.87Z" fill="#002341"/>
<path fill-rule="evenodd" clip-rule="evenodd" d="M48.76 18.15V15H50.8V13H44.72V15H46.76V18.15C32.47 18.68 21 30.46 21 44.88C21 59.3 33 71.64 47.76 71.64C62.52 71.64 74.52 59.64 74.52 44.88C74.52 30.12 63.05 18.68 48.76 18.15ZM47.76 69.64C34.11 69.64 23 58.53 23 44.88C23 31.23 34.11 20.12 47.76 20.12C61.41 20.12 72.52 31.23 72.52 44.88C72.52 58.53 61.41 69.64 47.76 69.64Z" fill="#002341"/>
</svg>
