<svg width="96" height="96" viewBox="0 0 96 96" fill="none" xmlns="http://www.w3.org/2000/svg">
<path d="M53.87 20.15V17H55.91V15H49.83V17H51.87V20.15C37.58 20.68 26.11 32.46 26.11 46.88C26.11 61.3 38.11 73.64 52.87 73.64C67.63 73.64 79.63 61.64 79.63 46.88C79.63 32.12 68.17 20.68 53.87 20.15ZM52.87 71.64C39.22 71.64 28.11 60.53 28.11 46.88C28.11 33.23 39.22 22.12 52.87 22.12C66.52 22.12 77.63 33.23 77.63 46.88C77.63 60.53 66.52 71.64 52.87 71.64Z" fill="#002341"/>
<path d="M53.87 42.37V30.94H51.87V42.37C49.8 42.83 48.24 44.68 48.24 46.89C48.24 49.44 50.32 51.52 52.87 51.52C55.42 51.52 57.5 49.44 57.5 46.89C57.5 44.68 55.94 42.83 53.87 42.37ZM52.87 49.52C51.42 49.52 50.24 48.34 50.24 46.89C50.24 45.44 51.42 44.26 52.87 44.26C54.32 44.26 55.5 45.44 55.5 46.89C55.5 48.34 54.32 49.52 52.87 49.52Z" fill="#002341"/>
<path d="M19.92 15H17.94V26.45H19.92V15Z" fill="#002341"/>
<path d="M18.93 34.14C19.9959 34.14 20.86 33.2759 20.86 32.21C20.86 31.1441 19.9959 30.28 18.93 30.28C17.8641 30.28 17 31.1441 17 32.21C17 33.2759 17.8641 34.14 18.93 34.14Z" fill="#002341"/>
</svg>
