<svg width="96" height="96" viewBox="0 0 96 96" fill="none" xmlns="http://www.w3.org/2000/svg">
<path fill-rule="evenodd" clip-rule="evenodd" d="M48.76 20.15V17H50.8V15H44.72V17H46.76V20.15C32.47 20.68 21 32.46 21 46.88C21 61.3 33 73.64 47.76 73.64C62.52 73.64 74.52 61.64 74.52 46.88C74.52 32.12 63.05 20.68 48.76 20.15ZM47.76 71.64C34.11 71.64 23 60.53 23 46.88C23 33.23 34.11 22.12 47.76 22.12C61.41 22.12 72.52 33.23 72.52 46.88C72.52 60.53 61.41 71.64 47.76 71.64ZM47.76 42.25C45.21 42.25 43.13 44.33 43.13 46.88C43.13 49.43 45.21 51.51 47.76 51.51C49.97 51.51 51.82 49.95 52.28 47.88H63.12V45.88H52.28C51.82 43.81 49.97 42.25 47.76 42.25ZM47.76 49.51C46.31 49.51 45.13 48.33 45.13 46.88C45.13 45.43 46.31 44.25 47.76 44.25C49.21 44.25 50.39 45.43 50.39 46.88C50.39 48.33 49.21 49.51 47.76 49.51ZM47.76 26.46V24.46C60.12 24.46 70.18 34.52 70.18 46.88H68.18C68.18 35.62 59.02 26.46 47.76 26.46Z" fill="#002341"/>
</svg>
