<svg width="96" height="96" viewBox="0 0 96 96" fill="none" xmlns="http://www.w3.org/2000/svg">
<path d="M67.76 24.1C62.09 19.39 54.99 16.81 47.58 16.81C30.17 16.81 16 30.98 16 48.39C16 54.56 17.78 60.54 21.15 65.68L19.48 66.78C15.89 61.31 14 54.95 14 48.39C14 29.87 29.06 14.81 47.58 14.81C55.3 14.81 62.71 17.45 68.67 22.28L67.63 14.26L69.62 14L71.16 25.91L59.17 26.58L59.06 24.58L67.76 24.1Z" fill="#002341"/>
<path d="M73.94 31L75.61 29.9H75.62C79.25 35.39 81.17 41.78 81.17 48.39C81.17 66.91 66.1 81.97 47.59 81.97C39.75 81.97 32.25 79.26 26.25 74.31L27.21 82.34L25.22 82.58L23.79 70.65L35.79 70.09L35.88 72.09L27.17 72.49C32.87 77.32 40.05 79.97 47.57 79.97C64.98 79.97 79.15 65.8 79.15 48.39C79.15 42.17 77.35 36.16 73.94 31Z" fill="#002341"/>
<path d="M43.06 46.71H42.08V48.71H42.83V48.92C42.83 49.14 42.83 49.35 42.85 49.56H42.08V51.56H43.17C43.95 54.39 46.04 56.15 48.84 56.15C50.59 56.15 52.04 55.46 53.28 54.05L51.78 52.73C50.93 53.7 50 54.15 48.84 54.15C47.14 54.15 45.88 53.2 45.26 51.56H50.39V49.56H44.85C44.84 49.35 44.83 49.14 44.83 48.92V48.71H51.79V46.71H45.12C45.69 44.74 47.09 43.62 49.1 43.62C50.02 43.62 50.97 44.05 51.64 44.78L53.1 43.42C52.04 42.28 50.58 41.62 49.1 41.62C45.97 41.62 43.76 43.56 43.06 46.71Z" fill="#002341"/>
<path fill-rule="evenodd" clip-rule="evenodd" d="M30.97 39.7L45.55 31.89L45.54 31.88C46.57 31.2 48.01 31.2 49.04 31.88L64.77 39.68V62.81H30.97V39.7ZM32.98 60.81H62.79V40.92L47.97 33.56C47.62 33.31 47.01 33.31 46.66 33.56L46.55 33.63L32.98 40.9V60.81Z" fill="#002341"/>
</svg>
