<svg width="96" height="96" viewBox="0 0 96 96" fill="none" xmlns="http://www.w3.org/2000/svg">
<path d="M28.26 25.38H34.93C35.48 25.38 35.93 25.83 35.93 26.38C35.93 26.93 35.48 27.38 34.93 27.38H28.26C27.71 27.38 27.26 26.93 27.26 26.38C27.26 25.83 27.71 25.38 28.26 25.38Z" fill="#002341"/>
<path fill-rule="evenodd" clip-rule="evenodd" d="M62.13 31.34L58.87 29.45C58.72 29.36 58.53 29.36 58.37 29.45C58.22 29.54 58.12 29.7 58.12 29.88V33.65C58.12 33.83 58.22 33.99 58.37 34.08C58.45 34.12 58.53 34.15 58.62 34.15C58.71 34.15 58.79 34.13 58.87 34.08L62.13 32.2C62.29 32.11 62.38 31.95 62.38 31.77C62.38 31.59 62.29 31.43 62.13 31.34ZM59.12 32.79V30.75L60.88 31.77L59.12 32.79Z" fill="#002341"/>
<path fill-rule="evenodd" clip-rule="evenodd" d="M72.55 26.47C72.86 26.27 73.25 26.26 73.57 26.43C73.89 26.61 74.09 26.94 74.09 27.31V36.71C74.09 37.08 73.89 37.42 73.57 37.59C73.42 37.67 73.26 37.71 73.09 37.71C72.9 37.71 72.71 37.66 72.55 37.55L69.48 35.59V37.6C69.48 38.15 69.03 38.6 68.48 38.6H51.38C50.83 38.6 50.38 38.15 50.38 37.6V26.42C50.38 25.87 50.83 25.42 51.38 25.42H68.48C69.03 25.42 69.48 25.87 69.48 26.42V28.43L72.55 26.47ZM52.39 36.6H67.49V27.42H52.39V36.6ZM69.49 33.21L72.09 34.88V29.13L69.49 30.8V33.21Z" fill="#002341"/>
<path fill-rule="evenodd" clip-rule="evenodd" d="M45.65 19.38C49.31 14.32 55.26 11 61.97 11C73.08 11 82.1 20.01 82.1 31.12C82.1 42.23 73.06 51.26 61.96 51.26H49.18V79.21C49.18 82.11 46.82 84.47 43.92 84.47H19.26C16.36 84.47 14 82.11 14 79.21V24.33C14 21.43 16.36 19.07 19.26 19.07H43.92C44.51 19.07 45.09 19.18 45.65 19.38ZM19.26 82.49H43.93C45.73 82.49 47.19 81.03 47.19 79.23V76.14H16V79.23C16 81.03 17.46 82.49 19.26 82.49ZM31.38 46.31C27.32 46.31 24.02 49.61 24.02 53.67C24.02 57.73 27.32 61.03 31.38 61.03C35.44 61.03 38.74 57.73 38.74 53.67C38.74 49.61 35.44 46.31 31.38 46.31ZM19.44 74.14H43.31C42.8 67.99 37.66 63.15 31.38 63.15C25.1 63.15 19.95 68 19.44 74.14ZM47.18 74.14H45.31C44.9 68.43 41.06 63.66 35.83 61.89C38.75 60.3 40.73 57.21 40.73 53.66C40.73 48.5 36.53 44.3 31.37 44.3C26.21 44.3 22.01 48.5 22.01 53.66C22.01 57.21 23.99 60.3 26.91 61.89C21.68 63.65 17.84 68.42 17.43 74.14H15.99V24.33C15.99 22.53 17.45 21.07 19.25 21.07H43.91C44.1 21.07 44.3 21.09 44.49 21.13C44.45 21.21 44.41 21.29 44.36 21.37C44.3395 21.4084 44.319 21.4474 44.2984 21.4868C44.2384 21.6013 44.177 21.7184 44.11 21.83C43.9 22.23 43.71 22.63 43.53 23.04C43.4961 23.1214 43.4575 23.2029 43.4175 23.2875C43.3986 23.3275 43.3793 23.3682 43.36 23.41C43.15 23.92 42.96 24.44 42.79 24.97C42.74 25.13 42.69 25.29 42.65 25.45C42.51 25.92 42.39 26.39 42.28 26.87C42.27 26.92 42.2575 26.97 42.245 27.02C42.2325 27.07 42.22 27.12 42.21 27.17C42.1 27.74 42.01 28.31 41.95 28.89C41.93 29.04 41.92 29.18 41.91 29.33C41.86 29.93 41.82 30.54 41.82 31.15V51.29H47.18V74.14ZM43.83 49.27H61.95C71.95 49.27 80.09 41.13 80.09 31.13C80.09 21.13 71.95 12.99 61.95 12.99C55.7 12.99 50.18 16.17 46.92 21C46.62 21.45 46.34 21.92 46.08 22.39C46 22.53 45.93 22.67 45.86 22.81C45.69 23.13 45.53 23.47 45.38 23.81C45.345 23.9 45.3075 23.9875 45.27 24.075C45.2325 24.1625 45.195 24.25 45.16 24.34C45.01 24.7 44.88 25.06 44.76 25.43C44.71 25.56 44.66 25.7 44.62 25.84C44.47 26.34 44.34 26.84 44.23 27.35C44.215 27.425 44.2025 27.4975 44.19 27.57C44.1775 27.6425 44.165 27.715 44.15 27.79C44.07 28.19 44.01 28.59 43.96 29C43.94 29.16 43.92 29.32 43.91 29.48C43.86 30.03 43.83 30.57 43.83 31.13V49.27Z" fill="#002341"/>
</svg>
