<svg width="96" height="96" viewBox="0 0 96 96" fill="none" xmlns="http://www.w3.org/2000/svg">
<path fill-rule="evenodd" clip-rule="evenodd" d="M36.5 40.71L46.4 46.44V46.45C46.71 46.63 46.9 46.96 46.9 47.32C46.9 47.68 46.71 48.01 46.4 48.19L36.5 53.92C36.35 54.01 36.17 54.05 36 54.05C35.83 54.05 35.65 54.01 35.5 53.92C35.19 53.74 35 53.41 35 53.05V41.58C35 41.22 35.19 40.89 35.5 40.71C35.81 40.53 36.19 40.53 36.5 40.71ZM37 43.3V51.3L43.91 47.3L37 43.3Z" fill="#002341"/>
<path fill-rule="evenodd" clip-rule="evenodd" d="M79.46 32.87C79.77 32.67 80.16 32.66 80.48 32.83C80.8 33.01 81 33.34 81 33.71V62.29C81 62.66 80.8 62.99 80.48 63.17C80.33 63.25 80.17 63.29 80 63.29C79.81 63.29 79.62 63.23 79.46 63.13L67 55.15V65C67 65.55 66.55 66 66 66H14C13.45 66 13 65.55 13 65V31C13 30.45 13.45 30 14 30H66C66.55 30 67 30.45 67 31V40.85L79.46 32.87ZM15 64H65V32H15V64ZM67 52.78L79 60.46V35.55L67 43.23V52.78Z" fill="#002341"/>
</svg>
