<svg width="96" height="96" viewBox="0 0 96 96" fill="none" xmlns="http://www.w3.org/2000/svg">
<path d="M36 40H52V70H36V40Z" fill="#8FC1FF"/>
<path d="M66.0018 68V78C66.0018 78.9625 66.9 80 68 80H72C73.1 80 74 78.9625 74 78V69C75.1 69 76 67.9619 76 66.9994V59.5C76 57.575 75.2 56 73 56H67C64.8 56 64 57.575 64 59.5V66.9994C64 67.9619 64.9 69 66 69L66.0018 68Z" fill="#0F1D2E"/>
<path d="M73 51C73 52.6569 71.6569 54 70 54C68.3431 54 67 52.6569 67 51C67 49.3431 68.3431 48 70 48C71.6569 48 73 49.3431 73 51Z" fill="#0F1D2E"/>
<path d="M52.002 68V78C52.002 78.9625 52.9002 80 54.0002 80H58.0002C59.1002 80 60.0002 78.9625 60.0002 78V69C61.1002 69 62.0002 67.9619 62.0002 66.9994V59.5C62.0002 57.575 61.2002 56 59.0002 56C59.0002 56 57.002 55.9999 54.002 56.0001C53.5203 56.0001 51.9991 56.254 51.9991 61C51.9969 63.8518 52.002 67.0051 52.002 68Z" fill="#0F1D2E"/>
<path d="M59 51C59 52.6569 57.6569 54 56 54C54.3431 54 53 52.6569 53 51C53 49.3431 54.3431 48 56 48C57.6569 48 59 49.3431 59 51Z" fill="#0F1D2E"/>
<path fill-rule="evenodd" clip-rule="evenodd" d="M55.5617 56.7506C56.2517 57.6131 56.1119 58.8717 55.2494 59.5617L50.2494 63.5617C49.762 63.9516 49.1205 64.0916 48.5149 63.9402L44.5149 62.9402C43.4433 62.6723 42.7918 61.5865 43.0597 60.5149C43.3276 59.4433 44.4135 58.7918 45.4851 59.0597L48.5241 59.8194L52.7506 56.4382C53.6131 55.7482 54.8717 55.888 55.5617 56.7506Z" fill="#0F1D2E"/>
<path fill-rule="evenodd" clip-rule="evenodd" d="M42.7573 17.4142C45.1004 15.0711 48.8994 15.0711 51.2426 17.4142L72.4141 38.5858C73.1952 39.3668 73.1952 40.6332 72.4141 41.4142C71.6331 42.1953 70.3668 42.1953 69.5857 41.4142L48.4141 20.2426C47.6331 19.4616 46.3668 19.4616 45.5857 20.2426L21.8283 44.0001H26.9993C28.6562 44.0001 29.9993 45.3433 29.9993 47.0001V66.0001C29.9993 67.1047 30.8948 68.0001 31.9993 68.0001H33.9996V39.9505C33.9996 38.321 35.3206 37 36.9501 37H51.0495C52.679 37 53.9999 38.321 53.9999 39.9505V42C53.9999 43.1046 53.1045 44 51.9999 44C50.8954 44 49.9999 43.1046 49.9999 42V41H37.9996V68.0001H39.9999C41.1045 68.0001 41.9999 68.8956 41.9999 70.0001C41.9999 71.1047 41.1045 72.0001 39.9999 72.0001H31.9993C28.6856 72.0001 25.9993 69.3138 25.9993 66.0001V48.0001H21.8283C18.2647 48.0001 16.48 43.6916 18.9999 41.1717L42.7573 17.4142Z" fill="#0F1D2E"/>
</svg>
