<svg width="96" height="96" viewBox="0 0 96 96" fill="none" xmlns="http://www.w3.org/2000/svg">
<path d="M51 41.05H43V31.05H51V41.05ZM45 39.05H49V33.05H45V39.05Z" fill="#002341"/>
<path d="M35 55.05H27V45.05H35V55.05ZM29 53.05H33V47.05H29V53.05Z" fill="#002341"/>
<path d="M76.92 65.05C76.86 64.94 76.81 64.84 76.79 64.77V57.63C76.79 56.23 76.28 54.95 75.43 53.96H76.69L76.73 53C76.73 52.75 76.93 46.94 74.19 44.1C73.83 43.73 73.43 43.44 73.01 43.2V30.32L49.53 17.75C48.07 16.75 45.92 16.75 44.46 17.75L21 30.32V65.05H11V67.05H48.63C48.99 67.93 49.57 68.72 50.34 69.33L50.37 78.2H58.81V69.26C58.98 69.12 59.14 68.97 59.29 68.81C59.34 68.75 59.39 68.69 59.45 68.63C59.54 68.52 59.63 68.42 59.72 68.31C59.78 68.24 59.83 68.16 59.88 68.08C59.95 67.98 60.02 67.87 60.08 67.76C60.13 67.67 60.18 67.59 60.22 67.5C60.28 67.39 60.33 67.29 60.38 67.18C60.4 67.14 60.42 67.1 60.44 67.05H62.78C62.7 67.18 62.61 67.31 62.53 67.43L61.96 68.29L62.84 68.83C62.9 68.87 64.12 69.61 66.19 69.74V78.2H74.74V69.74C76.8 69.61 78.03 68.87 78.09 68.83L78.97 68.29L78.4 67.43C78.32 67.31 78.23 67.18 78.15 67.05H83.01V65.05H76.92ZM74.71 51.96H66.26C66.31 50.12 66.71 47.02 68.18 45.48C68.79 44.84 69.54 44.53 70.45 44.53C70.85 44.53 71.22 44.6 71.63 44.76L71.86 44.85C72.18 45.01 72.47 45.21 72.74 45.48C74.32 47.12 74.65 50.35 74.71 51.96ZM43 65.05V51.05H49.64C49.64 51.05 49.66 51.08 49.67 51.09C49.83 51.38 50.02 51.65 50.23 51.9C50.25 51.92 50.27 51.95 50.29 51.97C50.5 52.22 50.74 52.45 50.99 52.66V52.74C50.99 52.74 50.95 52.77 50.93 52.78C50.76 52.88 50.6 52.99 50.45 53.11C50.41 53.14 50.37 53.17 50.33 53.2C50.15 53.34 49.99 53.49 49.83 53.64C49.81 53.66 49.8 53.68 49.78 53.69C49.64 53.83 49.52 53.98 49.4 54.13C49.36 54.18 49.32 54.24 49.28 54.29C49.18 54.42 49.09 54.56 49 54.7C48.97 54.75 48.94 54.8 48.91 54.85C48.8 55.04 48.7 55.24 48.61 55.45C48.61 55.46 48.6 55.48 48.59 55.49C48.51 55.68 48.45 55.88 48.39 56.08C48.37 56.14 48.36 56.2 48.34 56.26C48.3 56.42 48.27 56.59 48.24 56.76C48.24 56.82 48.22 56.88 48.21 56.95C48.18 57.17 48.16 57.4 48.16 57.63V64.88C48.16 64.93 48.16 64.99 48.16 65.04H42.96L43 65.05ZM54.63 51.97C53.86 51.97 53.15 51.74 52.56 51.34C52.54 51.33 52.53 51.32 52.52 51.31C52.36 51.2 52.2 51.07 52.06 50.93C52.01 50.88 51.97 50.84 51.93 50.79C51.82 50.68 51.73 50.56 51.63 50.43C51.59 50.37 51.55 50.32 51.51 50.26C51.42 50.12 51.34 49.96 51.26 49.81C51.24 49.77 51.21 49.73 51.2 49.68C51.02 49.24 50.91 48.76 50.91 48.25C50.91 46.2 52.58 44.53 54.63 44.53C56.68 44.53 58.35 46.2 58.35 48.25C58.35 50.3 56.68 51.97 54.63 51.97ZM56.81 76.21H52.37L52.34 68.28L51.88 67.99C50.82 67.31 50.19 66.16 50.19 64.9V57.65C50.19 57.42 50.22 57.21 50.26 56.99C50.27 56.92 50.29 56.86 50.3 56.79C50.34 56.64 50.38 56.49 50.44 56.34C50.46 56.28 50.48 56.22 50.51 56.16C50.59 55.97 50.69 55.79 50.8 55.62C50.83 55.58 50.86 55.55 50.89 55.51C50.99 55.38 51.09 55.25 51.2 55.13C51.25 55.08 51.31 55.02 51.36 54.97C51.46 54.87 51.57 54.79 51.68 54.7C51.74 54.66 51.8 54.61 51.86 54.57C52.03 54.46 52.2 54.36 52.39 54.28L52.45 54.25C52.88 54.07 53.35 53.97 53.85 53.97H55.18C57.2 53.97 58.85 55.62 58.85 57.64V64.89C58.85 65.47 58.7 66.04 58.45 66.54C58.42 66.6 58.38 66.66 58.35 66.72C58.25 66.9 58.13 67.07 58 67.23C57.95 67.29 57.91 67.34 57.86 67.4C57.68 67.6 57.47 67.78 57.25 67.94L57 68.11L56.81 68.24V76.21ZM63.99 65.06H60.86C60.86 65.01 60.86 64.95 60.86 64.9V57.65C60.86 55.59 59.75 53.79 58.1 52.79C59.46 51.74 60.35 50.1 60.35 48.26C60.35 45.11 57.78 42.54 54.63 42.54C51.48 42.54 48.91 45.11 48.91 48.26C48.91 48.53 48.94 48.8 48.97 49.07H41V65.07H23V31.52L45.46 19.48L45.57 19.41C46.36 18.85 47.64 18.85 48.43 19.41L71 31.52V42.56C70.82 42.54 70.64 42.53 70.46 42.53C68.99 42.53 67.74 43.06 66.74 44.1C64.02 46.95 64.26 52.76 64.27 53.01L64.31 53.96H65.47C65.47 53.96 65.46 53.98 65.45 53.99C65.27 54.21 65.1 54.44 64.95 54.69C64.92 54.73 64.9 54.78 64.87 54.82C64.73 55.06 64.61 55.32 64.5 55.59C64.48 55.64 64.46 55.69 64.45 55.73C64.35 56 64.27 56.28 64.22 56.58C64.22 56.62 64.21 56.66 64.2 56.7C64.15 57.01 64.11 57.32 64.11 57.65V64.78C64.11 64.78 64.09 64.83 64.07 64.87C64.07 64.87 64.07 64.88 64.07 64.89C64.05 64.94 64.02 64.99 63.98 65.06H63.99ZM73.78 67.77L72.74 67.73V76.21H68.19V67.73L67.15 67.77C66.21 67.81 65.42 67.68 64.87 67.52C64.98 67.35 65.06 67.21 65.15 67.06L65.22 66.93C65.39 66.65 65.52 66.42 65.63 66.21C65.93 65.67 66.05 65.36 66.1 65.12C66.1 65.11 66.1 65.1 66.1 65.09C66.1 65.06 66.1 65.03 66.11 65C66.11 65 66.11 64.98 66.11 64.97C66.11 64.94 66.11 64.92 66.11 64.89V57.64C66.11 55.62 67.75 53.97 69.78 53.97H71.11C71.32 53.97 71.55 53.99 71.8 54.04H71.86C73.53 54.39 74.78 55.87 74.78 57.64V64.89C74.78 65.12 74.78 65.52 76.04 67.51C75.49 67.66 74.7 67.79 73.76 67.76L73.78 67.77Z" fill="#002341"/>
</svg>
