<svg width="96" height="96" viewBox="0 0 96 96" fill="none" xmlns="http://www.w3.org/2000/svg">
<path d="M69.62 25.7V25.07C69.62 21.17 66.45 18 62.55 18H30.07C26.17 18 23 21.17 23 25.07V27.27C23 30.55 25.25 33.31 28.29 34.11V50.23C28.29 50.78 28.74 51.23 29.29 51.23C29.84 51.23 30.29 50.78 30.29 50.23V34.35H33.5V42.79C33.5 43.34 33.95 43.79 34.5 43.79C35.05 43.79 35.5 43.34 35.5 42.79V34.35H38.71V46.02C38.71 46.57 39.16 47.02 39.71 47.02C40.26 47.02 40.71 46.57 40.71 46.02V34.35H43.92V42.79C43.92 43.34 44.37 43.79 44.92 43.79C45.47 43.79 45.92 43.34 45.92 42.79V34.35H49.13V40.92C49.13 41.47 49.58 41.92 50.13 41.92C50.68 41.92 51.13 41.47 51.13 40.92V34.35H62.53C66.28 34.35 69.34 31.42 69.58 27.73C70.25 27.93 70.75 28.55 70.75 29.29V43.15C70.75 44.09 70.75 44.28 68.94 44.8C68.39 44.9 55.43 47.26 49.96 48.86C48.39 49.32 47.56 49.87 46.57 51.14C45.53 52.46 44.98 54.18 44.98 56.12V58.82H42.17V74.85C42.17 76.5 43.52 77.85 45.17 77.85H46.79C48.44 77.85 49.79 76.5 49.79 74.85V58.82H46.98V56.12C46.98 55.08 47.18 53.59 48.14 52.38C48.93 51.38 49.43 51.1 50.52 50.78C55.89 49.21 69.17 46.8 69.39 46.75C71.36 46.19 72.75 45.61 72.75 43.15V29.29C72.75 27.45 71.38 25.95 69.61 25.71L69.62 25.7ZM67.62 27.27C67.62 30.07 65.34 32.34 62.55 32.34H30.07C27.27 32.34 25 30.06 25 27.27V25.07C25 22.27 27.27 20 30.07 20H62.55C65.35 20 67.62 22.28 67.62 25.07V27.27ZM47.8 74.83C47.8 75.38 47.35 75.83 46.8 75.83H45.18C44.63 75.83 44.18 75.38 44.18 74.83V60.8H47.8V74.83Z" fill="#002341"/>
</svg>
