<svg width="96" height="96" viewBox="0 0 96 96" fill="none" xmlns="http://www.w3.org/2000/svg">
<path d="M38.0599 36.55C33.6954 36.5544 30.7093 39.4437 29.85 44.28H40.99V46.28H29.62C29.6 46.62 29.59 46.98 29.59 47.33C29.59 47.77 29.6 48.2 29.63 48.62H43.62V50.62H29.89C30.85 55.39 33.98 58.24 38.53 58.24C40.53 58.24 42.52 57.34 43.98 55.76L45.44 57.12C43.6 59.1 41.08 60.23 38.52 60.23C32.85 60.23 28.9 56.55 27.85 50.61H25.27V48.61H27.61C27.58 48.19 27.57 47.76 27.57 47.32C27.57 46.96 27.57 46.61 27.6 46.27H25.27V44.27H27.81C28.76 38.27 32.57 34.54 38.05 34.54C41.09 34.54 43.62 35.74 45.78 38.21L44.27 39.53C42.4924 37.4928 40.5153 36.5525 38.0599 36.55Z" fill="#002341"/>
<path fill-rule="evenodd" clip-rule="evenodd" d="M67.55 50.27C66.17 50.27 65.05 49.15 65.05 47.77C65.05 46.39 66.17 45.26 67.55 45.26C68.93 45.26 70.06 46.38 70.06 47.77C70.06 49.16 68.94 50.27 67.55 50.27ZM67.55 46.76C67 46.76 66.55 47.21 66.55 47.77C66.55 48.33 67 48.77 67.55 48.77C68.1 48.77 68.56 48.32 68.56 47.77C68.56 47.22 68.11 46.76 67.55 46.76Z" fill="#002341"/>
<path fill-rule="evenodd" clip-rule="evenodd" d="M81 56.55H84.41V38.97H81V26.28C81 23.37 78.63 21 75.72 21H17.28C14.37 21 12 23.37 12 26.28V69.24C12 72.15 14.37 74.52 17.28 74.52H75.72C78.63 74.52 81 72.15 81 69.24V56.55ZM75.72 23.01C77.53 23.01 79 24.48 79 26.29V38.97H67.48C63.19 38.97 59.7 42.46 59.7 46.75V48.77C59.7 53.06 63.19 56.55 67.48 56.55H79V69.24C79 71.05 77.53 72.52 75.72 72.52H17.28C15.47 72.52 14 71.05 14 69.24V26.29C14 24.48 15.47 23.01 17.28 23.01H75.72ZM67.48 40.98H82.41V54.56H67.48C64.29 54.56 61.7 51.97 61.7 48.78V46.76C61.7 43.57 64.29 40.98 67.48 40.98Z" fill="#002341"/>
</svg>
