<svg width="96" height="96" viewBox="0 0 96 96" fill="none" xmlns="http://www.w3.org/2000/svg">
<path d="M52 57C49.0079 44.2182 27 46.6254 27 61.0002C24.0079 61.0002 17.9142 61.5926 17 67.0002C16.1639 71.9454 19.5921 78.0001 27.1003 78.0001H52.0343C57.0211 78.0001 65 76.2731 65 67.0002C65 59.6262 58.4829 57 52 57Z" fill="#8FC1FF"/>
<path fill-rule="evenodd" clip-rule="evenodd" d="M62.0002 32.8039C58.1739 30.5947 53.2812 31.9057 51.072 35.7321C50.1702 37.2941 49.8555 39.028 50.057 40.6882C50.19 41.7847 49.409 42.7815 48.3124 42.9145C47.2159 43.0476 46.2191 42.2665 46.0861 41.17C45.7839 38.6792 46.2581 36.0701 47.6079 33.7321C50.9216 27.9926 58.2607 26.0261 64.0002 29.3398C69.7397 32.6535 71.7062 39.9926 68.3925 45.7321C67.0427 48.0701 65.0202 49.7853 62.712 50.769C61.6959 51.202 60.5211 50.7293 60.088 49.7132C59.655 48.697 60.1277 47.5222 61.1438 47.0892C62.6823 46.4336 64.0266 45.2941 64.9284 43.7321C67.1376 39.9057 65.8266 35.013 62.0002 32.8039Z" fill="#0F1D2E"/>
<path fill-rule="evenodd" clip-rule="evenodd" d="M59 14C60.1046 14 61 14.8954 61 16V22C61 23.1046 60.1046 24 59 24C57.8954 24 57 23.1046 57 22V16C57 14.8954 57.8954 14 59 14Z" fill="#0F1D2E"/>
<path fill-rule="evenodd" clip-rule="evenodd" d="M32 40C32 38.8954 32.8954 38 34 38L40 38C41.1046 38 42 38.8954 42 40C42 41.1046 41.1046 42 40 42L34 42C32.8954 42 32 41.1046 32 40Z" fill="#0F1D2E"/>
<path fill-rule="evenodd" clip-rule="evenodd" d="M74 40C74 38.8954 74.8954 38 76 38L82 38C83.1046 38 84 38.8954 84 40C84 41.1046 83.1046 42 82 42L76 42C74.8954 42 74 41.1046 74 40Z" fill="#0F1D2E"/>
<path fill-rule="evenodd" clip-rule="evenodd" d="M39.5856 20.5858C40.3666 19.8047 41.633 19.8047 42.414 20.5858L46.6567 24.8284C47.4377 25.6095 47.4377 26.8758 46.6567 27.6569C45.8756 28.4379 44.6093 28.4379 43.8282 27.6569L39.5856 23.4142C38.8046 22.6332 38.8046 21.3668 39.5856 20.5858Z" fill="#0F1D2E"/>
<path fill-rule="evenodd" clip-rule="evenodd" d="M78.6566 20.5858C77.8755 19.8047 76.6092 19.8047 75.8282 20.5858L71.5855 24.8284C70.8045 25.6095 70.8045 26.8758 71.5855 27.6569C72.3666 28.4379 73.6329 28.4379 74.4139 27.6569L78.6566 23.4142C79.4376 22.6332 79.4376 21.3668 78.6566 20.5858Z" fill="#0F1D2E"/>
<path fill-rule="evenodd" clip-rule="evenodd" d="M25.1176 59.0759C23.7105 59.1927 22.0404 59.4753 20.4627 60.1216C18.0094 61.1265 15.632 63.0941 15.028 66.6668C14.0072 72.7043 18.2277 80.0001 27.1003 80.0001H52.0343C54.6953 80.0001 58.3599 79.5497 61.4258 77.6867C64.639 75.7342 67 72.3374 67 67.0002C67 62.6733 65.1892 59.5343 62.232 57.5691C59.7814 55.9406 56.6856 55.208 53.503 55.0391C51.1206 48.4313 44.1672 46.0088 38.1079 46.8347C32.0594 47.6591 26.0267 51.8042 25.1176 59.0759ZM38.6481 50.798C43.901 50.0821 48.8734 52.4183 50.0526 57.4559C50.2644 58.3604 51.071 59 52 59C55.3023 59 58.1032 59.6281 60.018 60.9006C61.8108 62.092 63 63.9531 63 67.0002C63 70.9359 61.3716 73.039 59.3486 74.2683C57.1784 75.587 54.3601 76.0001 52.0343 76.0001H27.1003C20.9564 76.0001 18.3206 71.1865 18.972 67.3336C19.2822 65.4987 20.4088 64.4662 21.9789 63.8231C23.6291 63.1471 25.5898 63.0002 27 63.0002C28.1046 63.0002 29 62.1047 29 61.0002C29 55.0918 33.4593 51.5053 38.6481 50.798Z" fill="#0F1D2E"/>
</svg>
