<svg width="96" height="96" viewBox="0 0 96 96" fill="none" xmlns="http://www.w3.org/2000/svg">
<path d="M59.8001 22.03C59.8001 22.58 60.2501 23.03 60.8001 23.03C61.3501 23.03 61.8001 22.58 61.8001 22.03V16C61.8001 15.45 61.3501 15 60.8001 15C60.2501 15 59.8001 15.45 59.8001 16V22.03Z" fill="#002341"/>
<path d="M60.4002 48.59C60.4301 49.13 60.8702 49.54 61.4002 49.54L61.3901 49.53H61.4501C67.7201 49.19 72.6401 44.23 72.6401 37.7C72.6401 31.17 67.3201 25.85 60.7901 25.85C54.2602 25.85 48.9401 31.16 48.9401 37.7C48.9401 38.5 49.0201 39.3 49.1801 40.07C49.2901 40.61 49.8201 40.96 50.3601 40.85C50.9002 40.74 51.2501 40.21 51.1401 39.67C51.0101 39.03 50.9401 38.37 50.9401 37.7C50.9401 32.27 55.3601 27.85 60.7901 27.85C66.2201 27.85 70.6401 32.47 70.6401 37.7C70.6401 42.93 66.5602 47.25 61.3401 47.54C60.7901 47.57 60.3702 48.04 60.4002 48.59Z" fill="#002341"/>
<path d="M45.1201 38.7H39.0901C38.5401 38.7 38.0901 38.25 38.0901 37.7C38.0901 37.15 38.5401 36.7 39.0901 36.7H45.1201C45.6701 36.7 46.1201 37.15 46.1201 37.7C46.1201 38.25 45.6701 38.7 45.1201 38.7Z" fill="#002341"/>
<path d="M76.4701 38.7H82.5002C83.0502 38.7 83.5002 38.25 83.5002 37.7C83.5002 37.15 83.0502 36.7 82.5002 36.7H76.4701C75.9202 36.7 75.4701 37.15 75.4701 37.7C75.4701 38.25 75.9202 38.7 76.4701 38.7Z" fill="#002341"/>
<path d="M48.7753 27.29C48.517 27.2887 48.2689 27.1888 48.0701 27L43.8101 22.74C43.4201 22.35 43.4201 21.72 43.8101 21.33C44.2001 20.94 44.8301 20.94 45.2201 21.33L49.4801 25.59C49.8701 25.98 49.8701 26.61 49.4801 27C49.2815 27.1987 49.0334 27.2888 48.7753 27.29Z" fill="#002341"/>
<path d="M48.7753 27.29L48.7801 27.29H48.7701L48.7753 27.29Z" fill="#002341"/>
<path d="M72.1901 27C72.3889 27.1888 72.637 27.2887 72.8953 27.29L72.8901 27.29H72.9002L72.8953 27.29C73.1534 27.2888 73.4015 27.1987 73.6001 27L77.8601 22.74C78.2501 22.35 78.2501 21.72 77.8601 21.33C77.4701 20.94 76.8401 20.94 76.4501 21.33L72.1901 25.59C71.8001 25.98 71.8001 26.61 72.1901 27Z" fill="#002341"/>
<path d="M75.9053 55.02C75.647 55.0187 75.3989 54.9188 75.2001 54.73L70.9401 50.47C70.5501 50.08 70.5501 49.45 70.9401 49.06C71.3301 48.67 71.9601 48.67 72.3501 49.06L76.6101 53.32C77.0001 53.71 77.0001 54.34 76.6101 54.73C76.4115 54.9287 76.1634 55.0188 75.9053 55.02Z" fill="#002341"/>
<path d="M75.9053 55.02L75.9101 55.02H75.9002L75.9053 55.02Z" fill="#002341"/>
<path fill-rule="evenodd" clip-rule="evenodd" d="M28.2401 79.69H57.7901C70.0802 79.69 74.4601 72.33 74.4601 65.43C74.4601 57.59 68.8201 53.19 58.5501 52.98C56.2701 45.3 48.4401 42.59 41.9501 43.36C35.1101 44.17 27.7802 49.03 27.2702 57.82C23.8302 57.96 16.4401 59.01 15.2001 65.23C14.5401 68.57 15.5101 72.23 17.8001 75.03C20.2601 78.04 23.9701 79.69 28.2401 79.69ZM42.1901 45.35C42.8501 45.27 43.5201 45.23 44.2001 45.23C49.6801 45.23 55.2901 47.88 56.8102 54.21C56.9202 54.66 57.3201 54.98 57.7801 54.98C64.4701 54.98 72.4501 56.79 72.4501 65.43C72.4501 68.3 71.4001 77.69 57.7801 77.69H28.2401C24.5801 77.69 21.4201 76.3 19.3501 73.77C17.4601 71.47 16.6301 68.35 17.1701 65.63C18.2601 60.22 25.9201 59.8 28.2501 59.8C28.8001 59.8 29.2501 59.35 29.2501 58.8C29.2501 50.57 35.7501 46.11 42.1901 45.35Z" fill="#002341"/>
</svg>
