<svg width="96" height="96" viewBox="0 0 96 96" fill="none" xmlns="http://www.w3.org/2000/svg">
<path fill-rule="evenodd" clip-rule="evenodd" d="M65.41 32.57V60.39H65.4C68.98 62.51 72.12 65.54 72.12 69.62H70.12C70.12 64.58 63.58 61.29 59.03 59.61C55.38 65.39 51.53 68.32 47.58 68.32H47.17C41.47 68.03 37.54 61.77 36.3 59.51C31.75 61.15 24.89 64.47 24.89 69.63H22.89C22.89 65.31 26.42 62.16 30.26 60.02V32.57C30.26 22.88 38.14 15 47.83 15C57.52 15 65.41 22.88 65.41 32.57ZM47.83 17C39.25 17 32.26 23.98 32.26 32.57H32.24V59C35.06 57.68 37.73 56.88 39.01 56.54V53.06C34.497 48.1144 34.5276 39.6887 34.5299 39.0556L34.53 39.03C34.54 38.51 34.94 38.09 35.46 38.05C35.84 38.02 44.8 37.29 44.38 29.89C44.35 29.42 44.67 28.99 45.13 28.87C45.6 28.75 46.07 28.98 46.28 29.41L46.2818 29.4135C46.4556 29.7615 49.9744 36.8046 59.41 38.06C59.91 38.13 60.28 38.56 60.28 39.06C60.27 42.79 59.2 48.58 55.98 52.47V56.54C57.37 56.91 60.36 57.81 63.4 59.31V32.57C63.4 23.99 56.41 17 47.83 17ZM40.72 51.96L40.76 52C42.44 53.7 44.61 54.57 47.22 54.57C56.71 54.57 58.07 43.2 58.26 39.91C51.87 38.8 48.06 35.25 46.12 32.78C44.87 37.51 39.96 39.46 36.57 39.95C36.67 42.24 37.27 48.42 40.72 51.96ZM38.25 58.86C39.51 61.05 42.87 66.1 47.29 66.32L47.28 66.31C50.49 66.5 53.82 64 57.09 58.95C55.72 58.52 54.8 58.29 54.76 58.29L53.99 58.11V54.39C52.21 55.73 49.99 56.57 47.22 56.57C44.86 56.57 42.79 55.98 41.03 54.81V57.32C41.03 57.8 40.7 58.18 40.26 58.28V58.3C40.23 58.3 39.44 58.49 38.25 58.86Z" fill="#002341"/>
<path d="M15.22 69.57L17.45 74.08L22.43 74.81L18.82 78.33L19.67 83.29L15.22 80.95L10.76 83.29L11.61 78.33L8 74.81L12.99 74.08L15.22 69.57Z" fill="#002341"/>
<path d="M33.74 74.08L31.51 69.57L29.28 74.08L24.3 74.81L27.9 78.33L27.05 83.29L31.51 80.95L35.97 83.29L35.12 78.33L38.73 74.81L33.74 74.08Z" fill="#002341"/>
<path d="M47.81 69.57L50.04 74.08L55.02 74.81L51.42 78.33L52.27 83.29L47.81 80.95L43.35 83.29L44.2 78.33L40.59 74.81L45.58 74.08L47.81 69.57Z" fill="#002341"/>
<path d="M66.34 74.08L64.11 69.57L61.88 74.08L56.89 74.81L60.5 78.33L59.65 83.29L64.11 80.95L68.56 83.29L67.71 78.33L71.32 74.81L66.34 74.08Z" fill="#002341"/>
<path d="M82.63 74.08L87.62 74.81L84.01 78.33L84.86 83.29L80.4 80.95L75.94 83.29L76.79 78.33L73.19 74.81L78.17 74.08L80.4 69.57L82.63 74.08Z" fill="#002341"/>
</svg>
