<svg width="96" height="96" viewBox="0 0 96 96" fill="none" xmlns="http://www.w3.org/2000/svg">
<path d="M64.88 55.3C64.71 55.3 64.54 55.26 64.38 55.17C63.9 54.89 63.74 54.28 64.01 53.8L66.22 49.97C66.5 49.49 67.11 49.33 67.59 49.6C68.07 49.88 68.23 50.49 67.96 50.97L65.75 54.8C65.56 55.12 65.23 55.3 64.88 55.3Z" fill="#002341"/>
<path d="M65.02 57.07C65.2 57.41 65.55 57.61 65.91 57.61V57.6C66.06 57.6 66.22 57.57 66.37 57.49L70.29 55.45C70.77 55.19 70.97 54.59 70.71 54.1C70.45 53.61 69.85 53.42 69.36 53.68L65.44 55.72C64.96 55.98 64.76 56.58 65.02 57.07Z" fill="#002341"/>
<path fill-rule="evenodd" clip-rule="evenodd" d="M75.7 74.68L74.75 74.46C64.25 71.98 57.93 66.35 55.43 57.26L55.2 56.41L60.59 54.18C61.64 53.75 62.87 54.24 63.32 55.28L65.22 59.59C65.52 60.27 65.43 61.07 65 61.67L64.41 62.48C65.42 63.87 66.75 64.99 68.52 65.94L69.35 65.31C69.91 64.89 70.63 64.77 71.3 64.99L75.82 66.51C76.87 66.86 77.47 67.97 77.19 69.04L75.71 74.69L75.7 74.68ZM57.61 57.57C59.97 65.14 65.44 69.96 74.27 72.28L75.25 68.53C75.26 68.48 75.23 68.42 75.18 68.4L70.66 66.88L68.74 68.29L68.18 68.01C65.55 66.71 63.69 65.11 62.35 62.99L61.99 62.42L63.39 60.49C63.39 60.49 63.42 60.42 63.4 60.39L61.5 56.08C61.48 56.03 61.42 56 61.36 56.02L57.61 57.57Z" fill="#002341"/>
<path d="M71.15 59.93H66.73C66.18 59.93 65.73 59.48 65.73 58.93C65.73 58.38 66.18 57.93 66.73 57.93H71.15C71.7 57.93 72.15 58.38 72.15 58.93C72.15 59.48 71.7 59.93 71.15 59.93Z" fill="#002341"/>
<path fill-rule="evenodd" clip-rule="evenodd" d="M60.51 45.94C62.41 45.31 64.43 44.95 66.54 44.95C77.08 44.95 85.65 53.52 85.65 64.06C85.65 74.6 77.08 83.17 66.54 83.17C56 83.17 47.43 74.6 47.43 64.06C47.43 63.29 47.49 62.53 47.58 61.78C45.97 62.8 44.34 63.32 42.69 63.32H42.28C36.58 63.03 32.65 56.77 31.41 54.51C26.86 56.15 20 59.47 20 64.63H18C18 60.31 21.53 57.16 25.37 55.02V27.57C25.37 17.88 33.25 10 42.94 10C52.63 10 60.51 17.88 60.51 27.57V45.94ZM27.37 53.9806C30.1826 52.6662 32.843 51.8692 34.12 51.53V48.06C29.607 43.1144 29.6376 34.6887 29.6399 34.0556C29.64 34.0447 29.64 34.0362 29.64 34.03C29.65 33.51 30.05 33.09 30.57 33.05C30.95 33.02 39.91 32.29 39.49 24.89C39.46 24.42 39.78 23.99 40.24 23.87C40.71 23.75 41.18 23.98 41.39 24.41L41.3918 24.4135C41.5656 24.7614 45.0844 31.8046 54.52 33.06C55.02 33.13 55.39 33.56 55.39 34.06C55.38 37.79 54.31 43.58 51.09 47.47V51.54C51.2791 51.5893 51.502 51.6522 51.7531 51.723C51.8074 51.7383 51.8631 51.754 51.92 51.77C53.71 49.65 55.96 47.93 58.51 46.74V27.57C58.51 18.99 51.52 12 42.94 12C34.36 12 27.37 18.98 27.37 27.57V53.9806ZM35.87 47C37.55 48.71 39.72 49.57 42.33 49.57C51.82 49.57 53.18 38.2 53.37 34.91C46.98 33.8 43.17 30.25 41.23 27.78C39.98 32.51 35.07 34.46 31.68 34.95C31.78 37.23 32.37 43.41 35.82 46.95C35.8329 46.9565 35.8417 46.9671 35.8516 46.9792C35.8571 46.9858 35.8629 46.9929 35.87 47ZM33.35 53.86C34.61 56.05 37.97 61.1 42.39 61.32L42.37 61.31C44.28 61.43 46.22 60.59 48.16 58.84C48.71 56.92 49.54 55.12 50.62 53.49C50.16 53.36 49.88 53.29 49.86 53.29L49.09 53.11V49.39C47.31 50.73 45.09 51.57 42.32 51.57C39.96 51.57 37.89 50.98 36.13 49.81V52.32C36.13 52.8 35.8 53.18 35.36 53.28V53.3C35.33 53.3 34.54 53.49 33.35 53.86ZM49.43 64.06C49.43 73.49 57.1 81.17 66.54 81.17C75.97 81.17 83.65 73.49 83.65 64.06C83.65 54.63 75.97 46.95 66.54 46.95C57.11 46.95 49.43 54.63 49.43 64.06Z" fill="#002341"/>
</svg>
