<svg width="96" height="96" viewBox="0 0 96 96" fill="none" xmlns="http://www.w3.org/2000/svg">
<path fill-rule="evenodd" clip-rule="evenodd" d="M65.4 32.58V60.39C68.98 62.51 72.12 65.54 72.12 69.62H70.12C70.12 64.58 63.58 61.29 59.03 59.61C55.38 65.39 51.53 68.32 47.58 68.32H47.17C41.47 68.03 37.54 61.77 36.3 59.51C31.75 61.15 24.89 64.47 24.89 69.63H22.89C22.89 65.31 26.42 62.16 30.26 60.02V32.57C30.26 22.88 38.14 15 47.83 15C57.52 15 65.4 22.88 65.4 32.58ZM47.83 17C39.25 17 32.26 23.98 32.26 32.57H32.24V59C35.06 57.68 37.73 56.88 39.01 56.54V53.06C34.497 48.1144 34.5276 39.6887 34.5299 39.0556L34.53 39.03C34.54 38.51 34.94 38.09 35.46 38.05C35.84 38.02 44.8 37.29 44.38 29.89C44.35 29.42 44.67 28.99 45.13 28.87C45.6 28.75 46.07 28.98 46.28 29.41L46.2818 29.4135C46.4556 29.7615 49.9744 36.8046 59.41 38.06C59.91 38.13 60.28 38.56 60.28 39.06C60.27 42.79 59.2 48.58 55.98 52.47V56.54C57.37 56.91 60.36 57.81 63.4 59.31V32.57C63.4 23.99 56.41 17 47.83 17ZM40.71 51.96L40.74 51.99C42.43 53.69 44.6 54.56 47.21 54.56C56.7 54.56 58.06 43.19 58.25 39.9C51.86 38.79 48.05 35.24 46.11 32.77C44.86 37.51 39.95 39.46 36.56 39.95C36.66 42.23 37.26 48.42 40.71 51.96ZM38.24 58.86C39.5 61.05 42.86 66.1 47.28 66.32L47.27 66.31C50.52 66.5 53.81 64 57.08 58.95C55.71 58.52 54.79 58.29 54.75 58.29L53.98 58.11V54.39C52.2 55.73 49.98 56.57 47.21 56.57C44.85 56.57 42.78 55.98 41.02 54.81V57.32C41.02 57.8 40.69 58.18 40.25 58.28V58.3C40.22 58.3 39.43 58.49 38.24 58.86Z" fill="#002341"/>
<path d="M17.44 74.09L22.43 74.81L18.82 78.33L19.67 83.29L15.21 80.95L10.76 83.29L11.61 78.33L8 74.81L12.99 74.09L15.21 69.57L17.44 74.09Z" fill="#002341"/>
<path fill-rule="evenodd" clip-rule="evenodd" d="M31.51 80.95L27.05 83.29L27.9 78.33L24.29 74.81L29.28 74.09L31.51 69.57L33.74 74.09L38.73 74.81L35.12 78.33L35.97 83.29L31.51 80.95ZM31.51 78.69L33.31 79.64L32.97 77.63L34.43 76.21L32.41 75.92L31.51 74.09L30.61 75.92L28.59 76.21L30.05 77.63L29.71 79.64L31.51 78.69Z" fill="#002341"/>
<path fill-rule="evenodd" clip-rule="evenodd" d="M44.2 78.33L43.35 83.29L47.81 80.95L52.27 83.29L51.42 78.33L55.03 74.81L50.04 74.09L47.81 69.57L45.58 74.09L40.59 74.81L44.2 78.33ZM46.35 77.63L44.89 76.21L46.91 75.92L47.81 74.09L48.71 75.92L50.73 76.21L49.27 77.63L49.61 79.64L47.81 78.69L46.01 79.64L46.35 77.63Z" fill="#002341"/>
<path fill-rule="evenodd" clip-rule="evenodd" d="M59.64 83.29L60.49 78.33L56.88 74.81L61.87 74.09L64.1 69.57L66.33 74.09L71.32 74.81L67.71 78.33L68.56 83.29L64.1 80.95L59.64 83.29ZM65.9 79.64L65.56 77.63L67.02 76.21L65 75.92L64.1 74.09L63.2 75.92L61.18 76.21L62.64 77.63L62.3 79.64L64.1 78.69L65.9 79.64Z" fill="#002341"/>
<path fill-rule="evenodd" clip-rule="evenodd" d="M80.4 80.95L84.86 83.29L84.01 78.33L87.62 74.81L82.63 74.09L80.4 69.57L78.17 74.09L73.18 74.81L76.79 78.33L75.94 83.29L80.4 80.95ZM78.94 77.63L77.48 76.21L79.5 75.92L80.4 74.09L81.3 75.92L83.32 76.21L81.86 77.63L82.2 79.64L80.4 78.69L78.6 79.64L78.94 77.63Z" fill="#002341"/>
</svg>
