<svg width="96" height="96" viewBox="0 0 96 96" fill="none" xmlns="http://www.w3.org/2000/svg">
<path fill-rule="evenodd" clip-rule="evenodd" d="M65.41 32.57V60.39H65.4C68.98 62.51 72.12 65.54 72.12 69.62H70.12C70.12 64.58 63.58 61.29 59.03 59.61C55.38 65.39 51.53 68.32 47.58 68.32H47.17C41.47 68.03 37.54 61.77 36.3 59.51C31.75 61.15 24.89 64.47 24.89 69.63H22.89C22.89 65.31 26.42 62.16 30.26 60.02V32.57C30.26 22.88 38.14 15 47.83 15C57.52 15 65.41 22.88 65.41 32.57ZM47.83 17C39.25 17 32.26 23.98 32.26 32.57H32.24V59C35.06 57.68 37.73 56.88 39.01 56.54V53.06C34.497 48.1144 34.5276 39.6887 34.5299 39.0556L34.53 39.03C34.54 38.51 34.94 38.09 35.46 38.05C35.84 38.02 44.8 37.29 44.38 29.89C44.35 29.42 44.67 28.99 45.13 28.87C45.6 28.75 46.07 28.98 46.28 29.41L46.2818 29.4135C46.4556 29.7615 49.9744 36.8046 59.41 38.06C59.91 38.13 60.28 38.56 60.28 39.06C60.27 42.79 59.2 48.58 55.98 52.47V56.54C57.37 56.91 60.36 57.81 63.4 59.31V32.57C63.4 23.99 56.41 17 47.83 17ZM40.71 51.96L40.75 52H40.74C42.43 53.7 44.6 54.57 47.21 54.57C56.7 54.57 58.06 43.2 58.25 39.91C51.86 38.8 48.05 35.25 46.11 32.78C44.86 37.51 39.95 39.46 36.56 39.95C36.66 42.23 37.26 48.42 40.71 51.96ZM38.24 58.86C39.5 61.05 42.86 66.1 47.28 66.32L47.27 66.31C50.48 66.5 53.81 64 57.08 58.95C55.71 58.52 54.79 58.29 54.75 58.29L53.98 58.11V54.39C52.2 55.73 49.98 56.57 47.21 56.57C44.85 56.57 42.78 55.98 41.02 54.81V57.32C41.02 57.8 40.69 58.18 40.25 58.28V58.3C40.22 58.3 39.43 58.49 38.24 58.86Z" fill="#002341"/>
<path d="M15.22 69.57L17.45 74.08L22.43 74.81L18.82 78.33L19.68 83.29L15.22 80.95L10.76 83.29L11.61 78.33L8 74.81L12.99 74.08L15.22 69.57Z" fill="#002341"/>
<path d="M33.74 74.08L31.51 69.57L29.28 74.08L24.3 74.81L27.9 78.33L27.05 83.29L31.51 80.95L35.97 83.29L35.12 78.33L38.73 74.81L33.74 74.08Z" fill="#002341"/>
<path fill-rule="evenodd" clip-rule="evenodd" d="M47.81 69.56L50.04 74.08L55.03 74.8L51.42 78.32L52.27 83.28L47.81 80.94L43.35 83.28L44.2 78.32L40.59 74.8L45.58 74.08L47.81 69.56ZM46.35 77.62L46.01 79.63L47.81 78.68L49.61 79.63L49.27 77.62L50.73 76.2L48.71 75.91L47.81 74.08L46.91 75.91L44.89 76.2L46.35 77.62Z" fill="#002341"/>
<path fill-rule="evenodd" clip-rule="evenodd" d="M66.34 74.08L64.11 69.56L61.88 74.08L56.89 74.8L60.5 78.32L59.65 83.28L64.11 80.94L68.57 83.28L67.72 78.32L71.33 74.8L66.34 74.08ZM65.91 79.63L64.11 78.68L62.31 79.63L62.65 77.62L61.19 76.2L63.21 75.91L64.11 74.08L65.01 75.91L67.03 76.2L65.57 77.62L65.91 79.63Z" fill="#002341"/>
<path fill-rule="evenodd" clip-rule="evenodd" d="M82.63 74.09L87.62 74.81L84.01 78.33L84.86 83.29L80.4 80.95L75.94 83.29L76.79 78.33L73.18 74.81L78.17 74.09L80.4 69.57L82.63 74.09ZM78.95 77.63L78.61 79.64L80.41 78.69L82.21 79.64L81.87 77.63L83.33 76.21L81.31 75.92L80.41 74.09L79.51 75.92L77.49 76.21L78.95 77.63Z" fill="#002341"/>
</svg>
