<svg width="96" height="96" viewBox="0 0 96 96" fill="none" xmlns="http://www.w3.org/2000/svg">
<path d="M15 68.9994C15 67.8948 15.8954 66.9994 17 66.9994H79C80.1046 66.9994 81 67.8948 81 68.9994V80.9994C81 82.104 80.1046 82.9994 79 82.9994H17C15.8954 82.9994 15 82.104 15 80.9994V68.9994Z" fill="#8FC1FF"/>
<path d="M35.4813 70.8896C35.7128 70.4922 36.2868 70.4922 36.5183 70.8896L37.4832 72.5462C37.5679 72.6917 37.71 72.7949 37.8746 72.8306L39.7483 73.2363C40.1977 73.3336 40.3751 73.8796 40.0687 74.2225L38.7914 75.6521C38.6792 75.7777 38.6249 75.9447 38.6419 76.1123L38.835 78.0196C38.8813 78.4771 38.4169 78.8145 37.9961 78.6291L36.2418 77.856C36.0876 77.7881 35.912 77.7881 35.7579 77.856L34.0036 78.6291C33.5828 78.8145 33.1183 78.4771 33.1647 78.0196L33.3578 76.1123C33.3747 75.9447 33.3205 75.7777 33.2082 75.6521L31.9309 74.2225C31.6245 73.8796 31.8019 73.3336 32.2513 73.2363L34.125 72.8306C34.2896 72.7949 34.4317 72.6917 34.5165 72.5462L35.4813 70.8896Z" fill="#0F1D2E"/>
<path fill-rule="evenodd" clip-rule="evenodd" d="M32.2513 73.2363C31.8019 73.3336 31.6245 73.8796 31.9309 74.2225L33.2082 75.6521C33.3205 75.7777 33.3747 75.9447 33.3578 76.1123L33.1647 78.0196C33.1183 78.4771 33.5828 78.8145 34.0036 78.6291L35.7579 77.856C35.912 77.7881 36.0876 77.7881 36.2418 77.856L37.9961 78.6291C38.4169 78.8145 38.8813 78.4771 38.835 78.0196L38.6419 76.1123C38.6249 75.9447 38.6792 75.7777 38.7914 75.6521L40.0687 74.2225C40.3751 73.8796 40.1977 73.3336 39.7483 73.2363L37.8746 72.8306C37.71 72.7949 37.5679 72.6917 37.4832 72.5462L36.5183 70.8896C36.2868 70.4922 35.7128 70.4922 35.4813 70.8896L34.5165 72.5462C34.4317 72.6917 34.2896 72.7949 34.125 72.8306L32.2513 73.2363Z" fill="#0F1D2E"/>
<path d="M47.4813 70.8896C47.7128 70.4922 48.2868 70.4922 48.5183 70.8896L49.4832 72.5462C49.5679 72.6917 49.71 72.7949 49.8746 72.8306L51.7483 73.2363C52.1977 73.3336 52.3751 73.8796 52.0687 74.2225L50.7914 75.6521C50.6792 75.7777 50.6249 75.9447 50.6419 76.1123L50.835 78.0196C50.8813 78.4771 50.4169 78.8145 49.9961 78.6291L48.2418 77.856C48.0876 77.7881 47.912 77.7881 47.7579 77.856L46.0036 78.6291C45.5828 78.8145 45.1183 78.4771 45.1647 78.0196L45.3578 76.1123C45.3747 75.9447 45.3205 75.7777 45.2082 75.6521L43.9309 74.2225C43.6245 73.8796 43.8019 73.3336 44.2513 73.2363L46.125 72.8306C46.2896 72.7949 46.4317 72.6917 46.5165 72.5462L47.4813 70.8896Z" fill="#0F1D2E"/>
<path fill-rule="evenodd" clip-rule="evenodd" d="M44.2513 73.2363C43.8019 73.3336 43.6245 73.8796 43.9309 74.2225L45.2082 75.6521C45.3205 75.7777 45.3747 75.9447 45.3578 76.1123L45.1647 78.0196C45.1183 78.4771 45.5828 78.8145 46.0036 78.6291L47.7579 77.856C47.912 77.7881 48.0876 77.7881 48.2418 77.856L49.9961 78.6291C50.4169 78.8145 50.8813 78.4771 50.835 78.0196L50.6419 76.1123C50.6249 75.9447 50.6792 75.7777 50.7914 75.6521L52.0687 74.2225C52.3751 73.8796 52.1977 73.3336 51.7483 73.2363L49.8746 72.8306C49.71 72.7949 49.5679 72.6917 49.4832 72.5462L48.5183 70.8896C48.2868 70.4922 47.7128 70.4922 47.4813 70.8896L46.5165 72.5462C46.4317 72.6917 46.2896 72.7949 46.125 72.8306L44.2513 73.2363Z" fill="#0F1D2E"/>
<path d="M59.4813 70.8896C59.7128 70.4922 60.2868 70.4922 60.5183 70.8896L61.4832 72.5462C61.5679 72.6917 61.71 72.7949 61.8746 72.8306L63.7483 73.2363C64.1977 73.3336 64.3751 73.8796 64.0687 74.2225L62.7914 75.6521C62.6792 75.7777 62.6249 75.9447 62.6419 76.1123L62.835 78.0196C62.8813 78.4771 62.4169 78.8145 61.9961 78.6291L60.2418 77.856C60.0876 77.7881 59.912 77.7881 59.7579 77.856L58.0036 78.6291C57.5828 78.8145 57.1183 78.4771 57.1647 78.0196L57.3578 76.1123C57.3747 75.9447 57.3205 75.7777 57.2082 75.6521L55.9309 74.2225C55.6245 73.8796 55.8019 73.3336 56.2513 73.2363L58.125 72.8306C58.2896 72.7949 58.4317 72.6917 58.5165 72.5462L59.4813 70.8896Z" fill="#0F1D2E"/>
<path fill-rule="evenodd" clip-rule="evenodd" d="M56.2513 73.2363C55.8019 73.3336 55.6245 73.8796 55.9309 74.2225L57.2082 75.6521C57.3205 75.7777 57.3747 75.9447 57.3578 76.1123L57.1647 78.0196C57.1183 78.4771 57.5828 78.8145 58.0036 78.6291L59.7579 77.856C59.912 77.7881 60.0876 77.7881 60.2418 77.856L61.9961 78.6291C62.4169 78.8145 62.8813 78.4771 62.835 78.0196L62.6419 76.1123C62.6249 75.9447 62.6792 75.7777 62.7914 75.6521L64.0687 74.2225C64.3751 73.8796 64.1977 73.3336 63.7483 73.2363L61.8746 72.8306C61.71 72.7949 61.5679 72.6917 61.4832 72.5462L60.5183 70.8896C60.2868 70.4922 59.7128 70.4922 59.4813 70.8896L58.5165 72.5462C58.4317 72.6917 58.2896 72.7949 58.125 72.8306L56.2513 73.2363Z" fill="#0F1D2E"/>
<path fill-rule="evenodd" clip-rule="evenodd" d="M53.999 46.0005C52.8944 46.0005 51.999 46.8959 51.999 48.0005V54.0005C51.999 54.9892 52.7214 55.8295 53.6989 55.9779C54.023 56.027 54.9795 56.3681 56.4491 57.1361C57.8361 57.8609 59.4826 58.8604 61.1111 60.0304C62.7429 61.2027 64.3169 62.5177 65.5839 63.8655C66.8712 65.2349 67.7321 66.5233 68.1016 67.6318C68.4509 68.6797 69.5835 69.2461 70.6314 68.8968C71.6793 68.5475 72.2456 67.4148 71.8963 66.3669C71.2659 64.4755 69.9698 62.6911 68.4984 61.1258C67.0066 59.5388 65.2201 58.0572 63.445 56.7818C61.6665 55.5041 59.8594 54.4049 58.3017 53.5909C57.5132 53.1789 56.7234 52.8048 55.999 52.5216V48.0005C55.999 46.8959 55.1035 46.0005 53.999 46.0005Z" fill="#0F1D2E"/>
<path fill-rule="evenodd" clip-rule="evenodd" d="M42.0001 45.9994C43.1046 45.9994 44.0001 46.8948 44.0001 47.9994V53.9994C44.0001 54.9881 43.2776 55.8284 42.3001 55.9768C41.9761 56.0259 41.0196 56.367 39.5499 57.135C38.1629 57.8598 36.5164 58.8593 34.8879 60.0293C33.2561 61.2016 31.6821 62.5166 30.4151 63.8644C29.1278 65.2338 28.2669 66.5222 27.8974 67.6307C27.5481 68.6786 26.4155 69.245 25.3676 68.8957C24.3197 68.5464 23.7534 67.4137 24.1027 66.3658C24.7332 64.4744 26.0293 62.69 27.5007 61.1247C28.9925 59.5377 30.7789 58.0561 32.5541 56.7807C34.3326 55.503 36.1396 54.4038 37.6973 53.5898C38.4858 53.1778 39.2756 52.8037 40.0001 52.5205V47.9994C40.0001 46.8948 40.8955 45.9994 42.0001 45.9994Z" fill="#0F1D2E"/>
<path fill-rule="evenodd" clip-rule="evenodd" d="M61.7483 56.0302C62.2846 56.9959 61.9365 58.2134 60.9709 58.7497C56.3169 61.3343 52.2225 62.7498 47.9999 62.7499C43.7773 62.7499 39.6829 61.3344 35.0289 58.7498C34.0632 58.2135 33.7151 56.996 34.2514 56.0303C34.7877 55.0646 36.0052 54.7166 36.9709 55.2528C41.3168 57.6663 44.7224 58.7499 47.9999 58.7499C51.2773 58.7498 54.6829 57.6663 59.0289 55.2528C59.9945 54.7165 61.2121 55.0646 61.7483 56.0302Z" fill="#0F1D2E"/>
<path fill-rule="evenodd" clip-rule="evenodd" d="M39.6092 28.0955C40.6611 28.4326 41.2407 29.5585 40.9037 30.6104C40.8827 30.6758 40.862 30.7402 40.8417 30.8036C40.3177 32.4367 39.999 33.4301 39.999 35.0002C39.999 38.691 40.9125 42.0518 42.4124 44.4232C43.9013 46.7771 45.8385 48.0002 47.9988 48.0002C50.1592 48.0002 52.0965 46.7771 53.5855 44.4231C55.0854 42.0518 55.999 38.691 55.999 35.0002C55.999 33.4301 55.6803 32.4367 55.1563 30.8036C55.136 30.7402 55.1153 30.6758 55.0944 30.6104C54.7574 29.5585 55.3369 28.4326 56.3888 28.0955C57.4407 27.7585 58.5666 28.338 58.9037 29.3899C58.9347 29.4867 58.9657 29.5831 58.9967 29.6793C59.5081 31.2674 59.999 32.792 59.999 35.0002C59.999 39.2883 58.9482 43.4275 56.966 46.5614C54.9727 49.7127 51.91 52.0002 47.9988 52.0002C44.0877 52.0002 41.0251 49.7127 39.0319 46.5614C37.0497 43.4275 35.999 39.2883 35.999 35.0002C35.999 32.792 36.49 31.2674 37.0014 29.6793C37.0323 29.5831 37.0634 29.4867 37.0944 29.3899C37.4314 28.338 38.5573 27.7585 39.6092 28.0955Z" fill="#0F1D2E"/>
<path fill-rule="evenodd" clip-rule="evenodd" d="M40.8343 19.4515C38.5819 20.7647 35.9892 23.4047 33.1236 28.9224C27.4213 39.9023 28.6573 46.4024 30.7699 50.0513C31.8647 51.9422 33.2829 53.2282 34.4357 54.0431C35.0102 54.4492 35.5103 54.7323 35.8562 54.9095C36.0287 54.9978 36.1615 55.0592 36.2443 55.0959C36.2857 55.1142 36.3145 55.1262 36.3294 55.1324L36.3387 55.1362L36.3333 55.1341C36.3356 55.135 36.338 55.1359 36.3404 55.1368C37.365 55.5366 37.8752 56.6896 37.4802 57.7175C37.0839 58.7485 35.9268 59.2631 34.8958 58.8669L35.6133 57C34.8958 58.8669 34.8944 58.8663 34.8929 58.8658L34.8897 58.8645L34.882 58.8615L34.8623 58.8537C34.8472 58.8477 34.8282 58.8401 34.8055 58.8307C34.7601 58.812 34.6999 58.7866 34.6262 58.7539C34.4788 58.6888 34.2771 58.5949 34.0322 58.4694C33.5433 58.2189 32.8774 57.84 32.1267 57.3094C30.6291 56.2507 28.7602 54.5633 27.3082 52.0555C24.3272 46.9067 23.4309 38.9071 29.5738 27.0788C32.6308 21.1924 35.6704 17.832 38.8196 15.9959C41.9974 14.1432 45.0318 14 47.6134 14C50.1954 14 53.1839 14.143 56.3131 16.0051C59.4049 17.845 62.3841 21.206 65.434 27.0788C71.5553 38.8655 70.9806 46.8197 68.3592 51.9617C67.0757 54.4795 65.3672 56.1832 63.9774 57.2582C63.2819 57.7962 62.6606 58.1812 62.2015 58.4368C61.9715 58.5649 61.7811 58.6611 61.6409 58.7283C61.5707 58.7619 61.513 58.7884 61.4691 58.808C61.458 58.8129 61.4478 58.8174 61.4385 58.8215C61.4293 58.8256 61.421 58.8292 61.4136 58.8324L61.3938 58.8408L61.386 58.8441L61.3826 58.8455C61.3811 58.8461 61.3796 58.8468 60.6118 57L61.3796 58.8468C60.3596 59.2708 59.1891 58.7877 58.765 57.7678C58.3426 56.7515 58.8206 55.5858 59.8329 55.1579C59.8342 55.1573 59.8363 55.1564 59.8393 55.1551C59.851 55.1499 59.8754 55.1388 59.9114 55.1215C59.9836 55.0869 60.1015 55.0278 60.2557 54.942C60.5647 54.7699 61.0144 54.4931 61.53 54.0943C62.5624 53.2957 63.8366 52.0261 64.7956 50.145C66.6591 46.4894 67.6081 39.9439 61.8842 28.9224C59.0117 23.3913 56.468 20.752 54.2676 19.4425C52.1046 18.1554 50.0315 18 47.6134 18C45.1948 18 43.0582 18.155 40.8343 19.4515ZM36.3333 55.1341C36.3324 55.1338 36.3316 55.1334 36.3307 55.1331L35.6288 56.9596C36.3308 55.1331 36.332 55.1336 36.3333 55.1341Z" fill="#0F1D2E"/>
<path fill-rule="evenodd" clip-rule="evenodd" d="M49.2702 24.1381C50.0367 23.838 50.9087 24.0381 51.4677 24.6423C51.9592 25.1736 52.8684 26.0598 53.9516 26.7976C55.0762 27.5637 56.1419 28.0004 56.9995 28.0004C58.1041 28.0004 58.9995 28.8959 58.9995 30.0004C58.9995 31.105 58.1041 32.0004 56.9995 32.0004C55.0856 32.0004 53.3204 31.1608 51.9788 30.2893C51.8388 31.257 51.006 32.0004 49.9995 32.0004H38.9995C37.8949 32.0004 36.9995 31.105 36.9995 30.0004C36.9995 28.8959 37.8949 28.0004 38.9995 28.0004H47.9995V26.0004C47.9995 25.1773 48.5038 24.4383 49.2702 24.1381Z" fill="#0F1D2E"/>
<path fill-rule="evenodd" clip-rule="evenodd" d="M13 68.9994C13 66.7903 14.7909 64.9994 17 64.9994H79C81.2091 64.9994 83 66.7903 83 68.9994V80.9994C83 83.2085 81.2091 84.9994 79 84.9994H17C14.7909 84.9994 13 83.2085 13 80.9994V68.9994ZM79 68.9994H17V80.9994H79V68.9994Z" fill="#0F1D2E"/>
</svg>
