<svg width="96" height="96" viewBox="0 0 96 96" fill="none" xmlns="http://www.w3.org/2000/svg">
<path fill-rule="evenodd" clip-rule="evenodd" d="M72.43 56.14V56.73H77.98V71.85H55.24V56.73H60.79V56.14C60.79 54.67 61.77 53.51 63.02 53.51H70.2C71.45 53.51 72.43 54.66 72.43 56.14ZM63.02 55.51C62.97 55.53 62.79 55.76 62.79 56.14V56.73H70.43V56.14C70.43 55.76 70.25 55.53 70.18 55.51H63.02ZM57.24 69.84H75.98V58.72H57.24V69.84Z" fill="#002341"/>
<path fill-rule="evenodd" clip-rule="evenodd" d="M60.51 45.94C62.41 45.31 64.43 44.95 66.54 44.95C77.08 44.95 85.65 53.52 85.65 64.06C85.65 74.6 77.08 83.17 66.54 83.17C56 83.17 47.43 74.6 47.43 64.06C47.43 63.29 47.49 62.53 47.58 61.78C45.97 62.8 44.34 63.32 42.69 63.32H42.28C36.58 63.03 32.65 56.77 31.41 54.51C26.86 56.15 20 59.47 20 64.63H18C18 60.31 21.53 57.16 25.37 55.02V27.57C25.37 17.88 33.25 10 42.94 10C52.63 10 60.51 17.88 60.51 27.57V45.94ZM27.37 53.9806C30.1826 52.6662 32.843 51.8692 34.12 51.53V48.06C29.607 43.1144 29.6376 34.6887 29.6399 34.0556C29.64 34.0447 29.64 34.0362 29.64 34.03C29.65 33.51 30.05 33.09 30.57 33.05C30.95 33.02 39.91 32.29 39.49 24.89C39.46 24.42 39.78 23.99 40.24 23.87C40.71 23.75 41.18 23.98 41.39 24.41L41.3918 24.4135C41.5656 24.7614 45.0844 31.8046 54.52 33.06C55.02 33.13 55.39 33.56 55.39 34.06C55.38 37.79 54.31 43.58 51.09 47.47V51.54C51.2791 51.5893 51.502 51.6522 51.7531 51.723C51.8074 51.7383 51.8631 51.754 51.92 51.77C53.71 49.65 55.96 47.93 58.51 46.74V27.57C58.51 18.99 51.52 12 42.94 12C34.36 12 27.37 18.98 27.37 27.57V53.9806ZM35.87 47C37.55 48.71 39.72 49.57 42.33 49.57C51.82 49.57 53.18 38.2 53.37 34.91C46.98 33.8 43.17 30.25 41.23 27.78C39.98 32.51 35.07 34.46 31.68 34.95C31.78 37.23 32.37 43.41 35.82 46.95C35.8329 46.9565 35.8417 46.9671 35.8516 46.9792C35.8571 46.9858 35.8629 46.9929 35.87 47ZM33.35 53.86C34.61 56.05 37.97 61.1 42.39 61.32L42.37 61.31C44.28 61.43 46.22 60.59 48.16 58.84C48.71 56.92 49.54 55.12 50.62 53.49C50.16 53.36 49.88 53.29 49.86 53.29L49.09 53.11V49.39C47.31 50.73 45.09 51.57 42.32 51.57C39.96 51.57 37.89 50.98 36.13 49.81V52.32C36.13 52.8 35.8 53.18 35.36 53.28V53.3C35.33 53.3 34.54 53.49 33.35 53.86ZM49.43 64.06C49.43 73.49 57.1 81.17 66.54 81.17C75.97 81.17 83.65 73.49 83.65 64.06C83.65 54.63 75.97 46.95 66.54 46.95C57.11 46.95 49.43 54.63 49.43 64.06Z" fill="#002341"/>
</svg>
