<svg width="96" height="96" viewBox="0 0 96 96" fill="none" xmlns="http://www.w3.org/2000/svg">
<path fill-rule="evenodd" clip-rule="evenodd" d="M63.54 73.97H73.57V58.27L63.86 53.07C63.08 52.55 61.99 52.56 61.21 53.07L51.5 58.27V73.97H61.53V67.55H63.54V73.97ZM71.57 71.97H65.54V65.55H59.53V71.97H53.5V59.47L62.2 54.81L62.31 54.74C62.42 54.66 62.66 54.66 62.77 54.74L71.57 59.47V71.97Z" fill="#002341"/>
<path fill-rule="evenodd" clip-rule="evenodd" d="M56.51 46.94C58.41 46.31 60.43 45.95 62.54 45.95C73.08 45.95 81.65 54.52 81.65 65.06C81.65 75.6 73.08 84.17 62.54 84.17C52 84.17 43.43 75.6 43.43 65.06C43.43 64.29 43.49 63.53 43.58 62.78C41.97 63.8 40.34 64.32 38.69 64.32H38.28C32.58 64.03 28.65 57.77 27.41 55.51C22.86 57.15 16 60.47 16 65.63H14C14 61.31 17.53 58.16 21.37 56.02V28.57C21.37 18.88 29.25 11 38.94 11C48.63 11 56.51 18.88 56.51 28.57V46.94ZM23.37 54.9806C26.1826 53.6662 28.843 52.8692 30.12 52.53V49.06C25.607 44.1144 25.6376 35.6887 25.6399 35.0556C25.64 35.0447 25.64 35.0362 25.64 35.03C25.65 34.51 26.05 34.09 26.57 34.05C26.95 34.02 35.91 33.29 35.49 25.89C35.46 25.42 35.78 24.99 36.24 24.87C36.71 24.75 37.18 24.98 37.39 25.41L37.3918 25.4135C37.5656 25.7615 41.0844 32.8046 50.52 34.06C51.02 34.13 51.39 34.56 51.39 35.06C51.38 38.79 50.31 44.58 47.09 48.47V52.54C47.2791 52.5893 47.502 52.6522 47.7531 52.723C47.8074 52.7383 47.8631 52.754 47.92 52.77C49.71 50.65 51.96 48.93 54.51 47.74V28.57C54.51 19.99 47.52 13 38.94 13C30.36 13 23.37 19.98 23.37 28.57V54.9806ZM31.87 48C33.55 49.71 35.72 50.57 38.33 50.57C47.82 50.57 49.18 39.2 49.37 35.91C42.98 34.8 39.17 31.25 37.23 28.78C35.98 33.51 31.07 35.46 27.68 35.95C27.78 38.23 28.37 44.41 31.82 47.95C31.8329 47.9565 31.8417 47.9671 31.8516 47.9792C31.8571 47.9858 31.8629 47.9929 31.87 48ZM29.35 54.86C30.61 57.05 33.97 62.1 38.39 62.32L38.37 62.31C40.28 62.43 42.22 61.59 44.16 59.84C44.71 57.92 45.54 56.12 46.62 54.49C46.16 54.36 45.88 54.29 45.86 54.29L45.09 54.11V50.39C43.31 51.73 41.09 52.57 38.32 52.57C35.96 52.57 33.89 51.98 32.13 50.81V53.32C32.13 53.8 31.8 54.18 31.36 54.28V54.3C31.33 54.3 30.54 54.49 29.35 54.86ZM45.43 65.06C45.43 74.49 53.1 82.17 62.54 82.17C71.97 82.17 79.65 74.49 79.65 65.06C79.65 55.63 71.97 47.95 62.54 47.95C53.11 47.95 45.43 55.63 45.43 65.06Z" fill="#002341"/>
</svg>
