<svg width="96" height="96" viewBox="0 0 96 96" fill="none" xmlns="http://www.w3.org/2000/svg">
<path d="M56.22 76.86C41.69 79.37 33.28 69.72 33.79 60.31C34.06 55.26 36.79 49.16 45.42 47.78C48.02 47.37 52.49 47.71 55.33 46.95C60.87 45.47 64.05 41.09 64.36 35.14C64.76 27.42 58.2 18.18 44.73 18.18M78 48C78 64.5685 64.5685 78 48 78C31.4315 78 18 64.5685 18 48C18 31.4315 31.4315 18 48 18C64.5685 18 78 31.4315 78 48ZM54.22 62.99C54.22 65.8343 51.9143 68.14 49.07 68.14C46.2257 68.14 43.92 65.8343 43.92 62.99C43.92 60.1457 46.2257 57.84 49.07 57.84C51.9143 57.84 54.22 60.1457 54.22 62.99ZM54.22 33.72C54.22 36.5643 51.9143 38.87 49.07 38.87C46.2257 38.87 43.92 36.5643 43.92 33.72C43.92 30.8757 46.2257 28.57 49.07 28.57C51.9143 28.57 54.22 30.8757 54.22 33.72Z" stroke="#002341" stroke-width="2" stroke-miterlimit="10"/>
</svg>
