<svg width="96" height="96" viewBox="0 0 96 96" fill="none" xmlns="http://www.w3.org/2000/svg">
<path d="M68.0785 75.1667C63.347 75.1667 32.9005 75.1667 28.169 75.1667V51.7147C28.169 49.246 26.7289 48.0117 24.2603 48.0117C23.026 48.0117 22.2031 48.8346 22.2031 50.0689C22.2031 51.0975 23.026 51.9204 24.0546 52.1261V75.3724C24.0546 78.8696 26.3175 79.281 28.169 79.281C30.4319 79.281 39.2778 79.281 48.1238 79.281C56.9697 79.281 65.8156 79.281 68.0785 79.281C69.93 79.281 72.1929 78.8696 72.1929 75.3724V52.1261C73.2215 51.9204 74.0444 51.0975 74.0444 50.0689C74.0444 48.8346 73.2215 48.0117 71.9872 48.0117C69.5186 48.0117 68.0785 49.4518 68.0785 51.7147V75.1667Z" fill="#1C3553"/>
<path d="M50.1809 41.8404C50.7981 41.8404 51.2095 41.4289 51.2095 40.8118V33.6116C51.2095 32.9944 50.7981 32.583 50.1809 32.583H46.2722C45.6551 32.583 45.2437 32.9944 45.2437 33.6116V40.6061C45.2437 41.2232 45.6551 41.6347 46.2722 41.6347H50.1809V41.8404ZM47.3008 34.8459H48.9466V39.5775H47.3008V34.8459Z" fill="#1C3553"/>
<path d="M51.0036 17.7713C50.5922 17.5656 49.5636 16.7427 48.1235 16.7427C46.6835 16.7427 45.6549 17.5656 45.4492 17.7713C44.0092 19.0056 35.7804 26.6172 28.3745 33.2002C22.4086 38.5489 17.0599 43.4862 16.2371 44.3091C14.797 45.5434 14.3856 46.9834 15.2085 48.2177C15.8256 49.6578 17.0599 50.2749 18.7057 50.2749C20.7629 50.2749 22.6144 50.2749 24.6715 50.2749C25.2887 50.2749 36.809 50.2749 48.535 50.2749C60.261 50.2749 71.5755 50.2749 72.3984 50.2749C74.4556 50.2749 76.3071 50.2749 78.3643 50.2749C80.01 50.2749 81.2443 49.6578 81.8615 48.2177C82.4787 46.7777 82.0672 45.5434 80.8329 44.3091C80.01 43.4862 74.8671 38.9604 69.3126 33.8174C61.0839 27.0286 52.2379 19.2113 51.0036 17.7713ZM71.987 46.3663C70.7527 46.3663 25.7001 46.3663 24.4658 46.3663C23.4372 46.3663 22.4086 46.3663 21.38 46.3663C20.9686 46.3663 20.5572 46.3663 20.3514 46.3663C22.4086 44.5148 26.7287 40.6061 31.2546 36.4917C38.6605 29.703 47.0949 22.2971 48.3293 21.0628C49.5636 22.2971 58.4095 30.1144 66.0211 36.9032C70.3412 40.8118 74.2499 44.3091 76.3071 46.1605C74.8671 46.3663 73.427 46.3663 71.987 46.3663Z" fill="#2988FF"/>
</svg>
