<svg width="96" height="96" viewBox="0 0 96 96" fill="none" xmlns="http://www.w3.org/2000/svg">
<path fill-rule="evenodd" clip-rule="evenodd" d="M64.0557 85.8429H73.9565V81.2461H64.0557V85.8429Z" fill="#2988FF"/>
<path fill-rule="evenodd" clip-rule="evenodd" d="M57.6206 92.5296H67.5198V87.9312H57.6206V92.5296Z" fill="#2988FF"/>
<path fill-rule="evenodd" clip-rule="evenodd" d="M69.6396 92.5296H79.5389V87.9312H69.6396V92.5296Z" fill="#2988FF"/>
<path fill-rule="evenodd" clip-rule="evenodd" d="M69.6396 79.1578H79.5405V74.561H69.6396V79.1578Z" fill="#2988FF"/>
<path fill-rule="evenodd" clip-rule="evenodd" d="M81.6592 92.5296H91.5584V87.9312H81.6592V92.5296Z" fill="#2988FF"/>
<path fill-rule="evenodd" clip-rule="evenodd" d="M81.6592 79.1585H91.5584V74.5601H81.6592V79.1585Z" fill="#2988FF"/>
<path fill-rule="evenodd" clip-rule="evenodd" d="M75.4224 85.8429H85.3232V81.2461H75.4224V85.8429Z" fill="#2988FF"/>
<path fill-rule="evenodd" clip-rule="evenodd" d="M86.3564 72.4719H91.3053V67.8735H86.3564V72.4719Z" fill="#2988FF"/>
<path fill-rule="evenodd" clip-rule="evenodd" d="M57.6206 85.8429H62.243V81.2461H57.6206V85.8429Z" fill="#2988FF"/>
<path fill-rule="evenodd" clip-rule="evenodd" d="M86.7886 85.8429H91.411V81.2461H86.7886V85.8429Z" fill="#2988FF"/>
<path fill-rule="evenodd" clip-rule="evenodd" d="M3.19971 9.74229C3.19971 8.4168 4.27422 7.34229 5.59971 7.34229H21.6365C22.7223 7.34229 23.6729 8.07131 23.9544 9.12L25.1636 13.6239H69.8269C70.683 13.6239 71.4743 14.0799 71.9035 14.8207L72.4347 15.7375C72.8649 16.48 72.866 17.3956 72.4375 18.1391C72.009 18.8825 71.2162 19.3407 70.3581 19.3407H25.2743L25.3609 24.0937C25.3726 24.7377 25.125 25.3594 24.6738 25.819C24.2225 26.2786 23.6054 26.5375 22.9613 26.5375H5.59971C4.27422 26.5375 3.19971 25.463 3.19971 24.1375V9.74229ZM20.7586 15.7286L19.7958 12.1423H7.99971V21.7375H20.5172L20.4305 16.9844C20.4224 16.5399 20.5379 16.1059 20.7586 15.7286Z" fill="#1C3553"/>
<path fill-rule="evenodd" clip-rule="evenodd" d="M40.0875 3.90314C40.3355 3.28855 41.0348 2.99136 41.6494 3.23935L68.7358 14.169C69.3504 14.4169 69.6475 15.1162 69.3995 15.7308C69.1516 16.3454 68.4523 16.6426 67.8377 16.3946L40.7513 5.46499C40.1367 5.217 39.8395 4.51773 40.0875 3.90314Z" fill="#1C3553"/>
<path fill-rule="evenodd" clip-rule="evenodd" d="M32.3705 26.4132C32.4213 25.1256 33.48 24.1079 34.7686 24.1079H41.6054C42.8941 24.1079 43.9527 25.1256 44.0035 26.4132L46.5347 90.5316C46.5605 91.1841 46.3193 91.8188 45.8668 92.2896C45.4143 92.7603 44.7895 93.0263 44.1366 93.0263H32.2374C31.5845 93.0263 30.9597 92.7603 30.5072 92.2896C30.0547 91.8188 29.8135 91.1841 29.8393 90.5316L32.3705 26.4132ZM37.0757 28.9079L34.734 88.2263H41.64L39.2983 28.9079H37.0757Z" fill="#1C3553"/>
<path fill-rule="evenodd" clip-rule="evenodd" d="M33.1427 3.11276C33.1891 2.26431 33.8906 1.6001 34.7403 1.6001H40.9835C41.8333 1.6001 42.5348 2.26431 42.5811 3.11276L42.8435 7.91276C42.8675 8.35161 42.7099 8.78101 42.4078 9.10016C42.1056 9.4193 41.6854 9.6001 41.2459 9.6001H34.4779C34.0384 9.6001 33.6183 9.4193 33.3161 9.10016C33.0139 8.78101 32.8563 8.35161 32.8803 7.91276L33.1427 3.11276ZM36.2553 4.8001L36.1678 6.4001H39.5561L39.4686 4.8001H36.2553Z" fill="#1C3553"/>
<path fill-rule="evenodd" clip-rule="evenodd" d="M43.0072 34.6009C43.3381 35.4202 42.9422 36.3527 42.1228 36.6836L34.1996 39.8836C33.3803 40.2145 32.4478 39.8186 32.1169 38.9992C31.7859 38.1799 32.1819 37.2474 33.0012 36.9165L40.9244 33.7165C41.7438 33.3855 42.6763 33.7815 43.0072 34.6009Z" fill="#1C3553"/>
<path fill-rule="evenodd" clip-rule="evenodd" d="M43.0072 44.201C43.3381 45.0203 42.9422 45.9528 42.1228 46.2837L34.1996 49.4837C33.3803 49.8146 32.4478 49.4187 32.1169 48.5993C31.7859 47.78 32.1819 46.8475 33.0012 46.5166L40.9244 43.3166C41.7438 42.9856 42.6763 43.3816 43.0072 44.201Z" fill="#1C3553"/>
<path fill-rule="evenodd" clip-rule="evenodd" d="M43.0072 53.8006C43.3381 54.6199 42.9422 55.5524 42.1228 55.8833L34.1996 59.0833C33.3803 59.4142 32.4478 59.0183 32.1169 58.1989C31.7859 57.3796 32.1819 56.4471 33.0012 56.1162L40.9244 52.9162C41.7438 52.5853 42.6763 52.9812 43.0072 53.8006Z" fill="#1C3553"/>
<path fill-rule="evenodd" clip-rule="evenodd" d="M43.0072 63.4011C43.3381 64.2205 42.9422 65.153 42.1228 65.4839L34.1996 68.6839C33.3803 69.0148 32.4478 68.6189 32.1169 67.7995C31.7859 66.9802 32.1819 66.0477 33.0012 65.7168L40.9244 62.5168C41.7438 62.1858 42.6763 62.5818 43.0072 63.4011Z" fill="#1C3553"/>
<path fill-rule="evenodd" clip-rule="evenodd" d="M43.0072 73.0008C43.3381 73.8201 42.9422 74.7526 42.1228 75.0835L34.1996 78.2835C33.3803 78.6144 32.4478 78.2185 32.1169 77.3991C31.7859 76.5798 32.1819 75.6473 33.0012 75.3164L40.9244 72.1164C41.7438 71.7854 42.6763 72.1814 43.0072 73.0008Z" fill="#1C3553"/>
</svg>
