<svg width="96" height="96" viewBox="0 0 96 96" fill="none" xmlns="http://www.w3.org/2000/svg">
<path fill-rule="evenodd" clip-rule="evenodd" d="M31.7002 22.5002C31.7002 21.5061 32.5061 20.7002 33.5002 20.7002H87.5095C88.5036 20.7002 89.3095 21.5061 89.3095 22.5002C89.3095 23.4943 88.5036 24.3002 87.5095 24.3002H33.5002C32.5061 24.3002 31.7002 23.4943 31.7002 22.5002Z" fill="#1C3553"/>
<path fill-rule="evenodd" clip-rule="evenodd" d="M67 71.4004C67 70.572 67.6716 69.9004 68.5 69.9004H87.5095C88.3379 69.9004 89.0095 70.572 89.0095 71.4004C89.0095 72.2288 88.3379 72.9004 87.5095 72.9004H68.5C67.6716 72.9004 67 72.2288 67 71.4004Z" fill="#1C3553"/>
<path fill-rule="evenodd" clip-rule="evenodd" d="M37.5002 20.7002C38.4943 20.7002 39.3002 21.5061 39.3002 22.5002V35.6531C39.3002 36.6473 38.4943 37.4531 37.5002 37.4531C36.5061 37.4531 35.7002 36.6473 35.7002 35.6531V22.5002C35.7002 21.5061 36.5061 20.7002 37.5002 20.7002Z" fill="#1C3553"/>
<path fill-rule="evenodd" clip-rule="evenodd" d="M83.5002 20.7002C84.4943 20.7002 85.3002 21.5061 85.3002 22.5002V71.008C85.3002 72.0022 84.4943 72.808 83.5002 72.808C82.5061 72.808 81.7002 72.0022 81.7002 71.008V22.5002C81.7002 21.5061 82.5061 20.7002 83.5002 20.7002Z" fill="#1C3553"/>
<path fill-rule="evenodd" clip-rule="evenodd" d="M69.8003 40.5003C69.8003 40.1137 70.1137 39.8003 70.5003 39.8003H74.0003C74.3869 39.8003 74.7003 40.1137 74.7003 40.5003V47.5003C74.7003 47.8869 74.3869 48.2003 74.0003 48.2003H70.5003C70.1137 48.2003 69.8003 47.8869 69.8003 47.5003V40.5003ZM71.2003 41.2003V46.8003H73.3003V41.2003H71.2003Z" fill="#1C3553"/>
<path fill-rule="evenodd" clip-rule="evenodd" d="M20.3999 54.9999C20.3999 54.6685 20.6685 54.3999 20.9999 54.3999H23.9999C24.3313 54.3999 24.5999 54.6685 24.5999 54.9999V60.9999C24.5999 61.3313 24.3313 61.5999 23.9999 61.5999H20.9999C20.6685 61.5999 20.3999 61.3313 20.3999 60.9999V54.9999ZM21.5999 55.5999V60.3999H23.3999V55.5999H21.5999Z" fill="#2988FF"/>
<path fill-rule="evenodd" clip-rule="evenodd" d="M47.3999 54.9999C47.3999 54.6685 47.6685 54.3999 47.9999 54.3999H50.9999C51.3313 54.3999 51.5999 54.6685 51.5999 54.9999V60.9999C51.5999 61.3313 51.3313 61.5999 50.9999 61.5999H47.9999C47.6685 61.5999 47.3999 61.3313 47.3999 60.9999V54.9999ZM48.5999 55.5999V60.3999H50.3999V55.5999H48.5999Z" fill="#2988FF"/>
<path fill-rule="evenodd" clip-rule="evenodd" d="M8 72C8 71.4477 8.44772 71 9 71H63C63.5523 71 64 71.4477 64 72C64 72.5523 63.5523 73 63 73H9C8.44772 73 8 72.5523 8 72Z" fill="#2988FF"/>
<path fill-rule="evenodd" clip-rule="evenodd" d="M10 69.3003H31.0263V71.3003H10V69.3003Z" fill="#2988FF"/>
<path fill-rule="evenodd" clip-rule="evenodd" d="M40 69.3003H61.0263V71.3003H40V69.3003Z" fill="#2988FF"/>
<path fill-rule="evenodd" clip-rule="evenodd" d="M10.5796 46.3335H60.9998V48.3335H10.5796V46.3335Z" fill="#2988FF"/>
<path fill-rule="evenodd" clip-rule="evenodd" d="M7.08496 42C7.08496 41.1716 7.75653 40.5 8.58496 40.5H62.4656C63.294 40.5 63.9656 41.1716 63.9656 42C63.9656 42.8284 63.294 43.5 62.4656 43.5H8.58496C7.75653 43.5 7.08496 42.8284 7.08496 42Z" fill="#2988FF"/>
<path fill-rule="evenodd" clip-rule="evenodd" d="M12.5 41.1001V72.9251H9.5V41.1001H12.5Z" fill="#2988FF"/>
<path fill-rule="evenodd" clip-rule="evenodd" d="M62.5 41.1001V72.9251H59.5V41.1001H62.5Z" fill="#2988FF"/>
<path fill-rule="evenodd" clip-rule="evenodd" d="M50 39C50 38.4477 50.4477 38 51 38H55C55.5523 38 56 38.4477 56 39V41C56 41.5523 55.5523 42 55 42H51C50.4477 42 50 41.5523 50 41V39Z" fill="#2988FF"/>
<path fill-rule="evenodd" clip-rule="evenodd" d="M31 58C31 57.4477 31.4477 57 32 57H41C41.5523 57 42 57.4477 42 58V71C42 71.5523 41.5523 72 41 72H32C31.4477 72 31 71.5523 31 71V58ZM33 59V70H40V59H33Z" fill="#2988FF"/>
</svg>
