<svg width="96" height="96" viewBox="0 0 96 96" fill="none" xmlns="http://www.w3.org/2000/svg">
<path fill-rule="evenodd" clip-rule="evenodd" d="M24.6401 44.7998C24.6401 44.2697 25.0699 43.8398 25.6001 43.8398H30.1716C30.7018 43.8398 31.1316 44.2697 31.1316 44.7998V54.3998C31.1316 54.93 30.7018 55.3598 30.1716 55.3598H25.6001C25.0699 55.3598 24.6401 54.93 24.6401 54.3998V44.7998ZM26.5601 45.7598V53.4398H29.2116V45.7598H26.5601Z" fill="#1C3553"/>
<path fill-rule="evenodd" clip-rule="evenodd" d="M66.2402 44.7998C66.2402 44.2697 66.67 43.8398 67.2002 43.8398H71.7717C72.3019 43.8398 72.7317 44.2697 72.7317 44.7998V54.3998C72.7317 54.93 72.3019 55.3598 71.7717 55.3598H67.2002C66.67 55.3598 66.2402 54.93 66.2402 54.3998V44.7998ZM68.1602 45.7598V53.4398H70.8117V45.7598H68.1602Z" fill="#1C3553"/>
<path fill-rule="evenodd" clip-rule="evenodd" d="M40.8003 50.2396C40.8003 49.356 41.5166 48.6396 42.4003 48.6396H54.5283C55.4119 48.6396 56.1283 49.356 56.1283 50.2396V71.0397H52.9283V51.8396H44.0003V71.0397H40.8003V50.2396Z" fill="#1C3553"/>
<path fill-rule="evenodd" clip-rule="evenodd" d="M8 29.6002C8 28.2747 9.07452 27.2002 10.4 27.2002H84.0695C85.395 27.2002 86.4695 28.2747 86.4695 29.6002C86.4695 30.9257 85.395 32.0002 84.0695 32.0002H10.4C9.07452 32.0002 8 30.9257 8 29.6002Z" fill="#2988FF"/>
<path fill-rule="evenodd" clip-rule="evenodd" d="M12.7954 34.3999H82.4002V37.5999H12.7954V34.3999Z" fill="#2988FF"/>
<path fill-rule="evenodd" clip-rule="evenodd" d="M12.7954 66.2402H82.4002V69.4402H12.7954V66.2402Z" fill="#2988FF"/>
<path fill-rule="evenodd" clip-rule="evenodd" d="M8.7998 69.6C8.7998 68.7163 9.51615 68 10.3998 68H85.5998C86.4835 68 87.1998 68.7163 87.1998 69.6C87.1998 70.4837 86.4835 71.2 85.5998 71.2H10.3998C9.51615 71.2 8.7998 70.4837 8.7998 69.6Z" fill="#2988FF"/>
<path fill-rule="evenodd" clip-rule="evenodd" d="M16.0002 27.2002V70.4335H11.2002V27.2002H16.0002Z" fill="#2988FF"/>
<path fill-rule="evenodd" clip-rule="evenodd" d="M84.8 27.2002V70.4335H80V27.2002H84.8Z" fill="#2988FF"/>
<path d="M67.2002 25.6C67.2002 24.7163 67.9165 24 68.8002 24H73.6002C74.4839 24 75.2002 24.7163 75.2002 25.6V27.2C75.2002 28.0837 74.4839 28.8 73.6002 28.8H68.8002C67.9165 28.8 67.2002 28.0837 67.2002 27.2V25.6Z" fill="#2988FF"/>
</svg>
