<svg width="96" height="96" viewBox="0 0 96 96" fill="none" xmlns="http://www.w3.org/2000/svg">
<path fill-rule="evenodd" clip-rule="evenodd" d="M32.8835 29.253C33.5974 29.5392 34.0654 30.2309 34.0654 31V41.6642L46.7334 29.6352C47.279 29.1172 48.0807 28.9738 48.772 29.2707C49.4633 29.5676 49.9113 30.2476 49.9113 31V41.8488L63.6638 29.5949C64.2174 29.1016 65.009 28.9793 65.6856 29.2826C66.3622 29.5859 66.7977 30.2582 66.7979 30.9996L66.801 48.0228H84.7763C85.8157 48.0228 86.6583 48.8654 86.6583 49.9048V78.2068C86.6583 79.2462 85.8157 80.0888 84.7763 80.0888H11.6984C10.659 80.0888 9.81641 79.2462 9.81641 78.2068V52.4534C9.81641 51.9693 10.0029 51.5038 10.3373 51.1537L30.8223 29.7003C31.3534 29.144 32.1696 28.9669 32.8835 29.253ZM63.0346 35.1969L49.2813 47.4516C48.7277 47.9449 47.936 48.0672 47.2594 47.7638C46.5828 47.4604 46.1473 46.788 46.1473 46.0465V35.3823L33.4793 47.4112C32.9338 47.9293 32.1321 48.0726 31.4408 47.7758C30.7495 47.4789 30.3014 46.7988 30.3014 46.0465V35.6961L13.5804 53.2076V76.3248H82.8943V51.7868H64.9194C63.8801 51.7868 63.0376 50.9444 63.0374 49.9052L63.0346 35.1969Z" fill="#1C3553"/>
<path fill-rule="evenodd" clip-rule="evenodd" d="M21.2739 60.4863C21.2739 59.9064 21.744 59.4363 22.3239 59.4363H26.9852C27.5651 59.4363 28.0352 59.9064 28.0352 60.4863V68.6435C28.0352 69.2234 27.5651 69.6935 26.9852 69.6935H22.3239C21.744 69.6935 21.2739 69.2234 21.2739 68.6435V60.4863ZM23.3739 61.5363V67.5935H25.9352V61.5363H23.3739Z" fill="#2988FF"/>
<path fill-rule="evenodd" clip-rule="evenodd" d="M34.0923 60.486C34.0923 59.9061 34.5624 59.436 35.1423 59.436H39.8035C40.3834 59.436 40.8535 59.9061 40.8535 60.486V68.6432C40.8535 69.2231 40.3834 69.6932 39.8035 69.6932H35.1423C34.5624 69.6932 34.0923 69.2231 34.0923 68.6432V60.486ZM36.1923 61.536V67.5932H38.7535V61.536H36.1923Z" fill="#2988FF"/>
<path fill-rule="evenodd" clip-rule="evenodd" d="M45.7451 60.486C45.7451 59.9061 46.2152 59.436 46.7951 59.436H51.4564C52.0363 59.436 52.5064 59.9061 52.5064 60.486V68.6432C52.5064 69.2231 52.0363 69.6932 51.4564 69.6932H46.7951C46.2152 69.6932 45.7451 69.2231 45.7451 68.6432V60.486ZM47.8451 61.536V67.5932H50.4064V61.536H47.8451Z" fill="#2988FF"/>
<path fill-rule="evenodd" clip-rule="evenodd" d="M58.5635 60.486C58.5635 59.9061 59.0336 59.436 59.6135 59.436H64.2747C64.8546 59.436 65.3247 59.9061 65.3247 60.486V68.6432C65.3247 69.2231 64.8546 69.6932 64.2747 69.6932H59.6135C59.0336 69.6932 58.5635 69.2231 58.5635 68.6432V60.486ZM60.6635 61.536V67.5932H63.2247V61.536H60.6635Z" fill="#2988FF"/>
</svg>
