<svg width="96" height="96" viewBox="0 0 96 96" fill="none" xmlns="http://www.w3.org/2000/svg">
<path d="M25.9999 50.0382C25.9999 49.4859 26.4476 49.0382 26.9999 49.0382H35.7368C36.289 49.0382 36.7367 49.4859 36.7367 50.0382V54.0633C36.7367 54.6156 36.289 55.0633 35.7368 55.0633H26.9999C26.4476 55.0633 25.9999 54.6156 25.9999 54.0633V50.0382Z" fill="#2988FF"/>
<path fill-rule="evenodd" clip-rule="evenodd" d="M39.4208 50.0377C39.4208 49.4854 39.8685 49.0377 40.4208 49.0377H49.1576C49.7099 49.0377 50.1576 49.4854 50.1576 50.0377V54.0628C50.1576 54.6151 49.7099 55.0628 49.1576 55.0628H40.4208C39.8685 55.0628 39.4208 54.6151 39.4208 54.0628V50.0377Z" fill="#2988FF"/>
<path fill-rule="evenodd" clip-rule="evenodd" d="M52.8412 50.0377C52.8412 49.4854 53.2889 49.0377 53.8412 49.0377H62.578C63.1303 49.0377 63.578 49.4854 63.578 50.0377V54.0628C63.578 54.6151 63.1303 55.0628 62.578 55.0628H53.8412C53.2889 55.0628 52.8412 54.6151 52.8412 54.0628V50.0377Z" fill="#2988FF"/>
<path d="M66.262 50.0377C66.262 49.4854 66.7098 49.0377 67.262 49.0377H75.9989C76.5511 49.0377 76.9989 49.4854 76.9989 50.0377V54.0628C76.9989 54.6151 76.5511 55.0628 75.9989 55.0628H67.262C66.7098 55.0628 66.262 54.6151 66.262 54.0628V50.0377Z" fill="#2988FF"/>
<path d="M25.9999 58.9747C25.9999 58.4224 26.4476 57.9747 26.9999 57.9747H35.7368C36.289 57.9747 36.7367 58.4224 36.7367 58.9747V62.9998C36.7367 63.5521 36.289 63.9998 35.7368 63.9998H26.9999C26.4476 63.9998 25.9999 63.5521 25.9999 62.9998V58.9747Z" fill="#2988FF"/>
<path fill-rule="evenodd" clip-rule="evenodd" d="M39.4208 58.9747C39.4208 58.4224 39.8685 57.9747 40.4208 57.9747H49.1576C49.7099 57.9747 50.1576 58.4224 50.1576 58.9747V62.9998C50.1576 63.5521 49.7099 63.9998 49.1576 63.9998H40.4208C39.8685 63.9998 39.4208 63.5521 39.4208 62.9998V58.9747Z" fill="#2988FF"/>
<path fill-rule="evenodd" clip-rule="evenodd" d="M52.8412 58.9747C52.8412 58.4224 53.2889 57.9747 53.8412 57.9747H62.578C63.1303 57.9747 63.578 58.4224 63.578 58.9747V62.9998C63.578 63.5521 63.1303 63.9998 62.578 63.9998H53.8412C53.2889 63.9998 52.8412 63.5521 52.8412 62.9998V58.9747Z" fill="#2988FF"/>
<path d="M66.262 58.9747C66.262 58.4224 66.7098 57.9747 67.262 57.9747H75.9989C76.5511 57.9747 76.9989 58.4224 76.9989 58.9747V62.9998C76.9989 63.5521 76.5511 63.9998 75.9989 63.9998H67.262C66.7098 63.9998 66.262 63.5521 66.262 62.9998V58.9747Z" fill="#2988FF"/>
<path d="M25.9999 40.9999C25.9999 40.4476 26.4476 39.9999 26.9999 39.9999H35.7368C36.289 39.9999 36.7367 40.4476 36.7367 40.9999V45.025C36.7367 45.5773 36.289 46.025 35.7368 46.025H26.9999C26.4476 46.025 25.9999 45.5773 25.9999 45.025V40.9999Z" fill="#2988FF"/>
<path fill-rule="evenodd" clip-rule="evenodd" d="M39.4208 40.9999C39.4208 40.4476 39.8685 39.9999 40.4208 39.9999H49.1576C49.7099 39.9999 50.1576 40.4476 50.1576 40.9999V45.025C50.1576 45.5773 49.7099 46.025 49.1576 46.025H40.4208C39.8685 46.025 39.4208 45.5773 39.4208 45.025V40.9999Z" fill="#2988FF"/>
<path fill-rule="evenodd" clip-rule="evenodd" d="M52.8412 40.9999C52.8412 40.4476 53.2889 39.9999 53.8412 39.9999H62.578C63.1303 39.9999 63.578 40.4476 63.578 40.9999V45.025C63.578 45.5773 63.1303 46.025 62.578 46.025H53.8412C53.2889 46.025 52.8412 45.5773 52.8412 45.025V40.9999Z" fill="#2988FF"/>
<path d="M66.262 40.9999C66.262 40.4476 66.7098 39.9999 67.262 39.9999H75.9989C76.5511 39.9999 76.9989 40.4476 76.9989 40.9999V45.025C76.9989 45.5773 76.5511 46.025 75.9989 46.025H67.262C66.7098 46.025 66.262 45.5773 66.262 45.025V40.9999Z" fill="#2988FF"/>
<path fill-rule="evenodd" clip-rule="evenodd" d="M21.6562 33.9298H81.8234V37.6298H21.6562V33.9298Z" fill="#1C3553"/>
<path fill-rule="evenodd" clip-rule="evenodd" d="M13.2002 29.3597C13.2002 27.8133 14.4538 26.5597 16.0002 26.5597H21.3872V30.1597H16.8002V73.1996H74.9786V68.6395H78.5786V73.9996C78.5786 75.546 77.325 76.7996 75.7786 76.7996H16.0002C14.4538 76.7996 13.2002 75.546 13.2002 73.9996V29.3597Z" fill="#1C3553"/>
<path fill-rule="evenodd" clip-rule="evenodd" d="M19.5874 24.6198C19.5874 23.3495 20.6171 22.3198 21.8873 22.3198H80.5001C81.7704 22.3198 82.8001 23.3495 82.8001 24.6198V68.1397C82.8001 69.4099 81.7703 70.4396 80.5001 70.4396H21.8873C20.6171 70.4396 19.5874 69.4099 19.5874 68.1397V24.6198ZM23.1873 25.9198V66.8397H79.2001V25.9198H23.1873Z" fill="#1C3553"/>
<path fill-rule="evenodd" clip-rule="evenodd" d="M70.3547 20.1499C71.3764 20.1499 72.2047 20.9781 72.2047 21.9998V26.2398C72.2047 27.2616 71.3764 28.0898 70.3547 28.0898C69.333 28.0898 68.5047 27.2616 68.5047 26.2398V21.9998C68.5047 20.9781 69.333 20.1499 70.3547 20.1499Z" fill="#1C3553"/>
<path fill-rule="evenodd" clip-rule="evenodd" d="M32.0325 20.1499C33.0543 20.1499 33.8825 20.9781 33.8825 21.9998V26.2398C33.8825 27.2616 33.0543 28.0898 32.0325 28.0898C31.0108 28.0898 30.1825 27.2616 30.1825 26.2398V21.9998C30.1825 20.9781 31.0108 20.1499 32.0325 20.1499Z" fill="#1C3553"/>
</svg>
