<svg width="96" height="96" viewBox="0 0 96 96" fill="none" xmlns="http://www.w3.org/2000/svg">
<path fill-rule="evenodd" clip-rule="evenodd" d="M15.1499 23.4999C15.1499 22.202 16.202 21.1499 17.4999 21.1499H78.4998C79.7977 21.1499 80.8498 22.202 80.8498 23.4999V72.4998C80.8498 73.7977 79.7977 74.8498 78.4998 74.8498H17.4999C16.202 74.8498 15.1499 73.7977 15.1499 72.4998V23.4999ZM18.8499 24.8499V71.1498H77.1498V24.8499H18.8499Z" fill="#1C3553"/>
<path fill-rule="evenodd" clip-rule="evenodd" d="M67.2 18.1499C68.2217 18.1499 69.05 18.9782 69.05 19.9999V24.5105C69.05 25.5322 68.2217 26.3605 67.2 26.3605C66.1783 26.3605 65.35 25.5322 65.35 24.5105V19.9999C65.35 18.9782 66.1783 18.1499 67.2 18.1499Z" fill="#1C3553"/>
<path fill-rule="evenodd" clip-rule="evenodd" d="M17 29C17 28.4477 17.4477 28 18 28L78.9999 28C79.5522 28 79.9999 28.4477 79.9999 29C79.9999 29.5522 79.5522 30 78.9999 30L18 30C17.4477 30 17 29.5522 17 29Z" fill="#1C3553"/>
<path fill-rule="evenodd" clip-rule="evenodd" d="M28.3998 18.1499C29.4215 18.1499 30.2498 18.9782 30.2498 19.9999V24.5105C30.2498 25.5322 29.4215 26.3605 28.3998 26.3605C27.378 26.3605 26.5498 25.5322 26.5498 24.5105V19.9999C26.5498 18.9782 27.378 18.1499 28.3998 18.1499Z" fill="#1C3553"/>
<path fill-rule="evenodd" clip-rule="evenodd" d="M41.2 18.1499C42.2218 18.1499 43.05 18.9782 43.05 19.9999V24.5105C43.05 25.5322 42.2218 26.3605 41.2 26.3605C40.1783 26.3605 39.35 25.5322 39.35 24.5105V19.9999C39.35 18.9782 40.1783 18.1499 41.2 18.1499Z" fill="#1C3553"/>
<path fill-rule="evenodd" clip-rule="evenodd" d="M54.2 18.1499C55.2218 18.1499 56.05 18.9782 56.05 19.9999V24.5105C56.05 25.5322 55.2218 26.3605 54.2 26.3605C53.1783 26.3605 52.35 25.5322 52.35 24.5105V19.9999C52.35 18.9782 53.1783 18.1499 54.2 18.1499Z" fill="#1C3553"/>
<path d="M37.7494 43.5553L39.3874 40.833C39.7384 40.1229 40.0894 39.4127 40.4014 38.7223H40.4794C40.4404 39.5113 40.3624 40.7147 40.3624 41.5235V43.5553H37.7494ZM44.4573 43.5553H43.0338V36.2367H39.5239L35 43.7723V45.7647H40.3624V48.7632H43.0338V45.7647H44.4573V43.5553Z" fill="#2988FF"/>
<path d="M45.77 44.7981H50.567V42.7465H45.77V44.7981Z" fill="#2988FF"/>
<path d="M56.3785 38.1699C57.2365 38.1699 58.0555 38.8012 58.309 40.7738C57.7435 41.6813 57.061 42.0166 56.437 42.0166C55.501 42.0166 54.8185 41.5235 54.8185 40.2018C54.8185 38.7814 55.5205 38.1699 56.3785 38.1699ZM52.3811 47.5007C53.161 48.3095 54.3505 48.9999 55.9885 48.9999C58.6015 48.9999 60.9999 46.8892 60.9999 42.2139C60.9999 37.8148 58.7185 36 56.32 36C54.0775 36 52.2056 37.5978 52.2056 40.2018C52.2056 42.8452 53.7655 44.0682 55.891 44.0682C56.6515 44.0682 57.724 43.5751 58.3675 42.7465C58.27 45.6661 57.178 46.6524 55.813 46.6524C55.0915 46.6524 54.3115 46.2382 53.8825 45.7647L52.3811 47.5007Z" fill="#2988FF"/>
<path d="M33.5684 66.168C32.8684 66.168 32.2804 66.0326 31.8044 65.762C31.3377 65.4913 30.9457 65.076 30.6284 64.516L32.0284 63.48C32.1964 63.788 32.3924 64.0166 32.6164 64.166C32.8404 64.3153 33.069 64.39 33.3024 64.39C33.6757 64.39 33.9557 64.278 34.1424 64.054C34.3384 63.8206 34.4364 63.4006 34.4364 62.794V56.872H36.4944V62.962C36.4944 63.4006 36.4337 63.816 36.3124 64.208C36.2004 64.6 36.023 64.9406 35.7804 65.23C35.547 65.5193 35.2437 65.748 34.8704 65.916C34.5064 66.084 34.0724 66.168 33.5684 66.168Z" fill="#1C3553"/>
<path d="M40.1874 66.168C39.8701 66.168 39.5807 66.112 39.3194 66C39.0674 65.8973 38.8527 65.7526 38.6754 65.566C38.4981 65.37 38.3581 65.146 38.2554 64.894C38.1621 64.642 38.1154 64.3666 38.1154 64.068C38.1154 63.34 38.4234 62.7706 39.0394 62.36C39.6554 61.9493 40.6494 61.674 42.0214 61.534C42.0027 61.226 41.9094 60.9833 41.7414 60.806C41.5827 60.6193 41.3121 60.526 40.9294 60.526C40.6307 60.526 40.3321 60.582 40.0334 60.694C39.7441 60.806 39.4314 60.96 39.0954 61.156L38.3534 59.798C38.8014 59.5273 39.2681 59.308 39.7534 59.14C40.2481 58.972 40.7707 58.888 41.3214 58.888C42.2174 58.888 42.8987 59.1446 43.3654 59.658C43.8414 60.162 44.0794 60.9506 44.0794 62.024V66H42.3994L42.2594 65.286H42.2034C41.9047 65.5473 41.5921 65.762 41.2654 65.93C40.9387 66.0886 40.5794 66.168 40.1874 66.168ZM40.8874 64.572C41.1207 64.572 41.3214 64.5206 41.4894 64.418C41.6574 64.3153 41.8347 64.1706 42.0214 63.984V62.766C41.2934 62.8686 40.7894 63.018 40.5094 63.214C40.2294 63.41 40.0894 63.6433 40.0894 63.914C40.0894 64.138 40.1594 64.306 40.2994 64.418C40.4487 64.5206 40.6447 64.572 40.8874 64.572Z" fill="#1C3553"/>
<path d="M45.8202 66V56.186H47.8782V58.594L47.7802 59.84C48.0415 59.6066 48.3449 59.392 48.6902 59.196C49.0355 58.9906 49.4462 58.888 49.9222 58.888C50.6782 58.888 51.2242 59.1353 51.5602 59.63C51.9055 60.1246 52.0782 60.8106 52.0782 61.688V66H50.0202V61.954C50.0202 61.45 49.9502 61.1046 49.8102 60.918C49.6795 60.7313 49.4649 60.638 49.1662 60.638C48.9049 60.638 48.6809 60.6986 48.4942 60.82C48.3075 60.932 48.1022 61.0953 47.8782 61.31V66H45.8202Z" fill="#1C3553"/>
<path d="M53.8183 66V59.056H55.4983L55.6383 60.274H55.6943C55.9463 59.798 56.2496 59.448 56.6043 59.224C56.9589 59 57.3136 58.888 57.6683 58.888C57.8643 58.888 58.0229 58.902 58.1442 58.93C58.2749 58.9486 58.3916 58.9813 58.4942 59.028L58.1582 60.806C58.0276 60.7686 57.9062 60.7406 57.7942 60.722C57.6823 60.7033 57.5516 60.694 57.4022 60.694C57.1409 60.694 56.8656 60.7873 56.5763 60.974C56.2963 61.1606 56.0629 61.492 55.8763 61.968V66H53.8183Z" fill="#1C3553"/>
<path d="M62.3677 66.168C61.873 66.168 61.411 66.0886 60.9817 65.93C60.5523 65.762 60.179 65.524 59.8617 65.216C59.5443 64.8986 59.297 64.516 59.1197 64.068C58.9423 63.62 58.8537 63.1066 58.8537 62.528C58.8537 61.968 58.947 61.464 59.1337 61.016C59.3203 60.5586 59.563 60.176 59.8617 59.868C60.1697 59.5506 60.5197 59.308 60.9117 59.14C61.3037 58.972 61.7096 58.888 62.1296 58.888C62.6243 58.888 63.0537 58.972 63.4177 59.14C63.791 59.308 64.099 59.5413 64.3417 59.84C64.5936 60.1386 64.7803 60.4933 64.9017 60.904C65.023 61.3053 65.0836 61.744 65.0836 62.22C65.0836 62.4066 65.0743 62.584 65.0557 62.752C65.037 62.92 65.0183 63.046 64.9997 63.13H60.8417C60.935 63.634 61.1403 64.0073 61.4577 64.25C61.7843 64.4833 62.181 64.6 62.6477 64.6C63.1423 64.6 63.6417 64.446 64.1457 64.138L64.8317 65.384C64.477 65.6266 64.0803 65.818 63.6417 65.958C63.2123 66.098 62.7877 66.168 62.3677 66.168ZM60.8277 61.772H63.3337C63.3337 61.38 63.245 61.0626 63.0676 60.82C62.8903 60.5773 62.5916 60.456 62.1716 60.456C61.845 60.456 61.5557 60.5633 61.3037 60.778C61.061 60.9926 60.9023 61.324 60.8277 61.772Z" fill="#1C3553"/>
</svg>
