<svg width="96" height="96" viewBox="0 0 96 96" fill="none" xmlns="http://www.w3.org/2000/svg">
<path d="M21.8002 52.7794C21.8002 52.2271 22.248 51.7794 22.8002 51.7794H31.7895C32.3418 51.7794 32.7895 52.2271 32.7895 52.7794V57.311C32.7895 57.8632 32.3418 58.311 31.7895 58.311H22.8002C22.248 58.311 21.8002 57.8632 21.8002 57.311V52.7794Z" fill="#2988FF"/>
<path fill-rule="evenodd" clip-rule="evenodd" d="M35.537 52.7794C35.537 52.2271 35.9847 51.7794 36.537 51.7794H45.5263C46.0786 51.7794 46.5263 52.2271 46.5263 52.7794V57.311C46.5263 57.8632 46.0786 58.311 45.5263 58.311H36.537C35.9847 58.311 35.537 57.8632 35.537 57.311V52.7794Z" fill="#2988FF"/>
<path fill-rule="evenodd" clip-rule="evenodd" d="M49.2733 52.7794C49.2733 52.2271 49.721 51.7794 50.2733 51.7794H59.2626C59.8149 51.7794 60.2626 52.2271 60.2626 52.7794V57.311C60.2626 57.8632 59.8149 58.311 59.2626 58.311H50.2733C49.721 58.311 49.2733 57.8632 49.2733 57.311V52.7794Z" fill="#2988FF"/>
<path d="M63.0101 52.7794C63.0101 52.2271 63.4578 51.7794 64.0101 51.7794H72.9994C73.5517 51.7794 73.9994 52.2271 73.9994 52.7794V57.311C73.9994 57.8632 73.5517 58.311 72.9994 58.311H64.0101C63.4578 58.311 63.0101 57.8632 63.0101 57.311V52.7794Z" fill="#2988FF"/>
<path d="M21.8002 62.4679C21.8002 61.9156 22.248 61.4679 22.8002 61.4679H31.7895C32.3418 61.4679 32.7895 61.9156 32.7895 62.4679V66.9994C32.7895 67.5517 32.3418 67.9994 31.7895 67.9994H22.8002C22.248 67.9994 21.8002 67.5517 21.8002 66.9994V62.4679Z" fill="#2988FF"/>
<path fill-rule="evenodd" clip-rule="evenodd" d="M35.537 62.4679C35.537 61.9156 35.9847 61.4679 36.537 61.4679H45.5263C46.0786 61.4679 46.5263 61.9156 46.5263 62.4679V66.9994C46.5263 67.5517 46.0786 67.9994 45.5263 67.9994H36.537C35.9847 67.9994 35.537 67.5517 35.537 66.9994V62.4679Z" fill="#2988FF"/>
<path fill-rule="evenodd" clip-rule="evenodd" d="M49.2733 62.4679C49.2733 61.9156 49.721 61.4679 50.2733 61.4679H59.2626C59.8149 61.4679 60.2626 61.9156 60.2626 62.4679V66.9994C60.2626 67.5517 59.8149 67.9994 59.2626 67.9994H50.2733C49.721 67.9994 49.2733 67.5517 49.2733 66.9994V62.4679Z" fill="#2988FF"/>
<path d="M63.0101 62.4679C63.0101 61.9156 63.4578 61.4679 64.0101 61.4679H72.9994C73.5517 61.4679 73.9994 61.9156 73.9994 62.4679V66.9994C73.9994 67.5517 73.5517 67.9994 72.9994 67.9994H64.0101C63.4578 67.9994 63.0101 67.5517 63.0101 66.9994V62.4679Z" fill="#2988FF"/>
<path d="M21.8002 42.9823C21.8002 42.43 22.248 41.9823 22.8002 41.9823H31.7895C32.3418 41.9823 32.7895 42.43 32.7895 42.9823V47.5139C32.7895 48.0661 32.3418 48.5139 31.7895 48.5139H22.8002C22.248 48.5139 21.8002 48.0661 21.8002 47.5139V42.9823Z" fill="#2988FF"/>
<path fill-rule="evenodd" clip-rule="evenodd" d="M35.537 42.9823C35.537 42.43 35.9847 41.9823 36.537 41.9823H45.5263C46.0786 41.9823 46.5263 42.43 46.5263 42.9823V47.5139C46.5263 48.0661 46.0786 48.5139 45.5263 48.5139H36.537C35.9847 48.5139 35.537 48.0661 35.537 47.5139V42.9823Z" fill="#2988FF"/>
<path fill-rule="evenodd" clip-rule="evenodd" d="M49.2733 42.9823C49.2733 42.43 49.721 41.9823 50.2733 41.9823H59.2626C59.8149 41.9823 60.2626 42.43 60.2626 42.9823V47.5139C60.2626 48.0661 59.8149 48.5139 59.2626 48.5139H50.2733C49.721 48.5139 49.2733 48.0661 49.2733 47.5139V42.9823Z" fill="#2988FF"/>
<path d="M63.0101 42.9823C63.0101 42.43 63.4578 41.9823 64.0101 41.9823H72.9994C73.5517 41.9823 73.9994 42.43 73.9994 42.9823V47.5139C73.9994 48.0661 73.5517 48.5139 72.9994 48.5139H64.0101C63.4578 48.5139 63.0101 48.0661 63.0101 47.5139V42.9823Z" fill="#2988FF"/>
<path fill-rule="evenodd" clip-rule="evenodd" d="M17.7392 35.8095H79.7887V39.5095H17.7392V35.8095Z" fill="#1C3553"/>
<path fill-rule="evenodd" clip-rule="evenodd" d="M15.5498 25.7552C15.5498 24.4573 16.6019 23.4052 17.8998 23.4052H78.4996C79.7975 23.4052 80.8496 24.4573 80.8496 25.7552V72.1168C80.8496 73.4147 79.7975 74.4668 78.4996 74.4668H17.8998C16.6019 74.4668 15.5498 73.4147 15.5498 72.1168V25.7552ZM19.2498 27.1052V70.7668H77.1496V27.1052H19.2498Z" fill="#1C3553"/>
<path fill-rule="evenodd" clip-rule="evenodd" d="M67.9997 21.1498C69.0215 21.1498 69.8497 21.9781 69.8497 22.9998V27.5105C69.8497 28.5322 69.0215 29.3605 67.9997 29.3605C66.978 29.3605 66.1497 28.5322 66.1497 27.5105V22.9998C66.1497 21.9781 66.978 21.1498 67.9997 21.1498Z" fill="#1C3553"/>
<path fill-rule="evenodd" clip-rule="evenodd" d="M28.3997 21.1498C29.4215 21.1498 30.2497 21.9781 30.2497 22.9998V27.5105C30.2497 28.5322 29.4215 29.3605 28.3997 29.3605C27.378 29.3605 26.5497 28.5322 26.5497 27.5105V22.9998C26.5497 21.9781 27.378 21.1498 28.3997 21.1498Z" fill="#1C3553"/>
</svg>
