<svg width="96" height="96" viewBox="0 0 96 96" fill="none" xmlns="http://www.w3.org/2000/svg">
<path d="M26 50.0378C26 49.4855 26.4477 49.0378 27 49.0378H35.7368C36.2891 49.0378 36.7368 49.4855 36.7368 50.0378V54.0629C36.7368 54.6152 36.2891 55.0629 35.7368 55.0629H27C26.4477 55.0629 26 54.6152 26 54.0629V50.0378Z" fill="#2988FF"/>
<path fill-rule="evenodd" clip-rule="evenodd" d="M39.4209 50.0376C39.4209 49.4853 39.8686 49.0376 40.4209 49.0376H49.1577C49.71 49.0376 50.1577 49.4853 50.1577 50.0376V54.0627C50.1577 54.6149 49.71 55.0627 49.1577 55.0627H40.4209C39.8686 55.0627 39.4209 54.6149 39.4209 54.0627V50.0376Z" fill="#2988FF"/>
<path fill-rule="evenodd" clip-rule="evenodd" d="M52.8413 50.0376C52.8413 49.4853 53.289 49.0376 53.8413 49.0376H62.5781C63.1304 49.0376 63.5781 49.4853 63.5781 50.0376V54.0627C63.5781 54.6149 63.1304 55.0627 62.5781 55.0627H53.8413C53.289 55.0627 52.8413 54.6149 52.8413 54.0627V50.0376Z" fill="#2988FF"/>
<path d="M66.2622 50.0376C66.2622 49.4853 66.7099 49.0376 67.2622 49.0376H75.999C76.5513 49.0376 76.999 49.4853 76.999 50.0376V54.0627C76.999 54.6149 76.5513 55.0627 75.999 55.0627H67.2622C66.7099 55.0627 66.2622 54.6149 66.2622 54.0627V50.0376Z" fill="#2988FF"/>
<path d="M26 58.9746C26 58.4223 26.4477 57.9746 27 57.9746H35.7368C36.2891 57.9746 36.7368 58.4223 36.7368 58.9746V62.9997C36.7368 63.552 36.2891 63.9997 35.7368 63.9997H27C26.4477 63.9997 26 63.552 26 62.9997V58.9746Z" fill="#2988FF"/>
<path fill-rule="evenodd" clip-rule="evenodd" d="M39.4209 58.9748C39.4209 58.4225 39.8686 57.9748 40.4209 57.9748H49.1577C49.71 57.9748 50.1577 58.4225 50.1577 58.9748V62.9999C50.1577 63.5522 49.71 63.9999 49.1577 63.9999H40.4209C39.8686 63.9999 39.4209 63.5522 39.4209 62.9999V58.9748Z" fill="#2988FF"/>
<path fill-rule="evenodd" clip-rule="evenodd" d="M52.8413 58.9748C52.8413 58.4225 53.289 57.9748 53.8413 57.9748H62.5781C63.1304 57.9748 63.5781 58.4225 63.5781 58.9748V62.9999C63.5781 63.5522 63.1304 63.9999 62.5781 63.9999H53.8413C53.289 63.9999 52.8413 63.5522 52.8413 62.9999V58.9748Z" fill="#2988FF"/>
<path d="M66.2622 58.9748C66.2622 58.4225 66.7099 57.9748 67.2622 57.9748H75.999C76.5513 57.9748 76.999 58.4225 76.999 58.9748V62.9999C76.999 63.5522 76.5513 63.9999 75.999 63.9999H67.2622C66.7099 63.9999 66.2622 63.5522 66.2622 62.9999V58.9748Z" fill="#2988FF"/>
<path d="M26 41C26 40.4477 26.4477 40 27 40H35.7368C36.2891 40 36.7368 40.4477 36.7368 41V45.0251C36.7368 45.5774 36.2891 46.0251 35.7368 46.0251H27C26.4477 46.0251 26 45.5774 26 45.0251V41Z" fill="#2988FF"/>
<path fill-rule="evenodd" clip-rule="evenodd" d="M39.4209 41C39.4209 40.4477 39.8686 40 40.4209 40H49.1577C49.71 40 50.1577 40.4477 50.1577 41V45.0251C50.1577 45.5774 49.71 46.0251 49.1577 46.0251H40.4209C39.8686 46.0251 39.4209 45.5774 39.4209 45.0251V41Z" fill="#2988FF"/>
<path fill-rule="evenodd" clip-rule="evenodd" d="M52.8413 41C52.8413 40.4477 53.289 40 53.8413 40H62.5781C63.1304 40 63.5781 40.4477 63.5781 41V45.0251C63.5781 45.5774 63.1304 46.0251 62.5781 46.0251H53.8413C53.289 46.0251 52.8413 45.5774 52.8413 45.0251V41Z" fill="#2988FF"/>
<path d="M66.2622 41C66.2622 40.4477 66.7099 40 67.2622 40H75.999C76.5513 40 76.999 40.4477 76.999 41V45.0251C76.999 45.5774 76.5513 46.0251 75.999 46.0251H67.2622C66.7099 46.0251 66.2622 45.5774 66.2622 45.0251V41Z" fill="#2988FF"/>
<path fill-rule="evenodd" clip-rule="evenodd" d="M21.6562 33.9299H81.8236V37.6299H21.6562V33.9299Z" fill="#1C3553"/>
<path fill-rule="evenodd" clip-rule="evenodd" d="M13.2002 29.3598C13.2002 27.8134 14.4538 26.5598 16.0002 26.5598H21.3873V30.1598H16.8002V73.1998H74.9788V68.6397H78.5788V73.9998C78.5788 75.5462 77.3252 76.7998 75.7788 76.7998H16.0002C14.4538 76.7998 13.2002 75.5462 13.2002 73.9998V29.3598Z" fill="#1C3553"/>
<path fill-rule="evenodd" clip-rule="evenodd" d="M19.5874 24.6198C19.5874 23.3495 20.6171 22.3198 21.8874 22.3198H80.5003C81.7705 22.3198 82.8003 23.3496 82.8003 24.6198V68.1398C82.8003 69.41 81.7705 70.4398 80.5003 70.4398H21.8874C20.6171 70.4398 19.5874 69.41 19.5874 68.1398V24.6198ZM23.1874 25.9198V66.8398H79.2003V25.9198H23.1874Z" fill="#1C3553"/>
<path fill-rule="evenodd" clip-rule="evenodd" d="M70.3548 20.1499C71.3766 20.1499 72.2048 20.9782 72.2048 21.9999V26.2399C72.2048 27.2616 71.3766 28.0899 70.3548 28.0899C69.3331 28.0899 68.5048 27.2616 68.5048 26.2399V21.9999C68.5048 20.9782 69.3331 20.1499 70.3548 20.1499Z" fill="#1C3553"/>
<path fill-rule="evenodd" clip-rule="evenodd" d="M32.0326 20.1499C33.0543 20.1499 33.8826 20.9782 33.8826 21.9999V26.2399C33.8826 27.2616 33.0543 28.0899 32.0326 28.0899C31.0109 28.0899 30.1826 27.2616 30.1826 26.2399V21.9999C30.1826 20.9782 31.0109 20.1499 32.0326 20.1499Z" fill="#1C3553"/>
</svg>
