<svg width="96" height="96" viewBox="0 0 96 96" fill="none" xmlns="http://www.w3.org/2000/svg">
<path fill-rule="evenodd" clip-rule="evenodd" d="M15.1499 23.4999C15.1499 22.202 16.202 21.1499 17.4999 21.1499H78.4999C79.7978 21.1499 80.8499 22.202 80.8499 23.4999V72.4999C80.8499 73.7978 79.7978 74.8499 78.4999 74.8499H17.4999C16.202 74.8499 15.1499 73.7978 15.1499 72.4999V23.4999ZM18.8499 24.8499V71.1499H77.1499V24.8499H18.8499Z" fill="#1C3553"/>
<path fill-rule="evenodd" clip-rule="evenodd" d="M67.2001 18.1499C68.2218 18.1499 69.0501 18.9782 69.0501 19.9999V24.5105C69.0501 25.5323 68.2218 26.3605 67.2001 26.3605C66.1784 26.3605 65.3501 25.5323 65.3501 24.5105V19.9999C65.3501 18.9782 66.1784 18.1499 67.2001 18.1499Z" fill="#1C3553"/>
<path fill-rule="evenodd" clip-rule="evenodd" d="M17 29C17 28.4477 17.4477 28 18 28L79 28C79.5523 28 80 28.4477 80 29C80 29.5523 79.5523 30 79 30L18 30C17.4477 30 17 29.5523 17 29Z" fill="#1C3553"/>
<path fill-rule="evenodd" clip-rule="evenodd" d="M28.3998 18.1499C29.4215 18.1499 30.2498 18.9782 30.2498 19.9999V24.5105C30.2498 25.5323 29.4215 26.3605 28.3998 26.3605C27.3781 26.3605 26.5498 25.5323 26.5498 24.5105V19.9999C26.5498 18.9782 27.3781 18.1499 28.3998 18.1499Z" fill="#1C3553"/>
<path fill-rule="evenodd" clip-rule="evenodd" d="M41.2001 18.1499C42.2218 18.1499 43.0501 18.9782 43.0501 19.9999V24.5105C43.0501 25.5323 42.2218 26.3605 41.2001 26.3605C40.1784 26.3605 39.3501 25.5323 39.3501 24.5105V19.9999C39.3501 18.9782 40.1784 18.1499 41.2001 18.1499Z" fill="#1C3553"/>
<path fill-rule="evenodd" clip-rule="evenodd" d="M54.2001 18.1499C55.2218 18.1499 56.0501 18.9782 56.0501 19.9999V24.5105C56.0501 25.5323 55.2218 26.3605 54.2001 26.3605C53.1784 26.3605 52.3501 25.5323 52.3501 24.5105V19.9999C52.3501 18.9782 53.1784 18.1499 54.2001 18.1499Z" fill="#1C3553"/>
<path d="M27.0347 66.9998H28.3067V63.4118C28.3067 62.6798 28.1987 61.6358 28.1387 60.9158H28.1867L28.8107 62.7038L30.1667 66.2678H30.8027L32.1587 62.7038L32.7947 60.9158H32.8427C32.7707 61.6358 32.6627 62.6798 32.6627 63.4118V66.9998H33.9707V59.1518H32.4347L31.0547 63.0158L30.5387 64.5038H30.4907L29.9747 63.0158L28.5587 59.1518H27.0347V66.9998Z" fill="#1C3553"/>
<path d="M38.9889 67.1438C41.0289 67.1438 42.4449 65.5838 42.4449 63.0398C42.4449 60.5078 41.0289 59.0078 38.9889 59.0078C36.9369 59.0078 35.5209 60.5078 35.5209 63.0398C35.5209 65.5838 36.9369 67.1438 38.9889 67.1438ZM38.9889 65.9318C37.7529 65.9318 36.9489 64.8038 36.9489 63.0398C36.9489 61.2878 37.7529 60.2198 38.9889 60.2198C40.2129 60.2198 41.0169 61.2878 41.0169 63.0398C41.0169 64.8038 40.2129 65.9318 38.9889 65.9318Z" fill="#1C3553"/>
<path d="M43.9917 66.9998H45.3117V63.5678C45.3117 62.6918 45.2037 61.7438 45.1317 60.9158H45.1797L45.9957 62.5838L48.4317 66.9998H49.8597V59.1518H48.5397V62.5598C48.5397 63.4358 48.6477 64.4318 48.7197 65.2358H48.6717L47.8557 63.5678L45.4197 59.1518H43.9917V66.9998Z" fill="#1C3553"/>
<path d="M53.1515 63.7838L53.4275 62.8238C53.6795 61.9958 53.9075 61.1078 54.1235 60.2318H54.1715C54.3995 61.0958 54.6395 61.9958 54.8795 62.8238L55.1555 63.7838H53.1515ZM56.0795 66.9998H57.5555L54.9995 59.1518H53.3675L50.7995 66.9998H52.2275L52.8395 64.8758H55.4675L56.0795 66.9998Z" fill="#1C3553"/>
<path d="M59.5913 66.9998H60.9833V60.3278H63.2393V59.1518H57.3233V60.3278H59.5913V66.9998Z" fill="#1C3553"/>
<path d="M64.5229 66.9998H69.3589V65.8238H65.9149V63.5078H68.7349V62.3318H65.9149V60.3278H69.2389V59.1518H64.5229V66.9998Z" fill="#1C3553"/>
<path d="M32.505 45.3467L34.941 41.3447C35.463 40.3007 35.985 39.2567 36.449 38.2417H36.565C36.507 39.4017 36.391 41.1707 36.391 42.3597V45.3467H32.505ZM42.481 45.3467H40.364V34.5877H35.144L28.416 45.6657V48.5947H36.391V53.0027H40.364V48.5947H42.481V45.3467Z" fill="#2988FF"/>
<path d="M44.4333 47.1737H51.5673V44.1577H44.4333V47.1737Z" fill="#2988FF"/>
<path d="M60.8772 50.1607C59.6012 50.1607 58.3832 49.2327 58.0062 46.3327C58.8472 44.9987 59.8622 44.5057 60.7902 44.5057C62.1822 44.5057 63.1972 45.2307 63.1972 47.1737C63.1972 49.2617 62.1532 50.1607 60.8772 50.1607ZM66.8222 36.4437C65.6622 35.2547 63.8932 34.2397 61.4572 34.2397C57.5712 34.2397 54.0042 37.3427 54.0042 44.2157C54.0042 50.6827 57.3972 53.3507 60.9642 53.3507C64.2992 53.3507 67.0832 51.0017 67.0832 47.1737C67.0832 43.2877 64.7632 41.4897 61.6022 41.4897C60.4712 41.4897 58.8762 42.2147 57.9192 43.4327C58.0642 39.1407 59.6882 37.6907 61.7182 37.6907C62.7912 37.6907 63.9512 38.2997 64.5892 38.9957L66.8222 36.4437Z" fill="#2988FF"/>
</svg>
