<svg width="96" height="96" viewBox="0 0 96 96" fill="none" xmlns="http://www.w3.org/2000/svg">
<path fill-rule="evenodd" clip-rule="evenodd" d="M15.1499 23.4999C15.1499 22.202 16.202 21.1499 17.4999 21.1499H78.4998C79.7977 21.1499 80.8498 22.202 80.8498 23.4999V72.4998C80.8498 73.7977 79.7977 74.8498 78.4998 74.8498H17.4999C16.202 74.8498 15.1499 73.7977 15.1499 72.4998V23.4999ZM18.8499 24.8499V71.1498H77.1498V24.8499H18.8499Z" fill="#1C3553"/>
<path fill-rule="evenodd" clip-rule="evenodd" d="M67.2 18.1499C68.2217 18.1499 69.05 18.9782 69.05 19.9999V24.5105C69.05 25.5322 68.2217 26.3605 67.2 26.3605C66.1783 26.3605 65.35 25.5322 65.35 24.5105V19.9999C65.35 18.9782 66.1783 18.1499 67.2 18.1499Z" fill="#1C3553"/>
<path fill-rule="evenodd" clip-rule="evenodd" d="M17 29C17 28.4477 17.4477 28 18 28L78.9999 28C79.5522 28 79.9999 28.4477 79.9999 29C79.9999 29.5522 79.5522 30 78.9999 30L18 30C17.4477 30 17 29.5522 17 29Z" fill="#1C3553"/>
<path fill-rule="evenodd" clip-rule="evenodd" d="M28.3998 18.1499C29.4215 18.1499 30.2498 18.9782 30.2498 19.9999V24.5105C30.2498 25.5322 29.4215 26.3605 28.3998 26.3605C27.378 26.3605 26.5498 25.5322 26.5498 24.5105V19.9999C26.5498 18.9782 27.378 18.1499 28.3998 18.1499Z" fill="#1C3553"/>
<path fill-rule="evenodd" clip-rule="evenodd" d="M41.2 18.1499C42.2218 18.1499 43.05 18.9782 43.05 19.9999V24.5105C43.05 25.5322 42.2218 26.3605 41.2 26.3605C40.1783 26.3605 39.35 25.5322 39.35 24.5105V19.9999C39.35 18.9782 40.1783 18.1499 41.2 18.1499Z" fill="#1C3553"/>
<path fill-rule="evenodd" clip-rule="evenodd" d="M54.2 18.1499C55.2218 18.1499 56.05 18.9782 56.05 19.9999V24.5105C56.05 25.5322 55.2218 26.3605 54.2 26.3605C53.1783 26.3605 52.35 25.5322 52.35 24.5105V19.9999C52.35 18.9782 53.1783 18.1499 54.2 18.1499Z" fill="#1C3553"/>
<path d="M27.0346 66.9997H28.3066V63.4117C28.3066 62.6797 28.1986 61.6357 28.1386 60.9157H28.1866L28.8106 62.7037L30.1666 66.2677H30.8026L32.1586 62.7037L32.7946 60.9157H32.8426C32.7706 61.6357 32.6626 62.6797 32.6626 63.4117V66.9997H33.9706V59.1517H32.4346L31.0546 63.0157L30.5386 64.5037H30.4906L29.9746 63.0157L28.5586 59.1517H27.0346V66.9997Z" fill="#1C3553"/>
<path d="M38.9889 67.1437C41.0289 67.1437 42.4449 65.5837 42.4449 63.0397C42.4449 60.5077 41.0289 59.0077 38.9889 59.0077C36.9369 59.0077 35.5209 60.5077 35.5209 63.0397C35.5209 65.5837 36.9369 67.1437 38.9889 67.1437ZM38.9889 65.9317C37.7529 65.9317 36.9489 64.8037 36.9489 63.0397C36.9489 61.2877 37.7529 60.2197 38.9889 60.2197C40.2129 60.2197 41.0169 61.2877 41.0169 63.0397C41.0169 64.8037 40.2129 65.9317 38.9889 65.9317Z" fill="#1C3553"/>
<path d="M43.9916 66.9997H45.3116V63.5677C45.3116 62.6917 45.2036 61.7437 45.1316 60.9157H45.1796L45.9956 62.5837L48.4316 66.9997H49.8596V59.1517H48.5396V62.5597C48.5396 63.4357 48.6476 64.4317 48.7196 65.2357H48.6716L47.8556 63.5677L45.4196 59.1517H43.9916V66.9997Z" fill="#1C3553"/>
<path d="M53.1515 63.7837L53.4275 62.8237C53.6795 61.9957 53.9075 61.1077 54.1235 60.2317H54.1715C54.3995 61.0957 54.6395 61.9957 54.8795 62.8237L55.1555 63.7837H53.1515ZM56.0795 66.9997H57.5555L54.9995 59.1517H53.3675L50.7995 66.9997H52.2275L52.8395 64.8757H55.4675L56.0795 66.9997Z" fill="#1C3553"/>
<path d="M59.5912 66.9997H60.9832V60.3277H63.2392V59.1517H57.3232V60.3277H59.5912V66.9997Z" fill="#1C3553"/>
<path d="M64.5229 66.9997H69.3589V65.8237H65.9149V63.5077H68.7349V62.3317H65.9149V60.3277H69.2389V59.1517H64.5229V66.9997Z" fill="#1C3553"/>
<path d="M32.505 45.3469L34.941 41.3449C35.463 40.3009 35.985 39.2569 36.449 38.2419H36.565C36.507 39.4019 36.391 41.1709 36.391 42.3599V45.3469H32.505ZM42.481 45.3469H40.364V34.5879H35.144L28.416 45.6659V48.5949H36.391V53.0029H40.364V48.5949H42.481V45.3469Z" fill="#2988FF"/>
<path d="M44.4332 47.1739H51.5672V44.1579H44.4332V47.1739Z" fill="#2988FF"/>
<path d="M60.8771 50.1609C59.6011 50.1609 58.3831 49.2329 58.0061 46.3329C58.8471 44.9989 59.8621 44.5059 60.7901 44.5059C62.1821 44.5059 63.1971 45.2309 63.1971 47.1739C63.1971 49.2619 62.1531 50.1609 60.8771 50.1609ZM66.8221 36.4439C65.6621 35.2549 63.8931 34.2399 61.4571 34.2399C57.5711 34.2399 54.0041 37.3429 54.0041 44.2159C54.0041 50.6829 57.3971 53.3509 60.9641 53.3509C64.2991 53.3509 67.0831 51.0019 67.0831 47.1739C67.0831 43.2879 64.7631 41.4899 61.6021 41.4899C60.4711 41.4899 58.8761 42.2149 57.9191 43.4329C58.0641 39.1409 59.6881 37.6909 61.7181 37.6909C62.7911 37.6909 63.9511 38.2999 64.5891 38.9959L66.8221 36.4439Z" fill="#2988FF"/>
</svg>
