<svg width="96" height="96" viewBox="0 0 96 96" fill="none" xmlns="http://www.w3.org/2000/svg">
<path fill-rule="evenodd" clip-rule="evenodd" d="M15.1499 23.4999C15.1499 22.202 16.202 21.1499 17.4999 21.1499H78.4999C79.7978 21.1499 80.8499 22.202 80.8499 23.4999V72.4999C80.8499 73.7978 79.7978 74.8499 78.4999 74.8499H17.4999C16.202 74.8499 15.1499 73.7978 15.1499 72.4999V23.4999ZM18.8499 24.8499V71.1499H77.1499V24.8499H18.8499Z" fill="#1C3553"/>
<path fill-rule="evenodd" clip-rule="evenodd" d="M67.2001 18.1499C68.2218 18.1499 69.0501 18.9782 69.0501 19.9999V24.5105C69.0501 25.5323 68.2218 26.3605 67.2001 26.3605C66.1784 26.3605 65.3501 25.5323 65.3501 24.5105V19.9999C65.3501 18.9782 66.1784 18.1499 67.2001 18.1499Z" fill="#1C3553"/>
<path fill-rule="evenodd" clip-rule="evenodd" d="M17 29C17 28.4477 17.4477 28 18 28L79 28C79.5523 28 80 28.4477 80 29C80 29.5523 79.5523 30 79 30L18 30C17.4477 30 17 29.5523 17 29Z" fill="#1C3553"/>
<path fill-rule="evenodd" clip-rule="evenodd" d="M28.3998 18.1499C29.4215 18.1499 30.2498 18.9782 30.2498 19.9999V24.5105C30.2498 25.5323 29.4215 26.3605 28.3998 26.3605C27.3781 26.3605 26.5498 25.5323 26.5498 24.5105V19.9999C26.5498 18.9782 27.3781 18.1499 28.3998 18.1499Z" fill="#1C3553"/>
<path fill-rule="evenodd" clip-rule="evenodd" d="M41.2001 18.1499C42.2218 18.1499 43.0501 18.9782 43.0501 19.9999V24.5105C43.0501 25.5323 42.2218 26.3605 41.2001 26.3605C40.1784 26.3605 39.3501 25.5323 39.3501 24.5105V19.9999C39.3501 18.9782 40.1784 18.1499 41.2001 18.1499Z" fill="#1C3553"/>
<path fill-rule="evenodd" clip-rule="evenodd" d="M54.2001 18.1499C55.2218 18.1499 56.0501 18.9782 56.0501 19.9999V24.5105C56.0501 25.5323 55.2218 26.3605 54.2001 26.3605C53.1784 26.3605 52.3501 25.5323 52.3501 24.5105V19.9999C52.3501 18.9782 53.1784 18.1499 54.2001 18.1499Z" fill="#1C3553"/>
<path d="M27.0347 66.9998H28.3067V63.4118C28.3067 62.6798 28.1987 61.6358 28.1387 60.9158H28.1867L28.8107 62.7038L30.1667 66.2678H30.8027L32.1587 62.7038L32.7947 60.9158H32.8427C32.7707 61.6358 32.6627 62.6798 32.6627 63.4118V66.9998H33.9707V59.1518H32.4347L31.0547 63.0158L30.5387 64.5038H30.4907L29.9747 63.0158L28.5587 59.1518H27.0347V66.9998Z" fill="#1C3553"/>
<path d="M38.9889 67.1438C41.0289 67.1438 42.4449 65.5838 42.4449 63.0398C42.4449 60.5078 41.0289 59.0078 38.9889 59.0078C36.9369 59.0078 35.5209 60.5078 35.5209 63.0398C35.5209 65.5838 36.9369 67.1438 38.9889 67.1438ZM38.9889 65.9318C37.7529 65.9318 36.9489 64.8038 36.9489 63.0398C36.9489 61.2878 37.7529 60.2198 38.9889 60.2198C40.2129 60.2198 41.0169 61.2878 41.0169 63.0398C41.0169 64.8038 40.2129 65.9318 38.9889 65.9318Z" fill="#1C3553"/>
<path d="M43.9917 66.9998H45.3117V63.5678C45.3117 62.6918 45.2037 61.7438 45.1317 60.9158H45.1797L45.9957 62.5838L48.4317 66.9998H49.8597V59.1518H48.5397V62.5598C48.5397 63.4358 48.6477 64.4318 48.7197 65.2358H48.6717L47.8557 63.5678L45.4197 59.1518H43.9917V66.9998Z" fill="#1C3553"/>
<path d="M53.1515 63.7838L53.4275 62.8238C53.6795 61.9958 53.9075 61.1078 54.1235 60.2318H54.1715C54.3995 61.0958 54.6395 61.9958 54.8795 62.8238L55.1555 63.7838H53.1515ZM56.0795 66.9998H57.5555L54.9995 59.1518H53.3675L50.7995 66.9998H52.2275L52.8395 64.8758H55.4675L56.0795 66.9998Z" fill="#1C3553"/>
<path d="M59.5913 66.9998H60.9833V60.3278H63.2393V59.1518H57.3233V60.3278H59.5913V66.9998Z" fill="#1C3553"/>
<path d="M64.5229 66.9998H69.3589V65.8238H65.9149V63.5078H68.7349V62.3318H65.9149V60.3278H69.2389V59.1518H64.5229V66.9998Z" fill="#1C3553"/>
<path d="M29.894 52.9998H41.61V49.5488H38.159V34.5848H35.027C33.722 35.3678 32.446 35.8898 30.445 36.2668V38.9058H33.896V49.5488H29.894V52.9998Z" fill="#2988FF"/>
<path d="M44.4323 47.1708H51.5663V44.1548H44.4323V47.1708Z" fill="#2988FF"/>
<path d="M53.4522 50.7378C54.7862 52.3038 56.8742 53.3478 59.8612 53.3478C63.5732 53.3478 66.7052 51.4048 66.7052 47.9828C66.7052 45.6048 65.1682 44.0968 63.0512 43.4878V43.3718C65.0232 42.5308 66.1252 41.1968 66.1252 39.2828C66.1252 36.0638 63.5732 34.2368 59.7742 34.2368C57.5122 34.2368 55.6562 35.1358 53.9742 36.5858L56.1202 39.1958C57.2802 38.1808 58.2662 37.5718 59.5712 37.5718C61.0212 37.5718 61.8332 38.3258 61.8332 39.6018C61.8332 41.0808 60.7892 42.0668 57.4832 42.0668V45.0828C61.4852 45.0828 62.4422 46.0978 62.4422 47.7218C62.4422 49.1138 61.2532 49.8968 59.4552 49.8968C57.8892 49.8968 56.5262 49.1138 55.4242 48.0408L53.4522 50.7378Z" fill="#2988FF"/>
</svg>
