<svg width="96" height="96" viewBox="0 0 96 96" fill="none" xmlns="http://www.w3.org/2000/svg">
<path fill-rule="evenodd" clip-rule="evenodd" d="M15.1499 23.4999C15.1499 22.202 16.202 21.1499 17.4999 21.1499H78.4999C79.7978 21.1499 80.8499 22.202 80.8499 23.4999V72.4999C80.8499 73.7978 79.7978 74.8499 78.4999 74.8499H17.4999C16.202 74.8499 15.1499 73.7978 15.1499 72.4999V23.4999ZM18.8499 24.8499V71.1499H77.1499V24.8499H18.8499Z" fill="#1C3553"/>
<path fill-rule="evenodd" clip-rule="evenodd" d="M67.2001 18.1499C68.2218 18.1499 69.0501 18.9782 69.0501 19.9999V24.5105C69.0501 25.5323 68.2218 26.3605 67.2001 26.3605C66.1784 26.3605 65.3501 25.5323 65.3501 24.5105V19.9999C65.3501 18.9782 66.1784 18.1499 67.2001 18.1499Z" fill="#1C3553"/>
<path fill-rule="evenodd" clip-rule="evenodd" d="M17 29C17 28.4477 17.4477 28 18 28L79 28C79.5523 28 80 28.4477 80 29C80 29.5523 79.5523 30 79 30L18 30C17.4477 30 17 29.5523 17 29Z" fill="#1C3553"/>
<path fill-rule="evenodd" clip-rule="evenodd" d="M28.3998 18.1499C29.4215 18.1499 30.2498 18.9782 30.2498 19.9999V24.5105C30.2498 25.5323 29.4215 26.3605 28.3998 26.3605C27.3781 26.3605 26.5498 25.5323 26.5498 24.5105V19.9999C26.5498 18.9782 27.3781 18.1499 28.3998 18.1499Z" fill="#1C3553"/>
<path fill-rule="evenodd" clip-rule="evenodd" d="M41.2001 18.1499C42.2218 18.1499 43.0501 18.9782 43.0501 19.9999V24.5105C43.0501 25.5323 42.2218 26.3605 41.2001 26.3605C40.1784 26.3605 39.3501 25.5323 39.3501 24.5105V19.9999C39.3501 18.9782 40.1784 18.1499 41.2001 18.1499Z" fill="#1C3553"/>
<path fill-rule="evenodd" clip-rule="evenodd" d="M54.2001 18.1499C55.2218 18.1499 56.0501 18.9782 56.0501 19.9999V24.5105C56.0501 25.5323 55.2218 26.3605 54.2001 26.3605C53.1784 26.3605 52.3501 25.5323 52.3501 24.5105V19.9999C52.3501 18.9782 53.1784 18.1499 54.2001 18.1499Z" fill="#1C3553"/>
<path d="M27.0347 66.9998H28.3067V63.4118C28.3067 62.6798 28.1987 61.6358 28.1387 60.9158H28.1867L28.8107 62.7038L30.1667 66.2678H30.8027L32.1587 62.7038L32.7947 60.9158H32.8427C32.7707 61.6358 32.6627 62.6798 32.6627 63.4118V66.9998H33.9707V59.1518H32.4347L31.0547 63.0158L30.5387 64.5038H30.4907L29.9747 63.0158L28.5587 59.1518H27.0347V66.9998Z" fill="#1C3553"/>
<path d="M38.9889 67.1438C41.0289 67.1438 42.4449 65.5838 42.4449 63.0398C42.4449 60.5078 41.0289 59.0078 38.9889 59.0078C36.9369 59.0078 35.5209 60.5078 35.5209 63.0398C35.5209 65.5838 36.9369 67.1438 38.9889 67.1438ZM38.9889 65.9318C37.7529 65.9318 36.9489 64.8038 36.9489 63.0398C36.9489 61.2878 37.7529 60.2198 38.9889 60.2198C40.2129 60.2198 41.0169 61.2878 41.0169 63.0398C41.0169 64.8038 40.2129 65.9318 38.9889 65.9318Z" fill="#1C3553"/>
<path d="M43.9917 66.9998H45.3117V63.5678C45.3117 62.6918 45.2037 61.7438 45.1317 60.9158H45.1797L45.9957 62.5838L48.4317 66.9998H49.8597V59.1518H48.5397V62.5598C48.5397 63.4358 48.6477 64.4318 48.7197 65.2358H48.6717L47.8557 63.5678L45.4197 59.1518H43.9917V66.9998Z" fill="#1C3553"/>
<path d="M53.1515 63.7838L53.4275 62.8238C53.6795 61.9958 53.9075 61.1078 54.1235 60.2318H54.1715C54.3995 61.0958 54.6395 61.9958 54.8795 62.8238L55.1555 63.7838H53.1515ZM56.0795 66.9998H57.5555L54.9995 59.1518H53.3675L50.7995 66.9998H52.2275L52.8395 64.8758H55.4675L56.0795 66.9998Z" fill="#1C3553"/>
<path d="M59.5913 66.9998H60.9833V60.3278H63.2393V59.1518H57.3233V60.3278H59.5913V66.9998Z" fill="#1C3553"/>
<path d="M64.5229 66.9998H69.3589V65.8238H65.9149V63.5078H68.7349V62.3318H65.9149V60.3278H69.2389V59.1518H64.5229V66.9998Z" fill="#1C3553"/>
<path d="M52.4013 50.1578C51.1253 50.1578 49.9073 49.2298 49.5303 46.3298C50.3713 44.9958 51.3863 44.5028 52.3143 44.5028C53.7063 44.5028 54.7213 45.2278 54.7213 47.1708C54.7213 49.2588 53.6773 50.1578 52.4013 50.1578ZM58.3463 36.4408C57.1863 35.2518 55.4173 34.2368 52.9813 34.2368C49.0953 34.2368 45.5283 37.3398 45.5283 44.2128C45.5283 50.6798 48.9213 53.3478 52.4883 53.3478C55.8233 53.3478 58.6073 50.9988 58.6073 47.1708C58.6073 43.2848 56.2873 41.4868 53.1263 41.4868C51.9953 41.4868 50.4003 42.2118 49.4433 43.4298C49.5883 39.1378 51.2123 37.6878 53.2423 37.6878C54.3153 37.6878 55.4753 38.2968 56.1133 38.9928L58.3463 36.4408Z" fill="#2988FF"/>
<path fill-rule="evenodd" clip-rule="evenodd" d="M42.5 44.4997C42.5 45.0101 42.2405 45.4855 41.8111 45.7615L34.8111 50.2615C34.1143 50.7094 33.1862 50.5077 32.7382 49.8108C32.2903 49.114 32.492 48.1859 33.1889 47.7379L38.2261 44.4997L33.1889 41.2615C32.492 40.8135 32.2903 39.8854 32.7382 39.1886C33.1862 38.4917 34.1143 38.2899 34.8111 38.7379L41.8111 43.2379C42.2405 43.5139 42.5 43.9893 42.5 44.4997Z" fill="#2988FF"/>
</svg>
