<svg width="96" height="96" viewBox="0 0 96 96" fill="none" xmlns="http://www.w3.org/2000/svg">
<path fill-rule="evenodd" clip-rule="evenodd" d="M15.1499 23.4999C15.1499 22.202 16.202 21.1499 17.4999 21.1499H78.4999C79.7978 21.1499 80.8499 22.202 80.8499 23.4999V72.4999C80.8499 73.7978 79.7978 74.8499 78.4999 74.8499H17.4999C16.202 74.8499 15.1499 73.7978 15.1499 72.4999V23.4999ZM18.8499 24.8499V71.1499H77.1499V24.8499H18.8499Z" fill="#1C3553"/>
<path fill-rule="evenodd" clip-rule="evenodd" d="M67.2001 18.1499C68.2218 18.1499 69.0501 18.9782 69.0501 19.9999V24.5105C69.0501 25.5323 68.2218 26.3605 67.2001 26.3605C66.1784 26.3605 65.3501 25.5323 65.3501 24.5105V19.9999C65.3501 18.9782 66.1784 18.1499 67.2001 18.1499Z" fill="#1C3553"/>
<path fill-rule="evenodd" clip-rule="evenodd" d="M17 29C17 28.4477 17.4477 28 18 28L79 28C79.5523 28 80 28.4477 80 29C80 29.5523 79.5523 30 79 30L18 30C17.4477 30 17 29.5523 17 29Z" fill="#1C3553"/>
<path fill-rule="evenodd" clip-rule="evenodd" d="M28.3998 18.1499C29.4215 18.1499 30.2498 18.9782 30.2498 19.9999V24.5105C30.2498 25.5323 29.4215 26.3605 28.3998 26.3605C27.3781 26.3605 26.5498 25.5323 26.5498 24.5105V19.9999C26.5498 18.9782 27.3781 18.1499 28.3998 18.1499Z" fill="#1C3553"/>
<path fill-rule="evenodd" clip-rule="evenodd" d="M41.2001 18.1499C42.2218 18.1499 43.0501 18.9782 43.0501 19.9999V24.5105C43.0501 25.5323 42.2218 26.3605 41.2001 26.3605C40.1784 26.3605 39.3501 25.5323 39.3501 24.5105V19.9999C39.3501 18.9782 40.1784 18.1499 41.2001 18.1499Z" fill="#1C3553"/>
<path fill-rule="evenodd" clip-rule="evenodd" d="M54.2001 18.1499C55.2218 18.1499 56.0501 18.9782 56.0501 19.9999V24.5105C56.0501 25.5323 55.2218 26.3605 54.2001 26.3605C53.1784 26.3605 52.3501 25.5323 52.3501 24.5105V19.9999C52.3501 18.9782 53.1784 18.1499 54.2001 18.1499Z" fill="#1C3553"/>
<path d="M26 48.7633V46.4158H28.728V39.176H26.3756V37.3809C27.0609 37.2494 27.6407 37.0916 28.1152 36.9074C28.5896 36.7233 29.0509 36.4997 29.4989 36.2367H31.6339V46.4158H33.9863V48.7633H26Z" fill="#2988FF"/>
<path d="M40.2788 49C39.6067 49 38.9939 48.8619 38.4404 48.5857C37.8869 48.2964 37.4125 47.8756 37.0171 47.3232C36.6349 46.7709 36.3318 46.087 36.1078 45.2716C35.8969 44.4562 35.7915 43.5159 35.7915 42.4507C35.7915 41.3854 35.8969 40.4517 36.1078 39.6495C36.3318 38.8472 36.6349 38.1765 37.0171 37.6373C37.4125 37.085 37.8869 36.6773 38.4404 36.4143C38.9939 36.1381 39.6067 36 40.2788 36C40.9509 36 41.5638 36.1381 42.1173 36.4143C42.6708 36.6773 43.1386 37.085 43.5208 37.6373C43.9161 38.1765 44.2193 38.8472 44.4301 39.6495C44.6542 40.4517 44.7662 41.3854 44.7662 42.4507C44.7662 43.5159 44.6542 44.4562 44.4301 45.2716C44.2193 46.087 43.9161 46.7709 43.5208 47.3232C43.1386 47.8756 42.6708 48.2964 42.1173 48.5857C41.5638 48.8619 40.9509 49 40.2788 49ZM40.2788 46.7511C40.5292 46.7511 40.7599 46.692 40.9707 46.5736C41.1816 46.4421 41.3661 46.2119 41.5242 45.8832C41.6824 45.5544 41.801 45.1138 41.88 44.5615C41.9723 44.0091 42.0184 43.3055 42.0184 42.4507C42.0184 41.5959 41.9723 40.8988 41.88 40.3596C41.801 39.8073 41.6824 39.3799 41.5242 39.0774C41.3661 38.7618 41.1816 38.5448 40.9707 38.4264C40.7599 38.308 40.5292 38.2489 40.2788 38.2489C40.0416 38.2489 39.8176 38.308 39.6067 38.4264C39.3959 38.5448 39.2114 38.7618 39.0532 39.0774C38.8951 39.3799 38.7699 39.8073 38.6776 40.3596C38.5854 40.8988 38.5392 41.5959 38.5392 42.4507C38.5392 43.3055 38.5854 44.0091 38.6776 44.5615C38.7699 45.1138 38.8951 45.5544 39.0532 45.8832C39.2114 46.2119 39.3959 46.4421 39.6067 46.5736C39.8176 46.692 40.0416 46.7511 40.2788 46.7511Z" fill="#2988FF"/>
<path d="M46.3539 44.7982V42.7466H51.2169V44.7982H46.3539Z" fill="#2988FF"/>
<path d="M53.4513 48.7633V46.4158H56.1793V39.176H53.8269V37.3809C54.5122 37.2494 55.092 37.0916 55.5665 36.9074C56.0409 36.7233 56.5021 36.4997 56.9502 36.2367H59.0852V46.4158H61.4376V48.7633H53.4513Z" fill="#2988FF"/>
<path d="M67.3941 49C66.3661 49 65.4963 48.8356 64.7847 48.5068C64.073 48.1649 63.4668 47.7441 62.966 47.2443L64.2707 45.4097C64.6529 45.7516 65.0614 46.0475 65.4963 46.2974C65.9444 46.5341 66.4386 46.6525 66.9789 46.6525C67.6247 46.6525 68.1386 46.4881 68.5208 46.1593C68.903 45.8306 69.0941 45.344 69.0941 44.6995C69.0941 44.0683 68.9096 43.5883 68.5406 43.2595C68.1848 42.9307 67.7103 42.7663 67.1173 42.7663C66.9328 42.7663 66.7681 42.7795 66.6231 42.8058C66.4781 42.8189 66.3332 42.8518 66.1882 42.9044C66.0564 42.957 65.9115 43.0228 65.7533 43.1017C65.6083 43.1806 65.4436 43.2792 65.2591 43.3976L63.9544 42.569L64.3102 36.2367H71.4267V38.6829H66.8208L66.6033 41.0303C66.8406 40.9251 67.0646 40.8528 67.2754 40.8134C67.4995 40.7607 67.7433 40.7344 68.0069 40.7344C68.5472 40.7344 69.0546 40.8134 69.529 40.9712C70.0166 41.129 70.4449 41.3657 70.8139 41.6813C71.1829 41.997 71.4729 42.3981 71.6837 42.8847C71.8946 43.3713 72 43.9499 72 44.6206C72 45.3177 71.8748 45.9358 71.6244 46.475C71.374 47.0142 71.038 47.4745 70.6162 47.8558C70.1945 48.2241 69.7003 48.5068 69.1336 48.7041C68.5801 48.9014 68.0003 49 67.3941 49Z" fill="#2988FF"/>
<path d="M33.5684 66.1675C32.8684 66.1675 32.2804 66.0322 31.8044 65.7615C31.3378 65.4909 30.9458 65.0755 30.6284 64.5155L32.0284 63.4795C32.1964 63.7875 32.3924 64.0162 32.6164 64.1655C32.8404 64.3149 33.0691 64.3895 33.3024 64.3895C33.6758 64.3895 33.9558 64.2775 34.1424 64.0535C34.3384 63.8202 34.4364 63.4002 34.4364 62.7935V56.8715H36.4944V62.9615C36.4944 63.4002 36.4338 63.8155 36.3124 64.2075C36.2004 64.5995 36.0231 64.9402 35.7804 65.2295C35.5471 65.5189 35.2438 65.7475 34.8704 65.9155C34.5064 66.0835 34.0724 66.1675 33.5684 66.1675Z" fill="#1C3553"/>
<path d="M40.1875 66.1675C39.8701 66.1675 39.5808 66.1115 39.3195 65.9995C39.0675 65.8969 38.8528 65.7522 38.6755 65.5655C38.4981 65.3695 38.3581 65.1455 38.2555 64.8935C38.1621 64.6415 38.1155 64.3662 38.1155 64.0675C38.1155 63.3395 38.4235 62.7702 39.0395 62.3595C39.6555 61.9489 40.6495 61.6735 42.0215 61.5335C42.0028 61.2255 41.9095 60.9829 41.7415 60.8055C41.5828 60.6189 41.3121 60.5255 40.9295 60.5255C40.6308 60.5255 40.3321 60.5815 40.0335 60.6935C39.7441 60.8055 39.4315 60.9595 39.0955 61.1555L38.3535 59.7975C38.8015 59.5269 39.2681 59.3075 39.7535 59.1395C40.2481 58.9715 40.7708 58.8875 41.3215 58.8875C42.2175 58.8875 42.8988 59.1442 43.3655 59.6575C43.8415 60.1615 44.0795 60.9502 44.0795 62.0235V65.9995H42.3995L42.2595 65.2855H42.2035C41.9048 65.5469 41.5921 65.7615 41.2655 65.9295C40.9388 66.0882 40.5795 66.1675 40.1875 66.1675ZM40.8875 64.5715C41.1208 64.5715 41.3215 64.5202 41.4895 64.4175C41.6575 64.3149 41.8348 64.1702 42.0215 63.9835V62.7655C41.2935 62.8682 40.7895 63.0175 40.5095 63.2135C40.2295 63.4095 40.0895 63.6429 40.0895 63.9135C40.0895 64.1375 40.1595 64.3055 40.2995 64.4175C40.4488 64.5202 40.6448 64.5715 40.8875 64.5715Z" fill="#1C3553"/>
<path d="M45.8203 65.9995V56.1855H47.8783V58.5935L47.7803 59.8395C48.0416 59.6062 48.3449 59.3915 48.6903 59.1955C49.0356 58.9902 49.4463 58.8875 49.9223 58.8875C50.6783 58.8875 51.2243 59.1349 51.5603 59.6295C51.9056 60.1242 52.0783 60.8102 52.0783 61.6875V65.9995H50.0203V61.9535C50.0203 61.4495 49.9503 61.1042 49.8103 60.9175C49.6796 60.7309 49.4649 60.6375 49.1663 60.6375C48.9049 60.6375 48.6809 60.6982 48.4943 60.8195C48.3076 60.9315 48.1023 61.0949 47.8783 61.3095V65.9995H45.8203Z" fill="#1C3553"/>
<path d="M53.8183 65.9995V59.0555H55.4983L55.6383 60.2735H55.6943C55.9463 59.7975 56.2497 59.4475 56.6043 59.2235C56.959 58.9995 57.3137 58.8875 57.6683 58.8875C57.8643 58.8875 58.023 58.9015 58.1443 58.9295C58.275 58.9482 58.3917 58.9809 58.4943 59.0275L58.1583 60.8055C58.0277 60.7682 57.9063 60.7402 57.7943 60.7215C57.6823 60.7029 57.5517 60.6935 57.4023 60.6935C57.141 60.6935 56.8657 60.7869 56.5763 60.9735C56.2963 61.1602 56.063 61.4915 55.8763 61.9675V65.9995H53.8183Z" fill="#1C3553"/>
<path d="M62.3677 66.1675C61.8731 66.1675 61.4111 66.0882 60.9817 65.9295C60.5524 65.7615 60.1791 65.5235 59.8617 65.2155C59.5444 64.8982 59.2971 64.5155 59.1197 64.0675C58.9424 63.6195 58.8537 63.1062 58.8537 62.5275C58.8537 61.9675 58.9471 61.4635 59.1337 61.0155C59.3204 60.5582 59.5631 60.1755 59.8617 59.8675C60.1697 59.5502 60.5197 59.3075 60.9117 59.1395C61.3037 58.9715 61.7097 58.8875 62.1297 58.8875C62.6244 58.8875 63.0537 58.9715 63.4177 59.1395C63.7911 59.3075 64.0991 59.5409 64.3417 59.8395C64.5937 60.1382 64.7804 60.4929 64.9017 60.9035C65.0231 61.3049 65.0837 61.7435 65.0837 62.2195C65.0837 62.4062 65.0744 62.5835 65.0557 62.7515C65.0371 62.9195 65.0184 63.0455 64.9997 63.1295H60.8417C60.9351 63.6335 61.1404 64.0069 61.4577 64.2495C61.7844 64.4829 62.1811 64.5995 62.6477 64.5995C63.1424 64.5995 63.6417 64.4455 64.1457 64.1375L64.8317 65.3835C64.4771 65.6262 64.0804 65.8175 63.6417 65.9575C63.2124 66.0975 62.7877 66.1675 62.3677 66.1675ZM60.8277 61.7715H63.3337C63.3337 61.3795 63.2451 61.0622 63.0677 60.8195C62.8904 60.5769 62.5917 60.4555 62.1717 60.4555C61.8451 60.4555 61.5557 60.5629 61.3037 60.7775C61.0611 60.9922 60.9024 61.3235 60.8277 61.7715Z" fill="#1C3553"/>
</svg>
