<svg width="96" height="96" viewBox="0 0 96 96" fill="none" xmlns="http://www.w3.org/2000/svg">
<path fill-rule="evenodd" clip-rule="evenodd" d="M15.1499 23.4999C15.1499 22.202 16.202 21.1499 17.4999 21.1499H78.4999C79.7978 21.1499 80.8499 22.202 80.8499 23.4999V72.4999C80.8499 73.7978 79.7978 74.8499 78.4999 74.8499H17.4999C16.202 74.8499 15.1499 73.7978 15.1499 72.4999V23.4999ZM18.8499 24.8499V71.1499H77.1499V24.8499H18.8499Z" fill="#1C3553"/>
<path fill-rule="evenodd" clip-rule="evenodd" d="M67.2001 18.1499C68.2218 18.1499 69.0501 18.9782 69.0501 19.9999V24.5105C69.0501 25.5323 68.2218 26.3605 67.2001 26.3605C66.1784 26.3605 65.3501 25.5323 65.3501 24.5105V19.9999C65.3501 18.9782 66.1784 18.1499 67.2001 18.1499Z" fill="#1C3553"/>
<path fill-rule="evenodd" clip-rule="evenodd" d="M17 29C17 28.4477 17.4477 28 18 28L79 28C79.5523 28 80 28.4477 80 29C80 29.5523 79.5523 30 79 30L18 30C17.4477 30 17 29.5523 17 29Z" fill="#1C3553"/>
<path fill-rule="evenodd" clip-rule="evenodd" d="M28.3998 18.1499C29.4215 18.1499 30.2498 18.9782 30.2498 19.9999V24.5105C30.2498 25.5323 29.4215 26.3605 28.3998 26.3605C27.3781 26.3605 26.5498 25.5323 26.5498 24.5105V19.9999C26.5498 18.9782 27.3781 18.1499 28.3998 18.1499Z" fill="#1C3553"/>
<path fill-rule="evenodd" clip-rule="evenodd" d="M41.2001 18.1499C42.2218 18.1499 43.0501 18.9782 43.0501 19.9999V24.5105C43.0501 25.5323 42.2218 26.3605 41.2001 26.3605C40.1784 26.3605 39.3501 25.5323 39.3501 24.5105V19.9999C39.3501 18.9782 40.1784 18.1499 41.2001 18.1499Z" fill="#1C3553"/>
<path fill-rule="evenodd" clip-rule="evenodd" d="M54.2001 18.1499C55.2218 18.1499 56.0501 18.9782 56.0501 19.9999V24.5105C56.0501 25.5323 55.2218 26.3605 54.2001 26.3605C53.1784 26.3605 52.3501 25.5323 52.3501 24.5105V19.9999C52.3501 18.9782 53.1784 18.1499 54.2001 18.1499Z" fill="#1C3553"/>
<path d="M32.6802 46.6688V44.2375L36.194 43.0722L38.8892 42.1278V42.0474L36.194 41.1031L32.6802 39.9377V37.5065L41.864 41.0629V43.1123L32.6802 46.6688Z" fill="#2988FF"/>
<path d="M43.9467 48.7584V46.3674H46.7019V38.9933H44.3261V37.1649C45.0182 37.0309 45.6038 36.8702 46.083 36.6827C46.5621 36.4951 47.028 36.2674 47.4805 35.9995H49.6367V46.3674H52.0126V48.7584H43.9467Z" fill="#2988FF"/>
<path d="M58.0284 48.9995C56.9902 48.9995 56.1117 48.8321 55.393 48.4972C54.6743 48.1489 54.062 47.7203 53.5562 47.2113L54.8739 45.3426C55.2599 45.6909 55.6725 45.9923 56.1117 46.2468C56.5643 46.4879 57.0634 46.6085 57.6091 46.6085C58.2613 46.6085 58.7804 46.441 59.1664 46.1062C59.5523 45.7713 59.7453 45.2757 59.7453 44.6193C59.7453 43.9763 59.559 43.4874 59.1863 43.1525C58.827 42.8176 58.3478 42.6502 57.7489 42.6502C57.5625 42.6502 57.3961 42.6636 57.2497 42.6904C57.1033 42.7038 56.9569 42.7373 56.8105 42.7909C56.6774 42.8444 56.531 42.9114 56.3713 42.9918C56.2249 43.0722 56.0585 43.1726 55.8722 43.2932L54.5545 42.4493L54.9138 35.9995H62.1012V38.491H57.4494L57.2298 40.882C57.4694 40.7749 57.6956 40.7012 57.9086 40.661C58.1348 40.6074 58.3811 40.5807 58.6473 40.5807C59.193 40.5807 59.7054 40.661 60.1846 40.8218C60.677 40.9825 61.1096 41.2236 61.4823 41.5451C61.855 41.8666 62.1478 42.2751 62.3607 42.7708C62.5737 43.2664 62.6802 43.8558 62.6802 44.5389C62.6802 45.2489 62.5537 45.8784 62.3008 46.4276C62.048 46.9768 61.7086 47.4457 61.2826 47.8341C60.8567 48.2092 60.3576 48.4972 59.7853 48.6981C59.2263 48.899 58.6406 48.9995 58.0284 48.9995Z" fill="#2988FF"/>
<path d="M29.5626 66.1675C28.8626 66.1675 28.2746 66.0322 27.7986 65.7615C27.3319 65.4909 26.9399 65.0755 26.6226 64.5155L28.0226 63.4795C28.1906 63.7875 28.3866 64.0162 28.6106 64.1655C28.8346 64.3149 29.0632 64.3895 29.2966 64.3895C29.6699 64.3895 29.9499 64.2775 30.1366 64.0535C30.3326 63.8202 30.4306 63.4002 30.4306 62.7935V56.8715H32.4886V62.9615C32.4886 63.4002 32.4279 63.8155 32.3066 64.2075C32.1946 64.5995 32.0172 64.9402 31.7746 65.2295C31.5412 65.5189 31.2379 65.7475 30.8646 65.9155C30.5006 66.0835 30.0666 66.1675 29.5626 66.1675Z" fill="#1C3553"/>
<path d="M36.1816 66.1675C35.8643 66.1675 35.5749 66.1115 35.3136 65.9995C35.0616 65.8969 34.8469 65.7522 34.6696 65.5655C34.4923 65.3695 34.3523 65.1455 34.2496 64.8935C34.1563 64.6415 34.1096 64.3662 34.1096 64.0675C34.1096 63.3395 34.4176 62.7702 35.0336 62.3595C35.6496 61.9489 36.6436 61.6735 38.0156 61.5335C37.9969 61.2255 37.9036 60.9829 37.7356 60.8055C37.5769 60.6189 37.3063 60.5255 36.9236 60.5255C36.6249 60.5255 36.3263 60.5815 36.0276 60.6935C35.7383 60.8055 35.4256 60.9595 35.0896 61.1555L34.3476 59.7975C34.7956 59.5269 35.2623 59.3075 35.7476 59.1395C36.2423 58.9715 36.7649 58.8875 37.3156 58.8875C38.2116 58.8875 38.8929 59.1442 39.3596 59.6575C39.8356 60.1615 40.0736 60.9502 40.0736 62.0235V65.9995H38.3936L38.2536 65.2855H38.1976C37.8989 65.5469 37.5863 65.7615 37.2596 65.9295C36.9329 66.0882 36.5736 66.1675 36.1816 66.1675ZM36.8816 64.5715C37.1149 64.5715 37.3156 64.5202 37.4836 64.4175C37.6516 64.3149 37.8289 64.1702 38.0156 63.9835V62.7655C37.2876 62.8682 36.7836 63.0175 36.5036 63.2135C36.2236 63.4095 36.0836 63.6429 36.0836 63.9135C36.0836 64.1375 36.1536 64.3055 36.2936 64.4175C36.4429 64.5202 36.6389 64.5715 36.8816 64.5715Z" fill="#1C3553"/>
<path d="M41.8144 65.9995V56.1855H43.8724V58.5935L43.7744 59.8395C44.0358 59.6062 44.3391 59.3915 44.6844 59.1955C45.0298 58.9902 45.4404 58.8875 45.9164 58.8875C46.6724 58.8875 47.2184 59.1349 47.5544 59.6295C47.8997 60.1242 48.0724 60.8102 48.0724 61.6875V65.9995H46.0144V61.9535C46.0144 61.4495 45.9444 61.1042 45.8044 60.9175C45.6737 60.7309 45.4591 60.6375 45.1604 60.6375C44.8991 60.6375 44.6751 60.6982 44.4884 60.8195C44.3018 60.9315 44.0964 61.0949 43.8724 61.3095V65.9995H41.8144Z" fill="#1C3553"/>
<path d="M49.8125 65.9995V59.0555H51.4925L51.6325 60.2735H51.6885C51.9405 59.7975 52.2438 59.4475 52.5985 59.2235C52.9531 58.9995 53.3078 58.8875 53.6625 58.8875C53.8585 58.8875 54.0171 58.9015 54.1385 58.9295C54.2691 58.9482 54.3858 58.9809 54.4885 59.0275L54.1525 60.8055C54.0218 60.7682 53.9005 60.7402 53.7885 60.7215C53.6765 60.7029 53.5458 60.6935 53.3965 60.6935C53.1351 60.6935 52.8598 60.7869 52.5705 60.9735C52.2905 61.1602 52.0571 61.4915 51.8705 61.9675V65.9995H49.8125Z" fill="#1C3553"/>
<path d="M58.3619 66.1675C57.8672 66.1675 57.4052 66.0882 56.9759 65.9295C56.5465 65.7615 56.1732 65.5235 55.8559 65.2155C55.5385 64.8982 55.2912 64.5155 55.1139 64.0675C54.9365 63.6195 54.8479 63.1062 54.8479 62.5275C54.8479 61.9675 54.9412 61.4635 55.1279 61.0155C55.3145 60.5582 55.5572 60.1755 55.8559 59.8675C56.1639 59.5502 56.5139 59.3075 56.9059 59.1395C57.2979 58.9715 57.7039 58.8875 58.1239 58.8875C58.6185 58.8875 59.0479 58.9715 59.4119 59.1395C59.7852 59.3075 60.0932 59.5409 60.3359 59.8395C60.5879 60.1382 60.7745 60.4929 60.8959 60.9035C61.0172 61.3049 61.0779 61.7435 61.0779 62.2195C61.0779 62.4062 61.0685 62.5835 61.0499 62.7515C61.0312 62.9195 61.0125 63.0455 60.9939 63.1295H56.8359C56.9292 63.6335 57.1345 64.0069 57.4519 64.2495C57.7785 64.4829 58.1752 64.5995 58.6419 64.5995C59.1365 64.5995 59.6359 64.4455 60.1399 64.1375L60.8259 65.3835C60.4712 65.6262 60.0745 65.8175 59.6359 65.9575C59.2065 66.0975 58.7819 66.1675 58.3619 66.1675ZM56.8219 61.7715H59.3279C59.3279 61.3795 59.2392 61.0622 59.0619 60.8195C58.8845 60.5769 58.5859 60.4555 58.1659 60.4555C57.8392 60.4555 57.5499 60.5629 57.2979 60.7775C57.0552 60.9922 56.8965 61.3235 56.8219 61.7715Z" fill="#1C3553"/>
<path d="M62.5 65.9995V59.0555H64.18L64.32 59.9375H64.376C64.6746 59.6575 65.0013 59.4149 65.356 59.2095C65.7106 58.9949 66.126 58.8875 66.602 58.8875C67.358 58.8875 67.904 59.1349 68.24 59.6295C68.5853 60.1242 68.758 60.8102 68.758 61.6875V65.9995H66.7V61.9535C66.7 61.4495 66.63 61.1042 66.49 60.9175C66.3593 60.7309 66.1446 60.6375 65.846 60.6375C65.5846 60.6375 65.3606 60.6982 65.174 60.8195C64.9873 60.9315 64.782 61.0949 64.558 61.3095V65.9995H62.5Z" fill="#1C3553"/>
</svg>
