<svg width="96" height="96" viewBox="0 0 96 96" fill="none" xmlns="http://www.w3.org/2000/svg">
<path fill-rule="evenodd" clip-rule="evenodd" d="M27 32.5181C27 31.5516 27.7835 30.7681 28.75 30.7681H67.25C68.2165 30.7681 69 31.5516 69 32.5181V79.1421C69 80.1086 68.2165 80.8921 67.25 80.8921H28.75C27.7835 80.8921 27 80.1086 27 79.1421V32.5181ZM65.5 34.2681H30.5V77.3921H65.5V34.2681Z" fill="#2988FF"/>
<path fill-rule="evenodd" clip-rule="evenodd" d="M56.2002 24.9121C55.6357 24.9121 55.1782 24.4545 55.1782 23.8901V16.9121C55.1782 16.3477 55.6357 15.8901 56.2002 15.8901C56.7646 15.8901 57.2222 16.3477 57.2222 16.9121V23.8901C57.2222 24.4545 56.7646 24.9121 56.2002 24.9121Z" fill="#2988FF"/>
<path fill-rule="evenodd" clip-rule="evenodd" d="M60.4571 21.933C60.8476 22.3236 60.8476 22.9567 60.4571 23.3472L56.25 27.5544L52.0429 23.3472C51.6524 22.9567 51.6524 22.3236 52.0429 21.933C52.4334 21.5425 53.0666 21.5425 53.4571 21.933L56.25 24.7259L59.0429 21.933C59.4334 21.5425 60.0666 21.5425 60.4571 21.933Z" fill="#2988FF"/>
<path fill-rule="evenodd" clip-rule="evenodd" d="M39.7998 18.8696C40.3643 18.8696 40.8218 19.3272 40.8218 19.8916V26.8696C40.8218 27.4341 40.3643 27.8916 39.7998 27.8916C39.2354 27.8916 38.7778 27.4341 38.7778 26.8696V19.8916C38.7778 19.3272 39.2354 18.8696 39.7998 18.8696Z" fill="#2988FF"/>
<path fill-rule="evenodd" clip-rule="evenodd" d="M35.5429 21.8487C35.1524 21.4582 35.1524 20.825 35.5429 20.4345L39.75 16.2274L43.9571 20.4345C44.3476 20.825 44.3476 21.4582 43.9571 21.8487C43.5666 22.2392 42.9334 22.2392 42.5429 21.8487L39.75 19.0558L36.9571 21.8487C36.5666 22.2392 35.9334 22.2392 35.5429 21.8487Z" fill="#2988FF"/>
<path fill-rule="evenodd" clip-rule="evenodd" d="M55.2343 48.2333C54.5682 46.0393 53.3042 45.4313 51.0422 45.4283H50.6692V45.4273C49.7792 45.4273 48.8892 45.4283 48.0002 45.4273C47.1102 45.4283 46.2212 45.4273 45.3312 45.4273V45.4283H44.9583C42.6962 45.4313 41.4322 46.0393 40.7662 48.2333C40.6972 48.4613 40.4612 52.3483 40.5412 53.5673V59.4163C40.5402 59.4343 40.5312 59.4493 40.5312 59.4673C40.5312 60.1423 41.0782 60.6893 41.7532 60.6893C42.4282 60.6893 42.9752 60.1423 42.9752 59.4673C42.9752 59.4493 42.9652 59.4343 42.9642 59.4163V51.2523C42.9642 49.8583 43.4942 49.4853 44.0262 49.6613V50.8903V63.7923C44.0182 64.1793 44.0132 64.5093 44.0132 64.7533C44.0132 67.1323 43.9972 69.5123 44.0202 71.8913C44.0232 72.1743 44.0752 72.4263 44.1512 72.6573C44.1522 72.6623 44.1532 72.6663 44.1552 72.6713C44.2242 72.8773 44.3152 73.0643 44.4332 73.2193C44.4822 73.2883 44.5412 73.3433 44.6002 73.4003C44.7142 73.5113 44.8393 73.6083 44.9802 73.6763C45.0052 73.6873 45.0312 73.6963 45.0573 73.7063C45.3942 73.8473 45.7892 73.8743 46.2142 73.7473C46.2622 73.7333 46.2862 73.7043 46.3302 73.6873C46.4052 73.6583 46.4722 73.6193 46.5392 73.5793C47.2182 73.2133 47.3932 72.5343 47.3932 71.7533C47.3903 68.0553 47.3923 64.3583 47.3932 60.6613V59.3223H48.6073V60.6613C48.6083 64.3583 48.6103 68.0553 48.6073 71.7533C48.6062 72.5343 48.7822 73.2133 49.4602 73.5793C49.5282 73.6193 49.5953 73.6583 49.6702 73.6873C49.7142 73.7043 49.7382 73.7333 49.7863 73.7473C50.2113 73.8743 50.6062 73.8473 50.9432 73.7063C50.9692 73.6963 50.9952 73.6873 51.0202 73.6763C51.1612 73.6083 51.2852 73.5113 51.4002 73.4003C51.4592 73.3433 51.5173 73.2883 51.5673 73.2193C51.6853 73.0643 51.7762 72.8773 51.8453 72.6713C51.8463 72.6663 51.8482 72.6623 51.8492 72.6573C51.9253 72.4263 51.9773 72.1743 51.9792 71.8913C52.0033 69.5123 51.9862 67.1323 51.9872 64.7533C51.9872 64.5093 51.9823 64.1793 51.9742 63.7923V50.8903V49.6613C52.5062 49.4853 53.0352 49.8583 53.0352 51.2523V59.4163C53.0352 59.4343 53.0252 59.4493 53.0252 59.4673C53.0252 60.1423 53.5722 60.6893 54.2472 60.6893C54.9222 60.6893 55.4692 60.1423 55.4692 59.4673C55.4692 59.4493 55.4602 59.4343 55.4592 59.4163V53.5673C55.5392 52.3483 55.3033 48.4613 55.2343 48.2333ZM50.8532 41.7273C50.8682 40.1523 49.6032 38.8483 48.0422 38.8293C46.4992 38.8103 45.1652 40.1153 45.1472 41.6633C45.1282 43.2343 46.3962 44.5223 47.9762 44.5363C49.5722 44.5493 50.8382 43.3133 50.8532 41.7273Z" fill="#1C3553"/>
<path fill-rule="evenodd" clip-rule="evenodd" d="M48 16.8071C48.5645 16.8071 49.022 17.2647 49.022 17.8291V26.8291C49.022 27.3936 48.5645 27.8511 48 27.8511C47.4356 27.8511 46.978 27.3936 46.978 26.8291V17.8291C46.978 17.2647 47.4356 16.8071 48 16.8071Z" fill="#1C3553"/>
</svg>
