<svg width="96" height="96" viewBox="0 0 96 96" fill="none" xmlns="http://www.w3.org/2000/svg">
<path fill-rule="evenodd" clip-rule="evenodd" d="M28.7977 77.9601H68.9075V60.9601H28.7977V77.9601Z" fill="#2988FF"/>
<path fill-rule="evenodd" clip-rule="evenodd" d="M26.0497 27.9647C26.0497 26.8601 26.9451 25.9647 28.0497 25.9647H68.8495C69.954 25.9647 70.8494 26.8601 70.8494 27.9647V78.9646C70.8494 80.0691 69.954 80.9646 68.8495 80.9646H28.0497C26.9451 80.9646 26.0497 80.0691 26.0497 78.9646V27.9647ZM30.0497 29.9647V76.9646H66.8495V29.9647H30.0497Z" fill="#1C3553"/>
<path d="M46.71 48.7983H50.51C50.91 48.7983 51.21 48.4983 51.21 48.0983V41.1983C51.21 40.7983 50.91 40.4983 50.51 40.4983H46.71C46.31 40.4983 46.01 40.7983 46.01 41.1983V48.0983C46.01 48.4983 46.31 48.7983 46.71 48.7983ZM47.41 41.8983H49.71V47.2983H47.41V41.8983Z" fill="#1C3553"/>
<path d="M58.2598 48.7983H62.0597C62.4597 48.7983 62.7597 48.4983 62.7597 48.0983V41.1983C62.7597 40.7983 62.4597 40.4983 62.0597 40.4983H58.2598C57.8598 40.4983 57.5598 40.7983 57.5598 41.1983V48.0983C57.5598 48.4983 57.8598 48.7983 58.2598 48.7983ZM58.9598 41.8983H61.2597V47.2983H58.9598V41.8983Z" fill="#1C3553"/>
<path d="M35.1602 48.7983H38.9602C39.3602 48.7983 39.6602 48.4983 39.6602 48.0983V41.1983C39.6602 40.7983 39.3602 40.4983 38.9602 40.4983H35.1602C34.7602 40.4983 34.4602 40.7983 34.4602 41.1983V48.0983C34.3602 48.4983 34.7602 48.7983 35.1602 48.7983ZM35.8602 41.8983H38.1602V47.2983H35.8602V41.8983Z" fill="#1C3553"/>
<path fill-rule="evenodd" clip-rule="evenodd" d="M70.9072 22.6314C70.9072 21.9234 70.3552 21.3484 69.6732 21.3484H40.8813C40.9143 20.1994 40.9213 19.0494 40.8853 17.8994C40.8713 17.4604 40.3803 17.1304 39.7063 17.0094C39.7003 17.0084 39.6963 17.0084 39.6893 17.0074C39.6373 16.9984 39.5853 16.9894 39.5313 16.9844C39.5283 16.9834 39.5253 16.9834 39.5223 16.9824C39.4643 16.9764 39.4073 16.9714 39.3473 16.9674H39.3413C39.2873 16.9634 39.2323 16.9614 39.1773 16.9614C39.1693 16.9604 39.1613 16.9604 39.1523 16.9594C39.1413 16.9594 39.1323 16.9604 39.1213 16.9604C39.1053 16.9604 39.0883 16.9594 39.0693 16.9594C39.0553 16.9604 39.0433 16.9614 39.0293 16.9624C38.0613 16.9824 37.3673 17.3884 37.3413 17.9934C37.3153 18.5934 37.3353 19.1954 37.3353 19.7964C37.3353 20.3144 37.3293 20.8314 37.3363 21.3484H35.4773C35.5103 20.1994 35.5173 19.0494 35.4813 17.8994C35.4673 17.4604 34.9763 17.1304 34.3023 17.0094C34.2963 17.0084 34.2913 17.0084 34.2853 17.0074C34.2333 16.9984 34.1813 16.9894 34.1273 16.9844C34.1243 16.9834 34.1213 16.9834 34.1183 16.9824C34.0603 16.9764 34.0033 16.9714 33.9433 16.9674H33.9373C33.8833 16.9634 33.8283 16.9614 33.7733 16.9614C33.7653 16.9604 33.7573 16.9604 33.7483 16.9594C33.7373 16.9594 33.7283 16.9604 33.7173 16.9604C33.7003 16.9604 33.6833 16.9594 33.6653 16.9594C33.6513 16.9604 33.6393 16.9614 33.6253 16.9624C32.6573 16.9824 31.9633 17.3884 31.9373 17.9934C31.9113 18.5934 31.9313 19.1954 31.9313 19.7964C31.9313 20.3144 31.9253 20.8314 31.9323 21.3484H27.2334C26.5524 21.3484 25.9994 21.9234 25.9994 22.6314C25.9994 23.3394 26.5524 23.9144 27.2334 23.9144H69.6732C70.3552 23.9144 70.9072 23.3394 70.9072 22.6314Z" fill="#1C3553"/>
</svg>
