<svg width="96" height="96" viewBox="0 0 96 96" fill="none" xmlns="http://www.w3.org/2000/svg">
<path d="M66.1499 62.5981L66.4499 48.1982L74.9498 47.3982L56.4499 30.3983V45.6982H21.9501L29.15 49.6982L28.95 55.7982H46.65V62.5981H66.1499Z" fill="#2988FF"/>
<path d="M69.2495 73.0981V49.5982C70.8495 49.5982 72.3495 49.5982 73.9495 49.5982C75.9495 49.5982 76.8495 48.5983 77.1495 47.6983C77.7495 46.3983 77.3495 45.1983 76.1495 43.9983C74.6495 42.5983 66.4495 34.8983 59.7496 28.5984C55.3496 24.4984 51.5496 20.9984 50.6496 20.0984C49.7496 19.2984 48.8496 18.8984 47.9496 18.9984C47.0496 18.8984 46.1496 19.2984 45.2496 20.0984C44.3497 20.8984 40.6497 24.3984 36.3497 28.3984C29.6497 34.7983 21.3498 42.4983 19.8498 43.9983C18.6498 45.1983 18.2498 46.3983 18.8498 47.6983C19.2498 48.5983 20.0498 49.5982 22.0498 49.5982C23.6498 49.5982 25.1497 49.5982 26.7497 49.5982V73.0981C26.7497 75.5981 27.9497 76.7981 30.4497 76.7981H65.4495C68.0495 76.7981 69.2495 75.5981 69.2495 73.0981ZM65.2495 72.7981H30.7497V49.0983C30.7497 46.7983 29.4497 45.5983 27.2497 45.5983C26.1497 45.5983 25.0498 45.5983 24.0498 45.5983C27.0497 42.7983 33.6497 36.5983 39.1497 31.3983C43.4497 27.3984 47.1496 23.8984 48.0496 23.0984C48.9496 23.9984 52.7496 27.4984 57.1496 31.5983C62.6496 36.7983 69.1495 42.7983 72.1495 45.5983C71.0495 45.5983 70.0495 45.5983 68.9495 45.5983C66.6495 45.5983 65.3495 46.8983 65.3495 49.0983V72.7981H65.2495Z" fill="#1C3553"/>
</svg>
