<svg width="96" height="96" viewBox="0 0 96 96" fill="none" xmlns="http://www.w3.org/2000/svg">
<path fill-rule="evenodd" clip-rule="evenodd" d="M38.5005 65.5732C38.5005 65.021 38.9482 64.5732 39.5005 64.5732H43.6975C44.2498 64.5732 44.6975 65.021 44.6975 65.5732V66.9792H47.1775C47.7298 66.9792 48.1775 67.427 48.1775 67.9792V69.3862H50.6585C51.2108 69.3862 51.6585 69.834 51.6585 70.3862V71.7932H54.1385C54.6908 71.7932 55.1385 72.241 55.1385 72.7932V74.0002H58.1795C58.7318 74.0002 59.1795 74.448 59.1795 75.0002C59.1795 75.5525 58.7318 76.0002 58.1795 76.0002H54.1385C53.5862 76.0002 53.1385 75.5525 53.1385 75.0002V73.7932H50.6585C50.1062 73.7932 49.6585 73.3455 49.6585 72.7932V71.3862H47.1775C46.6252 71.3862 46.1775 70.9385 46.1775 70.3862V68.9792H43.6975C43.1452 68.9792 42.6975 68.5315 42.6975 67.9792V66.5732H39.5005C38.9482 66.5732 38.5005 66.1255 38.5005 65.5732Z" fill="#2988FF"/>
<path fill-rule="evenodd" clip-rule="evenodd" d="M68 65.4001H27V63.6001H68V65.4001Z" fill="#2988FF"/>
<path fill-rule="evenodd" clip-rule="evenodd" d="M38.5005 53.5732C38.5005 53.021 38.9482 52.5732 39.5005 52.5732H43.6975C44.2498 52.5732 44.6975 53.021 44.6975 53.5732V54.9792H47.1775C47.7298 54.9792 48.1775 55.427 48.1775 55.9792V57.3862H50.6585C51.2108 57.3862 51.6585 57.834 51.6585 58.3862V59.7932H54.1385C54.6908 59.7932 55.1385 60.241 55.1385 60.7932V62.0002H58.1795C58.7318 62.0002 59.1795 62.448 59.1795 63.0002C59.1795 63.5525 58.7318 64.0002 58.1795 64.0002H54.1385C53.5862 64.0002 53.1385 63.5525 53.1385 63.0002V61.7932H50.6585C50.1062 61.7932 49.6585 61.3455 49.6585 60.7932V59.3862H47.1775C46.6252 59.3862 46.1775 58.9385 46.1775 58.3862V56.9792H43.6975C43.1452 56.9792 42.6975 56.5315 42.6975 55.9792V54.5732H39.5005C38.9482 54.5732 38.5005 54.1255 38.5005 53.5732Z" fill="#2988FF"/>
<path fill-rule="evenodd" clip-rule="evenodd" d="M68 53.4001H27V51.6001H68V53.4001Z" fill="#2988FF"/>
<path fill-rule="evenodd" clip-rule="evenodd" d="M38.5005 41.5732C38.5005 41.021 38.9482 40.5732 39.5005 40.5732H43.6975C44.2498 40.5732 44.6975 41.021 44.6975 41.5732V42.9792H47.1775C47.7298 42.9792 48.1775 43.427 48.1775 43.9792V45.3862H50.6585C51.2108 45.3862 51.6585 45.834 51.6585 46.3862V47.7932H54.1385C54.6908 47.7932 55.1385 48.241 55.1385 48.7932V50.0002H58.1795C58.7318 50.0002 59.1795 50.448 59.1795 51.0002C59.1795 51.5525 58.7318 52.0002 58.1795 52.0002H54.1385C53.5862 52.0002 53.1385 51.5525 53.1385 51.0002V49.7932H50.6585C50.1062 49.7932 49.6585 49.3455 49.6585 48.7932V47.3862H47.1775C46.6252 47.3862 46.1775 46.9385 46.1775 46.3862V44.9792H43.6975C43.1452 44.9792 42.6975 44.5315 42.6975 43.9792V42.5732H39.5005C38.9482 42.5732 38.5005 42.1255 38.5005 41.5732Z" fill="#2988FF"/>
<path fill-rule="evenodd" clip-rule="evenodd" d="M68 41.4001H27V39.6001H68V41.4001Z" fill="#2988FF"/>
<path fill-rule="evenodd" clip-rule="evenodd" d="M26.0498 27.0054C26.0498 25.9008 26.9452 25.0054 28.0498 25.0054H68.8498C69.9544 25.0054 70.8498 25.9008 70.8498 27.0054V78.0054C70.8498 79.1099 69.9544 80.0054 68.8498 80.0054H28.0498C26.9452 80.0054 26.0498 79.1099 26.0498 78.0054V27.0054ZM30.0498 29.0054V76.0054H66.8498V29.0054H30.0498Z" fill="#1C3553"/>
<path fill-rule="evenodd" clip-rule="evenodd" d="M70.9075 21.672C70.9075 20.964 70.3555 20.389 69.6735 20.389H40.8815C40.9145 19.24 40.9215 18.09 40.8855 16.94C40.8715 16.501 40.3805 16.171 39.7065 16.05C39.7005 16.049 39.6965 16.049 39.6895 16.048C39.6375 16.039 39.5855 16.03 39.5315 16.025C39.5285 16.024 39.5255 16.024 39.5225 16.023C39.4645 16.017 39.4075 16.012 39.3475 16.007H39.3415C39.2875 16.004 39.2325 16.002 39.1775 16.002C39.1695 16.001 39.1615 16.001 39.1525 16C39.1415 16 39.1325 16.001 39.1215 16.001C39.1055 16.001 39.0885 16 39.0695 16C39.0555 16.001 39.0435 16.002 39.0295 16.003C38.0615 16.023 37.3675 16.429 37.3415 17.034C37.3155 17.634 37.3355 18.236 37.3355 18.837C37.3355 19.355 37.3295 19.872 37.3365 20.389H35.4775C35.5105 19.24 35.5175 18.09 35.4815 16.94C35.4675 16.501 34.9765 16.171 34.3025 16.05C34.2965 16.049 34.2915 16.049 34.2855 16.048C34.2335 16.039 34.1815 16.03 34.1275 16.025C34.1245 16.024 34.1215 16.024 34.1185 16.023C34.0605 16.017 34.0035 16.012 33.9435 16.007H33.9375C33.8835 16.004 33.8285 16.002 33.7735 16.002C33.7655 16.001 33.7575 16.001 33.7485 16C33.7375 16 33.7285 16.001 33.7175 16.001C33.7005 16.001 33.6835 16 33.6655 16C33.6515 16.001 33.6395 16.002 33.6255 16.003C32.6575 16.023 31.9635 16.429 31.9375 17.034C31.9115 17.634 31.9315 18.236 31.9315 18.837C31.9315 19.355 31.9255 19.872 31.9325 20.389H27.2335C26.5525 20.389 25.9995 20.964 25.9995 21.672C25.9995 22.38 26.5525 22.955 27.2335 22.955H69.6735C70.3555 22.955 70.9075 22.38 70.9075 21.672Z" fill="#1C3553"/>
</svg>
