<svg width="96" height="96" viewBox="0 0 96 96" fill="none" xmlns="http://www.w3.org/2000/svg">
<path fill-rule="evenodd" clip-rule="evenodd" d="M20.7651 30.2651C21.8697 30.2651 22.7651 31.1606 22.7651 32.2651V72.2651C22.7651 73.3697 21.8697 74.2651 20.7651 74.2651C19.6606 74.2651 18.7651 73.3697 18.7651 72.2651V32.2651C18.7651 31.1606 19.6606 30.2651 20.7651 30.2651Z" fill="#2988FF"/>
<path fill-rule="evenodd" clip-rule="evenodd" d="M75.7651 30.2651C76.8697 30.2651 77.7651 31.1606 77.7651 32.2651V72.2651C77.7651 73.3697 76.8697 74.2651 75.7651 74.2651C74.6606 74.2651 73.7651 73.3697 73.7651 72.2651V32.2651C73.7651 31.1606 74.6606 30.2651 75.7651 30.2651Z" fill="#2988FF"/>
<path fill-rule="evenodd" clip-rule="evenodd" d="M19.2651 35.0651C19.2651 34.6233 19.6233 34.2651 20.0651 34.2651H74.4651C74.907 34.2651 75.2651 34.6233 75.2651 35.0651C75.2651 35.507 74.907 35.8651 74.4651 35.8651H20.0651C19.6233 35.8651 19.2651 35.507 19.2651 35.0651Z" fill="#2988FF"/>
<path fill-rule="evenodd" clip-rule="evenodd" d="M14 23C14 21.8954 14.8954 21 16 21H80.53C81.6346 21 82.53 21.8954 82.53 23V30.53C82.53 31.6346 81.6346 32.53 80.53 32.53H16C14.8954 32.53 14 31.6346 14 30.53V23ZM18 25V28.53H78.53V25H18Z" fill="#2988FF"/>
<path fill-rule="evenodd" clip-rule="evenodd" d="M63.9541 54.5005C63.9541 53.534 64.7376 52.7505 65.7041 52.7505H68.3731C69.3396 52.7505 70.1231 53.534 70.1231 54.5005C70.1231 55.467 69.3396 56.2505 68.3731 56.2505H65.7041C64.7376 56.2505 63.9541 55.467 63.9541 54.5005Z" fill="#1C3553"/>
<path fill-rule="evenodd" clip-rule="evenodd" d="M27.8237 54.5005C27.8237 53.534 28.6072 52.7505 29.5737 52.7505H32.2427C33.2092 52.7505 33.9927 53.534 33.9927 54.5005C33.9927 55.467 33.2092 56.2505 32.2427 56.2505H29.5737C28.6072 56.2505 27.8237 55.467 27.8237 54.5005Z" fill="#1C3553"/>
<path fill-rule="evenodd" clip-rule="evenodd" d="M39.0562 42.6219C40.5231 41.3615 42.3106 40.3887 44.3026 40.3887H51.5526C52.5191 40.3887 53.3026 41.1722 53.3026 42.1387C53.3026 43.1052 52.5191 43.8887 51.5526 43.8887H44.3026C43.4721 43.8887 42.4688 44.3042 41.3372 45.2765C40.2205 46.2361 39.1289 47.6134 38.1631 49.202C37.2025 50.782 36.4049 52.5075 35.8511 54.1095C35.2882 55.7377 35.0166 57.1248 35.0166 58.0517V70.2227C35.0166 71.1892 34.2331 71.9727 33.2666 71.9727C32.3001 71.9727 31.5166 71.1892 31.5166 70.2227V58.0517C31.5166 56.5756 31.9188 54.772 32.5432 52.966C33.1766 51.1337 34.0796 49.1814 35.1724 47.3838C36.2599 45.595 37.5745 43.8951 39.0562 42.6219Z" fill="#1C3553"/>
<path fill-rule="evenodd" clip-rule="evenodd" d="M44.6445 42.1387C44.6445 41.1722 45.428 40.3887 46.3945 40.3887H53.6445C55.6365 40.3887 57.424 41.3615 58.8909 42.6219C60.3726 43.8951 61.6872 45.595 62.7747 47.3838C63.8676 49.1814 64.7705 51.1337 65.4039 52.966C66.0283 54.772 66.4305 56.5756 66.4305 58.0517V70.2227C66.4305 71.1892 65.647 71.9727 64.6805 71.9727C63.714 71.9727 62.9305 71.1892 62.9305 70.2227V58.0517C62.9305 57.1248 62.6589 55.7377 62.096 54.1095C61.5422 52.5075 60.7446 50.782 59.7841 49.202C58.8182 47.6134 57.7266 46.2361 56.6099 45.2765C55.4783 44.3042 54.475 43.8887 53.6445 43.8887H46.3945C45.428 43.8887 44.6445 43.1052 44.6445 42.1387Z" fill="#1C3553"/>
<path fill-rule="evenodd" clip-rule="evenodd" d="M32.6602 66.2451C32.6602 65.2786 33.4437 64.4951 34.4102 64.4951H63.5372C64.5037 64.4951 65.2872 65.2786 65.2872 66.2451C65.2872 67.2116 64.5037 67.9951 63.5372 67.9951H34.4102C33.4437 67.9951 32.6602 67.2116 32.6602 66.2451Z" fill="#1C3553"/>
<path fill-rule="evenodd" clip-rule="evenodd" d="M34.8315 52.8669C34.8315 52.4251 35.1897 52.0669 35.6315 52.0669H62.3155C62.7574 52.0669 63.1155 52.4251 63.1155 52.8669C63.1155 53.3087 62.7574 53.6669 62.3155 53.6669H35.6315C35.1897 53.6669 34.8315 53.3087 34.8315 52.8669Z" fill="#1C3553"/>
<path fill-rule="evenodd" clip-rule="evenodd" d="M42.2021 61.4775C42.2021 60.511 42.9857 59.7275 43.9521 59.7275H53.9951C54.9616 59.7275 55.7451 60.511 55.7451 61.4775C55.7451 62.444 54.9616 63.2275 53.9951 63.2275H43.9521C42.9857 63.2275 42.2021 62.444 42.2021 61.4775Z" fill="#1C3553"/>
<path fill-rule="evenodd" clip-rule="evenodd" d="M38.7227 62.9346C39.5177 62.9346 40.1617 62.2906 40.1617 61.4956C40.1617 60.7016 39.5177 60.0576 38.7227 60.0576C37.9277 60.0576 37.2837 60.7016 37.2837 61.4956C37.2837 62.2906 37.9277 62.9346 38.7227 62.9346Z" fill="#1C3553"/>
<path fill-rule="evenodd" clip-rule="evenodd" d="M59.2246 62.9346C60.0196 62.9346 60.6636 62.2906 60.6636 61.4956C60.6636 60.7016 60.0196 60.0576 59.2246 60.0576C58.4296 60.0576 57.7856 60.7016 57.7856 61.4956C57.7856 62.2906 58.4296 62.9346 59.2246 62.9346Z" fill="#1C3553"/>
</svg>
