<svg width="96" height="96" viewBox="0 0 96 96" fill="none" xmlns="http://www.w3.org/2000/svg">
<path d="M47.9999 45.1721C50.0387 45.1721 51.6698 43.5625 51.6698 41.5505C51.6698 39.5385 50.0387 37.9289 47.9999 37.9289C45.961 37.9289 44.33 39.5385 44.33 41.5505C44.33 43.5625 45.961 45.1721 47.9999 45.1721Z" fill="#2988FF"/>
<path d="M38.6212 50.0009C38.6212 50.2021 38.2135 55.2321 38.4173 56.8417V64.2862C38.4173 65.091 39.029 65.8958 40.0484 65.8958C41.0678 65.8958 41.6795 65.091 41.6795 64.2862V53.8237C41.6795 52.0129 42.2911 51.6105 43.1067 51.8117V53.4213V70.121C43.1067 70.5234 43.1067 71.127 43.1067 71.3282C43.1067 74.3462 43.1067 77.5654 43.1067 80.5834C43.1067 80.9858 43.1066 81.187 43.3105 81.5894C43.3105 81.7906 43.5144 81.9918 43.7183 82.193L43.9222 82.3942C44.1261 82.5954 44.3299 82.5954 44.3299 82.7966C44.7377 82.9978 45.3494 82.9978 45.7571 82.7966C45.7571 82.7966 45.7571 82.7966 45.961 82.7966L46.1649 82.5954C46.9804 82.193 47.1843 81.187 47.1843 80.181C47.1843 75.3522 47.1843 70.7246 47.1843 65.8958V64.2862H48.8154V66.097C48.8154 70.9258 48.8154 75.5534 48.8154 80.3822C48.8154 81.3882 49.0193 82.193 49.8348 82.7966C49.8348 82.7966 50.0387 82.7966 50.0387 82.9978C50.0387 82.9978 50.0387 82.9978 50.2426 82.9978C50.8542 83.199 51.262 83.199 51.6697 82.9978C51.8736 82.9978 52.0775 82.7966 52.0775 82.5954L52.2814 82.3942C52.4853 82.193 52.4853 81.9918 52.6891 81.7906C52.6891 81.5894 52.893 81.187 52.893 80.7846C52.893 77.7666 52.893 74.5474 52.893 71.5294C52.893 71.3282 52.893 70.7246 52.893 70.3222V53.6225V52.0129C53.5047 51.8117 54.3202 52.2141 54.3202 54.0249V64.2862C54.3202 65.091 54.9319 65.8958 55.9513 65.8958C56.7668 65.8958 57.5823 65.091 57.5823 64.2862V56.6405C57.5823 55.0309 57.3785 50.0009 57.3785 49.7997C56.5629 46.9829 54.9319 46.1781 51.8736 46.1781C51.6697 46.1781 51.4659 46.1781 51.4659 46.1781C50.2426 46.1781 49.2231 46.1781 47.9998 46.1781C46.7765 46.1781 45.7571 46.1781 44.5338 46.1781C44.3299 46.1781 44.1261 46.1781 44.1261 46.1781C41.2717 46.3793 39.4368 47.1841 38.6212 50.0009Z" fill="#2988FF"/>
<path d="M79.1942 46.3793C80.0097 44.3673 78.5825 42.9589 78.1748 42.5565C76.7476 41.1481 69 33.9049 62.068 27.6676L50.8544 17.2052C49.835 16.1992 48.8156 15.998 48.0001 15.998C46.9807 15.998 45.9613 16.4004 45.1457 17.2052L32.7089 28.6737C26.1846 34.7097 19.2526 41.1481 17.8254 42.5565C17.4176 42.9589 15.9905 44.3673 16.806 46.3793C17.2137 47.1841 18.0293 48.3913 20.272 48.3913H25.3691V73.5414C25.3691 76.157 26.5924 77.3642 29.2428 77.3642H37.8059C39.0292 77.3642 39.8448 76.5594 39.8448 75.3522C39.8448 74.145 39.0292 73.3402 37.8059 73.3402H29.2428V47.9889C29.2428 45.5745 27.8157 44.3673 25.573 44.3673H21.9031C24.5535 41.9529 30.2623 36.7217 35.5632 31.6917L47.7962 20.022L59.2136 30.6857C64.9224 35.9169 71.2427 41.7517 74.0971 44.3673H70.4272C67.9806 44.3673 66.7573 45.7757 66.7573 47.9889V73.3402H58.3981C57.1748 73.3402 56.3593 74.145 56.3593 75.3522C56.3593 76.5594 57.1748 77.3642 58.3981 77.3642H66.9612C69.6117 77.3642 70.835 76.157 70.835 73.5414V48.3913H75.9321C77.9709 48.3913 78.7864 47.3853 79.1942 46.3793Z" fill="#1C3553"/>
</svg>
