<svg width="96" height="96" viewBox="0 0 96 96" fill="none" xmlns="http://www.w3.org/2000/svg">
<path d="M89.1001 64.0984C87.7001 64.0984 86.3001 63.9984 85.0001 63.9984C84.5001 63.9984 84.3001 63.6984 84.2001 63.2984C83.8001 61.6984 83.3001 60.0984 82.8001 58.4984C82.3001 56.9984 81.5001 56.3984 79.9001 56.3984C78.6001 56.3984 77.3001 56.3984 76.0001 56.3984C74.1001 56.3984 73.3001 56.9984 72.8001 58.7984C72.6001 59.5984 72.4001 60.2984 72.1001 60.9984C71.7001 60.0984 71.4001 59.1984 71.1001 58.2984C70.7001 56.9984 69.8001 56.3984 68.4001 56.3984C67.3001 56.3984 66.2001 56.3984 65.1001 56.3984C63.8001 56.3984 62.9001 56.9984 62.5001 58.1984C62.3001 58.7984 62.1001 59.2984 62.0001 59.8984C61.6001 61.1984 61.2001 62.4984 60.9001 63.8984C60.8001 64.3984 60.9001 64.8984 61.4001 64.9984C62.0001 65.1984 62.3001 64.7984 62.5001 64.2984C62.5001 64.1984 62.5001 64.0984 62.6001 63.9984C63.0001 62.5984 63.4001 61.0984 63.8001 59.6984C63.9001 59.1984 64.1001 58.9984 64.7001 59.2984C64.0001 62.2984 63.3001 65.2984 62.5001 68.3984H64.5001V69.2984C64.5001 71.0984 64.5001 72.7984 64.5001 74.5984C64.5001 75.4984 64.8001 75.8984 65.5001 75.8984C66.1001 75.8984 66.5001 75.3984 66.5001 74.5984C66.5001 73.6984 66.5001 72.6984 66.5001 71.6984V68.4984H67.3001V69.2984C67.3001 71.0984 67.3001 72.7984 67.3001 74.5984C67.3001 75.4984 67.7001 75.9984 68.3001 75.9984C68.9001 75.9984 69.3001 75.4984 69.3001 74.6984C69.3001 73.4984 69.3001 72.2984 69.3001 71.1984V68.5984H71.2001C70.5001 65.4984 69.8001 62.4984 69.0001 59.4984C69.5001 59.2984 69.7001 59.3984 69.8001 59.8984C70.2001 61.3984 70.7001 62.8984 71.1001 64.3984C71.2001 64.8984 71.4001 65.2984 72.0001 65.2984C72.6001 65.2984 72.8001 64.8984 73.0001 64.3984C73.4001 62.8984 73.9001 61.3984 74.3001 59.8984C74.4001 59.4984 74.6001 59.2984 75.1001 59.4984V60.2984V69.8984C75.1001 71.4984 75.1001 73.1984 75.1001 74.7984C75.1001 75.7984 75.8001 76.2984 76.6001 76.0984C77.3001 75.8984 77.4001 75.2984 77.4001 74.6984C77.4001 72.1984 77.4001 69.5984 77.4001 67.0984V65.9984H78.2001V69.8984C78.2001 71.4984 78.2001 72.9984 78.2001 74.5984C78.2001 75.4984 78.6001 75.9984 79.3001 75.9984C80.1001 75.9984 80.5001 75.4984 80.5001 74.5984C80.5001 74.3984 80.5001 74.1984 80.5001 73.9984V60.1984V59.3984C81.0001 59.1984 81.3001 59.2984 81.4001 59.7984C81.8001 61.1984 82.2001 62.5984 82.5001 63.9984C82.7001 64.6984 83.0001 65.0984 83.7001 65.1984C84.3001 65.2984 84.8001 65.4984 85.4001 65.6984V66.5984C85.4001 69.3984 85.4001 72.1984 85.4001 74.9984C85.4001 75.5984 85.5001 76.0984 86.2001 76.0984C86.9001 76.0984 87.0001 75.4984 87.0001 74.9984C87.0001 73.7984 87.0001 72.6984 87.0001 71.4984C87.0001 71.1984 87.2001 70.4984 87.3001 70.4984C87.9001 70.5984 87.6001 71.0984 87.6001 71.3984C87.6001 72.5984 87.6001 73.7984 87.6001 74.9984C87.6001 75.4984 87.7001 75.9984 88.4001 75.9984C89.1001 75.9984 89.2001 75.5984 89.2001 74.9984C89.2001 74.7984 89.2001 74.4984 89.2001 74.2984C89.2001 71.7984 89.2001 69.2984 89.2001 66.7984C89.2001 66.5984 89.4001 66.3984 89.5001 66.1984C89.6001 66.3984 89.8001 66.5984 89.8001 66.6984C89.8001 67.4984 89.8001 68.1984 89.8001 68.9984C89.8001 69.3984 89.9001 69.7984 90.4001 69.7984C90.9001 69.7984 91.0001 69.3984 91.0001 68.9984C91.0001 67.9984 91.0001 66.9984 91.0001 66.0984C91.2001 64.7984 90.5001 64.0984 89.1001 64.0984Z" fill="#2988FF"/>
<path d="M64.8999 53.8984C64.8999 54.9984 65.7999 55.7984 66.8999 55.7984C67.9999 55.7984 68.8999 54.8984 68.8999 53.7984C68.8999 52.6984 67.9999 51.8984 66.8999 51.8984C65.8999 51.8984 64.8999 52.8984 64.8999 53.8984Z" fill="#2988FF"/>
<path d="M75.6001 53.8982C75.6001 54.9982 76.5001 55.7982 77.6001 55.7982C78.7001 55.7982 79.6001 54.8982 79.5001 53.7982C79.5001 52.6982 78.6001 51.7982 77.5001 51.8982C76.5001 51.9982 75.6001 52.8982 75.6001 53.8982Z" fill="#2988FF"/>
<path d="M88.7 61.9986C88.7 61.2986 88.1 60.6986 87.4 60.5986C86.7 60.5986 86 61.1986 86 61.9986C86 62.7986 86.6 63.3986 87.4 63.3986C88.2 63.3986 88.7 62.7986 88.7 61.9986Z" fill="#2988FF"/>
<path d="M5.29981 47.6982C5.69981 48.5982 6.49981 49.5982 8.49981 49.5982C10.0998 49.5982 11.5998 49.5982 13.1998 49.5982V73.1982C13.1998 75.6982 14.3998 76.8982 16.8998 76.8982H33.7998H33.8998H52.2998C54.7998 76.8982 55.9998 75.6982 55.9998 73.1982V49.6982C57.5998 49.6982 59.0998 49.6982 60.6998 49.6982C62.6998 49.6982 63.5998 48.6982 63.8998 47.7982C64.4998 46.4982 64.0998 45.2982 62.8998 44.0982C60.4998 41.5982 39.8998 22.2982 37.5998 20.0982C36.6998 19.1982 35.6998 18.8982 34.6998 18.9982C33.6998 18.7982 32.6998 19.1982 31.7998 20.0982L23.2998 27.9982C16.4998 34.3982 7.79981 42.4982 6.29981 43.9982C4.99981 45.0982 4.69981 46.3982 5.29981 47.6982ZM25.9998 30.8982L34.3998 22.9982C34.4998 22.9982 34.4998 22.9982 34.5998 22.9982C34.6998 22.9982 34.6998 22.9982 34.7998 22.9982C36.8998 24.8982 53.4998 40.4982 58.7998 45.4982C57.6998 45.4982 56.6998 45.4982 55.5998 45.4982C53.2998 45.4982 51.9998 46.7982 51.9998 48.9982V72.6982H35.3998H35.2998H17.1998V48.9982C17.1998 46.7982 15.8998 45.4982 13.6998 45.3982C12.5998 45.3982 11.5998 45.3982 10.4998 45.3982C13.4998 42.6982 20.3998 36.1982 25.9998 30.8982Z" fill="#1C3553"/>
<path d="M40.0999 60.6984H43.8999C44.2999 60.6984 44.5999 60.3984 44.5999 59.9984V53.0984C44.5999 52.6984 44.2999 52.3984 43.8999 52.3984H40.0999C39.6999 52.3984 39.3999 52.6984 39.3999 53.0984V59.9984C39.3999 60.2984 39.6999 60.6984 40.0999 60.6984ZM40.8999 53.7984H43.1999V59.1984H40.8999V53.7984Z" fill="#1C3553"/>
<path d="M25.0998 60.6984H28.8998C29.2998 60.6984 29.5998 60.3984 29.5998 59.9984V53.0984C29.5998 52.6984 29.2998 52.3984 28.8998 52.3984H25.0998C24.6998 52.3984 24.3998 52.6984 24.3998 53.0984V59.9984C24.2998 60.2984 24.6998 60.6984 25.0998 60.6984ZM25.7998 53.7984H28.0998V59.1984H25.7998V53.7984Z" fill="#1C3553"/>
</svg>
