<svg width="96" height="96" viewBox="0 0 96 96" fill="none" xmlns="http://www.w3.org/2000/svg">
<path d="M66.9994 52.9987C68.0994 52.9987 68.9994 52.0987 68.9994 51.0987C68.9994 50.0987 68.0994 49.1987 67.0994 49.1987C65.9994 49.1987 65.0994 50.0987 65.0994 51.1987C65.0994 52.0987 65.9994 52.9987 66.9994 52.9987Z" fill="#2988FF"/>
<path d="M88.899 61.0985C88.399 61.0985 87.799 61.0985 87.299 61.0985C86.499 61.0985 85.699 61.0985 84.799 61.0985C84.299 61.0985 84.099 60.7985 83.999 60.3985C83.599 58.7985 83.099 57.2985 82.699 55.6986C82.199 54.1986 81.3991 53.5986 79.8991 53.5986C78.5991 53.5986 77.2991 53.5986 75.9991 53.5986C74.0991 53.5986 73.3991 54.1986 72.8991 55.9986C72.7991 56.4985 72.5991 56.8985 72.4991 57.3985C72.3991 57.6985 72.2992 57.8985 72.2992 58.1985C71.9992 57.5985 71.7992 56.8985 71.5992 56.2985C71.4992 55.9986 71.3992 55.7986 71.2992 55.4986C70.8992 54.1986 69.9992 53.5986 68.6992 53.5986C67.5992 53.5986 66.4992 53.5986 65.3992 53.5986C64.0992 53.5986 63.2992 54.1986 62.7992 55.3986C62.5992 55.8986 62.4993 56.2985 62.3993 56.7985C62.3993 56.8985 62.2993 56.9985 62.2993 57.0985V57.2985C61.8993 58.4985 61.5993 59.7985 61.1993 60.9985C61.0993 61.4985 61.1993 61.9985 61.6993 62.0985C62.2993 62.2985 62.5992 61.8985 62.7992 61.3985C62.7992 61.2985 62.7992 61.2985 62.7992 61.1985V61.0985C62.8992 60.6985 62.9992 60.2985 63.1992 59.8985C63.4992 58.8985 63.7992 57.8985 64.0992 56.8985C64.1992 56.3986 64.3992 56.1986 64.9992 56.4985C64.2992 59.4985 63.5992 62.3985 62.7992 65.4985H64.7992V66.3984C64.7992 67.0984 64.7992 67.6984 64.7992 68.3984C64.7992 69.4984 64.7992 70.4984 64.7992 71.5984C64.7992 72.4984 65.0992 72.8984 65.7992 72.8984C66.3992 72.8984 66.7992 72.3984 66.7992 71.5984C66.7992 70.9984 66.7992 70.2984 66.7992 69.6984C66.7992 69.3984 66.7992 69.0984 66.7992 68.7984V65.5985H67.5992V66.3984C67.5992 66.8984 67.5992 67.3984 67.5992 67.8984C67.5992 69.0984 67.5992 70.3984 67.5992 71.5984C67.5992 72.4984 67.8992 72.9984 68.5992 72.9984C69.1992 72.9984 69.4992 72.4984 69.4992 71.6984C69.4992 70.8984 69.4992 69.9984 69.4992 69.1984C69.4992 68.8984 69.4992 68.4984 69.4992 68.1984V65.5985H71.3992L70.8992 63.2985C70.3992 61.0985 69.7992 58.8985 69.2992 56.6985C69.7992 56.4985 69.9992 56.5985 70.0992 57.0985C70.2992 57.9985 70.5992 58.7985 70.7992 59.6985C70.9992 60.2985 71.1992 60.9985 71.2992 61.5985C71.3992 62.0985 71.5992 62.3985 72.1991 62.4985C72.7991 62.4985 72.9991 62.0985 73.1991 61.5985C73.3991 60.9985 73.5991 60.3985 73.6991 59.7985C73.9991 58.8985 74.1991 57.9985 74.3991 57.1985C74.4991 56.6985 74.6991 56.5985 75.1991 56.7985V57.5985V66.9984C75.1991 67.4984 75.1991 67.8984 75.1991 68.3984C75.1991 69.4984 75.1991 70.6984 75.1991 71.7984C75.1991 72.6984 75.8991 73.2984 76.6991 72.9984C77.3991 72.7984 77.4991 72.2984 77.4991 71.6984C77.4991 69.9984 77.4991 68.3984 77.4991 66.6984C77.4991 65.8985 77.4991 64.9985 77.4991 64.1985V63.2985H78.2991V67.0984C78.2991 67.4984 78.2991 67.8984 78.2991 68.2984C78.2991 69.3984 78.2991 70.4984 78.2991 71.6984C78.2991 72.5984 78.6991 73.0984 79.3991 73.0984C80.0991 73.0984 80.4991 72.6984 80.5991 71.6984C80.5991 71.5984 80.5991 71.3984 80.5991 71.2984V71.1984V71.0984V57.2985V56.4985C81.0991 56.2985 81.3991 56.3986 81.4991 56.8985C81.6991 57.5985 81.8991 58.2985 82.099 58.9985C82.299 59.6985 82.499 60.3985 82.699 60.9985C82.899 61.5985 83.199 61.9985 83.899 62.1985C84.299 62.2985 84.599 62.3985 84.999 62.4985C85.199 62.5985 85.399 62.5985 85.499 62.6985V63.5985C85.499 64.3985 85.499 65.0985 85.499 65.8985C85.499 67.8984 85.499 69.8984 85.499 71.8984C85.499 72.4984 85.599 72.9984 86.299 72.9984C86.999 72.9984 87.099 72.4984 87.099 71.8984C87.099 71.5984 87.099 71.1984 87.099 70.8984C87.099 70.0984 87.099 69.2984 87.099 68.4984C87.099 68.1984 87.299 67.4984 87.399 67.5984C87.899 67.6984 87.799 67.9984 87.699 68.2984C87.699 68.3984 87.699 68.4984 87.699 68.5984C87.699 69.5984 87.699 70.4984 87.699 71.4984C87.699 71.6984 87.699 71.9984 87.699 72.1984C87.699 72.6984 87.799 73.1984 88.499 73.1984C89.199 73.1984 89.299 72.7984 89.299 72.1984C89.299 72.0984 89.299 71.8984 89.299 71.7984V71.6984V71.5984C89.299 71.0984 89.299 70.5984 89.299 70.0984C89.299 68.0984 89.299 66.1984 89.299 64.1985C89.299 64.0985 89.399 63.9985 89.499 63.7985C89.499 63.6985 89.599 63.6985 89.599 63.5985C89.599 63.6985 89.699 63.6985 89.699 63.7985C89.799 63.8985 89.899 63.9985 89.899 64.1985C89.899 64.7985 89.899 65.2985 89.899 65.7985C89.899 65.9985 89.899 66.1985 89.899 66.3984C89.899 66.7984 89.999 67.1984 90.499 67.1984C90.999 67.1984 91.099 66.7984 91.099 66.3984C91.099 66.0985 91.099 65.8985 91.099 65.5985C91.099 64.8985 91.099 64.1985 91.099 63.4985C90.899 61.7985 90.299 61.0985 88.899 61.0985Z" fill="#2988FF"/>
<path d="M88.4989 59.0982C88.4989 58.3982 87.8989 57.7982 87.1989 57.7982C86.4989 57.7982 85.7989 58.3982 85.7989 59.0982C85.7989 59.7982 86.3989 60.3982 87.1989 60.3982C87.9989 60.3982 88.4989 59.7982 88.4989 59.0982Z" fill="#2988FF"/>
<path d="M77.4992 52.9987C78.5992 52.9987 79.3992 52.0987 79.3992 51.0987C79.3992 50.0987 78.4992 49.1987 77.3992 49.1987C76.2992 49.1987 75.4992 50.0987 75.4992 51.1987C75.5992 52.1987 76.4992 52.9987 77.4992 52.9987Z" fill="#2988FF"/>
<path d="M21.2999 67.7987C21.2999 66.9987 20.5999 66.3987 19.8999 66.3987C19.1999 66.3987 18.5999 66.9987 18.5999 67.7987C18.5999 68.5987 19.1999 69.1987 19.9999 69.1987C20.6999 69.1987 21.2999 68.4987 21.2999 67.7987Z" fill="#2988FF"/>
<path d="M28.1994 58.0985C27.0994 58.0985 26.1994 58.9985 26.1994 60.0985C26.1994 61.1985 27.0994 61.9985 28.1994 61.9985C29.2994 61.9985 30.1994 61.0985 30.1994 59.9985C30.0994 58.9985 29.1994 58.0985 28.1994 58.0985Z" fill="#2988FF"/>
<path d="M36.7994 60.0988C36.7994 61.1988 37.6994 61.9988 38.7994 61.9988C39.8994 61.9988 40.7994 61.0988 40.6994 59.9988C40.6994 58.8988 39.7994 57.9988 38.6994 58.0988C37.6994 58.0988 36.7994 58.9988 36.7994 60.0988Z" fill="#2988FF"/>
<path d="M47.2993 68.1981C47.2993 68.9981 47.8993 69.5981 48.6993 69.5981C49.4993 69.5981 50.0993 68.9981 50.0993 68.1981C50.0993 67.4981 49.4993 66.8981 48.7993 66.7981C47.8993 66.7981 47.2993 67.4981 47.2993 68.1981Z" fill="#2988FF"/>
<path d="M31.0996 65.8985C31.4996 67.3985 31.9996 68.8985 32.3996 70.4985C32.4996 70.9985 32.6996 71.3985 33.2996 71.3985C33.8996 71.3985 34.0996 70.9985 34.2996 70.4985C34.6995 68.9985 35.1995 67.4985 35.5995 65.8985C35.6995 65.3986 35.8995 65.2986 36.3995 65.4986V66.2985V75.8984C36.3995 77.4984 36.3995 79.1984 36.3995 80.7984C36.3995 81.7984 37.0995 82.2984 37.8995 82.0984C38.5995 81.8984 38.6995 81.2984 38.6995 80.6984C38.6995 78.1984 38.6995 75.5984 38.6995 73.0985V72.1985H39.4995V76.0984C39.4995 77.6984 39.4995 79.1984 39.4995 80.7984C39.4995 81.6984 39.8995 82.1984 40.5995 82.1984C41.3995 82.1984 41.7995 81.6984 41.7995 80.7984C41.7995 80.5984 41.7995 80.3984 41.7995 80.1984V66.3985V65.5985C42.2995 65.3986 42.5995 65.4986 42.6995 65.9985C43.0995 67.3985 43.4995 68.7985 43.7995 70.1985C43.9995 70.8985 44.2995 71.2985 44.9994 71.3985C45.5994 71.4985 46.0994 71.6985 46.6994 71.8985V72.7985C46.6994 75.5984 46.6994 78.3984 46.6994 81.1984C46.6994 81.7984 46.7994 82.2984 47.4994 82.2984C48.1994 82.2984 48.2994 81.6984 48.2994 81.1984C48.2994 79.9984 48.2994 78.8984 48.2994 77.6984C48.2994 77.4984 48.3994 77.2984 48.3994 77.0984C48.4994 76.8984 48.4994 76.6984 48.5994 76.6984C49.1994 76.7984 48.8994 77.2984 48.8994 77.5984C48.8994 78.7984 48.8994 79.9984 48.8994 81.1984C48.8994 81.6984 48.9994 82.1984 49.6994 82.1984C50.3994 82.1984 50.4994 81.7984 50.4994 81.1984C50.4994 80.9984 50.4994 80.7984 50.4994 80.4984C50.4994 77.9984 50.4994 75.4984 50.4994 72.9985C50.4994 72.7985 50.6994 72.5985 50.7994 72.3985C50.8994 72.5985 51.0994 72.7985 51.0994 72.9985C51.0994 73.7985 51.0994 74.4985 51.0994 75.2985C51.0994 75.6984 51.1994 76.0984 51.6994 76.0984C52.1994 76.0984 52.2994 75.6984 52.2994 75.2985C52.2994 74.2985 52.2994 73.2985 52.2994 72.3985C52.2994 70.9985 51.5994 70.3985 50.2994 70.3985C48.8994 70.3985 47.4994 70.2985 46.1994 70.2985C45.6994 70.2985 45.4994 69.9985 45.3994 69.5985C44.9994 67.9985 44.4995 66.3985 43.9995 64.7986C43.4995 63.2986 42.6995 62.6986 41.0995 62.6986C39.7995 62.6986 38.4995 62.6986 37.1995 62.6986C35.2995 62.6986 34.4996 63.2986 33.9996 65.0986C33.7996 65.8985 33.5996 66.5985 33.2996 67.2985C32.8996 66.3985 32.5996 65.4986 32.2996 64.5986C31.8996 63.2986 30.9996 62.6986 29.5996 62.6986C28.4996 62.6986 27.3996 62.6986 26.2996 62.6986C24.9996 62.6986 24.0997 63.2986 23.6997 64.4986C23.4997 65.0986 23.2997 65.5986 23.1997 66.1985C22.8997 67.2985 22.5997 68.3985 22.2997 69.3985C22.1997 69.6985 21.9997 69.7985 21.5997 69.7985C21.4997 69.7985 21.2997 69.7985 21.1997 69.7985C21.1997 69.7985 19.8997 69.8985 19.1997 69.8985C18.3997 69.8985 17.7997 70.2985 17.4997 71.0985C17.3997 71.4985 17.2997 71.7985 17.1997 72.1985C16.9997 73.0985 16.6997 73.8985 16.4997 74.6985C16.3997 74.9985 16.4997 75.2985 16.7997 75.3985C17.1997 75.4985 17.3997 75.2985 17.4997 74.9985C17.4997 74.8985 17.4997 74.8985 17.4997 74.7985C17.7997 73.8985 17.9997 72.9985 18.2997 71.9985C18.3997 71.6985 18.4997 71.4985 18.8997 71.6985C18.3997 73.5985 17.9997 75.4984 17.4997 77.4984H18.7997V78.0984C18.7997 79.1984 18.7997 80.2984 18.7997 81.4984C18.7997 82.0984 18.9997 82.2984 19.3997 82.2984C19.7997 82.2984 19.9997 81.9984 19.9997 81.3984C19.9997 80.7984 19.9997 80.1984 19.9997 79.5984V77.4984H20.4997V77.9984C20.4997 79.0984 20.4997 80.1984 20.4997 81.3984C20.4997 81.9984 20.6997 82.2984 21.0997 82.2984C21.4997 82.2984 21.6997 81.9984 21.6997 81.3984C21.6997 80.5984 21.6997 79.8984 21.6997 79.1984V77.4984H22.8997C22.3997 75.4984 21.6997 71.4985 21.6997 71.1985C21.9997 71.0985 22.3997 70.9985 22.6997 70.8985C23.3997 70.6985 23.6997 70.3985 23.8997 69.6985C23.9997 69.3985 24.0997 69.0985 24.1997 68.6985C24.4997 67.7985 24.6997 66.7985 24.9996 65.8985C25.0996 65.3986 25.2996 65.1986 25.8996 65.4986C25.1996 68.4985 24.4997 71.4985 23.6997 74.5985H25.6996V75.4984C25.6996 77.2984 25.6996 78.9984 25.6996 80.7984C25.6996 81.6984 25.9996 82.0984 26.6996 82.0984C27.2996 82.0984 27.6996 81.5984 27.6996 80.7984C27.6996 79.7984 27.6996 78.8984 27.6996 77.8984V74.6985H28.4996V75.4984C28.4996 77.2984 28.4996 78.9984 28.4996 80.7984C28.4996 81.6984 28.8996 82.1984 29.4996 82.1984C30.0996 82.1984 30.4996 81.6984 30.4996 80.8984C30.4996 79.6984 30.4996 78.4984 30.4996 77.2984V74.6985H32.3996C31.6996 71.5985 30.8996 68.5985 30.1996 65.5985C30.7996 65.3986 30.9996 65.4986 31.0996 65.8985Z" fill="#2988FF"/>
<path d="M20.4 45.8989C20 45.8989 19.7 46.1989 19.7 46.5989V52.7989C19.7 53.1989 20 53.4989 20.4 53.4989H23.8C24.1999 53.4989 24.4999 53.1989 24.4999 52.7989V46.5989C24.4999 46.1989 24.1999 45.8989 23.8 45.8989H20.4ZM23 52.0989H21.1V47.3989H23V52.0989Z" fill="#1C3553"/>
<path d="M48.5995 53.4989C48.9995 53.4989 49.2995 53.1989 49.2995 52.7989V46.5989C49.2995 46.1989 48.9995 45.8989 48.5995 45.8989H45.1995C44.7995 45.8989 44.4995 46.1989 44.4995 46.5989V52.7989C44.4995 53.1989 44.7995 53.4989 45.1995 53.4989H48.5995ZM45.9995 47.3989H47.8995V52.0989H45.9995V47.3989Z" fill="#1C3553"/>
<path d="M32.0998 52.7989C32.0998 53.1989 32.3998 53.4989 32.7998 53.4989H36.1997C36.5997 53.4989 36.8997 53.1989 36.8997 52.7989V46.5989C36.8997 46.1989 36.5997 45.8989 36.1997 45.8989H32.7998C32.3998 45.8989 32.0998 46.1989 32.0998 46.5989V52.7989ZM33.5998 47.3989H35.4997V52.0989H33.5998V47.3989Z" fill="#1C3553"/>
<path d="M32.7998 40.1992H36.1997C36.5997 40.1992 36.8997 39.8992 36.8997 39.4992V33.2993C36.8997 32.8993 36.5997 32.5993 36.1997 32.5993H32.7998C32.3998 32.5993 32.0998 32.8993 32.0998 33.2993V39.4992C32.0998 39.8992 32.3998 40.1992 32.7998 40.1992ZM33.5998 33.9993H35.4997V38.6992H33.5998V33.9993Z" fill="#1C3553"/>
<path d="M5.70017 45.5989C7.00015 45.5989 7.70015 45.5989 8.60014 45.5989H9.70012V70.5987C9.70012 73.2987 11.0001 74.4986 13.6001 74.4986C14.7001 74.4986 15.6001 73.5986 15.6001 72.4987C15.6001 71.3987 14.7001 70.4987 13.7001 70.4987V45.2989C13.7001 42.899 12.4001 41.599 10.0001 41.599H8.70013C8.20014 41.599 7.80014 41.599 7.30015 41.599C11.5001 37.699 23.8 26.0991 30.3999 19.8992L34.3999 16.0992C34.3999 16.0992 34.3999 16.0992 34.4999 15.9992H34.5999C34.5999 15.9992 34.5999 15.9992 34.6999 16.0992L40.2998 21.3992C47.0997 27.7991 57.9996 37.999 61.7996 41.599C61.2996 41.599 60.8996 41.599 60.3996 41.599H58.9996C56.5996 41.599 55.2997 42.899 55.2997 45.2989V70.4987C54.1997 70.4987 53.3997 71.3987 53.3997 72.4987C53.3997 73.5986 54.2997 74.4986 55.3997 74.4986C58.0996 74.4986 59.2996 73.2987 59.2996 70.5987V45.5989H60.3996C61.2996 45.5989 61.9996 45.5989 63.2996 45.5989C65.3996 45.5989 66.2995 44.4989 66.6995 43.599C67.5995 41.599 66.0995 40.199 65.5996 39.799C63.4996 37.899 50.5997 25.7991 42.8998 18.4992L37.2998 13.1993C36.9998 12.7993 35.8999 11.8993 34.4999 11.9993C32.9999 11.8993 31.9999 12.7993 31.5999 13.1993L27.5999 16.9992C20.2 23.8992 5.50017 37.599 3.30019 39.699C2.8002 40.199 1.40021 41.499 2.2002 43.499C2.7002 44.4989 3.60019 45.5989 5.70017 45.5989Z" fill="#1C3553"/>
</svg>
