<svg width="96" height="96" viewBox="0 0 96 96" fill="none" xmlns="http://www.w3.org/2000/svg">
<path fill-rule="evenodd" clip-rule="evenodd" d="M18.0358 30.6409C18.5718 30.0235 19.5199 29.3171 20.9092 29.3171H74.313C75.7023 29.3171 76.6504 30.0235 77.1864 30.6409C77.4482 30.9425 77.6277 31.237 77.7431 31.456C77.8019 31.5676 77.8471 31.6654 77.8804 31.7429C77.8971 31.7818 77.911 31.8161 77.9223 31.8449L77.9373 31.8842L77.9434 31.9008L77.9462 31.9083L77.9474 31.9118C77.9475 31.9122 77.9483 31.9142 77.8433 31.952L77.9484 31.9144L82.9858 46.0245C83.2044 46.637 83.1116 47.3175 82.737 47.8491C82.3623 48.3807 81.7526 48.6969 81.1022 48.6969H78.9051V71.0571C78.9051 72.1616 78.0097 73.057 76.9051 73.057H18.3171C17.2125 73.057 16.3171 72.1616 16.3171 71.0571V48.6969H14.12C13.4696 48.6969 12.8599 48.3807 12.4852 47.8491C12.1106 47.3175 12.0178 46.637 12.2364 46.0245L17.2738 31.9144L17.3787 31.9519C17.2739 31.9142 17.2737 31.9148 17.2738 31.9144L17.2748 31.9118L17.2761 31.9083L17.2788 31.9008L17.2849 31.8842L17.2999 31.8449C17.3112 31.8161 17.3251 31.7818 17.3418 31.7429C17.3751 31.6654 17.4203 31.5676 17.4791 31.456C17.5945 31.237 17.774 30.9425 18.0358 30.6409ZM21.0203 33.317L16.9576 44.6969H18.3171C19.4216 44.6969 20.317 45.5924 20.317 46.6969V69.0571H74.9052V46.6969C74.9052 45.5924 75.8006 44.6969 76.9051 44.6969H78.2646L74.2019 33.317H21.0203Z" fill="#1C3553"/>
<path fill-rule="evenodd" clip-rule="evenodd" d="M33.8058 29.3298H62.0055V73.0097H33.8058V29.3298ZM37.7458 33.2697V69.0698H58.0656V33.2697H37.7458Z" fill="#2988FF"/>
<path d="M49.9995 26.9997C49.9995 26.4474 50.4472 25.9997 50.9995 25.9997H54.9994C55.5517 25.9997 55.9994 26.4474 55.9994 26.9997V30.9997C55.9994 31.552 55.5517 31.9997 54.9994 31.9997H50.9995C50.4472 31.9997 49.9995 31.552 49.9995 30.9997V26.9997Z" fill="#2988FF"/>
<path fill-rule="evenodd" clip-rule="evenodd" d="M40.5098 47.7378C40.5098 47.1855 40.9576 46.7378 41.5098 46.7378H45.0982C45.6505 46.7378 46.0982 47.1855 46.0982 47.7378V54.6387C46.0982 55.191 45.6505 55.6387 45.0982 55.6387H41.5098C40.9576 55.6387 40.5098 55.191 40.5098 54.6387V47.7378ZM42.5098 48.7378V53.6387H44.0983V48.7378H42.5098Z" fill="#2988FF"/>
<path fill-rule="evenodd" clip-rule="evenodd" d="M49.8139 47.7378C49.8139 47.1855 50.2617 46.7378 50.8139 46.7378H54.4024C54.9546 46.7378 55.4023 47.1855 55.4023 47.7378V54.6387C55.4023 55.191 54.9546 55.6387 54.4024 55.6387H50.8139C50.2617 55.6387 49.8139 55.191 49.8139 54.6387V47.7378ZM51.8139 48.7378V53.6387H53.4024V48.7378H51.8139Z" fill="#2988FF"/>
</svg>
