<svg width="96" height="96" viewBox="0 0 96 96" fill="none" xmlns="http://www.w3.org/2000/svg">
<path fill-rule="evenodd" clip-rule="evenodd" d="M41.3979 25.3148C41.3979 24.316 42.2076 23.5063 43.2064 23.5063H79.7664C80.7653 23.5063 81.5749 24.316 81.5749 25.3148V30.0828C81.5749 31.0816 80.7653 31.8913 79.7664 31.8913C78.7676 31.8913 77.958 31.0816 77.958 30.0828V27.1233H45.0149V70.4209H77.958V62.7655C77.958 61.7667 78.7676 60.957 79.7664 60.957C80.7653 60.957 81.5749 61.7667 81.5749 62.7655V72.2294C81.5749 73.2282 80.7653 74.0379 79.7664 74.0379H43.2064C42.2076 74.0379 41.3979 73.2282 41.3979 72.2294V25.3148Z" fill="#1C3553"/>
<path fill-rule="evenodd" clip-rule="evenodd" d="M52.7976 36.0725V41.1325H50.7376V36.0725H52.7976ZM53.2676 34.6025C53.8199 34.6025 54.2676 35.0503 54.2676 35.6025V41.6025C54.2676 42.1548 53.8199 42.6025 53.2676 42.6025H50.2676C49.7153 42.6025 49.2676 42.1548 49.2676 41.6025V35.6025C49.2676 35.0503 49.7153 34.6025 50.2676 34.6025H53.2676Z" fill="#1C3553"/>
<path fill-rule="evenodd" clip-rule="evenodd" d="M52.7976 50.0725V55.1325H50.7376V50.0725H52.7976ZM53.2676 48.6025C53.8199 48.6025 54.2676 49.0503 54.2676 49.6025V55.6025C54.2676 56.1548 53.8199 56.6025 53.2676 56.6025H50.2676C49.7153 56.6025 49.2676 56.1548 49.2676 55.6025V49.6025C49.2676 49.0503 49.7153 48.6025 50.2676 48.6025H53.2676Z" fill="#1C3553"/>
<path fill-rule="evenodd" clip-rule="evenodd" d="M30.4626 20.0834C29.4247 21.0482 26.2662 23.9815 22.4932 27.4854C16.5209 33.0318 9.00888 40.0081 5.92971 42.8716C7.15047 42.8686 8.36965 42.8712 9.58701 42.8769C10.2921 42.8799 11.3316 42.9843 12.1222 43.7705C12.9185 44.5623 13.0204 45.6043 13.0204 46.3056M4.16617 42.8705C4.16616 42.8705 4.16676 42.8706 4.16791 42.8708L4.16617 42.8705ZM30.4626 20.0834C31.5179 21.0619 32.8191 22.2563 33.8769 23.2248C34.4383 23.7387 34.932 24.1897 35.2853 24.5124L35.8516 25.0289C36.6129 25.7227 37.7931 25.6685 38.4869 24.9072C39.1807 24.1459 39.1259 22.9663 38.3646 22.2726L37.8002 21.7577C37.4478 21.4359 36.9554 20.9861 36.3956 20.4736C35.2752 19.4479 33.8882 18.1745 32.8128 17.1758C32.3243 16.7219 31.5204 16.0863 30.4162 16.1074C29.3408 16.128 28.5531 16.766 28.07 17.2148C27.2229 18.0026 23.9396 21.0517 19.9738 24.7348C12.9819 31.228 3.86609 39.6937 2.22844 41.2209C2.2222 41.2267 2.21536 41.2331 2.20858 41.2394C2.00717 41.427 1.57249 41.8318 1.29462 42.3878C0.934122 43.1092 0.887461 43.9487 1.24937 44.7802C1.57857 45.5356 2.14178 46.0633 2.83013 46.3466C3.42871 46.593 4.02193 46.6112 4.38768 46.6088C6.02006 46.5975 7.65396 46.5987 9.29044 46.6056C9.29141 54.5485 9.29141 62.4905 9.29141 70.4336C9.29141 71.0983 9.3222 72.2957 10.206 73.1522C11.0681 73.9877 12.2531 74.0151 12.9271 74.0156C15.8493 74.0161 21.9928 74.0161 27.4044 74.0159L37.4967 74.0156C37.4968 74.0156 37.4975 74.0156 37.4974 72.1506L37.4967 74.0156C38.5267 74.0155 39.3625 73.1805 39.3624 72.1505C39.3624 71.1204 38.5273 70.2855 37.4973 70.2856L37.4974 72.1467C37.4973 70.2856 37.4974 70.2856 37.4973 70.2856L27.4044 70.2859C22.0491 70.2861 15.9788 70.2861 13.0214 70.2856C13.0214 62.2921 13.0214 54.2992 13.0204 46.3056" fill="#1C3553"/>
<path fill-rule="evenodd" clip-rule="evenodd" d="M18.147 47.6837C18.147 47.2778 18.476 46.9487 18.882 46.9487H22.661C23.0669 46.9487 23.396 47.2778 23.396 47.6837V54.3087C23.396 54.7147 23.0669 55.0437 22.661 55.0437H18.882C18.476 55.0437 18.147 54.7147 18.147 54.3087V47.6837ZM19.617 48.4187V53.5737H21.926V48.4187H19.617Z" fill="#1C3553"/>
<path fill-rule="evenodd" clip-rule="evenodd" d="M31.9316 47.6832C31.9316 47.2773 32.2607 46.9482 32.6666 46.9482H35.0026C35.4086 46.9482 35.7376 47.2773 35.7376 47.6832C35.7376 48.0892 35.4086 48.4182 35.0026 48.4182H33.4016V53.5732H35.0026C35.4086 53.5732 35.7376 53.9023 35.7376 54.3082C35.7376 54.7142 35.4086 55.0432 35.0026 55.0432H32.6666C32.2607 55.0432 31.9316 54.7142 31.9316 54.3082V47.6832Z" fill="#1C3553"/>
<path fill-rule="evenodd" clip-rule="evenodd" d="M81.8224 20.118C81.8224 19.317 81.1984 18.668 80.4274 18.668H51.8674C51.9054 17.368 51.9124 17.362 51.8714 16.063C51.8564 15.566 51.3004 15.193 50.5394 15.056C50.5324 15.055 50.5264 15.055 50.5194 15.054C50.4604 15.043 50.4014 15.034 50.3414 15.028C50.3374 15.027 50.3344 15.027 50.3304 15.026C50.2644 15.018 50.2004 15.013 50.1324 15.008H50.1264C50.0654 15.004 50.0024 15.002 49.9404 15.002C49.9314 15.001 49.9224 15.001 49.9124 15C49.9004 15 49.8894 15.001 49.8774 15.001C49.8584 15.001 49.8394 15 49.8184 15C49.8034 15.001 49.7894 15.002 49.7734 15.003C48.6784 15.026 47.8944 15.485 47.8644 16.169C47.8354 16.847 47.8504 18.083 47.8594 18.668H42.5464C41.7764 18.668 41.1514 19.317 41.1514 20.118C41.1514 20.919 41.7764 21.568 42.5464 21.568H80.4274C81.1984 21.568 81.8224 20.919 81.8224 20.118Z" fill="#1C3553"/>
<path fill-rule="evenodd" clip-rule="evenodd" d="M11.8003 29.4371C11.8003 29.4371 11.7883 25.1401 11.7923 21.9711C11.7943 21.1141 12.1403 20.7731 13.0123 20.7691C14.3173 20.7611 15.6213 20.7601 16.9263 20.7691C17.7813 20.7751 18.1323 21.1361 18.1393 21.9921C18.1443 22.7281 18.1233 22.6901 18.1473 23.4251L11.8003 29.4371Z" fill="#1C3553"/>
<path fill-rule="evenodd" clip-rule="evenodd" d="M68.0357 31.8441C75.5277 30.2513 82.892 35.0341 84.4847 42.5258L84.4847 42.526C86.0763 50.0167 81.2948 57.381 73.8028 58.9737C66.311 60.5664 58.9466 55.7839 57.3548 48.292M68.7408 35.1609C63.0816 36.3642 59.4685 41.9279 60.6717 47.5867L60.6717 47.587C61.8741 53.2468 67.4377 56.8601 73.0977 55.6568C78.7577 54.4536 82.3701 48.8901 81.1678 43.231M68.7409 35.1609C74.4008 33.9577 79.9644 37.5708 81.1678 43.2308L68.7409 35.1609ZM68.0357 31.8441L68.0356 31.8441L68.0357 31.8441ZM68.0356 31.8441C60.545 33.4367 55.7622 40.8007 57.3548 48.2917L68.0356 31.8441Z" fill="#2988FF"/>
<path fill-rule="evenodd" clip-rule="evenodd" d="M94.2582 64.3302C94.1602 64.2422 86.5062 57.2613 83.2882 54.3263L83.2782 54.2913C83.2782 54.2913 82.3532 53.4593 81.0552 52.2783C80.2752 53.4093 79.2442 54.3393 78.1802 55.2493C80.2812 57.1663 82.5382 59.2253 83.9462 60.5092L83.9562 60.5442C83.9562 60.5442 91.2422 67.1802 91.3662 67.2912C92.2122 68.0472 93.5452 67.9982 94.3442 67.1802C95.1432 66.3622 95.1042 65.0862 94.2582 64.3302Z" fill="#2988FF"/>
<path fill-rule="evenodd" clip-rule="evenodd" d="M94.2582 64.3302C94.1602 64.2422 86.5062 57.2613 83.2882 54.3263L83.2782 54.2913C83.2782 54.2913 82.3532 53.4593 81.0552 52.2783C80.2752 53.4093 79.2442 54.3393 78.1802 55.2493C80.2812 57.1663 82.5382 59.2253 83.9462 60.5092L83.9562 60.5442C83.9562 60.5442 91.2422 67.1802 91.3662 67.2912C92.2122 68.0472 93.5452 67.9982 94.3442 67.1802C95.1432 66.3622 95.1042 65.0862 94.2582 64.3302Z" fill="#2988FF"/>
<path fill-rule="evenodd" clip-rule="evenodd" d="M80.9377 51.2538C81.2333 51.2198 81.5292 51.3152 81.7493 51.5155C82.3973 52.1051 82.9521 52.6075 83.3449 52.9625C83.5413 53.14 83.6972 53.2806 83.8039 53.3768L83.9673 53.5239C84.0186 53.5701 84.0655 53.6217 84.1063 53.6766L94.9213 63.5392C94.9402 63.5565 94.9474 63.5629 94.9473 63.5628L94.2585 64.3299L94.9454 63.5612C96.2348 64.7134 96.2863 66.6674 95.082 67.9003C93.9017 69.1086 91.9412 69.1872 90.6794 68.0597C90.6131 68.0003 88.7537 66.3073 86.9207 64.6381L83.2625 61.3065C83.2625 61.3065 83.2622 61.3062 83.9564 60.544L83.2625 61.3065C83.2131 61.2615 83.168 61.2117 83.1285 61.1585C81.7143 59.8688 79.5263 57.8727 77.4855 56.0107C77.2671 55.8114 77.1448 55.5281 77.1495 55.2325C77.1543 54.9369 77.2857 54.6576 77.5103 54.4655C78.5729 53.5567 79.5104 52.7023 80.2067 51.6927C80.3756 51.4478 80.6421 51.2878 80.9377 51.2538ZM92.0474 66.5167L84.774 59.8941L92.0474 66.5167ZM84.774 59.8941C84.7347 59.8412 84.6902 59.792 84.6411 59.7472C83.4221 58.6356 81.5667 56.943 79.7271 55.2646C80.2305 54.808 80.7279 54.3216 81.1861 53.7896C81.4855 54.0611 81.748 54.2986 81.9624 54.4923C82.1595 54.6705 82.316 54.8117 82.4233 54.9084L82.4638 54.9449C82.5023 54.9963 82.5458 55.0441 82.5937 55.0878L83.3376 55.7663C86.8528 58.9724 93.4748 65.012 93.5696 65.0971L93.5714 65.0987C93.9741 65.4585 94.0005 66.0565 93.6069 66.4595C93.1893 66.8871 92.4841 66.9066 92.0539 66.5226" fill="#2988FF"/>
</svg>
