<svg width="96" height="96" viewBox="0 0 96 96" fill="none" xmlns="http://www.w3.org/2000/svg">
<path fill-rule="evenodd" clip-rule="evenodd" d="M23.5715 59.8739C23.8932 59.5832 24.3113 59.4222 24.7449 59.4222H37.4929C38.4593 59.4222 39.2428 60.2057 39.2428 61.1722C39.2428 62.1387 38.4593 62.9222 37.4929 62.9222H25.4185L14.0933 73.1572H82.4247L71.6272 62.9222H58.8068C57.8403 62.9222 57.0568 62.1387 57.0568 61.1722C57.0568 60.2057 57.8403 59.4222 58.8068 59.4222H72.3244C72.7723 59.4222 73.2036 59.594 73.5287 59.9021L88.0186 73.6371C88.5385 74.1299 88.7056 74.8898 88.4403 75.5552C88.1751 76.2206 87.5311 76.6572 86.8147 76.6572H9.54692C8.82299 76.6572 8.17379 76.2114 7.91374 75.5358C7.65368 74.8602 7.83647 74.0942 8.37356 73.6088L23.5715 59.8739Z" fill="#2988FF"/>
<path fill-rule="evenodd" clip-rule="evenodd" d="M58.0583 61.8769C58.4116 61.6575 58.8758 61.7661 59.0952 62.1194L66.3532 73.8073C66.5726 74.1606 66.464 74.6249 66.1107 74.8443C65.7574 75.0637 65.2932 74.9551 65.0738 74.6018L57.8158 62.9139C57.5964 62.5606 57.705 62.0963 58.0583 61.8769ZM37.1329 62.1193C37.3523 61.7661 37.8165 61.6575 38.1698 61.8769C38.5231 62.0964 38.6316 62.5606 38.4122 62.9139L31.1532 74.6019C30.9338 74.9551 30.4696 75.0637 30.1163 74.8443C29.763 74.6248 29.6545 74.1606 29.8739 73.8073L37.1329 62.1193ZM31.1103 62.1007C31.3875 61.7907 31.8635 61.7641 32.1735 62.0413C32.4835 62.3185 32.5101 62.7946 32.2329 63.1046L22.0169 74.5285C21.7397 74.8385 21.2636 74.8651 20.9536 74.5879C20.6436 74.3107 20.6171 73.8346 20.8943 73.5246L31.1103 62.1007ZM64.0535 62.0413C64.3635 61.7641 64.8396 61.7907 65.1168 62.1007L75.3328 73.5246C75.61 73.8346 75.5834 74.3107 75.2734 74.5879C74.9634 74.8651 74.4874 74.8385 74.2101 74.5285L63.9942 63.1046C63.717 62.7946 63.7435 62.3185 64.0535 62.0413ZM42.9603 63.2612C43.1146 62.875 43.5528 62.6871 43.939 62.8414C44.3251 62.9957 44.5131 63.4339 44.3588 63.82L39.8358 75.138C39.6814 75.5242 39.2433 75.7121 38.8571 75.5578C38.4709 75.4035 38.283 74.9653 38.4373 74.5792L42.9603 63.2612ZM52.2881 62.8414C52.6743 62.6871 53.1124 62.875 53.2667 63.2612L57.7897 74.5792C57.9441 74.9653 57.7561 75.4035 57.3699 75.5578C56.9838 75.7121 56.5456 75.5242 56.3913 75.138L51.8683 63.82C51.714 63.4339 51.9019 62.9957 52.2881 62.8414ZM47.3465 68.8316C47.3465 68.4157 47.6836 68.0786 48.0995 68.0786C48.5154 68.0786 48.8525 68.4157 48.8525 68.8316V74.6856C48.8525 75.1015 48.5154 75.4386 48.0995 75.4386C47.6836 75.4386 47.3465 75.1015 47.3465 74.6856V68.8316Z" fill="#2988FF"/>
<path fill-rule="evenodd" clip-rule="evenodd" d="M53.2464 65.3439C53.2464 64.928 53.5835 64.5909 53.9994 64.5909H75.9224C76.3382 64.5909 76.6753 64.928 76.6753 65.3439C76.6753 65.7598 76.3382 66.0969 75.9224 66.0969H53.9994C53.5835 66.0969 53.2464 65.7598 53.2464 65.3439ZM20.2699 65.344C20.2699 64.9281 20.6071 64.591 21.0229 64.591H42.9459C43.3618 64.591 43.6989 64.9281 43.6989 65.344C43.6989 65.7599 43.3618 66.097 42.9459 66.097H21.0229C20.6071 66.097 20.2699 65.7599 20.2699 65.344ZM16.125 68.743C16.125 68.3271 16.4621 67.99 16.878 67.99H79.3488C79.7647 67.99 80.1018 68.3271 80.1018 68.743C80.1018 69.1589 79.7647 69.496 79.3488 69.496H16.878C16.4621 69.496 16.125 69.1589 16.125 68.743Z" fill="#2988FF"/>
<path fill-rule="evenodd" clip-rule="evenodd" d="M42.0295 45.8087C42.4432 45.7695 42.8105 46.073 42.8497 46.4868L43.5447 53.8118C43.584 54.2255 43.2804 54.5927 42.8667 54.632C42.4529 54.6712 42.0857 54.3676 42.0465 53.9539L41.3515 46.6289C41.3122 46.2152 41.6158 45.848 42.0295 45.8087Z" fill="#1C3553"/>
<path fill-rule="evenodd" clip-rule="evenodd" d="M54.1664 45.8087C54.5802 45.848 54.8838 46.2152 54.8445 46.6289L54.1495 53.9539C54.1102 54.3676 53.743 54.6712 53.3293 54.632C52.9156 54.5927 52.612 54.2255 52.6512 53.8118L53.3462 46.4868C53.3855 46.073 53.7527 45.7695 54.1664 45.8087Z" fill="#1C3553"/>
<path fill-rule="evenodd" clip-rule="evenodd" d="M41.321 34.3074C43.1889 33.6144 45.7402 32.8141 47.7814 32.8141C49.8026 32.8141 52.5112 33.6041 54.5295 34.2916C55.5789 34.649 56.5161 35.0055 57.1906 35.2724C57.5284 35.406 57.8018 35.5178 57.992 35.5968C58.0872 35.6362 58.1617 35.6675 58.2132 35.6893L58.2729 35.7147L58.2892 35.7217L58.2954 35.7243C58.2956 35.7244 58.2963 35.7247 57.6044 37.3321L58.2954 35.7243C58.9375 36.0007 59.3544 36.6331 59.3544 37.3321V47.6461C59.3544 48.1036 59.1752 48.5429 58.8552 48.87L56.4216 51.3573L54.6364 67.9769C54.5409 68.866 53.7906 69.54 52.8964 69.54H43.3304C42.4362 69.54 41.6859 68.8659 41.5904 67.9768L39.8062 51.3572L37.3726 48.87C37.0526 48.5429 36.8734 48.1036 36.8734 47.6461V37.3321C36.8734 36.6592 37.2593 36.0459 37.8659 35.7546L38.6234 37.3321C37.8659 35.7546 37.8657 35.7547 37.8659 35.7546L37.8729 35.7512L37.8883 35.7439L37.9433 35.7178C37.9906 35.6956 38.0585 35.6638 38.1453 35.6238C38.3187 35.5439 38.5676 35.431 38.8759 35.2962C39.4913 35.0271 40.3495 34.6678 41.321 34.3074ZM40.3734 38.4615V46.9324L42.7323 49.3432C43.0072 49.6242 43.1795 49.9895 43.2214 50.3803L44.9026 66.04H51.3243L53.0064 50.3802C53.0484 49.9894 53.2207 49.6241 53.4955 49.3432L55.8544 46.9324V38.5077C55.2213 38.2579 54.3586 37.9308 53.401 37.6047C51.3561 36.9081 49.1533 36.3141 47.7814 36.3141C46.4286 36.3141 44.4009 36.8978 42.5384 37.5888C41.6932 37.9024 40.9365 38.2169 40.3734 38.4615Z" fill="#1C3553"/>
<path fill-rule="evenodd" clip-rule="evenodd" d="M42.1 25.0117C42.1 21.6914 44.7943 18.9997 48.114 18.9997C51.4337 18.9997 54.128 21.6914 54.128 25.0117C54.128 28.3347 51.4339 31.0257 48.114 31.0257C44.794 31.0257 42.1 28.3347 42.1 25.0117ZM48.114 22.4997C46.7257 22.4997 45.6 23.626 45.6 25.0117C45.6 26.4007 46.7259 27.5257 48.114 27.5257C49.502 27.5257 50.628 26.4007 50.628 25.0117C50.628 23.626 49.5023 22.4997 48.114 22.4997Z" fill="#1C3553"/>
</svg>
