<svg width="96" height="96" viewBox="0 0 96 96" fill="none" xmlns="http://www.w3.org/2000/svg">
<path fill-rule="evenodd" clip-rule="evenodd" d="M23.5716 59.874C23.8932 59.5833 24.3114 59.4224 24.7449 59.4224H37.4929C38.4594 59.4224 39.2429 60.2059 39.2429 61.1724C39.2429 62.1389 38.4594 62.9224 37.4929 62.9224H25.4186L14.0934 73.1574H82.4249L71.6273 62.9224H58.8069C57.8404 62.9224 57.0569 62.1389 57.0569 61.1724C57.0569 60.2059 57.8404 59.4224 58.8069 59.4224H72.3246C72.7725 59.4224 73.2038 59.5941 73.5289 59.9023L88.0188 73.6373C88.5387 74.1301 88.7058 74.89 88.4405 75.5554C88.1753 76.2208 87.5313 76.6574 86.8149 76.6574H9.54695C8.82302 76.6574 8.17381 76.2116 7.91376 75.536C7.6537 74.8604 7.83649 74.0944 8.37358 73.609L23.5716 59.874Z" fill="#2988FF"/>
<path fill-rule="evenodd" clip-rule="evenodd" d="M58.0584 61.8771C58.4117 61.6577 58.8759 61.7662 59.0953 62.1195L66.3533 73.8075C66.5727 74.1608 66.4642 74.6251 66.1109 74.8445C65.7576 75.0639 65.2933 74.9553 65.0739 74.602L57.8159 62.914C57.5966 62.5607 57.7051 62.0965 58.0584 61.8771ZM37.133 62.1195C37.3524 61.7662 37.8166 61.6577 38.1699 61.8771C38.5232 62.0965 38.6317 62.5608 38.4123 62.9141L31.1533 74.6021C30.9339 74.9553 30.4696 75.0639 30.1164 74.8444C29.7631 74.625 29.6546 74.1608 29.874 73.8075L37.133 62.1195ZM31.1103 62.1008C31.3876 61.7908 31.8636 61.7643 32.1736 62.0415C32.4836 62.3187 32.5102 62.7947 32.2329 63.1047L22.0169 74.5287C21.7397 74.8387 21.2637 74.8653 20.9537 74.5881C20.6437 74.3109 20.6171 73.8348 20.8943 73.5248L31.1103 62.1008ZM64.0537 62.0415C64.3637 61.7643 64.8397 61.7908 65.1169 62.1008L75.3329 73.5248C75.6102 73.8348 75.5836 74.3109 75.2736 74.5881C74.9636 74.8653 74.4876 74.8387 74.2103 74.5287L63.9943 63.1047C63.7171 62.7947 63.7437 62.3187 64.0537 62.0415ZM42.9604 63.2613C43.1147 62.8752 43.5529 62.6872 43.9391 62.8415C44.3253 62.9959 44.5132 63.434 44.3589 63.8202L39.8359 75.1382C39.6815 75.5244 39.2434 75.7123 38.8572 75.558C38.471 75.4037 38.2831 74.9655 38.4374 74.5793L42.9604 63.2613ZM52.2882 62.8415C52.6744 62.6872 53.1125 62.8752 53.2669 63.2613L57.7899 74.5793C57.9442 74.9655 57.7562 75.4037 57.3701 75.558C56.9839 75.7123 56.5457 75.5244 56.3914 75.1382L51.8684 63.8202C51.7141 63.434 51.902 62.9959 52.2882 62.8415ZM47.3466 68.8318C47.3466 68.4159 47.6838 68.0788 48.0996 68.0788C48.5155 68.0788 48.8526 68.4159 48.8526 68.8318V74.6858C48.8526 75.1016 48.5155 75.4388 48.0996 75.4388C47.6838 75.4388 47.3466 75.1016 47.3466 74.6858V68.8318Z" fill="#2988FF"/>
<path fill-rule="evenodd" clip-rule="evenodd" d="M53.2465 65.3438C53.2465 64.9279 53.5837 64.5908 53.9995 64.5908H75.9225C76.3384 64.5908 76.6755 64.928 76.6755 65.3438C76.6755 65.7597 76.3384 66.0968 75.9225 66.0968H53.9995C53.5837 66.0968 53.2465 65.7597 53.2465 65.3438ZM20.27 65.3439C20.27 64.9281 20.6071 64.5909 21.023 64.5909H42.946C43.3619 64.5909 43.699 64.9281 43.699 65.3439C43.699 65.7598 43.3619 66.0969 42.946 66.0969H21.023C20.6071 66.0969 20.27 65.7598 20.27 65.3439ZM16.125 68.7429C16.125 68.3271 16.4621 67.9899 16.878 67.9899H79.349C79.7649 67.9899 80.102 68.3271 80.102 68.7429C80.102 69.1588 79.7649 69.4959 79.349 69.4959H16.878C16.4621 69.4959 16.125 69.1588 16.125 68.7429Z" fill="#2988FF"/>
<path fill-rule="evenodd" clip-rule="evenodd" d="M42.0296 45.8091C42.4434 45.7698 42.8106 46.0734 42.8498 46.4871L43.5448 53.8121C43.5841 54.2259 43.2805 54.5931 42.8668 54.6324C42.453 54.6716 42.0858 54.368 42.0466 53.9543L41.3516 46.6293C41.3123 46.2156 41.6159 45.8483 42.0296 45.8091Z" fill="#1C3553"/>
<path fill-rule="evenodd" clip-rule="evenodd" d="M54.1666 45.8091C54.5803 45.8483 54.8839 46.2156 54.8446 46.6293L54.1496 53.9543C54.1104 54.368 53.7432 54.6716 53.3294 54.6324C52.9157 54.5931 52.6121 54.2259 52.6514 53.8121L53.3464 46.4871C53.3856 46.0734 53.7528 45.7698 54.1666 45.8091Z" fill="#1C3553"/>
<path fill-rule="evenodd" clip-rule="evenodd" d="M41.3211 34.3077C43.189 33.6147 45.7404 32.8145 47.7815 32.8145C49.8027 32.8145 52.5114 33.6045 54.5297 34.2919C55.579 34.6493 56.5162 35.0058 57.1907 35.2727C57.5285 35.4064 57.8019 35.5182 57.9922 35.5971C58.0874 35.6366 58.1618 35.6679 58.2133 35.6897L58.273 35.715L58.2894 35.722L58.2956 35.7247C58.2958 35.7248 58.2965 35.7251 57.6045 37.3325L58.2956 35.7247C58.9377 36.0011 59.3545 36.6334 59.3545 37.3325V47.6465C59.3545 48.104 59.1754 48.5433 58.8554 48.8703L56.4217 51.3576L54.6365 67.9774C54.541 68.8664 53.7907 69.5405 52.8965 69.5405H43.3305C42.4363 69.5405 41.686 68.8663 41.5905 67.9773L39.8063 51.3576L37.3727 48.8703C37.0527 48.5433 36.8735 48.104 36.8735 47.6465V37.3325C36.8735 36.6595 37.2594 36.0462 37.866 35.7549L38.6235 37.3325C37.866 35.7549 37.8657 35.755 37.866 35.7549L37.873 35.7515L37.8884 35.7442L37.9434 35.7182C37.9907 35.6959 38.0586 35.6641 38.1454 35.6242C38.3188 35.5442 38.5677 35.4314 38.876 35.2966C39.4914 35.0275 40.3496 34.6681 41.3211 34.3077ZM40.3735 38.4619V46.9327L42.7324 49.3436C43.0073 49.6245 43.1796 49.9898 43.2215 50.3807L44.9027 66.0405H51.3244L53.0065 50.3806C53.0485 49.9898 53.2208 49.6245 53.4957 49.3436L55.8545 46.9327V38.5081C55.2215 38.2582 54.3588 37.9312 53.4012 37.605C51.3562 36.9084 49.1534 36.3145 47.7815 36.3145C46.4287 36.3145 44.4011 36.8982 42.5385 37.5892C41.6933 37.9027 40.9366 38.2173 40.3735 38.4619Z" fill="#1C3553"/>
<path fill-rule="evenodd" clip-rule="evenodd" d="M42.1001 25.012C42.1001 21.6917 44.7944 19 48.1141 19C51.4338 19 54.1281 21.6917 54.1281 25.012C54.1281 28.335 51.4341 31.026 48.1141 31.026C44.7941 31.026 42.1001 28.335 42.1001 25.012ZM48.1141 22.5C46.7258 22.5 45.6001 23.6263 45.6001 25.012C45.6001 26.401 46.7261 27.526 48.1141 27.526C49.5021 27.526 50.6281 26.401 50.6281 25.012C50.6281 23.6263 49.5024 22.5 48.1141 22.5Z" fill="#1C3553"/>
</svg>
