<svg width="96" height="96" viewBox="0 0 96 96" fill="none" xmlns="http://www.w3.org/2000/svg">
<path fill-rule="evenodd" clip-rule="evenodd" d="M78.3179 72.277C78.2929 72.248 78.2559 72.22 78.2239 72.192C78.1809 72.22 78.1329 72.249 78.0849 72.277C78.0649 72.288 78.0449 72.3 78.0239 72.311C77.8879 72.388 77.7359 72.465 77.5529 72.541C76.5599 72.955 74.8339 73.329 71.8389 73.329C70.4639 73.329 69.3669 73.247 68.4749 73.122C67.8659 73.037 67.3519 72.931 66.9269 72.813C66.7769 72.771 66.6339 72.729 66.5049 72.684C66.3669 72.638 66.2409 72.59 66.1239 72.541C66.0149 72.496 65.9179 72.45 65.8249 72.404C65.7629 72.373 65.7069 72.342 65.6519 72.311C65.6319 72.3 65.6109 72.289 65.5919 72.277C65.5429 72.249 65.4959 72.221 65.4529 72.193C65.4199 72.221 65.3839 72.249 65.3589 72.277H65.2259V72.412V72.712V72.862V73.312V75.2389V75.2409L65.2759 75.4819C65.4409 75.8579 66.4029 77.0859 71.8389 77.0859C77.2739 77.0859 78.2359 75.8579 78.4009 75.4819L78.4429 72.821L78.4469 72.598C78.4469 72.591 78.4509 72.584 78.4509 72.577C78.4509 72.571 78.4479 72.565 78.4469 72.558L78.4519 72.277H78.3179ZM77.2479 73.479V75.0079C76.9669 75.2189 75.8989 75.7959 72.5979 75.8739L67.3079 73.67C68.4919 73.923 70.0829 74.08 71.8379 74.08C73.9979 74.08 75.9109 73.844 77.1169 73.479H77.2479Z" fill="#1C3553"/>
<path fill-rule="evenodd" clip-rule="evenodd" d="M77.8499 67.5955C77.7779 67.6315 77.7009 67.6665 77.6189 67.7025C77.4479 67.7765 77.2509 67.8485 77.0309 67.9185C77.0249 67.9205 77.0179 67.9225 77.0109 67.9245C76.0349 68.2325 74.5459 68.4805 72.2959 68.5115C72.1449 68.5135 72.0039 68.5185 71.8459 68.5185H71.8389H71.8369C71.7879 68.5185 71.7469 68.5165 71.6999 68.5165C71.5749 68.5155 71.4609 68.5125 71.3399 68.5105C70.8809 68.5035 70.4489 68.4895 70.0519 68.4655C69.4579 68.4295 68.9309 68.3775 68.4639 68.3115C68.2779 68.2855 68.1019 68.2565 67.9349 68.2275C67.5609 68.1605 67.2249 68.0865 66.9339 68.0055C66.8399 67.9795 66.7519 67.9525 66.6649 67.9245C66.6589 67.9225 66.6519 67.9205 66.6449 67.9185C66.6289 67.9135 66.6109 67.9085 66.5949 67.9035C66.3949 67.8385 66.2159 67.7715 66.0569 67.7025C65.9749 67.6675 65.8979 67.6315 65.8259 67.5955C65.6299 67.6935 65.4749 67.7965 65.3739 67.9035C65.3689 67.9085 65.3619 67.9135 65.3579 67.9185H65.2249V68.0535V68.3535V68.5035V68.9545V69.1065V69.7065V70.8815V70.8835L65.2759 71.1235C65.2879 71.1525 65.3079 71.1875 65.3309 71.2245C65.3799 71.3035 65.4579 71.4005 65.5779 71.5065C65.6449 71.5655 65.7259 71.6275 65.8229 71.6915C65.8869 71.7335 65.9569 71.7755 66.0349 71.8185C66.0479 71.8255 66.0639 71.8335 66.0779 71.8405C66.1449 71.8765 66.2139 71.9115 66.2919 71.9465C66.4749 72.0295 66.6889 72.1115 66.9419 72.1885C67.0399 72.2195 67.1509 72.2485 67.2609 72.2765C67.3249 72.2935 67.3859 72.3115 67.4549 72.3275C67.7539 72.3985 68.0959 72.4635 68.4819 72.5195C68.6479 72.5435 68.8269 72.5655 69.0109 72.5855C69.4469 72.6345 69.9359 72.6715 70.4799 72.6955C70.9009 72.7145 71.3449 72.7275 71.8379 72.7275C73.9929 72.7275 75.4359 72.5335 76.4139 72.2765C76.5239 72.2485 76.6349 72.2195 76.7329 72.1885C76.9859 72.1115 77.1999 72.0295 77.3829 71.9465C77.4609 71.9115 77.5309 71.8765 77.5979 71.8405C77.6919 71.7905 77.7779 71.7405 77.8519 71.6915C78.2029 71.4595 78.3459 71.2465 78.3989 71.1235L78.4419 68.4625L78.4449 68.2405C78.4459 68.2335 78.4499 68.2265 78.4499 68.2195C78.4499 68.2125 78.4459 68.2065 78.4459 68.2005L78.4499 67.9185H78.3169C78.2169 67.8055 78.0549 67.6975 77.8499 67.5955ZM77.2479 69.1205V70.6495C77.1179 70.7475 76.8159 70.9245 76.2019 71.0935C75.9479 71.1635 75.6379 71.2325 75.2659 71.2935C75.2079 71.3035 75.1469 71.3125 75.0839 71.3215C74.4439 71.4175 73.6319 71.4905 72.5969 71.5155L72.2659 71.3765L71.8459 71.2015L71.7629 71.1675L71.5479 71.0775H71.5459L71.3939 71.0135L70.5819 70.6755L70.5549 70.6645L67.9369 69.5735L67.3069 69.3115C67.6629 69.3875 68.0559 69.4545 68.4789 69.5115C69.1359 69.5995 69.8649 69.6635 70.6429 69.6955C70.8869 69.7055 71.1359 69.7125 71.3889 69.7155C71.5309 69.7175 71.6719 69.7205 71.8169 69.7205C71.8239 69.7205 71.8309 69.7215 71.8379 69.7215H71.8449C71.9929 69.7215 72.1379 69.7185 72.2829 69.7165C74.2599 69.6865 75.9949 69.4595 77.1179 69.1205H77.2479Z" fill="#1C3553"/>
<path fill-rule="evenodd" clip-rule="evenodd" d="M72.2689 61.9118C72.1279 61.9098 71.9889 61.9068 71.8459 61.9068H71.8379C71.8229 61.9068 71.8099 61.9078 71.7949 61.9078C71.6599 61.9078 71.5279 61.9098 71.3939 61.9118C70.5279 61.9248 69.7089 61.9758 68.9659 62.0578C68.7769 62.0788 68.5929 62.1008 68.4149 62.1258C68.1819 62.1578 67.9579 62.1928 67.7459 62.2308C67.4649 62.2808 67.206 62.3368 66.965 62.3958C66.951 62.3998 66.937 62.4038 66.922 62.4068C66.453 62.5258 66.063 62.6608 65.778 62.8088C65.594 62.9048 65.451 63.0058 65.357 63.1098H65.224V63.2438V63.5448V63.6948V64.1448V64.7478V65.3478V66.0718L65.225 66.0738L65.262 66.2508L65.275 66.3128C65.315 66.4038 65.403 66.5438 65.586 66.7048H65.587C65.738 66.8368 65.953 66.9828 66.264 67.1258C66.269 67.1278 66.276 67.1308 66.281 67.1328C66.32 67.1508 66.367 67.1678 66.409 67.1868C66.489 67.2198 66.571 67.2528 66.662 67.2848C66.733 67.3108 66.808 67.3358 66.886 67.3608C67.144 67.4428 67.4449 67.5198 67.7899 67.5898C68.1389 67.6608 68.5379 67.7228 68.9889 67.7748C69.2909 67.8088 69.6089 67.8398 69.9599 67.8618C70.0759 67.8698 70.2039 67.8738 70.3259 67.8798C70.3559 67.8818 70.3869 67.8828 70.4169 67.8838C70.5589 67.8908 70.6929 67.8988 70.8419 67.9038C71.0139 67.9088 71.2029 67.9098 71.3859 67.9118C71.4109 67.9128 71.4359 67.9128 71.4609 67.9128C71.5489 67.9138 71.6309 67.9168 71.7219 67.9168C71.7619 67.9168 71.7969 67.9188 71.8379 67.9188H71.8439C71.9039 67.9188 71.9559 67.9168 72.0149 67.9168C73.7159 67.9078 74.9659 67.7768 75.8849 67.5898C76.2299 67.5198 76.5299 67.4428 76.7879 67.3608C76.8669 67.3358 76.9409 67.3108 77.0129 67.2848C77.1579 67.2328 77.2929 67.1798 77.4099 67.1258C78.0999 66.8078 78.3269 66.4788 78.3989 66.3138L78.4409 63.6538L78.4449 63.4318C78.4449 63.4238 78.4499 63.4178 78.4499 63.4098C78.4499 63.4038 78.4459 63.3978 78.4459 63.3908L78.4499 63.1098H78.3179C77.7349 62.4548 75.2749 61.9558 72.2689 61.9118ZM72.5979 66.7068L72.2699 66.5708L71.8459 66.3938L71.8009 66.3748L71.5549 66.2728L71.3919 66.2048L70.6429 65.8928L68.7719 65.1128L67.8949 64.7478L67.3069 64.5028C67.7609 64.5998 68.2739 64.6818 68.8349 64.7478C69.2369 64.7938 69.6619 64.8308 70.1059 64.8588C70.2829 64.8698 70.4609 64.8788 70.6429 64.8868C70.8869 64.8968 71.1349 64.9038 71.3869 64.9068C71.5319 64.9088 71.6769 64.9118 71.8239 64.9118C71.8289 64.9118 71.8339 64.9128 71.8379 64.9128H71.8459C71.9949 64.9128 72.1409 64.9088 72.2879 64.9078C74.2619 64.8768 75.9949 64.6508 77.1169 64.3128H77.2479V65.8398C77.0559 65.9838 76.4909 66.3008 75.0939 66.5118C74.4529 66.6078 73.6369 66.6818 72.5979 66.7068Z" fill="#1C3553"/>
<path fill-rule="evenodd" clip-rule="evenodd" d="M63.2244 69.635C63.7184 69.671 64.2384 69.693 64.7744 69.701V69.106V68.947C64.2194 68.939 63.6974 68.922 63.2324 68.89L63.2294 69.106L63.2244 69.635Z" fill="#1C3553"/>
<path fill-rule="evenodd" clip-rule="evenodd" d="M65.2727 72.0676C64.9547 71.8226 64.8427 71.6116 64.8057 71.5176L64.8027 71.5046L64.7737 71.3526V70.9926L63.2167 70.3436L63.2057 71.4406L63.2047 71.5026C63.1687 71.5966 63.0557 71.8056 62.7407 72.0496C62.6497 72.1206 62.5367 72.1936 62.4077 72.2686C62.2687 72.3496 62.1107 72.4306 61.9207 72.5116C62.6787 72.6196 63.6247 72.6896 64.7737 72.7056V72.4056V72.3706H64.9747C65.0467 72.2646 65.1587 72.1696 65.2657 72.0746C65.2687 72.0726 65.2707 72.0696 65.2727 72.0676Z" fill="#1C3553"/>
<path fill-rule="evenodd" clip-rule="evenodd" d="M63.2244 65.2771C63.7184 65.3131 64.2384 65.3351 64.7744 65.3431V64.7481V64.1381C64.2204 64.1311 63.7004 64.1141 63.2364 64.0821V64.0891L63.2294 64.7481L63.2244 65.2771Z" fill="#1C3553"/>
<path fill-rule="evenodd" clip-rule="evenodd" d="M64.7742 68.0472V68.0122H64.9752C65.0022 67.9732 65.0512 67.9412 65.0822 67.9032C65.1362 67.8392 65.1982 67.7762 65.2662 67.7162C65.3632 67.6292 65.4712 67.5482 65.5942 67.4692C65.4062 67.3602 65.2602 67.2522 65.1492 67.1532C65.1482 67.1522 65.1462 67.1512 65.1452 67.1502C64.9262 66.9532 64.8372 66.7892 64.8062 66.7082L64.8052 66.7062V66.7052L64.7932 66.6422L63.9502 66.2912L63.2172 65.9852L63.2132 66.3442L63.2092 66.7722V66.7922L63.2062 67.0812L63.2052 67.1432C63.1942 67.1712 63.1732 67.2122 63.1462 67.2582C63.0812 67.3672 62.9632 67.5192 62.7412 67.6902C62.7402 67.6912 62.7392 67.6922 62.7382 67.6932C62.6862 67.7332 62.6242 67.7752 62.5592 67.8182C62.5162 67.8462 62.4682 67.8742 62.4192 67.9022C62.4162 67.9042 62.4122 67.9072 62.4082 67.9092C62.3932 67.9182 62.3762 67.9272 62.3602 67.9362C62.2322 68.0082 62.0902 68.0802 61.9212 68.1522C62.1502 68.1852 62.3952 68.2142 62.6562 68.2392C62.6942 68.2432 62.7382 68.2452 62.7762 68.2492C62.7782 68.2492 62.7802 68.2502 62.7812 68.2502C62.9252 68.2632 63.0742 68.2752 63.2272 68.2852C63.6932 68.3182 64.2102 68.3382 64.7752 68.3462V68.0472H64.7742Z" fill="#1C3553"/>
<path fill-rule="evenodd" clip-rule="evenodd" d="M70.6019 61.4947C70.8669 61.4797 71.1289 61.4727 71.3919 61.4677C71.5279 61.4647 71.6659 61.4577 71.8019 61.4577L71.8359 59.2797L71.8389 59.0597C71.8399 59.0517 71.8449 59.0437 71.8449 59.0367C71.8449 59.0297 71.8409 59.0227 71.8399 59.0157L71.8439 58.7357H71.7119C71.6109 58.6227 71.4489 58.5147 71.2439 58.4127C71.1719 58.4487 71.0949 58.4847 71.0129 58.5197C70.8419 58.5937 70.6459 58.6657 70.4269 58.7357C70.4199 58.7377 70.4119 58.7397 70.4049 58.7417C69.3619 59.0717 67.7489 59.3367 65.232 59.3367C64.491 59.3367 63.829 59.3137 63.236 59.2727V59.2807L63.229 59.9387L63.224 60.4677C63.858 60.5137 64.532 60.5387 65.232 60.5387C67.3939 60.5387 69.3069 60.3027 70.5129 59.9377H70.6419V61.4657C70.6309 61.4747 70.6159 61.4847 70.6019 61.4947Z" fill="#1C3553"/>
<path fill-rule="evenodd" clip-rule="evenodd" d="M65.3742 62.7974C65.5732 62.6434 65.8242 62.5064 66.1052 62.3804C66.1192 62.3744 66.1352 62.3684 66.1492 62.3624C66.1522 62.3614 66.1552 62.3604 66.1582 62.3584C66.1852 62.3464 66.2162 62.3364 66.2442 62.3254C66.1602 62.3274 66.0802 62.3314 65.9932 62.3334L64.9512 61.8994L63.2172 61.1764L63.2082 61.9864L63.2052 62.2734V62.3354C63.1962 62.3574 63.1822 62.3854 63.1652 62.4184C63.1612 62.4254 63.1552 62.4334 63.1512 62.4404C63.0872 62.5504 62.9682 62.7054 62.7413 62.8824C62.7133 62.9034 62.6783 62.9254 62.6473 62.9484C62.5793 62.9964 62.5023 63.0454 62.4163 63.0964C62.4143 63.0974 62.4103 63.0994 62.4073 63.1014C62.3383 63.1414 62.2663 63.1814 62.1853 63.2214C62.1133 63.2574 62.0363 63.2924 61.9543 63.3284C61.9423 63.3334 61.9323 63.3394 61.9203 63.3444C61.9473 63.3484 61.9783 63.3514 62.0053 63.3554C62.1653 63.3764 62.3333 63.3964 62.5083 63.4154C62.6173 63.4274 62.7333 63.4374 62.8483 63.4474C63.4102 63.4974 64.0512 63.5284 64.7732 63.5384V63.2384V63.2024H64.9752C65.0472 63.0964 65.1582 63.0024 65.2662 62.9064C65.3062 62.8714 65.3302 62.8314 65.3742 62.7974Z" fill="#1C3553"/>
<path fill-rule="evenodd" clip-rule="evenodd" d="M71.8402 54.2066L71.8442 53.9266H71.7122C71.6112 53.8136 71.4492 53.7056 71.2442 53.6036C71.1722 53.6396 71.0952 53.6746 71.0132 53.7106C70.8422 53.7846 70.6442 53.8566 70.4242 53.9266C70.4182 53.9286 70.4112 53.9306 70.4052 53.9326C69.3622 54.2616 67.7492 54.5266 65.2322 54.5266C64.4912 54.5266 63.8302 54.5036 63.2362 54.4626V54.4696L63.2292 55.1286L63.2242 55.6586C63.8582 55.7046 64.5322 55.7296 65.2322 55.7296C67.3932 55.7296 69.3052 55.4936 70.5122 55.1286H70.6422V56.6566C70.4502 56.8016 69.8842 57.1176 68.4892 57.3276C67.8472 57.4246 67.0312 57.4986 65.9922 57.5236L64.9492 57.0886L63.2172 56.3666L63.2082 57.1766L63.2052 57.4626V57.5246C63.1962 57.5466 63.1822 57.5756 63.1642 57.6086C63.1612 57.6156 63.1552 57.6236 63.1512 57.6306C63.0872 57.7406 62.9682 57.8956 62.7402 58.0726C62.7132 58.0936 62.6782 58.1156 62.6482 58.1376C62.5792 58.1866 62.5022 58.2356 62.4162 58.2856C62.4132 58.2876 62.4102 58.2896 62.4062 58.2916C62.3372 58.3316 62.2662 58.3716 62.1852 58.4116C62.1132 58.4476 62.0362 58.4826 61.9542 58.5186C61.9422 58.5236 61.9332 58.5286 61.9212 58.5336C61.9472 58.5376 61.9782 58.5406 62.0052 58.5446C62.1642 58.5666 62.3332 58.5866 62.5082 58.6046C62.6172 58.6166 62.7322 58.6266 62.8482 58.6366C63.5292 58.6966 64.3122 58.7346 65.2322 58.7346C67.0282 58.7346 68.3282 58.5996 69.2802 58.4056C69.6242 58.3356 69.9252 58.2586 70.1832 58.1766C70.2612 58.1516 70.3362 58.1266 70.4072 58.1006C70.5522 58.0486 70.6872 57.9956 70.8052 57.9416C71.4952 57.6236 71.7212 57.2946 71.7932 57.1286L71.8352 54.4696L71.8392 54.2496C71.8392 54.2416 71.8442 54.2336 71.8442 54.2256C71.8452 54.2206 71.8402 54.2136 71.8402 54.2066Z" fill="#1C3553"/>
<path fill-rule="evenodd" clip-rule="evenodd" d="M71.8402 49.3978L71.8442 49.1188H71.7122C71.6112 49.0048 71.4502 48.8978 71.2442 48.7948C71.1722 48.8308 71.0952 48.8668 71.0132 48.9018C70.8422 48.9758 70.6442 49.0478 70.4242 49.1188C70.4182 49.1208 70.4112 49.1228 70.4052 49.1238C69.3622 49.4538 67.7492 49.7188 65.2322 49.7188C64.4912 49.7188 63.8292 49.6948 63.2352 49.6548L63.2362 49.6618L63.2292 50.3208L63.2242 50.8498C63.8572 50.8958 64.5312 50.9208 65.2322 50.9208C67.3922 50.9208 69.3042 50.6848 70.5102 50.3208H70.6422V51.8478C70.4502 51.9928 69.8852 52.3098 68.4882 52.5198C67.8462 52.6168 67.0312 52.6908 65.9922 52.7148L64.9502 52.2808L63.2172 51.5588L63.2082 52.3688L63.2052 52.6558V52.7178C63.1962 52.7388 63.1822 52.7678 63.1642 52.8008C63.1612 52.8078 63.1552 52.8158 63.1512 52.8228C63.0872 52.9328 62.9682 53.0878 62.7403 53.2648C62.7133 53.2858 62.6783 53.3088 62.6473 53.3308C62.5793 53.3788 62.5023 53.4278 62.4173 53.4778C62.4143 53.4798 62.4113 53.4818 62.4083 53.4828C62.3383 53.5228 62.2663 53.5638 62.1853 53.6038C62.1133 53.6398 62.0363 53.6748 61.9543 53.7108C61.9423 53.7158 61.9323 53.7208 61.9203 53.7268C61.9473 53.7308 61.9773 53.7338 62.0053 53.7368C62.1643 53.7588 62.3333 53.7788 62.5083 53.7978C62.6173 53.8088 62.7333 53.8188 62.8483 53.8288C63.5302 53.8898 64.3122 53.9268 65.2322 53.9268C67.0282 53.9268 68.3272 53.7918 69.2792 53.5978C69.6242 53.5278 69.9242 53.4508 70.1822 53.3688C70.2612 53.3438 70.3352 53.3188 70.4062 53.2928C70.5512 53.2408 70.6862 53.1878 70.8032 53.1338C71.4942 52.8158 71.7212 52.4868 71.7932 52.3208L71.8352 49.6618L71.8382 49.4418C71.8392 49.4338 71.8442 49.4258 71.8442 49.4188C71.8452 49.4108 71.8402 49.4048 71.8402 49.3978Z" fill="#1C3553"/>
<path fill-rule="evenodd" clip-rule="evenodd" d="M71.8402 44.5885L71.8442 44.3085H71.7122C71.6112 44.1955 71.4492 44.0875 71.2432 43.9855C71.1712 44.0215 71.0942 44.0565 71.0122 44.0925C70.8412 44.1665 70.6442 44.2385 70.4242 44.3085C70.4182 44.3105 70.4112 44.3125 70.4042 44.3145C69.3612 44.6435 67.7492 44.9085 65.2322 44.9085C64.4912 44.9085 63.8302 44.8855 63.2362 44.8445V44.8525L63.2302 45.5105L63.2242 46.0405C63.8582 46.0865 64.5322 46.1115 65.2322 46.1115C67.3942 46.1115 69.3072 45.8755 70.5132 45.5105H70.6432V47.0385C70.4502 47.1835 69.8852 47.5005 68.4882 47.7105C67.8472 47.8075 67.0322 47.8815 65.9932 47.9065L64.9512 47.4715L63.2172 46.7495L63.2092 47.5595L63.2062 47.8465L63.2052 47.9085C63.1972 47.9295 63.1832 47.9585 63.1652 47.9905C63.1622 47.9975 63.1562 48.0065 63.1522 48.0135C63.0882 48.1225 62.9693 48.2785 62.7413 48.4545C62.7143 48.4765 62.6793 48.4985 62.6483 48.5205C62.5803 48.5695 62.5033 48.6185 62.4173 48.6685C62.4143 48.6705 62.4113 48.6715 62.4083 48.6735C62.3393 48.7135 62.2673 48.7535 62.1853 48.7935C62.1133 48.8295 62.0363 48.8655 61.9543 48.9005C61.9423 48.9065 61.9333 48.9115 61.9203 48.9165C61.9483 48.9205 61.9783 48.9235 62.0063 48.9275C62.1653 48.9495 62.3343 48.9695 62.5093 48.9875C62.6173 48.9995 62.7333 49.0095 62.8483 49.0195C63.5302 49.0795 64.3122 49.1175 65.2322 49.1175C67.0282 49.1175 68.3282 48.9815 69.2802 48.7885C69.6252 48.7185 69.9252 48.6415 70.1832 48.5595C70.2622 48.5345 70.3362 48.5095 70.4072 48.4835C70.5522 48.4315 70.6872 48.3775 70.8042 48.3245C71.4952 48.0065 71.7212 47.6765 71.7942 47.5115L71.8362 44.8515L71.8392 44.6315C71.8402 44.6235 71.8442 44.6155 71.8442 44.6085C71.8452 44.6025 71.8402 44.5955 71.8402 44.5885Z" fill="#1C3553"/>
<path fill-rule="evenodd" clip-rule="evenodd" d="M71.8402 39.7797L71.8442 39.4997H71.7122C71.6112 39.3867 71.4492 39.2787 71.2442 39.1767C71.1722 39.2127 71.0952 39.2477 71.0132 39.2837C70.8422 39.3577 70.6442 39.4297 70.4242 39.4997C70.4182 39.5017 70.4112 39.5037 70.4052 39.5057C69.3622 39.8357 67.7492 40.0997 65.2322 40.0997C64.4912 40.0997 63.8302 40.0767 63.2362 40.0357V40.0437L63.2292 40.7027L63.2242 41.2317C63.8582 41.2777 64.5322 41.3027 65.2322 41.3027C67.3932 41.3027 69.3052 41.0657 70.5122 40.7027H70.6422V42.2307C70.4502 42.3756 69.8842 42.6916 68.4892 42.9016C67.8472 42.9976 67.0312 43.0726 65.9922 43.0966L64.9502 42.6626L63.2172 41.9407L63.2092 42.7496L63.2062 43.0366L63.2052 43.0986C63.1962 43.1206 63.1822 43.1496 63.1652 43.1816C63.1612 43.1886 63.1552 43.1976 63.1512 43.2046C63.0872 43.3136 62.9682 43.4696 62.7413 43.6456C62.7133 43.6676 62.6783 43.6896 62.6483 43.7116C62.5793 43.7606 62.5023 43.8096 62.4173 43.8596C62.4143 43.8616 62.4113 43.8626 62.4083 43.8646C62.3393 43.9046 62.2663 43.9446 62.1853 43.9856C62.1133 44.0216 62.0363 44.0566 61.9543 44.0916C61.9423 44.0976 61.9323 44.1026 61.9203 44.1076C61.9473 44.1116 61.9773 44.1146 62.0053 44.1186C62.1643 44.1406 62.3333 44.1606 62.5083 44.1786C62.6173 44.1906 62.7323 44.2006 62.8473 44.2106C63.5292 44.2716 64.3122 44.3086 65.2322 44.3086C67.0282 44.3086 68.3282 44.1736 69.2802 43.9796C69.6242 43.9096 69.9252 43.8336 70.1832 43.7506C70.2612 43.7266 70.3362 43.7006 70.4072 43.6756C70.5522 43.6226 70.6872 43.5696 70.8052 43.5156C71.4952 43.1986 71.7212 42.8686 71.7932 42.7036L71.8352 40.0437L71.8392 39.8237C71.8392 39.8157 71.8442 39.8077 71.8442 39.7997C71.8452 39.7927 71.8402 39.7867 71.8402 39.7797Z" fill="#1C3553"/>
<path fill-rule="evenodd" clip-rule="evenodd" d="M62.4177 34.2422C62.6327 34.3802 62.8117 34.5282 62.9437 34.6902C62.9707 34.7232 63.0137 34.7512 63.0367 34.7842H63.2097L63.2367 35.2352L63.2307 35.8932L63.2247 36.4232C63.8587 36.4692 64.5327 36.4942 65.2327 36.4942C67.3947 36.4942 69.3087 36.2572 70.5147 35.8932H70.6427V37.4212C70.4507 37.5662 69.8857 37.8822 68.4887 38.0932C67.8477 38.1902 67.0317 38.2642 65.9937 38.2882L64.9507 37.8542L63.2177 37.1312L63.2097 37.9412L63.2057 38.2282V38.2902C63.1967 38.3122 63.1837 38.3402 63.1657 38.3732C63.1617 38.3802 63.1567 38.3882 63.1517 38.3952C63.0887 38.5052 62.9697 38.6602 62.7417 38.8372C62.7137 38.8582 62.6797 38.8802 62.6487 38.9032C62.5797 38.9512 62.5027 39.0002 62.4177 39.0502C62.4147 39.0522 62.4117 39.0532 62.4087 39.0552C62.3397 39.0952 62.2677 39.1352 62.1857 39.1762C62.1137 39.2122 62.0367 39.2472 61.9547 39.2832C61.9427 39.2882 61.9337 39.2932 61.9217 39.2982C61.9487 39.3032 61.9787 39.3052 62.0067 39.3102C62.1657 39.3312 62.3347 39.3512 62.5097 39.3702C62.6187 39.3822 62.7337 39.3922 62.8487 39.4022C63.5307 39.4622 64.3127 39.4992 65.2327 39.4992C67.0287 39.4992 68.3287 39.3642 69.2797 39.1712C69.6247 39.1012 69.9257 39.0232 70.1837 38.9412C70.2617 38.9162 70.3367 38.8912 70.4077 38.8652C70.5527 38.8132 70.6877 38.7602 70.8047 38.7062C71.4957 38.3882 71.7217 38.0582 71.7947 37.8932L71.8367 35.2342L71.8397 35.0142C71.8407 35.0062 71.8447 34.9992 71.8447 34.9912C71.8447 34.9842 71.8407 34.9772 71.8407 34.9702L71.8447 34.6902H71.7117C71.0987 34.0042 68.4317 33.4882 65.2317 33.4882C64.5097 33.4882 63.8157 33.5152 63.1647 33.5642C63.1617 33.5712 63.1557 33.5802 63.1517 33.5872C63.0797 33.7102 62.9327 33.8922 62.6477 34.0942C62.5807 34.1432 62.5037 34.1922 62.4177 34.2422Z" fill="#1C3553"/>
<path fill-rule="evenodd" clip-rule="evenodd" d="M55.5562 38.7661C55.6632 38.8351 55.7632 38.9061 55.8502 38.9821C55.9302 39.0511 56.0002 39.1231 56.0622 39.1981C56.0922 39.2341 56.1402 39.2661 56.1662 39.3041H56.3392L56.3512 39.4971C57.1932 39.4931 57.9242 39.4591 58.5602 39.4021C58.6752 39.3921 58.7902 39.3821 58.8992 39.3701C59.0732 39.3511 59.2422 39.3321 59.4022 39.3101C59.4292 39.3061 59.4592 39.3031 59.4862 39.2991C59.7552 39.2601 59.9952 39.2171 60.2222 39.1711C60.2802 39.1591 60.3362 39.1471 60.3922 39.1341C60.5002 39.1111 60.6052 39.0861 60.7042 39.0611C60.8552 39.0231 60.9962 38.9831 61.1252 38.9411C61.1822 38.9231 61.2352 38.9051 61.2882 38.8861C61.3082 38.8791 61.3302 38.8731 61.3502 38.8651C61.4912 38.8151 61.6212 38.7631 61.7352 38.7111C61.7392 38.7091 61.7442 38.7081 61.7472 38.7061C61.8752 38.6471 61.9842 38.5881 62.0822 38.5291C62.1162 38.5081 62.1502 38.4881 62.1812 38.4671C62.3432 38.3611 62.4632 38.2591 62.5482 38.1671C62.6042 38.1061 62.6452 38.0511 62.6762 38.0011C62.7022 37.9611 62.7232 37.9241 62.7362 37.8931L62.7512 36.9371L62.7602 36.3841L62.7682 35.8921L62.7782 35.2341L62.7812 35.0151C62.7822 35.0071 62.7872 34.9991 62.7872 34.9901C62.7872 34.9831 62.7822 34.9761 62.7822 34.9691L62.7862 34.6901H62.6542C62.5532 34.5771 62.3912 34.4701 62.1862 34.3681C62.1142 34.4031 62.0372 34.4391 61.9552 34.4741C61.7852 34.5481 61.5892 34.6201 61.3702 34.6901C61.3622 34.6921 61.3542 34.6951 61.3472 34.6971C60.8202 34.8631 60.1432 35.0121 59.2792 35.1191C59.0892 35.1431 58.8882 35.1631 58.6802 35.1831C58.6772 35.1831 58.6742 35.1831 58.6712 35.1831C58.6552 35.1851 58.6372 35.1871 58.6202 35.1881C58.4712 35.2011 58.3292 35.2161 58.1702 35.2271C57.6292 35.2641 57.0242 35.2841 56.3622 35.2881L56.3552 35.8921L56.3492 36.4911C56.9822 36.4881 57.5932 36.4651 58.1702 36.4231C58.3232 36.4121 58.4722 36.3991 58.6202 36.3861C58.7232 36.3771 58.8242 36.3671 58.9242 36.3561C58.9742 36.3511 59.0222 36.3451 59.0702 36.3401C59.3302 36.3111 59.5832 36.2801 59.8222 36.2431C60.1372 36.1961 60.4292 36.1421 60.7032 36.0841C60.9772 36.0251 61.2282 35.9611 61.4552 35.8921H61.5842V36.2431V36.4511V37.4211C61.4652 37.5101 61.2012 37.6651 60.6912 37.8211C60.3782 37.9161 59.9702 38.0111 59.4412 38.0911C59.4382 38.0921 59.4332 38.0921 59.4302 38.0931C59.3602 38.1031 59.2872 38.1131 59.2132 38.1231C59.1012 38.1381 58.9812 38.1521 58.8592 38.1661C58.7922 38.1731 58.7272 38.1811 58.6572 38.1881C58.5092 38.2031 58.3522 38.2161 58.1902 38.2281C57.8122 38.2561 57.3962 38.2771 56.9352 38.2881L56.3202 38.0321C56.2922 38.0931 56.2392 38.1841 56.1402 38.2961L56.1392 38.2971C56.0202 38.4321 55.8312 38.5931 55.5462 38.7601C55.5502 38.7621 55.5532 38.7641 55.5562 38.7661Z" fill="#1C3553"/>
<path fill-rule="evenodd" clip-rule="evenodd" d="M59.4302 33.284C58.7892 33.381 57.9742 33.455 56.9362 33.479L56.3202 33.222C56.2922 33.284 56.2392 33.375 56.1402 33.488H56.1392C56.0212 33.623 55.8322 33.784 55.5462 33.951C55.5492 33.953 55.5532 33.955 55.5562 33.957C55.6632 34.026 55.7622 34.097 55.8492 34.172C55.9302 34.241 56.0002 34.314 56.0622 34.389C56.0922 34.425 56.1392 34.456 56.1652 34.493H56.3382L56.3502 34.688C57.1922 34.684 57.9232 34.649 58.5592 34.593C58.6732 34.583 58.7882 34.573 58.8972 34.561C59.0722 34.542 59.2412 34.522 59.4002 34.501C59.7012 34.459 59.9712 34.412 60.2212 34.362C60.5662 34.292 60.8672 34.214 61.1252 34.133C61.2032 34.107 61.2782 34.082 61.3492 34.057C61.4942 34.004 61.6292 33.951 61.7462 33.898C61.8752 33.838 61.9832 33.779 62.0822 33.72C62.1162 33.699 62.1492 33.679 62.1802 33.658C62.4492 33.482 62.5972 33.317 62.6752 33.193C62.7012 33.153 62.7222 33.115 62.7352 33.085L62.7772 30.425L62.7802 30.206C62.7812 30.198 62.7862 30.19 62.7862 30.181C62.7862 30.174 62.7812 30.167 62.7812 30.16L62.7852 29.881H62.6532C62.5522 29.768 62.3902 29.66 62.1852 29.558C62.1132 29.594 62.0362 29.629 61.9542 29.665C61.7832 29.739 61.5852 29.811 61.3662 29.881C61.3592 29.883 61.3522 29.885 61.3462 29.887C60.3302 30.208 58.7662 30.465 56.3612 30.478L56.3552 31.083L56.3492 31.682C58.4372 31.67 60.2802 31.438 61.4542 31.083H61.5832V32.612C61.3922 32.757 60.8272 33.074 59.4302 33.284Z" fill="#1C3553"/>
<path fill-rule="evenodd" clip-rule="evenodd" d="M49.8619 27.9514C49.9119 27.9524 49.9619 27.9534 50.0129 27.9554C50.3819 27.9674 50.7509 27.9874 51.1189 28.0174C51.9889 28.0884 52.8349 28.2084 53.5879 28.3874C53.8909 28.4594 54.1789 28.5394 54.4459 28.6294C54.5279 28.6564 54.5969 28.6904 54.6759 28.7194C54.6839 28.7224 54.6919 28.7264 54.6999 28.7284C55.0269 28.8534 55.3139 28.9924 55.5559 29.1484C55.6629 29.2174 55.7619 29.2884 55.8499 29.3634C55.9299 29.4324 55.9999 29.5054 56.0619 29.5794C56.0919 29.6164 56.1389 29.6474 56.1649 29.6854H56.3379L56.3499 29.8794C58.0519 29.8704 59.3029 29.7394 60.2209 29.5534C60.5659 29.4834 60.8669 29.4064 61.1239 29.3244C61.2029 29.2994 61.2769 29.2734 61.3489 29.2484C61.4939 29.1954 61.6289 29.1424 61.7459 29.0884C62.4369 28.7704 62.6639 28.4404 62.7359 28.2754L62.7779 25.6174L62.7809 25.3984C62.7819 25.3904 62.7869 25.3824 62.7869 25.3734C62.7869 25.3664 62.7819 25.3594 62.7819 25.3524L62.7859 25.0734H62.6539C62.5539 24.9604 62.3919 24.8524 62.1859 24.7504C62.1139 24.7864 62.0369 24.8214 61.9549 24.8574C61.7839 24.9314 61.5869 25.0034 61.3659 25.0734C61.3599 25.0754 61.3529 25.0774 61.3469 25.0794C60.3039 25.4094 58.6909 25.6744 56.1739 25.6744C53.6569 25.6744 52.0449 25.4094 51.0019 25.0804C50.9959 25.0784 50.9889 25.0764 50.9819 25.0744C50.7619 25.0044 50.5649 24.9314 50.3939 24.8574C50.3119 24.8224 50.2349 24.7864 50.1629 24.7514C49.9569 24.8534 49.7959 24.9614 49.6949 25.0744H49.5619V27.9464C49.6619 27.9454 49.7619 27.9494 49.8619 27.9514ZM51.6449 26.4654C52.8279 26.7194 54.4189 26.8754 56.1749 26.8754C58.3349 26.8754 60.2469 26.6394 61.4539 26.2754H61.5839V27.8024C61.3919 27.9474 60.8269 28.2644 59.4299 28.4744C58.7889 28.5714 57.9729 28.6454 56.9339 28.6694L55.8919 28.2354L51.6449 26.4654Z" fill="#1C3553"/>
<path fill-rule="evenodd" clip-rule="evenodd" d="M49.6129 23.4675C49.6849 23.6325 49.9119 23.9625 50.6019 24.2795C50.7189 24.3335 50.8539 24.3865 50.9989 24.4395C51.0709 24.4645 51.1449 24.4905 51.2239 24.5155C51.4819 24.5975 51.7819 24.6745 52.1269 24.7445C53.0789 24.9375 54.3789 25.0725 56.1749 25.0725C57.9709 25.0725 59.2709 24.9375 60.2219 24.7445C60.5669 24.6745 60.8679 24.5965 61.1259 24.5145C61.2039 24.4895 61.2789 24.4645 61.3499 24.4385C61.4949 24.3865 61.6299 24.3335 61.7469 24.2795C62.4379 23.9615 62.6639 23.6315 62.7359 23.4665L62.7779 20.8075L62.7819 20.5885C62.7819 20.5805 62.7869 20.5725 62.7869 20.5645C62.7869 20.5565 62.7829 20.5495 62.7819 20.5425L62.7869 20.2635H62.6539C62.0409 19.5775 59.3739 19.0615 56.1739 19.0615C52.9749 19.0615 50.3069 19.5775 49.6949 20.2635H49.5619V23.2255V23.2265L49.6129 23.4675ZM56.9349 23.8615L55.8929 23.4265L51.6449 21.6565C52.8289 21.9105 54.4199 22.0665 56.1749 22.0665C58.3369 22.0665 60.2499 21.8305 61.4559 21.4655H61.5849V22.9935C61.3929 23.1385 60.8279 23.4555 59.4309 23.6665C58.7889 23.7625 57.9739 23.8365 56.9349 23.8615Z" fill="#1C3553"/>
<path fill-rule="evenodd" clip-rule="evenodd" d="M55.8492 67.8357C55.8742 67.8577 55.8922 67.8817 55.9162 67.9037C55.9672 67.9517 56.0192 68.0007 56.0612 68.0517C56.0912 68.0887 56.1392 68.1197 56.1652 68.1577H56.3382L56.3502 68.3517C57.0252 68.3477 57.6292 68.3257 58.1702 68.2877C58.3252 68.2767 58.4752 68.2647 58.6202 68.2517C58.6242 68.2507 58.6272 68.2507 58.6312 68.2507C58.6692 68.2467 58.7132 68.2447 58.7512 68.2407C59.0122 68.2147 59.2572 68.1857 59.4862 68.1537C59.5112 68.1497 59.5322 68.1457 59.5572 68.1417C59.8652 68.0957 60.1392 68.0447 60.3912 67.9887C60.4992 67.9647 60.6052 67.9407 60.7032 67.9157C60.7192 67.9117 60.7332 67.9077 60.7482 67.9037C60.8592 67.8747 60.9702 67.8457 61.0692 67.8157C61.1472 67.7917 61.2172 67.7657 61.2882 67.7407C61.4462 67.6857 61.5932 67.6297 61.7192 67.5727C61.7242 67.5697 61.7302 67.5677 61.7352 67.5657C61.8072 67.5327 61.8702 67.4997 61.9332 67.4657C61.9742 67.4447 62.0162 67.4227 62.0532 67.4017C62.1012 67.3727 62.1452 67.3447 62.1872 67.3177C62.3462 67.2127 62.4632 67.1117 62.5472 67.0207C62.6062 66.9577 62.6482 66.8997 62.6802 66.8497C62.6872 66.8377 62.6952 66.8257 62.7012 66.8157C62.7152 66.7907 62.7272 66.7677 62.7362 66.7477L62.7422 66.3977L62.7512 65.7917L62.7602 65.2387L62.7682 64.7477L62.7782 64.0887L62.7792 64.0417C62.7642 64.0407 62.7502 64.0397 62.7362 64.0387C62.7332 64.0377 62.7302 64.0377 62.7272 64.0377C62.5192 64.0187 62.3182 63.9977 62.1292 63.9737C61.5812 63.9057 61.1102 63.8217 60.7042 63.7257C60.2982 63.8217 59.8262 63.9057 59.2792 63.9737C59.0892 63.9977 58.8892 64.0177 58.6802 64.0377C58.6782 64.0377 58.6752 64.0387 58.6722 64.0387C58.6552 64.0397 58.6382 64.0417 58.6212 64.0427C58.4722 64.0567 58.3292 64.0707 58.1702 64.0817C57.6302 64.1197 57.0242 64.1397 56.3622 64.1427L56.3562 64.7477L56.3502 65.3467C56.9822 65.3427 57.5942 65.3197 58.1702 65.2787C58.3232 65.2677 58.4722 65.2547 58.6202 65.2407C58.7232 65.2317 58.8242 65.2217 58.9252 65.2117C58.9742 65.2067 59.0222 65.2007 59.0712 65.1957C59.3312 65.1667 59.5842 65.1347 59.8232 65.0987C60.1372 65.0517 60.4302 64.9977 60.7032 64.9387C60.9772 64.8807 61.2272 64.8167 61.4532 64.7487H61.5842V65.0997V65.3067V66.2757C61.4652 66.3657 61.2022 66.5207 60.6922 66.6757C60.6422 66.6917 60.5922 66.7067 60.5362 66.7217C60.2832 66.7917 59.9732 66.8597 59.6022 66.9207C59.5502 66.9297 59.4972 66.9377 59.4422 66.9467C59.4352 66.9477 59.4282 66.9487 59.4212 66.9497C59.3542 66.9597 59.2842 66.9687 59.2142 66.9787C59.1012 66.9937 58.9822 67.0077 58.8592 67.0217C58.7922 67.0287 58.7282 67.0367 58.6572 67.0437C58.5092 67.0587 58.3522 67.0717 58.1902 67.0837C57.8122 67.1117 57.3962 67.1317 56.9352 67.1437L56.3202 66.8867C56.2922 66.9487 56.2392 67.0397 56.1402 67.1527L56.1392 67.1537C56.0202 67.2877 55.8322 67.4487 55.5472 67.6157C55.6572 67.6857 55.7592 67.7587 55.8492 67.8357Z" fill="#2988FF"/>
<path fill-rule="evenodd" clip-rule="evenodd" d="M55.5563 62.8116C55.6633 62.8806 55.7623 62.9516 55.8493 63.0266C55.9303 63.0956 56.0003 63.1686 56.0623 63.2436C56.0923 63.2796 56.1393 63.3106 56.1653 63.3476H56.3383L56.3503 63.5426C57.1923 63.5386 57.9233 63.5036 58.5593 63.4476C58.6733 63.4366 58.7893 63.4276 58.8973 63.4156C59.0723 63.3966 59.2413 63.3766 59.4003 63.3556C59.4283 63.3516 59.4583 63.3476 59.4863 63.3446C59.7543 63.3056 59.9953 63.2626 60.2213 63.2156C60.2803 63.2036 60.3363 63.1916 60.3923 63.1796C60.4993 63.1556 60.6053 63.1316 60.7033 63.1066C60.8543 63.0676 60.9953 63.0276 61.1253 62.9866C61.1823 62.9686 61.2343 62.9506 61.2873 62.9316C61.3073 62.9246 61.3293 62.9176 61.3493 62.9106C61.4903 62.8596 61.6213 62.8086 61.7353 62.7556C61.7393 62.7546 61.7433 62.7526 61.7463 62.7516C61.8753 62.6916 61.9843 62.6326 62.0823 62.5736C62.1173 62.5526 62.1503 62.5326 62.1813 62.5126C62.3433 62.4056 62.4633 62.3036 62.5473 62.2116C62.6043 62.1506 62.6453 62.0956 62.6763 62.0466C62.7013 62.0066 62.7223 61.9686 62.7363 61.9386L62.7513 60.9816L62.7603 60.4286L62.7673 59.9376L62.7783 59.2796V59.2326C62.7643 59.2306 62.7503 59.2296 62.7353 59.2286C62.7323 59.2276 62.7293 59.2276 62.7263 59.2276C62.5193 59.2086 62.3183 59.1876 62.1293 59.1636C61.5813 59.0956 61.1093 59.0116 60.7033 58.9156C60.2973 59.0116 59.8263 59.0956 59.2783 59.1636C59.0893 59.1876 58.8883 59.2076 58.6803 59.2276C58.6773 59.2276 58.6743 59.2276 58.6713 59.2276C58.6543 59.2296 58.6373 59.2306 58.6203 59.2326C58.4713 59.2456 58.3293 59.2606 58.1703 59.2716C57.6293 59.3086 57.0243 59.3286 56.3623 59.3326L56.3553 59.9366L56.3493 60.5356C56.9823 60.5326 57.5933 60.5096 58.1703 60.4676C58.3233 60.4566 58.4723 60.4436 58.6203 60.4306C58.7233 60.4216 58.8243 60.4116 58.9243 60.4006C58.9733 60.3956 59.0213 60.3896 59.0703 60.3846C59.3303 60.3556 59.5833 60.3236 59.8223 60.2876C60.1373 60.2406 60.4293 60.1866 60.7033 60.1276C60.9773 60.0696 61.2283 60.0056 61.4553 59.9366H61.5833V60.2876V60.4956V61.4656C61.4653 61.5546 61.2013 61.7096 60.6913 61.8656C60.3773 61.9606 59.9703 62.0556 59.4413 62.1356C59.4373 62.1366 59.4333 62.1366 59.4293 62.1376C59.3593 62.1476 59.2873 62.1586 59.2133 62.1676C59.1003 62.1836 58.9813 62.1966 58.8583 62.2106C58.7913 62.2186 58.7273 62.2266 58.6563 62.2336C58.5083 62.2476 58.3513 62.2606 58.1893 62.2726C57.8113 62.3006 57.3953 62.3216 56.9353 62.3326L56.3193 62.0756C56.2913 62.1376 56.2383 62.2286 56.1393 62.3416H56.1383C56.0203 62.4766 55.8313 62.6376 55.5453 62.8046C55.5493 62.8076 55.5533 62.8096 55.5563 62.8116Z" fill="#2988FF"/>
<path fill-rule="evenodd" clip-rule="evenodd" d="M55.5552 58.0015C55.6632 58.0705 55.7622 58.1415 55.8502 58.2175C55.9312 58.2875 56.0012 58.3595 56.0632 58.4345C56.0932 58.4705 56.1402 58.5015 56.1662 58.5385H56.3392L56.3512 58.7325C57.1932 58.7285 57.9242 58.6935 58.5602 58.6375C58.6752 58.6275 58.7902 58.6175 58.8992 58.6055C59.0742 58.5875 59.2432 58.5675 59.4032 58.5455C59.4302 58.5425 59.4602 58.5385 59.4862 58.5355C59.7552 58.4965 59.9962 58.4535 60.2232 58.4065C60.2812 58.3955 60.3362 58.3825 60.3922 58.3705C60.5002 58.3465 60.6062 58.3225 60.7042 58.2975C60.8552 58.2595 60.9962 58.2195 61.1262 58.1785C61.1822 58.1605 61.2342 58.1425 61.2872 58.1235C61.3082 58.1165 61.3302 58.1095 61.3502 58.1025C61.4912 58.0515 61.6222 57.9995 61.7362 57.9475C61.7402 57.9455 61.7442 57.9445 61.7482 57.9425C61.8762 57.8835 61.9852 57.8245 62.0832 57.7655C62.1182 57.7445 62.1512 57.7235 62.1822 57.7035C62.3442 57.5975 62.4642 57.4945 62.5492 57.4025C62.6052 57.3415 62.6462 57.2865 62.6782 57.2375C62.7032 57.1975 62.7242 57.1605 62.7372 57.1295L62.7522 56.1735L62.7612 55.6195L62.7682 55.1285L62.7792 54.4706V54.4226C62.7652 54.4216 62.7512 54.4196 62.7362 54.4186C62.7332 54.4186 62.7302 54.4186 62.7282 54.4176C62.5202 54.3986 62.3192 54.3786 62.1292 54.3546C61.5822 54.2866 61.1102 54.2016 60.7042 54.1066C60.2982 54.2016 59.8272 54.2866 59.2802 54.3546C59.0902 54.3776 58.8892 54.3986 58.6812 54.4176C58.6782 54.4186 58.6752 54.4186 58.6722 54.4186C58.6552 54.4206 58.6382 54.4216 58.6212 54.4236C58.4722 54.4366 58.3302 54.4516 58.1712 54.4626C57.6302 54.4996 57.0252 54.5196 56.3632 54.5236L56.3562 55.1285L56.3502 55.7275C56.9832 55.7235 57.5942 55.7005 58.1712 55.6595C58.3242 55.6485 58.4732 55.6355 58.6212 55.6215C58.7242 55.6125 58.8252 55.6025 58.9252 55.5915C58.9752 55.5865 59.0232 55.5805 59.0712 55.5755C59.3312 55.5465 59.5842 55.5145 59.8232 55.4795C60.1382 55.4315 60.4302 55.3775 60.7042 55.3195C60.9782 55.2605 61.2282 55.1965 61.4552 55.1285H61.5842V55.4795V55.6865V56.6565C61.4662 56.7465 61.2022 56.9005 60.6922 57.0555C60.3782 57.1515 59.9702 57.2465 59.4422 57.3265C59.4382 57.3265 59.4342 57.3275 59.4312 57.3275C59.3612 57.3385 59.2882 57.3485 59.2142 57.3585C59.1012 57.3735 58.9822 57.3875 58.8592 57.4015C58.7922 57.4085 58.7272 57.4165 58.6572 57.4235C58.5092 57.4385 58.3522 57.4515 58.1902 57.4635C57.8122 57.4915 57.3952 57.5125 56.9342 57.5225L56.3202 57.2675C56.2922 57.3285 56.2402 57.4195 56.1412 57.5315C56.1412 57.5325 56.1402 57.5325 56.1402 57.5325C56.0212 57.6675 55.8322 57.8295 55.5472 57.9965C55.5492 57.9985 55.5522 57.9995 55.5552 58.0015Z" fill="#2988FF"/>
<path fill-rule="evenodd" clip-rule="evenodd" d="M55.5562 53.193C55.6632 53.262 55.7632 53.333 55.8502 53.409C55.9302 53.478 56.0002 53.55 56.0622 53.625C56.0922 53.661 56.1402 53.693 56.1662 53.73H56.3392L56.3512 53.924C57.1932 53.92 57.9242 53.885 58.5602 53.829C58.6752 53.819 58.7902 53.809 58.8992 53.797C59.0742 53.778 59.2432 53.759 59.4022 53.737C59.4302 53.733 59.4602 53.73 59.4872 53.726C59.7552 53.688 59.9962 53.644 60.2222 53.598C60.2812 53.586 60.3362 53.574 60.3922 53.562C60.5002 53.538 60.6062 53.514 60.7042 53.489C60.8552 53.45 60.9962 53.411 61.1252 53.369C61.1822 53.351 61.2352 53.333 61.2882 53.314C61.3092 53.307 61.3302 53.3 61.3502 53.293C61.4912 53.243 61.6212 53.191 61.7362 53.139C61.7402 53.137 61.7442 53.135 61.7482 53.134C61.8762 53.075 61.9842 53.016 62.0822 52.957C62.1172 52.936 62.1502 52.916 62.1812 52.895C62.3432 52.788 62.4632 52.686 62.5492 52.594C62.6052 52.533 62.6462 52.479 62.6772 52.429C62.7022 52.389 62.7232 52.351 62.7372 52.321L62.7522 51.365L62.7612 50.811L62.7682 50.321L62.7792 49.662V49.614C62.7652 49.613 62.7512 49.612 62.7372 49.611C62.7342 49.61 62.7312 49.61 62.7282 49.61C62.5202 49.591 62.3192 49.57 62.1292 49.546C61.5822 49.479 61.1102 49.394 60.7042 49.298C60.2982 49.394 59.8272 49.479 59.2802 49.546C59.0902 49.57 58.8892 49.591 58.6812 49.61C58.6782 49.61 58.6752 49.611 58.6722 49.611C58.6562 49.612 58.6382 49.614 58.6212 49.615C58.4722 49.629 58.3302 49.644 58.1712 49.655C57.6302 49.692 57.0252 49.712 56.3632 49.715L56.3562 50.321L56.3502 50.919C56.9832 50.915 57.5942 50.892 58.1712 50.851C58.3242 50.84 58.4732 50.827 58.6212 50.813C58.7242 50.804 58.8252 50.794 58.9252 50.783C58.9752 50.778 59.0232 50.772 59.0712 50.767C59.3312 50.738 59.5842 50.706 59.8232 50.671C60.1382 50.623 60.4302 50.569 60.7042 50.511C60.9772 50.452 61.2272 50.389 61.4532 50.32H61.5852V50.671V50.878V51.848C61.4662 51.937 61.2022 52.092 60.6922 52.247C60.3792 52.343 59.9712 52.438 59.4422 52.518C59.4392 52.519 59.4342 52.519 59.4312 52.52C59.3612 52.53 59.2882 52.54 59.2142 52.55C59.1022 52.565 58.9822 52.579 58.8602 52.593C58.7932 52.6 58.7282 52.608 58.6582 52.615C58.5102 52.63 58.3532 52.643 58.1912 52.655C57.8132 52.683 57.3972 52.704 56.9362 52.715L56.3202 52.458C56.2932 52.52 56.2402 52.611 56.1412 52.723C56.1412 52.724 56.1412 52.724 56.1412 52.724H56.1402C56.0212 52.859 55.8322 53.02 55.5472 53.187C55.5502 53.189 55.5532 53.191 55.5562 53.193Z" fill="#2988FF"/>
<path fill-rule="evenodd" clip-rule="evenodd" d="M55.5563 48.3842C55.6633 48.4532 55.7623 48.5242 55.8493 48.5992C55.9303 48.6692 56.0003 48.7412 56.0623 48.8162C56.0923 48.8522 56.1393 48.8832 56.1653 48.9212H56.3383L56.3503 49.1152C57.1923 49.1112 57.9233 49.0772 58.5593 49.0202C58.6733 49.0102 58.7893 49.0002 58.8973 48.9882C59.0723 48.9692 59.2413 48.9502 59.4003 48.9282C59.4283 48.9242 59.4583 48.9212 59.4863 48.9172C59.7543 48.8792 59.9953 48.8352 60.2213 48.7892C60.2803 48.7772 60.3363 48.7652 60.3923 48.7522C60.4993 48.7282 60.6053 48.7042 60.7033 48.6792C60.8543 48.6412 60.9953 48.6012 61.1253 48.5592C61.1823 48.5412 61.2343 48.5232 61.2873 48.5052C61.3073 48.4982 61.3293 48.4902 61.3493 48.4832C61.4903 48.4332 61.6213 48.3812 61.7353 48.3292C61.7383 48.3272 61.7423 48.3262 61.7463 48.3242C61.8753 48.2652 61.9833 48.2052 62.0823 48.1462C62.1163 48.1262 62.1493 48.1052 62.1803 48.0852C62.3423 47.9782 62.4623 47.8762 62.5473 47.7852C62.6033 47.7242 62.6443 47.6692 62.6753 47.6192C62.7013 47.5792 62.7223 47.5422 62.7353 47.5112L62.7503 46.5552L62.7593 46.0012L62.7673 45.5102L62.7773 44.8522L62.7783 44.8042C62.7633 44.8032 62.7493 44.8012 62.7343 44.8002C62.7323 44.7992 62.7293 44.7992 62.7263 44.7992C62.5183 44.7802 62.3163 44.7592 62.1273 44.7362C61.5803 44.6682 61.1083 44.5832 60.7033 44.4882C60.2973 44.5832 59.8263 44.6672 59.2803 44.7352C59.0903 44.7592 58.8883 44.7802 58.6793 44.7992C58.6763 44.7992 58.6743 44.7992 58.6713 44.8002C58.6543 44.8012 58.6373 44.8032 58.6203 44.8042C58.4713 44.8182 58.3283 44.8332 58.1693 44.8442C57.6293 44.8812 57.0233 44.9012 56.3613 44.9052L56.3553 45.5102L56.3493 46.1082C56.9813 46.1052 57.5933 46.0822 58.1693 46.0402C58.3233 46.0302 58.4723 46.0162 58.6193 46.0032C58.7233 45.9942 58.8233 45.9842 58.9243 45.9732C58.9733 45.9682 59.0213 45.9622 59.0703 45.9572C59.3303 45.9282 59.5833 45.8972 59.8223 45.8612C60.1363 45.8132 60.4293 45.7602 60.7023 45.7012H60.7033C60.9773 45.6432 61.2273 45.5792 61.4543 45.5102H61.5833V45.8612V46.0682V47.0382C61.4653 47.1282 61.2013 47.2832 60.6913 47.4392C60.3773 47.5342 59.9703 47.6292 59.4413 47.7092C59.4373 47.7102 59.4333 47.7102 59.4293 47.7112C59.3593 47.7212 59.2873 47.7312 59.2133 47.7412C59.1003 47.7562 58.9813 47.7702 58.8583 47.7842C58.7913 47.7912 58.7273 47.7992 58.6563 47.8062C58.5083 47.8212 58.3513 47.8342 58.1893 47.8462C57.8113 47.8742 57.3953 47.8952 56.9353 47.9062L56.3193 47.6492C56.2913 47.7112 56.2383 47.8022 56.1393 47.9152H56.1383C56.0203 48.0502 55.8313 48.2112 55.5453 48.3782C55.5493 48.3802 55.5533 48.3822 55.5563 48.3842Z" fill="#2988FF"/>
<path fill-rule="evenodd" clip-rule="evenodd" d="M55.5552 43.5746C55.6632 43.6436 55.7622 43.7146 55.8492 43.7906C55.9302 43.8596 56.0002 43.9316 56.0622 44.0066C56.0922 44.0426 56.1402 44.0736 56.1652 44.1116H56.3382L56.3502 44.3056C57.1932 44.3016 57.9232 44.2666 58.5592 44.2106C58.6742 44.2006 58.7902 44.1906 58.8992 44.1786C59.0742 44.1606 59.2432 44.1406 59.4022 44.1186C59.4292 44.1146 59.4602 44.1116 59.4872 44.1076C59.7552 44.0696 59.9962 44.0256 60.2222 43.9796C60.2802 43.9676 60.3362 43.9556 60.3922 43.9436C60.5002 43.9196 60.6052 43.8956 60.7042 43.8706C60.8542 43.8316 60.9952 43.7926 61.1252 43.7506C61.1822 43.7326 61.2352 43.7146 61.2892 43.6956C61.3082 43.6886 61.3302 43.6816 61.3502 43.6746C61.4902 43.6246 61.6212 43.5726 61.7362 43.5206C61.7392 43.5186 61.7442 43.5176 61.7472 43.5156C61.8762 43.4566 61.9842 43.3976 62.0832 43.3386C62.1172 43.3176 62.1502 43.2976 62.1812 43.2766C62.3432 43.1706 62.4632 43.0676 62.5482 42.9766C62.6042 42.9156 62.6452 42.8606 62.6772 42.8106C62.7022 42.7706 62.7232 42.7336 62.7362 42.7036L62.7512 41.7466L62.7602 41.1936L62.7682 40.7026L62.7782 40.0436L62.7792 39.9966C62.7642 39.9956 62.7502 39.9946 62.7362 39.9936C62.7332 39.9926 62.7302 39.9926 62.7272 39.9926C62.5192 39.9736 62.3182 39.9526 62.1292 39.9286C61.5812 39.8606 61.1102 39.7766 60.7042 39.6806C60.2982 39.7766 59.8262 39.8606 59.2792 39.9286C59.0902 39.9526 58.8882 39.9736 58.6802 39.9926C58.6772 39.9926 58.6752 39.9936 58.6722 39.9936C58.6552 39.9946 58.6372 39.9956 58.6202 39.9976C58.4712 40.0116 58.3292 40.0256 58.1702 40.0366C57.6292 40.0746 57.0242 40.0946 56.3622 40.0976L56.3562 40.7026L56.3492 41.3016C56.9822 41.2976 57.5942 41.2746 58.1702 41.2336C58.3232 41.2226 58.4722 41.2096 58.6202 41.1956C58.7232 41.1866 58.8242 41.1766 58.9242 41.1656C58.9742 41.1606 59.0222 41.1556 59.0702 41.1496C59.3302 41.1206 59.5832 41.0896 59.8222 41.0536C60.1372 41.0056 60.4302 40.9516 60.7032 40.8936C60.9772 40.8346 61.2272 40.7706 61.4542 40.7026H61.5842V41.0536V41.2606V42.2316C61.4652 42.3206 61.2012 42.4756 60.6912 42.6306C60.3782 42.7256 59.9702 42.8206 59.4412 42.9006C59.4382 42.9016 59.4342 42.9016 59.4302 42.9026C59.3602 42.9126 59.2872 42.9226 59.2132 42.9326C59.1002 42.9476 58.9812 42.9616 58.8582 42.9756C58.7912 42.9826 58.7272 42.9906 58.6562 42.9976C58.5082 43.0126 58.3512 43.0256 58.1892 43.0376C57.8112 43.0656 57.3952 43.0866 56.9332 43.0966L56.3192 42.8406C56.2912 42.9026 56.2382 42.9936 56.1402 43.1056C56.1392 43.1056 56.1392 43.1066 56.1392 43.1066C56.0202 43.2416 55.8312 43.4026 55.5462 43.5696C55.5492 43.5716 55.5522 43.5726 55.5552 43.5746Z" fill="#2988FF"/>
<path fill-rule="evenodd" clip-rule="evenodd" d="M62.7362 71.1062L62.7512 70.1502L62.7602 69.5962L62.7672 69.1062L62.7712 68.8492C62.6222 68.8362 62.4662 68.8242 62.3272 68.8082C62.2992 68.8052 62.2752 68.8012 62.2472 68.7982C61.6472 68.7272 61.1392 68.6362 60.7032 68.5342C60.3342 68.6212 59.9082 68.6982 59.4232 68.7632C59.3432 68.7732 59.2662 68.7852 59.1832 68.7942C59.1752 68.7962 59.1682 68.7962 59.1602 68.7982C59.1292 68.8012 59.1022 68.8062 59.0712 68.8092C58.9292 68.8252 58.7722 68.8372 58.6212 68.8502C58.4722 68.8642 58.3292 68.8792 58.1702 68.8902C57.6302 68.9272 57.0242 68.9472 56.3622 68.9512L56.3612 69.1052L56.3552 69.7032C56.9862 69.6992 57.5962 69.6772 58.1712 69.6352C58.3242 69.6242 58.4732 69.6112 58.6212 69.5982C58.7242 69.5882 58.8252 69.5782 58.9252 69.5682C58.9752 69.5632 59.0232 69.5572 59.0712 69.5522C59.3312 69.5232 59.5842 69.4912 59.8232 69.4552C60.1382 69.4082 60.4302 69.3542 60.7042 69.2952C60.9772 69.2372 61.2272 69.1732 61.4532 69.1052H61.5852V69.4552V69.6622V70.6322C61.4662 70.7212 61.2022 70.8772 60.6922 71.0322C60.3792 71.1272 59.9712 71.2222 59.4422 71.3022C59.3692 71.3132 59.2922 71.3242 59.2142 71.3342C59.1022 71.3502 58.9822 71.3642 58.8602 71.3772C58.7932 71.3852 58.7282 71.3932 58.6582 71.4002C58.5102 71.4152 58.3532 71.4272 58.1912 71.4392C57.8132 71.4672 57.3972 71.4882 56.9362 71.4992L56.3402 71.2512L56.3372 71.5072L56.3352 71.6622C56.3002 71.7512 56.1942 71.9442 55.9172 72.1712C55.8262 72.2452 55.7162 72.3232 55.5832 72.4032C55.5712 72.4102 55.5582 72.4162 55.5472 72.4232C55.6872 72.5122 55.8072 72.6072 55.9122 72.7072C56.0022 72.7082 56.0832 72.7112 56.1752 72.7112C57.5432 72.7112 58.6272 72.6332 59.4872 72.5102C59.8252 72.4622 60.1202 72.4062 60.3922 72.3462C60.5002 72.3222 60.6062 72.2982 60.7042 72.2732C60.9222 72.2172 61.1152 72.1592 61.2882 72.0982C61.4532 72.0412 61.6052 71.9832 61.7352 71.9232C62.1512 71.7332 62.3992 71.5402 62.5482 71.3792C62.6492 71.2692 62.7062 71.1732 62.7362 71.1062Z" fill="#2988FF"/>
<path fill-rule="evenodd" clip-rule="evenodd" d="M55.9148 77.2313H55.7828C55.7568 77.2023 55.7208 77.1743 55.6878 77.1463C55.6448 77.1743 55.5968 77.2023 55.5488 77.2313C55.5298 77.2423 55.5088 77.2533 55.4888 77.2653C55.3518 77.3413 55.1998 77.4193 55.0168 77.4953C54.0238 77.9083 52.2978 78.2823 49.3028 78.2823C46.3078 78.2823 44.5818 77.9083 43.5888 77.4953C43.4058 77.4193 43.2538 77.3423 43.1168 77.2653C43.0968 77.2543 43.0758 77.2433 43.0568 77.2323C43.0078 77.2033 42.9598 77.1753 42.9168 77.1473C42.8838 77.1753 42.8478 77.2023 42.8218 77.2323H42.6898V77.5323V77.7753V79.8103V79.9033V80.1933L42.7408 80.4353C42.9058 80.8123 43.8668 82.0403 49.3018 82.0403C54.7388 82.0403 55.6988 80.8113 55.8638 80.4343L55.9058 77.7753L55.9088 77.5563C55.9098 77.5483 55.9148 77.5403 55.9148 77.5323C55.9148 77.5253 55.9098 77.5173 55.9098 77.5103L55.9148 77.2313ZM54.7118 78.4343V79.9613C54.4318 80.1723 53.3648 80.7503 50.0628 80.8283L44.7738 78.6243C45.9578 78.8773 47.5478 79.0343 49.3028 79.0343C51.4628 79.0343 53.3748 78.7973 54.5808 78.4343H54.7118Z" fill="#2988FF"/>
<path fill-rule="evenodd" clip-rule="evenodd" d="M55.9148 72.8731H55.7828C55.7778 72.8671 55.7698 72.8611 55.7648 72.8561C55.7158 72.8041 55.6538 72.7531 55.5818 72.7041C55.5058 72.6511 55.4148 72.6001 55.3148 72.5501C55.2428 72.5851 55.1658 72.6211 55.0838 72.6571C55.0588 72.6671 55.0358 72.6781 55.0088 72.6891C54.9008 72.7341 54.7828 72.7781 54.6558 72.8221C54.6058 72.8391 54.5478 72.8561 54.4948 72.8731C54.4888 72.8751 54.4818 72.8771 54.4758 72.8791C54.1408 72.9851 53.7428 73.0831 53.2788 73.1681C52.2958 73.3491 51.0108 73.4731 49.3018 73.4731C46.7848 73.4731 45.1718 73.2081 44.1288 72.8791C44.1228 72.8771 44.1158 72.8751 44.1098 72.8731C43.8898 72.8031 43.6928 72.7311 43.5218 72.6571C43.4398 72.6211 43.3618 72.5851 43.2908 72.5501C43.0848 72.6521 42.9228 72.7601 42.8218 72.8731H42.6898V73.1731V73.4171V75.4521V75.5451V75.8351L42.7408 76.0771C42.7948 76.2001 42.9378 76.4141 43.2888 76.6461C43.3628 76.6941 43.4488 76.7441 43.5428 76.7941C43.6098 76.8301 43.6798 76.8651 43.7578 76.9001C43.9408 76.9831 44.1548 77.0651 44.4068 77.1431C44.5058 77.1731 44.6168 77.2021 44.7278 77.2311C45.7048 77.4881 47.1488 77.6821 49.3018 77.6821C51.4558 77.6821 52.8988 77.4881 53.8758 77.2311C53.9868 77.2021 54.0978 77.1731 54.1968 77.1431C54.4498 77.0651 54.6638 76.9831 54.8468 76.9001C54.9248 76.8651 54.9938 76.8291 55.0608 76.7941C55.1558 76.7441 55.2408 76.6941 55.3158 76.6451C55.6668 76.4131 55.8098 76.1981 55.8638 76.0751L55.9058 73.4171L55.9078 73.3081L55.9088 73.1971C55.9098 73.1891 55.9148 73.1811 55.9148 73.1731C55.9148 73.1661 55.9098 73.1591 55.9098 73.1521L55.9148 72.8731ZM54.7118 74.0751V75.6021C54.5818 75.7011 54.2808 75.8781 53.6648 76.0481C53.4108 76.1181 53.1018 76.1861 52.7308 76.2471C52.6718 76.2571 52.6108 76.2661 52.5488 76.2761C51.9088 76.3721 51.0958 76.4451 50.0628 76.4701L49.0118 76.0321H49.0108L48.0208 75.6191L44.7718 74.2651C45.9558 74.5191 47.5468 74.6751 49.3018 74.6751C51.4628 74.6751 53.3748 74.4391 54.5808 74.0751H54.7118Z" fill="#2988FF"/>
<path fill-rule="evenodd" clip-rule="evenodd" d="M43.7299 72.0803C43.8469 72.1343 43.9819 72.1873 44.1269 72.2393C44.1979 72.2653 44.2729 72.2903 44.3519 72.3153C44.6089 72.3973 44.9089 72.4743 45.2538 72.5443C46.2058 72.7373 47.5058 72.8733 49.3028 72.8733C50.0508 72.8733 50.7068 72.8483 51.2958 72.8073C51.8528 72.7673 52.3418 72.7133 52.7718 72.6463C52.9468 72.6193 53.1148 72.5913 53.2708 72.5613C53.2988 72.5563 53.3228 72.5503 53.3498 72.5443C53.6568 72.4823 53.9338 72.4153 54.1708 72.3433C54.2008 72.3343 54.2248 72.3243 54.2528 72.3153C54.3318 72.2903 54.4068 72.2653 54.4778 72.2393C54.5398 72.2173 54.5988 72.1943 54.6558 72.1713C54.7308 72.1413 54.8078 72.1113 54.8748 72.0803C55.3148 71.8773 55.5628 71.6713 55.7058 71.5053C55.7868 71.4103 55.8378 71.3273 55.8638 71.2673L55.8678 71.0563L55.8888 69.7033L55.8978 69.1063L55.9008 68.9503L55.9058 68.6073L55.9078 68.4993L55.9098 68.3883C55.9098 68.3803 55.9148 68.3723 55.9148 68.3643C55.9148 68.3593 55.9118 68.3543 55.9118 68.3503C55.9118 68.3473 55.9108 68.3453 55.9098 68.3433L55.9148 68.0633H55.7818C55.7768 68.0583 55.7708 68.0533 55.7658 68.0483C55.7228 68.0033 55.6728 67.9583 55.6128 67.9143C55.6078 67.9103 55.6008 67.9073 55.5958 67.9033C55.5158 67.8473 55.4198 67.7933 55.3138 67.7403C55.2418 67.7763 55.1648 67.8123 55.0828 67.8473C55.0708 67.8533 55.0618 67.8573 55.0508 67.8623C55.0178 67.8763 54.9808 67.8903 54.9468 67.9043C54.8528 67.9413 54.7568 67.9793 54.6498 68.0153C54.6018 68.0323 54.5468 68.0473 54.4958 68.0643C54.4898 68.0663 54.4818 68.0683 54.4748 68.0703C54.2688 68.1353 54.0378 68.1973 53.7838 68.2563C53.6278 68.2923 53.4628 68.3263 53.2878 68.3583C52.8448 68.4403 52.3358 68.5093 51.7558 68.5613C51.2358 68.6083 50.6558 68.6403 50.0118 68.6543C49.9638 68.6553 49.9148 68.6553 49.8668 68.6563C49.7648 68.6583 49.6658 68.6603 49.5608 68.6613C49.4718 68.6623 49.3928 68.6653 49.3018 68.6653C49.2348 68.6653 49.1768 68.6623 49.1108 68.6623C46.7068 68.6483 45.1438 68.3913 44.1289 68.0703C44.1219 68.0683 44.1139 68.0663 44.1079 68.0643C43.8879 67.9943 43.6919 67.9223 43.5209 67.8483C43.4389 67.8133 43.3629 67.7773 43.2899 67.7413C43.0849 67.8433 42.9229 67.9513 42.8219 68.0643H42.6889V68.3643V68.6083V70.6433V70.7353V71.0263L42.7399 71.2683C42.8139 71.4333 43.0399 71.7623 43.7299 72.0803ZM49.1118 69.8643C49.1758 69.8653 49.2378 69.8673 49.3028 69.8673C49.3898 69.8673 49.4748 69.8643 49.5618 69.8643C49.6308 69.8633 49.6998 69.8623 49.7688 69.8613C49.8498 69.8603 49.9318 69.8603 50.0118 69.8583C50.2678 69.8513 50.5178 69.8413 50.7638 69.8283C51.3978 69.7963 51.9968 69.7433 52.5478 69.6723C52.8158 69.6383 53.0708 69.5993 53.3148 69.5573C53.7938 69.4733 54.2208 69.3753 54.5838 69.2663H54.7128V69.6683V70.5753V70.7943C54.5538 70.9143 54.1378 71.1513 53.2128 71.3483C53.0178 71.3903 52.8018 71.4303 52.5588 71.4663C52.0588 71.5413 51.4528 71.6033 50.7168 71.6383C50.7058 71.6393 50.6958 71.6393 50.6848 71.6403C50.5098 71.6483 50.3238 71.6543 50.1328 71.6593C50.1088 71.6603 50.0878 71.6613 50.0628 71.6623L49.6778 71.5013L49.1108 71.2653L49.0208 71.2283L44.7719 69.4573C45.9128 69.7013 47.4318 69.8533 49.1118 69.8643Z" fill="#2988FF"/>
<path fill-rule="evenodd" clip-rule="evenodd" d="M43.7293 67.2705C43.8463 67.3245 43.9813 67.3775 44.1273 67.4295C44.1983 67.4555 44.2733 67.4815 44.3513 67.5055C44.6093 67.5875 44.9093 67.6645 45.2543 67.7345C46.1703 67.9205 47.4163 68.0505 49.1113 68.0595C49.1763 68.0605 49.2353 68.0625 49.3023 68.0625C49.3933 68.0625 49.4733 68.0595 49.5613 68.0595C49.5723 68.0595 49.5823 68.0585 49.5933 68.0585C49.6813 68.0585 49.7663 68.0565 49.8523 68.0545C49.9693 68.0525 50.0933 68.0525 50.2053 68.0505C50.3923 68.0445 50.5653 68.0365 50.7413 68.0275C50.9503 68.0175 51.1543 68.0065 51.3473 67.9925C51.5033 67.9815 51.6583 67.9695 51.8043 67.9555C51.9713 67.9405 52.1273 67.9215 52.2803 67.9035C52.4553 67.8815 52.6243 67.8595 52.7823 67.8345C52.9843 67.8035 53.1743 67.7705 53.3503 67.7345C53.4363 67.7165 53.5213 67.6985 53.6003 67.6805C53.8423 67.6255 54.0593 67.5665 54.2533 67.5055C54.3313 67.4795 54.4063 67.4545 54.4773 67.4295C54.6223 67.3765 54.7583 67.3235 54.8753 67.2695C54.9373 67.2415 54.9893 67.2125 55.0443 67.1845C55.0773 67.1675 55.1153 67.1495 55.1453 67.1325C55.4153 66.9805 55.5853 66.8335 55.6963 66.7065L55.6973 66.7055C55.7143 66.6855 55.7333 66.6655 55.7473 66.6475C55.8053 66.5725 55.8423 66.5075 55.8643 66.4575L55.8673 66.2575L55.8813 65.3445L55.8913 64.7475L55.9003 64.1405L55.9063 63.7985L55.9083 63.6905L55.9093 63.5785C55.9103 63.5705 55.9153 63.5625 55.9153 63.5545C55.9153 63.5515 55.9133 63.5485 55.9133 63.5455C55.9133 63.5435 55.9123 63.5425 55.9123 63.5415C55.9123 63.5385 55.9103 63.5365 55.9103 63.5335L55.9153 63.2545H55.7823C55.7783 63.2495 55.7713 63.2445 55.7663 63.2395C55.7233 63.1935 55.6733 63.1495 55.6133 63.1055C55.5303 63.0455 55.4273 62.9875 55.3133 62.9315C55.2423 62.9675 55.1653 63.0025 55.0833 63.0385C55.0713 63.0435 55.0623 63.0485 55.0503 63.0535C54.9283 63.1045 54.7943 63.1565 54.6493 63.2055C54.6003 63.2225 54.5453 63.2385 54.4943 63.2545C54.4883 63.2565 54.4813 63.2585 54.4753 63.2605C54.2683 63.3255 54.0363 63.3885 53.7813 63.4465C53.6313 63.4815 53.4713 63.5135 53.3033 63.5455C53.2983 63.5465 53.2923 63.5465 53.2873 63.5485C52.8433 63.6305 52.3343 63.6985 51.7533 63.7515C51.3433 63.7885 50.9073 63.8185 50.4213 63.8355C50.1993 63.8425 49.9583 63.8455 49.7193 63.8485C49.6663 63.8485 49.6163 63.8505 49.5623 63.8505H49.5613C49.4723 63.8515 49.3933 63.8545 49.3023 63.8545C49.2353 63.8545 49.1773 63.8515 49.1113 63.8515C46.7083 63.8375 45.1443 63.5805 44.1293 63.2605C44.1233 63.2585 44.1163 63.2565 44.1103 63.2545C43.8903 63.1845 43.6933 63.1125 43.5223 63.0385C43.4403 63.0025 43.3623 62.9665 43.2913 62.9315C43.0853 63.0335 42.9233 63.1415 42.8223 63.2545H42.6893V63.5555V63.7985V65.8345V65.9265V66.2175L42.7403 66.4595C42.8133 66.6245 43.0393 66.9535 43.7293 67.2705ZM49.1113 65.0555C49.1753 65.0555 49.2383 65.0575 49.3023 65.0575C49.3903 65.0575 49.4753 65.0555 49.5613 65.0545C49.6813 65.0535 49.8013 65.0535 49.9193 65.0505C49.9503 65.0505 49.9813 65.0495 50.0123 65.0495C50.2673 65.0425 50.5173 65.0325 50.7643 65.0205C51.0813 65.0035 51.3883 64.9825 51.6863 64.9555C51.6963 64.9545 51.7063 64.9545 51.7163 64.9535C52.2943 64.9015 52.8303 64.8315 53.3153 64.7475C53.7933 64.6645 54.2193 64.5665 54.5823 64.4575H54.7123V64.7475V65.3095V65.9855C54.6643 66.0215 54.5893 66.0695 54.4873 66.1225C54.3433 66.1985 54.1383 66.2865 53.8503 66.3755C53.5313 66.4745 53.1093 66.5735 52.5593 66.6565C52.3503 66.6885 52.1233 66.7165 51.8763 66.7425C51.8033 66.7505 51.7293 66.7575 51.6523 66.7645C51.2483 66.8015 50.7913 66.8285 50.2823 66.8445C50.2083 66.8475 50.1383 66.8505 50.0613 66.8525L50.0123 66.8315L49.5923 66.6565L49.5613 66.6435L49.1113 66.4555L49.0193 66.4175L44.7723 64.6485C45.9123 64.8915 47.4323 65.0445 49.1113 65.0555Z" fill="#2988FF"/>
<path fill-rule="evenodd" clip-rule="evenodd" d="M43.7298 62.4619C43.8468 62.5159 43.9818 62.5689 44.1268 62.6209C44.1988 62.6469 44.2728 62.6729 44.3518 62.6969C44.6098 62.7789 44.9098 62.8559 45.2548 62.9259C46.2068 63.1189 47.5058 63.2549 49.3018 63.2549C49.4398 63.2549 49.5628 63.2509 49.6948 63.2489C49.8368 63.2479 49.9808 63.2459 50.1168 63.2429C50.1448 63.2419 50.1768 63.2429 50.2048 63.2419C50.3428 63.2379 50.4698 63.2309 50.6018 63.2259C50.8618 63.2149 51.1118 63.2009 51.3468 63.1839C51.5038 63.1729 51.6578 63.1609 51.8028 63.1469C52.1608 63.1139 52.4838 63.0719 52.7808 63.0269C52.9828 62.9949 53.1728 62.9619 53.3488 62.9259C53.4358 62.9079 53.5198 62.8899 53.6008 62.8719C53.8418 62.8169 54.0588 62.7579 54.2518 62.6969C54.3308 62.6709 54.4058 62.6459 54.4768 62.6209C54.6218 62.5679 54.7568 62.5149 54.8738 62.4609C54.9398 62.4309 54.9948 62.4009 55.0518 62.3709C55.0558 62.3689 55.0598 62.3669 55.0638 62.3649C55.0898 62.3519 55.1198 62.3379 55.1438 62.3239C55.4088 62.1749 55.5788 62.0289 55.6908 61.9039C55.7108 61.8809 55.7298 61.8589 55.7468 61.8379C55.8048 61.7629 55.8418 61.6979 55.8638 61.6479L55.8808 60.5349L55.8908 59.9369L55.8998 59.3319L55.9058 58.9889L55.9078 58.8809L55.9088 58.7699C55.9098 58.7619 55.9148 58.7539 55.9148 58.7459C55.9148 58.7419 55.9118 58.7389 55.9118 58.7359C55.9118 58.7339 55.9118 58.7329 55.9118 58.7319C55.9118 58.7289 55.9098 58.7279 55.9098 58.7249L55.9138 58.4459H55.7818C55.7778 58.4409 55.7708 58.4359 55.7658 58.4309C55.7228 58.3849 55.6738 58.3399 55.6128 58.2959C55.5308 58.2369 55.4268 58.1789 55.3138 58.1229C55.2418 58.1589 55.1648 58.1939 55.0828 58.2299C55.0718 58.2349 55.0628 58.2399 55.0508 58.2439C54.9288 58.2959 54.7948 58.3479 54.6488 58.3979C54.6008 58.4149 54.5458 58.4299 54.4948 58.4459C54.4878 58.4479 54.4818 58.4499 54.4748 58.4519C54.2688 58.5169 54.0388 58.5789 53.7848 58.6379C53.6348 58.6719 53.4768 58.7049 53.3098 58.7359C53.3028 58.7369 53.2948 58.7379 53.2878 58.7399C52.8448 58.8219 52.3358 58.8909 51.7548 58.9429C51.3448 58.9799 50.9078 59.0099 50.4218 59.0269C50.1998 59.0349 49.9578 59.0369 49.7188 59.0399C49.6668 59.0409 49.6168 59.0419 49.5628 59.0419H49.5618C49.4728 59.0429 49.3938 59.0459 49.3028 59.0459C49.2358 59.0459 49.1778 59.0439 49.1118 59.0429C46.7078 59.0299 45.1448 58.7729 44.1298 58.4519C44.1238 58.4499 44.1168 58.4479 44.1098 58.4459C43.8898 58.3759 43.6928 58.3039 43.5218 58.2299C43.4398 58.1939 43.3628 58.1589 43.2908 58.1229C43.0848 58.2249 42.9238 58.3329 42.8228 58.4459H42.6908V58.7459V58.9899V61.0249V61.1179V61.4079L42.7408 61.6499C42.8138 61.8149 43.0398 62.1439 43.7298 62.4619ZM49.1118 60.2469C49.1758 60.2469 49.2378 60.2489 49.3028 60.2489C49.3898 60.2489 49.4748 60.2469 49.5618 60.2459C49.6818 60.2449 49.8018 60.2439 49.9198 60.2419C49.9508 60.2409 49.9808 60.2409 50.0118 60.2399C50.2678 60.2339 50.5178 60.2239 50.7638 60.2109C51.0808 60.1949 51.3878 60.1729 51.6868 60.1469C51.6968 60.1459 51.7068 60.1449 51.7168 60.1439C52.2958 60.0929 52.8328 60.0229 53.3188 59.9379C53.7958 59.8549 54.2198 59.7579 54.5818 59.6489H54.7128V59.9379V60.5009V61.1759C54.6648 61.2119 54.5898 61.2599 54.4878 61.3139C54.1838 61.4739 53.6048 61.6899 52.5588 61.8479C52.3508 61.8789 52.1228 61.9079 51.8758 61.9329C51.4178 61.9809 50.8888 62.0169 50.2828 62.0359C50.2088 62.0379 50.1388 62.0409 50.0628 62.0429L50.0128 62.0219L49.5928 61.8469L49.5618 61.8339L49.1118 61.6459L49.0208 61.6079L44.7718 59.8389C45.9118 60.0829 47.4318 60.2359 49.1118 60.2469Z" fill="#2988FF"/>
<path fill-rule="evenodd" clip-rule="evenodd" d="M43.7298 57.6528C43.8468 57.7068 43.9818 57.7598 44.1268 57.8118C44.1978 57.8378 44.2728 57.8628 44.3518 57.8878C44.6088 57.9698 44.9098 58.0468 45.2548 58.1168C46.2058 58.3098 47.5058 58.4458 49.3028 58.4458C49.4398 58.4458 49.5618 58.4418 49.6938 58.4398C49.8358 58.4388 49.9808 58.4378 50.1168 58.4338C50.1458 58.4338 50.1778 58.4338 50.2068 58.4328C50.3448 58.4288 50.4708 58.4218 50.6018 58.4168C50.8628 58.4058 51.1128 58.3918 51.3488 58.3748C51.5058 58.3638 51.6608 58.3518 51.8068 58.3388C52.1628 58.3048 52.4858 58.2638 52.7818 58.2178C52.9838 58.1858 53.1738 58.1528 53.3508 58.1168C53.4368 58.0988 53.5218 58.0808 53.6028 58.0628C53.8438 58.0078 54.0608 57.9488 54.2538 57.8878C54.3328 57.8628 54.4068 57.8368 54.4778 57.8118C54.6238 57.7598 54.7578 57.7058 54.8748 57.6518C54.9408 57.6218 54.9968 57.5918 55.0538 57.5618C55.0578 57.5598 55.0618 57.5578 55.0658 57.5558C55.0918 57.5418 55.1228 57.5278 55.1468 57.5148C55.4118 57.3648 55.5808 57.2188 55.6928 57.0938C55.7118 57.0718 55.7318 57.0498 55.7478 57.0288C55.8058 56.9548 55.8428 56.8888 55.8648 56.8388L55.8828 55.7258L55.8918 55.1288L55.9018 54.5218L55.9068 54.1799L55.9088 54.0719L55.9108 53.9609C55.9108 53.9529 55.9158 53.9449 55.9158 53.9369C55.9158 53.9329 55.9138 53.9299 55.9138 53.9259C55.9138 53.9249 55.9128 53.9239 55.9118 53.9229C55.9118 53.9209 55.9108 53.9179 55.9108 53.9159L55.9148 53.6359H55.7828C55.7778 53.6309 55.7708 53.6259 55.7658 53.6209C55.7228 53.5759 55.6738 53.5309 55.6138 53.4869C55.5308 53.4269 55.4278 53.3699 55.3138 53.3129C55.2428 53.3489 55.1658 53.3849 55.0838 53.4199C55.0718 53.4249 55.0628 53.4299 55.0518 53.4349C54.9298 53.4869 54.7958 53.5379 54.6508 53.5879C54.6028 53.6039 54.5478 53.6199 54.4978 53.6359C54.4908 53.6379 54.4828 53.6409 54.4758 53.6429C54.2698 53.7079 54.0388 53.7699 53.7848 53.8289C53.6348 53.8629 53.4758 53.8959 53.3088 53.9269C53.3028 53.9279 53.2958 53.9289 53.2888 53.9309C52.8458 54.0129 52.3368 54.0819 51.7568 54.1339C51.3458 54.1709 50.9088 54.2009 50.4208 54.2179C50.1988 54.2259 49.9578 54.2279 49.7188 54.2309C49.6668 54.2319 49.6168 54.2329 49.5628 54.2329H49.5618C49.4728 54.2339 49.3938 54.2379 49.3028 54.2379C49.2348 54.2379 49.1768 54.2349 49.1108 54.2339C46.7078 54.2209 45.1438 53.9629 44.1298 53.6429C44.1228 53.6409 44.1148 53.6379 44.1078 53.6359C43.8888 53.5669 43.6918 53.4939 43.5218 53.4209C43.4398 53.3849 43.3628 53.3489 43.2908 53.3139C43.0848 53.4159 42.9238 53.5239 42.8228 53.6359H42.6898V53.9369V54.1809V56.2158V56.3088V56.5988L42.7408 56.8408C42.8138 57.0058 43.0398 57.3348 43.7298 57.6528ZM49.1118 55.4378C49.1758 55.4378 49.2378 55.4398 49.3028 55.4398C49.3898 55.4398 49.4748 55.4378 49.5618 55.4368C49.6818 55.4358 49.8018 55.4348 49.9198 55.4328C49.9508 55.4318 49.9808 55.4318 50.0118 55.4308C50.2678 55.4248 50.5178 55.4148 50.7638 55.4018C51.0808 55.3858 51.3878 55.3638 51.6858 55.3378C51.6958 55.3368 51.7068 55.3358 51.7168 55.3348C52.2948 55.2838 52.8318 55.2138 53.3168 55.1298C53.7958 55.0458 54.2208 54.9488 54.5838 54.8388H54.7128V55.1298V55.6918V56.3678C54.6638 56.4038 54.5898 56.4518 54.4878 56.5048C54.1838 56.6648 53.6048 56.8818 52.5588 57.0398C52.3508 57.0708 52.1238 57.0988 51.8768 57.1248C51.4188 57.1728 50.8898 57.2088 50.2828 57.2278C50.2098 57.2298 50.1398 57.2328 50.0638 57.2348L50.0128 57.2138L49.5928 57.0388L49.5618 57.0258L49.1118 56.8378L49.0218 56.8008L44.7728 55.0298C45.9128 55.2738 47.4318 55.4268 49.1118 55.4378Z" fill="#2988FF"/>
<path fill-rule="evenodd" clip-rule="evenodd" d="M43.7293 52.8435C43.8463 52.8975 43.9813 52.9505 44.1273 53.0025C44.1983 53.0285 44.2733 53.0535 44.3513 53.0785C44.6093 53.1605 44.9093 53.2375 45.2543 53.3075C46.2063 53.5005 47.5063 53.6365 49.3023 53.6365C49.4403 53.6365 49.5633 53.6325 49.6953 53.6305C49.8373 53.6285 49.9823 53.6275 50.1183 53.6245C50.1463 53.6235 50.1773 53.6245 50.2053 53.6235C50.3443 53.6195 50.4713 53.6125 50.6033 53.6065C50.8623 53.5965 51.1123 53.5825 51.3473 53.5655C51.5033 53.5545 51.6583 53.5425 51.8043 53.5295C52.1613 53.4955 52.4843 53.4545 52.7823 53.4085C52.9843 53.3765 53.1733 53.3435 53.3503 53.3075C53.4363 53.2905 53.5203 53.2725 53.6003 53.2535C53.8423 53.1985 54.0593 53.1405 54.2533 53.0785C54.3313 53.0535 54.4063 53.0285 54.4773 53.0025C54.6223 52.9505 54.7583 52.8975 54.8753 52.8435C54.9403 52.8135 54.9963 52.7835 55.0533 52.7525C55.0573 52.7505 55.0613 52.7485 55.0653 52.7465C55.0913 52.7335 55.1213 52.7195 55.1453 52.7055C55.4113 52.5555 55.5803 52.4105 55.6913 52.2855C55.7113 52.2625 55.7303 52.2405 55.7473 52.2205C55.8043 52.1455 55.8423 52.0805 55.8633 52.0305L55.8813 50.9175L55.8913 50.3205L55.9003 49.7135L55.9063 49.3715L55.9073 49.2635L55.9093 49.1515C55.9103 49.1435 55.9143 49.1355 55.9143 49.1275C55.9143 49.1245 55.9123 49.1215 55.9123 49.1185C55.9123 49.1165 55.9123 49.1155 55.9123 49.1145C55.9123 49.1115 55.9103 49.1095 55.9103 49.1075L55.9143 48.8275H55.7823C55.7773 48.8225 55.7713 48.8175 55.7663 48.8125C55.7233 48.7665 55.6733 48.7225 55.6133 48.6785C55.5303 48.6185 55.4273 48.5615 55.3133 48.5045C55.2423 48.5405 55.1653 48.5755 55.0833 48.6115C55.0713 48.6165 55.0623 48.6215 55.0503 48.6265C54.9283 48.6785 54.7943 48.7295 54.6493 48.7795C54.6003 48.7955 54.5453 48.8115 54.4943 48.8275C54.4883 48.8295 54.4813 48.8315 54.4753 48.8335C54.2683 48.8995 54.0363 48.9615 53.7813 49.0205C53.6313 49.0545 53.4713 49.0865 53.3033 49.1185C53.2983 49.1195 53.2923 49.1205 53.2873 49.1215C52.8433 49.2035 52.3343 49.2725 51.7543 49.3245C51.3443 49.3615 50.9083 49.3915 50.4223 49.4085C50.2003 49.4165 49.9583 49.4185 49.7193 49.4215C49.6663 49.4225 49.6173 49.4235 49.5633 49.4245H49.5613C49.4733 49.4245 49.3933 49.4285 49.3023 49.4285C49.2353 49.4285 49.1773 49.4255 49.1113 49.4245C46.7083 49.4115 45.1453 49.1545 44.1303 48.8335C44.1233 48.8315 44.1163 48.8295 44.1103 48.8275C43.8903 48.7585 43.6933 48.6855 43.5223 48.6115C43.4403 48.5765 43.3633 48.5405 43.2913 48.5045C43.0853 48.6075 42.9233 48.7155 42.8233 48.8285H42.6903V49.1285V49.3725V51.4075V51.4995V51.7905L42.7413 52.0325C42.8133 52.1975 43.0393 52.5265 43.7293 52.8435ZM49.1113 50.6285C49.1753 50.6285 49.2383 50.6305 49.3023 50.6305C49.3903 50.6305 49.4753 50.6285 49.5613 50.6275C49.6813 50.6265 49.8013 50.6255 49.9193 50.6235C49.9503 50.6225 49.9813 50.6225 50.0123 50.6215C50.2673 50.6155 50.5173 50.6055 50.7643 50.5925C51.0813 50.5765 51.3883 50.5545 51.6863 50.5285C51.6963 50.5275 51.7063 50.5265 51.7173 50.5255C52.2943 50.4745 52.8303 50.4045 53.3143 50.3205C53.7933 50.2365 54.2193 50.1395 54.5823 50.0295H54.7123V50.3205V50.8825V51.5585C54.6643 51.5945 54.5893 51.6425 54.4873 51.6955C54.1833 51.8555 53.6053 52.0725 52.5593 52.2295C52.3503 52.2615 52.1233 52.2895 51.8763 52.3155C51.4183 52.3625 50.8883 52.3985 50.2823 52.4175C50.2083 52.4195 50.1383 52.4225 50.0613 52.4245L50.0123 52.4045L49.5923 52.2295L49.5613 52.2165L49.1113 52.0285L49.0193 51.9905L44.7723 50.2205C45.9123 50.4645 47.4323 50.6175 49.1113 50.6285Z" fill="#2988FF"/>
<path fill-rule="evenodd" clip-rule="evenodd" d="M43.7298 48.0347C43.8468 48.0887 43.9818 48.1417 44.1268 48.1937C44.1988 48.2197 44.2728 48.2457 44.3518 48.2697C44.6098 48.3517 44.9098 48.4287 45.2548 48.4987C46.2068 48.6917 47.5068 48.8277 49.3028 48.8277C49.4398 48.8277 49.5628 48.8237 49.6948 48.8217C49.8368 48.8207 49.9818 48.8197 50.1178 48.8157C50.1458 48.8157 50.1768 48.8157 50.2048 48.8147C50.3438 48.8107 50.4698 48.8037 50.6018 48.7987C50.8628 48.7877 51.1128 48.7737 51.3478 48.7567C51.5038 48.7457 51.6588 48.7337 51.8038 48.7197C52.1608 48.6867 52.4838 48.6447 52.7818 48.5997C52.9838 48.5677 53.1728 48.5347 53.3498 48.4987C53.4358 48.4807 53.5208 48.4627 53.6008 48.4447C53.8428 48.3897 54.0598 48.3307 54.2528 48.2697C54.3318 48.2437 54.4058 48.2187 54.4778 48.1937C54.6228 48.1407 54.7578 48.0877 54.8748 48.0337C54.9398 48.0037 54.9958 47.9737 55.0528 47.9437C55.0568 47.9417 55.0608 47.9397 55.0648 47.9377C55.0908 47.9237 55.1198 47.9097 55.1438 47.8967C55.4098 47.7477 55.5788 47.6017 55.6908 47.4767C55.7108 47.4537 55.7308 47.4317 55.7468 47.4107C55.8048 47.3357 55.8428 47.2707 55.8638 47.2207L55.8818 46.1077L55.8908 45.5097L55.9008 44.9037L55.9058 44.5617L55.9078 44.4537L55.9098 44.3417C55.9108 44.3337 55.9148 44.3257 55.9148 44.3177C55.9148 44.3147 55.9128 44.3117 55.9128 44.3077C55.9128 44.3067 55.9118 44.3057 55.9118 44.3037C55.9118 44.3017 55.9108 44.2997 55.9108 44.2967L55.9148 44.0167H55.7818C55.7778 44.0117 55.7708 44.0067 55.7658 44.0017C55.7228 43.9567 55.6738 43.9117 55.6128 43.8677C55.5308 43.8087 55.4278 43.7507 55.3148 43.6947C55.2428 43.7307 55.1658 43.7657 55.0838 43.8017C55.0718 43.8067 55.0628 43.8117 55.0518 43.8167C54.9308 43.8677 54.7968 43.9187 54.6518 43.9687C54.6038 43.9847 54.5488 44.0007 54.4978 44.0167C54.4908 44.0197 54.4828 44.0217 54.4758 44.0237C54.2698 44.0887 54.0388 44.1517 53.7848 44.2097C53.6358 44.2437 53.4768 44.2767 53.3098 44.3077C53.3028 44.3087 53.2958 44.3107 53.2888 44.3117C52.8458 44.3937 52.3378 44.4617 51.7578 44.5147C51.3468 44.5507 50.9088 44.5817 50.4218 44.5987C50.1998 44.6067 49.9588 44.6087 49.7198 44.6117C49.6668 44.6127 49.6168 44.6137 49.5638 44.6137H49.5628C49.4738 44.6147 49.3938 44.6177 49.3028 44.6177C49.2358 44.6177 49.1778 44.6157 49.1118 44.6157C46.7078 44.6017 45.1448 44.3447 44.1298 44.0237C44.1228 44.0217 44.1148 44.0187 44.1078 44.0167C43.8888 43.9467 43.6918 43.8747 43.5218 43.8017C43.4398 43.7657 43.3628 43.7307 43.2908 43.6947C43.0858 43.7967 42.9238 43.9047 42.8238 44.0167H42.6908V44.3177V44.5617V46.5977V46.6897V46.9797L42.7408 47.2217C42.8138 47.3877 43.0398 47.7167 43.7298 48.0347ZM49.1118 45.8197C49.1758 45.8197 49.2378 45.8217 49.3028 45.8217C49.3898 45.8217 49.4748 45.8197 49.5618 45.8187C49.6818 45.8177 49.8018 45.8167 49.9198 45.8147C49.9508 45.8137 49.9808 45.8137 50.0118 45.8127C50.2678 45.8067 50.5178 45.7967 50.7638 45.7837C51.0808 45.7677 51.3878 45.7457 51.6858 45.7197C51.6958 45.7187 51.7068 45.7177 51.7168 45.7167C52.2948 45.6657 52.8328 45.5957 53.3188 45.5107C53.7968 45.4277 54.2218 45.3297 54.5838 45.2207H54.7128V45.5107V46.0737V46.7487C54.6638 46.7857 54.5888 46.8337 54.4878 46.8867C54.1828 47.0467 53.6048 47.2637 52.5588 47.4217C52.3508 47.4527 52.1228 47.4817 51.8758 47.5067C51.4178 47.5547 50.8888 47.5907 50.2828 47.6087C50.2088 47.6117 50.1388 47.6147 50.0628 47.6167L50.0128 47.5957L49.5928 47.4207L49.5618 47.4077L49.1118 47.2197L49.0208 47.1817L44.7728 45.4117C45.9128 45.6557 47.4318 45.8087 49.1118 45.8197Z" fill="#2988FF"/>
<path fill-rule="evenodd" clip-rule="evenodd" d="M43.7298 43.2259C43.8468 43.2799 43.9818 43.3329 44.1268 43.3849C44.1978 43.4109 44.2728 43.4359 44.3508 43.4609C44.6088 43.5429 44.9088 43.6199 45.2538 43.6899C46.1928 43.8809 47.4738 44.0139 49.2318 44.0179C49.2558 44.0179 49.2778 44.0189 49.3018 44.0189C49.3268 44.0189 49.3478 44.0179 49.3728 44.0179C49.4838 44.0179 49.5848 44.0149 49.6938 44.0129C49.8358 44.0119 49.9798 44.0109 50.1158 44.0069C50.1448 44.0059 50.1778 44.0059 50.2068 44.0059C50.3438 44.0019 50.4698 43.9949 50.6008 43.9899C50.8618 43.9789 51.1128 43.9649 51.3488 43.9479C51.5058 43.9369 51.6608 43.9249 51.8068 43.9109C52.1638 43.8779 52.4868 43.8359 52.7848 43.7899C52.9858 43.7589 53.1738 43.7259 53.3498 43.6899C53.4368 43.6719 53.5218 43.6549 53.6028 43.6359C53.8438 43.5809 54.0608 43.5219 54.2538 43.4609C54.3318 43.4359 54.4068 43.4109 54.4778 43.3849C54.6228 43.3329 54.7578 43.2799 54.8748 43.2259C54.9408 43.1959 54.9958 43.1649 55.0538 43.1349C55.0578 43.1329 55.0618 43.1309 55.0658 43.1289C55.0918 43.1149 55.1218 43.1009 55.1458 43.0879C55.4118 42.9379 55.5808 42.7919 55.6918 42.6669C55.7118 42.6449 55.7308 42.6229 55.7478 42.6019C55.8048 42.5279 55.8428 42.4629 55.8648 42.4129L55.8818 41.2989L55.8918 40.7019L55.9018 40.0959L55.9068 39.7529L55.9088 39.6459L55.9098 39.5339C55.9108 39.5259 55.9158 39.5179 55.9158 39.5099C55.9158 39.5069 55.9138 39.5039 55.9128 39.4999C55.9128 39.4989 55.9118 39.4979 55.9118 39.4979C55.9118 39.4939 55.9108 39.4919 55.9108 39.4889L55.9148 39.2099H55.7828C55.7778 39.2049 55.7708 39.1989 55.7658 39.1939C55.7228 39.1489 55.6738 39.1039 55.6138 39.0599C55.5308 39.0009 55.4278 38.9429 55.3138 38.8869C55.2418 38.9229 55.1648 38.9579 55.0828 38.9939C55.0708 38.9979 55.0618 39.0029 55.0508 39.0079C54.9288 39.0599 54.7948 39.1109 54.6488 39.1609C54.6008 39.1779 54.5458 39.1929 54.4948 39.2099C54.4888 39.2119 54.4818 39.2139 54.4748 39.2159C54.2678 39.2809 54.0368 39.3429 53.7818 39.4019C53.6318 39.4359 53.4718 39.4689 53.3038 39.4999C53.2988 39.5009 53.2928 39.5019 53.2868 39.5039C52.8428 39.5859 52.3348 39.6539 51.7538 39.7059C51.3448 39.7429 50.9078 39.7729 50.4228 39.7899C50.1998 39.7979 49.9588 39.7999 49.7198 39.8029C49.6668 39.8039 49.6168 39.8049 49.5628 39.8059H49.5618C49.4728 39.8059 49.3938 39.8099 49.3028 39.8099C49.2348 39.8099 49.1768 39.8069 49.1108 39.8069C46.7078 39.7929 45.1448 39.5359 44.1298 39.2159C44.1238 39.2139 44.1168 39.2119 44.1098 39.2099C43.8898 39.1399 43.6928 39.0669 43.5218 38.9939C43.4398 38.9579 43.3628 38.9219 43.2908 38.8869C43.0858 38.9889 42.9238 39.0969 42.8228 39.2099H42.6898V39.5099V39.7539V41.7889V41.8819V42.1719L42.7408 42.4139C42.8138 42.5789 43.0398 42.9079 43.7298 43.2259ZM49.1118 41.01C49.1758 41.011 49.2378 41.013 49.3028 41.013C49.3898 41.013 49.4748 41.01 49.5618 41.01C49.6818 41.009 49.8018 41.008 49.9198 41.006C49.9508 41.005 49.9808 41.005 50.0118 41.004C50.2678 40.998 50.5178 40.988 50.7638 40.975C51.0808 40.958 51.3878 40.937 51.6868 40.911C51.6968 40.91 51.7068 40.909 51.7168 40.908C52.2948 40.856 52.8308 40.787 53.3168 40.702C53.7948 40.619 54.2208 40.521 54.5828 40.412H54.7128V40.702V41.265V41.94C54.6648 41.977 54.5898 42.024 54.4878 42.078C54.1838 42.238 53.6058 42.455 52.5588 42.612C52.3508 42.644 52.1238 42.672 51.8768 42.698C51.4188 42.746 50.8898 42.782 50.2828 42.801C50.2098 42.803 50.1398 42.806 50.0638 42.808L50.0128 42.786L49.5928 42.612L49.5618 42.599L49.1118 42.411L49.0218 42.374L44.7718 40.603C45.9118 40.847 47.4318 41 49.1118 41.01Z" fill="#2988FF"/>
<path fill-rule="evenodd" clip-rule="evenodd" d="M43.7303 38.4163C43.8473 38.4703 43.9823 38.5233 44.1283 38.5753C44.1993 38.6013 44.2743 38.6263 44.3523 38.6513C44.6103 38.7333 44.9103 38.8103 45.2553 38.8803C46.2073 39.0733 47.5073 39.2093 49.3033 39.2093C49.4403 39.2093 49.5633 39.2053 49.6953 39.2033C49.8383 39.2023 49.9823 39.2013 50.1183 39.1973C50.1463 39.1973 50.1783 39.1973 50.2053 39.1963C50.3443 39.1923 50.4713 39.1853 50.6033 39.1803C50.8633 39.1693 51.1123 39.1553 51.3473 39.1393C51.5043 39.1273 51.6593 39.1163 51.8053 39.1023C52.1623 39.0683 52.4853 39.0273 52.7823 38.9813C52.9843 38.9503 53.1743 38.9163 53.3503 38.8803C53.4363 38.8633 53.5213 38.8453 53.6013 38.8273C53.8423 38.7723 54.0603 38.7133 54.2533 38.6513C54.3323 38.6263 54.4063 38.6013 54.4773 38.5753C54.6233 38.5233 54.7583 38.4703 54.8753 38.4163C54.9403 38.3863 54.9963 38.3563 55.0533 38.3263C55.0573 38.3243 55.0613 38.3223 55.0653 38.3203C55.0913 38.3063 55.1213 38.2933 55.1453 38.2793C55.4113 38.1303 55.5803 37.9843 55.6923 37.8583C55.7113 37.8363 55.7313 37.8143 55.7483 37.7933C55.8063 37.7183 55.8433 37.6533 55.8653 37.6033L55.8833 36.4913L55.8923 35.8933L55.9023 35.2873L55.9073 34.9453L55.9093 34.8373L55.9113 34.7253C55.9113 34.7173 55.9163 34.7093 55.9163 34.7013C55.9163 34.6983 55.9143 34.6943 55.9143 34.6913C55.9143 34.6913 55.9133 34.6893 55.9133 34.6883C55.9133 34.6853 55.9113 34.6833 55.9113 34.6803L55.9163 34.4013H55.7833C55.7793 34.3963 55.7723 34.3913 55.7673 34.3863C55.7243 34.3403 55.6753 34.2953 55.6143 34.2513C55.5323 34.1923 55.4283 34.1343 55.3153 34.0783C55.2433 34.1143 55.1663 34.1493 55.0843 34.1853C55.0733 34.1903 55.0633 34.1943 55.0523 34.1993C54.9303 34.2513 54.7963 34.3023 54.6503 34.3523C54.6023 34.3693 54.5473 34.3843 54.4953 34.4013C54.4893 34.4033 54.4823 34.4053 54.4763 34.4073C54.2693 34.4723 54.0373 34.5343 53.7823 34.5933C53.6343 34.6273 53.4763 34.6593 53.3103 34.6903C53.3033 34.6923 53.2953 34.6933 53.2883 34.6943C52.8443 34.7763 52.3353 34.8453 51.7553 34.8973C51.3453 34.9343 50.9093 34.9643 50.4233 34.9813C50.2013 34.9893 49.9593 34.9913 49.7203 34.9943C49.6673 34.9953 49.6173 34.9973 49.5643 34.9973H49.5633C49.4743 34.9983 49.3943 35.0013 49.3033 35.0013C49.2363 35.0013 49.1783 34.9983 49.1123 34.9983C46.7093 34.9843 45.1463 34.7273 44.1313 34.4073C44.1243 34.4053 44.1173 34.4033 44.1113 34.4013C43.8913 34.3313 43.6943 34.2583 43.5233 34.1853C43.4413 34.1493 43.3633 34.1133 43.2923 34.0783C43.0863 34.1803 42.9243 34.2883 42.8233 34.4013H42.6913V34.7013V34.9453V36.9803V37.0733V37.3623L42.7413 37.6043C42.8133 37.7693 43.0403 38.0983 43.7303 38.4163ZM49.1113 36.2013C49.1763 36.2013 49.2383 36.2033 49.3033 36.2033C49.3903 36.2033 49.4753 36.2013 49.5623 36.2003C49.6823 36.1993 49.8023 36.1993 49.9203 36.1963C49.9503 36.1963 49.9813 36.1953 50.0123 36.1953C50.2683 36.1883 50.5183 36.1783 50.7643 36.1663C51.0813 36.1493 51.3883 36.1283 51.6863 36.1013C51.6963 36.1003 51.7073 36.1003 51.7163 36.0993C52.2963 36.0473 52.8343 35.9773 53.3203 35.8923C53.7973 35.8093 54.2203 35.7123 54.5823 35.6033H54.7123V35.8923V36.4563V37.1303C54.6643 37.1673 54.5893 37.2153 54.4873 37.2683C54.1833 37.4283 53.6053 37.6453 52.5583 37.8023C52.3503 37.8343 52.1233 37.8623 51.8753 37.8883C51.4183 37.9353 50.8883 37.9713 50.2823 37.9903C50.2083 37.9923 50.1383 37.9953 50.0623 37.9973L50.0123 37.9773L49.5933 37.8023L49.5623 37.7893L49.1113 37.6013L49.0203 37.5633L44.7733 35.7933C45.9133 36.0373 47.4323 36.1903 49.1113 36.2013Z" fill="#2988FF"/>
<path fill-rule="evenodd" clip-rule="evenodd" d="M43.7298 33.6076C43.8468 33.6616 43.9818 33.7146 44.1268 33.7666C44.1988 33.7926 44.2728 33.8186 44.3518 33.8426C44.6098 33.9246 44.9098 34.0016 45.2548 34.0716C46.2068 34.2646 47.5068 34.4006 49.3028 34.4006C49.4398 34.4006 49.5628 34.3966 49.6948 34.3946C49.8368 34.3936 49.9818 34.3926 50.1168 34.3886C50.1448 34.3886 50.1768 34.3886 50.2048 34.3876C50.3438 34.3836 50.4698 34.3766 50.6018 34.3716C50.8618 34.3606 51.1118 34.3466 51.3478 34.3296C51.5038 34.3186 51.6588 34.3066 51.8038 34.2936C52.1608 34.2596 52.4838 34.2186 52.7818 34.1726C52.9838 34.1406 53.1728 34.1076 53.3498 34.0716C53.4358 34.0536 53.5208 34.0356 53.6008 34.0176C53.8418 33.9626 54.0598 33.9036 54.2528 33.8426C54.3318 33.8176 54.4058 33.7916 54.4768 33.7666C54.6228 33.7146 54.7578 33.6606 54.8748 33.6066C54.9398 33.5766 54.9958 33.5466 55.0528 33.5166C55.0568 33.5146 55.0608 33.5126 55.0648 33.5106C55.0898 33.4966 55.1198 33.4836 55.1438 33.4696C55.4088 33.3206 55.5788 33.1746 55.6908 33.0496C55.7108 33.0266 55.7298 33.0046 55.7468 32.9836C55.8048 32.9086 55.8418 32.8436 55.8638 32.7936L55.8808 31.6806L55.8908 31.0826L55.8998 30.4766L55.9058 30.1346L55.9078 30.0266L55.9088 29.9146C55.9098 29.9066 55.9148 29.8986 55.9148 29.8906C55.9148 29.8876 55.9118 29.8846 55.9118 29.8806C55.9118 29.8796 55.9118 29.8776 55.9118 29.8776C55.9118 29.8746 55.9098 29.8726 55.9098 29.8696L55.9138 29.5896H55.7818C55.7768 29.5846 55.7698 29.5796 55.7648 29.5746C55.7228 29.5296 55.6728 29.4846 55.6128 29.4406C55.4768 29.3426 55.2968 29.2496 55.0798 29.1606C54.7518 29.0266 54.3338 28.9056 53.8468 28.8016C53.8188 28.7946 53.7888 28.7896 53.7588 28.7836C53.3568 28.6996 52.9128 28.6256 52.4288 28.5666C51.7828 28.4876 51.0698 28.4336 50.3178 28.4076C50.2218 28.4046 50.1278 28.4006 50.0318 28.3976C49.9148 28.3946 49.7958 28.3936 49.6778 28.3926C49.6388 28.3916 49.5998 28.3916 49.5608 28.3906C49.4748 28.3896 49.3898 28.3876 49.3018 28.3876C49.2378 28.3876 49.1748 28.3896 49.1108 28.3896C45.9978 28.4106 43.4228 28.9176 42.8228 29.5896H42.6898V29.8906V30.1346V32.1696V32.2626V32.5526L42.7398 32.7946C42.8138 32.9606 43.0398 33.2896 43.7298 33.6076ZM54.7128 31.6466V32.3216C54.6638 32.3576 54.5898 32.4056 54.4878 32.4596C54.1828 32.6196 53.6048 32.8356 52.5588 32.9936C52.3498 33.0246 52.1228 33.0536 51.8758 33.0796C51.4178 33.1266 50.8888 33.1626 50.2828 33.1816C50.2088 33.1836 50.1388 33.1866 50.0628 33.1886L50.0118 33.1676L49.5928 32.9926L49.5618 32.9796L49.1108 32.7916L49.0208 32.7546L44.7718 30.9836C45.9118 31.2286 47.4318 31.3806 49.1108 31.3916C49.1748 31.3926 49.2378 31.3946 49.3018 31.3946C49.3898 31.3946 49.4748 31.3916 49.5608 31.3916C49.6808 31.3906 49.8008 31.3896 49.9188 31.3876C49.9498 31.3866 49.9808 31.3866 50.0118 31.3856C50.2668 31.3796 50.5168 31.3696 50.7638 31.3566C51.0808 31.3396 51.3878 31.3186 51.6858 31.2926C51.6958 31.2916 51.7058 31.2906 51.7158 31.2896C52.2948 31.2376 52.8318 31.1676 53.3178 31.0836C53.7958 31.0006 54.2208 30.9026 54.5838 30.7936H54.7118V31.0836V31.6466H54.7128Z" fill="#2988FF"/>
<path fill-rule="evenodd" clip-rule="evenodd" d="M39.9851 68.9396H39.8531C39.8271 68.9106 39.7911 68.8826 39.7581 68.8546C39.7151 68.8826 39.6671 68.9116 39.6181 68.9396C39.5991 68.9506 39.5791 68.9616 39.5591 68.9736C39.4221 69.0496 39.2701 69.1276 39.0872 69.2036C38.0942 69.6166 36.3682 69.9906 33.3732 69.9906C32.5642 69.9906 31.8552 69.9616 31.2212 69.9136L31.2192 70.1426L31.2132 70.6596C31.8912 70.7126 32.6162 70.7426 33.3732 70.7426C35.5332 70.7426 37.4452 70.5066 38.6522 70.1426H38.7832V71.6696C38.5032 71.8816 37.4352 72.4596 34.1332 72.5376L31.2072 71.3176L31.1952 72.4646L31.1942 72.5756C31.1602 72.6636 31.0552 72.8526 30.7872 73.0746C30.7012 73.1466 30.6002 73.2205 30.4752 73.2975C30.4542 73.3105 30.4282 73.3235 30.4062 73.3365C30.5522 73.4295 30.6752 73.5295 30.7842 73.6345C31.5092 73.7065 32.3632 73.7485 33.3732 73.7485C38.8092 73.7485 39.7701 72.5186 39.9351 72.1426L39.9771 69.4836L39.9801 69.2646C39.9811 69.2566 39.9851 69.2486 39.9851 69.2406C39.9851 69.2326 39.9811 69.2256 39.9811 69.2186L39.9851 68.9396Z" fill="#2988FF"/>
<path fill-rule="evenodd" clip-rule="evenodd" d="M39.9852 64.5816H39.8532C39.7522 64.4686 39.5902 64.3606 39.3852 64.2586C39.3132 64.2946 39.2362 64.3296 39.1542 64.3656C38.9832 64.4386 38.7852 64.5116 38.5652 64.5816C38.5592 64.5836 38.5522 64.5856 38.5452 64.5876C37.5022 64.9166 35.8902 65.1816 33.3732 65.1816C30.8552 65.1816 29.2432 64.9166 28.2002 64.5876C28.1932 64.5856 28.1872 64.5836 28.1802 64.5816C27.9602 64.5116 27.7632 64.4396 27.5922 64.3656C27.5102 64.3306 27.4332 64.2946 27.3612 64.2586C27.1552 64.3616 26.9932 64.4696 26.8932 64.5826H26.7602V67.4826C26.8842 67.4986 27.0072 67.5126 27.1282 67.5296C27.1552 67.5336 27.1842 67.5356 27.2102 67.5396C27.7402 67.6176 28.2372 67.7206 28.7022 67.8426C28.9392 67.9046 29.1692 67.9706 29.3812 68.0446C29.4292 68.0606 29.4712 68.0806 29.5172 68.0976C29.7862 68.1986 30.0272 68.3096 30.2422 68.4306C30.3942 68.5166 30.5412 68.6046 30.6612 68.7006C30.7542 68.7766 30.8252 68.8586 30.8962 68.9406C30.9102 68.9566 30.9292 68.9716 30.9422 68.9886C30.9652 69.0166 31.0032 69.0406 31.0232 69.0706H31.1962L31.2112 69.3106C31.8412 69.3596 32.5502 69.3906 33.3722 69.3906C35.5252 69.3906 36.9682 69.1966 37.9462 68.9406C38.0562 68.9116 38.1672 68.8816 38.2662 68.8516C38.5192 68.7736 38.7332 68.6916 38.9162 68.6086C38.9942 68.5736 39.0642 68.5386 39.1302 68.5026C39.2252 68.4526 39.3102 68.4036 39.3852 68.3536C39.7372 68.1216 39.8802 67.9076 39.9332 67.7846L39.9752 65.1256L39.9792 64.9066C39.9792 64.8986 39.9842 64.8906 39.9842 64.8816C39.9842 64.8746 39.9802 64.8676 39.9792 64.8606L39.9852 64.5816ZM38.7822 65.7836V67.3106C38.6522 67.4096 38.3512 67.5866 37.7352 67.7566C37.4812 67.8266 37.1722 67.8956 36.8012 67.9556C36.7422 67.9656 36.6812 67.9746 36.6192 67.9846C35.9792 68.0806 35.1662 68.1536 34.1332 68.1786L33.0832 67.7406L33.0812 67.7396L32.0912 67.3276L28.8432 65.9746C30.0272 66.2276 31.6182 66.3846 33.3732 66.3846C35.5332 66.3846 37.4452 66.1476 38.6522 65.7836H38.7822Z" fill="#2988FF"/>
<path fill-rule="evenodd" clip-rule="evenodd" d="M39.9851 59.7718H39.8531C39.7521 59.6588 39.5901 59.5508 39.3851 59.4488C39.3131 59.4848 39.2361 59.5198 39.1541 59.5558C38.9831 59.6298 38.7861 59.7018 38.5671 59.7718C38.5601 59.7738 38.5531 59.7758 38.5461 59.7778C37.5031 60.1078 35.8901 60.3728 33.3731 60.3728C30.8552 60.3728 29.2432 60.1078 28.2002 59.7778C28.1932 59.7758 28.1852 59.7738 28.1782 59.7718C27.9592 59.7018 27.7632 59.6298 27.5922 59.5558C27.5102 59.5198 27.4332 59.4838 27.3612 59.4488C27.1562 59.5508 26.9942 59.6578 26.8932 59.7708H26.7612V62.7338L26.8112 62.9758C26.8832 63.1408 27.1102 63.4698 27.8002 63.7878C27.9172 63.8418 28.0522 63.8948 28.1972 63.9468C28.2682 63.9728 28.3432 63.9978 28.4222 64.0228C28.6792 64.1048 28.9802 64.1818 29.3242 64.2518C30.2762 64.4458 31.5762 64.5808 33.3731 64.5808C35.1691 64.5808 36.4691 64.4458 37.4201 64.2528C37.7651 64.1828 38.0661 64.1048 38.3241 64.0228C38.4021 63.9978 38.4771 63.9728 38.5481 63.9468C38.6931 63.8948 38.8281 63.8418 38.9451 63.7878C39.6351 63.4698 39.8621 63.1398 39.9341 62.9748L39.9761 60.3158L39.9791 60.0968C39.9801 60.0888 39.9851 60.0808 39.9851 60.0718C39.9851 60.0648 39.9801 60.0578 39.9801 60.0508L39.9851 59.7718ZM34.1331 63.3698L33.0911 62.9348L28.8432 61.1648C30.0262 61.4188 31.6182 61.5748 33.3731 61.5748C35.5341 61.5748 37.4471 61.3388 38.6541 60.9738H38.7821V62.5018C38.5901 62.6468 38.0251 62.9638 36.6281 63.1738C35.9871 63.2708 35.1721 63.3448 34.1331 63.3698Z" fill="#2988FF"/>
<path fill-rule="evenodd" clip-rule="evenodd" d="M39.9851 54.9632H39.8531C39.7521 54.8502 39.5901 54.7422 39.3841 54.6402C39.3121 54.6752 39.2351 54.7112 39.1531 54.7472C38.9821 54.8202 38.7851 54.8932 38.5651 54.9632C38.5591 54.9652 38.5521 54.9672 38.5451 54.9692C37.5021 55.2982 35.8901 55.5632 33.3731 55.5632C30.8562 55.5632 29.2432 55.2982 28.2002 54.9692C28.1942 54.9672 28.1872 54.9652 28.1812 54.9632C27.9612 54.8932 27.7642 54.8212 27.5932 54.7472C27.5112 54.7122 27.4332 54.6762 27.3622 54.6402C27.1562 54.7432 26.9942 54.8512 26.8932 54.9632H26.7612V57.9262L26.8112 58.1682C26.8842 58.3332 27.1102 58.6622 27.8002 58.9792C27.9172 59.0332 28.0522 59.0862 28.1982 59.1392C28.2692 59.1642 28.3442 59.1892 28.4222 59.2142C28.6802 59.2962 28.9802 59.3732 29.3252 59.4432C30.2772 59.6362 31.5772 59.7722 33.3731 59.7722C35.1691 59.7722 36.4691 59.6362 37.4211 59.4432C37.7661 59.3732 38.0661 59.2962 38.3241 59.2142C38.4021 59.1892 38.4771 59.1642 38.5481 59.1382C38.6931 59.0862 38.8291 59.0332 38.9461 58.9792C39.6361 58.6612 39.8621 58.3322 39.9351 58.1662L39.9771 55.5072L39.9801 55.2882C39.9811 55.2802 39.9851 55.2722 39.9851 55.2632C39.9851 55.2562 39.9811 55.2492 39.9811 55.2422L39.9851 54.9632ZM34.1321 58.5602L33.0901 58.1252L28.8432 56.3562C30.0262 56.6102 31.6182 56.7662 33.3731 56.7662C35.5341 56.7662 37.4461 56.5302 38.6531 56.1652H38.7831V57.6932C38.5901 57.8382 38.0251 58.1542 36.6291 58.3642C35.9881 58.4612 35.1711 58.5352 34.1321 58.5602Z" fill="#2988FF"/>
<path fill-rule="evenodd" clip-rule="evenodd" d="M39.9852 50.1544H39.8532C39.7522 50.0414 39.5902 49.9334 39.3852 49.8314C39.3132 49.8664 39.2362 49.9024 39.1542 49.9374C38.9822 50.0114 38.7852 50.0844 38.5652 50.1544C38.5592 50.1564 38.5522 50.1584 38.5452 50.1604C37.5022 50.4894 35.8902 50.7544 33.3732 50.7544C30.8552 50.7544 29.2432 50.4894 28.2002 50.1604C28.1932 50.1584 28.1872 50.1564 28.1802 50.1544C27.9602 50.0844 27.7632 50.0124 27.5922 49.9384C27.5102 49.9024 27.4332 49.8664 27.3612 49.8314C27.1552 49.9334 26.9932 50.0414 26.8932 50.1544H26.7602V53.1164L26.8112 53.3584C26.8832 53.5234 27.1102 53.8524 27.8002 54.1704C27.9172 54.2244 28.0522 54.2774 28.1972 54.3294C28.2692 54.3554 28.3432 54.3804 28.4222 54.4054C28.6802 54.4874 28.9802 54.5644 29.3252 54.6344C30.2772 54.8274 31.5762 54.9634 33.3722 54.9634C35.1682 54.9634 36.4682 54.8274 37.4202 54.6344C37.7652 54.5644 38.0652 54.4874 38.3232 54.4054C38.4022 54.3804 38.4762 54.3554 38.5472 54.3294C38.6922 54.2774 38.8282 54.2244 38.9442 54.1704C39.6352 53.8524 39.8612 53.5224 39.9342 53.3574L39.9762 50.6984L39.9792 50.4794C39.9802 50.4714 39.9842 50.4634 39.9842 50.4544C39.9842 50.4474 39.9802 50.4404 39.9802 50.4334L39.9852 50.1544ZM34.1332 53.7514L33.0912 53.3164L28.8422 51.5474C30.0262 51.8004 31.6172 51.9574 33.3732 51.9574C35.5332 51.9574 37.4452 51.7204 38.6512 51.3574H38.7822V52.8844C38.5902 53.0294 38.0252 53.3454 36.6282 53.5564C35.9872 53.6524 35.1712 53.7264 34.1332 53.7514Z" fill="#2988FF"/>
<path fill-rule="evenodd" clip-rule="evenodd" d="M39.9851 45.3446H39.8531C39.7521 45.2316 39.5901 45.1236 39.3851 45.0216C39.3131 45.0576 39.2361 45.0926 39.1541 45.1286C38.9831 45.2026 38.7871 45.2746 38.5671 45.3446C38.5611 45.3466 38.5531 45.3486 38.5461 45.3506C37.5041 45.6806 35.8911 45.9456 33.3731 45.9456C30.8562 45.9456 29.2432 45.6806 28.2002 45.3506C28.1932 45.3486 28.1852 45.3466 28.1792 45.3446C27.9592 45.2746 27.7632 45.2016 27.5922 45.1286C27.5102 45.0926 27.4332 45.0566 27.3612 45.0216C27.1562 45.1236 26.9942 45.2316 26.8932 45.3446H26.7612V48.3066V48.3076L26.8112 48.5486C26.8832 48.7136 27.1102 49.0436 27.8002 49.3606C27.9172 49.4146 28.0522 49.4676 28.1972 49.5196C28.2682 49.5456 28.3432 49.5706 28.4222 49.5956C28.6792 49.6776 28.9802 49.7546 29.3242 49.8246C30.2762 50.0186 31.5762 50.1536 33.3731 50.1536C35.1691 50.1536 36.4691 50.0186 37.4201 49.8256C37.7651 49.7556 38.0661 49.6776 38.3241 49.5956C38.4021 49.5706 38.4771 49.5456 38.5481 49.5196C38.6931 49.4676 38.8281 49.4146 38.9451 49.3606C39.6361 49.0426 39.8621 48.7126 39.9341 48.5476L39.9761 45.8886L39.9801 45.6696C39.9801 45.6606 39.9851 45.6526 39.9851 45.6446C39.9851 45.6366 39.9811 45.6296 39.9801 45.6226L39.9851 45.3446ZM34.1331 48.9426L33.0911 48.5086L28.8432 46.7376C30.0262 46.9916 31.6182 47.1476 33.3731 47.1476C35.5341 47.1476 37.4471 46.9116 38.6541 46.5466H38.7821V48.0746C38.5901 48.2196 38.0251 48.5366 36.6281 48.7476C35.9871 48.8436 35.1721 48.9186 34.1331 48.9426Z" fill="#2988FF"/>
<path fill-rule="evenodd" clip-rule="evenodd" d="M39.9851 40.536H39.8531C39.7521 40.423 39.5901 40.315 39.3851 40.213C39.3131 40.248 39.2361 40.284 39.1541 40.32C38.9831 40.393 38.7851 40.466 38.5651 40.536C38.5591 40.538 38.5521 40.54 38.5461 40.542C37.5031 40.871 35.8901 41.136 33.3731 41.136C30.8562 41.136 29.2442 40.871 28.2012 40.542C28.1942 40.54 28.1872 40.538 28.1812 40.536C27.9612 40.466 27.7642 40.394 27.5932 40.32C27.5112 40.285 27.4342 40.249 27.3622 40.213C27.1562 40.316 26.9942 40.424 26.8942 40.537H26.7612V43.499V43.5L26.8122 43.741C26.8842 43.906 27.1112 44.235 27.8002 44.553C27.9172 44.607 28.0532 44.659 28.1982 44.712C28.2692 44.738 28.3442 44.763 28.4232 44.788C28.6802 44.87 28.9812 44.947 29.3262 45.017C30.2782 45.21 31.5772 45.346 33.3741 45.346C35.1701 45.346 36.4701 45.21 37.4211 45.017C37.7661 44.947 38.0671 44.87 38.3251 44.788C38.4031 44.763 38.4771 44.738 38.5491 44.712C38.6941 44.66 38.8291 44.607 38.9461 44.553C39.6371 44.235 39.8631 43.906 39.9351 43.74L39.9771 41.081L39.9811 40.862C39.9811 40.854 39.9861 40.846 39.9861 40.837C39.9861 40.83 39.9821 40.823 39.9811 40.816L39.9851 40.536ZM34.1321 44.133L33.0901 43.699L28.8432 41.929C30.0262 42.183 31.6182 42.339 33.3731 42.339C35.5331 42.339 37.4461 42.103 38.6521 41.739H38.7821V43.267C38.5901 43.411 38.0251 43.728 36.6291 43.938C35.9881 44.034 35.1711 44.108 34.1321 44.133Z" fill="#2988FF"/>
<path fill-rule="evenodd" clip-rule="evenodd" d="M39.9851 35.7262H39.8521C39.7521 35.6132 39.5901 35.5062 39.3851 35.4042C39.3131 35.4402 39.2361 35.4752 39.1541 35.5112C38.9831 35.5842 38.7871 35.6562 38.5681 35.7262C38.5611 35.7282 38.5531 35.7312 38.5451 35.7332C37.5021 36.0622 35.8901 36.3272 33.3731 36.3272C30.8552 36.3272 29.2432 36.0622 28.2002 35.7332C28.1922 35.7312 28.1842 35.7282 28.1772 35.7262C27.9582 35.6562 27.7622 35.5842 27.5922 35.5112C27.5102 35.4752 27.4332 35.4402 27.3612 35.4042C27.1562 35.5062 26.9942 35.6142 26.8932 35.7262H26.7612V38.6892L26.8112 38.9312C26.8832 39.0962 27.1102 39.4252 27.8002 39.7432C27.9172 39.7972 28.0522 39.8502 28.1972 39.9022C28.2692 39.9282 28.3432 39.9532 28.4222 39.9782C28.6802 40.0602 28.9802 40.1372 29.3252 40.2072C30.2772 40.4002 31.5762 40.5362 33.3721 40.5362C35.1681 40.5362 36.4681 40.4002 37.4201 40.2072C37.7651 40.1372 38.0651 40.0602 38.3231 39.9782C38.4021 39.9532 38.4761 39.9282 38.5471 39.9022C38.6931 39.8502 38.8281 39.7972 38.9451 39.7432C39.6351 39.4252 39.8621 39.0952 39.9341 38.9302L39.9761 36.2712L39.9791 36.0522C39.9801 36.0442 39.9851 36.0362 39.9851 36.0272C39.9851 36.0202 39.9801 36.0132 39.9801 36.0062L39.9851 35.7262ZM34.1331 39.3242L33.0911 38.8902L28.8432 37.1192C30.0272 37.3732 31.6182 37.5292 33.3731 37.5292C35.5351 37.5292 37.4481 37.2932 38.6551 36.9282H38.7831V38.4562C38.5911 38.6012 38.0261 38.9182 36.6291 39.1292C35.9871 39.2262 35.1721 39.3002 34.1331 39.3242Z" fill="#2988FF"/>
<path fill-rule="evenodd" clip-rule="evenodd" d="M39.9851 30.9176H39.8531C39.7521 30.8046 39.5901 30.6966 39.3841 30.5946C39.3121 30.6306 39.2351 30.6656 39.1531 30.7016C38.9821 30.7756 38.7851 30.8476 38.5651 30.9176C38.5591 30.9196 38.5521 30.9216 38.5451 30.9236C37.5021 31.2526 35.8901 31.5176 33.3731 31.5176C30.8562 31.5176 29.2442 31.2526 28.2012 30.9236C28.1942 30.9216 28.1872 30.9196 28.1812 30.9176C27.9612 30.8476 27.7642 30.7756 27.5932 30.7016C27.5112 30.6666 27.4342 30.6306 27.3622 30.5946C27.1562 30.6976 26.9942 30.8046 26.8932 30.9176H26.7612V33.8806L26.8112 34.1226C26.8832 34.2876 27.1102 34.6166 27.8002 34.9346C27.9172 34.9886 28.0522 35.0416 28.1972 35.0936C28.2682 35.1196 28.3432 35.1446 28.4212 35.1696C28.6792 35.2516 28.9802 35.3286 29.3242 35.3986C30.2632 35.5896 31.5442 35.7226 33.3021 35.7266C33.3271 35.7266 33.3481 35.7276 33.3721 35.7276C33.3971 35.7276 33.4181 35.7266 33.4431 35.7266C35.2011 35.7226 36.4811 35.5896 37.4201 35.3986C37.7651 35.3286 38.0661 35.2516 38.3241 35.1696C38.4021 35.1446 38.4771 35.1196 38.5481 35.0936C38.6931 35.0416 38.8281 34.9886 38.9451 34.9346C39.6351 34.6166 39.8621 34.2866 39.9341 34.1216L39.9761 31.4626L39.9791 31.2436C39.9801 31.2346 39.9851 31.2266 39.9851 31.2186C39.9851 31.2116 39.9801 31.2036 39.9801 31.1966L39.9851 30.9176ZM34.1341 34.5156L33.0911 34.0816L28.8422 32.3106C30.0262 32.5646 31.6172 32.7206 33.3731 32.7206C35.5341 32.7206 37.4471 32.4836 38.6531 32.1196H38.7821V33.6476C38.5901 33.7926 38.0251 34.1096 36.6281 34.3206C35.9871 34.4166 35.1721 34.4916 34.1341 34.5156Z" fill="#2988FF"/>
<path fill-rule="evenodd" clip-rule="evenodd" d="M39.9851 26.1091H39.8531C39.7521 25.9961 39.5901 25.8881 39.3851 25.7861C39.3131 25.8211 39.2361 25.8571 39.1541 25.8921C38.9831 25.9661 38.7851 26.0391 38.5651 26.1091C38.5591 26.1111 38.5521 26.1131 38.5461 26.1151C37.5031 26.4441 35.8901 26.7101 33.3731 26.7101C30.8562 26.7101 29.2442 26.4441 28.2012 26.1151C28.1942 26.1131 28.1872 26.1111 28.1812 26.1091C27.9612 26.0391 27.7642 25.9671 27.5932 25.8931C27.5112 25.8581 27.4342 25.8221 27.3622 25.7861C27.1562 25.8891 26.9942 25.9971 26.8942 26.1101H26.7612V29.0711V29.0721L26.8122 29.3131C26.8842 29.4781 27.1112 29.8081 27.8012 30.1251C27.9182 30.1791 28.0532 30.2321 28.1992 30.2851C28.2702 30.3101 28.3452 30.3361 28.4232 30.3611C28.6812 30.4431 28.9822 30.5201 29.3262 30.5891C30.2782 30.7831 31.5782 30.9181 33.3741 30.9181C35.1701 30.9181 36.4691 30.7831 37.4211 30.5891C37.7661 30.5201 38.0671 30.4431 38.3241 30.3611C38.4031 30.3361 38.4771 30.3101 38.5481 30.2851C38.6941 30.2321 38.8291 30.1791 38.9461 30.1251C39.6371 29.8071 39.8631 29.4771 39.9361 29.3121L39.9781 26.6541L39.9811 26.4351C39.9821 26.4271 39.9861 26.4191 39.9861 26.4101C39.9861 26.4031 39.9821 26.3961 39.9821 26.3891L39.9851 26.1091ZM34.1321 29.7061L33.0901 29.2711L28.8432 27.5021C30.0272 27.7551 31.6182 27.9121 33.3731 27.9121C35.5341 27.9121 37.4461 27.6751 38.6531 27.3111H38.7831V28.8381C38.5911 28.9831 38.0261 29.3001 36.6291 29.5101C35.9871 29.6071 35.1711 29.6811 34.1321 29.7061Z" fill="#2988FF"/>
<path fill-rule="evenodd" clip-rule="evenodd" d="M39.9852 21.2991H39.8522C39.2402 20.6131 36.5722 20.0971 33.3732 20.0971C30.1732 20.0971 27.5062 20.6131 26.8932 21.2991H26.7602V24.2611V24.2621L26.8112 24.5031C26.8832 24.6691 27.1102 24.9981 27.8002 25.3161C27.9172 25.3701 28.0522 25.4221 28.1972 25.4751C28.2682 25.5011 28.3432 25.5261 28.4222 25.5511C28.6792 25.6331 28.9802 25.7101 29.3252 25.7801C30.2772 25.9731 31.5762 26.1091 33.3722 26.1091C35.1682 26.1091 36.4682 25.9731 37.4202 25.7801C37.7652 25.7101 38.0652 25.6331 38.3232 25.5511C38.4022 25.5261 38.4772 25.5001 38.5472 25.4751C38.6932 25.4221 38.8282 25.3691 38.9452 25.3151C39.6352 24.9971 39.8622 24.6681 39.9342 24.5021L39.9762 21.8431L39.9792 21.6241C39.9802 21.6161 39.9852 21.6081 39.9852 21.6001C39.9852 21.5921 39.9802 21.5851 39.9802 21.5781L39.9852 21.2991ZM34.1332 24.8971L33.0912 24.4631L28.8432 22.6921C30.0262 22.9461 31.6182 23.1021 33.3732 23.1021C35.5352 23.1021 37.4482 22.8661 38.6542 22.5011H38.7822V24.0291C38.5902 24.1741 38.0252 24.4911 36.6282 24.7021C35.9872 24.7981 35.1722 24.8731 34.1332 24.8971Z" fill="#2988FF"/>
<path fill-rule="evenodd" clip-rule="evenodd" d="M30.6418 73.7842C30.6358 73.7782 30.6277 73.7722 30.6218 73.7652C30.5638 73.7052 30.4868 73.6462 30.3978 73.5882C30.3308 73.5452 30.2568 73.5022 30.1738 73.4612C30.1218 73.4872 30.0638 73.5132 30.0068 73.5382C29.9848 73.5482 29.9658 73.5582 29.9428 73.5682C29.8798 73.5952 29.8108 73.6222 29.7418 73.6482C29.6218 73.6952 29.4938 73.7402 29.3538 73.7842C29.3478 73.7862 29.3408 73.7882 29.3348 73.7902C29.1838 73.8382 29.0198 73.8842 28.8438 73.9282C27.8028 74.1902 26.3148 74.3842 24.1618 74.3842C21.6448 74.3842 20.0318 74.1192 18.9888 73.7902C18.9828 73.7882 18.9758 73.7862 18.9688 73.7842C18.7488 73.7142 18.5518 73.6422 18.3808 73.5682C18.2988 73.5332 18.2218 73.4972 18.1498 73.4612C17.9438 73.5642 17.7818 73.6722 17.6818 73.7852H17.5488V76.7462V76.7482L17.5988 76.9882C17.7638 77.3652 18.7258 78.5932 24.1618 78.5932C29.5968 78.5932 30.5588 77.3652 30.7238 76.9882L30.7647 74.3282L30.7668 74.2312L30.7688 74.1062C30.7688 74.0992 30.7738 74.0922 30.7738 74.0852C30.7738 74.0782 30.7697 74.0722 30.7697 74.0662L30.7738 73.7842H30.6418ZM29.5718 74.9872V76.5142C29.2908 76.7252 28.2228 77.3032 24.9208 77.3812L19.6318 75.1772C20.8158 75.4302 22.4068 75.5872 24.1618 75.5872C26.3218 75.5872 28.2338 75.3502 29.4408 74.9862H29.5718V74.9872Z" fill="#2988FF"/>
<path fill-rule="evenodd" clip-rule="evenodd" d="M17.5993 72.1793C17.6713 72.3443 17.8983 72.6743 18.5883 72.9913C18.7063 73.0453 18.8403 73.0983 18.9863 73.1513C19.0573 73.1763 19.1323 73.2023 19.2103 73.2273C19.4683 73.3093 19.7693 73.3863 20.1143 73.4563C21.0653 73.6493 22.3653 73.7843 24.1623 73.7843C25.6263 73.7843 26.7573 73.6933 27.6443 73.5563C27.8453 73.5253 28.0343 73.4913 28.2093 73.4563C28.3223 73.4323 28.4353 73.4103 28.5393 73.3853C28.6443 73.3603 28.7383 73.3343 28.8343 73.3073C28.9303 73.2803 29.0253 73.2543 29.1123 73.2263C29.1913 73.2013 29.2653 73.1763 29.3373 73.1503C29.3573 73.1433 29.3803 73.1373 29.3993 73.1293C29.5213 73.0843 29.6333 73.0383 29.7343 72.9913C29.7623 72.9783 29.7863 72.9653 29.8133 72.9523C30.2133 72.7563 30.4453 72.5613 30.5773 72.4023C30.6513 72.3143 30.6983 72.2363 30.7233 72.1793L30.7403 71.1223L30.7483 70.6183L30.7553 70.1413L30.7603 69.8723L30.7653 69.5193L30.7673 69.4203L30.7693 69.2973C30.7693 69.2893 30.7743 69.2833 30.7743 69.2753H30.7733C30.7733 69.2683 30.7703 69.2633 30.7693 69.2573L30.7743 68.9753H30.6403C30.6343 68.9673 30.6243 68.9603 30.6173 68.9533C30.6123 68.9483 30.6063 68.9443 30.6013 68.9393C30.4943 68.8323 30.3353 68.7303 30.1343 68.6343C30.0363 68.5873 29.9293 68.5423 29.8113 68.4973C29.5573 68.4023 29.2603 68.3143 28.9223 68.2343C28.8443 68.2163 28.7623 68.1983 28.6803 68.1803C28.4733 68.1363 28.2553 68.0953 28.0243 68.0583C27.8843 68.0343 27.7403 68.0133 27.5923 67.9933C27.4873 67.9783 27.3843 67.9633 27.2753 67.9503C27.1473 67.9343 27.0133 67.9203 26.8803 67.9073C26.8393 67.9033 26.8003 67.8983 26.7603 67.8943C26.6133 67.8793 26.4613 67.8673 26.3093 67.8553C25.6353 67.8033 24.9143 67.7733 24.1613 67.7733C20.9623 67.7733 18.2943 68.2893 17.6813 68.9753H17.5483V71.9373L17.5493 71.9393L17.5993 72.1793ZM29.5723 70.4683V70.6363V71.7053C29.4643 71.7873 29.2363 71.9233 28.8123 72.0633C28.5143 72.1623 28.1173 72.2633 27.5923 72.3503C27.5353 72.3593 27.4773 72.3683 27.4173 72.3773C27.4023 72.3803 27.3863 72.3823 27.3703 72.3843C27.2563 72.4013 27.1393 72.4173 27.0133 72.4323C26.9483 72.4403 26.8783 72.4473 26.8103 72.4553C26.6593 72.4713 26.5003 72.4863 26.3343 72.5003C25.9153 72.5343 25.4493 72.5603 24.9223 72.5733L23.8803 72.1383L19.6343 70.3693C20.8183 70.6223 22.4073 70.7783 24.1613 70.7783C24.9153 70.7783 25.6353 70.7483 26.3093 70.6953C26.4613 70.6843 26.6133 70.6723 26.7603 70.6573C26.8623 70.6473 26.9593 70.6353 27.0583 70.6253C27.1083 70.6193 27.1603 70.6143 27.2103 70.6083C27.4723 70.5773 27.7233 70.5423 27.9623 70.5043C28.2793 70.4533 28.5773 70.3973 28.8493 70.3353C28.8513 70.3353 28.8523 70.3343 28.8533 70.3343C29.0663 70.2853 29.2603 70.2323 29.4423 70.1773H29.5713V70.4683H29.5723Z" fill="#2988FF"/>
</svg>
