<svg width="96" height="96" viewBox="0 0 96 96" fill="none" xmlns="http://www.w3.org/2000/svg">
<path fill-rule="evenodd" clip-rule="evenodd" d="M22.5652 74.5564L73.6343 23.0842L71.5046 20.9712L20.4356 72.4434L22.5652 74.5564Z" fill="#2988FF"/>
<path fill-rule="evenodd" clip-rule="evenodd" d="M39.5597 75.562L74.8379 40.365L72.719 38.2412L37.4408 73.4383L39.5597 75.562Z" fill="#2988FF"/>
<path fill-rule="evenodd" clip-rule="evenodd" d="M59.561 75.5608L74.561 60.5608L72.4397 58.4395L57.4397 73.4395L59.561 75.5608Z" fill="#2988FF"/>
<path fill-rule="evenodd" clip-rule="evenodd" d="M21.5772 56.5445L53.5771 23.5445L51.4234 21.4561L19.4234 54.4561L21.5772 56.5445Z" fill="#2988FF"/>
<path fill-rule="evenodd" clip-rule="evenodd" d="M22.561 37.5608L37.561 22.5608L35.4397 20.4395L20.4397 35.4395L22.561 37.5608Z" fill="#2988FF"/>
<path fill-rule="evenodd" clip-rule="evenodd" d="M55.3354 39.6882L65.4517 49.5732L67.5483 47.4274L57.432 37.5425L55.3354 39.6882Z" fill="#2988FF"/>
<path fill-rule="evenodd" clip-rule="evenodd" d="M38.4397 22.5608L46.4397 30.5608L48.561 28.4395L40.561 20.4395L38.4397 22.5608Z" fill="#2988FF"/>
<path fill-rule="evenodd" clip-rule="evenodd" d="M46.4397 66.5608L55.4397 75.5608L57.561 73.4395L48.561 64.4395L46.4397 66.5608Z" fill="#2988FF"/>
<path fill-rule="evenodd" clip-rule="evenodd" d="M28.2057 47.7893L38.6419 58.2254L40.7632 56.1041L30.3271 45.668L28.2057 47.7893Z" fill="#2988FF"/>
<path fill-rule="evenodd" clip-rule="evenodd" d="M19.6001 22.0006C19.6001 21.2274 20.2269 20.6006 21.0001 20.6006H73.9426C74.7158 20.6006 75.3426 21.2274 75.3426 22.0006V74.9431C75.3426 75.7163 74.7158 76.3431 73.9426 76.3431H21.0001C20.2269 76.3431 19.6001 75.7163 19.6001 74.9431V22.0006ZM22.4001 23.4006V73.5431H72.5426V23.4006H22.4001Z" fill="#1C3553"/>
</svg>
