<svg width="96" height="96" viewBox="0 0 96 96" fill="none" xmlns="http://www.w3.org/2000/svg">
<path fill-rule="evenodd" clip-rule="evenodd" d="M23.7 58.9287C24.0722 58.5727 24.5673 58.374 25.0824 58.374H29.7726C30.8772 58.374 31.7726 59.2695 31.7726 60.374C31.7726 61.4786 30.8772 62.374 29.7726 62.374H25.8848L14.621 73.1468H81.771L70.5072 62.374H56.5081C55.4036 62.374 54.5081 61.4786 54.5081 60.374C54.5081 59.2695 55.4036 58.374 56.5081 58.374H71.3097C71.8247 58.374 72.3198 58.5727 72.692 58.9287L88.1381 73.7015C88.7285 74.2662 88.9161 75.1333 88.6119 75.8916C88.3076 76.6498 87.5728 77.1468 86.7557 77.1468H9.6363C8.81926 77.1468 8.08437 76.6498 7.78013 75.8916C7.47589 75.1333 7.66348 74.2662 8.25394 73.7015L23.7 58.9287Z" fill="#2988FF"/>
<path fill-rule="evenodd" clip-rule="evenodd" d="M58.3316 62.6514C58.6841 62.4308 59.1487 62.5377 59.3694 62.8902L66.8184 74.7907C67.039 75.1432 66.9321 75.6079 66.5796 75.8285C66.2271 76.0492 65.7625 75.9423 65.5418 75.5898L58.0928 63.6892C57.8722 63.3367 57.9791 62.8721 58.3316 62.6514ZM36.8655 62.8902C37.0862 62.5377 37.5509 62.4308 37.9034 62.6515C38.2559 62.8721 38.3627 63.3368 38.142 63.6893L30.692 75.5898C30.4713 75.9423 30.0067 76.0491 29.6542 75.8285C29.3017 75.6078 29.1948 75.1432 29.4155 74.7907L36.8655 62.8902ZM47.7149 63.2897C47.7149 62.8739 48.0521 62.5367 48.4679 62.5367C48.8838 62.5367 49.2209 62.8739 49.2209 63.2897V75.68C49.2209 76.0958 48.8838 76.433 48.4679 76.433C48.0521 76.433 47.7149 76.0958 47.7149 75.68V63.2897ZM30.6829 62.8731C30.9614 62.5642 31.4375 62.5395 31.7464 62.818C32.0553 63.0964 32.08 63.5726 31.8016 63.8814L31.5219 63.6294L31.8016 63.8814L21.3167 75.5132C21.0383 75.8221 20.5621 75.8467 20.2532 75.5683L20.5053 75.2886L20.2532 75.5683C19.9443 75.2899 19.9196 74.8137 20.1981 74.5048L30.6829 62.8731L30.9626 63.1252L30.6829 62.8731ZM64.4874 62.818C64.7963 62.5395 65.2725 62.5642 65.5509 62.8731L76.0358 74.5048C76.3142 74.8137 76.2895 75.2899 75.9806 75.5683C75.6717 75.8467 75.1956 75.8221 74.9171 75.5132L64.4323 63.8814C64.1539 63.5725 64.1786 63.0964 64.4874 62.818ZM42.8473 64.051C43.0026 63.6652 43.4413 63.4785 43.8271 63.6339C44.2128 63.7893 44.3996 64.2279 44.2442 64.6137L39.6022 76.1375C39.4468 76.5232 39.0081 76.71 38.6223 76.5546C38.2366 76.3992 38.0498 75.9605 38.2052 75.5748L42.8473 64.051ZM52.4068 63.6339C52.7925 63.4785 53.2312 63.6652 53.3866 64.051L58.0286 75.5748C58.184 75.9605 57.9973 76.3992 57.6115 76.5546C57.2258 76.71 56.7871 76.5232 56.6317 76.1375L51.9897 64.6137C51.8343 64.2279 52.021 63.7893 52.4068 63.6339Z" fill="#2988FF"/>
<path fill-rule="evenodd" clip-rule="evenodd" d="M19.5602 66.1685C19.5602 65.7527 19.8974 65.4155 20.3132 65.4155H76.7606C77.1765 65.4155 77.5136 65.7527 77.5136 66.1685C77.5136 66.5844 77.1765 66.9215 76.7606 66.9215H20.3132C19.8974 66.9215 19.5602 66.5844 19.5602 66.1685ZM15.3062 69.6293C15.3062 69.2135 15.6433 68.8763 16.0592 68.8763H80.1741C80.59 68.8763 80.9271 69.2135 80.9271 69.6293C80.9271 70.0452 80.59 70.3823 80.1741 70.3823H16.0592C15.6433 70.3823 15.3062 70.0452 15.3062 69.6293Z" fill="#2988FF"/>
<path fill-rule="evenodd" clip-rule="evenodd" d="M42.0585 18.3169C42.7112 18.3169 43.3097 18.6801 43.6109 19.2591L53.6185 38.4915C53.9008 39.034 53.8795 39.6845 53.5622 40.2073C53.2449 40.7301 52.6777 41.0493 52.0661 41.0493H51.3787L56.6339 51.1507C56.9162 51.6932 56.8947 52.3437 56.5774 52.8664C56.2601 53.3892 55.693 53.7084 55.0815 53.7084H53.6996L57.5708 61.147C57.8532 61.6895 57.8318 62.34 57.5145 62.8628C57.1972 63.3856 56.63 63.7049 56.0185 63.7049H44.8708V67.0875C44.8708 68.054 44.0873 68.8375 43.1208 68.8375H40.9983C40.0318 68.8375 39.2483 68.054 39.2483 67.0875V63.7049H28.0996C27.4881 63.7049 26.9209 63.3857 26.6036 62.8629C26.2863 62.3401 26.2649 61.6896 26.5472 61.1471L30.4177 53.7084H29.0356C28.4241 53.7084 27.8569 53.3891 27.5396 52.8663C27.2223 52.3435 27.2009 51.693 27.4832 51.1505L32.74 41.0493H32.053C31.4415 41.0493 30.8743 40.7301 30.557 40.2074C30.2397 39.6846 30.2183 39.0342 30.5005 38.4917L40.5061 19.2592C40.8073 18.6802 41.4057 18.3169 42.0585 18.3169ZM34.9361 37.5493H35.6235C36.2351 37.5493 36.8023 37.8686 37.1196 38.3914C37.4369 38.9142 37.4582 39.5647 37.1759 40.1072L31.9191 50.2084H33.301C33.9125 50.2084 34.4797 50.5276 34.797 51.0504C35.1143 51.5732 35.1357 52.2236 34.8534 52.7661L30.9829 60.2049H40.9983C41.3974 60.2049 41.7652 60.3384 42.0596 60.5633C42.3539 60.3384 42.7218 60.2049 43.1208 60.2049H53.1349L49.2637 52.7663C48.9814 52.2238 49.0028 51.5733 49.32 51.0504C49.6373 50.5276 50.2045 50.2084 50.8161 50.2084H52.1984L46.9431 40.107C46.6609 39.5645 46.6823 38.914 46.9996 38.3913C47.3169 37.8685 47.8841 37.5493 48.4956 37.5493H49.1828L42.0587 23.8584L34.9361 37.5493Z" fill="#1C3553"/>
</svg>
