<svg width="96" height="96" viewBox="0 0 96 96" fill="none" xmlns="http://www.w3.org/2000/svg">
<path fill-rule="evenodd" clip-rule="evenodd" d="M59.4927 38.3998C59.4927 37.6774 60.0783 37.0918 60.8007 37.0918H65.6007C66.3231 37.0918 66.9087 37.6774 66.9087 38.3998V44.8C66.9087 45.5224 66.3231 46.108 65.6007 46.108H60.8007C60.0783 46.108 59.4927 45.5224 59.4927 44.8V38.3998ZM62.1087 39.7078V43.4919H64.2927V39.7078H62.1087Z" fill="#1C3553"/>
<path fill-rule="evenodd" clip-rule="evenodd" d="M45.0928 38.3998C45.0928 37.6774 45.6784 37.0918 46.4008 37.0918H51.2008C51.9232 37.0918 52.5088 37.6774 52.5088 38.3998V44.8C52.5088 45.5224 51.9232 46.108 51.2008 46.108H46.4008C45.6784 46.108 45.0928 45.5224 45.0928 44.8V38.3998ZM47.7088 39.7078V43.4919H49.8928V39.7078H47.7088Z" fill="#1C3553"/>
<path fill-rule="evenodd" clip-rule="evenodd" d="M39.5698 22.2741C39.5698 22.2741 39.556 17.7948 39.5612 14.1781C39.5629 13.199 39.9541 12.8122 40.938 12.8054C42.4129 12.7985 43.8861 12.7968 45.3594 12.8071C46.326 12.8139 46.7223 13.2264 46.7292 14.2021C46.7361 15.0425 46.712 14.7635 46.7396 15.6022L39.5698 22.2741Z" fill="#1C3553"/>
<path fill-rule="evenodd" clip-rule="evenodd" d="M33.2972 35.7259C33.1722 35.7264 33.0332 35.727 32.8757 35.7277C31.9479 35.7314 31.1927 34.9822 31.189 34.0544C31.1853 33.1265 31.9344 32.3713 32.8622 32.3676C33.0187 32.367 33.157 32.3664 33.2817 32.3659C34.1796 32.3622 34.368 32.3614 35.4982 32.3659C36.1523 32.369 37.1029 32.4668 37.8229 33.1846C38.5466 33.9063 38.6413 34.8573 38.6413 35.5077V43.2014C38.6413 44.1292 37.8891 44.8819 36.9613 44.8819C36.0334 44.8819 35.2813 44.1297 35.2813 43.2018V35.7258C34.3421 35.7222 34.1313 35.7225 33.2972 35.7259Z" fill="#1C3553"/>
<path fill-rule="evenodd" clip-rule="evenodd" d="M56.2049 11.3294C57.1792 11.2359 57.9674 11.6776 58.5818 12.2487C59.2614 12.8804 59.3003 13.9434 58.6686 14.6231C58.0369 15.3027 56.9739 15.3415 56.2943 14.7098C56.2911 14.7069 56.288 14.704 56.285 14.7012C56.2521 14.7031 56.2165 14.7042 56.1785 14.7041C56.1411 14.7042 56.106 14.7031 56.0736 14.7013M56.0652 14.7091C55.3154 15.4078 52.2006 18.1702 48.481 21.469C47.4597 22.3747 46.3929 23.3208 45.317 24.2758C40.2905 28.7368 35.0532 33.4 33.1577 35.1814C32.4815 35.8168 31.4183 35.7838 30.7829 35.1077C30.1475 34.4316 30.1805 33.3683 30.8566 32.7329C32.7967 30.9096 38.0822 26.2042 43.0866 21.7627C44.1829 20.7898 45.2652 19.8299 46.2971 18.9147C50.004 15.6271 53.0603 12.9165 53.7753 12.2502L53.7769 12.2487C54.3899 11.6789 55.1784 11.2357 56.1527 11.3295C56.1615 11.3299 56.1701 11.3304 56.1785 11.3309C56.1871 11.3304 56.1959 11.3299 56.2049 11.3294" fill="#1C3553"/>
<path fill-rule="evenodd" clip-rule="evenodd" d="M79.2893 32.3659C79.4139 32.3664 79.5523 32.367 79.7087 32.3676C80.6366 32.3713 81.3857 33.1265 81.382 34.0544C81.3783 34.9822 80.6231 35.7314 79.6953 35.7277C79.5378 35.727 79.3988 35.7264 79.2738 35.7259C78.4396 35.7225 78.2289 35.7216 77.2897 35.7251V45.9375L75.6097 45.9383L73.9297 45.9383V35.5077C73.9297 34.8573 74.0243 33.9063 74.7481 33.1846C75.468 32.4668 76.4175 32.369 77.0716 32.3659C78.2018 32.3614 78.3914 32.3622 79.2893 32.3659ZM75.6097 45.9383L73.9297 45.9383C73.9297 46.8661 74.6818 47.6183 75.6097 47.6183C76.5375 47.6183 77.2897 46.8653 77.2897 45.9375L75.6097 45.9383Z" fill="#1C3553"/>
<path fill-rule="evenodd" clip-rule="evenodd" d="M56.2857 14.7012C56.2827 14.704 56.2796 14.7069 56.2764 14.7098C55.5968 15.3415 54.5338 15.3027 53.9021 14.6231C53.2704 13.9434 53.3093 12.8804 53.9889 12.2487C54.6033 11.6776 55.3915 11.2359 56.3658 11.3294C56.3748 11.3299 56.3836 11.3304 56.3922 11.3309C56.4006 11.3304 56.4092 11.3299 56.418 11.3295C57.3923 11.2357 58.1808 11.6789 58.7938 12.2487L58.7954 12.2502C59.5104 12.9165 62.5668 15.6272 66.2738 18.9149C67.3056 19.83 68.3879 20.7898 69.484 21.7627C74.4885 26.2042 79.774 30.9096 81.7141 32.7329C82.3902 33.3683 82.4232 34.4316 81.7878 35.1077C81.1524 35.7838 80.0892 35.8168 79.413 35.1814C77.5175 33.4 72.2802 28.7368 67.2537 24.2758C66.1778 23.3208 65.111 22.3747 64.0898 21.4691C60.3704 18.1704 57.2558 15.4082 56.5056 14.7092C56.5053 14.7089 56.505 14.7086 56.5047 14.7083L56.5121 14.7004C56.5071 14.7007 56.5021 14.701 56.4971 14.7013C56.492 14.6967 56.4872 14.6923 56.4825 14.6881C56.4744 14.6879 56.4664 14.6877 56.4583 14.6873L56.4589 14.7027C56.4359 14.7036 56.4137 14.704 56.3922 14.7041C56.3707 14.704 56.3485 14.7036 56.3255 14.7027L56.3261 14.6873C56.3175 14.6877 56.3088 14.6879 56.3002 14.6881M56.3265 14.677L56.3262 14.6866C56.3177 14.6869 56.3094 14.6871 56.3012 14.6872M56.4579 14.677L56.4583 14.6866C56.4661 14.6868 56.4738 14.687 56.4814 14.6872C56.477 14.6832 56.4727 14.6794 56.4685 14.6758C56.465 14.6762 56.4614 14.6766 56.4579 14.677ZM56.4575 14.6662C56.461 14.6692 56.4647 14.6724 56.4685 14.6757L56.4575 14.6662ZM56.3265 14.677C56.3225 14.6765 56.3185 14.676 56.3144 14.6755C56.3188 14.6717 56.323 14.6681 56.327 14.6647L56.3265 14.677ZM56.3144 14.6756C56.3184 14.6761 56.3225 14.6766 56.3265 14.677L56.3144 14.6756ZM56.3922 14.7041C56.4296 14.7042 56.4647 14.7031 56.4971 14.7013C56.4999 14.7039 56.5027 14.7065 56.5056 14.7092C56.5059 14.7094 56.5061 14.7096 56.5063 14.7098L56.5152 14.7002C56.5293 14.6993 56.5428 14.6982 56.5557 14.6971C56.6081 14.6925 56.6537 14.6862 56.6903 14.6803M56.2857 14.7012C56.3186 14.7031 56.3542 14.7042 56.3922 14.7041L56.2857 14.7012Z" fill="#1C3553"/>
<path fill-rule="evenodd" clip-rule="evenodd" d="M12.4814 37.338C12.4814 36.0125 13.556 34.938 14.8814 34.938H27.1894C28.1112 34.938 28.9516 35.466 29.3516 36.2966L44.0827 66.8821H64.1132C65.4387 66.8821 66.5132 67.9566 66.5132 69.2821C66.5132 70.6077 65.4387 71.6822 64.1132 71.6822H42.5747C41.6529 71.6822 40.8125 71.1542 40.4125 70.3236L25.6815 39.7381H14.8814C13.556 39.7381 12.4814 38.6635 12.4814 37.338Z" fill="#2988FF"/>
<path fill-rule="evenodd" clip-rule="evenodd" d="M80.3566 49.2493C81.5436 49.8392 82.0276 51.2797 81.4378 52.4667L72.5501 70.3515C72.1446 71.1675 71.312 71.6835 70.4009 71.6835H48.9796C47.6541 71.6835 46.5796 70.6089 46.5796 69.2834C46.5796 67.9579 47.6541 66.8834 48.9796 66.8834H68.9135L77.1393 50.3305C77.7291 49.1435 79.1696 48.6595 80.3566 49.2493Z" fill="#2988FF"/>
<path fill-rule="evenodd" clip-rule="evenodd" d="M44.2965 81.9877C46.5658 81.9877 48.4061 80.1597 48.4061 77.9055C48.4061 75.6513 46.5658 73.8232 44.2965 73.8232C42.0273 73.8232 40.187 75.6513 40.187 77.9055C40.187 80.1597 42.0273 81.9877 44.2965 81.9877Z" fill="#2988FF"/>
<path fill-rule="evenodd" clip-rule="evenodd" d="M67.4967 81.9877C69.766 81.9877 71.6063 80.1597 71.6063 77.9055C71.6063 75.6513 69.766 73.8232 67.4967 73.8232C65.2275 73.8232 63.3872 75.6513 63.3872 77.9055C63.3872 80.1597 65.2275 81.9877 67.4967 81.9877Z" fill="#2988FF"/>
<path fill-rule="evenodd" clip-rule="evenodd" d="M33.1929 50H80.4075V54.0001H33.1929V50Z" fill="#2988FF"/>
</svg>
