<svg width="96" height="96" viewBox="0 0 96 96" fill="none" xmlns="http://www.w3.org/2000/svg">
<path d="M16.1997 79.1009H24.3996C26.2996 79.1009 27.7996 77.6009 27.7996 75.7009V75.3009C32.4995 76.9009 43.3994 80.5008 47.4994 81.9008C48.9994 82.4008 50.3993 82.6008 51.7993 82.6008C55.6993 82.6008 58.8993 81.0008 60.4992 80.1008L60.8992 79.9008C62.7992 79.0009 78.0991 70.7009 80.699 69.301C84.199 67.401 84.999 64.601 84.299 62.701C83.899 61.801 83.099 61.001 82.099 60.601C80.499 59.901 78.5991 60.001 76.7991 60.801C75.0991 61.401 69.7991 63.301 66.2992 64.501C66.0992 61.701 63.7992 59.5011 61.0992 59.5011H51.3993C51.2993 59.5011 50.7993 59.4011 50.7993 59.3011L50.6993 59.2011C44.4994 52.4011 31.8995 52.5011 27.9996 52.8011C27.5996 51.4011 26.2996 50.3011 24.7996 50.3011L14.2997 50.2011H11.8997L11.4997 51.4011C11.4997 51.5011 11.1997 52.4011 11.1997 53.5011C10.9997 54.8011 9.99976 67.101 15.6997 78.2009L16.1997 79.1009ZM28.0996 56.5011C31.3995 56.3011 42.7994 56.1011 47.9994 61.701C49.1994 63.201 51.1993 63.301 51.3993 63.301H60.9992C61.7992 63.301 62.6992 64.101 62.6992 65.201C62.6992 66.301 61.8992 67.101 60.7992 67.101H44.4994C43.4994 67.101 42.6994 67.901 42.6994 68.901C42.6994 69.9009 43.4994 70.7009 44.4994 70.7009H60.7992C62.2992 70.7009 63.6992 70.1009 64.6992 69.101C66.4992 68.501 75.6991 65.201 78.0991 64.301C79.799 63.601 80.899 64.001 80.999 64.201C81.099 64.401 80.699 65.401 78.9991 66.301C76.6991 67.601 61.0992 75.9009 59.2993 76.9009L58.8993 77.1009C56.9993 78.1009 52.9993 80.1008 48.6994 78.7009C44.1994 77.1009 31.5995 72.9009 27.8996 71.7009L28.0996 56.5011ZM14.6997 53.8011L24.4996 54.0011L24.2996 75.5009H18.3997C13.5997 65.401 14.6997 54.1011 14.6997 53.8011Z" fill="#2988FF"/>
<path fill-rule="evenodd" clip-rule="evenodd" d="M46.9995 46V50.0001H48.9995V46H46.9995ZM45.9995 44C45.4473 44 44.9995 44.4478 44.9995 45V51.0001C44.9995 51.5524 45.4473 52.0001 45.9995 52.0001H49.9995C50.5518 52.0001 50.9995 51.5524 50.9995 51.0001V45C50.9995 44.4478 50.5518 44 49.9995 44H45.9995Z" fill="#1C3553"/>
<path fill-rule="evenodd" clip-rule="evenodd" d="M61.9994 46V50.0001H63.9993V46H61.9994ZM60.9994 44C60.4471 44 59.9994 44.4478 59.9994 45V51.0001C59.9994 51.5524 60.4471 52.0001 60.9994 52.0001H64.9993C65.5516 52.0001 65.9993 51.5524 65.9993 51.0001V45C65.9993 44.4478 65.5516 44 64.9993 44H60.9994Z" fill="#1C3553"/>
<path d="M58.8993 14.1014C58.0993 13.3014 57.1993 13.0014 56.2993 13.1014C55.3994 13.0014 54.4994 13.4014 53.6994 14.1014L44.9995 22.2013C38.1995 28.6013 29.7996 36.5012 28.1996 37.9012C27.7996 38.3012 26.4996 39.5012 27.1996 41.4011C27.5996 42.2011 28.3996 43.2011 30.2996 43.2011C31.8996 43.2011 33.4996 43.2011 35.1996 43.2011V49.5011C35.1996 50.5011 35.9996 51.301 36.9995 51.301C37.9995 51.301 38.7995 50.5011 38.7995 49.5011V42.9011C38.7995 40.8012 37.5995 39.6012 35.4996 39.5012C34.2996 39.5012 32.9996 39.5012 31.7996 39.5012C34.6996 36.8012 41.6995 30.2013 47.4994 24.7013L56.1993 16.6014C56.2993 16.6014 56.2993 16.6014 56.2993 16.6014C57.1993 17.4014 60.8993 20.9014 65.1993 25.0013C70.9992 30.4013 77.8991 36.9012 80.6991 39.5012C79.4991 39.5012 78.1991 39.5012 76.9991 39.5012C74.7992 39.5012 73.6992 40.7012 73.6992 42.9011V57.501C73.6992 58.501 74.4992 59.301 75.4991 59.301C76.4991 59.301 77.2991 58.501 77.2991 57.501V43.2011C78.8991 43.2011 80.4991 43.2011 82.0991 43.2011C83.9991 43.2011 84.799 42.2011 85.199 41.4011C85.999 39.6012 84.6991 38.3012 84.1991 37.9012C82.6991 36.5012 74.3992 28.7013 67.6992 22.4013C63.4993 18.4014 59.7993 14.9014 58.8993 14.1014Z" fill="#1C3553"/>
<path d="M42.9993 20.4013C42.9993 19.4013 42.5993 19.0013 41.5993 19.0013C40.0993 19.0013 38.5993 19.0013 37.0993 19.0013C36.0993 19.0013 35.6993 19.4013 35.6993 20.4013C35.6993 24.1012 35.6993 29.2012 35.6993 29.2012L42.9993 22.1012C42.9993 21.3012 42.9993 21.3012 42.9993 20.4013Z" fill="#1C3553"/>
</svg>
