<svg width="96" height="96" viewBox="0 0 96 96" fill="none" xmlns="http://www.w3.org/2000/svg">
<path d="M72.6 35.7965V45.2965C72.6 46.1965 73.3 46.9965 74.2 46.9965C75.1 46.9965 75.8 46.2965 75.8 45.2965V35.8965C77.5 35.8965 79.1 35.8965 80.8 35.8965C82.6 35.9965 83.4 34.9965 83.7 34.1965C84.4 32.4965 83.2 31.2965 82.8 30.8965C81.2 29.3965 72.5 21.1965 65.7 14.7965L57.4 6.99648C57.1 6.69648 56.2 5.79648 54.9 5.99648C53.6 5.79648 52.7 6.69648 52.4 6.99648L44 14.8965C37.2 21.2965 28.6 29.3965 27 30.8965C26.6 31.2965 25.3 32.4965 26.1 34.1965C26.4 34.9965 27.2 35.8965 29 35.8965C30.7 35.8965 32.3 35.8965 34 35.8965V43.5965C34 44.4965 34.7 45.2965 35.6 45.2965C36.5 45.2965 37.2 44.5965 37.2 43.5965V35.7965C37.2 33.6965 36.1 32.5965 34 32.5965C32.6 32.5965 31.3 32.5965 29.9 32.5965C32.6 30.0965 40.1 23.0965 46.1 17.3965L54.5 9.49648L54.6 9.39648C54.7 9.39648 54.8 9.39648 54.9 9.39648L55 9.49648L63.3 17.2965C69.4 22.9965 77 30.0965 79.7 32.6965C78.3 32.6965 77 32.6965 75.6 32.6965C73.7 32.5965 72.6 33.6965 72.6 35.7965Z" fill="#1C3553"/>
<path d="M40.0001 10.9966C38.5001 10.9966 37.0001 10.9966 35.5001 10.9966C34.5001 10.9966 34.1001 11.3966 34.1001 12.3966C34.1001 16.0966 34.1001 21.9966 34.1001 21.9966L41.4001 14.8966C41.4001 13.9966 41.4001 13.2966 41.4001 12.3966C41.4001 11.3966 41.0001 10.9966 40.0001 10.9966Z" fill="#1C3553"/>
<path fill-rule="evenodd" clip-rule="evenodd" d="M46 40V43.9999H48V40H46ZM45 38C44.4477 38 44 38.4477 44 39V44.9999C44 45.5522 44.4477 45.9999 45 45.9999H49C49.5523 45.9999 50 45.5522 50 44.9999V39C50 38.4477 49.5523 38 49 38H45Z" fill="#1C3553"/>
<path fill-rule="evenodd" clip-rule="evenodd" d="M62 40V43.9999H64V40H62ZM61 38C60.4477 38 60 38.4477 60 39V44.9999C60 45.5522 60.4477 45.9999 61 45.9999H65C65.5523 45.9999 66 45.5522 66 44.9999V39C66 38.4477 65.5523 38 65 38H61Z" fill="#1C3553"/>
<path d="M30.2 64.8964L26.2 72.1964C25.9 72.6964 25.9 73.2964 26.2 73.7964L27.2 75.7964C27.5 76.3964 28.1 76.7964 28.8 76.7964H72.7L74.2 79.7964C74.5 80.3964 75.1 80.7964 75.8 80.7964C76.1 80.7964 76.3 80.6964 76.6 80.5964C77.5 80.1964 77.8 79.0964 77.4 78.2964L75.4 74.2964C75.1 73.6964 74.5 73.2964 73.8 73.2964H29.9L29.8 73.0964L33.9 65.7964H73.9C74.8 65.7964 75.5 65.0964 75.6 64.1964L77.6 45.7964C77.7 45.2964 77.5 44.7964 77.2 44.4964C76.9 44.0964 76.4 43.8964 75.9 43.8964L28 43.1964C27.9 43.1964 27.8 43.1964 27.7 43.1964L24.5 32.0964C24.3 31.5964 24 31.0964 23.4 30.8964C17.9 28.7964 14.7 27.7964 13.8 27.7964C12.8 27.7964 12 28.5964 12 29.5964C12 30.4964 12.7 31.2964 13.7 31.2964C14.5 31.3964 18.1 32.6964 21.3 33.8964L30.1 64.4964C30 64.5964 30.1 64.6964 30.2 64.8964ZM61.9 56.8964L53.2 56.7964L52.9 53.0964L61.9 53.2964V56.8964ZM63.9 53.2964L73 53.4964L72.6 56.9964L63.9 56.8964V53.2964ZM53.4 58.7964L61.9 58.8964V62.2964H53.7L53.4 58.7964ZM51.7 62.1964H43.5L42.8 58.5964L51.5 58.6964L51.7 62.1964ZM52.8 51.0964L52.4 46.9964L61.9 47.0964V51.1964L52.8 51.0964ZM50.7 50.9964L41.1 50.7964L40.3 46.7964L50.3 46.8964L50.7 50.9964ZM50.9 52.9964L51.2 56.6964L42.3 56.5964L41.5 52.7964L50.9 52.9964ZM40.3 56.5964L31.3 56.4964L30.2 52.5964L39.5 52.7964L40.3 56.5964ZM40.7 58.5964L41.4 62.1964H32.9L31.8 58.4964L40.7 58.5964ZM63.9 62.1964V58.7964L72.4 58.8964L72 62.1964H63.9ZM73.2 51.4964L63.9 51.2964V47.0964L73.7 47.1964L73.2 51.4964ZM38.3 46.7964L39.1 50.7964L29.6 50.5964L28.5 46.5964L38.3 46.7964Z" fill="#2988FF"/>
<path d="M38.1998 84.1961C38.1998 81.0961 35.6998 78.4961 32.4998 78.4961C29.3998 78.4961 26.7998 80.9961 26.7998 84.1961C26.7998 87.2961 29.2998 89.7961 32.4998 89.7961C35.6998 89.7961 38.1998 87.2961 38.1998 84.1961ZM30.3998 84.1961C30.3998 82.9961 31.3998 81.9961 32.5998 81.9961C33.7998 81.9961 34.7998 82.9961 34.7998 84.1961C34.7998 85.3961 33.7998 86.2961 32.5998 86.2961C31.3998 86.2961 30.3998 85.3961 30.3998 84.1961Z" fill="#2988FF"/>
<path d="M66.5999 78.4961C63.4999 78.4961 60.8999 80.9961 60.8999 84.1961C60.8999 87.2961 63.3999 89.7961 66.5999 89.7961C69.6999 89.7961 72.2999 87.2961 72.2999 84.1961C72.1999 81.0961 69.6999 78.4961 66.5999 78.4961ZM66.5999 86.2961C65.3999 86.2961 64.3999 85.2961 64.3999 84.1961C64.3999 82.9961 65.3999 81.9961 66.5999 81.9961C67.7999 81.9961 68.7999 82.9961 68.7999 84.1961C68.6999 85.3961 67.6999 86.2961 66.5999 86.2961Z" fill="#2988FF"/>
</svg>
