<svg width="96" height="96" viewBox="0 0 96 96" fill="none" xmlns="http://www.w3.org/2000/svg">
<path fill-rule="evenodd" clip-rule="evenodd" d="M48.999 59.0005C47.8944 59.0005 46.999 59.8959 46.999 61.0005V67.0005C46.999 67.9892 47.7214 68.8295 48.6989 68.9779C49.023 69.027 49.9795 69.3681 51.4491 70.1361C52.8361 70.8609 54.4826 71.8604 56.1111 73.0304C57.7429 74.2027 59.3169 75.5177 60.5839 76.8655C61.8712 78.2349 62.7321 79.5233 63.1016 80.6318C63.4509 81.6797 64.5835 82.2461 65.6314 81.8968C66.6793 81.5475 67.2456 80.4148 66.8963 79.3669C66.2659 77.4755 64.9698 75.6911 63.4984 74.1258C62.0066 72.5388 60.2201 71.0572 58.445 69.7818C56.6665 68.5041 54.8594 67.4049 53.3017 66.5909C52.5132 66.1789 51.7234 65.8048 50.999 65.5216V61.0005C50.999 59.8959 50.1035 59.0005 48.999 59.0005Z" fill="#1C3553"/>
<path fill-rule="evenodd" clip-rule="evenodd" d="M37.0001 58.9995C38.1046 58.9995 39.0001 59.8949 39.0001 60.9995V66.9995C39.0001 67.9882 38.2776 68.8285 37.3001 68.9769C36.9761 69.026 36.0196 69.3671 34.5499 70.1351C33.1629 70.8599 31.5164 71.8594 29.8879 73.0294C28.2561 74.2017 26.6821 75.5167 25.4151 76.8645C24.1278 78.2339 23.2669 79.5223 22.8974 80.6309C22.5481 81.6788 21.4155 82.2451 20.3676 81.8958C19.3197 81.5465 18.7534 80.4138 19.1027 79.366C19.7332 77.4745 21.0293 75.6901 22.5007 74.1248C23.9925 72.5378 25.7789 71.0562 27.5541 69.7808C29.3326 68.5031 31.1396 67.404 32.6973 66.5899C33.4858 66.1779 34.2756 65.8038 35.0001 65.5206V60.9995C35.0001 59.8949 35.8955 58.9995 37.0001 58.9995Z" fill="#1C3553"/>
<path fill-rule="evenodd" clip-rule="evenodd" d="M56.7483 69.0303C57.2846 69.996 56.9365 71.2135 55.9709 71.7498C51.3169 74.3344 47.2225 75.75 42.9999 75.75C38.7773 75.75 34.6829 74.3345 30.0289 71.7499C29.0632 71.2136 28.7151 69.9961 29.2514 69.0304C29.7877 68.0648 31.0052 67.7167 31.9709 68.253C36.3168 70.6665 39.7224 71.75 42.9999 71.75C46.2773 71.75 49.6829 70.6664 54.0289 68.2529C54.9945 67.7166 56.2121 68.0647 56.7483 69.0303Z" fill="#1C3553"/>
<path fill-rule="evenodd" clip-rule="evenodd" d="M34.6092 41.0954C35.6611 41.4324 36.2407 42.5584 35.9037 43.6103C35.8827 43.6757 35.862 43.7401 35.8417 43.8035C35.3177 45.4366 34.999 46.4299 34.999 48.0001C34.999 51.6909 35.9125 55.0517 37.4124 57.4231C38.9013 59.777 40.8385 61 42.9988 61C45.1592 61 47.0965 59.777 48.5855 57.423C50.0854 55.0517 50.999 51.6909 50.999 48.0001C50.999 46.4299 50.6803 45.4366 50.1563 43.8035C50.136 43.7401 50.1153 43.6757 50.0944 43.6103C49.7574 42.5584 50.3369 41.4324 51.3888 41.0954C52.4407 40.7584 53.5666 41.3379 53.9037 42.3898C53.9347 42.4866 53.9657 42.583 53.9967 42.6791C54.5081 44.2673 54.999 45.7919 54.999 48.0001C54.999 52.2882 53.9482 56.4274 51.966 59.5613C49.9727 62.7126 46.91 65 42.9988 65C39.0877 65 36.0251 62.7126 34.0319 59.5612C32.0497 56.4274 30.999 52.2882 30.999 48.0001C30.999 45.7919 31.49 44.2673 32.0014 42.6791C32.0323 42.583 32.0634 42.4866 32.0944 42.3898C32.4314 41.3379 33.5573 40.7584 34.6092 41.0954Z" fill="#1C3553"/>
<path fill-rule="evenodd" clip-rule="evenodd" d="M36.0001 32.428C33.8744 33.7334 31.3918 36.3742 28.5104 41.9224C22.7864 52.9442 23.5165 59.7958 25.2563 63.7475C26.1453 65.7667 27.3512 67.1572 28.3232 68.0377C28.8092 68.478 29.2337 68.7878 29.5244 68.9811C29.6695 69.0776 29.7803 69.1444 29.8477 69.1834C29.8813 69.2029 29.9039 69.2154 29.9145 69.2211C29.9168 69.2224 29.9185 69.2233 29.9196 69.2239C30.8954 69.7289 31.2816 70.9278 30.782 71.9082C30.2804 72.8923 29.076 73.2835 28.0919 72.7819L29.0001 71C28.0919 72.7819 28.0904 72.7812 28.0889 72.7804L28.0856 72.7787L28.078 72.7748L28.0588 72.7648C28.0444 72.7572 28.0265 72.7477 28.0055 72.7362C27.9633 72.7133 27.9082 72.6826 27.8414 72.6439C27.7078 72.5665 27.5271 72.4565 27.3095 72.3118C26.8748 72.0228 26.2895 71.5926 25.6378 71.0023C24.3345 69.8217 22.7532 67.9888 21.5954 65.3593C19.2417 60.0133 18.8395 51.8652 24.9606 40.0788C28.0018 34.2228 30.9043 30.8633 33.9069 29.0194C36.9612 27.1438 39.8657 27 42.4011 27C43.2655 27 44.2079 27.0177 45.194 27.1138C46.2934 27.2209 47.0977 28.1989 46.9907 29.2983C46.8836 30.3976 45.9055 31.202 44.8062 31.0949C44.0104 31.0174 43.2174 31 42.4011 31C40.041 31 38.074 31.1544 36.0001 32.428ZM62.5476 49.0669C63.6149 48.7823 64.7108 49.4168 64.9954 50.4841C67.0798 58.3004 65.769 63.8364 63.7484 67.4779C62.7524 69.273 61.6116 70.5579 60.7042 71.4035C60.2502 71.8266 59.8527 72.1416 59.5573 72.3575C59.4095 72.4656 59.2869 72.5491 59.1951 72.6093C59.1492 72.6394 59.1109 72.6637 59.081 72.6823L59.0424 72.706L59.028 72.7147L59.022 72.7183L59.0194 72.7199C59.0181 72.7206 59.0169 72.7214 57.9986 71L59.0169 72.7214C58.0662 73.2837 56.8396 72.969 56.2773 72.0183C55.7174 71.0718 56.0269 69.8519 56.9677 69.2861C56.9718 69.2836 56.9834 69.2763 57.002 69.2642C57.0398 69.2394 57.1063 69.1944 57.1964 69.1285C57.3769 68.9966 57.6504 68.7817 57.9772 68.4772C58.6314 67.8676 59.4911 66.9063 60.2508 65.5372C61.7416 62.8503 62.9629 58.386 61.1305 51.5147C60.8459 50.4475 61.4804 49.3515 62.5476 49.0669ZM56.9781 69.28C56.9781 69.28 56.9781 69.28 56.9781 69.28L56.9763 69.281C56.9769 69.2807 56.9775 69.2803 56.9781 69.28Z" fill="#1C3553"/>
<path fill-rule="evenodd" clip-rule="evenodd" d="M41.7288 37.1383C40.9623 36.8381 40.0903 37.0382 39.5313 37.6425C39.0399 38.1738 38.1306 39.0599 37.0474 39.7978C35.9228 40.5638 34.8571 41.0006 33.9995 41.0006C32.8949 41.0006 31.9995 41.896 31.9995 43.0006C31.9995 44.1051 32.8949 45.0006 33.9995 45.0006C35.9134 45.0006 37.6786 44.1609 39.0202 43.2894C39.1602 44.2571 39.993 45.0006 40.9995 45.0006H51.9995C53.1041 45.0006 53.9995 44.1051 53.9995 43.0006C53.9995 41.896 53.1041 41.0006 51.9995 41.0006H42.9995V39.0006C42.9995 38.1775 42.4952 37.4384 41.7288 37.1383Z" fill="#1C3553"/>
<path fill-rule="evenodd" clip-rule="evenodd" d="M66.6729 19.5033C67.4302 18.8316 68.5698 18.8316 69.3271 19.5033L74.3271 23.938C74.7551 24.3176 75 24.8623 75 25.4343V32.9995C75 34.1041 74.1046 34.9995 73 34.9995H63C61.8954 34.9995 61 34.1041 61 32.9995V25.4343C61 24.8623 61.2449 24.3176 61.6729 23.938L66.6729 19.5033ZM65 26.3337V30.9995H71V26.3337L68 23.6729L65 26.3337Z" fill="#2988FF"/>
<path fill-rule="evenodd" clip-rule="evenodd" d="M68 40.9995C60.8203 40.9995 55 35.1792 55 27.9995C55 20.8198 60.8203 14.9995 68 14.9995C75.1797 14.9995 81 20.8198 81 27.9995C81 35.1792 75.1797 40.9995 68 40.9995ZM51 27.9995C51 37.3884 58.6112 44.9995 68 44.9995C77.3888 44.9995 85 37.3884 85 27.9995C85 18.6107 77.3888 10.9995 68 10.9995C58.6112 10.9995 51 18.6107 51 27.9995Z" fill="#2988FF"/>
</svg>
