<svg width="96" height="96" viewBox="0 0 96 96" fill="none" xmlns="http://www.w3.org/2000/svg">
<path d="M26 57.0998L24 52.7998L22 57.0998L17 57.4998L20.8 60.4998L19.7 64.7998L24 62.4998L28.3 64.7998L27.2 60.4998L31 57.4998L26 57.0998Z" fill="#2988FF"/>
<path d="M42 57.0998L40 52.7998L38 57.0998L33 57.4998L36.8 60.4998L35.7 64.7998L40 62.4998L44.3 64.7998L43.2 60.4998L47 57.4998L42 57.0998Z" fill="#2988FF"/>
<path d="M58 57.0998L56 52.7998L54 57.0998L49 57.4998L52.8 60.4998L51.7 64.7998L56 62.4998L60.3 64.7998L59.2 60.4998L63 57.4998L58 57.0998Z" fill="#2988FF"/>
<path d="M74 57.0998L72 52.7998L70 57.0998L65 57.4998L68.8 60.4998L67.7 64.7998L72 62.4998L76.3 64.7998L75.2 60.4998L79 57.4998L74 57.0998Z" fill="#2988FF"/>
<path d="M65.5 66.9995C64.5 66.9995 63.6 67.7995 63.6 68.8995V70.9995H31.8V68.8995C31.8 67.8995 31 66.9995 29.9 66.9995C28.8 66.9995 28 67.6995 28 68.7995V72.2995C28 74.6995 30.5 74.6995 31.5 74.6995H63.7C64.7 74.6995 67.2 74.6995 67.2 72.2995V68.7995C67.4 67.7995 66.5 66.9995 65.5 66.9995Z" fill="#1C3553"/>
<path d="M49.2998 20.4998C48.5998 19.8998 47.5998 19.8998 46.8998 20.4998C45.8998 21.2998 23.3998 41.0998 22.2998 42.0998C21.8998 42.4998 20.5998 43.6998 21.3998 45.4998C21.7998 46.2998 22.5998 47.2998 24.3998 47.2998C25.8998 47.2998 27.2998 47.2998 28.8998 47.2998C28.7998 47.4998 28.7998 47.6998 28.7998 47.8998V49.5998C28.7998 50.5998 29.5998 51.4998 30.6998 51.4998C31.7998 51.4998 32.5998 50.6998 32.5998 49.5998L32.1998 49.3998C32.4998 49.0998 32.5998 48.6998 32.5998 48.1998V46.4998C32.5998 43.5998 30.2998 43.5998 29.2998 43.5998C28.2998 43.5998 27.2998 43.5998 26.2998 43.5998C30.1998 40.1998 41.1998 30.4998 48.1998 24.2998C56.1998 31.1998 66.8998 40.2998 70.6998 43.5998C69.6998 43.5998 68.6998 43.5998 67.6998 43.5998C66.7998 43.5998 64.4998 43.5998 64.4998 46.4998V49.5998C64.4998 50.5998 65.2998 51.4998 66.3998 51.4998C67.4998 51.4998 68.2998 50.6998 68.2998 49.5998V47.2998C69.7998 47.2998 71.1998 47.2998 72.6998 47.2998C74.5998 47.2998 75.3998 46.2998 75.6998 45.4998C76.1998 44.2998 75.8998 43.0998 74.7998 41.9998C73.5998 41.0998 51.7998 22.5998 49.2998 20.4998ZM29.1998 46.6998C29.0998 46.7998 29.0998 46.7998 28.9998 46.8998C28.8998 46.7998 28.7998 46.5998 28.7998 46.4998L29.1998 46.6998Z" fill="#1C3553"/>
</svg>
