<svg width="96" height="96" viewBox="0 0 96 96" fill="none" xmlns="http://www.w3.org/2000/svg">
<path d="M42.5 57.2996L40.5 53.0996L38.5 57.2996L33.5 57.6996L37.3 60.6996L36.2 65.0996L40.5 62.6996L44.8 65.0996L43.7 60.6996L47.5 57.6996L42.5 57.2996Z" fill="#2988FF"/>
<path d="M57.5 57.2996L55.5 53.0996L53.5 57.2996L48.5 57.6996L52.3 60.6996L51.2 65.0996L55.5 62.6996L59.8 65.0996L58.7 60.6996L62.5 57.6996L57.5 57.2996Z" fill="#2988FF"/>
<path d="M75.5998 42.1993C74.4998 41.2993 51.4998 22.6993 48.8998 20.4993C48.1998 19.8993 47.0998 19.8993 46.3998 20.4993C45.3998 21.2993 21.4998 41.0993 20.2998 42.1993C18.9998 43.2993 18.6998 44.5993 19.2998 45.8993C19.6998 46.6993 20.4998 47.6993 22.4998 47.6993C24.0998 47.6993 25.5998 47.6993 27.1998 47.6993V47.8993C27.1998 47.9993 27.1998 48.0993 27.1998 48.1993V49.8993C27.1998 49.9993 27.1998 50.0993 27.1998 50.1993V71.1993C27.1998 73.2993 27.1998 76.7993 30.8998 76.7993H64.9998C68.6998 76.7993 68.6998 73.2993 68.6998 71.1993V50.2993C68.6998 50.1993 68.6998 50.0993 68.6998 49.8993V47.7993C70.1998 47.7993 71.7998 47.7993 73.2998 47.7993C75.2998 47.7993 76.0998 46.7993 76.4998 45.9993C77.1998 44.5993 76.8998 43.2993 75.5998 42.1993ZM27.1998 46.7993C27.0998 46.7993 27.1998 46.7993 27.1998 46.7993V46.7993ZM68.1998 43.6993C67.1998 43.6993 64.8998 43.6993 64.7998 46.5993C64.7998 46.6993 64.7998 46.8993 64.7998 46.9993V71.0993C64.7998 71.8993 64.7998 72.3993 64.6998 72.6993H31.1998C31.1998 72.3993 31.0998 71.8993 31.0998 71.0993V46.9993C31.0998 46.8993 31.0998 46.6993 31.0998 46.5993C30.9998 43.6993 28.5998 43.6993 27.5998 43.6993C26.5998 43.6993 25.6998 43.6993 24.6998 43.6993C29.0998 39.9993 40.3998 30.6993 47.5998 24.6993C55.8998 31.3993 66.7998 40.1993 71.0998 43.6993C70.1998 43.6993 69.1998 43.6993 68.1998 43.6993Z" fill="#1C3553"/>
</svg>
