<svg width="96" height="96" viewBox="0 0 96 96" fill="none" xmlns="http://www.w3.org/2000/svg">
<path d="M51.8645 65.0981L50.7645 60.6981L54.5645 57.6981L49.5645 57.2981L47.5645 53.0981L45.5645 57.2981L40.5645 57.6981L44.3645 60.6981L43.2645 65.0981L47.5645 62.6981L51.8645 65.0981Z" fill="#2988FF"/>
<path d="M75.6643 42.1983C74.5643 41.2983 51.5643 22.6983 48.9643 20.4983C48.2643 19.8983 47.1643 19.8983 46.4643 20.4983C45.4643 21.2983 21.5643 41.0983 20.3643 42.1983C19.0643 43.2983 18.7643 44.5983 19.3643 45.8983C19.7643 46.6983 20.5643 47.6983 22.5643 47.6983C24.1643 47.6983 25.6643 47.6983 27.2643 47.6983V47.8983C27.2643 47.9983 27.2643 48.0983 27.2643 48.1983V49.8983C27.2643 49.9983 27.2643 50.0983 27.2643 50.1983V71.1983C27.2643 73.2983 27.2643 76.7983 30.9643 76.7983H65.0643C68.7643 76.7983 68.7643 73.2983 68.7643 71.1983V50.2983C68.7643 50.1983 68.7643 50.0983 68.7643 49.8983V47.7983C70.2643 47.7983 71.8643 47.7983 73.3643 47.7983C75.3643 47.7983 76.1643 46.7983 76.5643 45.9983C77.2643 44.5983 76.9643 43.2983 75.6643 42.1983ZM27.2643 46.7983C27.1643 46.7983 27.2643 46.7983 27.2643 46.7983V46.7983ZM68.2643 43.6983C67.2643 43.6983 64.9643 43.6983 64.8643 46.5983C64.8643 46.6983 64.8643 46.8983 64.8643 46.9983V71.0983C64.8643 71.8983 64.8643 72.3983 64.7643 72.6983H31.2643C31.2643 72.3983 31.1643 71.8983 31.1643 71.0983V46.9983C31.1643 46.8983 31.1643 46.6983 31.1643 46.5983C31.0643 43.6983 28.6643 43.6983 27.6643 43.6983C26.6643 43.6983 25.7643 43.6983 24.7643 43.6983C29.1643 39.9983 40.4643 30.6983 47.6643 24.6983C55.9643 31.3983 66.8643 40.1983 71.1643 43.6983C70.2643 43.6983 69.2643 43.6983 68.2643 43.6983Z" fill="#1C3553"/>
</svg>
