<svg width="96" height="96" viewBox="0 0 96 96" fill="none" xmlns="http://www.w3.org/2000/svg">
<path fill-rule="evenodd" clip-rule="evenodd" d="M28.2812 27.7538C28.2812 26.8702 28.9976 26.1538 29.8812 26.1538H35.2968C36.1804 26.1538 36.8968 26.8702 36.8968 27.7538V83.2C36.8968 84.0836 36.1804 84.8 35.2968 84.8H29.8812C28.9976 84.8 28.2812 84.0836 28.2812 83.2V27.7538ZM31.4812 29.3538V81.6H33.6968V29.3538H31.4812Z" fill="#1C3553"/>
<path fill-rule="evenodd" clip-rule="evenodd" d="M28.374 12.8632C28.374 11.9795 29.0904 11.2632 29.974 11.2632H35.2057C36.0894 11.2632 36.8057 11.9795 36.8057 12.8632C36.8057 13.7468 36.0894 14.4632 35.2057 14.4632H29.974C29.0904 14.4632 28.374 13.7468 28.374 12.8632Z" fill="#1C3553"/>
<path fill-rule="evenodd" clip-rule="evenodd" d="M69.2798 49.6C69.2798 48.7163 69.9961 48 70.8798 48H75.6798C76.5634 48 77.2798 48.7163 77.2798 49.6V83.2C77.2798 84.0837 76.5634 84.8 75.6798 84.8H70.8798C69.9961 84.8 69.2798 84.0837 69.2798 83.2V49.6ZM72.4798 51.2V81.6H74.0798V51.2H72.4798Z" fill="#1C3553"/>
<path fill-rule="evenodd" clip-rule="evenodd" d="M49.9995 20.8001C49.9995 20.1374 50.5368 19.6001 51.1995 19.6001H55.024C55.6867 19.6001 56.224 20.1374 56.224 20.8001C56.224 21.4628 55.6867 22.0001 55.024 22.0001H52.3995V34.279H73.5995C74.2622 34.279 74.7995 34.8162 74.7995 35.479V48.0001C74.7995 48.6628 74.2622 49.2001 73.5995 49.2001C72.9368 49.2001 72.3995 48.6628 72.3995 48.0001V36.679H51.1995C50.5368 36.679 49.9995 36.1417 49.9995 35.479V20.8001Z" fill="#1C3553"/>
<path fill-rule="evenodd" clip-rule="evenodd" d="M83.3613 17.2418C83.5592 17.3398 83.6403 17.5797 83.5423 17.7777L81.9583 20.9777C81.8603 21.1757 81.6203 21.2568 81.4223 21.1588C81.2244 21.0608 81.1433 20.8208 81.2413 20.6228L82.8253 17.4228C82.9233 17.2248 83.1633 17.1438 83.3613 17.2418Z" fill="#2988FF"/>
<path fill-rule="evenodd" clip-rule="evenodd" d="M80.1615 17.2418C80.3595 17.3398 80.4406 17.5797 80.3426 17.7777L78.7586 20.9777C78.6606 21.1757 78.4206 21.2568 78.2226 21.1588C78.0247 21.0608 77.9436 20.8208 78.0416 20.6228L79.6256 17.4228C79.7236 17.2248 79.9636 17.1438 80.1615 17.2418Z" fill="#2988FF"/>
<path fill-rule="evenodd" clip-rule="evenodd" d="M76.9614 17.2418C77.1593 17.3398 77.2404 17.5797 77.1424 17.7777L75.5584 20.9777C75.4604 21.1757 75.2204 21.2568 75.0224 21.1588C74.8245 21.0608 74.7434 20.8208 74.8414 20.6228L76.4254 17.4228C76.5234 17.2248 76.7634 17.1438 76.9614 17.2418Z" fill="#2988FF"/>
<path fill-rule="evenodd" clip-rule="evenodd" d="M73.7611 17.2418C73.9591 17.3398 74.0402 17.5797 73.9422 17.7777L72.3582 20.9777C72.2602 21.1757 72.0202 21.2568 71.8222 21.1588C71.6243 21.0608 71.5432 20.8208 71.6412 20.6228L73.2252 17.4228C73.3232 17.2248 73.5632 17.1438 73.7611 17.2418Z" fill="#2988FF"/>
<path fill-rule="evenodd" clip-rule="evenodd" d="M67.3612 17.2418C67.5592 17.3398 67.6403 17.5797 67.5423 17.7777L65.9583 20.9777C65.8603 21.1757 65.6203 21.2568 65.4223 21.1588C65.2244 21.0608 65.1433 20.8208 65.2413 20.6228L66.8253 17.4228C66.9233 17.2248 67.1633 17.1438 67.3612 17.2418Z" fill="#2988FF"/>
<path fill-rule="evenodd" clip-rule="evenodd" d="M70.5614 17.2418C70.7594 17.3398 70.8405 17.5797 70.7425 17.7777L69.1585 20.9777C69.0605 21.1757 68.8205 21.2568 68.6225 21.1588C68.4246 21.0608 68.3435 20.8208 68.4415 20.6228L70.0255 17.4228C70.1235 17.2248 70.3635 17.1438 70.5614 17.2418Z" fill="#2988FF"/>
<path fill-rule="evenodd" clip-rule="evenodd" d="M64.1615 17.2418C64.3595 17.3398 64.4406 17.5797 64.3426 17.7777L62.7586 20.9777C62.6606 21.1757 62.4206 21.2568 62.2226 21.1588C62.0247 21.0608 61.9436 20.8208 62.0416 20.6228L63.6256 17.4228C63.7236 17.2248 63.9636 17.1438 64.1615 17.2418Z" fill="#2988FF"/>
<path fill-rule="evenodd" clip-rule="evenodd" d="M54.0801 16.0001C54.0801 14.9397 54.9397 14.0801 56.0001 14.0801H88.0001C89.0605 14.0801 89.9201 14.9397 89.9201 16.0001V24.0001C89.9201 25.0605 89.0605 25.9201 88.0001 25.9201H56.0001C54.9397 25.9201 54.0801 25.0605 54.0801 24.0001V16.0001ZM57.9201 17.9201V22.0801H86.0801V17.9201H57.9201Z" fill="#2988FF"/>
<path fill-rule="evenodd" clip-rule="evenodd" d="M22.4871 13.8812C22.75 13.7525 23.0388 13.6855 23.3316 13.6855H40.351C41.4113 13.6855 42.271 14.5452 42.271 15.6055V25.451C42.271 26.5114 41.4113 27.371 40.351 27.371H8.00008C6.93969 27.371 6.08008 26.5114 6.08008 25.451V23.1141C6.08008 22.3812 6.49736 21.7122 7.1556 21.3898L22.4871 13.8812ZM23.7765 17.5255L11.5141 23.531H38.431V17.5255H23.7765Z" fill="#2988FF"/>
</svg>
