<svg width="96" height="96" viewBox="0 0 96 96" fill="none" xmlns="http://www.w3.org/2000/svg">
<path fill-rule="evenodd" clip-rule="evenodd" d="M63.8345 59.9493C64.1835 59.7163 64.5715 59.5312 64.9875 59.4C65.4025 59.2687 65.8415 59.2026 66.2915 59.2026H68.5905C68.7955 59.2026 68.9745 59.1263 69.1225 58.9748C69.2695 58.8252 69.3445 58.6381 69.3445 58.4193C69.3445 58.2118 69.2695 58.0297 69.1225 57.8792C68.9745 57.7286 68.7955 57.6523 68.5905 57.6523H66.2915C65.6365 57.6523 65.0025 57.7581 64.4065 57.9667C63.8125 58.1742 63.2625 58.4641 62.7715 58.8283C62.2785 59.1924 61.8425 59.6309 61.4735 60.1334C61.1205 60.6135 60.8405 61.1456 60.6425 61.7172H59.9225C59.7175 61.7172 59.5385 61.7925 59.3905 61.9431C59.2425 62.0936 59.1675 62.2757 59.1675 62.4842C59.1675 62.7029 59.2425 62.8901 59.3905 63.0407C59.5385 63.1902 59.7165 63.2655 59.9225 63.2655H60.3215C60.3165 63.3204 60.3125 63.3753 60.3105 63.4313C60.3065 63.5279 60.3035 63.6276 60.3035 63.7293C60.3035 63.8402 60.3065 63.945 60.3105 64.0416C60.3125 64.0976 60.3165 64.1535 60.3215 64.2074H59.9225C59.7175 64.2074 59.5385 64.2837 59.3915 64.4333C59.2425 64.5828 59.1675 64.769 59.1675 64.9887C59.1675 65.1972 59.2425 65.3793 59.3905 65.5288C59.5385 65.6794 59.7175 65.7557 59.9225 65.7557H60.6425C60.8405 66.3264 61.1205 66.8594 61.4735 67.3395C61.8425 67.8421 62.2785 68.2805 62.7715 68.6447C63.0275 68.8339 63.3015 69.0017 63.5885 69.1502C63.8505 69.2865 64.1225 69.4066 64.4065 69.5073C65.0005 69.7148 65.6345 69.8196 66.2915 69.8196H68.5905C68.7955 69.8196 68.9745 69.7443 69.1225 69.5937V69.5927C69.2455 69.4676 69.3045 69.316 69.3255 69.1502C69.3295 69.1167 69.3445 69.0872 69.3445 69.0526C69.3445 68.8339 69.2695 68.6477 69.1215 68.4961C68.9735 68.3466 68.7955 68.2713 68.5905 68.2713H66.2915C65.8405 68.2713 65.4015 68.2042 64.9875 68.073C64.5695 67.9407 64.1815 67.7556 63.8345 67.5237C63.4865 67.2897 63.1685 67.0059 62.8915 66.6804C62.6505 66.3976 62.4475 66.0883 62.2855 65.7557H67.6465C67.8525 65.7557 68.0315 65.6794 68.1785 65.5288C68.3255 65.3793 68.4005 65.1972 68.4005 64.9887C68.4005 64.769 68.3255 64.5828 68.1785 64.4333C68.0305 64.2837 67.8525 64.2074 67.6465 64.2074H61.8455C61.8405 64.1495 61.8355 64.0915 61.8325 64.0304C61.8275 63.9369 61.8255 63.8372 61.8255 63.7293C61.8255 63.6307 61.8275 63.5351 61.8325 63.4415C61.8355 63.3825 61.8405 63.3235 61.8455 63.2655H67.6465C67.8525 63.2655 68.0315 63.1902 68.1785 63.0407C68.3255 62.8901 68.4005 62.7029 68.4005 62.4842C68.4005 62.2757 68.3255 62.0936 68.1785 61.9441C68.0315 61.7925 67.8525 61.7172 67.6465 61.7172H62.2855C62.4475 61.3846 62.6505 61.0743 62.8915 60.7916C63.1685 60.466 63.4865 60.1822 63.8345 59.9493Z" fill="#2988FF"/>
<path fill-rule="evenodd" clip-rule="evenodd" d="M75.83 64.3933H75.767L75.685 51.689C75.683 51.3462 75.536 51.0217 75.281 50.7969L65.969 42.5858C65.542 42.2094 64.912 42.1982 64.469 42.5583L54.437 50.7694C54.159 50.9973 53.998 51.3411 54 51.7043L54.121 70.4692H54.153L54.162 76.7161C54.166 77.3701 54.689 77.8991 55.332 77.8991H74.677C74.988 77.8991 75.287 77.772 75.507 77.5482C75.726 77.3223 75.849 77.0182 75.847 76.7008L75.83 64.3933ZM73.465 70.4692H73.489L73.492 75.355H56.488L56.481 64.3933H56.422L56.344 52.2638L65.174 45.0353L73.349 52.2434L73.458 69.1499L73.465 70.4692Z" fill="#2988FF"/>
<path d="M18.2583 64.1597C18.2583 63.6074 18.706 63.1597 19.2583 63.1597H27.0648C27.617 63.1597 28.0648 63.6074 28.0648 64.1597V67.3306C28.0648 67.8829 27.617 68.3306 27.0648 68.3306H19.2583C18.706 68.3306 18.2583 67.8829 18.2583 67.3306V64.1597Z" fill="#1C3553"/>
<path fill-rule="evenodd" clip-rule="evenodd" d="M30.5166 64.1597C30.5166 63.6074 30.9643 63.1597 31.5166 63.1597H39.3231C39.8753 63.1597 40.3231 63.6074 40.3231 64.1597V67.3306C40.3231 67.8829 39.8753 68.3306 39.3231 68.3306H31.5166C30.9643 68.3306 30.5166 67.8829 30.5166 67.3306V64.1597Z" fill="#1C3553"/>
<path fill-rule="evenodd" clip-rule="evenodd" d="M42.7744 64.1597C42.7744 63.6074 43.2221 63.1597 43.7744 63.1597H50.7744C51.3267 63.1597 51.7744 63.6074 51.7744 64.1597V67.3306C51.7744 67.8829 51.3267 68.3306 50.7744 68.3306H43.7744C43.2221 68.3306 42.7744 67.8829 42.7744 67.3306V64.1597Z" fill="#1C3553"/>
<path d="M18.2583 56.4033C18.2583 55.851 18.706 55.4033 19.2583 55.4033H27.0648C27.617 55.4033 28.0648 55.851 28.0648 56.4033V59.5743C28.0648 60.1266 27.617 60.5743 27.0648 60.5743H19.2583C18.706 60.5743 18.2583 60.1266 18.2583 59.5743V56.4033Z" fill="#1C3553"/>
<path fill-rule="evenodd" clip-rule="evenodd" d="M30.5166 56.4033C30.5166 55.851 30.9643 55.4033 31.5166 55.4033H39.3231C39.8753 55.4033 40.3231 55.851 40.3231 56.4033V59.5743C40.3231 60.1266 39.8753 60.5743 39.3231 60.5743H31.5166C30.9643 60.5743 30.5166 60.1266 30.5166 59.5743V56.4033Z" fill="#1C3553"/>
<path fill-rule="evenodd" clip-rule="evenodd" d="M42.7744 56.4033C42.7744 55.851 43.2221 55.4033 43.7744 55.4033H50.7744C51.3267 55.4033 51.7744 55.851 51.7744 56.4033V59.5743C51.7744 60.1266 51.3267 60.5743 50.7744 60.5743H43.7744C43.2221 60.5743 42.7744 60.1266 42.7744 59.5743V56.4033Z" fill="#1C3553"/>
<path d="M18.2583 48.647C18.2583 48.0947 18.706 47.647 19.2583 47.647H27.0648C27.617 47.647 28.0648 48.0947 28.0648 48.647V51.8179C28.0648 52.3702 27.617 52.8179 27.0648 52.8179H19.2583C18.706 52.8179 18.2583 52.3702 18.2583 51.8179V48.647Z" fill="#1C3553"/>
<path fill-rule="evenodd" clip-rule="evenodd" d="M30.5166 48.647C30.5166 48.0947 30.9643 47.647 31.5166 47.647H39.3231C39.8753 47.647 40.3231 48.0947 40.3231 48.647V51.8179C40.3231 52.3702 39.8753 52.8179 39.3231 52.8179H31.5166C30.9643 52.8179 30.5166 52.3702 30.5166 51.8179V48.647Z" fill="#1C3553"/>
<path fill-rule="evenodd" clip-rule="evenodd" d="M42.7744 48.647C42.7744 48.0947 43.2221 47.647 43.7744 47.647H50.7744C51.3267 47.647 51.7744 48.0947 51.7744 48.647V51.8179C51.7744 52.3702 51.3267 52.8179 50.7744 52.8179H43.7744C43.2221 52.8179 42.7744 52.3702 42.7744 51.8179V48.647Z" fill="#1C3553"/>
<path d="M18.2583 40.8904C18.2583 40.3381 18.706 39.8904 19.2583 39.8904H27.0648C27.617 39.8904 28.0648 40.3381 28.0648 40.8904V44.0614C28.0648 44.6136 27.617 45.0614 27.0648 45.0614H19.2583C18.706 45.0614 18.2583 44.6136 18.2583 44.0614V40.8904Z" fill="#1C3553"/>
<path fill-rule="evenodd" clip-rule="evenodd" d="M30.5166 40.8904C30.5166 40.3381 30.9643 39.8904 31.5166 39.8904H39.3231C39.8753 39.8904 40.3231 40.3381 40.3231 40.8904V44.0614C40.3231 44.6136 39.8753 45.0614 39.3231 45.0614H31.5166C30.9643 45.0614 30.5166 44.6136 30.5166 44.0614V40.8904Z" fill="#1C3553"/>
<path fill-rule="evenodd" clip-rule="evenodd" d="M42.7744 40.8904C42.7744 40.3381 43.2221 39.8904 43.7744 39.8904H51.5809C52.1332 39.8904 52.5809 40.3381 52.5809 40.8904V44.0614C52.5809 44.6136 52.1332 45.0614 51.5809 45.0614H43.7744C43.2221 45.0614 42.7744 44.6136 42.7744 44.0614V40.8904Z" fill="#1C3553"/>
<path fill-rule="evenodd" clip-rule="evenodd" d="M57.6826 45.0614L63.987 39.9012C63.9388 39.8941 63.8894 39.8904 63.8392 39.8904H56.0327C55.4804 39.8904 55.0327 40.3381 55.0327 40.8904V44.0614C55.0327 44.6136 55.4804 45.0614 56.0327 45.0614H57.6826Z" fill="#1C3553"/>
<path fill-rule="evenodd" clip-rule="evenodd" d="M68.2905 39.8904C67.7987 39.8904 67.3898 40.2454 67.3062 40.7131L72.2374 45.0614H76.0969C76.6492 45.0614 77.0969 44.6136 77.0969 44.0614V40.8904C77.0969 40.3381 76.6492 39.8904 76.0969 39.8904H68.2905Z" fill="#1C3553"/>
<path fill-rule="evenodd" clip-rule="evenodd" d="M13.9448 33.2832H82.6679V36.9832H13.9448V33.2832Z" fill="#1C3553"/>
<path fill-rule="evenodd" clip-rule="evenodd" d="M69.7421 17.1499C70.7638 17.1499 71.5921 17.9782 71.5921 18.9999V23.964C71.5921 24.9858 70.7638 25.814 69.7421 25.814C68.7204 25.814 67.8921 24.9858 67.8921 23.964V18.9999C67.8921 17.9782 68.7204 17.1499 69.7421 17.1499Z" fill="#1C3553"/>
<path fill-rule="evenodd" clip-rule="evenodd" d="M25.6127 17.1499C26.6344 17.1499 27.4627 17.9782 27.4627 18.9999V23.964C27.4627 24.9858 26.6344 25.814 25.6127 25.814C24.591 25.814 23.7627 24.9858 23.7627 23.964V18.9999C23.7627 17.9782 24.591 17.1499 25.6127 17.1499Z" fill="#1C3553"/>
<path fill-rule="evenodd" clip-rule="evenodd" d="M11 22.0107C11 20.9062 11.8954 20.0107 13 20.0107H82.0078C83.1124 20.0107 84.0078 20.9062 84.0078 22.0107V73.0024C84.0078 74.1069 83.1124 75.0024 82.0078 75.0024H77.9987V71.0024H80.0078V24.0107H15V71.0024H52V75.0024H13C11.8954 75.0024 11 74.1069 11 73.0024V22.0107Z" fill="#1C3553"/>
</svg>
