<svg width="96" height="96" viewBox="0 0 96 96" fill="none" xmlns="http://www.w3.org/2000/svg">
<path fill-rule="evenodd" clip-rule="evenodd" d="M63.8345 59.9494C64.1835 59.7164 64.5715 59.5313 64.9875 59.4001C65.4025 59.2689 65.8415 59.2027 66.2915 59.2027H68.5905C68.7955 59.2027 68.9745 59.1264 69.1225 58.9749C69.2695 58.8253 69.3445 58.6382 69.3445 58.4195C69.3445 58.2119 69.2695 58.0299 69.1225 57.8793C68.9745 57.7288 68.7955 57.6525 68.5905 57.6525H66.2915C65.6365 57.6525 65.0025 57.7583 64.4065 57.9668C63.8125 58.1743 63.2625 58.4642 62.7715 58.8284C62.2785 59.1926 61.8425 59.631 61.4735 60.1335C61.1205 60.6137 60.8405 61.1457 60.6425 61.7174H59.9225C59.7175 61.7174 59.5385 61.7926 59.3905 61.9432C59.2425 62.0937 59.1675 62.2758 59.1675 62.4844C59.1675 62.7031 59.2425 62.8902 59.3905 63.0408C59.5385 63.1903 59.7165 63.2656 59.9225 63.2656H60.3215C60.3165 63.3205 60.3125 63.3755 60.3105 63.4314C60.3065 63.5281 60.3035 63.6277 60.3035 63.7295C60.3035 63.8403 60.3065 63.9451 60.3105 64.0418C60.3125 64.0977 60.3165 64.1537 60.3215 64.2076H59.9225C59.7175 64.2076 59.5385 64.2839 59.3915 64.4334C59.2425 64.5829 59.1675 64.7691 59.1675 64.9888C59.1675 65.1973 59.2425 65.3794 59.3905 65.529C59.5385 65.6795 59.7175 65.7558 59.9225 65.7558H60.6425C60.8405 66.3265 61.1205 66.8595 61.4735 67.3397C61.8425 67.8422 62.2785 68.2806 62.7715 68.6448C63.0275 68.834 63.3015 69.0018 63.5885 69.1503C63.8505 69.2867 64.1225 69.4067 64.4065 69.5074C65.0005 69.7149 65.6345 69.8197 66.2915 69.8197H68.5905C68.7955 69.8197 68.9745 69.7444 69.1225 69.5939V69.5928C69.2455 69.4677 69.3045 69.3162 69.3255 69.1503C69.3295 69.1168 69.3445 69.0873 69.3445 69.0527C69.3445 68.834 69.2695 68.6478 69.1215 68.4963C68.9735 68.3467 68.7955 68.2714 68.5905 68.2714H66.2915C65.8405 68.2714 65.4015 68.2043 64.9875 68.0731C64.5695 67.9408 64.1815 67.7557 63.8345 67.5238C63.4865 67.2898 63.1685 67.006 62.8915 66.6805C62.6505 66.3977 62.4475 66.0884 62.2855 65.7558H67.6465C67.8525 65.7558 68.0315 65.6795 68.1785 65.529C68.3255 65.3794 68.4005 65.1973 68.4005 64.9888C68.4005 64.7691 68.3255 64.5829 68.1785 64.4334C68.0305 64.2839 67.8525 64.2076 67.6465 64.2076H61.8455C61.8405 64.1496 61.8355 64.0916 61.8325 64.0306C61.8275 63.937 61.8255 63.8373 61.8255 63.7295C61.8255 63.6308 61.8275 63.5352 61.8325 63.4416C61.8355 63.3826 61.8405 63.3236 61.8455 63.2656H67.6465C67.8525 63.2656 68.0315 63.1903 68.1785 63.0408C68.3255 62.8902 68.4005 62.7031 68.4005 62.4844C68.4005 62.2758 68.3255 62.0937 68.1785 61.9442C68.0315 61.7926 67.8525 61.7174 67.6465 61.7174H62.2855C62.4475 61.3847 62.6505 61.0745 62.8915 60.7917C63.1685 60.4662 63.4865 60.1823 63.8345 59.9494Z" fill="#2988FF"/>
<path fill-rule="evenodd" clip-rule="evenodd" d="M75.83 64.3933H75.767L75.685 51.689C75.683 51.3462 75.536 51.0217 75.281 50.7969L65.969 42.5858C65.542 42.2094 64.912 42.1982 64.469 42.5583L54.437 50.7694C54.159 50.9973 53.998 51.3411 54 51.7043L54.121 70.4692H54.153L54.162 76.7161C54.166 77.3701 54.689 77.8991 55.332 77.8991H74.677C74.988 77.8991 75.287 77.772 75.507 77.5482C75.726 77.3223 75.849 77.0182 75.847 76.7008L75.83 64.3933ZM73.465 70.4692H73.489L73.492 75.355H56.488L56.481 64.3933H56.422L56.344 52.2638L65.174 45.0353L73.349 52.2434L73.458 69.1499L73.465 70.4692Z" fill="#2988FF"/>
<path d="M18.2583 64.1597C18.2583 63.6074 18.706 63.1597 19.2583 63.1597H27.0648C27.617 63.1597 28.0648 63.6074 28.0648 64.1597V67.3306C28.0648 67.8829 27.617 68.3306 27.0648 68.3306H19.2583C18.706 68.3306 18.2583 67.8829 18.2583 67.3306V64.1597Z" fill="#1C3553"/>
<path fill-rule="evenodd" clip-rule="evenodd" d="M30.5166 64.1597C30.5166 63.6074 30.9643 63.1597 31.5166 63.1597H39.3231C39.8753 63.1597 40.3231 63.6074 40.3231 64.1597V67.3306C40.3231 67.8829 39.8753 68.3306 39.3231 68.3306H31.5166C30.9643 68.3306 30.5166 67.8829 30.5166 67.3306V64.1597Z" fill="#1C3553"/>
<path fill-rule="evenodd" clip-rule="evenodd" d="M42.7744 64.1597C42.7744 63.6074 43.2221 63.1597 43.7744 63.1597H50.7744C51.3267 63.1597 51.7744 63.6074 51.7744 64.1597V67.3306C51.7744 67.8829 51.3267 68.3306 50.7744 68.3306H43.7744C43.2221 68.3306 42.7744 67.8829 42.7744 67.3306V64.1597Z" fill="#1C3553"/>
<path d="M18.2583 56.4033C18.2583 55.851 18.706 55.4033 19.2583 55.4033H27.0648C27.617 55.4033 28.0648 55.851 28.0648 56.4033V59.5743C28.0648 60.1266 27.617 60.5743 27.0648 60.5743H19.2583C18.706 60.5743 18.2583 60.1266 18.2583 59.5743V56.4033Z" fill="#1C3553"/>
<path fill-rule="evenodd" clip-rule="evenodd" d="M30.5166 56.4033C30.5166 55.851 30.9643 55.4033 31.5166 55.4033H39.3231C39.8753 55.4033 40.3231 55.851 40.3231 56.4033V59.5743C40.3231 60.1266 39.8753 60.5743 39.3231 60.5743H31.5166C30.9643 60.5743 30.5166 60.1266 30.5166 59.5743V56.4033Z" fill="#1C3553"/>
<path fill-rule="evenodd" clip-rule="evenodd" d="M42.7744 56.4033C42.7744 55.851 43.2221 55.4033 43.7744 55.4033H50.7744C51.3267 55.4033 51.7744 55.851 51.7744 56.4033V59.5743C51.7744 60.1266 51.3267 60.5743 50.7744 60.5743H43.7744C43.2221 60.5743 42.7744 60.1266 42.7744 59.5743V56.4033Z" fill="#1C3553"/>
<path d="M18.2583 48.6469C18.2583 48.0946 18.706 47.6469 19.2583 47.6469H27.0648C27.617 47.6469 28.0648 48.0946 28.0648 48.6469V51.8178C28.0648 52.3701 27.617 52.8178 27.0648 52.8178H19.2583C18.706 52.8178 18.2583 52.3701 18.2583 51.8178V48.6469Z" fill="#1C3553"/>
<path fill-rule="evenodd" clip-rule="evenodd" d="M30.5166 48.6469C30.5166 48.0946 30.9643 47.6469 31.5166 47.6469H39.3231C39.8753 47.6469 40.3231 48.0946 40.3231 48.6469V51.8178C40.3231 52.3701 39.8753 52.8178 39.3231 52.8178H31.5166C30.9643 52.8178 30.5166 52.3701 30.5166 51.8178V48.6469Z" fill="#1C3553"/>
<path fill-rule="evenodd" clip-rule="evenodd" d="M42.7744 48.6469C42.7744 48.0946 43.2221 47.6469 43.7744 47.6469H50.7744C51.3267 47.6469 51.7744 48.0946 51.7744 48.6469V51.8178C51.7744 52.3701 51.3267 52.8178 50.7744 52.8178H43.7744C43.2221 52.8178 42.7744 52.3701 42.7744 51.8178V48.6469Z" fill="#1C3553"/>
<path d="M18.2583 40.8905C18.2583 40.3382 18.706 39.8905 19.2583 39.8905H27.0648C27.617 39.8905 28.0648 40.3382 28.0648 40.8905V44.0615C28.0648 44.6138 27.617 45.0615 27.0648 45.0615H19.2583C18.706 45.0615 18.2583 44.6138 18.2583 44.0615V40.8905Z" fill="#1C3553"/>
<path fill-rule="evenodd" clip-rule="evenodd" d="M30.5166 40.8905C30.5166 40.3382 30.9643 39.8905 31.5166 39.8905H39.3231C39.8753 39.8905 40.3231 40.3382 40.3231 40.8905V44.0615C40.3231 44.6138 39.8753 45.0615 39.3231 45.0615H31.5166C30.9643 45.0615 30.5166 44.6138 30.5166 44.0615V40.8905Z" fill="#1C3553"/>
<path fill-rule="evenodd" clip-rule="evenodd" d="M42.7744 40.8905C42.7744 40.3382 43.2221 39.8905 43.7744 39.8905H51.5809C52.1332 39.8905 52.5809 40.3382 52.5809 40.8905V44.0615C52.5809 44.6138 52.1332 45.0615 51.5809 45.0615H43.7744C43.2221 45.0615 42.7744 44.6138 42.7744 44.0615V40.8905Z" fill="#1C3553"/>
<path fill-rule="evenodd" clip-rule="evenodd" d="M57.6826 45.0615L63.987 39.9014C63.9388 39.8942 63.8894 39.8905 63.8392 39.8905H56.0327C55.4804 39.8905 55.0327 40.3382 55.0327 40.8905V44.0615C55.0327 44.6138 55.4804 45.0615 56.0327 45.0615H57.6826Z" fill="#1C3553"/>
<path fill-rule="evenodd" clip-rule="evenodd" d="M68.2905 39.8905C67.7987 39.8905 67.3898 40.2455 67.3062 40.7132L72.2374 45.0615H76.0969C76.6492 45.0615 77.0969 44.6138 77.0969 44.0615V40.8905C77.0969 40.3382 76.6492 39.8905 76.0969 39.8905H68.2905Z" fill="#1C3553"/>
<path fill-rule="evenodd" clip-rule="evenodd" d="M13.9448 33.2832H82.6679V36.9832H13.9448V33.2832Z" fill="#1C3553"/>
<path fill-rule="evenodd" clip-rule="evenodd" d="M69.7421 17.1499C70.7638 17.1499 71.5921 17.9782 71.5921 18.9999V23.964C71.5921 24.9858 70.7638 25.814 69.7421 25.814C68.7204 25.814 67.8921 24.9858 67.8921 23.964V18.9999C67.8921 17.9782 68.7204 17.1499 69.7421 17.1499Z" fill="#1C3553"/>
<path fill-rule="evenodd" clip-rule="evenodd" d="M25.6127 17.1499C26.6344 17.1499 27.4627 17.9782 27.4627 18.9999V23.964C27.4627 24.9858 26.6344 25.814 25.6127 25.814C24.591 25.814 23.7627 24.9858 23.7627 23.964V18.9999C23.7627 17.9782 24.591 17.1499 25.6127 17.1499Z" fill="#1C3553"/>
<path fill-rule="evenodd" clip-rule="evenodd" d="M11 22.0109C11 20.9063 11.8954 20.0109 13 20.0109H82.0078C83.1124 20.0109 84.0078 20.9063 84.0078 22.0109V73.0025C84.0078 74.1071 83.1124 75.0025 82.0078 75.0025H77.9987V71.0025H80.0078V24.0109H15V71.0025H52V75.0025H13C11.8954 75.0025 11 74.1071 11 73.0025V22.0109Z" fill="#1C3553"/>
</svg>
