<svg width="96" height="96" viewBox="0 0 96 96" fill="none" xmlns="http://www.w3.org/2000/svg">
<path d="M37 55.999H43C43.6 55.999 44 55.599 44 54.999V46.999C44 46.399 43.6 45.999 43 45.999H37C36.4 45.999 36 46.399 36 46.999V54.999C36 55.599 36.4 55.999 37 55.999ZM38 47.999H42V53.999H38V47.999Z" fill="#1C3553"/>
<path d="M53 55.999H59C59.6 55.999 60 55.599 60 54.999V46.999C60 46.399 59.6 45.999 59 45.999H53C52.4 45.999 52 46.399 52 46.999V54.999C52 55.599 52.4 55.999 53 55.999ZM54 47.999H58V53.999H54V47.999Z" fill="#1C3553"/>
<path d="M26.6002 43.7992V44.3992V46.1992V69.3992C26.6002 71.7992 26.6002 75.3992 30.4002 75.3992H66.6002C70.4002 75.3992 70.4002 71.7992 70.4002 69.3992V46.3992V43.7992C72.0002 43.7992 73.8002 43.7992 75.4002 43.7992C77.4002 43.7992 78.4002 42.7992 78.8002 41.7992C79.4002 40.3992 79.0002 39.1992 77.8002 37.9992C76.6002 37.1992 50.6002 15.3992 49.4002 14.3992C48.6002 13.7992 47.6002 13.7992 46.8002 14.3992C45.8002 15.3992 20.6002 36.9992 19.2002 38.1992C18.8002 38.5992 17.4002 39.9992 18.2002 41.9992C18.6002 42.7992 19.4002 43.9992 21.6002 43.9992C23.2002 43.7992 24.8002 43.7992 26.6002 43.7992ZM26.8002 43.1992L26.6002 42.9992L27.2002 43.1992H26.8002ZM48.2002 18.5992C55.2002 24.3992 69.0002 35.9992 73.6002 39.7992C72.4002 39.7992 71.2002 39.7992 70.0002 39.7992C69.0002 39.7992 66.4002 39.7992 66.4002 42.9992V43.1992V69.5992C66.4002 70.5992 66.4002 71.1992 66.4002 71.5992H30.8002C30.8002 71.1992 30.8002 70.5992 30.8002 69.5992V43.1992V42.9992C30.8002 42.3992 30.8002 41.3992 30.0002 40.5992C29.2002 39.7992 28.2002 39.7992 27.2002 39.7992C26.0002 39.7992 24.8002 39.7992 23.6002 39.7992C27.8002 35.9992 40.4002 25.3992 48.2002 18.5992Z" fill="#1C3553"/>
<path d="M20 75.9995H76C77.2 75.9995 78 75.1995 78 73.9995V69.9995C78 68.7995 77.2 67.9995 76 67.9995H20C18.8 67.9995 18 68.7995 18 69.9995V73.9995C18 75.1995 18.8 75.9995 20 75.9995Z" fill="#2988FF"/>
</svg>
